<svg width="340" height="340" viewBox="0 0 340 340" fill="none" xmlns="http://www.w3.org/2000/svg">
<path d="M50.9984 207.571C49.3662 207.168 47.7642 206.651 46.2044 206.024C44.8784 208.676 43.3484 211.685 41.7504 214.83L43.5524 215.782C43.6518 215.833 43.74 215.904 43.8122 215.989C43.8843 216.075 43.9389 216.173 43.9728 216.28C44.0068 216.387 44.0194 216.499 44.01 216.61C44.0006 216.722 43.9693 216.83 43.9179 216.929C43.8666 217.029 43.7962 217.117 43.7107 217.189C43.6253 217.261 43.5264 217.316 43.4199 217.35C43.3133 217.384 43.2011 217.396 43.0897 217.387C42.9783 217.378 42.8698 217.346 42.7704 217.295L41.0704 216.343L35.9704 226.39C37.6154 227.064 39.324 227.571 41.0704 227.903C43.9944 221.885 47.5984 214.915 50.9984 207.571ZM55.8944 196.895C54.1944 196.504 52.6474 196.045 51.1344 195.552C49.9784 198.425 49.0094 200.363 46.9524 204.511C48.5012 205.139 50.0989 205.64 51.7294 206.007C53.1404 203.015 54.5344 199.955 55.8944 196.895ZM35.1544 211.005C36.9734 212.144 38.7924 213.181 40.2544 213.997C41.8184 210.92 43.3314 207.962 44.6404 205.344C42.7846 204.49 40.9847 203.519 39.2514 202.437C38.1124 204.732 36.6844 207.724 35.1544 211.005ZM49.5364 194.974C47.6334 194.269 45.7717 193.458 43.9604 192.543C42.831 195.415 41.5134 198.209 40.0164 200.907C41.7354 202.013 43.5305 202.996 45.3884 203.848C47.2924 200.006 48.4654 197.66 49.5364 194.974ZM29.5784 223.177C31.0744 224.122 32.6303 224.968 34.2364 225.71C35.9364 222.429 37.7384 218.91 39.4724 215.51C38.0274 214.694 36.2424 213.674 34.3724 212.552C32.8254 216.02 31.1594 219.692 29.5784 223.177ZM38.1804 187.188C39.4894 188.072 41.1214 189.092 43.0594 190.146C44.1474 187.222 45.1334 184.179 46.0344 181.221C44.0457 180.249 42.1105 179.171 40.2374 177.991C39.875 181.12 39.1855 184.203 38.1804 187.188ZM51.7634 193.971C53.2934 194.481 54.9084 194.923 56.5914 195.314C56.6934 195.093 59.3454 188.922 60.4334 186.321C58.6144 185.93 56.8464 185.454 55.1124 184.91C53.8884 188.361 52.6984 191.489 51.7634 193.971ZM44.5724 190.945C46.3877 191.869 48.2552 192.686 50.1654 193.393C51.1174 190.945 52.2564 187.834 53.5654 184.366C51.4914 183.635 49.5024 182.819 47.6494 181.969C46.6634 184.944 45.6774 187.987 44.5724 190.945ZM69.3924 162.181C67.3236 162.008 65.2815 161.597 63.3064 160.957C62.3714 163.796 61.3344 166.907 60.2464 170.086C62.2838 170.512 64.3541 170.763 66.4344 170.834C67.7094 167.281 68.6784 164.408 69.3924 162.181ZM55.6734 183.312C57.3734 183.856 59.2434 184.349 61.0794 184.723C63.0004 180.031 64.4794 175.968 65.8224 172.5C63.764 172.402 61.7171 172.134 59.7024 171.701C58.3764 175.628 56.9824 179.623 55.6734 183.312ZM92.0534 155.585C91.6454 154.752 91.2204 153.885 90.8294 152.814C88.3984 153.596 84.9984 154.701 81.9894 155.942C82.4994 157.251 82.9754 158.56 83.4514 159.869C86.1952 158.205 89.0724 156.772 92.0534 155.585ZM33.9984 196.64C35.5624 197.813 36.9904 198.884 38.6224 200.04C40.1016 197.372 41.3966 194.606 42.4984 191.761C40.5604 190.707 38.8944 189.67 37.5684 188.786C36.8544 190.18 35.5624 193.002 33.9984 196.64ZM82.5504 162.436C80.0344 164.136 77.6374 165.836 75.3424 167.536C75.8184 168.76 76.5154 170.647 77.2464 172.755C79.3034 171.701 81.9894 170.46 84.7604 169.236C84.1144 167.094 83.2984 164.782 82.5504 162.436ZM24.2744 219.301C25.4134 220.236 26.7224 221.222 28.1334 222.191C29.7144 218.791 31.3804 215.051 32.9784 211.617C31.4654 210.648 29.9864 209.628 28.6944 208.642C27.1984 212.212 25.6684 215.901 24.2744 219.301ZM40.0334 229.501C38.3194 229.127 36.6413 228.603 35.0184 227.937C33.4714 230.946 32.0264 233.734 30.8194 236.046C32.5194 236.845 34.0664 237.542 35.4774 238.069C36.8204 235.536 38.3674 232.646 40.0334 229.501ZM29.3914 207.061C30.7782 208.143 32.2194 209.153 33.7094 210.087C35.2394 206.806 36.6674 203.797 37.8064 201.587C36.1064 200.397 34.4914 199.258 33.2334 198.323C32.0604 200.907 30.7344 204.001 29.3914 207.061ZM33.4544 227.223C31.8743 226.485 30.3414 225.651 28.8644 224.724L25.1754 232.901C26.5354 233.717 27.9294 234.499 29.3064 235.196C30.4964 232.901 31.9244 230.198 33.4544 227.223ZM20.3984 229.756C21.4694 230.538 22.6084 231.32 23.7984 232.068C24.8354 229.739 26.1104 226.968 27.5044 223.789C26.1104 222.854 24.8354 221.902 23.6964 220.984C22.3534 224.18 21.2144 227.172 20.3984 229.756ZM212.702 91.9199C213.583 92.0137 214.473 91.9097 215.309 91.6156C216.144 91.3215 216.903 90.8447 217.53 90.2199C217.855 89.8272 218.072 89.3567 218.16 88.8548C218.249 88.3529 218.205 87.8366 218.034 87.3567C217.862 86.8767 217.569 86.4496 217.183 86.117C216.797 85.7845 216.331 85.5581 215.83 85.4599C212.736 84.5759 207.007 85.4599 207.007 88.9619C206.956 91.4609 210.237 91.9199 212.702 91.9199ZM208.044 88.7749C208.044 86.5479 213.399 86.1229 215.354 86.7009C217.972 87.4489 217.632 90.6109 213.076 90.6959C211.291 90.7469 208.044 90.5599 208.044 88.7749ZM178.498 101.78C179.62 101.78 180.419 100.845 181.201 100.216C183.025 98.5697 185.06 97.1746 187.253 96.0679C195.957 92.4639 198.303 96.6459 201.465 94.2319C203.165 93.0079 202.23 90.4749 200.989 88.8939C200.389 88.1895 199.651 87.6151 198.821 87.2059C197.991 86.7966 197.086 86.5612 196.161 86.5139C193.381 86.452 190.616 86.9551 188.035 87.9929C183.118 89.116 178.439 91.1017 174.214 93.8579C173.347 94.4529 172.14 95.2689 172.514 96.5609C173.398 98.6009 176.543 101.78 178.498 101.78ZM195.719 87.5169C200.071 87.5169 202.009 92.0389 200.819 93.2119C200.02 93.9769 197.963 93.8409 196.297 93.4669C189.667 92.4299 185.519 95.1669 180.3 99.1959C179.433 99.8589 178.787 100.709 177.801 100.216C175.557 99.0939 173.619 96.2719 173.874 95.8469C178.09 91.8009 190.84 87.5169 195.787 87.5169H195.719Z" fill="black"/>
<path d="M331.721 329.935C315.35 281.162 302.821 239.41 295.375 214.471C289.799 195.771 287.504 188.24 286.875 187.679C286.705 187.543 284.954 187.118 275.859 183.939C278.664 174.793 278.426 166.599 274.72 160.7C274.465 160.275 268.192 150.5 258.808 150.5C251.073 150.5 241.383 158.32 240.227 170.101C230.163 165.681 227.885 164.253 227.579 164.372C214.642 169.302 189.448 178.992 177.514 184.534L125.052 162.757C124.848 162.757 114.291 166.157 102.017 170.033C101.679 166.01 100.973 162.027 99.9087 158.133C101.167 157.674 104.55 156.756 105.23 156.433C105.362 156.361 105.465 156.245 105.521 156.106C105.576 155.966 105.582 155.811 105.536 155.668C103.716 149.848 102.285 143.913 101.252 137.903C116.875 134.503 130.645 131.307 138.125 129.284C138.839 131.29 141.763 131.783 143.463 128.927C144.415 129.811 146.659 129.777 147.662 126.921C149.549 126.655 151.364 126.013 153 125.034C158.304 121.141 154.258 114.069 147.764 115.157C144.177 115.769 137.751 116.857 129.659 118.098C125.664 114.477 117.385 107.541 114.512 105.059C115.005 94.9441 113.679 86.7841 110.466 80.1201C107.848 74.6971 103.462 70.4471 99.2457 66.2141C99.9937 64.5141 101.694 59.4141 98.3957 56.6941C99.6577 55.4189 100.662 53.9124 101.354 52.2571C103.026 48.3631 104.313 44.3148 105.196 40.1701C106.799 41.8872 107.857 44.0403 108.239 46.3581C108.494 48.0581 111.52 41.2581 110.16 33.7781C110.548 34.2688 111.013 34.6936 111.537 35.0361C111.578 35.056 111.623 35.0654 111.669 35.0632C111.714 35.0611 111.758 35.0476 111.797 35.0239C111.836 35.0002 111.869 34.9671 111.891 34.9276C111.914 34.8882 111.927 34.8436 111.928 34.7981C111.877 32.3141 111.267 29.8736 110.143 27.6581C112.608 25.3971 116.943 19.8891 114.886 17.1691C112.829 14.4491 105.859 15.2991 102.782 15.5541C99.6537 11.0321 92.8537 8.99208 87.9917 9.38308C83.5439 9.92106 79.4704 12.1403 76.6065 15.5858C73.7427 19.0313 72.3055 23.4418 72.5897 27.9131C70.3627 29.6131 66.7757 32.6051 65.1947 35.7331C63.4947 38.4361 64.0727 42.2101 67.2517 43.1451C69.8524 43.7974 72.5831 43.715 75.1397 42.9071C76.2107 45.7631 76.1087 44.3011 76.1597 46.7831C75.1238 46.7106 74.084 46.8511 73.1044 47.1962C72.1249 47.5412 71.2266 48.0833 70.4647 48.7891C67.6937 51.2031 66.7757 54.8411 65.6197 58.1221C59.5927 59.1757 53.857 61.4931 48.7897 64.9221C24.3777 78.3521 14.3137 106.572 25.4997 130.559C25.5847 130.763 25.8397 130.695 26.0607 130.661C26.157 132.095 26.4311 133.511 26.8767 134.877C25.3467 135.115 22.0317 135.591 20.2637 135.744C12.0697 136.475 7.24174 144.091 8.66974 148.868C9.79174 152.999 15.2997 154.699 19.3797 154.699C21.3007 154.699 20.9777 154.699 37.4507 151.299C33.3367 161.941 31.7217 161.227 35.6657 163.692C33.9657 169.064 32.2657 180.862 33.2007 184.721C22.1167 207.195 12.4607 235.925 12.8007 236.384C13.5794 237.42 14.4137 238.413 15.2997 239.359C13.5997 241.79 10.0807 246.89 9.53674 248.063C6.66374 254.2 8.66974 256.682 14.8747 259.538C17.0337 260.541 25.6697 263.244 25.8397 263.295C27.1827 263.754 28.6617 264.196 29.7327 263.295C31.6537 261.459 29.9707 259.198 28.4747 257.192C26.9256 254.73 25.9657 251.943 25.6697 249.049C25.7547 248.947 26.6727 247.587 26.8937 247.349C27.7996 247.741 28.746 248.032 29.7157 248.216C29.9027 248.216 29.7157 248.709 34.6627 239.614C33.2347 239.07 31.6707 238.39 30.0387 237.591C28.5087 240.566 27.5227 242.453 27.4717 242.538C27.3542 242.71 27.1779 242.832 26.976 242.883C26.7742 242.933 26.5609 242.908 26.3766 242.811C26.1922 242.715 26.0496 242.554 25.9757 242.36C25.9019 242.165 25.9019 241.951 25.9757 241.756C25.9757 241.756 26.9957 239.784 28.5257 236.843C27.1827 236.146 25.8057 235.398 24.4797 234.599L22.7797 238.475C22.6751 238.656 22.5072 238.793 22.3082 238.858C22.1092 238.923 21.8932 238.913 21.7015 238.828C21.5098 238.744 21.356 238.592 21.2695 238.401C21.183 238.211 21.1699 237.995 21.2327 237.795L23.0347 233.715C21.9127 233.001 20.8077 232.27 19.7707 231.522C19.4987 232.389 19.2437 233.222 19.0397 233.936C18.9789 234.162 18.8309 234.354 18.6285 234.47C18.4261 234.586 18.1857 234.617 17.9602 234.557C17.7348 234.496 17.5428 234.348 17.4264 234.145C17.31 233.943 17.2789 233.703 17.3397 233.477C17.5947 232.576 17.9177 231.556 18.2917 230.451L17.4757 229.788C17.3766 229.723 17.2923 229.637 17.2284 229.537C17.1644 229.436 17.1222 229.324 17.1044 229.206C17.0866 229.089 17.0936 228.969 17.1251 228.854C17.1565 228.74 17.2117 228.633 17.2869 228.541C17.3622 228.449 17.4559 228.374 17.5621 228.32C17.6682 228.267 17.7844 228.236 17.9031 228.23C18.0218 228.224 18.1404 228.244 18.2513 228.286C18.3622 228.329 18.4628 228.395 18.5467 228.479C19.1077 228.921 18.2407 229.924 22.2187 219.979C21.8447 219.673 21.5047 219.367 21.1647 219.061C21.013 218.906 20.926 218.7 20.9217 218.483C20.9173 218.266 20.9959 218.056 21.1414 217.895C21.2869 217.735 21.4882 217.636 21.7043 217.618C21.9203 217.601 22.1348 217.667 22.3037 217.803L22.8987 218.313C24.2927 214.913 25.8227 211.19 27.3187 207.688C26.8431 207.288 26.3944 206.856 25.9757 206.396C25.8401 206.229 25.773 206.016 25.788 205.801C25.803 205.587 25.899 205.386 26.0566 205.239C26.2142 205.092 26.4216 205.01 26.6369 205.011C26.8523 205.011 27.0595 205.093 27.2167 205.24L28.0157 206.039C29.3587 202.928 30.6677 199.953 31.8237 197.335C31.3137 196.961 30.8547 196.638 30.4977 196.417C30.3866 196.369 30.287 196.298 30.2056 196.208C30.1242 196.118 30.063 196.012 30.0259 195.897C29.9888 195.782 29.9768 195.66 29.9907 195.54C30.0045 195.419 30.0439 195.303 30.1062 195.2C30.1685 195.096 30.2523 195.006 30.3519 194.938C30.4515 194.869 30.5647 194.822 30.6839 194.8C30.8031 194.779 30.9254 194.783 31.0429 194.813C31.1603 194.842 31.27 194.897 31.3647 194.972C31.7047 195.176 32.0957 195.431 32.5377 195.737C34.1187 192.167 36.0567 188.002 36.0737 187.951L35.1047 187.271C34.1017 186.574 35.1047 185.214 35.9717 185.792L36.7197 186.336C37.6438 183.312 38.2924 180.212 38.6577 177.071C37.7993 176.482 36.9867 175.828 36.2267 175.116C36.0644 174.958 35.9714 174.742 35.9683 174.516C35.9651 174.29 36.0519 174.071 36.2097 173.909C36.3675 173.747 36.5834 173.654 36.8097 173.651C37.0361 173.647 37.2544 173.734 37.4167 173.892C37.8973 174.356 38.4085 174.788 38.9467 175.184C39.1424 173.769 39.4205 172.367 39.7797 170.985C39.8406 170.76 39.9885 170.568 40.191 170.451C40.3934 170.335 40.6338 170.304 40.8592 170.365C41.0847 170.425 41.2767 170.573 41.3931 170.776C41.5094 170.978 41.5406 171.219 41.4797 171.444C41.0745 173.04 40.7623 174.657 40.5447 176.289C42.4836 177.537 44.493 178.673 46.5627 179.689C46.7667 179.009 48.0077 174.878 48.4157 173.569C48.4811 173.344 48.6334 173.153 48.839 173.04C49.0446 172.927 49.2868 172.9 49.5122 172.966C49.7377 173.031 49.9279 173.183 50.0411 173.389C50.1543 173.594 50.1811 173.837 50.1157 174.062L48.1777 180.42C50.1351 181.333 52.1381 182.144 54.1787 182.851C55.4537 179.23 56.8137 175.303 58.1397 171.41C56.6209 171.02 55.1413 170.491 53.7197 169.829C53.5539 169.717 53.4327 169.551 53.3774 169.359C53.3221 169.167 53.3363 168.961 53.4175 168.779C53.4987 168.596 53.6417 168.448 53.8213 168.36C54.001 168.272 54.2058 168.251 54.3997 168.299C55.7563 168.94 57.1746 169.441 58.6327 169.795C59.7207 166.565 60.7917 163.386 61.7437 160.479C60.1194 159.848 58.587 159.002 57.1877 157.963C57.0074 157.828 56.8882 157.626 56.8563 157.403C56.8244 157.18 56.8825 156.953 57.0177 156.773C57.153 156.593 57.3544 156.473 57.5775 156.442C57.8007 156.41 58.0274 156.468 58.2077 156.603C59.4523 157.535 60.8195 158.29 62.2707 158.847C63.3417 155.6 64.2597 152.744 64.9227 150.585C64.9442 150.467 64.9905 150.355 65.0584 150.256C65.1263 150.157 65.2143 150.074 65.3168 150.012C65.4192 149.949 65.5336 149.909 65.6526 149.894C65.7716 149.879 65.8924 149.889 66.0071 149.925C66.1218 149.96 66.2278 150.018 66.3181 150.097C66.4085 150.176 66.4811 150.273 66.5312 150.382C66.5813 150.491 66.6078 150.61 66.6089 150.729C66.6101 150.849 66.5858 150.968 66.5377 151.078C65.9257 153.101 64.9907 156.025 63.8687 159.425C65.8483 160.061 67.8975 160.455 69.9717 160.598L70.8557 157.844C71.2807 156.586 74.2557 156.144 73.3207 158.898L68.5097 172.617C68.5097 172.787 68.4247 172.498 70.9577 180.131C63.8177 182.46 64.1577 182.341 64.1577 182.528C47.3957 237.795 25.9247 329.884 26.6727 330.428C27.4207 330.972 51.7817 318.307 107.423 295.391C116.433 297.312 173.944 328.218 179.537 330.632C179.707 330.717 179.248 330.836 185.198 328.099C197.71 322.302 220.898 311.541 249.373 295.68C282.948 314.89 329.018 329.986 330.888 330.598C330.988 330.645 331.099 330.663 331.209 330.649C331.319 330.636 331.423 330.593 331.509 330.524C331.596 330.455 331.661 330.364 331.699 330.26C331.736 330.156 331.744 330.043 331.721 329.935ZM24.6327 249.712C24.8909 252.909 26.072 255.963 28.0327 258.501C28.7863 259.274 29.2693 260.27 29.4097 261.34C29.4403 261.645 29.3613 261.951 29.1869 262.204C29.0125 262.456 28.754 262.638 28.4577 262.717C23.0245 261.062 17.6942 259.087 12.4947 256.801C8.60174 254.421 9.17974 252.483 10.5737 248.964C11.1222 247.622 11.7878 246.331 12.5627 245.105C13.7357 249.899 19.1247 252.313 24.6327 249.712ZM25.6527 246.754C25.3127 247.281 24.8027 248.097 24.6157 248.454C23.5967 249.044 22.4685 249.42 21.2995 249.561C20.1306 249.701 18.9453 249.602 17.8157 249.27C16.3877 248.573 13.6847 246.618 13.6337 244.17C13.6337 244.17 15.4187 241.586 16.2177 240.396C18.9678 243.05 22.161 245.201 25.6527 246.754ZM177.871 190.654V185.333C180.982 183.956 183.651 182.783 186.15 181.729C184.382 183.599 178.177 190.399 177.871 190.705V190.654ZM253.062 214.811C259.046 214.658 290.581 213.893 293.522 213.774C294.185 216.001 299.557 233.766 302.26 242.572L253.062 214.811ZM247.537 280.295L324.955 314.057C326.23 317.916 329.324 326.756 330.191 329.102C287.436 314.193 262.191 300.797 252.654 295.748C251.413 295.085 250.461 294.575 249.781 294.252C249.662 294.252 249.628 294.167 248.88 294.558C248.795 290.189 247.911 284.715 247.537 280.346V280.295ZM106.743 294.371C92.1227 299.896 34.3397 325.566 28.1177 328.473C28.5427 326.62 38.7767 282.182 40.5957 274.787C40.932 274.929 41.3013 274.974 41.6619 274.917C42.0224 274.86 42.3598 274.703 42.6357 274.464L44.9987 272.407C46.2907 275.943 56.5417 303.67 57.4427 305.999C57.6297 306.475 58.3947 306.237 58.2077 305.727C57.2047 302.956 56.2187 300.236 55.3177 297.601C64.9907 290.954 89.3177 276.402 92.4627 274.532L107.559 285.055C107.474 286.075 107.1 291.566 106.743 294.422V294.371ZM256.496 210.884L234.396 211.411C233.767 206.94 229.126 167.211 229.024 166.327C231.302 167.432 234.838 169.132 240.04 171.427C239.547 182.63 245.327 196.876 256.496 210.935V210.884ZM137.224 293.64C139.587 296.887 149.668 310.64 153.799 316.114C153.221 315.808 128.537 302.769 124.219 300.627L137.224 293.64ZM116.96 297.329C114.046 296.111 111.046 295.111 107.984 294.337C108.392 292.025 108.715 289.713 109.072 287.027L116.96 297.329ZM177.123 233.46L172.159 229.635C173.383 229.516 175.967 229.244 176.97 229.074L177.123 233.46ZM269.382 267.647L313.956 305.217L247.146 275.977C246.721 271.642 244.987 259.198 244.409 255.696C251.379 259.47 268.311 267.188 269.382 267.647ZM54.9267 296.547C54.2977 294.745 52.8357 290.58 52.4107 289.407C61.6587 283.593 82.6197 271.659 85.6287 269.823L91.2047 273.699C85.7137 276.827 58.8367 293.912 54.9267 296.547ZM52.0537 288.353C50.8807 284.953 48.6537 278.697 48.2797 277.456C56.0827 273.308 74.6127 264.791 76.8907 263.754L84.2517 268.854C80.6137 270.962 55.6747 286.075 52.0537 288.353ZM47.9227 276.453C47.9227 276.453 46.4947 272.288 46.2227 271.353L59.0577 260.201C60.7921 261.218 62.8107 261.642 64.8077 261.409C66.8046 261.176 68.6712 260.298 70.1247 258.909L75.4797 262.649C71.1787 264.638 51.1867 274.702 47.9227 276.453ZM63.6137 247.162C65.0159 247.162 66.3607 247.719 67.3522 248.711C68.3437 249.702 68.9007 251.047 68.9007 252.449C68.9007 253.851 68.3437 255.196 67.3522 256.188C66.3607 257.179 65.0159 257.736 63.6137 257.736C59.6697 257.736 57.6297 256.24 57.7487 251.871C58.1343 250.584 58.9015 249.445 59.9488 248.604C60.9962 247.764 62.2742 247.261 63.6137 247.162ZM173.808 250.103C167.331 250.8 147.118 253.027 143.531 253.503L117.3 225.079L119.595 207.399L128.911 201.177L177.31 238.441C177.31 239.733 177.667 246.244 177.803 248.896C176.592 249.624 175.219 250.039 173.808 250.103ZM106.947 218.5L118.235 208.606C118.235 208.606 116.535 221.985 116.127 224.314L106.947 218.5ZM83.2997 239.155L103.87 221.135L111.877 226.235C110.5 227.34 92.3267 242.147 92.1057 242.283C91.6297 242.589 91.8847 242.419 83.2997 239.155ZM108.545 211.955C107.304 211.734 90.1337 208.963 87.2267 208.453C87.4477 208.232 92.9047 202.945 94.2647 201.653C98.8207 201.415 115.753 201.262 119.17 201.143L119 203.098L108.545 211.955ZM95.5907 214.063C95.6541 214.016 95.7055 213.954 95.7409 213.883C95.7763 213.812 95.7947 213.734 95.7947 213.655C95.7947 213.576 95.7763 213.498 95.7409 213.427C95.7055 213.356 95.6541 213.295 95.5907 213.247C94.821 212.764 94.0203 212.333 93.1937 211.955C91.9867 211.479 92.1057 212.295 88.0937 217.531C87.8217 217.888 88.3827 218.279 88.6547 217.922C89.6237 216.681 92.1567 213.604 92.6667 213.06C92.9897 213.179 93.7717 213.604 94.3667 213.876C93.3977 214.93 90.1507 218.585 89.2667 219.809C88.1277 219.622 81.3957 218.466 77.7407 217.701C77.7407 217.701 84.0817 211.462 86.1387 209.49C90.4907 210.272 103.309 212.516 107.219 213.128L98.4637 220.778C95.8967 220.574 93.1597 220.336 90.4397 219.979C91.7997 218.449 95.1997 214.454 95.6417 214.046L95.5907 214.063ZM74.9357 225.3C75.0887 225.419 78.3357 226.014 81.9567 227C81.2191 227.685 80.4475 228.331 79.6447 228.938C78.8967 228.632 76.6867 227.935 73.0317 226.847C74.8847 225.249 74.7997 225.198 74.9867 225.283L74.9357 225.3ZM83.0277 227C83.0835 226.96 83.1272 226.906 83.1542 226.843C83.1812 226.78 83.1904 226.711 83.1807 226.643C83.1807 226.286 83.1807 226.269 76.8737 224.671C74.8507 224.178 74.7147 224.025 74.2727 224.365C73.8307 224.705 72.2667 226.201 71.7907 226.541C71.716 226.591 71.6569 226.66 71.6201 226.742C71.5833 226.824 71.5703 226.915 71.5828 227.004C71.5952 227.092 71.6325 227.176 71.6904 227.244C71.7482 227.313 71.8243 227.364 71.9097 227.391C72.4027 227.578 76.0577 228.887 78.0807 229.533C74.4427 229.159 67.0647 228.479 66.6907 228.445C67.6767 227.425 75.8367 219.486 76.6697 218.653C83.4735 220.161 90.3759 221.184 97.3247 221.713L87.1247 230.587C85.7987 230.349 82.9087 230.026 79.6787 229.703C80.4947 229.244 82.5007 227.51 83.0787 227.034L83.0277 227ZM72.8277 252.381C72.9297 252.466 91.2727 262.581 92.1907 262.581C93.1087 262.581 96.1517 258.365 96.3047 257.957C96.3346 257.905 96.3503 257.847 96.3503 257.787C96.3503 257.727 96.3346 257.669 96.3047 257.617C93.099 255.405 89.7794 253.362 86.3597 251.497C86.8697 250.647 88.9947 247.91 89.6237 246.686C89.6916 246.505 89.6916 246.306 89.6237 246.125C89.5047 245.802 89.3347 245.802 88.3997 245.309C85.3227 243.609 83.5207 242.912 82.8747 243.49C82.2287 244.068 73.7287 250.29 72.7937 251.429C72.7073 250.57 72.4953 249.728 72.1647 248.93L82.3647 240.039C85.5378 241.446 88.8038 242.633 92.1397 243.592C92.8027 243.49 111.265 228.394 113.118 226.881C115.413 228.326 114.818 227.867 115.617 228.717L110.279 268.157C108.426 268.446 97.4777 271.047 95.0977 271.557L72.2837 255.645C72.662 254.611 72.8464 253.516 72.8277 252.415V252.381ZM85.3397 250.426C84.9997 250.8 84.4387 251.412 84.9827 252.126C86.1236 252.943 87.3224 253.676 88.5697 254.319C90.7797 255.577 93.4827 257.124 94.9787 258.195C91.8847 261.476 92.5647 261.697 91.2217 261.017C87.8217 259.317 77.5027 254.098 74.1197 252.143L83.5887 244.646C83.9627 244.272 83.9627 244.408 88.0427 246.686C87.2523 248.02 86.348 249.282 85.3397 250.46V250.426ZM111.554 268.242C112.625 260.303 115.736 236.724 116.654 229.924L163.914 281.349C151.096 282.437 149.804 282.488 149.634 282.59L136.323 289.747C124.423 273.325 126.123 274.243 124.423 272.883C120.221 271.111 115.925 269.573 111.554 268.276V268.242ZM238.799 232.1C238.374 230.298 235.399 217.565 235.127 215.831L235.586 215.236L245.531 214.998L270.3 229.006C265.574 229.499 241.723 231.811 238.799 232.134V232.1ZM242.199 244.68L265.999 264.672C260.899 262.241 246.262 255.203 244.256 254.183C243.525 250.936 242.862 247.74 242.131 244.799L242.199 244.68ZM161.789 252.772C166.175 257.107 170.391 261.629 174.539 266.066C171.632 266.423 159.239 267.885 157.165 268.225L144.772 254.761C148.036 254.438 158.44 253.197 161.721 252.806L161.789 252.772ZM177.939 250.341C178.126 253.639 178.772 265.352 178.772 265.352C177.843 265.691 176.869 265.886 175.882 265.93C171.666 261.17 167.144 256.58 163.166 252.602C171.7 251.599 176.205 251.242 177.871 250.375L177.939 250.341ZM201.348 218.602C198.254 218.228 190.077 217.344 187.748 217.106C189.142 215.253 194.072 208.317 194.65 207.688C195.602 206.651 195.687 206.855 214.149 206.549C212.007 208.487 201.977 218.041 201.28 218.636L201.348 218.602ZM187.187 239.308C186.473 240.056 180.098 246.856 179.095 247.808C178.993 245.921 178.721 241.008 178.636 238.832L187.187 239.308ZM200.6 219.775C199.104 221.22 185.623 234.004 184.331 235.33L179.333 235.092L178.466 234.429C178.375 232.389 178.307 230.349 178.262 228.309C179.044 227.442 184.45 221.288 186.762 218.262L200.6 219.775ZM217.328 241.229C216.111 241.171 214.962 240.649 214.117 239.772C213.271 238.894 212.793 237.727 212.78 236.509C212.767 235.29 213.22 234.113 214.047 233.218C214.873 232.322 216.01 231.777 217.226 231.692C223.38 231.692 223.448 241.11 217.243 241.229H217.328ZM208.828 236.231C208.828 236.231 192.491 235.67 186.116 235.415C189.635 232.117 215.849 206.515 215.849 206.515C217.549 206.515 219.385 206.515 221.306 206.634C223.006 211.207 224.927 215.797 226.729 220.234L220.303 228.292C219.008 227.814 217.618 227.655 216.249 227.828C214.88 228.001 213.574 228.502 212.439 229.288C211.305 230.073 210.377 231.121 209.733 232.341C209.09 233.562 208.75 234.919 208.743 236.299L208.828 236.231ZM209.814 240.464C210.528 241.821 211.596 242.959 212.905 243.759C214.214 244.558 215.715 244.988 217.248 245.004C218.782 245.02 220.291 244.62 221.616 243.848C222.94 243.075 224.032 241.959 224.774 240.617L238.663 241.705L240.516 243.269C241.315 246.516 242.063 249.967 242.726 253.469C236.657 256.487 229.839 257.669 223.108 256.869C223.108 256.869 194.208 255.169 190.179 254.982C192.423 252.313 200.124 243.082 202.725 240.005L209.814 240.464ZM234.923 237.54C235.433 237.03 237.541 234.82 238.119 234.242L239.122 237.863L234.923 237.54ZM231.795 258.399C229.024 261.901 220.745 273.036 218.569 276.368H217.124C216.869 276.368 181.033 294.32 180.948 294.218V289.237C181.492 288.625 206.176 259.572 207.91 257.549C212.075 257.583 226.525 258.62 231.795 258.399ZM219.895 276.351C222.428 272.798 230.69 261.408 233.172 258.212C236.447 257.386 239.635 256.248 242.692 254.812C243.032 254.999 245.242 271.54 245.667 275.841L219.895 276.351ZM239.088 233.562C239.751 233.392 241.417 233.154 242.165 233.069C248.098 237.54 264.265 249.559 267.41 251.922L257.873 253.01L240.431 238.339C240.125 236.962 239.887 236.078 239.156 233.494L239.088 233.562ZM233.121 237.489L225.658 236.911C225.658 235.772 225.658 232.304 223.38 230.587L234.039 217.208C234.889 221.781 237.133 231.131 237.541 232.746C236.002 234.22 234.549 235.781 233.189 237.421L233.121 237.489ZM188.7 239.41L201.059 240.039C196.588 245.377 182.529 261.612 180.047 264.451C179.894 261.595 179.316 251.616 179.197 249.491C180.353 248.369 187 241.127 188.7 239.41ZM256.972 231.675C260.372 234.208 278.545 247.366 282.268 249.967C277.168 250.664 273.02 251.208 269.127 251.667C267.427 250.358 247.775 235.602 244.069 232.831L256.972 231.675ZM177.99 216.698C179.486 217.089 183.464 217.803 185.181 218.041C183.481 220.047 178.211 226.388 178.194 226.422C178.041 223.787 177.922 218.347 177.905 216.698H177.99ZM125.681 198.712L120.275 202.299C120.598 199.987 120.904 197.675 121.21 195.363L125.681 198.712ZM120.105 194.598L119.374 200.072C116.552 200.072 100.521 200.259 95.4717 200.446C96.0667 199.902 99.1607 196.944 100.198 196.026L120.105 194.598ZM110.024 269.534C109.701 271.948 108.545 280.567 108.477 281.043L96.1857 272.543C98.4297 271.999 107.95 269.755 110.024 269.534ZM111.384 269.534C113.271 269.959 121.584 272.662 122.706 273.189C124.95 274.226 124.406 274.719 134.929 290.393L121.924 297.499L109.735 281.995C110.755 274.294 110.959 272.696 111.384 269.619V269.534ZM178.772 266.695C178.891 269.177 179.486 282.607 179.588 288.795C179.044 289.441 178.466 290.138 177.888 290.852L158.338 269.602C161.5 269.279 176.018 267.511 178.772 266.78V266.695ZM188.972 256.376C191.063 256.597 203.116 257.175 206.363 257.345C203.082 261.238 180.863 287.248 180.863 287.248C180.727 280.295 180.472 273.189 180.081 266.1C181.628 264.995 188.088 257.447 188.921 256.461L188.972 256.376ZM286.382 276.776L259.42 254.047C268.141 252.976 303.263 247.876 303.943 247.791C306.374 255.662 311.797 272.883 312.698 275.739C309.4 275.943 291.278 276.691 286.331 276.895L286.382 276.776ZM283.747 249.576C281.741 247.978 262.667 234.123 258.791 231.318C261.511 231.097 269.875 230.383 272.391 230.026L302.277 246.873C296.939 247.774 287.419 249.202 283.696 249.763L283.747 249.576ZM169.235 195.244L153 185.588L157.386 182.732C161.755 185.265 173.536 191.827 175.015 192.643C173.723 193.221 170.561 194.649 169.235 195.244ZM170.459 228.326L151.878 214.012C152.677 212.805 156.077 207.773 156.808 206.685C159.069 207.943 174.539 215.44 176.664 216.307C176.664 216.443 176.834 224.518 176.936 227.629C175.984 227.799 171.989 228.258 170.459 228.326ZM176.647 215.066C175.406 214.505 158.814 206.243 157.505 205.648C161.245 200.072 161.313 200.276 165.376 198.423C168.776 196.893 174.811 194.139 176.579 193.323C176.511 200.361 176.528 207.705 176.647 215.066ZM162.299 198.44C159.222 196.74 148.104 191.436 145.673 190.314L151.861 186.285C153.561 187.373 164.305 193.935 167.807 195.907C164.594 197.403 162.741 198.253 162.299 198.44ZM149.515 199.868C147.815 198.967 141.848 194.955 140.216 193.867L144.5 191.079C146.013 191.759 157.641 197.267 161.245 199.137C159.392 200.344 159.154 200.837 150.909 213.264L132.362 198.984L138.941 194.7C140.216 195.516 147.441 199.63 149.141 200.548C149.185 200.578 149.236 200.599 149.288 200.61C149.341 200.621 149.395 200.621 149.448 200.611C149.501 200.601 149.552 200.58 149.597 200.55C149.641 200.521 149.68 200.482 149.71 200.438C149.74 200.393 149.761 200.343 149.772 200.29C149.783 200.237 149.783 200.183 149.773 200.13C149.763 200.077 149.742 200.027 149.712 199.982C149.683 199.937 149.644 199.898 149.6 199.868H149.515ZM176.596 191.759C175.746 192.303 177.769 192.541 158.338 182.069C161.517 180.012 161.738 179.995 162.027 179.264C164.033 180.097 172.992 183.905 176.681 185.486C176.647 187.577 176.613 189.668 176.596 191.759ZM129.098 196.485L121.788 190.858L125.358 164.083C128.452 165.426 156.74 177.071 158.1 177.683L129.098 196.485ZM122.485 176.799C121.873 181.406 121.244 186.013 120.632 190.62L87.5667 193.068C90.1337 188.563 92.6667 184.024 95.2507 178.992C98.2087 178.958 119.204 177.122 122.485 176.799ZM65.2797 228.309C65.2083 228.436 65.1707 228.58 65.1707 228.726C65.1707 228.871 65.2083 229.015 65.2797 229.142C65.5687 229.601 66.2997 229.635 66.8267 229.669C68.5267 229.771 81.5997 230.961 86.1727 231.556L69.9207 245.785C68.7934 244.739 67.4209 243.994 65.9298 243.618C64.4387 243.242 62.8769 243.247 61.3884 243.633C59.8998 244.019 58.5324 244.774 57.4121 245.827C56.2918 246.881 55.4546 248.199 54.9777 249.661L47.1917 248.964C48.3307 244.68 59.9247 201.942 60.7917 198.95L98.5997 196.145C94.2987 200.208 65.5177 227.68 65.2797 228.309ZM287.844 278.17C289.119 278.17 310.845 277.133 313.004 276.98C315.333 284.307 321.3 302.854 322.864 307.682L287.844 278.17ZM233.274 211.989L227.647 219.044C225.947 214.692 224.247 210.17 222.411 205.767C222.173 205.206 221.765 205.274 221.34 205.274C217.94 205.274 199.869 205.41 195.84 205.835C193.324 206.107 193.8 206.855 185.98 216.953C183.266 216.607 180.571 216.124 177.905 215.508C177.803 207.96 177.803 200.208 177.905 192.405C178.993 191.283 188.292 181.542 189.261 180.505C192.032 179.349 222.649 167.653 227.613 165.8C227.8 167.381 232.781 208.487 233.274 211.989ZM122.638 175.796C122.638 175.796 98.2597 177.666 95.8627 177.921C96.8827 175.983 97.9197 174.045 98.9737 172.107C103.479 170.645 119.527 165.477 124.236 164.015C123.692 167.948 123.159 171.875 122.638 175.796ZM97.4097 172.617C93.7377 179.332 89.7937 186.217 86.2407 193.187L61.8287 195.006C62.6787 191.878 64.6847 184.585 65.0927 183.106C67.9997 182.307 94.2307 173.671 97.4097 172.617ZM41.7687 270.163C43.1457 264.638 44.6077 258.926 46.2227 252.721L54.6207 253.486C54.7947 254.976 55.3318 256.4 56.1847 257.634L41.7687 270.163ZM138.669 292.875L150.841 286.33L167.263 284.936L179.69 298.536C179.69 300.406 179.027 325.736 178.925 329.272C172.278 325.753 156.315 317.474 156.315 317.474C154.972 315.604 140.403 295.323 138.618 292.875H138.669ZM181.016 298.689L218.059 280.159L245.871 279.683L247.571 295.306C224.978 307.512 205.071 318.103 180.013 329.306C180.557 320.789 180.948 301.392 180.965 298.689H181.016ZM260.423 210.799C266.959 203.197 272.036 194.454 275.4 185.01C278.8 186.166 282.37 187.39 286.178 188.648C287.13 191.929 291.278 206.226 292.349 210.068L260.423 210.799ZM267.784 165.987C267.784 168.253 266.884 170.426 265.282 172.028C263.68 173.63 261.507 174.53 259.241 174.53C256.976 174.53 254.803 173.63 253.201 172.028C251.599 170.426 250.699 168.253 250.699 165.987C250.92 154.699 267.563 154.699 267.784 166.021V165.987ZM114.24 108.289C114.24 107.745 114.376 107.167 114.444 106.589C115.243 107.303 125.171 116.092 127.925 118.489L105.094 122.008C103.251 121.268 101.671 119.995 100.555 118.353C99.1867 106.91 98.7546 95.3737 99.2627 83.8601C101.116 79.9501 101.439 81.2421 96.0327 73.0991C96.3727 72.2491 98.1067 68.7811 98.8717 67.1661C112.03 80.0521 114.002 90.6771 113.271 108.17C113.273 108.289 113.318 108.403 113.397 108.491C113.477 108.579 113.586 108.636 113.704 108.65C113.821 108.665 113.941 108.636 114.039 108.57C114.138 108.504 114.209 108.404 114.24 108.289ZM33.4387 138.549C32.2682 137.296 31.3093 135.86 30.5997 134.299C30.5682 134.209 30.5021 134.135 30.416 134.094C30.3299 134.052 30.2309 134.047 30.1407 134.078C30.0506 134.11 29.9766 134.176 29.9352 134.262C29.8937 134.348 29.8882 134.447 29.9197 134.537C30.4218 136.283 31.2847 137.905 32.4527 139.297C33.0987 139.977 31.6367 140.181 30.9907 139.688C29.906 138.638 29.0394 137.385 28.4407 135.999C27.8093 134.201 27.3927 132.336 27.1997 130.44C29.5337 129.899 31.8107 129.136 33.9997 128.162C35.1897 130.287 38.0797 131.069 38.6747 133.262C38.6747 133.364 38.2837 133.381 38.0457 133.398C37.8067 133.363 37.5628 133.387 37.3348 133.467C37.1069 133.547 36.9017 133.681 36.7367 133.857C35.8527 134.962 37.6377 135.931 38.4367 137.019C39.2357 138.107 38.7937 139.926 37.0257 138.447C35.5644 137.133 34.2583 135.655 33.1327 134.044C33.0899 133.967 33.0184 133.911 32.9339 133.887C32.8494 133.863 32.7589 133.874 32.6822 133.917C32.6056 133.959 32.5491 134.031 32.5252 134.115C32.5013 134.2 32.5119 134.29 32.5547 134.367C33.4199 136.02 34.4754 137.566 35.6997 138.974C35.7673 139.059 35.8042 139.163 35.8042 139.272C35.8042 139.38 35.7673 139.485 35.6997 139.569C35.641 139.659 35.5536 139.726 35.4518 139.76C35.35 139.794 35.2396 139.793 35.1387 139.756C34.4771 139.508 33.8913 139.092 33.4387 138.549ZM39.7457 107.388C38.8023 115.766 38.8137 124.224 39.7797 132.599H39.5247C38.7427 130.168 36.9917 130.542 34.6627 127.499C35.5467 125.612 37.9607 113.678 39.7457 107.388ZM68.9857 112.488C70.1247 100.809 67.5067 88.9091 65.1097 77.2811C64.5827 74.6801 64.5317 75.3091 72.8787 69.4951C74.5787 71.0251 76.2787 72.5721 78.2507 74.2551C75.3947 88.5521 73.0997 98.4461 68.9857 112.471V112.488ZM97.0017 86.5801C88.1277 107.388 89.7257 121.6 92.0717 78.9981C93.1676 78.5803 94.1981 78.0078 95.1317 77.2981C95.445 76.4713 95.6174 75.5979 95.6417 74.7141C96.3217 75.7341 99.1777 79.9671 99.2967 80.4431C98.6827 82.5421 97.9157 84.5932 97.0017 86.5801ZM79.1857 75.0541C81.1907 76.8139 83.3151 78.4327 85.5437 79.8991C87.3314 80.3544 89.2227 80.1617 90.8817 79.3551C90.4057 85.8151 88.8757 117.095 88.5697 124.558L65.0417 128.383C71.0097 110.963 75.7363 93.1421 79.1857 75.0541ZM90.2527 110.754C92.3184 102.508 94.9482 94.4142 98.1237 86.5291C97.437 98.6593 98.0067 110.828 99.8237 122.841L89.6237 124.541C89.5387 124.303 90.0997 111.57 90.2527 110.771V110.754ZM94.1967 76.3291C93.9417 76.9581 88.6037 78.9811 87.2437 78.9811C86.044 78.8504 84.9324 78.2886 84.1157 77.4001C84.1157 77.4001 67.4387 62.6781 66.4697 61.6751C66.2404 61.4635 66.0876 61.182 66.0353 60.8744C65.983 60.5668 66.0342 60.2505 66.1807 59.9751C66.1807 59.6861 68.5097 52.8861 70.1927 50.7101C70.8581 49.7592 71.7557 48.9945 72.8002 48.4886C73.8446 47.9827 75.0012 47.7526 76.1597 47.8201C76.1597 48.5171 76.1597 54.5011 76.2617 56.0651C75.5251 55.1528 74.8493 54.1931 74.2387 53.1921C73.9837 52.6821 73.2527 53.0901 73.4737 53.5831C74.5447 55.8781 86.6827 70.4471 87.2437 71.0761C87.5835 71.4986 88.0573 71.7925 88.5867 71.9091C89.5897 72.0281 90.1677 71.1441 90.6947 70.2091C94.4007 63.9701 94.8597 66.4521 91.3747 58.8701C92.4212 59.125 93.5127 59.1333 94.5629 58.8943C95.6132 58.6554 96.5936 58.1757 97.4267 57.4931C98.1586 58.1026 98.7135 58.8973 99.0335 59.7944C99.3534 60.6915 99.4267 61.658 99.2457 62.5931C98.5997 67.7441 94.2987 71.1611 94.1967 76.3461V76.3291ZM95.2167 19.0391C99.5667 17.8244 104.048 17.1394 108.562 16.9991C111.469 16.9991 114.988 16.9991 114.206 19.8551C113.326 22.5032 111.732 24.8566 109.599 26.6551C107.987 24.3232 105.837 22.4148 103.33 21.0919C100.823 19.7689 98.0342 19.0705 95.1997 19.0561L95.2167 19.0391ZM66.0107 62.8991C66.0107 62.8991 70.2777 67.0981 71.8927 68.6111C64.6167 73.7111 64.1917 73.7111 63.7497 74.7991C63.6435 76.5716 63.8155 78.3498 64.2597 80.0691C68.4587 99.9931 69.4617 111.978 64.0217 128.587C54.4847 130.117 46.3077 131.46 40.8677 132.412C40.0961 124.589 40.0733 116.711 40.7997 108.884C42.0917 96.1851 42.9757 101.608 54.9947 88.7391C55.0502 88.6597 55.0756 88.5631 55.0664 88.4666C55.0572 88.3702 55.014 88.2801 54.9444 88.2127C54.8749 88.1452 54.7836 88.1046 54.6869 88.0983C54.5903 88.092 54.4945 88.1202 54.4167 88.1781C47.4127 95.2841 42.0917 97.2051 40.2897 102.458C37.1107 111.655 34.4417 125.578 34.0167 126.666C33.8977 126.972 32.6907 127.703 25.9927 129.165C16.8127 105.399 25.3297 80.9871 47.7017 66.9621C52.8017 63.7831 58.6837 60.3321 65.2797 59.1421C64.5997 61.1991 64.7867 61.6751 66.0107 62.8991ZM92.9047 58.0371C91.9017 58.0371 90.0487 56.6091 89.6747 59.2951C89.6707 59.615 89.5764 59.9273 89.4027 60.1961C88.8587 60.8251 90.2017 61.6411 90.6097 59.8731C91.3407 61.4371 92.8367 64.6671 92.4287 65.4321C91.8677 66.4521 89.2497 70.3791 89.0287 70.6171C88.8077 70.8551 88.6377 70.7361 88.3657 70.5151C87.6177 69.8861 81.3957 62.5931 77.4347 57.6121C77.5877 55.3001 77.4347 48.1941 77.3157 45.8141C79.2877 43.2811 79.4407 43.2471 79.1517 43.0261C78.7236 42.7202 78.386 42.3045 78.1744 41.8228C77.9628 41.3411 77.8852 40.8112 77.9496 40.289C78.014 39.7668 78.2181 39.2717 78.5404 38.8558C78.8626 38.44 79.2912 38.1188 79.7807 37.9261C80.2152 37.782 80.6808 37.76 81.1269 37.8625C81.5729 37.965 81.9823 38.188 82.3103 38.5072C82.6383 38.8264 82.8723 39.2296 82.9868 39.6727C83.1013 40.1158 83.092 40.5819 82.9597 41.0201C82.9504 41.0678 82.9549 41.1171 82.9726 41.1623C82.9904 41.2076 83.0207 41.2468 83.06 41.2754C83.0993 41.3039 83.1459 41.3207 83.1944 41.3237C83.2429 41.3266 83.2913 41.3157 83.3337 41.2921C84.2089 40.9081 84.9829 40.3262 85.5947 39.5921C86.1727 38.9971 83.0447 37.8921 79.1007 33.8631C77.9277 32.6561 78.8287 31.9251 80.0017 33.1151C82.1648 34.949 84.4355 36.652 86.8017 38.2151C87.1417 38.4361 87.3457 37.8241 88.2467 36.4131C88.2867 36.3622 88.3085 36.2993 88.3085 36.2346C88.3085 36.1698 88.2867 36.107 88.2467 36.0561C86.9207 35.1721 85.6967 33.9651 84.4727 32.9791C83.5717 32.2481 83.9627 31.2791 84.9997 32.0101C86.0367 32.7411 88.2467 34.3731 88.7057 34.6451C88.7525 34.6869 88.813 34.71 88.8757 34.71C88.9385 34.71 88.999 34.6869 89.0457 34.6451C89.4777 33.2566 89.824 31.843 90.0827 30.4121C93.9417 39.7111 100.691 37.4501 104.431 39.7451C104.006 41.4451 103.53 43.1451 102.952 45.0831C101.048 50.7611 99.3817 57.9691 92.9047 58.0031V58.0371ZM101.201 15.7241C91.6005 17.1338 82.4744 20.8111 74.5787 26.4511C74.0177 11.8991 91.4937 5.62608 101.201 15.7241ZM73.4737 30.4801C73.1528 34.2528 73.5685 38.052 74.6977 41.6661C72.6692 42.0427 70.5986 42.14 68.5437 41.9551C65.5517 41.8361 65.4667 38.5551 67.1157 36.6341C69.0497 34.3995 71.1773 32.3402 73.4737 30.4801ZM144.874 128.162C144.585 128.162 144.109 128.043 144.041 127.805C144.711 126.259 144.98 124.569 144.823 122.892C146.982 121.515 147.815 122.263 147.39 124.592C147.067 125.323 146.727 127.839 144.84 128.162H144.874ZM139.162 127.992C139.179 127.914 139.179 127.832 139.162 127.754C139.162 124.711 140.675 122.144 143.701 122.943C143.838 124.77 143.505 126.603 142.732 128.264C141.661 130.151 139.4 130.321 139.128 127.992H139.162ZM50.5407 169.778L37.7907 163.641C37.5697 163.437 34.5947 161.737 34.7477 161.074C34.9007 160.411 37.4167 154.784 38.8107 151.112L58.3437 147.032C54.9267 154.818 50.9997 162.179 50.5407 169.778ZM73.0997 166.599C73.0172 166.401 73.0127 166.179 73.0871 165.978C73.1615 165.776 73.3094 165.611 73.5009 165.514C73.6924 165.417 73.9135 165.396 74.1197 165.456C74.326 165.515 74.5021 165.65 74.6127 165.834C76.9417 164.134 79.3557 162.332 81.9057 160.734C81.4127 159.34 80.8857 157.946 80.3587 156.552C79.5087 156.926 78.6587 157.317 78.0467 157.691C77.8518 157.787 77.6274 157.805 77.4197 157.741C77.2121 157.677 77.0369 157.535 76.9302 157.346C76.8235 157.156 76.7935 156.933 76.8462 156.723C76.8989 156.512 77.0305 156.329 77.2137 156.212C77.9617 155.804 78.8117 155.379 79.7297 154.971C79.7297 154.767 79.5767 154.563 79.4917 154.359C79.4083 154.149 79.4116 153.915 79.5009 153.708C79.5902 153.501 79.7581 153.337 79.9677 153.254C80.1774 153.171 80.4116 153.174 80.6188 153.263C80.826 153.352 80.9893 153.52 81.0727 153.73C81.5147 154.818 80.1547 154.291 90.2017 151.146C89.8238 149.943 89.5564 148.708 89.4027 147.457C89.4027 147.202 89.2837 147.134 89.0797 147.202C78.7097 150.755 70.5157 150.415 62.7127 146.046L66.8607 145.179C74.1275 147.383 81.9007 147.264 89.0967 144.839C89.5387 144.703 89.0967 143.921 89.5897 140.317L100.079 138.039C101.103 143.849 102.425 149.603 104.04 155.277C102.433 155.648 100.849 156.114 99.2967 156.671C99.1267 156.552 99.4837 156.467 93.8057 158.779C93.6187 158.49 93.2447 157.895 92.7857 157.079C89.7498 158.295 86.826 159.774 84.0477 161.499C84.8977 163.913 85.7477 166.293 86.3427 168.52C88.3487 167.636 90.3547 166.82 92.1397 166.021C91.7827 164.865 91.3917 163.726 90.9667 162.621C90.9052 162.419 90.9211 162.201 91.0115 162.01C91.1018 161.819 91.2601 161.668 91.4554 161.588C91.6507 161.507 91.869 161.502 92.0679 161.574C92.2667 161.645 92.4317 161.788 92.5307 161.975C92.9865 163.052 93.3837 164.153 93.7207 165.273L98.3277 163.369C98.5374 163.283 98.7725 163.285 98.9813 163.372C99.1901 163.46 99.3556 163.627 99.4412 163.837C99.5269 164.046 99.5258 164.281 99.4381 164.49C99.3504 164.699 99.1834 164.864 98.9737 164.95L94.1797 167.024C94.6727 168.826 95.0807 170.628 95.3867 172.124L93.6867 172.651C93.3807 171.172 93.0067 169.421 92.5307 167.653L86.7507 170.152C87.2097 171.716 87.6007 173.178 87.9237 174.504L86.2237 175.031C85.9347 173.773 85.5607 172.362 85.1187 170.832C82.3307 172.073 79.6617 173.314 77.6557 174.351C77.9957 175.371 78.3187 176.442 78.6247 177.479L76.9247 178.006C76.1087 174.419 74.4257 169.761 73.0997 166.599Z" fill="black"/>
<path d="M94.1449 190.739L101.047 190.314C101.342 190.339 101.638 190.286 101.907 190.161C102.175 190.035 102.406 189.842 102.577 189.6C102.577 189.6 103.835 183.514 103.138 182.987C100.87 182.883 98.597 182.946 96.3379 183.174C95.5219 183.497 93.7879 189.107 93.5839 189.974C93.5577 190.062 93.5522 190.155 93.5678 190.246C93.5835 190.336 93.62 190.422 93.6743 190.496C93.7287 190.57 93.7994 190.631 93.8811 190.673C93.9627 190.715 94.0531 190.738 94.1449 190.739ZM94.9949 189.515C95.3349 188.512 96.5249 184.772 96.8309 184.211C97.4599 184.211 101.251 183.973 102.237 183.956C102.237 184.891 101.693 188.512 101.625 188.886C101.557 189.26 101.999 189.209 94.9949 189.515ZM75.8529 191.742C78.388 191.839 80.9268 191.765 83.4519 191.521C84.2169 191.385 84.4209 190.807 84.6079 190.229C85.6488 187.375 86.8755 184.593 88.2799 181.899C88.3376 181.807 88.3664 181.7 88.3626 181.591C88.3587 181.483 88.3225 181.378 88.2585 181.29C88.1944 181.202 88.1056 181.135 88.0034 181.099C87.9012 181.062 87.7903 181.056 87.6849 181.083C87.6849 181.083 79.6949 182.783 79.1849 183.157C77.7281 185.673 76.4828 188.306 75.4619 191.028C75.4198 191.175 75.4372 191.332 75.5104 191.466C75.5837 191.599 75.7068 191.699 75.8529 191.742ZM83.1969 190.365C81.9389 190.365 78.1989 190.722 76.8219 190.688C77.706 188.36 78.7336 186.089 79.8989 183.888C80.2899 183.633 85.2199 182.681 86.6989 182.358C86.0699 183.939 83.6559 189.702 83.1969 190.399V190.365ZM61.9299 215.185C68.2709 214.641 68.1179 214.76 68.4409 214.301C68.7639 213.842 70.2429 203.353 70.2429 201.976C70.2385 201.853 70.1864 201.736 70.0976 201.651C70.0089 201.565 69.8903 201.517 69.7669 201.517C63.1199 201.806 62.9669 202.01 62.8649 202.112C62.7629 202.214 61.1649 213.298 61.1649 214.624C61.147 214.722 61.1569 214.822 61.1935 214.914C61.23 215.006 61.2918 215.086 61.3716 215.144C61.4514 215.203 61.5462 215.238 61.6449 215.245C61.7437 215.252 61.8424 215.232 61.9299 215.185ZM67.7439 213.009C67.6249 213.995 68.3899 213.689 62.2529 214.284C62.2529 214.08 63.5279 204.084 63.7149 202.894C64.5649 202.758 67.9479 202.418 69.1889 202.418C68.9509 203.625 68.4749 207.178 67.7439 213.009ZM79.2529 208.912C79.6609 209.133 80.0009 208.912 80.3749 208.725C83.0244 206.859 85.52 204.785 87.8379 202.52C88.0759 202.18 87.5319 201.738 83.0269 198.865C82.5339 198.542 82.1939 198.27 81.7179 198.865C81.7179 198.865 76.1249 205.835 76.4989 206.549C77.3012 207.462 78.2283 208.258 79.2529 208.912ZM79.5929 208.028C78.878 207.408 78.197 206.75 77.5529 206.056C78.1649 205.172 81.9219 200.208 82.3639 199.698C82.7889 199.953 85.5769 201.755 86.4609 202.333C86.1889 202.588 80.1879 208.334 79.5929 208.028ZM87.1409 222.478C84.1999 221.475 80.9699 220.421 77.2639 219.231C77.1956 219.211 77.1237 219.206 77.0532 219.216C76.9827 219.226 76.9152 219.251 76.8554 219.29C76.7956 219.329 76.7449 219.38 76.7069 219.44C76.6688 219.501 76.6443 219.569 76.6349 219.639C75.2239 222.291 75.1219 222.308 75.2579 222.614C75.2871 222.68 75.3317 222.737 75.388 222.782C75.4442 222.826 75.5105 222.856 75.5809 222.869C76.4309 223.107 85.1009 225.861 86.0189 225.929C86.6649 225.929 86.3249 225.215 87.3619 222.988C87.3837 222.94 87.3953 222.889 87.3958 222.836C87.3963 222.784 87.3858 222.732 87.365 222.684C87.3441 222.636 87.3134 222.593 87.2748 222.557C87.2362 222.522 87.1906 222.495 87.1409 222.478ZM76.3969 222.104L77.3319 220.302L86.5289 223.056C86.2399 223.702 85.9849 224.314 85.7809 224.892C84.3019 224.399 77.9609 222.546 76.3969 222.104ZM130.304 256.835C130.304 256.835 133.33 254.183 134.299 253.299C134.359 253.241 134.407 253.17 134.44 253.093C134.472 253.016 134.489 252.933 134.489 252.849C134.489 252.765 134.472 252.682 134.44 252.604C134.407 252.527 134.359 252.457 134.299 252.398C128.298 246.363 128.162 245.377 127.108 245.853C126.7 246.04 124.099 247.553 123.708 247.91C123.579 247.987 123.473 248.096 123.401 248.228C123.329 248.36 123.294 248.508 123.3 248.658C125.177 251.399 127.221 254.022 129.42 256.512C129.45 256.597 129.499 256.674 129.562 256.737C129.625 256.801 129.702 256.85 129.786 256.881C129.871 256.912 129.961 256.924 130.05 256.916C130.14 256.908 130.226 256.88 130.304 256.835ZM124.371 248.692C126.513 247.553 127.278 247.128 127.397 247.111C127.516 247.094 132.769 252.653 132.922 252.823L129.896 255.577C129.352 254.88 124.728 249.134 124.371 248.692ZM131.936 259.776C131.859 259.819 131.794 259.879 131.744 259.952C131.694 260.024 131.661 260.107 131.648 260.193C131.635 260.28 131.642 260.369 131.668 260.453C131.694 260.537 131.74 260.613 131.8 260.677C134.231 263.516 145.808 276.606 145.825 276.64C146.017 276.865 146.254 277.047 146.52 277.176C146.786 277.305 147.076 277.377 147.372 277.388C149.844 276.772 152.257 275.936 154.58 274.889C154.674 274.839 154.756 274.768 154.818 274.682C154.881 274.596 154.923 274.496 154.941 274.391C154.959 274.286 154.953 274.178 154.923 274.076C154.892 273.974 154.839 273.88 154.767 273.801C152.149 270.588 141.014 257.685 140.198 257.073C138.481 255.764 135.387 258.11 131.936 259.776ZM139.807 258.365C140.368 258.96 151.129 271.523 153.135 273.988C151.673 274.566 147.882 275.926 147.644 275.977C147.489 276.025 147.323 276.025 147.168 275.976C147.013 275.928 146.877 275.833 146.777 275.705C146.777 275.705 135.846 263.567 133.177 260.405C134.979 259.487 138.277 257.872 138.702 257.787C138.926 257.766 139.152 257.814 139.349 257.923C139.546 258.032 139.705 258.198 139.807 258.399V258.365ZM156.263 245.326C153.598 246.031 150.971 246.871 148.392 247.842C147.627 247.995 148.12 247.842 144.057 242.351C143.207 241.178 142.153 239.716 140.436 240.43C139.127 241.178 134.996 241.943 136.084 243.201C137.172 244.459 143.377 251.616 143.615 251.837C143.784 252.026 143.991 252.177 144.222 252.279C144.454 252.382 144.705 252.434 144.958 252.432C145.451 252.432 144.839 252.568 158.796 249.185C158.89 249.162 158.977 249.117 159.05 249.054C159.124 248.991 159.181 248.911 159.217 248.822C159.254 248.732 159.268 248.635 159.26 248.539C159.252 248.442 159.221 248.349 159.17 248.267C158.357 247.144 157.376 246.153 156.263 245.326ZM140.844 241.399C140.991 241.335 141.151 241.302 141.311 241.302C141.472 241.302 141.631 241.335 141.779 241.399C142.289 241.841 146.981 248.93 147.916 249.049C148.409 249.049 155.583 246.448 156.28 246.635C156.776 247.083 157.221 247.585 157.606 248.131C155.311 248.675 145.587 251.021 144.839 251.106C144.533 250.834 142.969 249.151 137.478 242.861C138.77 242.232 140.487 241.603 140.844 241.399Z" fill="black"/>
<path d="M147.252 242.76C147.34 242.842 147.455 242.887 147.575 242.887C147.695 242.887 147.81 242.842 147.898 242.76C149.462 241.587 152.811 239.36 152.811 238.901C152.811 238.442 150.448 236.385 150.21 236.283C149.377 235.926 145.705 238.663 145.297 238.867C145.126 238.939 144.986 239.069 144.902 239.234C144.818 239.399 144.795 239.588 144.838 239.768C145.495 240.876 146.308 241.884 147.252 242.76ZM151.417 238.935L147.558 241.757C147.184 241.332 146.232 240.057 145.96 239.768C146.555 239.326 148.952 237.779 149.564 237.439C150.242 237.858 150.865 238.361 151.417 238.935ZM165.884 234.226C161.328 234.855 157.826 232.254 155.888 231.914C155.641 231.863 155.385 231.883 155.15 231.974C154.915 232.064 154.71 232.221 154.562 232.424C151.91 235.212 151.536 236.011 151.689 236.181C152.465 237.006 153.301 237.773 154.188 238.476C154.919 239.088 155.412 238.663 156.143 238.136C156.537 237.821 156.952 237.531 157.384 237.269C157.792 237.364 158.19 237.495 158.574 237.66C160.358 238.469 162.279 238.93 164.235 239.02C164.753 239.13 165.291 239.083 165.782 238.884C166.088 238.714 166.394 238.085 166.53 234.77C166.535 234.689 166.52 234.607 166.488 234.531C166.456 234.456 166.406 234.389 166.343 234.336C166.281 234.284 166.206 234.246 166.127 234.227C166.047 234.208 165.964 234.208 165.884 234.226ZM155.786 232.985C156.075 232.985 157.724 233.75 158.472 234.09C160.652 235.032 163.02 235.457 165.391 235.331C165.153 238.034 165.391 237.881 164.677 237.949C161.787 238.204 158.268 236.249 157.605 236.164C156.942 236.079 155.242 237.745 154.834 237.745C154.083 237.185 153.378 236.565 152.726 235.892C153.679 234.855 154.701 233.884 155.786 232.985ZM138.123 213.248C136.695 212.143 128.331 204.884 127.498 204.884C125.302 206.154 123.19 207.562 121.174 209.1C121.1 209.15 121.04 209.217 120.998 209.296C120.957 209.374 120.935 209.462 120.935 209.551C120.935 209.64 120.957 209.727 120.998 209.806C121.04 209.884 121.1 209.952 121.174 210.001C122.874 211.344 132.36 217.702 132.445 217.77C133.55 218.501 134.451 217.311 135.131 216.733C136.1 215.934 137.12 215.033 138.14 214.149C138.204 214.092 138.254 214.022 138.288 213.944C138.323 213.865 138.339 213.781 138.338 213.695C138.336 213.609 138.316 213.525 138.279 213.448C138.242 213.371 138.189 213.303 138.123 213.248ZM136.814 213.69C133.516 216.444 133.278 216.835 133.074 216.716C132.87 216.597 124.574 211.072 122.381 209.491C123.878 208.144 125.547 207 127.345 206.091C127.872 206.329 134.91 212.092 136.814 213.69ZM141.659 174.301C138.88 175.892 136.246 177.723 133.788 179.775C132.853 180.659 134.451 181.475 134.859 181.866L137.256 183.872C136.406 184.612 135.503 185.289 134.553 185.895C134.458 185.951 134.379 186.03 134.324 186.126C134.269 186.221 134.24 186.329 134.24 186.439C134.24 186.55 134.269 186.658 134.324 186.753C134.379 186.849 134.458 186.928 134.553 186.983C134.985 187.27 135.433 187.531 135.896 187.765C137.018 188.394 137.477 188.853 138.259 188.377C139.568 187.561 152.233 180.166 152.369 179.605C152.505 179.044 151.91 178.738 151.621 178.602C142.237 174.318 142.373 174.199 141.659 174.301ZM142.169 175.508C142.611 175.61 147.49 177.871 150.924 179.486C149.921 180.03 137.834 187.17 137.681 187.289C137.084 187.022 136.515 186.698 135.981 186.32C136.78 185.572 137.681 184.909 138.463 184.263C138.514 184.216 138.556 184.158 138.584 184.093C138.612 184.029 138.626 183.96 138.626 183.889C138.626 183.819 138.612 183.75 138.584 183.685C138.556 183.621 138.514 183.563 138.463 183.515C137.987 183.124 135.216 180.999 134.621 180.336C135.828 179.503 141.472 175.508 142.169 175.508ZM217.717 285.838C217.419 285.549 217.047 285.349 216.642 285.259C216.236 285.169 215.814 285.193 215.422 285.328C215.32 285.328 201.516 292.604 201.244 292.825C201.186 292.881 201.142 292.951 201.119 293.029C201.095 293.106 201.091 293.188 201.108 293.267C201.108 293.811 202.162 294.797 208.537 298.367C208.757 298.477 209.004 298.521 209.248 298.494C209.492 298.467 209.724 298.37 209.914 298.214C210.883 297.653 222.086 291.159 222.63 290.734C223.174 290.309 223.106 289.799 223.004 289.612C222.902 289.425 218.584 286.45 217.717 285.838ZM215.694 286.45C216.221 286.212 216.595 286.45 217.173 286.841L221.882 289.918C220.692 290.751 209.982 297.109 209.081 297.534C206.713 296.331 204.44 294.95 202.281 293.403C204.202 292.4 209.88 289.136 215.694 286.45ZM187.984 284.597C189.015 285.296 190.277 285.564 191.503 285.345C192.2 285.335 192.882 285.135 193.475 284.767C194.155 284.274 199.952 279.31 201.975 277.049C202.032 276.989 202.074 276.916 202.098 276.837C202.123 276.757 202.129 276.673 202.116 276.591C202.102 276.509 202.071 276.431 202.023 276.363C201.975 276.295 201.912 276.239 201.839 276.199C200.223 275.439 198.565 274.77 196.875 274.193C196.705 274.149 196.526 274.153 196.358 274.204C196.19 274.255 196.04 274.351 195.923 274.482C195.923 274.482 188.477 282.982 187.797 283.9C187.758 283.957 187.732 284.021 187.721 284.089C187.71 284.156 187.713 284.226 187.731 284.292C187.748 284.358 187.78 284.42 187.824 284.472C187.868 284.525 187.922 284.568 187.984 284.597ZM189.157 284.002C190.33 282.676 196.127 276.131 196.79 275.502C198.131 275.838 199.44 276.293 200.7 276.862C198.371 279.004 194.359 282.37 193.9 282.914C193.482 283.436 192.946 283.85 192.336 284.121C191.291 284.422 190.177 284.38 189.157 284.002ZM200.19 270.742C200.496 271.014 206.769 271.796 207.245 271.371C207.721 270.946 209.71 268.124 210.033 267.648C210.098 267.603 210.151 267.542 210.187 267.47C210.223 267.399 210.24 267.32 210.237 267.24C210.237 266.968 209.914 266.781 209.625 266.645C209.336 266.509 205.545 266.322 204.151 266.033C203.807 265.936 203.442 265.949 203.106 266.071C202.77 266.193 202.482 266.418 202.281 266.713L200.139 269.705C199.748 270.3 200.037 270.623 200.19 270.742ZM203.42 267.342C205.129 267.367 206.834 267.521 208.52 267.801C206.412 270.708 206.667 270.555 206.004 270.555C204.434 270.501 202.871 270.325 201.329 270.028C202.723 268.09 203.25 267.461 203.42 267.291V267.342ZM206.514 263.619C211.223 263.959 222.222 265.183 222.851 264.86C223.48 264.537 224.551 261.171 224.738 260.746C224.78 260.658 224.8 260.56 224.795 260.462C224.79 260.364 224.761 260.269 224.711 260.185C224.66 260.101 224.59 260.03 224.506 259.98C224.421 259.93 224.326 259.901 224.228 259.896C222.851 259.896 209.489 259.624 209.217 259.641C208.945 259.658 207.823 260.729 206.497 262.565C206.225 262.939 206.021 263.109 206.157 263.364C206.186 263.436 206.235 263.499 206.298 263.544C206.361 263.589 206.436 263.615 206.514 263.619ZM209.302 260.576C210.594 260.678 221.321 260.984 223.429 261.052C222.375 263.959 222.426 263.908 222.154 263.891C221.882 263.874 212.413 263.347 207.296 262.871C208.367 261.375 209.098 260.61 209.302 260.576ZM195.719 252.926C195.974 253.181 209.608 254.201 209.982 254.201C212.277 254.201 211.07 253.079 214.147 248.999C214.199 248.916 214.228 248.82 214.23 248.721C214.232 248.623 214.207 248.526 214.159 248.44C214.11 248.355 214.038 248.284 213.953 248.236C213.867 248.188 213.769 248.164 213.671 248.166C211.971 248.285 206.276 248.744 205.171 248.829C206.259 247.639 207.33 246.5 208.35 245.429C208.425 245.348 208.47 245.245 208.479 245.135C208.488 245.025 208.46 244.916 208.399 244.824C208.339 244.732 208.249 244.663 208.144 244.628C208.04 244.593 207.927 244.594 207.823 244.63C207.194 244.63 203.182 243.355 202.723 243.508C202.723 243.508 195.464 252.382 195.566 252.807C195.599 252.866 195.654 252.908 195.719 252.926ZM203.454 244.528C204.681 244.735 205.891 245.031 207.075 245.412C206.004 246.534 204.899 247.741 203.675 249.067C203.625 249.149 203.599 249.244 203.599 249.339C203.599 249.435 203.625 249.529 203.675 249.611C203.93 250.121 204.066 249.764 212.634 249.305C211.908 250.645 211.084 251.929 210.169 253.147C209.744 253.147 200.972 252.671 197.402 252.127C197.861 251.464 202.757 244.97 203.454 244.528ZM218.686 212.874C216.581 212.633 214.462 212.548 212.345 212.619C212.005 212.789 206.089 221.918 206.072 222.292C206.072 223.193 212.056 223.193 212.872 223.193C213.13 223.233 213.393 223.19 213.625 223.071C213.857 222.952 214.046 222.763 214.164 222.53C214.164 222.53 217.7 216.682 219.043 213.605C219.082 213.536 219.104 213.457 219.107 213.377C219.109 213.297 219.092 213.218 219.057 213.146C219.022 213.074 218.97 213.011 218.905 212.964C218.84 212.917 218.765 212.886 218.686 212.874ZM213.416 221.952C211.39 222.203 209.337 222.14 207.33 221.765C208.877 219.385 212.328 214.302 212.702 213.826C213.076 213.35 212.821 213.826 217.802 213.826C216.544 216.648 214.895 219.3 213.416 221.952ZM217.7 188.7C216.51 188.7 211.682 187.731 211.189 187.85C210.696 187.969 200.054 201.042 200.003 201.161C199.987 201.2 199.98 201.242 199.983 201.284C199.986 201.326 199.999 201.367 200.02 201.403C200.042 201.44 200.071 201.471 200.107 201.493C200.142 201.516 200.182 201.531 200.224 201.535C200.53 201.535 206.548 201.824 208.86 201.824C209.367 201.919 209.891 201.832 210.341 201.581C210.791 201.329 211.139 200.928 211.325 200.447C211.325 200.447 217.02 191.641 218.227 189.652C218.278 189.557 218.305 189.45 218.305 189.342C218.304 189.234 218.276 189.127 218.224 189.032C218.171 188.937 218.096 188.857 218.004 188.799C217.913 188.741 217.808 188.707 217.7 188.7ZM211.478 189.142C212.107 189.142 215.745 189.72 216.578 189.839C209.319 201.076 210.475 200.634 208.894 200.753C208.095 200.753 203.607 200.855 201.55 200.753C203.267 198.781 210.679 189.992 211.478 189.176V189.142ZM204.78 181.781C206.976 181.926 209.18 181.926 211.376 181.781C211.767 181.781 212.379 181.781 212.702 181.424C212.836 181.25 212.896 181.031 212.872 180.812C213.026 179.117 213.089 177.415 213.059 175.712C213.053 175.642 213.033 175.575 212.999 175.513C212.965 175.452 212.918 175.398 212.862 175.357C212.805 175.315 212.741 175.285 212.672 175.271C212.603 175.256 212.533 175.256 212.464 175.27C211.427 175.525 205.817 177.225 205.664 177.31C204.95 177.582 204.967 178.143 204.882 178.874C204.812 179.662 204.699 180.445 204.542 181.22C204.502 181.327 204.505 181.444 204.549 181.548C204.593 181.653 204.676 181.736 204.78 181.781ZM205.834 178.143C206.361 177.905 210.237 176.749 212.107 176.307C212.107 177.667 211.852 179.894 211.784 180.455C210.917 180.591 206.684 180.965 205.477 180.965C205.579 180.353 205.698 178.5 205.834 178.143ZM202.298 179.231C202.362 179.15 202.398 179.051 202.403 178.949C202.407 178.846 202.379 178.744 202.323 178.658C202.267 178.571 202.185 178.505 202.089 178.468C201.993 178.43 201.888 178.424 201.788 178.449C199.586 179.12 197.438 179.955 195.362 180.948C195.141 181.254 194.189 183.617 193.781 184.45C193.736 184.536 193.714 184.631 193.717 184.728C193.721 184.824 193.751 184.918 193.802 184.999C193.854 185.08 193.927 185.146 194.013 185.19C194.099 185.234 194.195 185.255 194.291 185.249C196.514 185.161 198.728 184.928 200.921 184.552C201.091 184.433 202.077 180.2 202.298 179.231ZM195.209 184.11C195.481 183.532 196.178 181.866 196.212 181.781C197.822 180.953 199.493 180.249 201.21 179.673C200.989 180.693 200.445 183.226 200.292 183.685C199.612 183.787 196.637 184.008 195.192 184.11H195.209ZM235.907 195.5C235.803 195.682 235.739 195.883 235.718 196.091C235.698 196.299 235.721 196.509 235.788 196.707C235.788 196.707 238.049 205.632 238.372 206.414C238.439 206.619 238.569 206.798 238.742 206.926C238.916 207.054 239.125 207.125 239.341 207.128C240.242 207.128 244.781 206.448 245.767 206.295C245.829 206.28 245.887 206.252 245.938 206.213C245.989 206.174 246.032 206.126 246.063 206.07C246.095 206.015 246.115 205.953 246.123 205.89C246.13 205.826 246.125 205.762 246.107 205.7C245.801 204.578 243.761 195.602 243.472 195.228C243.34 195.093 243.175 194.993 242.993 194.94C242.812 194.886 242.62 194.88 242.435 194.922C236.162 195.279 236.298 195.143 235.907 195.5ZM239.307 205.938C238.899 204.459 237.046 197.948 236.825 196.469C237.675 196.282 241.653 195.993 242.452 195.993C242.826 196.979 244.645 203.711 245.07 205.445C243.177 205.771 241.261 205.947 239.341 205.972L239.307 205.938ZM282.198 199.648C281.671 199.359 273.698 200.294 273.171 200.923C272.644 201.552 272.95 206.686 272.984 207.128C272.988 207.291 273.053 207.446 273.167 207.563C273.28 207.679 273.433 207.749 273.596 207.757C273.596 207.757 280.838 207.077 284.034 206.992C285.088 206.992 285.445 206.159 284.935 205.292C284.193 203.333 283.277 201.444 282.198 199.648ZM274.123 202.164C274.123 201.824 274.208 201.841 274.837 201.739C279.937 200.957 281.297 200.855 281.637 200.855C281.977 201.501 283.524 205.071 283.898 205.955C283.49 205.955 277.353 206.159 274.259 206.431C274.157 203.541 274.14 202.504 274.14 202.164H274.123ZM286.176 223.601C284.782 222.53 281.076 218.875 280.447 218.297C280.172 218.064 279.852 217.888 279.508 217.78C279.163 217.672 278.8 217.634 278.441 217.668C274.967 217.532 271.488 217.583 268.02 217.821C267.882 217.845 267.756 217.917 267.665 218.024C267.575 218.132 267.525 218.267 267.525 218.408C267.525 218.548 267.575 218.684 267.665 218.792C267.756 218.899 267.882 218.971 268.02 218.994C276.86 225.998 276.384 225.947 278.696 225.658C278.696 225.658 283.898 225.029 285.785 224.774C285.923 224.778 286.06 224.737 286.173 224.658C286.287 224.578 286.372 224.464 286.415 224.333C286.459 224.201 286.46 224.059 286.417 223.928C286.373 223.796 286.289 223.681 286.176 223.601ZM284.306 223.703C283.014 223.89 277.778 224.689 277.285 224.57C276.792 224.451 271.369 220.218 269.601 218.841C272.015 218.722 278.764 218.841 279.155 218.994C279.546 219.147 283.082 222.7 284.306 223.703ZM280.294 254.133C276.062 254.419 271.853 254.987 267.697 255.833C267.616 255.876 267.546 255.938 267.492 256.012C267.439 256.087 267.403 256.172 267.389 256.263C267.374 256.353 267.38 256.446 267.407 256.534C267.434 256.622 267.481 256.702 267.544 256.768C268.887 258.332 272.134 262.055 273.103 262.837C273.664 263.483 274.412 263.33 275.177 263.126C275.942 262.922 274.922 263.126 285.53 261.154C285.629 261.136 285.721 261.091 285.796 261.025C285.872 260.958 285.928 260.873 285.96 260.777C285.991 260.682 285.996 260.58 285.974 260.481C285.952 260.383 285.905 260.293 285.836 260.219C280.991 254.303 281.059 254.269 280.294 254.133ZM273.885 262.14C273.222 261.103 270.111 257.839 268.989 256.598C270.995 256.139 278.798 255.187 279.784 255.204C280.498 255.204 283.643 259.318 284.357 260.202C273.698 262.412 274.055 262.31 273.885 262.14ZM300.32 261.29C298.093 262.565 294.608 262.565 293.792 262.803C293.683 262.839 293.585 262.903 293.509 262.988C293.432 263.074 293.38 263.179 293.358 263.291C293.335 263.404 293.343 263.52 293.381 263.629C293.418 263.737 293.484 263.834 293.571 263.908L296.971 269.807C297.116 270.055 297.33 270.256 297.586 270.385C297.842 270.515 298.13 270.568 298.416 270.538C299.419 270.538 303.159 270.402 304.4 270.317C305.318 270.198 304.944 268.838 304.621 267.954C304.298 267.07 302.547 263.092 301.85 261.749C301.796 261.605 301.709 261.474 301.596 261.369C301.483 261.263 301.347 261.185 301.199 261.14C301.051 261.096 300.894 261.086 300.742 261.112C300.589 261.138 300.445 261.199 300.32 261.29ZM303.72 269.127C301.851 269.232 299.978 269.232 298.11 269.127L295.084 263.908C297.083 263.677 299.054 263.244 300.966 262.616C301.476 263.789 303.295 268.005 303.72 269.127ZM90.5229 53.9244C89.8945 53.6348 89.3611 53.1727 88.985 52.5919C88.6088 52.011 88.4052 51.3354 88.3979 50.6434C88.3979 49.8274 86.9869 49.9294 87.0039 50.7794C87.0842 51.6888 87.4419 52.5516 88.0288 53.251C88.6157 53.9504 89.4033 54.4525 90.2849 54.6894C90.3791 54.6999 90.474 54.6772 90.5533 54.6253C90.6326 54.5735 90.6914 54.4956 90.7196 54.4051C90.7477 54.3146 90.7435 54.2171 90.7076 54.1294C90.6717 54.0417 90.6064 53.9692 90.5229 53.9244ZM91.5599 42.1434C91.4409 42.5854 90.8289 44.3364 90.6929 44.7614C90.6745 44.8625 90.6767 44.9662 90.6992 45.0664C90.7218 45.1666 90.7643 45.2613 90.8242 45.3447C90.8841 45.4282 90.9602 45.4987 91.048 45.5521C91.1357 45.6055 91.2333 45.6406 91.335 45.6555C91.4366 45.6703 91.5402 45.6645 91.6396 45.6385C91.739 45.6124 91.8321 45.5666 91.9133 45.5038C91.9946 45.441 92.0624 45.3625 92.1127 45.2729C92.163 45.1833 92.1947 45.0845 92.2059 44.9824C92.2059 44.2344 92.3759 42.7384 92.4269 42.3474C92.4403 42.2905 92.4424 42.2315 92.433 42.1737C92.4236 42.116 92.4029 42.0607 92.3721 42.011C92.3413 41.9613 92.301 41.9181 92.2536 41.8839C92.2061 41.8498 92.1524 41.8253 92.0954 41.8119C92.0385 41.7985 91.9795 41.7965 91.9218 41.8059C91.8641 41.8153 91.8088 41.836 91.759 41.8667C91.7093 41.8975 91.6661 41.9378 91.632 41.9853C91.5978 42.0327 91.5733 42.0865 91.5599 42.1434ZM100.298 44.2004C100.213 44.5234 99.3459 46.9884 99.4139 46.8184C99.3955 46.9195 99.3977 47.0232 99.4202 47.1234C99.4428 47.2236 99.4853 47.3183 99.5452 47.4017C99.6051 47.4852 99.6812 47.5557 99.769 47.6091C99.8567 47.6625 99.9543 47.6976 100.056 47.7125C100.158 47.7273 100.261 47.7215 100.361 47.6955C100.46 47.6694 100.553 47.6236 100.634 47.5608C100.716 47.498 100.783 47.4195 100.834 47.3299C100.884 47.2403 100.916 47.1415 100.927 47.0394C100.927 46.2574 101.097 44.7784 101.148 44.3874C101.152 44.2837 101.12 44.1818 101.056 44.0996C100.993 44.0174 100.903 43.9602 100.801 43.9379C100.7 43.9156 100.594 43.9296 100.502 43.9776C100.41 44.0256 100.338 44.1045 100.298 44.2004ZM95.8439 46.9884C95.8231 46.8797 95.765 46.7816 95.6797 46.7111C95.5944 46.6405 95.4871 46.602 95.3764 46.602C95.2657 46.602 95.1585 46.6405 95.0732 46.7111C94.9878 46.7816 94.9298 46.8797 94.9089 46.9884C94.9873 48.067 95.1869 49.1334 95.5039 50.1674C95.1639 50.2694 94.5689 50.4564 94.3309 50.5074C94.2264 50.5278 94.1323 50.5839 94.0646 50.6661C93.9969 50.7483 93.9599 50.8514 93.9599 50.9579C93.9599 51.0644 93.9969 51.1675 94.0646 51.2497C94.1323 51.3319 94.2264 51.388 94.3309 51.4084C95.0992 51.441 95.8688 51.3897 96.6259 51.2554C96.7306 51.2244 96.8267 51.1698 96.907 51.0958C96.9872 51.0218 97.0494 50.9304 97.0888 50.8286C97.1282 50.7268 97.1438 50.6174 97.1342 50.5086C97.1247 50.3999 97.0904 50.2948 97.0339 50.2014C96.4822 49.1944 96.0812 48.1119 95.8439 46.9884ZM92.7159 38.6924C92.0606 38.5647 91.3818 38.6433 90.7729 38.9173C90.164 39.1913 89.655 39.6472 89.3159 40.2224C89.2864 40.3203 89.2916 40.4254 89.3308 40.5198C89.3701 40.6143 89.4408 40.6922 89.531 40.7403C89.6213 40.7884 89.7254 40.8038 89.8256 40.7837C89.9259 40.7637 90.0161 40.7095 90.0809 40.6304C90.3374 40.3444 90.6743 40.1426 91.0475 40.0516C91.4207 39.9606 91.8126 39.9846 92.1719 40.1204C93.2599 40.3754 93.4979 38.7944 92.7159 38.6924ZM102.967 42.0754C102.886 41.5072 102.612 40.984 102.191 40.594C101.77 40.2039 101.228 39.9706 100.655 39.9334C99.8559 39.8144 99.7199 41.1064 100.315 41.1914C101.675 41.4124 102.151 41.9394 102.219 42.2114C102.237 42.3106 102.294 42.3986 102.377 42.4559C102.459 42.5133 102.562 42.5354 102.661 42.5174C102.76 42.4994 102.848 42.4427 102.905 42.3598C102.963 42.2769 102.985 42.1746 102.967 42.0754ZM31.5159 123.097C31.1923 123.134 30.8936 123.289 30.6766 123.532C30.4597 123.775 30.3398 124.089 30.3398 124.415C30.3398 124.741 30.4597 125.055 30.6766 125.298C30.8936 125.541 31.1923 125.696 31.5159 125.732C31.7015 125.754 31.8895 125.735 32.0675 125.679C32.2455 125.622 32.4095 125.528 32.5489 125.404C32.6882 125.28 32.7997 125.127 32.876 124.957C32.9524 124.786 32.9918 124.602 32.9918 124.415C32.9918 124.228 32.9524 124.043 32.876 123.873C32.7997 123.702 32.6882 123.55 32.5489 123.426C32.4095 123.301 32.2455 123.208 32.0675 123.151C31.8895 123.095 31.7015 123.076 31.5159 123.097ZM31.3969 118.184C31.3969 118.55 31.542 118.9 31.8003 119.158C32.0585 119.416 32.4087 119.561 32.7739 119.561C33.1392 119.561 33.4894 119.416 33.7476 119.158C34.0059 118.9 34.1509 118.55 34.1509 118.184C34.1509 117.819 34.0059 117.469 33.7476 117.211C33.4894 116.952 33.1392 116.807 32.7739 116.807C32.4087 116.807 32.0585 116.952 31.8003 117.211C31.542 117.469 31.3969 117.819 31.3969 118.184ZM235.516 142.511C235.023 142.086 234.326 142.783 234.802 143.242C237.652 146.117 240.32 149.166 242.792 152.371C243.37 153.102 244.577 152.167 244.016 151.419C241.479 148.181 238.632 145.197 235.516 142.511ZM257.021 129.591C257.021 133.79 256.63 138.091 256.715 142.239C256.715 142.465 256.804 142.681 256.964 142.84C257.123 143 257.339 143.089 257.565 143.089C257.79 143.089 258.007 143 258.166 142.84C258.325 142.681 258.415 142.465 258.415 142.239C258.5 138.04 258.177 133.739 258.109 129.591C258.109 129.447 258.052 129.309 257.95 129.207C257.848 129.105 257.709 129.047 257.565 129.047C257.421 129.047 257.282 129.105 257.18 129.207C257.078 129.309 257.021 129.447 257.021 129.591ZM277.2 148.155C279.529 144.551 281.671 140.777 284.153 137.292C284.544 136.731 283.677 136.187 283.269 136.714C280.753 140.114 278.016 143.514 275.772 147.288C275.657 147.478 275.622 147.705 275.675 147.92C275.727 148.135 275.863 148.321 276.052 148.436C276.242 148.551 276.469 148.586 276.684 148.533C276.899 148.481 277.085 148.345 277.2 148.155ZM150.295 111.962C151.957 111.958 153.582 112.457 154.955 113.394C156.328 114.331 157.385 115.662 157.987 117.212C158.588 118.761 158.707 120.457 158.326 122.075C157.945 123.693 157.083 125.158 155.854 126.276C155.822 126.3 155.797 126.331 155.779 126.366C155.761 126.402 155.752 126.441 155.752 126.48C155.752 126.52 155.761 126.559 155.779 126.594C155.797 126.63 155.822 126.661 155.854 126.684C168.077 133.926 183.751 136.493 194.954 136.493C206.157 136.493 215.133 134.436 226.931 131.716C233.249 130.042 239.422 127.864 245.393 125.205C252.788 122.043 256.154 119.323 258.279 111.367C259.131 107.796 259.406 104.112 259.095 100.453C258.738 90.3724 259.367 83.9974 233.595 77.8604C218.04 74.1714 172.514 75.7694 155.718 92.2764C153.079 94.6958 151.142 97.7832 150.112 101.212C149.083 104.642 148.999 108.285 149.87 111.758C149.989 111.928 150.125 111.962 150.295 111.962ZM255.1 101.235C237.76 128.435 188.409 128.078 160.053 115.073C159.905 114.995 159.792 114.865 159.734 114.709C159.676 114.552 159.678 114.38 159.738 114.225C159.799 114.069 159.915 113.942 160.064 113.866C160.213 113.791 160.385 113.773 160.546 113.815C191.741 124.355 234.853 127.143 253.621 100.215C253.688 100.118 253.773 100.035 253.872 99.9712C253.971 99.9071 254.082 99.8632 254.198 99.8419C254.314 99.8206 254.433 99.8223 254.549 99.847C254.664 99.8717 254.773 99.9189 254.87 99.9859C254.968 100.053 255.051 100.138 255.115 100.237C255.179 100.336 255.223 100.447 255.244 100.563C255.265 100.679 255.264 100.798 255.239 100.914C255.214 101.029 255.167 101.138 255.1 101.235ZM250 91.5964C250.513 93.5846 250.271 95.6925 249.32 97.5124C239.511 121.244 161.668 117.98 158.098 103.7C159.56 76.7214 246.192 75.1404 250.034 91.5964H250Z" fill="black"/>
</svg>
