<svg width="133" height="50" viewBox="0 0 133 50" fill="none" xmlns="http://www.w3.org/2000/svg">
<rect width="132.782" height="49.3656" rx="6.43903" fill="white"/>
<path d="M32.0386 23.7435C32.0119 20.7798 34.4658 19.338 34.578 19.2709C33.1883 17.2453 31.0343 16.9686 30.2773 16.9465C28.4682 16.756 26.7133 18.0287 25.7916 18.0287C24.8516 18.0287 23.4325 16.9647 21.9031 16.9962C19.9348 17.0265 18.0933 18.1659 17.0835 19.9348C14.9993 23.5422 16.5538 28.843 18.5504 31.7587C19.5494 33.1876 20.7164 34.7812 22.2442 34.7251C23.7389 34.6644 24.2971 33.7734 26.1007 33.7734C27.8877 33.7734 28.4121 34.7249 29.97 34.6892C31.5741 34.6644 32.5839 33.2547 33.548 31.8138C34.7021 30.178 35.1658 28.5654 35.1842 28.4824C35.1475 28.4696 32.0698 27.2945 32.0386 23.7435ZM29.0953 15.0283C29.8992 14.0233 30.4492 12.6559 30.2966 11.2686C29.133 11.32 27.6781 12.0729 26.8402 13.056C26.0988 13.9222 25.4367 15.342 25.6077 16.677C26.9146 16.7744 28.2565 16.0179 29.0953 15.0283Z" fill="#1C1C1C"/>
<path d="M53.6849 34.5196H51.5961L50.4519 30.9253H46.4749L45.3849 34.5196H43.3516L47.2926 22.283H49.7263L53.6849 34.5196ZM50.1071 29.4175L49.0723 26.2222C48.9629 25.8959 48.7568 25.1269 48.4552 23.9169H48.4185C48.2969 24.4375 48.1029 25.2062 47.837 26.222L46.8199 29.4175H50.1071ZM63.8003 29.9994C63.8003 31.5001 63.3928 32.6861 62.577 33.5569C61.8467 34.3321 60.9389 34.7193 59.8563 34.7193C58.6874 34.7193 57.8468 34.3026 57.3361 33.4677V38.0975H55.3754V28.5964C55.3754 27.6537 55.3505 26.6873 55.3027 25.6962H57.0273L57.1367 27.0948H57.1734C57.8275 26.0411 58.8198 25.5141 60.1518 25.5141C61.1928 25.5141 62.062 25.925 62.7572 26.7482C63.4517 27.5728 63.8003 28.6561 63.8003 29.9994ZM61.8025 30.0711C61.8025 29.2123 61.6095 28.5042 61.2211 27.9463C60.7973 27.366 60.2279 27.0753 59.5143 27.0753C59.0303 27.0753 58.5907 27.2373 58.1982 27.5563C57.8045 27.878 57.5469 28.2986 57.4264 28.8189C57.3726 29.0135 57.342 29.2138 57.3352 29.4157V30.8876C57.3352 31.5288 57.5322 32.0702 57.9258 32.5133C58.3195 32.9546 58.8308 33.1763 59.4598 33.1763C60.1984 33.1763 60.7734 32.8904 61.1846 32.323C61.5964 31.7538 61.8025 31.0035 61.8025 30.0711ZM73.9516 29.9994C73.9516 31.5001 73.5441 32.6861 72.7283 33.5569C71.997 34.3321 71.0902 34.7193 70.0066 34.7193C68.8378 34.7193 67.9971 34.3026 67.4865 33.4677V38.0975H65.5257V28.5964C65.5257 27.6537 65.5009 26.6873 65.4531 25.6962H67.1776L67.287 27.0948H67.3238C67.9767 26.0411 68.9693 25.5141 70.3019 25.5141C71.3421 25.5141 72.2112 25.925 72.9085 26.7482C73.602 27.5728 73.9516 28.6561 73.9516 29.9994ZM71.9529 30.0711C71.9529 29.2123 71.7587 28.5042 71.3706 27.9463C70.9466 27.366 70.3791 27.0753 69.6654 27.0753C69.1816 27.0753 68.742 27.2373 68.3474 27.5563C67.9537 27.878 67.697 28.2986 67.5768 28.8189C67.5171 29.0615 67.4849 29.2592 67.4849 29.4157V30.8876C67.4849 31.5288 67.6825 32.0702 68.0744 32.5133C68.468 32.9539 68.9794 33.1763 69.6102 33.1763C70.3497 33.1763 70.9247 32.8904 71.3347 32.323C71.7468 31.7538 71.9529 31.0035 71.9529 30.0711ZM85.3011 31.0873C85.3011 32.1291 84.9369 32.9759 84.2132 33.6298C83.4167 34.3431 82.3046 34.7007 80.8791 34.7007C79.562 34.7007 78.506 34.4472 77.7095 33.9386L78.1629 32.3047C79.0229 32.8141 79.9676 33.0676 80.9958 33.0676C81.7353 33.0676 82.3103 32.9006 82.7203 32.5685C83.1317 32.2357 83.3394 31.7906 83.3394 31.2353C83.3394 30.7378 83.1673 30.3214 82.8297 29.9819C82.4905 29.6437 81.9293 29.3281 81.1411 29.0386C78.998 28.2395 77.9257 27.0709 77.9257 25.5334C77.9257 24.5292 78.3047 23.7074 79.0608 23.0646C79.8169 22.4227 80.8193 22.1017 82.0665 22.1017C83.1802 22.1017 84.1082 22.2958 84.8449 22.6831L84.3529 24.281C83.6593 23.9059 82.8766 23.7184 82.001 23.7184C81.3093 23.7184 80.7669 23.8884 80.3785 24.2267C80.0522 24.5294 79.8867 24.898 79.8867 25.3358C79.8867 25.8184 80.0752 26.2194 80.4505 26.5338C80.7761 26.8234 81.3702 27.1389 82.2292 27.4772C83.2831 27.9021 84.0576 28.3967 84.5533 28.965C85.0529 29.5333 85.3011 30.2423 85.3011 31.0873ZM91.8009 27.1674H89.6395V31.4514C89.6395 32.5409 90.0203 33.0844 90.7838 33.0844C91.1342 33.0844 91.4249 33.055 91.6548 32.9934L91.709 34.4821C91.3229 34.6264 90.8141 34.6991 90.1842 34.6991C89.4097 34.6991 88.8044 34.4628 88.3675 33.9901C87.9325 33.5174 87.7137 32.7259 87.7137 31.6115V27.1635H86.4261V25.6925H87.7137V24.0769L89.6395 23.4957V25.6927H91.8009V27.1674ZM101.534 30.0355C101.534 31.3914 101.146 32.505 100.371 33.3758C99.561 34.2723 98.483 34.7193 97.1392 34.7193C95.8424 34.7193 94.8112 34.2898 94.0425 33.4319C93.2736 32.5724 92.8891 31.489 92.8891 30.1823C92.8891 28.8149 93.2864 27.6951 94.0784 26.8243C94.8721 25.9526 95.9408 25.5167 97.2845 25.5167C98.5795 25.5167 99.6198 25.9471 100.407 26.8059C101.159 27.639 101.534 28.7152 101.534 30.0355ZM99.5013 30.0803C99.5013 29.272 99.3266 28.5789 98.9759 27.9986C98.5648 27.298 97.9762 26.9477 97.2137 26.9477C96.4282 26.9477 95.8256 27.298 95.4156 27.9986C95.0643 28.5789 94.8894 29.284 94.8894 30.1171C94.8894 30.9262 95.0643 31.6214 95.4156 32.1999C95.8396 32.9006 96.431 33.2508 97.1972 33.2508C97.9468 33.2508 98.5347 32.8932 98.9594 32.1822C99.3202 31.5883 99.5013 30.8906 99.5013 30.0803ZM107.91 27.4202C107.706 27.3834 107.499 27.3652 107.292 27.366C106.603 27.366 106.069 27.6252 105.694 28.1476C105.368 28.6072 105.204 29.1886 105.204 29.89V34.5198H103.244V28.4748C103.245 27.5486 103.226 26.6224 103.187 25.6971H104.895L104.966 27.3853H105.02C105.228 26.805 105.554 26.3371 106.001 25.9866C106.41 25.6806 106.907 25.5149 107.418 25.5141C107.6 25.5141 107.763 25.527 107.908 25.55L107.91 27.4202ZM116.68 29.6905C116.685 29.9885 116.661 30.2863 116.609 30.5797H110.726C110.748 31.4514 111.033 32.119 111.579 32.5786C112.075 32.9888 112.716 33.1947 113.503 33.1947C114.374 33.1947 115.169 33.0568 115.884 32.7783L116.191 34.1381C115.356 34.5023 114.37 34.6834 113.232 34.6834C111.864 34.6834 110.789 34.2806 110.007 33.4769C109.227 32.6726 108.836 31.5911 108.836 30.2366C108.836 28.9071 109.2 27.7992 109.927 26.9155C110.689 25.9719 111.718 25.5004 113.013 25.5004C114.285 25.5004 115.248 25.9719 115.902 26.9155C116.42 27.6629 116.68 28.59 116.68 29.6905H116.68ZM114.81 29.182C114.824 28.6001 114.695 28.0988 114.43 27.6748C114.09 27.1288 113.568 26.8567 112.868 26.8567C112.227 26.8567 111.704 27.1224 111.307 27.6555C110.981 28.0795 110.786 28.589 110.727 29.1801L114.81 29.182ZM45.9094 17.9568C45.3638 17.9568 44.892 17.9301 44.4992 17.885V11.969C45.0485 11.8842 45.6036 11.8424 46.1594 11.844C48.4084 11.844 49.4439 12.9501 49.4439 14.7532C49.4439 16.833 48.2206 17.9568 45.9094 17.9568ZM46.2385 12.6023C45.9351 12.6023 45.6766 12.6207 45.4624 12.6651V17.1623C45.5782 17.1807 45.8007 17.1889 46.1135 17.1889C47.587 17.1889 48.4258 16.3501 48.4258 14.7798C48.4258 13.3793 47.667 12.6023 46.2385 12.6023ZM52.6714 18.0018C51.404 18.0018 50.5824 17.0557 50.5824 15.771C50.5824 14.4323 51.4212 13.4777 52.7431 13.4777C53.9921 13.4777 54.8319 14.379 54.8319 15.7002C54.8319 17.0557 53.9664 18.0018 52.6714 18.0018ZM52.7082 14.1823C52.0118 14.1823 51.5658 14.8331 51.5658 15.7434C51.5658 16.6362 52.021 17.2873 52.6987 17.2873C53.3765 17.2873 53.8319 16.5912 53.8319 15.725C53.8319 14.8426 53.3861 14.1823 52.7082 14.1823ZM62.0592 13.5671L60.7024 17.9034H59.8186L59.2567 16.0203C59.1169 15.5597 59.0006 15.0923 58.908 14.6199H58.8897C58.8189 15.0924 58.6847 15.566 58.542 16.0203L57.9442 17.9034H57.0512L55.7746 13.5669H56.765L57.2562 15.6285C57.3722 16.1196 57.4697 16.5829 57.5505 17.0207H57.5689C57.6397 16.6556 57.7555 16.1996 57.9258 15.6377L58.542 13.568H59.3275L59.9172 15.5936C60.0539 16.0644 60.1701 16.5408 60.2656 17.0216H60.2913C60.354 16.5758 60.4522 16.1022 60.5857 15.5936L61.1126 13.568L62.0592 13.5671ZM67.0533 17.9034H66.0895V15.4134C66.0895 14.6465 65.7953 14.2621 65.2148 14.2621C64.6437 14.2621 64.251 14.7532 64.251 15.3242V17.9034H63.2869V14.8062C63.2869 14.4229 63.2777 14.0118 63.2511 13.5659H64.0991L64.1441 14.2352H64.171C64.4302 13.7719 64.9563 13.4775 65.546 13.4775C66.4565 13.4775 67.0542 14.1738 67.0542 15.3065L67.0533 17.9034ZM69.7115 17.9034H68.7466V11.5771H69.7115V17.9034ZM73.2258 18.0018C71.9593 18.0018 71.1368 17.0557 71.1368 15.771C71.1368 14.4323 71.9757 13.4777 73.2966 13.4777C74.5466 13.4777 75.3854 14.379 75.3854 15.7002C75.3863 17.0557 74.5199 18.0018 73.2258 18.0018ZM73.2617 14.1823C72.5654 14.1823 72.1195 14.8331 72.1195 15.7434C72.1195 16.6362 72.5755 17.2873 73.2516 17.2873C73.9302 17.2873 74.3846 16.5912 74.3846 15.725C74.3857 14.8426 73.9403 14.1823 73.2617 14.1823ZM79.1858 17.9034L79.1159 17.4041H79.0902C78.7958 17.806 78.3663 18.0016 77.8216 18.0016C77.0446 18.0016 76.4926 17.4574 76.4926 16.7254C76.4926 15.6552 77.4208 15.1016 79.0275 15.1016V15.0216C79.0275 14.4507 78.725 14.1646 78.1271 14.1646C77.6996 14.1646 77.3241 14.2722 76.9941 14.4863L76.7981 13.853C77.1991 13.6029 77.6994 13.4777 78.2872 13.4777C79.4202 13.4777 79.9925 14.0754 79.9925 15.2718V16.869C79.9925 17.3066 80.0118 17.6458 80.055 17.9044L79.1858 17.9034ZM79.0532 15.7434C77.9827 15.7434 77.4457 16.0029 77.4457 16.6179C77.4457 17.0729 77.7224 17.2956 78.1068 17.2956C78.597 17.2956 79.0532 16.9214 79.0532 16.4129V15.7434ZM84.673 17.9034L84.628 17.2071H84.6013C84.3244 17.7334 83.859 18.0018 83.2087 18.0018C82.163 18.0018 81.3886 17.0823 81.3886 15.7887C81.3886 14.4323 82.1915 13.4768 83.2877 13.4768C83.8682 13.4768 84.2794 13.6728 84.511 14.0663H84.5303V11.5774H85.4953V16.7344C85.4953 17.1538 85.5054 17.5463 85.5312 17.9032L84.673 17.9034ZM84.5306 15.3518C84.5306 14.7449 84.1284 14.2271 83.515 14.2271C82.8003 14.2271 82.3637 14.8607 82.3637 15.7526C82.3637 16.6271 82.8168 17.2257 83.4957 17.2257C84.1017 17.2257 84.5303 16.6988 84.5303 16.0744L84.5306 15.3518ZM91.6125 18.0016C90.346 18.0016 89.5246 17.0557 89.5246 15.771C89.5246 14.4323 90.3634 13.4777 91.6842 13.4777C92.9344 13.4777 93.7732 14.379 93.7732 15.7002C93.7739 17.0557 92.9084 18.0016 91.6125 18.0016ZM91.6483 14.1821C90.9529 14.1821 90.5068 14.8331 90.5068 15.7434C90.5068 16.6362 90.9621 17.2873 91.6391 17.2873C92.318 17.2873 92.7721 16.5912 92.7721 15.725C92.7742 14.8426 92.3281 14.1821 91.6483 14.1821ZM98.9566 17.9034H97.9918V15.4134C97.9918 14.6465 97.6977 14.2621 97.1172 14.2621C96.5461 14.2621 96.1543 14.7532 96.1543 15.3242V17.9034H95.1893V14.8062C95.1893 14.4229 95.1801 14.0118 95.1534 13.5659H96.0014L96.0465 14.2352H96.0731C96.3317 13.7719 96.8586 13.4768 97.4474 13.4768C98.3579 13.4768 98.9566 14.1727 98.9566 15.3056V17.9034ZM105.442 14.2896H104.381V16.3954C104.381 16.9316 104.567 17.1991 104.942 17.1991C105.112 17.1991 105.255 17.1807 105.37 17.154L105.397 17.886C105.21 17.9577 104.96 17.9935 104.649 17.9935C103.889 17.9935 103.435 17.5741 103.435 16.4763V14.2896H102.802V13.5671H103.435V12.7724L104.381 12.4863V13.5659H105.442L105.442 14.2896ZM110.544 17.9034H109.582V15.4318C109.582 14.6557 109.288 14.263 108.707 14.263C108.207 14.263 107.742 14.6024 107.742 15.2893V17.9034H106.779V11.5771H107.742V14.1821H107.761C108.065 13.7096 108.505 13.4768 109.066 13.4768C109.983 13.4768 110.544 14.1903 110.544 15.3242V17.9034ZM115.772 15.9668H112.88C112.898 16.7879 113.442 17.2515 114.246 17.2515C114.674 17.2515 115.068 17.1798 115.416 17.0465L115.565 17.7159C115.155 17.8942 114.672 17.9834 114.11 17.9834C112.754 17.9834 111.951 17.1262 111.951 15.7979C111.951 14.4682 112.773 13.4685 114.002 13.4685C115.11 13.4685 115.806 14.2896 115.806 15.5299C115.812 15.6763 115.801 15.823 115.772 15.9668ZM114.889 15.2801C114.889 14.6107 114.551 14.138 113.935 14.138C113.381 14.138 112.943 14.6199 112.881 15.2801H114.889Z" fill="#1C1C1C"/>
</svg>
