<svg width="68" height="68" viewBox="0 0 68 68" fill="none" xmlns="http://www.w3.org/2000/svg">
<rect width="68" height="68" rx="8" fill="white" fill-opacity="0.14"/>
<path d="M44 30.666C44 30.666 34 37.3327 34 48.9993" stroke="white" stroke-width="1.5" stroke-linecap="round" stroke-linejoin="round"/>
<path d="M29.584 32.6375C26.899 34.6485 23.0747 34.4333 20.6334 31.9922C16.594 27.9527 17.4019 19.0659 17.4019 19.0659C17.4019 19.0659 26.2887 18.2581 30.3281 22.2975C31.9273 23.8967 32.5713 26.0895 32.2598 28.1667" stroke="white" stroke-width="1.5" stroke-linecap="round" stroke-linejoin="round"/>
<path d="M38.9423 35.3625C36.7426 32.972 36.8021 29.2497 39.1206 26.9311C42.7113 23.3405 50.6106 24.0586 50.6106 24.0586C50.6106 24.0586 51.3288 31.958 47.7381 35.5487C46.4821 36.8047 44.8143 37.3977 43.1693 37.3278" stroke="white" stroke-width="1.5" stroke-linecap="round" stroke-linejoin="round"/>
<path d="M24 25.666C24 25.666 34 33.9993 34 48.9994" stroke="white" stroke-width="1.5" stroke-linecap="round" stroke-linejoin="round"/>
</svg>
