<svg width="68" height="68" viewBox="0 0 68 68" fill="none" xmlns="http://www.w3.org/2000/svg">
<rect width="68" height="68" rx="8" fill="white" fill-opacity="0.14"/>
<path d="M19 50.666C26.7966 41.31 30.5996 30.4633 32.0637 22.3101C32.1072 22.0682 32.1288 21.9471 32.1552 21.8586C32.3502 21.2011 32.8872 20.752 33.5687 20.6762C33.6605 20.666 33.7737 20.666 34 20.666C34.2263 20.666 34.3395 20.666 34.4313 20.6762C35.1128 20.752 35.6498 21.2011 35.8448 21.8586C35.8712 21.9471 35.8928 22.0682 35.9363 22.3101C37.4003 30.4633 41.2033 41.31 49 50.666" stroke="white" stroke-width="1.5" stroke-linecap="round" stroke-linejoin="round"/>
<path d="M34 20.6673V17.334" stroke="white" stroke-width="1.5" stroke-linecap="round" stroke-linejoin="round"/>
<path d="M27.3359 32.334H40.6693" stroke="white" stroke-width="1.5" stroke-linecap="round" stroke-linejoin="round"/>
<path d="M24 39H44" stroke="white" stroke-width="1.5" stroke-linecap="round" stroke-linejoin="round"/>
<path d="M39.8307 50.6667C39.4814 48.9317 39.3066 48.0644 38.8887 47.3299C38.7007 46.9992 38.4776 46.6914 38.2237 46.4117C37.6596 45.7907 36.8994 45.3712 35.3789 44.5324C34.7974 44.2115 34.5066 44.051 34.1971 44.0124C34.0644 43.9959 33.9304 43.9959 33.7977 44.0124C33.4882 44.051 33.1974 44.2115 32.6159 44.5324C31.0954 45.3712 30.3352 45.7907 29.7711 46.4117C29.5172 46.6914 29.2941 46.9992 29.106 47.3299C28.6882 48.0644 28.5135 48.9317 28.1641 50.6667" stroke="white" stroke-width="1.5" stroke-linecap="round" stroke-linejoin="round"/>
<path d="M39 50.666H50.6667" stroke="white" stroke-width="1.5" stroke-linecap="round" stroke-linejoin="round"/>
<path d="M17.3359 50.666H29.0026" stroke="white" stroke-width="1.5" stroke-linecap="round" stroke-linejoin="round"/>
</svg>
