<svg width="68" height="68" viewBox="0 0 68 68" fill="none" xmlns="http://www.w3.org/2000/svg">
<rect width="68" height="68" rx="8" fill="white" fill-opacity="0.14"/>
<path d="M34 34V44" stroke="white" stroke-width="1.5" stroke-linecap="round"/>
<path d="M34.0026 44C31.2133 44 28.7855 45.6867 27.532 48.175C26.9334 49.3633 27.7924 50.6667 28.9339 50.6667H39.0713C40.2128 50.6667 41.0718 49.3633 40.4731 48.175C39.2198 45.6867 36.7919 44 34.0026 44Z" stroke="white" stroke-width="1.5" stroke-linecap="round"/>
<path d="M22.3359 22.334H20.6438C18.9996 22.334 18.1775 22.334 17.6696 22.9515C17.1616 23.5691 17.3106 24.2606 17.6085 25.6437C18.1775 28.2854 19.4117 30.6063 21.0841 32.334" stroke="white" stroke-width="1.5" stroke-linecap="round"/>
<path d="M45.6641 22.334H47.3562C49.0004 22.334 49.8226 22.334 50.3304 22.9515C50.8384 23.5691 50.6894 24.2606 50.3916 25.6437C49.8226 28.2854 48.5882 30.6063 46.9159 32.334" stroke="white" stroke-width="1.5" stroke-linecap="round"/>
<path d="M34.0026 34.0007C40.4459 34.0007 45.6693 28.8058 45.6693 22.3977C45.6693 22.2296 45.6656 22.0624 45.6586 21.8961C45.5874 20.2308 45.5518 19.3981 44.4231 18.366C43.2944 17.334 42.0438 17.334 39.5426 17.334H28.4625C25.9614 17.334 24.7108 17.334 23.5821 18.366C22.4535 19.3981 22.4179 20.2308 22.3466 21.8961C22.3395 22.0624 22.3359 22.2296 22.3359 22.3977C22.3359 28.8058 27.5593 34.0007 34.0026 34.0007Z" stroke="white" stroke-width="1.5" stroke-linecap="round"/>
</svg>
