<svg width="68" height="68" viewBox="0 0 68 68" fill="none" xmlns="http://www.w3.org/2000/svg">
<rect width="68" height="68" rx="8" fill="white" fill-opacity="0.14"/>
<path d="M33.1667 50.6673C26.4884 50.6673 23.1493 50.6673 21.0747 48.2265C19 45.7858 19 41.8573 19 34.0007C19 26.1439 19 22.2155 21.0747 19.7748C23.1493 17.334 26.4884 17.334 33.1667 17.334C39.8448 17.334 43.184 17.334 45.2587 19.7748C46.9287 21.7395 47.2545 24.6682 47.318 29.834" stroke="white" stroke-width="1.5" stroke-linecap="round" stroke-linejoin="round"/>
<path d="M27.3359 27.334H39.0026M27.3359 35.6673H32.3359" stroke="white" stroke-width="1.5" stroke-linecap="round" stroke-linejoin="round"/>
<path d="M46.6846 44.1757C48.0894 43.153 49.0026 41.4957 49.0026 39.625C49.0026 36.5183 46.4843 34 43.3776 34H42.9609C39.8543 34 37.3359 36.5183 37.3359 39.625C37.3359 41.4957 38.2491 43.153 39.6539 44.1757M46.6846 44.1757C45.7564 44.8513 44.6136 45.25 43.3776 45.25H42.9609C41.7249 45.25 40.5821 44.8513 39.6539 44.1757M46.6846 44.1757L47.6559 47.234C48.0264 48.4005 48.2118 48.9838 48.1611 49.347C48.0556 50.1028 47.4391 50.664 46.7113 50.6667C46.3616 50.668 45.8376 50.393 44.7898 49.8432C44.3404 49.6073 44.1158 49.4893 43.8859 49.42C43.4176 49.2788 42.9209 49.2788 42.4526 49.42C42.2228 49.4893 41.9981 49.6073 41.5488 49.8432C40.5009 50.393 39.9769 50.668 39.6273 50.6667C38.8994 50.664 38.2829 50.1028 38.1774 49.347C38.1268 48.9838 38.3121 48.4005 38.6826 47.234L39.6539 44.1757" stroke="white" stroke-width="1.5"/>
</svg>
