<svg width="28" height="28" viewBox="0 0 28 28" fill="none" xmlns="http://www.w3.org/2000/svg">
<path fill-rule="evenodd" clip-rule="evenodd" d="M13.7058 7.47383C11.9791 7.47383 11.8064 7.657 10.9128 7.657C10.1684 7.657 7.9331 5.8335 6.8166 5.8335C5.7001 5.8335 4.39577 6.49033 4.39577 8.38616V10.5737C4.3981 11.1477 4.60577 12.907 5.42244 12.4368C4.4576 13.5778 4.36077 14.909 4.3736 16.197C4.11344 16.2717 3.8486 16.3568 3.59077 16.4443C2.79277 16.7173 1.94577 17.065 1.56427 17.3123C1.36934 17.4383 1.23241 17.6365 1.18362 17.8634C1.13483 18.0903 1.17817 18.3272 1.3041 18.5222C1.43004 18.7171 1.62825 18.854 1.85514 18.9028C2.08203 18.9516 2.319 18.9083 2.51394 18.7823C2.69594 18.6645 3.3551 18.374 4.1566 18.0998L4.4226 18.0123C4.47627 18.5175 4.61044 18.9807 4.80994 19.4007L4.78194 19.4158C4.3036 19.6678 3.86027 19.9583 3.57794 20.1427L3.4461 20.229C3.25117 20.3549 3.11425 20.5531 3.06546 20.78C3.01667 21.0069 3.06 21.2439 3.18594 21.4388C3.31187 21.6338 3.51008 21.7707 3.73697 21.8195C3.96386 21.8683 4.20084 21.8249 4.39577 21.699L4.5486 21.5987C4.83444 21.412 5.20077 21.1728 5.59977 20.9628C5.6931 20.9131 5.78294 20.8679 5.86927 20.8275C7.8876 22.721 11.5124 23.3335 13.7058 23.3335C15.8991 23.3335 19.5239 22.721 21.5423 20.8275C21.6278 20.8679 21.7177 20.9131 21.8118 20.9628C22.2108 21.1728 22.5771 21.412 22.8629 21.5987L23.0158 21.699C23.2107 21.8249 23.4477 21.8683 23.6746 21.8195C23.9015 21.7707 24.0997 21.6338 24.2256 21.4388C24.3515 21.2439 24.3949 21.0069 24.3461 20.78C24.2973 20.5531 24.1604 20.3549 23.9654 20.229L23.8336 20.1427C23.4437 19.8819 23.042 19.6394 22.6296 19.4158L22.6016 19.4007C22.8011 18.9807 22.9353 18.5175 22.9889 18.0123L23.2549 18.0998C24.0564 18.374 24.7156 18.6645 24.8988 18.7823C25.0936 18.9012 25.3272 18.9392 25.5497 18.8883C25.7722 18.8374 25.966 18.7016 26.0897 18.5098C26.2135 18.318 26.2574 18.0854 26.2121 17.8617C26.1668 17.638 26.0359 17.4409 25.8473 17.3123C25.4658 17.065 24.6188 16.7173 23.8219 16.4443C23.5625 16.3557 23.3011 16.2729 23.0379 16.1958C23.0519 14.9078 22.9539 13.5778 21.9879 12.4368C22.8046 12.907 23.0146 11.1477 23.0158 10.5725V8.38616C23.0158 6.49033 21.7126 5.8335 20.5949 5.8335C19.4784 5.8335 17.2431 7.657 16.4999 7.657C15.6051 7.657 15.4324 7.47383 13.7058 7.47383ZM12.9183 18.2002C13.1539 18.1197 13.4328 18.0835 13.7058 18.0835C13.9788 18.0835 14.2576 18.1197 14.4944 18.2002C14.6111 18.2398 14.7511 18.3028 14.8771 18.4032C14.9634 18.4684 15.034 18.5521 15.0837 18.6482C15.1334 18.7443 15.1608 18.8504 15.1641 18.9585C15.1641 19.2268 15.0019 19.4135 14.8771 19.5138C14.7523 19.6142 14.6099 19.6772 14.4944 19.7168C14.2576 19.7973 13.9788 19.8335 13.7058 19.8335C13.4328 19.8335 13.1539 19.7973 12.9183 19.7168C12.7797 19.6715 12.6499 19.6028 12.5344 19.5138C12.4481 19.4486 12.3775 19.3649 12.3278 19.2688C12.2782 19.1727 12.2507 19.0666 12.2474 18.9585C12.2474 18.6902 12.4096 18.5035 12.5344 18.4032C12.6593 18.3028 12.8028 18.2398 12.9183 18.2002ZM16.2374 14.5835C16.3973 14.3175 16.7111 14.0002 17.1824 14.0002C17.6538 14.0002 17.9688 14.3175 18.1274 14.5835C18.2931 14.8623 18.3724 15.1983 18.3724 15.532C18.3724 15.8657 18.2931 16.2005 18.1274 16.4782C17.9688 16.7453 17.6538 17.0627 17.1824 17.0627C16.7111 17.0627 16.3973 16.7453 16.2374 16.4793C16.073 16.191 15.9884 15.8639 15.9924 15.532C15.9924 15.1983 16.0718 14.8623 16.2374 14.5847M9.2841 14.5847C9.44394 14.3187 9.75777 14.0013 10.2291 14.0013C10.7004 14.0013 11.0154 14.3187 11.1741 14.5847C11.3398 14.8635 11.4191 15.1995 11.4191 15.5332C11.4191 15.8668 11.3398 16.2017 11.1741 16.4793C11.0154 16.7465 10.7004 17.0638 10.2291 17.0638C9.75777 17.0638 9.44394 16.7465 9.2841 16.4805C9.11965 16.1921 9.03508 15.8651 9.0391 15.5332C9.0391 15.1995 9.11844 14.8623 9.2841 14.5847Z" fill="white"/>
</svg>
