<svg width="12" height="11" viewBox="0 0 12 11" fill="none" xmlns="http://www.w3.org/2000/svg">
<path d="M7.46667 0.940834L11.3756 7.45142C11.9373 8.3865 11.6614 9.61675 10.759 10.1989C10.4561 10.395 10.1031 10.4995 9.74225 10.4999H1.92383C0.861583 10.4999 0 9.60742 0 8.5055C0 8.13275 0.100917 7.76817 0.2905 7.45142L4.2 0.940834C4.76117 0.00575072 5.94767 -0.280666 6.85008 0.301501C7.09975 0.462501 7.31092 0.681251 7.46667 0.940834ZM5.83333 8.16658C5.98804 8.16658 6.13642 8.10513 6.24581 7.99573C6.35521 7.88633 6.41667 7.73796 6.41667 7.58325C6.41667 7.42854 6.35521 7.28017 6.24581 7.17077C6.13642 7.06138 5.98804 6.99992 5.83333 6.99992C5.67862 6.99992 5.53025 7.06138 5.42085 7.17077C5.31146 7.28017 5.25 7.42854 5.25 7.58325C5.25 7.73796 5.31146 7.88633 5.42085 7.99573C5.53025 8.10513 5.67862 8.16658 5.83333 8.16658V8.16658ZM5.83333 2.91658C5.67862 2.91658 5.53025 2.97804 5.42085 3.08744C5.31146 3.19683 5.25 3.34521 5.25 3.49992V5.83325C5.25 5.98796 5.31146 6.13633 5.42085 6.24573C5.53025 6.35513 5.67862 6.41658 5.83333 6.41658C5.98804 6.41658 6.13642 6.35513 6.24581 6.24573C6.35521 6.13633 6.41667 5.98796 6.41667 5.83325V3.49992C6.41667 3.34521 6.35521 3.19683 6.24581 3.08744C6.13642 2.97804 5.98804 2.91658 5.83333 2.91658Z" fill="#D00416"/>
</svg>
