<svg width="340" height="340" viewBox="0 0 340 340" fill="none" xmlns="http://www.w3.org/2000/svg">
<path d="M301.478 70.3945C301.806 76.0724 301.549 81.769 300.713 87.3945C301.644 81.7785 301.901 76.0714 301.478 70.3945Z" fill="#1C1C1C"/>
<path d="M287.742 28.3209C278.29 19.8209 264.282 13.8709 253.742 11.3209C236.515 7.4972 218.659 7.4972 201.433 11.3209C190.974 13.8118 181.272 18.7909 173.151 25.835C165.029 32.8791 158.729 41.7799 154.785 51.7809C152.541 57.3022 151.259 63.1669 150.994 69.1209C148.337 68.8769 145.659 69.1777 143.123 70.0049C140.118 70.9752 137.491 72.8591 135.609 75.3939C132.063 81.0619 129.209 87.1346 127.109 93.4819C126.922 94.2469 126.531 95.5899 127.313 96.1679C126.051 97.4366 124.552 98.444 122.901 99.1325C121.25 99.8209 119.479 100.177 117.691 100.18C117.3 100.18 114.104 100.061 111.571 99.7719C107.115 99.0358 102.582 98.8929 98.0896 99.3469C95.1722 99.7933 92.3187 100.587 89.5896 101.71C84.5032 103.51 80.0453 106.741 76.7519 111.014C73.4585 115.288 71.47 120.422 71.0256 125.799C71.005 126.936 70.9198 128.071 70.7706 129.199C65.5571 138.781 61.4888 148.943 58.6496 159.476C58.0036 162.519 58.8196 163.182 58.2586 164.1C51.0676 178.159 48.2286 195.737 60.5706 205.461C56.8646 205.461 52.2406 204.322 51.9176 207.586C51.8162 208.478 51.8162 209.379 51.9176 210.272C51.9176 214.454 51.1526 239.92 51.1356 240.107C49.9796 258.807 45.2196 274.787 38.5386 292.416C35.1386 299.879 30.3616 311.694 25.2956 322.166C24.4456 323.866 27.4376 325.566 29.0356 326.688C35.0951 329.773 41.8028 331.37 48.6026 331.346L150.722 331.499C154.564 331.499 159.222 329.578 158.899 324.699C158.117 320.381 155.992 317.355 153.901 313.156C151.713 309.292 149.722 305.32 147.934 301.256C149.277 301.647 151.776 302.412 152.541 300.865C153.306 299.318 152.354 297.992 151.385 296.836C147.849 292.569 146.149 292.127 143.344 287.775C145.792 288.183 148.172 289.288 150.62 289.9C151.385 290.087 151.589 290.291 151.963 289.713C152.352 289.242 152.678 288.722 152.932 288.166C153.578 287.367 159.12 279.36 162.554 273.359C167.34 265.617 171.534 257.525 175.1 249.151C178.365 241.347 180.064 232.977 180.098 224.518C179.887 217.681 177.824 211.03 174.131 205.274C168.986 197.753 162.195 191.504 154.275 186.999C157.648 184.064 160.173 180.277 161.585 176.034C163.146 171.517 163.866 166.752 163.71 161.975C163.71 146.675 158.491 129.93 147.543 119.203C147.54 118.15 147.46 117.099 147.305 116.058C147.05 114.834 147.934 115.191 148.852 114.749C153.255 112.559 157.117 109.418 160.157 105.552C161.675 103.23 163.049 100.817 164.271 98.3269C165.723 98.8348 167.306 98.8348 168.759 98.3269C169.748 98.144 170.666 97.6869 171.409 97.0077C172.151 96.3284 172.688 95.4543 172.958 94.4849C173.092 93.0721 173.029 91.6474 172.771 90.2519C172.095 87.0845 170.949 84.036 169.371 81.2079C166.837 76.313 162.695 72.4407 157.641 70.2429C155.945 69.6546 154.205 69.1999 152.439 68.8829C152.494 65.7615 152.945 62.6598 153.782 59.6519C156.521 48.6547 162.21 38.6138 170.236 30.612C178.261 22.6102 188.319 16.9511 199.325 14.2449C223.754 8.2779 251.855 9.04291 273.785 22.5239C303.773 40.5949 308.431 77.7909 294.576 110.261C278.035 148.987 233.801 179.57 233.75 219.061C233.58 219.061 206.397 218.466 206.227 218.296C205.195 210.891 205.195 203.379 206.227 195.975C207.771 182.312 212.025 169.095 218.739 157.096C234.192 130.542 259.539 110.89 256.547 76.4819C255.493 65.9249 251.056 54.5179 240.924 51.2369C219.062 44.1989 195.16 58.2069 193.8 81.7349C193.902 82.6955 193.902 83.6643 193.8 84.6249C187.459 84.6249 172.448 84.4379 172.261 84.4379C172.996 86.0418 173.565 87.7165 173.961 89.4359C174.148 90.0139 173.961 90.2009 174.539 90.2009L206.278 90.4049C205.326 80.2049 210.511 70.1919 218.178 63.6469C224.723 58.2749 236.266 52.6819 245.123 55.1469C247.69 55.7929 256.615 66.3669 254.932 87.6679C252.127 114.222 236.844 127.499 223.159 147.899C210.656 165.959 204.193 187.514 204.697 209.473C204.708 212.633 204.964 215.787 205.462 218.908H206.04C208.029 219.639 215.118 223.447 218.161 224.297C219.436 224.467 248.761 225.113 246.823 225.062C246.823 196.961 267.801 173.688 283.968 152.71C291.725 143.182 298.556 132.935 304.368 122.11C313.684 104.532 317.832 82.7379 312.341 62.0489C308.261 46.9869 299.302 38.8269 287.742 28.3209ZM81.1066 107.201C84.0986 104.728 87.5721 102.905 91.3066 101.846C96.6233 99.8697 102.34 99.2106 107.967 99.9249C110.296 100.265 112.54 100.486 114.886 100.707C115.219 105.18 117.011 109.42 119.986 112.777C124.423 117.996 130.169 118.999 132.6 117.299C133.431 116.709 134.079 115.897 134.47 114.956C134.861 114.015 134.978 112.983 134.81 111.978L136.816 114.035C136.532 114.202 136.324 114.472 136.236 114.789C136.147 115.106 136.184 115.445 136.34 115.735C136.765 116.483 138.04 116.126 138.737 116.483C139.434 116.84 139.485 117.911 139.57 118.71C139.566 119.032 139.632 119.351 139.764 119.645C139.896 119.938 140.091 120.199 140.335 120.41C138.568 122.928 137.187 125.695 136.238 128.621C133.91 134.427 132.328 140.505 131.529 146.709C130.845 152.684 130.635 158.704 130.9 164.712C122.774 153.985 116.824 151.435 116.824 150.789C116.824 149.582 120.071 136.475 115.43 127.924C116.969 133.236 117.545 138.78 117.13 144.295C116.943 146.42 116.365 148.341 116.161 150.449C116.161 151.027 116.161 151.027 116.739 151.418C125.8 157.64 148.121 188.903 144.262 197.199C142.919 200.089 139.162 202.18 136.765 204.288C136 204.866 135.609 204.679 134.844 204.288C133.297 203.336 131.58 202.588 130.033 201.602C111.554 191.793 90.4566 182.358 79.6786 163.59C70.0396 147.049 67.3026 120.58 81.1066 107.201ZM143.344 111.502C143.974 111.723 144.509 112.155 144.857 112.726C146.313 114.599 147.043 116.936 146.914 119.305C142.63 119.917 142.426 119.305 140.539 120.308C139.893 119.645 140.76 118.098 139.553 116.687C138.346 115.276 137.122 116.381 136.748 115.412C136.374 114.443 138.448 114.273 139.026 114.375C139.7 114.48 140.351 114.704 140.947 115.038C140.675 113.967 139.842 113.1 139.502 112.097C139.281 111.451 139.502 110.397 140.352 110.856C141.576 111.485 142.052 112.556 143.106 114.035C143.106 114.154 143.242 114.035 143.225 113.933C143.174 113.372 142.579 111.281 143.344 111.502ZM139.944 114.256C138.737 113.474 137.955 114.443 136.442 112.811C135.316 111.652 134.02 110.672 132.6 109.904C133.033 109.272 133.618 108.758 134.3 108.408C134.349 108.391 134.403 108.391 134.453 108.408C134.462 108.423 134.466 108.441 134.466 108.459C134.466 108.477 134.462 108.494 134.453 108.51C135.708 110.902 137.61 112.894 139.944 114.256ZM142.545 207.008C141.763 206.821 141.763 207.773 141.576 208.164C141.185 208.929 140.59 210.952 139.468 210.867C139.365 210.857 139.267 210.816 139.188 210.749C139.109 210.682 139.053 210.593 139.026 210.493C138.669 209.558 139.876 208.793 140.097 206.549C140.097 206.107 139.825 205.835 139.468 206.09C138.856 206.634 138.975 207.348 137.87 208.657C137.649 208.878 137.173 209.116 136.935 208.827C136.697 208.538 137.173 207.841 137.292 207.484C137.502 206.534 137.622 205.566 137.649 204.594C140.148 203.039 142.348 201.046 144.143 198.712C145.128 200.252 145.68 202.029 145.743 203.857C145.806 205.684 145.376 207.494 144.5 209.099C144.296 209.405 144.194 209.745 144.007 210.051C143.82 210.357 142.511 212.346 141.899 211.513C141.627 211.122 142.069 210.544 142.222 210.204C142.375 209.864 142.545 209.371 142.681 208.946C142.817 208.521 143.259 207.178 142.545 207.008ZM59.8056 162.264C59.4826 156.263 65.9766 139.161 70.7876 131.443C70.1416 132.446 70.5326 135.285 70.5836 136.356C70.5816 138.286 70.735 140.213 71.0426 142.119C72.0469 150.028 74.6362 157.652 78.6555 164.537C82.6748 171.422 88.0415 177.425 94.4346 182.188C84.3392 179.438 74.7771 175.013 66.1466 169.098C63.6476 167.296 60.1966 165.698 59.8056 162.264ZM148.444 306.577C151.556 311.837 154.261 317.327 156.536 322.999C157.488 325.498 157.114 328.201 154.411 329.153C148.444 331.669 141.525 329.935 135.167 329.935C109.395 329.935 83.6056 330.309 57.8166 330.309C49.5886 330.309 34.8156 330.972 27.9136 324.954C25.7036 322.931 27.3526 321.248 29.5286 316.454C56.6096 262.275 52.3256 232.593 54.0426 208.98C54.2296 206.09 57.7826 206.447 59.7036 206.447C61.6246 206.447 61.8796 206.447 62.6106 206.957C72.2326 212.907 83.7756 214.063 94.3666 217.157C104.567 220.047 114.954 225.249 116.671 236.792C118.388 248.335 113.594 261.221 110.33 271.999C109.565 274.311 108.783 276.997 108.018 279.513C108.018 279.7 107.44 280.856 107.44 281.043C108.205 282.59 114.24 283.933 115.532 284.443C117.453 285.208 119.561 285.786 121.686 286.551C122.638 286.942 125.528 288.251 126.497 287.911C127.84 287.52 129.761 283.287 130.526 282.131C133.807 277.32 136.884 272.322 139.774 267.324C139.774 268.089 139.961 268.854 139.961 269.619C140.088 270.269 140.023 270.943 139.774 271.557C137.58 275.613 135.139 279.531 132.464 283.287C132.991 283.61 133.671 283.78 134.164 284.137L134.844 284.596C131.767 288.183 130.373 291.243 134.334 293.844C135.833 294.965 137.419 295.966 139.077 296.836C140.777 297.72 142.358 298.757 144.177 299.522C146.744 300.423 146.013 301.222 146.897 302.531C147.227 303.951 147.765 305.314 148.495 306.577H148.444ZM145.979 292.399C147.271 293.912 148.597 295.391 149.838 296.989C150.416 297.771 151.946 299.692 150.79 300.389C148.41 301.97 136.646 294.677 134.64 292.824C133.956 292.322 133.465 291.602 133.248 290.782C133.031 289.962 133.103 289.093 133.45 288.319C134.027 287.082 134.783 285.936 135.694 284.919C135.966 285.055 141.185 287.078 141.797 287.333C143.293 287.775 142.885 288.829 146.047 292.212L145.979 292.399ZM155.04 215.899C158.44 229.771 153.697 244.374 147.73 256.869C145.622 261.102 143.31 265.369 140.93 269.568C140.587 268.316 140.523 267.005 140.743 265.726C142.256 262.547 148.325 253.826 152.473 238.781C154.887 230.487 154.887 221.677 152.473 213.383C151.092 209.153 148.968 205.204 146.2 201.721L146.081 201.619V201.381C145.925 200.7 145.655 200.05 145.282 199.46C144.568 198.202 144.381 198.457 144.823 197.879C149.904 202.767 153.454 209.028 155.04 215.899ZM150.484 123.317C156.084 130.605 159.861 139.127 161.5 148.171C163.625 158.371 163.965 170.118 159.154 179.74C154.904 188.24 150.654 189.396 144.092 187.577C144.092 185.877 139.502 177.649 139.145 177.02C136.817 173.106 134.28 169.321 131.546 165.681C130.577 151.894 133.093 134.299 140.267 121.379C140.434 121.11 140.658 120.88 140.921 120.704C141.185 120.528 141.484 120.41 141.797 120.359C142.953 120.172 147.016 119.679 147.101 119.73C148.387 120.765 149.526 121.972 150.484 123.317ZM154.7 89.6229C157.981 92.9039 159.579 95.2839 163.574 97.7149C162.276 100.983 160.373 103.976 157.964 106.538C155.737 109.037 151.062 113.083 148.308 113.899C147.713 114.103 147.084 114.086 146.506 114.273C146.009 113.196 145.33 112.213 144.5 111.366C143.531 110.414 142.188 110.601 142.375 112.148C141.797 111.366 139.162 109.02 138.533 111.128C138.397 111.842 138.669 112.335 139.128 113.287C137.445 111.854 136.039 110.126 134.98 108.187C134.657 107.541 134.368 107.388 133.569 108.187C132.073 109.462 130.322 112.199 130.509 113.814C130.876 112.56 131.45 111.376 132.209 110.312C132.816 110.557 133.357 110.942 133.79 111.434C134.606 112.386 133.127 117.333 129.999 117.571C123.029 117.69 117.147 110.601 115.566 103.427C115.566 103.206 115.209 100.928 115.243 100.928C117.946 101.115 122.043 102.305 127.942 96.5419C131.019 96.7969 132.617 94.8419 134.606 93.9239C135.306 93.3907 135.95 92.7869 136.527 92.1219C136.336 91.8979 136.208 91.6285 136.153 91.3399C135.32 88.3139 137.105 85.6279 138.295 85.5769C140.437 85.4749 140.216 87.4979 140.216 88.6539C140.216 89.8099 139.842 90.7619 140.794 91.3399C141.372 91.9179 142.341 91.7309 143.106 91.7309C144.5 91.6289 144.5 90.0989 147.9 88.0929C148.429 87.656 149.046 87.3374 149.708 87.1585C150.371 86.9797 151.064 86.9447 151.742 87.0559C153 87.5149 153.697 88.8579 154.7 89.6229Z" fill="#1C1C1C"/>
<path d="M148.545 95.8949C149.217 95.9931 149.866 96.2059 150.466 96.5239C151.157 96.8174 151.804 97.2066 152.387 97.6799C152.26 97.3045 152.058 96.9588 151.794 96.6638C151.53 96.3688 151.208 96.1306 150.849 95.9636C150.489 95.7967 150.1 95.7045 149.704 95.6927C149.308 95.6809 148.914 95.7497 148.545 95.8949ZM157.487 102.389C157.744 102.863 157.96 103.357 158.133 103.868C158.694 102.916 157.555 101.182 156.433 101.182C156.62 101.182 157.317 102.168 157.487 102.389ZM118.88 287.434C121.787 291.939 129.08 298.382 126.377 299.555C125.034 300.133 122.535 298.79 121.175 298.212C117.809 296.715 114.588 294.911 111.553 292.823C110.414 291.854 108.153 290.698 108.476 288.981C109.171 287.111 110.145 285.357 111.366 283.779C109.836 285.887 106.181 288.777 108.867 291.48C111.098 293.763 113.702 295.649 116.568 297.056C119.254 298.399 122.331 300.456 125.408 300.898C126.768 301.102 128.111 300.711 128.298 299.198C127.108 294.761 122.62 292.109 118.88 287.434ZM147.355 107.336C148.12 109.036 149.922 110.022 151.078 108.288C152.226 106.505 153.108 104.563 153.696 102.525C152.679 104.452 151.544 106.315 150.296 108.101C149.276 109.257 147.899 108.101 147.355 107.336ZM149.089 98.4789C148.511 98.1049 147.151 99.8219 147.933 100.179C148.715 100.536 149.854 98.8699 149.089 98.4789ZM155.617 105.602C156.195 105.993 157.164 104.259 156.586 103.902C156.008 103.545 154.852 105.211 155.617 105.602ZM141.575 107.523C142.918 108.288 144.856 109.223 145.434 110.804C146.301 109.325 144.006 106.809 141.575 107.523ZM245.666 248.572C238.458 243.761 230.808 237.794 221.73 237.182C211.87 237.012 201.228 241.432 195.652 251.258C191.803 257.277 190.404 264.54 191.741 271.558C193.078 278.576 197.05 284.816 202.843 288.998C208.504 292.67 212.414 293.605 220.166 297.175C224.86 299.014 229.991 299.433 234.922 298.382C240.11 297.691 244.985 295.502 248.949 292.085C252.913 288.667 255.795 284.168 257.243 279.138C258.688 273.471 258.352 267.496 256.28 262.027C254.209 256.558 250.503 251.86 245.666 248.572ZM245.105 270.502C242.266 288.318 222.818 296.971 207.705 290.511C191.946 283.286 187.407 262.121 199.035 248.368C201.664 245.063 205.069 242.46 208.948 240.79C212.826 239.12 217.058 238.436 221.265 238.797C225.472 239.159 229.525 240.556 233.062 242.864C236.598 245.171 239.509 248.318 241.535 252.023C244.807 257.592 246.067 264.115 245.105 270.502ZM65.3809 247.79C66.2819 239.29 66.9279 231.062 67.3019 222.596C64.2589 257.174 61.6069 290.324 42.2949 319.19C57.1189 298.671 62.6949 273.018 65.3809 247.79ZM60.1789 311.863C59.2269 313.988 58.2579 315.909 57.3059 318.034C66.3709 301.931 71.6061 283.956 72.6059 265.504C71.2969 273.919 69.9369 290.239 60.1789 311.863Z" fill="#1C1C1C"/>
</svg>
