<svg width="28" height="28" viewBox="0 0 28 28" fill="none" xmlns="http://www.w3.org/2000/svg">
<path d="M20.9974 4.6665C19.0024 4.6665 17.7891 5.0515 17.0891 5.37817C16.1907 4.93484 15.1641 4.6665 13.9974 4.6665C12.8307 4.6665 11.8041 4.93484 10.9057 5.37817C10.2057 5.0515 8.9924 4.6665 6.9974 4.6665C3.4974 4.6665 1.16406 13.9998 1.16406 16.3332C1.16406 17.3015 2.70406 18.1882 4.8274 18.5498C5.57406 21.1632 9.0974 23.1582 13.4141 23.3332V18.3398C12.7257 17.9082 11.6641 17.1265 11.6641 16.3332C11.6641 15.1665 13.9974 15.1665 13.9974 15.1665C13.9974 15.1665 16.3307 15.1665 16.3307 16.3332C16.3307 17.1265 15.2691 17.9082 14.5807 18.3398V23.3332C18.8974 23.1582 22.4207 21.1632 23.1674 18.5498C25.2907 18.1882 26.8307 17.3015 26.8307 16.3332C26.8307 13.9998 24.4974 4.6665 20.9974 4.6665ZM4.83906 16.1815C4.25573 16.0415 3.80073 15.8782 3.4974 15.7498C3.78906 12.5182 6.06406 7.4665 7.05573 6.99984C7.68573 6.99984 8.16406 7.06984 8.59573 7.12817C6.14573 9.82317 5.1774 14.0465 4.83906 16.1815ZM10.4974 13.9998C10.188 13.9998 9.89123 13.8769 9.67244 13.6581C9.45365 13.4393 9.33073 13.1426 9.33073 12.8332C9.33073 12.2032 9.85573 11.6665 10.4974 11.6665C10.8068 11.6665 11.1036 11.7894 11.3224 12.0082C11.5411 12.227 11.6641 12.5238 11.6641 12.8332C11.6641 13.4865 11.1391 13.9998 10.4974 13.9998ZM17.4974 13.9998C17.188 13.9998 16.8912 13.8769 16.6724 13.6581C16.4536 13.4393 16.3307 13.1426 16.3307 12.8332C16.3307 12.2032 16.8557 11.6665 17.4974 11.6665C17.8068 11.6665 18.1036 11.7894 18.3224 12.0082C18.5411 12.227 18.6641 12.5238 18.6641 12.8332C18.6641 13.4865 18.1391 13.9998 17.4974 13.9998ZM23.1557 16.1815C22.8174 14.0465 21.8491 9.82317 19.3991 7.12817C19.8307 7.06984 20.3091 6.99984 20.9391 6.99984C21.9307 7.4665 24.2057 12.5182 24.4974 15.7498C24.2057 15.8782 23.7507 16.0415 23.1557 16.1815Z" fill="#1C1C1C"/>
</svg>
