<svg width="50" height="50" viewBox="0 0 50 50" fill="none" xmlns="http://www.w3.org/2000/svg">
<path d="M24.9974 45.8327C13.4915 45.8327 4.16406 36.5052 4.16406 24.9993C4.16406 19.1816 6.54875 13.9207 10.394 10.1411M24.9974 45.8327C22.9911 44.346 23.3114 42.615 24.3178 40.8841C25.8653 38.2231 25.8653 38.2231 25.8653 34.6752C25.8653 31.1273 27.9736 29.4637 35.4141 30.9516C38.7572 31.6204 41.1934 27.0012 45.5334 28.5264M24.9974 45.8327C35.3011 45.8327 43.8578 38.3527 45.5334 28.5264M10.394 10.1411C12.1634 10.3278 13.154 11.2757 14.7994 13.0143C17.9232 16.315 21.047 16.5904 23.1297 15.4902C26.2534 13.8398 23.6284 11.1666 27.2947 9.71389C29.5424 8.82333 29.9707 6.49099 28.907 4.53224M10.394 10.1411C14.1535 6.44562 19.3092 4.16602 24.9974 4.16602C26.3336 4.16602 27.6405 4.29183 28.907 4.53224M45.5334 28.5264C45.7289 27.38 45.8307 26.2016 45.8307 24.9993C45.8307 14.8297 38.5441 6.36195 28.907 4.53224" stroke="#1C1C1C" stroke-width="1.875" stroke-linejoin="round"/>
</svg>
