<svg width="306" height="325" viewBox="0 0 306 325" fill="none" xmlns="http://www.w3.org/2000/svg">
<path d="M240.008 274.762C239.872 278.699 237.766 281.952 235.287 281.952C233.832 281.952 232.502 280.83 231.629 279.106C231.117 279.359 230.602 279.614 230.078 279.869C231.238 282.178 233.121 283.653 235.287 283.653C237.845 283.653 240.037 283.509 242.129 281.527C244.499 279.284 245.319 275.502 244.824 272.09C243.302 272.955 241.698 273.849 240.008 274.764V274.762Z" fill="#1C1C1C"/>
<path d="M89.411 269.206C87.0633 266.641 82.1911 267.312 81.0504 268.001C74.7502 270.338 75.1276 283.712 81.6182 285.208C83.6514 285.678 87.0123 285.287 89.1067 283.306C92.7464 279.862 92.5271 272.613 89.411 269.206ZM78.2216 276.518C78.2216 272.667 80.2395 269.415 82.6263 269.415C85.0131 269.415 87.031 272.669 87.031 276.518C87.031 280.367 85.0131 283.622 82.6263 283.622C80.2395 283.622 78.2216 280.368 78.2216 276.518Z" fill="#1C1C1C"/>
<path d="M155.65 306.794C153.496 304.439 150.774 304.674 148.374 304.881C143.616 305.3 141.18 310.264 141.18 315.041C141.18 320.503 144.246 324.946 148.014 324.946C150.822 324.946 153.097 324.776 155.312 322.682C159.373 318.84 159.186 310.658 155.65 306.794ZM142.878 315.041C142.878 310.592 145.229 306.835 148.012 306.835C150.795 306.835 153.146 310.592 153.146 315.041C153.146 319.489 150.795 323.246 148.012 323.246C145.229 323.246 142.878 319.489 142.878 315.041Z" fill="#1C1C1C"/>
<path d="M304.981 171.876C259.488 148.66 212.705 131.755 166.105 121.279C159.502 113.76 151.485 104.808 144.785 97.4573C137.234 89.1732 130.74 81.7476 123.093 77.5299C122.947 74.883 121.109 72.9416 117.983 72.163C115.113 71.4507 112.164 72.061 109.561 72.6033C96.6718 75.2808 17.6082 91.5549 5.21692 96.5155C2.67202 97.5338 1.20322 98.4008 0.485817 100.969C-0.4373 104.286 -0.270699 110.058 2.99332 112.506C4.59812 113.711 6.77412 113.481 8.53702 112.478C10.4631 111.926 12.991 111.226 15.9983 110.406C18.8373 113.155 17.411 111.618 51.8224 149.982C52.1012 179.948 58.0937 213.842 69.3086 240.587C69.4004 240.81 69.3086 240.733 72.3057 243.332C73.2152 247.363 74.3423 253.303 77.2901 261.835C78.8847 266.447 82.9239 268.996 86.8288 271.466C106.812 284.103 126.777 295.585 147.158 306.074C147.439 306.013 147.725 305.981 148.015 305.981C149.685 305.981 151.194 307.016 152.279 308.684C153.872 309.488 155.466 310.285 157.063 311.077C160.388 312.725 164.107 314.491 167.893 314.491C181.648 314.491 232.662 290.375 242.732 285.112C245.665 283.578 252.156 280.959 253.393 277.627C254.527 274.578 251.552 272.481 248.774 270.832C254.264 267.668 259.617 264.316 264.822 260.78C265.827 260.093 290.679 217.379 305.4 172.898C305.534 172.493 305.347 172.062 304.98 171.873L304.981 171.876ZM9.64882 109.048C8.65092 110.964 5.71162 112.421 4.01332 111.146C1.66392 109.383 1.20322 104.728 2.12292 101.427C2.58872 99.7591 3.67842 98.6541 5.43792 98.6541C6.73672 98.6541 7.97432 99.3001 8.59482 100.034C10.3917 102.166 10.5668 107.287 9.64882 109.048ZM166.171 123.037C211.966 133.371 257.873 150.045 302.671 172.614C280.749 183.091 258.549 192.56 235.802 199.284C234.564 199.649 217.705 205.298 195.408 210.487C185.201 207.879 174.692 205.038 164.079 201.835C165.624 176.062 166.289 149.914 166.17 123.039L166.171 123.037ZM116.414 246.234C105.865 241.022 95.4903 235.055 85.5351 228.129C84.5508 218.308 83.8963 208.448 83.5699 198.583C94.3037 205.264 105.464 211.044 116.796 216.112C116.363 226.144 116.234 236.194 116.414 246.234ZM116.451 248.149C116.637 256.684 117.045 265.208 117.675 273.701C107.853 267.984 98.246 261.602 89.0048 254.643C87.6992 246.586 86.6197 238.484 85.7629 230.353C95.6739 237.153 105.984 243.018 116.451 248.149ZM116.878 214.283C105.481 209.157 94.2714 203.308 83.5053 196.537C83.252 187.613 83.2673 178.688 83.5546 169.784C94.9123 176.538 106.783 182.384 118.874 187.513C117.964 196.404 117.3 205.334 116.878 214.283ZM191.124 240.849C203.495 237.858 215.726 234.389 227.778 230.455C224.597 240.492 221.306 250.537 217.921 260.536C206.817 264.411 195.529 267.843 184.091 270.816C186.692 261.152 189.04 251.152 191.124 240.849ZM182.309 270.891C171.897 267.843 161.114 264.458 150.23 260.518C152.184 250.676 154.015 240.796 155.715 230.909C167.147 234.618 178.462 237.833 189.412 240.745C187.307 251.115 184.938 261.174 182.309 270.891ZM191.493 239.009C193.235 230.236 194.791 221.244 196.152 212.054C209.188 209.009 222.202 205.41 235.149 201.274C234.833 208.929 232.077 216.828 228.408 228.459C216.274 232.454 203.954 235.975 191.493 239.009ZM189.747 239.074C178.784 236.157 167.45 232.937 156.005 229.216C157.527 220.287 158.943 211.355 160.247 202.441C171.831 206.014 183.314 209.14 194.444 211.991C193.072 221.227 191.505 230.261 189.747 239.074ZM154.372 228.68C142.439 224.753 130.4 220.277 118.544 215.026C118.954 206.06 119.61 197.111 120.511 188.203C133.094 193.468 145.902 197.971 158.601 201.931C157.301 210.835 155.888 219.76 154.37 228.68H154.372ZM118.464 216.85C130.257 222.043 142.223 226.48 154.081 230.375C152.386 240.245 150.562 250.107 148.614 259.93C138.454 256.201 128.219 251.977 118.126 247.074C117.929 237.003 118.043 226.917 118.464 216.85ZM148.279 261.616C146.597 270.026 144.826 278.405 142.968 286.733C135.051 283.172 127.189 279.157 119.455 274.73C118.801 266.172 118.371 257.584 118.168 248.983C128.144 253.791 138.249 257.944 148.277 261.616H148.279ZM149.895 262.204C160.743 266.126 171.487 269.495 181.864 272.532C179.431 281.394 176.783 289.967 173.925 298.224C164.148 295.371 154.312 291.75 144.554 287.439C146.424 279.072 148.206 270.653 149.897 262.202L149.895 262.204ZM183.579 272.705C194.952 269.774 206.181 266.395 217.229 262.576C214.332 271.093 211.369 279.576 208.35 287.988C197.852 291.932 186.984 295.298 175.776 298.069C178.581 289.911 181.187 281.446 183.579 272.705ZM219.266 261.866C230.326 257.981 241.201 253.66 251.856 248.914C248.796 256.878 245.571 264.769 242.185 272.569C232.045 278.075 221.45 282.954 210.441 287.192C213.443 278.805 216.388 270.352 219.266 261.866ZM219.958 259.819C223.327 249.838 226.603 239.815 229.768 229.8C241 226.081 252.076 221.957 262.961 217.44C259.797 227.266 256.378 237.019 252.715 246.666C242.01 251.486 231.077 255.875 219.958 259.819ZM230.399 227.799C233.915 216.62 236.675 208.681 236.867 200.722C248.506 196.958 260.089 192.759 271.581 188.137C269.154 197.239 266.504 206.306 263.639 215.316C252.74 219.878 241.65 224.042 230.399 227.799ZM162.343 201.307C124.574 189.781 85.6218 173.593 54.3163 146.939C81.7169 136.989 111.562 129.631 143.043 125.023C150.115 123.987 157.416 122.84 164.468 122.82C164.59 149.771 163.895 175.457 162.343 201.307ZM21.0167 109.05C52.4922 100.585 117.315 83.9185 118.979 82.9733C119.867 82.4701 120.926 81.8683 121.747 81.037C128.605 86.0061 132.843 91.4699 159.264 121.312C153.771 121.687 148.296 122.537 142.8 123.34C111.302 127.937 81.4347 135.304 54.0001 145.246C47.2426 137.547 28.3964 116.156 21.0167 109.05ZM53.5105 148.484C62.4304 156.049 71.9555 162.771 81.8886 168.784C81.5843 177.656 81.5469 186.549 81.7764 195.438C72.4553 189.461 63.4827 182.78 55.0303 175.264C54.0579 166.302 53.536 157.297 53.5105 148.484ZM55.3142 177.78C63.7173 185.113 72.6117 191.642 81.8342 197.492C82.1317 207.289 82.7556 217.081 83.6991 226.837C75.653 221.11 67.8942 214.74 60.5604 207.614C58.279 197.975 56.5093 187.918 55.3142 177.78ZM70.7995 239.752C67.0935 230.887 63.9026 221.052 61.3084 210.684C68.5045 217.482 76.0831 223.578 83.9235 229.078C84.7446 237.136 85.7867 245.168 87.0464 253.157C81.4823 248.893 76.0559 244.419 70.7995 239.752ZM251.8 277.035C250.833 279.638 244.334 282.358 241.945 283.605C228.588 290.584 179.244 313.345 167.487 312.784C164.264 312.635 161.325 311.293 157.817 309.556C134.108 297.811 110.784 284.632 88.437 270.475C84.5661 268.023 80.3824 265.584 78.8966 261.281C77.0827 256.031 75.5901 250.619 74.4494 245.175C103.198 269.597 138.216 289.725 174.229 300.087C174.375 300.128 174.518 300.129 174.664 300.095C200.748 293.787 225.027 284.294 247.096 271.792C249.075 273.077 252.635 274.794 251.8 277.035ZM263.712 259.481C257.548 263.661 251.178 267.581 244.616 271.234C247.919 263.547 251.068 255.773 254.056 247.929C261.509 244.558 268.853 240.98 276.076 237.195C272.078 244.912 267.928 252.405 263.714 259.481H263.712ZM277.431 234.559C270.05 238.481 262.537 242.187 254.908 245.675C258.524 236.068 261.9 226.36 265.023 216.581C273.997 212.809 282.839 208.768 291.533 204.469C287.218 214.55 282.456 224.716 277.431 234.56V234.559ZM292.556 202.06C283.753 206.461 274.796 210.592 265.701 214.449C268.535 205.462 271.156 196.419 273.557 187.34C283.497 183.297 293.369 178.936 303.152 174.267C300.135 183.203 296.549 192.579 292.556 202.06Z" fill="#1C1C1C"/>
<path d="M180.374 194.915C202.54 185.577 218.925 165.675 224.764 143.327C228.448 129.228 228.224 113.028 238.903 92.7728C242.652 85.6634 247.803 77.4218 255.05 73.6104C257.398 72.3762 259.917 71.9189 262.477 71.3579C263.082 71.2253 263.125 70.19 262.477 70.0897C257.969 69.3961 253.394 72.0073 250.014 74.7749C246.263 77.8485 243.296 81.835 240.8 85.9626C224.469 112.948 228.365 131.468 221.172 150.782C213.946 170.184 198.737 186.194 180.323 194.786C180.252 194.819 180.304 194.944 180.377 194.914L180.374 194.915Z" fill="#1C1C1C"/>
<path d="M288.818 60.1074C287.606 59.9289 286.362 60.0105 285.182 60.3454C285.065 59.6994 284.794 59.084 284.366 58.5859C284.521 57.9875 284.582 57.0882 285.529 55.9441C285.828 55.582 285.777 55.0465 285.417 54.7473C285.056 54.4481 284.519 54.4991 284.22 54.8595C283.552 55.6687 283.077 56.6156 282.828 57.6271C280.531 57.0899 279.154 58.3513 278.72 59.9459C276.203 57.5744 273.527 55.3491 270.739 53.3142C269.542 52.4404 268.429 52.3996 267.256 54.0197C265.736 56.1124 264.141 58.8392 265.309 61.3824C265.945 62.7662 267.172 63.6009 268.609 64.0735C267.419 66.8649 268.774 70.0456 272.247 70.6151C271.956 71.0248 271.689 71.4192 271.451 71.7949C271.191 72.208 270.707 72.9781 270.817 73.8621C270.987 75.1983 272.713 76.8728 275.288 76.8728C279.135 76.8728 281.597 73.3776 281.884 69.4472C282.006 67.7863 281.785 66.1628 281.473 64.5784C282.935 64.6192 284.587 63.6077 285.066 62.1644C285.095 62.1576 285.123 62.1491 285.15 62.1389C286.241 61.7394 287.423 61.617 288.572 61.7887C289.033 61.8567 289.468 61.5371 289.536 61.0713C289.604 60.6055 289.284 60.1754 288.818 60.1074ZM266.853 60.6735C266.054 58.9327 267.383 56.738 268.629 55.0193C269.024 54.4736 269.195 54.4141 269.251 54.4141C269.603 54.3546 275.223 58.9293 278.251 61.8482C275.467 63.2218 268.253 63.725 266.851 60.6752L266.853 60.6735ZM270.066 67.1267C269.749 66.3413 269.823 65.3774 270.314 64.4662C271.013 64.5682 271.725 64.6107 272.413 64.6107C274.178 64.6107 276.398 64.3744 278.176 63.7233C276.318 65.6358 274.73 67.4157 273.462 69.0103C272.065 69.0392 270.581 68.4068 270.067 67.1284L270.066 67.1267ZM280.191 69.3231C280.028 71.5433 279.115 73.3997 277.683 74.4163C276.298 75.4006 274.003 75.5298 272.792 74.1545C272.383 73.6887 272.403 73.4745 272.889 72.7027C273.862 71.1625 275.827 68.5309 279.734 64.5563C280.06 66.1407 280.305 67.7472 280.189 69.3248L280.191 69.3231ZM282.999 62.2902C281.549 63.3612 280.609 62.9073 280.332 61.5473C280.099 60.4049 280.541 59.2098 281.823 59.2098C282.668 59.2098 283.271 59.5617 283.492 60.5511C283.615 61.0951 283.559 61.8754 282.999 62.2885V62.2902Z" fill="#1C1C1C"/>
<path d="M184.865 79.2512C183.592 75.1695 181.987 70.4877 178.928 67.4634C179.036 65.8824 178.862 64.2606 178.583 62.751C174.845 42.5975 156.262 23.9077 135.946 20.1184C134.652 19.877 134.081 21.8184 135.395 22.1159C147.118 24.7798 157.571 30.8828 165.449 40.0101C173.128 48.9096 177.268 60.1636 177.419 66.2037C176.125 65.3163 174.641 64.7621 173.036 64.8692C170.394 65.046 167.567 66.7953 166.852 69.4643C166.175 71.9888 167.877 74.4521 170.374 74.9808C173.58 75.6608 177.332 73.9812 178.539 69.7635C180.924 72.747 182.466 77.3948 183.525 80.9835C187.683 95.0799 187.022 110.324 182.816 124.325C178.719 137.961 171.38 150.26 162.615 161.388C161.578 162.704 160.533 164.01 159.509 165.336C159.236 165.689 159.817 166.111 160.12 165.807C169.029 156.873 178.832 141.658 183.802 126.475C188.761 111.322 189.645 94.5682 184.867 79.2495L184.865 79.2512ZM174.782 72.6892C172.973 73.7993 169.672 74.0815 168.667 71.7389C167.572 69.1855 170.682 66.9772 172.893 66.7375C174.57 66.5556 176.057 67.3121 177.286 68.4222C177.014 70.1562 176.295 71.7593 174.782 72.6892Z" fill="#1C1C1C"/>
<path d="M128.695 13.3708C130.638 11.1217 131.353 7.80836 130.192 3.93576C129.687 2.24936 128.97 1.02876 128.004 0.204256C127.649 -0.100044 127.117 -0.0592442 126.811 0.292656C123.173 4.47466 120.538 8.66686 117.752 13.228C116.552 11.9904 114.085 11.5858 112.621 12.7231C112.103 12.5344 110.894 12.3508 109.498 11.0877C109.15 10.7715 108.613 10.7987 108.298 11.1472C107.984 11.4957 108.009 12.0329 108.358 12.3491C109.267 13.1719 110.347 13.7958 111.511 14.1732C111.225 14.8447 111.137 15.4856 111.21 16.0891C111.188 16.1095 111.166 16.1299 111.146 16.152C110.505 16.8524 109.685 17.3675 108.774 17.6395C108.324 17.7738 108.069 18.2464 108.203 18.6969C108.334 19.1372 108.801 19.4041 109.26 19.2681C110.265 18.9689 111.186 18.4453 111.956 17.7415C112.834 18.6986 114.172 19.2732 115.516 19.0114C115.834 18.9485 116.137 18.8397 116.417 18.6935C116.28 21.2724 116.047 25.7468 114.727 33.3696C114.636 33.8983 115.049 34.3692 115.572 34.3641C122.241 34.3046 127.382 27.8956 126.718 22.3791C129.234 21.9082 130.745 20.2932 131.115 18.5337C131.556 16.441 130.342 14.4758 128.695 13.3691V13.3708ZM127.484 2.12016C127.919 2.69816 128.276 3.45806 128.565 4.42196C130.522 10.9449 126.406 15.7916 118.901 14.6067C121.653 10.0949 124.11 6.12366 127.484 2.11846V2.12016ZM113.245 16.6246C112.786 16.1656 112.835 15.4533 113.034 14.9382C113.699 13.2229 116.002 13.6258 116.642 14.5404C117.524 15.8052 115.396 18.7734 113.245 16.6246ZM116.587 32.5808C117.99 24.0655 118.104 18.4436 118.255 17.0649C119.872 17.0751 122.014 17.7415 123.503 19.3225C127.554 23.6184 123.202 31.6475 116.587 32.5808ZM129.455 18.1835C129.155 19.603 127.729 20.4955 126.337 20.742C126.005 19.8172 125.482 18.9417 124.74 18.1563C124.059 17.4338 123.275 16.866 122.454 16.4359C124.365 16.2387 126.048 15.5944 127.389 14.588C129.016 15.4533 129.718 16.9357 129.455 18.1835Z" fill="#1C1C1C"/>
</svg>
