<svg width="20" height="20" viewBox="0 0 20 20" fill="none" xmlns="http://www.w3.org/2000/svg">
<path fill-rule="evenodd" clip-rule="evenodd" d="M5.14891 8.61141C4.33411 8.61141 4.16406 8.77133 4.16406 9.53733V10.9262C4.16406 11.6923 4.33411 11.8522 5.14891 11.8522H7.1186V17.4077C7.1186 18.1737 7.28865 18.3337 8.10345 18.3337H10.0731C10.888 18.3337 11.058 18.1737 11.058 17.4077V11.8522H13.2696C13.8876 11.8522 14.0469 11.7392 14.2166 11.1807L14.6387 9.79174C14.9295 8.83482 14.7503 8.61141 13.6917 8.61141H11.058V6.29663C11.058 5.78525 11.4989 5.37069 12.0428 5.37069H14.8459C15.6606 5.37069 15.8307 5.21082 15.8307 4.44477V2.59292C15.8307 1.82687 15.6606 1.66699 14.8459 1.66699H12.0428C9.32323 1.66699 7.1186 3.73975 7.1186 6.29663V8.61141H5.14891Z" stroke="#E3E3E3" stroke-linejoin="round"/>
</svg>
