<svg width="1253" height="245" viewBox="0 0 1253 245" fill="none" xmlns="http://www.w3.org/2000/svg">
<g clip-path="url(#clip0_6_1606)">
<path d="M1169.42 172.37C1171.73 174.66 1174.25 176.7 1176.99 178.46H1160.81C1163.85 176.67 1166.72 174.63 1169.42 172.37ZM1163.64 195.71V187.14H1203.99C1220.53 187.14 1235.17 178.88 1244.03 166.3V195.71C1244.03 216.01 1228.64 232.8 1208.82 235.23C1207.76 235.31 1206.72 235.38 1205.68 235.38H1200.13C1179.7 233.51 1163.65 216.45 1163.65 195.72M1073.78 196.87V154.56C1084.66 174.03 1105.29 187.22 1128.92 187.22C1129.9 187.22 1130.85 187.2 1131.81 187.14H1154.96V195.71C1154.96 212.1 1163.2 226.58 1175.74 235.37H1112.26C1091.07 235.37 1073.78 218.11 1073.78 196.87ZM1074.59 128.82C1074.9 129.34 1075.17 129.86 1075.5 130.36C1080.76 138.49 1088.04 145.04 1097.19 149.85C1107.98 155.55 1118.7 157.36 1124.31 157.96V178.34C1098.19 176.11 1077.2 155.17 1074.58 128.82M1163.64 138.01C1163.64 123.37 1171.65 110.55 1183.57 103.63V123.22C1183.57 137.11 1178.47 149.82 1170.09 159.56C1166.01 153.36 1163.64 145.94 1163.64 138.01ZM1175.66 166.36C1185.94 154.98 1192.22 139.84 1192.22 123.22V99.88C1195.92 98.78 1199.81 98.17 1203.83 98.17C1226 98.17 1244.04 116.04 1244.04 138C1244.04 159.96 1226.01 177.81 1203.83 177.81C1192.87 177.81 1182.91 173.42 1175.67 166.35M1101.11 142.13C1093.33 138.01 1087.15 132.46 1082.74 125.59C1077.87 118.04 1075.13 108.83 1074.48 98.13C1079.66 98.77 1088.56 100.54 1097.28 105.16C1105.08 109.26 1111.26 114.81 1115.67 121.67C1120.52 129.22 1123.28 138.46 1123.91 149.15C1118.73 148.48 1109.83 146.74 1101.11 142.12M1133 98.03H1176.2C1163.39 106.77 1154.96 121.43 1154.96 138.01C1154.96 148.33 1158.25 157.89 1163.8 165.76C1155.31 172.94 1144.64 177.51 1133 178.39V98.04V98.03ZM1183.56 53.44V88.34C1180.75 88.96 1177.84 89.3 1174.87 89.3H1141.32L1183.56 53.44ZM1122.91 116.92C1117.67 108.79 1110.37 102.24 1101.22 97.43C1090.57 91.81 1080.03 89.96 1074.33 89.34V53L1124.33 96.18V119.31C1123.85 118.52 1123.42 117.69 1122.92 116.92M1074.24 41.48C1077.07 23.03 1093.04 8.87 1112.26 8.87H1124.32V84.73L1074.23 41.49L1074.24 41.48ZM1133 8.86H1175.12C1197.19 9.01 1215.1 26.98 1215.1 49.09C1215.1 65.04 1205.74 78.85 1192.22 85.36V44.07C1192.22 42.39 1191.24 40.85 1189.72 40.14C1188.18 39.43 1186.37 39.68 1185.08 40.76L1133 85V8.86ZM1223.77 49.09C1223.77 32.43 1215.39 17.68 1202.64 8.86H1205.68C1226.87 8.86 1244.16 26.12 1244.16 47.34V110.4C1235.32 97.69 1220.64 89.35 1204 89.35H1202.52C1215.35 80.53 1223.78 65.76 1223.78 49.08M1175.12 0.190002H1112.26C1086.26 0.190002 1065.11 21.34 1065.11 47.34V196.87C1065.11 222.87 1086.26 244.02 1112.26 244.02H1199.85C1201.16 244.14 1202.49 244.19 1203.82 244.19C1205.82 244.19 1207.75 244.07 1209.69 243.84C1233.8 241.8 1252.83 221.52 1252.83 196.87V140.92C1252.85 140.05 1252.89 139.13 1252.89 138.26C1252.89 137.39 1252.85 136.47 1252.83 135.6V47.34C1252.83 21.34 1231.68 0.190002 1205.68 0.190002H1175.13H1175.12Z" fill="white"/>
<mask id="mask0_6_1606" style="mask-type:luminance" maskUnits="userSpaceOnUse" x="1065" y="0" width="188" height="245">
<path d="M1169.42 172.37C1171.73 174.66 1174.25 176.7 1176.99 178.46H1160.81C1163.85 176.67 1166.72 174.63 1169.42 172.37ZM1163.64 195.71V187.14H1203.99C1220.53 187.14 1235.17 178.88 1244.03 166.3V195.71C1244.03 216.01 1228.64 232.8 1208.82 235.23C1207.76 235.31 1206.72 235.38 1205.68 235.38H1200.13C1179.7 233.51 1163.65 216.45 1163.65 195.72M1073.78 196.87V154.56C1084.66 174.03 1105.29 187.22 1128.92 187.22C1129.9 187.22 1130.85 187.2 1131.81 187.14H1154.96V195.71C1154.96 212.1 1163.2 226.58 1175.74 235.37H1112.26C1091.07 235.37 1073.78 218.11 1073.78 196.87ZM1074.59 128.82C1074.9 129.34 1075.17 129.86 1075.5 130.36C1080.76 138.49 1088.04 145.04 1097.19 149.85C1107.98 155.55 1118.7 157.36 1124.31 157.96V178.34C1098.19 176.11 1077.2 155.17 1074.58 128.82M1163.64 138.01C1163.64 123.37 1171.65 110.55 1183.57 103.63V123.22C1183.57 137.11 1178.47 149.82 1170.09 159.56C1166.01 153.36 1163.64 145.94 1163.64 138.01ZM1175.66 166.36C1185.94 154.98 1192.22 139.84 1192.22 123.22V99.88C1195.92 98.78 1199.81 98.17 1203.83 98.17C1226 98.17 1244.04 116.04 1244.04 138C1244.04 159.96 1226.01 177.81 1203.83 177.81C1192.87 177.81 1182.91 173.42 1175.67 166.35M1101.11 142.13C1093.33 138.01 1087.15 132.46 1082.74 125.59C1077.87 118.04 1075.13 108.83 1074.48 98.13C1079.66 98.77 1088.56 100.54 1097.28 105.16C1105.08 109.26 1111.26 114.81 1115.67 121.67C1120.52 129.22 1123.28 138.46 1123.91 149.15C1118.73 148.48 1109.83 146.74 1101.11 142.12M1133 98.03H1176.2C1163.39 106.77 1154.96 121.43 1154.96 138.01C1154.96 148.33 1158.25 157.89 1163.8 165.76C1155.31 172.94 1144.64 177.51 1133 178.39V98.04V98.03ZM1183.56 53.44V88.34C1180.75 88.96 1177.84 89.3 1174.87 89.3H1141.32L1183.56 53.44ZM1122.91 116.92C1117.67 108.79 1110.37 102.24 1101.22 97.43C1090.57 91.81 1080.03 89.96 1074.33 89.34V53L1124.33 96.18V119.31C1123.85 118.52 1123.42 117.69 1122.92 116.92M1074.24 41.48C1077.07 23.03 1093.04 8.87 1112.26 8.87H1124.32V84.73L1074.23 41.49L1074.24 41.48ZM1133 8.86H1175.12C1197.19 9.01 1215.1 26.98 1215.1 49.09C1215.1 65.04 1205.74 78.85 1192.22 85.36V44.07C1192.22 42.39 1191.24 40.85 1189.72 40.14C1188.18 39.43 1186.37 39.68 1185.08 40.76L1133 85V8.86ZM1223.77 49.09C1223.77 32.43 1215.39 17.68 1202.64 8.86H1205.68C1226.87 8.86 1244.16 26.12 1244.16 47.34V110.4C1235.32 97.69 1220.64 89.35 1204 89.35H1202.52C1215.35 80.53 1223.78 65.76 1223.78 49.08M1175.12 0.190002H1112.26C1086.26 0.190002 1065.11 21.34 1065.11 47.34V196.87C1065.11 222.87 1086.26 244.02 1112.26 244.02H1199.85C1201.16 244.14 1202.49 244.19 1203.82 244.19C1205.82 244.19 1207.75 244.07 1209.69 243.84C1233.8 241.8 1252.83 221.52 1252.83 196.87V140.92C1252.85 140.05 1252.89 139.13 1252.89 138.26C1252.89 137.39 1252.85 136.47 1252.83 135.6V47.34C1252.83 21.34 1231.68 0.190002 1205.68 0.190002H1175.13H1175.12Z" fill="white"/>
</mask>
<g mask="url(#mask0_6_1606)">
<path d="M1252.89 0.190002H1065.11V244.19H1252.89V0.190002Z" fill="white"/>
</g>
<path d="M944.99 70.77C964.97 70.77 982.43 83.87 988.17 102.65H901.8C907.55 83.87 925.01 70.77 944.99 70.77ZM873.25 115.94C873.25 155.57 905.36 187.68 944.99 187.68C972.49 187.68 997.51 172 1009.54 147.27L1011.87 142.49H981.58L980.59 143.77C972 154.74 958.95 161.11 945 161.11C925.02 161.11 907.56 148.02 901.81 129.23H1015.56L1015.97 126.38C1016.48 122.92 1016.73 119.44 1016.73 115.94C1016.73 76.31 984.62 44.2 945 44.2C905.38 44.2 873.26 76.31 873.26 115.94" fill="white"/>
<path d="M728.99 115.94C728.99 155.57 761.1 187.68 800.73 187.68C834.15 187.68 863.2 164.56 870.65 132.02L871.29 129.22H843.92L843.59 130.23C837.46 148.65 820.19 161.1 800.73 161.1C775.77 161.1 755.56 140.9 755.56 115.94C755.56 90.98 775.77 70.78 800.73 70.78C820.18 70.78 837.45 83.23 843.59 101.65L843.92 102.66H871.29L870.65 99.86C863.2 67.33 834.15 44.2 800.73 44.2C761.1 44.2 728.99 76.31 728.99 115.94Z" fill="white"/>
<path d="M491.48 115.94C491.48 90.98 511.69 70.78 536.65 70.78C561.61 70.78 581.81 90.98 581.81 115.94C581.81 140.9 561.61 161.1 536.65 161.1C511.69 161.1 491.48 140.9 491.48 115.94ZM464.92 115.94C464.92 155.57 497.02 187.68 536.65 187.68C551.55 187.68 566 183.14 578.13 174.48L581.81 171.84V185.6H608.38V46.33H581.81V60.19C569.09 49.87 553.22 44.19 536.65 44.19C497.02 44.19 464.92 76.3 464.92 115.93" fill="white"/>
<path d="M26.57 115.94C26.57 90.98 46.77 70.78 71.73 70.78C96.69 70.78 116.89 90.98 116.89 115.94C116.89 140.9 96.69 161.1 71.73 161.1C46.77 161.1 26.57 140.9 26.57 115.94ZM0 0V185.6H26.57V171.69C39.29 182.01 55.16 187.68 71.73 187.68C111.36 187.68 143.47 155.57 143.47 115.94C143.47 76.31 111.36 44.2 71.73 44.2C56.81 44.2 42.43 48.8 30.24 57.41L26.57 60V0H0Z" fill="white"/>
<path d="M171.32 46.33H145.16V185.6H171.32V46.33Z" fill="white"/>
<path d="M653.73 46.25C628.58 53.08 610.89 76.11 610.89 102.19V185.59H637.86V102.19C637.86 85.2 651.88 71.17 668.89 71.17C685.9 71.17 699.92 85.19 699.92 102.19V185.59H726.89V102.19C726.89 76.11 709.21 53.08 684.05 46.25C679.1 44.9 674.02 44.2 668.89 44.2C663.76 44.2 658.67 44.91 653.73 46.25Z" fill="white"/>
<path d="M200.25 115.94C200.25 90.98 220.46 70.78 245.42 70.78C270.38 70.78 290.59 90.98 290.59 115.94C290.59 140.9 270.38 161.1 245.42 161.1C220.46 161.1 200.25 140.9 200.25 115.94ZM173.69 115.94C173.69 155.57 205.8 187.68 245.42 187.68C285.04 187.68 317.15 155.57 317.15 115.94C317.15 76.31 285.05 44.2 245.42 44.2C205.79 44.2 173.69 76.31 173.69 115.94Z" fill="white"/>
<path d="M345.93 115.94C345.93 90.98 366.14 70.78 391.1 70.78C416.06 70.78 436.26 90.98 436.26 115.94C436.26 140.9 416.05 161.1 391.1 161.1C366.15 161.1 345.93 140.9 345.93 115.94ZM319.36 115.94C319.36 139.36 330.57 160.14 347.92 173.23C344.42 177.43 341.91 182.47 340.78 188H340.65L340.31 190.95V191.07L340.29 191.13V191.25L340.28 191.31V191.34V191.38V191.44L340.26 191.56V191.62L340.22 192.03V192.15L340.21 192.19V192.32L340.17 192.8V192.86V192.92V192.98V193.04V193.1V193.16V193.22L340.14 193.88V193.94V194.78V195.64V195.68L340.17 196.33V196.51V196.57V196.63V196.69V196.75L340.21 197.22V197.28V197.34V197.4L340.22 197.46V197.52L340.26 197.94V198L340.28 198.12V198.18V198.23V198.31V198.37V198.43V198.49L340.3 198.61L340.64 201.56H340.77C343.91 216.87 357.54 228.46 373.73 228.46H422.45C426.3 228.46 429.54 231.7 429.54 235.55C429.54 236.34 429.4 237.12 429.14 237.86L427.56 242.3H455.55L455.9 239.35C456.03 238.09 456.11 236.82 456.11 235.54C456.11 217.02 440.97 201.88 422.45 201.88H373.73C370.73 201.88 368.09 199.91 367.08 197.21L367.05 197.11V197.07L367.02 197.03V196.99L366.99 196.96V196.92L366.98 196.89V196.87L366.97 196.85V196.81L366.94 196.77V196.73L366.93 196.69L366.92 196.65V196.62L366.9 196.58V196.54L366.88 196.5V196.46L366.87 196.42V196.38L366.85 196.34V196.31V196.27L366.84 196.23V196.2L366.82 196.16V196.09L366.81 196.05V196.01L366.8 195.97V195.94V195.9L366.79 195.86V195.79V195.75V195.71L366.78 195.68V195.64V195.61V195.53L366.77 195.49V195.43V195.42V195.35V195.31V195.27V195.23V195.12V195.08V195.01V194.97V194.89V194.78V194.74V194.59V194.55V194.52V194.36V194.33V194.25V194.21V194.15V194.03V194V193.96V193.92V193.88L366.78 193.84V193.8V193.72L366.79 193.68V193.64V193.6V193.56V193.53V193.49L366.8 193.45V193.42H366.81V193.35L366.83 193.31V193.28V193.26V193.2L366.85 193.16V193.12L366.86 193.08V193.04V193L366.88 192.96V192.93L366.89 192.89V192.86L366.91 192.82V192.78L366.93 192.75V192.72L366.94 192.71V192.68L366.95 192.64V192.61L366.98 192.57L366.99 192.53V192.5L367 192.46V192.43L367.03 192.39V192.36L367.06 192.32L367.09 192.23C368.1 189.52 370.74 187.56 373.74 187.56H391.1C430.72 187.56 462.83 155.45 462.83 115.82C462.83 113.24 462.7 110.69 462.43 108.18V46.22H436.26V60.09C423.93 50.09 408.22 44.08 391.1 44.08C351.47 44.08 319.36 76.19 319.36 115.82" fill="white"/>
<path d="M481.49 229.46V243.95H478.8V229.46H481.49ZM479.27 243.95V241.61H487.9V243.95H479.27Z" fill="white"/>
<path d="M495.88 226.4C495.88 227.36 495.78 228.18 495.58 228.88C495.37 229.57 495.02 230.25 494.52 230.91H492.24C493.33 229.59 493.88 228.34 493.88 227.16H492.29V224.09H495.88V226.39V226.4Z" fill="white"/>
<path d="M504.57 229.46V243.95H501.88V229.46H504.57Z" fill="white"/>
<path d="M512.71 243.95H510.07V229.46H512.73L520.71 240.86H519.94V229.46H522.58V243.95H519.94L511.94 232.57H512.71V243.95Z" fill="white"/>
<path d="M530.73 243.95H528.09V229.46H530.75L538.73 240.86H537.96V229.46H540.6V243.95H537.96L529.96 232.57H530.73V243.95Z" fill="white"/>
<path d="M560.09 236.69C560.09 238.16 559.77 239.46 559.14 240.59C558.51 241.71 557.63 242.59 556.51 243.23C555.39 243.87 554.1 244.19 552.63 244.19C551.16 244.19 549.88 243.87 548.76 243.23C547.64 242.59 546.77 241.72 546.15 240.59C545.52 239.47 545.22 238.18 545.22 236.71C545.22 235.24 545.53 233.93 546.15 232.8C546.79 231.67 547.66 230.79 548.77 230.16C549.89 229.52 551.18 229.2 552.65 229.2C554.12 229.2 555.41 229.52 556.52 230.16C557.64 230.79 558.51 231.67 559.14 232.79C559.77 233.91 560.09 235.22 560.09 236.69ZM557.27 236.69C557.27 235.67 557.08 234.78 556.71 234.02C556.33 233.27 555.8 232.68 555.1 232.27C554.42 231.85 553.59 231.64 552.65 231.64C551.71 231.64 550.89 231.85 550.2 232.27C549.51 232.68 548.97 233.27 548.59 234.02C548.22 234.78 548.03 235.67 548.03 236.69C548.03 237.71 548.22 238.61 548.59 239.38C548.96 240.14 549.5 240.72 550.2 241.13C550.9 241.54 551.71 241.75 552.65 241.75C553.59 241.75 554.42 241.54 555.1 241.12C555.79 240.7 556.32 240.12 556.71 239.36C557.08 238.6 557.27 237.71 557.27 236.69Z" fill="white"/>
<path d="M568.18 243.95L562.39 229.46H565.25L568.61 237.8C568.77 238.23 568.94 238.67 569.09 239.13C569.24 239.59 569.4 240.12 569.56 240.69C569.75 240.06 569.92 239.51 570.09 239.05C570.27 238.59 570.42 238.17 570.55 237.8L573.87 229.46H576.66L570.95 243.95H568.17H568.18Z" fill="white"/>
<path d="M579.56 243.95H576.79L582.33 229.46H585.09L590.63 243.95H587.79L586.55 240.6H580.82L579.56 243.95ZM583.36 233.78L581.6 238.46H585.78L584.01 233.78C583.96 233.58 583.89 233.38 583.82 233.19C583.75 233 583.71 232.83 583.7 232.67C583.67 232.8 583.62 232.98 583.56 233.18C583.49 233.39 583.43 233.59 583.36 233.78Z" fill="white"/>
<path d="M591.95 231.8V229.46H603.64V231.8H591.95ZM599.14 230.67V243.95H596.45V230.67H599.14Z" fill="white"/>
<path d="M610.48 229.46V243.95H607.8V229.46H610.48Z" fill="white"/>
<path d="M629.97 236.69C629.97 238.16 629.65 239.46 629.02 240.59C628.39 241.71 627.51 242.59 626.39 243.23C625.27 243.87 623.98 244.19 622.51 244.19C621.04 244.19 619.76 243.87 618.64 243.23C617.52 242.59 616.65 241.72 616.03 240.59C615.4 239.47 615.1 238.18 615.1 236.71C615.1 235.24 615.41 233.93 616.03 232.8C616.67 231.67 617.54 230.79 618.65 230.16C619.77 229.52 621.06 229.2 622.53 229.2C624 229.2 625.29 229.52 626.4 230.16C627.52 230.79 628.39 231.67 629.02 232.79C629.65 233.91 629.97 235.22 629.97 236.69ZM627.16 236.69C627.16 235.67 626.97 234.78 626.6 234.02C626.22 233.27 625.69 232.68 624.99 232.27C624.31 231.85 623.48 231.64 622.54 231.64C621.6 231.64 620.78 231.85 620.09 232.27C619.4 232.68 618.86 233.27 618.48 234.02C618.11 234.78 617.92 235.67 617.92 236.69C617.92 237.71 618.11 238.61 618.48 239.38C618.85 240.14 619.39 240.72 620.09 241.13C620.79 241.54 621.6 241.75 622.54 241.75C623.48 241.75 624.31 241.54 624.99 241.12C625.68 240.7 626.21 240.12 626.6 239.36C626.97 238.6 627.16 237.71 627.16 236.69Z" fill="white"/>
<path d="M637.23 243.95H634.59V229.46H637.25L645.23 240.86H644.46V229.46H647.1V243.95H644.46L636.46 232.57H637.23V243.95Z" fill="white"/>
<path d="M663.06 229.46V243.95H660.38V229.46H663.06ZM666.45 238.96H662.42V236.7H665.88C666.8 236.7 667.51 236.48 667.99 236.04C668.47 235.6 668.72 234.98 668.72 234.18C668.72 233.38 668.48 232.78 667.99 232.37C667.51 231.94 666.82 231.73 665.92 231.73H662.16V229.47H666.45C667.48 229.47 668.38 229.68 669.13 230.07C669.89 230.47 670.48 231.02 670.9 231.72C671.32 232.42 671.53 233.26 671.53 234.2C671.53 235.14 671.32 235.95 670.9 236.67C670.48 237.38 669.89 237.95 669.13 238.35C668.38 238.76 667.48 238.95 666.45 238.95V238.96Z" fill="white"/>
<path d="M689.89 236.69C689.89 238.16 689.57 239.46 688.94 240.59C688.31 241.71 687.43 242.59 686.31 243.23C685.19 243.87 683.9 244.19 682.43 244.19C680.96 244.19 679.68 243.87 678.56 243.23C677.44 242.59 676.57 241.72 675.95 240.59C675.32 239.47 675.02 238.18 675.02 236.71C675.02 235.24 675.33 233.93 675.95 232.8C676.59 231.67 677.46 230.79 678.57 230.16C679.69 229.52 680.98 229.2 682.45 229.2C683.92 229.2 685.21 229.52 686.32 230.16C687.44 230.79 688.31 231.67 688.94 232.79C689.57 233.91 689.89 235.22 689.89 236.69ZM687.07 236.69C687.07 235.67 686.88 234.78 686.51 234.02C686.13 233.27 685.6 232.68 684.9 232.27C684.22 231.85 683.39 231.64 682.45 231.64C681.51 231.64 680.69 231.85 680 232.27C679.31 232.68 678.77 233.27 678.39 234.02C678.02 234.78 677.83 235.67 677.83 236.69C677.83 237.71 678.02 238.61 678.39 239.38C678.76 240.14 679.3 240.72 680 241.13C680.7 241.54 681.51 241.75 682.45 241.75C683.39 241.75 684.22 241.54 684.9 241.12C685.59 240.7 686.12 240.12 686.51 239.36C686.88 238.6 687.07 237.71 687.07 236.69Z" fill="white"/>
<path d="M694.4 238.66V229.46H697.09V238.5C697.09 239.54 697.38 240.35 697.97 240.9C698.55 241.46 699.39 241.74 700.47 241.74C701.55 241.74 702.4 241.47 703 240.9C703.58 240.33 703.88 239.54 703.88 238.5V229.46H706.56V238.66C706.56 239.78 706.32 240.76 705.82 241.58C705.31 242.4 704.61 243.04 703.71 243.49C702.8 243.95 701.72 244.18 700.47 244.18C699.22 244.18 698.17 243.95 697.26 243.5C696.35 243.06 695.64 242.41 695.15 241.59C694.66 240.75 694.4 239.78 694.4 238.65V238.66Z" fill="white"/>
<path d="M714.64 243.95H711.96V229.46H717.82C719.56 229.46 720.91 229.87 721.88 230.66C722.86 231.45 723.34 232.56 723.34 233.98C723.34 234.95 723.11 235.77 722.64 236.45C722.18 237.13 721.49 237.65 720.57 238L723.49 243.95H720.54L717.93 238.54H714.63V243.95H714.64ZM714.64 231.73V236.3H717.82C718.67 236.3 719.34 236.1 719.81 235.68C720.29 235.27 720.52 234.71 720.52 233.98C720.52 233.25 720.29 232.7 719.81 232.31C719.34 231.93 718.67 231.73 717.82 231.73H714.64Z" fill="white"/>
<path d="M738.59 229.46V243.95H735.91V229.46H738.59ZM736.36 243.95V241.61H744.99V243.95H736.36Z" fill="white"/>
<path d="M758.83 243.95H749.3V229.46H758.83V231.8H751.04L751.99 230.99V235.53H758.12V237.77H751.99V242.42L751.04 241.61H758.83V243.95Z" fill="white"/>
<path d="M774.29 229.46V243.95H771.61V229.46H774.29ZM777.7 237.78H773.48V235.65H777.55C778.3 235.65 778.86 235.47 779.25 235.12C779.64 234.77 779.84 234.27 779.84 233.62C779.84 232.97 779.63 232.52 779.22 232.19C778.81 231.86 778.23 231.7 777.46 231.7H773.38V229.46H777.69C779.22 229.46 780.41 229.81 781.27 230.52C782.13 231.23 782.58 232.18 782.58 233.39C782.58 234.27 782.36 235 781.91 235.59C781.46 236.17 780.8 236.6 779.91 236.87V236.6C780.87 236.81 781.58 237.2 782.08 237.79C782.58 238.38 782.82 239.12 782.82 240.04C782.82 240.86 782.62 241.57 782.23 242.15C781.85 242.74 781.27 243.18 780.53 243.5C779.78 243.81 778.88 243.96 777.83 243.96H773.4V241.72H777.71C778.48 241.72 779.06 241.56 779.47 241.2C779.88 240.86 780.09 240.36 780.09 239.72C780.09 239.12 779.88 238.64 779.46 238.3C779.05 237.97 778.47 237.79 777.71 237.79L777.7 237.78Z" fill="white"/>
<path d="M790.07 229.46V243.95H787.39V229.46H790.07Z" fill="white"/>
<path d="M805.11 243.95H795.58V229.46H805.11V231.8H797.32L798.27 230.99V235.53H804.4V237.77H798.27V242.42L797.32 241.61H805.11V243.95Z" fill="white"/>
<path d="M812.75 243.95H810.11V229.46H812.77L820.75 240.86H819.98V229.46H822.62V243.95H819.98L811.98 232.57H812.75V243.95Z" fill="white"/>
<path d="M827.72 239.73V237.59H834.49V239.73H827.72Z" fill="white"/>
<path d="M849.1 243.95H839.57V229.46H849.1V231.8H841.31L842.26 230.99V235.53H848.39V237.77H842.26V242.42L841.31 241.61H849.1V243.95ZM843.1 228.44H841.08L842.97 225.36H845.6L847.51 228.44H845.5L844.3 226.47L843.1 228.44Z" fill="white"/>
<path d="M852.75 231.8V229.46H864.44V231.8H852.75ZM859.94 230.67V243.95H857.25V230.67H859.94Z" fill="white"/>
<path d="M871.28 243.95H868.6V229.46H874.46C876.2 229.46 877.55 229.87 878.52 230.66C879.5 231.45 879.98 232.56 879.98 233.98C879.98 234.95 879.75 235.77 879.28 236.45C878.82 237.13 878.13 237.65 877.21 238L880.13 243.95H877.18L874.57 238.54H871.27V243.95H871.28ZM871.28 231.73V236.3H874.46C875.31 236.3 875.98 236.1 876.45 235.68C876.93 235.27 877.16 234.71 877.16 233.98C877.16 233.25 876.93 232.7 876.45 232.31C875.98 231.93 875.31 231.73 874.46 231.73H871.28Z" fill="white"/>
<path d="M894.3 243.95H884.77V229.46H894.3V231.8H886.51L887.46 230.99V235.53H893.59V237.77H887.46V242.42L886.51 241.61H894.3V243.95Z" fill="white"/>
<path d="M908.36 243.95H905.59L911.13 229.46H913.89L919.43 243.95H916.59L915.35 240.6H909.62L908.36 243.95ZM912.17 233.78L910.41 238.46H914.59L912.82 233.78C912.77 233.58 912.7 233.38 912.63 233.19C912.56 233 912.52 232.83 912.51 232.67C912.48 232.8 912.43 232.98 912.37 233.18C912.3 233.39 912.24 233.59 912.17 233.78Z" fill="white"/>
<path d="M926.12 243.95H923.48V229.46H926.14L934.12 240.86H933.35V229.46H935.99V243.95H933.35L925.35 232.57H926.12V243.95Z" fill="white"/>
<path d="M944.18 229.46V243.95H941.5V229.46H944.18Z" fill="white"/>
<path d="M952.29 243.95H949.68V229.46H952.29L957.25 240.99L962.2 229.46H964.85V243.95H962.24V237.66C962.24 237.17 962.25 236.75 962.26 236.4C962.27 236.06 962.29 235.75 962.3 235.49C962.31 235.23 962.34 234.96 962.39 234.7L958.48 243.96H956.01L952.12 234.73C952.2 235.17 952.24 235.72 952.26 236.4C952.28 237.07 952.29 237.86 952.29 238.77V243.96V243.95Z" fill="white"/>
<path d="M971.65 243.95H968.88L974.42 229.46H977.18L982.72 243.95H979.88L978.64 240.6H972.91L971.65 243.95ZM975.46 233.78L973.7 238.46H977.88L976.11 233.78C976.06 233.58 975.99 233.38 975.92 233.19C975.85 233 975.81 232.83 975.8 232.67C975.77 232.8 975.72 232.98 975.66 233.18C975.59 233.39 975.53 233.59 975.46 233.78Z" fill="white"/>
<path d="M989.44 229.46V243.95H986.76V229.46H989.44ZM987.22 243.95V241.61H995.85V243.95H987.22Z" fill="white"/>
</g>
<defs>
<clipPath id="clip0_6_1606">
<rect width="1252.89" height="244.19" fill="white"/>
</clipPath>
</defs>
</svg>
