<svg width="300" height="321" viewBox="0 0 300 321" fill="none" xmlns="http://www.w3.org/2000/svg">
<path d="M298.656 49.7895C298.159 46.5041 297.466 43.2513 296.582 40.0485C296.174 38.5185 295.732 37.0225 295.222 35.5095C294.882 34.4555 294.593 32.9765 293.522 32.4495C295.046 32.3011 296.494 31.7102 297.687 30.7495C298.639 29.8995 299.166 28.4885 297.33 28.3865C298.265 27.7745 299.744 26.5335 299.183 25.2075C298.622 23.8815 297.483 24.4935 296.65 24.9185C298.146 22.4195 295.868 21.8415 293.879 22.7255C292.944 23.1335 292.026 23.5925 291.159 24.0175C291.754 21.5015 289.731 20.8555 288.048 22.1645C286.756 23.3214 285.737 24.7517 285.067 26.3513C284.396 27.951 284.091 29.6799 284.172 31.4125C283.656 31.7247 283.162 32.0712 282.693 32.4495C273.921 40.6435 270.793 51.9145 270.3 63.9505C264.724 49.9595 249.356 37.8045 236.13 43.5505C234.634 44.3155 233.274 45.8625 231.506 46.0495C228.939 46.3045 227.086 43.3635 225.964 41.4765C225.147 40.1057 224.425 38.6799 223.805 37.2095C224.636 36.2897 225.267 35.2072 225.658 34.0305C227.035 29.6955 225.658 24.7825 224.774 20.5665C223.737 14.8035 221.816 8.8875 217.379 4.8755C214.981 2.71731 212.073 1.20552 208.929 0.482751C205.785 -0.240017 202.509 -0.149935 199.41 0.744501C193.692 2.34243 188.635 5.72566 184.977 10.4005C180.914 15.8235 180.081 22.3005 180.659 28.8965C181.478 37.1266 183.253 45.2334 185.946 53.0535C189.346 50.8265 192.746 48.5655 196.146 46.2535C196.401 46.5425 196.622 46.8145 196.894 47.0695C198.078 48.2002 199.547 48.9876 201.144 49.3475C190.944 52.2715 182.155 62.5735 176.749 70.5125C175.593 67.2485 174.352 64.0695 172.941 60.9755C174.641 57.2185 176.341 53.4275 177.922 49.6535C176.063 53.0535 174.216 56.4535 172.38 59.8535C169.496 53.4208 165.243 47.6947 159.919 43.0745C157.941 41.4393 155.838 39.9615 153.629 38.6545C152.667 37.964 151.573 37.4781 150.416 37.2265C149.413 37.0905 149.821 37.4305 149.328 36.6825C149.076 36.1863 148.855 35.6754 148.665 35.1525C148.091 34.0498 147.304 33.0719 146.35 32.2753C145.396 31.4786 144.293 30.8792 143.106 30.5115C142.205 30.2735 140.726 29.8825 139.961 30.6475C139.196 31.4125 139.757 32.7725 140.437 33.4525C139.264 33.5885 138.006 33.6055 136.85 33.8435C134.691 34.3025 134.181 35.9515 136.255 37.1415C135.15 37.2435 133.824 37.5665 134.402 38.9775C134.98 40.3885 136.493 40.4225 137.564 40.4395C135.864 41.5955 137.564 42.5985 138.873 42.7005C139.587 42.7005 142.426 42.7005 142.834 41.8845C142.306 43.3046 141.986 44.7932 141.882 46.3045C141.593 48.1575 141.287 50.0105 141.049 51.8635C140.59 55.5394 140.471 59.2497 140.692 62.9475C140.939 70.0717 142.334 77.1094 144.823 83.7895C146.833 88.9847 149.921 93.6951 153.884 97.6105C151.538 102.778 149.271 107.952 147.084 113.131C149.69 108.303 152.269 103.424 154.819 98.4945L155.312 98.9365C160.901 103.585 167.95 106.113 175.219 106.076C171.02 110.564 167.042 115.324 163.319 120.067C168.299 115.657 173.032 110.975 177.497 106.042C183.424 105.886 189.271 104.623 194.735 102.319C195.166 102.19 195.583 102.013 195.976 101.792L196.129 101.673V101.996L197.132 109.731C197.421 112.026 197.608 114.372 198.101 116.633C198.269 117.369 198.508 118.086 198.815 118.775C198.662 119.608 198.492 120.475 198.373 121.308C190.303 125.842 182.285 130.517 174.318 135.333C182.251 131.446 190.139 127.411 197.982 123.229C197.2 128.193 196.622 133.191 196.282 138.172C195.502 147.996 195.736 157.874 196.979 167.65C186.983 163.689 177.412 158.623 167.79 153.812C153.17 146.695 138.476 139.708 123.709 132.851C116.195 129.451 108.613 126.051 100.878 123.008C98.8059 122.069 96.6557 121.312 94.4517 120.747C94.4162 116.838 93.8907 112.949 92.8877 109.17C92.7563 107.751 92.2181 106.399 91.3377 105.277C90.4572 104.155 89.2718 103.311 87.9237 102.846C67.9487 96.1995 63.4267 95.8255 54.6377 98.4435C54.1675 97.9919 53.5774 97.6851 52.9377 97.5595C50.9147 97.2365 48.3137 98.4605 46.3417 98.8515C40.9187 99.9055 35.0197 101.384 28.3387 102.999C25.6867 103.611 16.4387 104.869 16.0307 107.878C15.4013 107.979 14.7814 108.133 14.1777 108.337C7.37775 110.037 2.82175 110.394 0.849746 114.015C-4.67525 124.215 18.4787 126.255 20.3487 132.256C21.1757 135.948 21.7999 139.682 22.2187 143.442C23.7487 152.044 36.8557 224.413 37.3147 226.555C37.6037 227.983 37.7057 230.567 38.7597 231.655C39.1989 232.077 39.7746 232.328 40.3826 232.362C40.9907 232.397 41.5909 232.212 42.0747 231.842C47.4467 233.984 52.8697 236.075 58.2757 238.166C58.0377 238.166 53.5327 240.002 53.3627 240.07C50.9657 241.022 47.5317 241.923 46.2907 244.388C45.0497 246.853 45.3727 249.93 45.1857 252.429C44.9647 255.591 44.3187 264.006 44.3357 265.468C43.721 266.007 43.233 266.675 42.9068 267.425C42.5805 268.174 42.4241 268.986 42.4487 269.803C36.4137 271.792 38.7597 282.094 45.4917 281.057C46.8576 280.833 48.133 280.229 49.1728 279.316C50.2127 278.402 50.9752 277.215 51.3737 275.889C51.6924 274.647 51.57 273.332 51.0275 272.169C50.4849 271.007 49.5559 270.069 48.3987 269.514C48.6136 269.075 48.7366 268.597 48.7599 268.109C48.7833 267.621 48.7067 267.133 48.5347 266.676C48.7639 266.401 48.9261 266.077 49.0087 265.728C49.0913 265.38 49.092 265.018 49.0107 264.669L152.439 305.605C151.942 306.565 151.708 307.638 151.759 308.716C145.639 310.416 147.713 321.245 154.785 320.038C156.162 319.799 157.44 319.169 158.468 318.222C159.496 317.276 160.23 316.053 160.582 314.7C160.871 313.456 160.719 312.15 160.151 311.006C159.584 309.862 158.636 308.95 157.471 308.427C157.616 308.171 157.741 307.904 157.845 307.628C160.436 308.585 163.196 309.001 165.954 308.852C171.343 308.427 175.746 305.163 180.115 302.375C184.943 299.213 190.111 296.629 194.905 293.28C196.758 291.988 199.716 290.016 199.376 287.415C198.832 283.029 193.001 280.31 189.584 278.542L168.776 268.256C176.494 263.53 184.212 258.782 191.93 254.01C195.619 251.681 199.665 249.471 203.269 246.853C205.139 245.493 204.85 244.592 207.536 225.671C219.317 272.574 217.005 272.421 218.569 273.679C219.245 273.988 219.987 274.122 220.728 274.07C217.141 275.209 213.078 275.923 210.001 277.997C208.573 278.932 207.553 280.785 209.168 282.111C210.796 283.07 212.669 283.531 214.557 283.437C218.28 283.743 230.775 283.726 231.761 280.139C232.027 278.235 231.835 276.294 231.2 274.478C232.271 274.478 232.441 274.835 234.498 263.156C235.348 258.413 236.096 253.67 236.725 248.893C237.211 246.61 237.394 244.272 237.269 241.94C235.892 231.315 234.651 220.69 232.458 210.201C228.123 189.529 227.103 168.381 226.389 147.301C228.361 168.177 229.432 189.274 233.971 209.81C237.201 224.43 238.272 239.509 239.87 254.384C240.652 261.609 241.315 268.851 242.437 276.025L244.732 276.723L245.514 276.841C241.672 278.286 237.014 279.102 233.614 281.397C232.22 282.332 231.234 284.202 232.849 285.494C236.827 287.755 246.449 286.769 250.767 285.868C252.467 285.46 254.898 285.171 255.408 283.165C255.632 281.247 255.405 279.303 254.745 277.487C255.342 277.194 255.805 276.683 256.037 276.059C257.106 272.919 257.913 269.695 258.451 266.42C260.967 252.395 263.551 238.319 265.71 224.243C267.223 214.383 268.668 204.506 270.147 194.646C272.527 178.87 274.958 162.924 274.363 146.91C274.106 140.176 273.379 133.467 272.187 126.833C271.252 121.444 269.399 113.556 266.492 108.949C267.069 107.429 267.31 105.801 267.198 104.178C267.087 102.555 266.625 100.976 265.846 99.5485C266.95 99.9741 268.087 100.31 269.246 100.551C276.335 101.894 282.693 97.6105 287.521 92.7825C292.406 87.8674 295.896 81.7423 297.636 75.0345C299.607 66.7648 299.953 58.1912 298.656 49.7895ZM287.198 24.2895C287.623 23.8135 290.275 20.8895 290.394 22.9975C290.436 23.5323 290.402 24.0704 290.292 24.5955C290.292 24.8335 290.292 25.2075 290.513 25.2075H290.7C291.968 24.5181 293.273 23.8995 294.61 23.3545C294.81 23.2256 295.043 23.1571 295.281 23.1571C295.519 23.1571 295.752 23.2256 295.953 23.3545C296.093 23.4989 296.181 23.6862 296.203 23.8865C296.225 24.0868 296.178 24.2885 296.072 24.4595C295.867 24.8058 295.581 25.0974 295.239 25.3095C294.527 25.7577 293.904 26.3341 293.403 27.0095C293.385 27.0498 293.377 27.0932 293.377 27.137C293.377 27.1808 293.385 27.2242 293.403 27.2645C293.415 27.3305 293.451 27.3896 293.505 27.4304C293.558 27.4712 293.625 27.4908 293.692 27.4855C293.83 27.4796 293.965 27.4387 294.083 27.3665C295.108 26.6249 296.214 26.0031 297.381 25.5135C297.874 25.3775 298.554 25.5135 298.401 26.1935C298.359 26.4006 298.266 26.5937 298.129 26.7545C297.194 27.7386 296.144 28.6062 295.001 29.3385C294.865 29.4745 294.695 29.6445 294.763 29.8315C295.393 29.8181 296.018 29.7092 296.616 29.5085C296.888 29.4065 297.687 28.9985 297.806 29.5085C297.925 30.0185 296.82 30.8345 296.276 31.2085C293.471 33.0615 290.377 31.9735 287.334 31.4975C286.531 31.3192 285.705 31.2675 284.886 31.3445C284.697 28.7801 285.528 26.2447 287.198 24.2895ZM235.314 44.6895H235.603C234.411 47.4562 233.395 50.2951 232.56 53.1895C231.812 56.5895 232.203 60.1765 231.319 63.5425C229.024 72.2635 220.116 70.8525 216.699 65.2425C221.102 64.0695 223.788 60.2615 225.947 56.5385C227.783 53.3935 229.347 48.6165 232.645 46.3385C233.563 45.7095 234.447 45.1995 235.314 44.6895ZM190.4 33.4525C190.281 33.0105 190.213 32.5515 190.111 32.0755C191.131 31.5655 192.168 30.4605 191.811 29.3385C191.269 30.151 190.648 30.9083 189.958 31.5995C189.604 29.7093 189.564 27.7737 189.839 25.8705C190.128 24.1705 190.91 24.6635 192.44 24.7995L197.064 25.1395C199.461 25.2415 201.858 25.4625 204.255 25.7855C206.499 26.2589 208.489 27.5418 209.848 29.3895C213.058 33.063 215.048 37.643 215.543 42.4965C218.457 41.5324 221.133 39.9623 223.397 37.8895C224.226 39.9424 225.269 41.9025 226.508 43.7375C227.374 45.2216 228.792 46.3032 230.452 46.7465C230.999 46.8101 231.554 46.7158 232.05 46.4745C229.33 48.3275 228.038 52.0165 226.491 54.5155C224.536 57.7285 222.411 61.3155 219.096 63.2365C212.143 67.2655 206.669 62.4545 208.794 55.5355C209.1 54.4966 209.504 53.4891 210.001 52.5265C210.239 52.0505 210.494 51.5915 210.766 51.1495C211.003 50.7826 211.271 50.4358 211.565 50.1125C212.075 50.2485 212.823 50.2655 213.146 50.7415C213.393 51.3701 213.459 52.0557 213.336 52.72C213.213 53.3843 212.905 54.0006 212.449 54.4985C212.449 54.3285 214.914 53.6145 213.435 49.2795C213.163 48.2765 212.449 44.6555 211.276 44.9615C210.579 45.1315 210.545 46.2025 207.298 47.7835C202.011 50.2995 196.401 49.7895 190.4 33.4185V33.4525ZM211.072 49.7895C206.805 54.7535 204.816 65.5485 214.778 65.2425C212.721 67.0955 210.375 69.8835 207.383 69.6285C206.086 69.5058 204.876 68.9249 203.969 67.9902C203.063 67.0554 202.519 65.8281 202.436 64.5285C202.399 61.5884 203.157 58.6929 204.629 56.1475C204.952 55.5695 208.658 50.6055 209.729 49.5175C210.137 49.6535 210.613 49.7895 211.072 49.7895ZM207.672 48.6845C209.124 47.9674 210.424 46.9742 211.497 45.7605C212.127 47.0899 212.639 48.4723 213.027 49.8915C211.353 49.1595 209.549 48.7721 207.723 48.7525L207.672 48.6845ZM140.964 41.8845C140.199 42.0035 138.703 42.3435 137.989 41.8845C137.275 41.4255 137.547 41.1025 138.21 40.7965C138.873 40.4905 139.553 40.6775 139.91 40.2865C140.522 39.5045 139.383 39.4705 138.788 39.4195C138.193 39.3685 135.592 39.5215 135.235 38.6715C134.878 37.8215 137.088 37.9575 137.615 37.9405C138.142 37.9235 140.369 38.1445 140.573 37.3795C140.777 36.6145 138.312 36.5805 137.887 36.5125C137.462 36.4445 135.354 36.1725 136.187 35.1865C136.646 34.6595 138.329 34.7445 138.975 34.6425C139.621 34.5405 141.916 34.6425 142.256 33.9965C142.596 33.3505 140.896 32.6705 140.641 31.9735C140.267 30.9195 141.168 30.9025 141.984 30.9875C143.102 31.1145 144.179 31.4847 145.14 32.072C146.1 32.6594 146.92 33.4497 147.543 34.3875C148.054 35.0095 148.452 35.7175 148.716 36.4785C149.005 37.5835 148.291 37.6005 147.373 38.1785C145.316 39.5895 143.565 41.5785 141.015 41.9695L140.964 41.8845ZM154.326 96.3865C145.826 88.1245 142.511 74.9665 141.746 63.5425C141.567 59.9381 141.635 56.3256 141.95 52.7305C142.121 49.6129 142.577 46.5175 143.31 43.4825C143.459 42.9205 143.727 42.3973 144.097 41.9484C144.467 41.4996 144.929 41.1357 145.452 40.8815C146.605 39.847 147.943 39.0396 149.396 38.5015C151.963 38.1105 155.397 41.2215 157.267 42.6665C162.679 46.9638 167.069 52.4104 170.119 58.6125C170.629 59.5645 171.054 60.5675 171.496 61.5535C165.5 72.9775 159.794 84.6168 154.377 96.4715L154.326 96.3865ZM94.0778 122.209C97.5811 123.247 100.993 124.571 104.278 126.17C108.188 127.87 112.064 129.57 115.923 131.27C123.828 134.789 209.661 175.045 210.732 175.589C210.885 175.589 211.123 175.81 211.361 175.98L199.75 181.454C194.31 184.027 188.932 186.719 183.617 189.529C150.722 206.886 156.638 203.503 155.295 204.557C154.785 204.064 154.19 204.081 153.595 203.809C138.125 195.19 125.749 189.818 95.2507 175.147C95.5601 157.707 94.9245 140.262 93.3467 122.889C93.6452 122.73 93.897 122.496 94.0778 122.209ZM200.396 197.689C200.141 201.089 199.988 204.489 199.75 207.889C196.18 209.793 192.627 211.697 189.074 213.635L189.55 204.965C189.55 204.183 189.669 201.446 189.941 194.765L201.365 188.39C201.45 189.835 201.229 186.282 200.396 197.689ZM202.249 187.88C202.419 187.88 212.636 182.032 212.806 181.913C211.457 188.917 210.239 195.927 209.151 202.942L200.396 207.583C201.025 201.089 201.875 194.527 202.249 187.914V187.88ZM199.699 208.943C199.546 210.932 199.376 212.904 199.138 214.893C198.344 221.104 197.67 227.337 197.115 233.593C194.295 235.537 191.415 237.391 188.479 239.152C188.649 234.052 188.785 228.493 188.785 223.393C188.785 220.69 188.87 218.004 189.006 215.335L199.699 208.943ZM189.04 196.125C189.04 196.992 188.122 213.958 188.122 214.128L177.667 219.789C177.667 219.534 178.228 201.361 178.245 201.089C181.849 199.134 185.453 197.179 189.04 195.19V196.125ZM177.548 197.825V199.525C172.346 202.296 172.074 202.245 166.6 205.424C166.6 203.571 166.481 201.582 166.345 199.644L178.041 193.677C177.654 195.036 177.488 196.448 177.548 197.859V197.825ZM99.5857 183.188C99.5857 184.378 99.7557 185.568 99.8577 186.758C96.7807 185.33 89.4877 181.845 89.4877 181.845C89.2667 179.312 89.0117 176.745 88.6547 174.263C97.9537 178.53 94.6727 176.983 99.5857 179.244C99.4126 180.565 99.4126 181.902 99.5857 183.222V183.188ZM110.16 187.676C110.16 188.917 110.16 190.175 110.262 191.382L100.623 186.996C100.385 184.395 100.113 181.794 99.7387 179.193L110.041 184.089C109.991 185.298 110.031 186.508 110.16 187.71V187.676ZM151.283 203.469C152.099 203.894 154.445 204.676 154.853 205.509C154.937 206.124 154.937 206.748 154.853 207.362L155.125 210.235V212.088H154.7C153.725 211.729 152.782 211.291 151.878 210.779L144.483 207.294C144.381 205.271 144.126 201.973 143.905 199.678C143.973 199.746 149.43 202.585 151.283 203.503V203.469ZM155.567 233.389C154.482 233.074 153.451 232.598 152.507 231.978L145.163 228.289C144.942 221.812 144.959 215.352 144.687 208.858C144.857 208.943 154.717 213.652 154.887 213.703H155.176C155.176 216.049 155.176 218.429 155.346 220.809C155.346 224.974 155.482 229.139 155.567 233.389ZM146.421 255.693L153.493 259.093C154.105 259.399 155.193 260.113 155.992 260.47C156.018 260.906 156.018 261.344 155.992 261.779C156.082 265.814 156.19 269.843 156.315 273.866C152.915 272.557 149.685 271.282 146.353 270.007C146.591 265.111 146.574 260.368 146.421 255.608V255.693ZM146.421 254.112C146.064 241.192 145.469 237.112 145.146 229.751C155.346 234.46 154.768 234.375 155.533 234.477C155.652 242.501 155.873 250.967 156.043 258.991C155.771 258.787 148.019 254.741 146.472 254.027L146.421 254.112ZM136.493 251.12L145.078 255.234C145.299 260.164 145.622 265.077 146.115 270.024L136.612 266.318C136.867 261.099 136.646 256.016 136.544 251.035L136.493 251.12ZM93.2278 230.414L103.088 234.834C103.53 241.294 104.04 247.788 104.788 254.129H104.924C104.669 247.856 104.431 241.566 104.074 235.31L106.403 236.364L113.543 239.866V240.903C113.798 244.065 114.784 255.115 114.784 255.115C114.764 256.123 114.838 257.13 115.005 258.124C108.023 255.45 101.008 252.837 93.9587 250.287C93.9587 249.335 94.0948 243.317 93.2278 230.414ZM79.7977 199.083L90.4907 203.741C90.4907 206.682 90.6777 209.64 90.9327 212.564C91.4257 217.97 91.7997 223.393 92.1737 228.816L81.3787 223.716C81.1067 218.446 80.8007 213.142 80.4267 207.855V207.719C80.2907 204.846 80.0187 201.956 79.7977 199.083ZM67.6257 173.056L77.6727 177.646V178.292C77.7861 181.692 77.9787 185.03 78.2507 188.305C78.5057 191.348 78.7778 194.391 79.0498 197.417C79.0498 197.417 72.2497 194.187 69.0027 192.657C68.1187 181.981 69.0877 185.636 67.6257 173.056ZM66.4187 170.744C62.5767 168.942 58.7177 167.163 54.8417 165.406C54.5527 163.111 54.2297 160.833 53.8557 158.606L66.2487 164.097C66.1543 166.314 66.2112 168.535 66.4187 170.744ZM77.6047 173.277V176.133C77.6047 176.133 69.8358 172.393 67.2858 171.135C66.9968 168.806 66.6907 166.477 66.3167 164.165L77.6047 169.265C77.4998 170.602 77.5226 171.945 77.6727 173.277H77.6047ZM54.0937 165.151C49.8777 163.236 45.6447 161.349 41.3947 159.49C41.0717 157.195 40.7317 154.9 40.3747 152.69L40.7827 152.792C45.0667 154.679 49.2827 156.6 53.5667 158.555C53.5386 159.694 53.6183 160.832 53.8047 161.955C53.8651 163.027 53.9843 164.093 54.1617 165.151H54.0937ZM49.1467 164.386L54.2467 166.851C54.6037 170.047 55.0457 173.243 55.4367 176.439C55.8277 179.635 56.1507 183.426 56.4397 186.911C52.3087 185.058 48.1608 183.256 43.9958 181.471C43.6048 177.578 43.2477 173.668 42.7547 169.775C42.3637 166.766 41.9557 163.74 41.5477 160.731L49.1467 164.386ZM55.0627 167.259L66.5037 172.495V172.835C66.6851 176.235 66.9401 179.635 67.2687 183.035C67.5577 186.112 67.9147 189.172 68.2547 192.283C64.5487 190.527 60.7747 188.827 56.9327 187.183C56.3717 180.519 55.8957 173.889 55.1307 167.259H55.0627ZM88.7057 177.986C88.7057 179.193 88.8757 180.366 88.9607 181.573L78.4547 176.473C78.2847 174.093 78.0807 171.713 77.7577 169.333L88.5527 174.28C88.5102 175.52 88.5842 176.761 88.7737 177.986H88.7057ZM89.9977 193.133C90.2527 196.533 90.3547 199.644 90.4397 202.891C86.8357 201.191 83.2431 199.491 79.6617 197.791C78.5227 181.029 79.1517 187.948 78.5567 178.088L89.0117 182.712V183.035C89.4027 186.367 89.8107 189.733 90.0657 193.133H89.9977ZM134.198 203.877L143.684 208.433C143.684 211.442 143.684 214.468 143.939 217.477C144.12 220.968 144.284 224.47 144.432 227.983L134.895 223.393C134.606 216.882 134.572 210.439 134.198 203.877ZM135.048 248.604L124.44 243.81C124.219 237.792 123.913 231.757 123.369 225.705C123.148 223.444 123.012 221.166 122.859 218.905L134.419 224.43C134.419 224.617 134.589 239.169 135.048 248.689V248.604ZM134.504 223.189L122.876 217.749C122.519 211.153 122.366 204.523 121.924 197.944L133.433 203.503C133.552 206.308 133.739 209.062 133.926 211.85C134.164 215.641 134.419 219.415 134.504 223.189ZM122.604 224.294C122.774 230.635 122.978 236.993 123.352 243.317L114.699 239.441C114.308 233.27 113.951 227.099 113.271 220.945C113.033 218.633 112.846 216.321 112.676 214.009L122.4 218.65C122.349 220.486 122.519 222.339 122.519 224.311L122.604 224.294ZM113.543 238.931L109.361 237.078C107.508 236.279 105.842 235.378 104.108 234.613C103.785 229.071 103.394 223.529 102.833 217.97V217.868C102.51 214.927 102.289 211.986 102.102 209.045C105.411 210.575 108.72 212.122 112.03 213.686C112.285 216.984 112.455 220.282 112.591 223.614C112.744 228.731 113.101 233.848 113.509 238.948L113.543 238.931ZM103.071 234.103L93.1937 229.36C92.7687 223.427 92.2587 217.46 91.6297 211.578C91.3747 209.079 91.1877 206.478 91.0347 204.064L101.592 208.824C101.762 212.224 101.864 215.624 102.085 219.126C102.408 224.09 102.697 229.105 103.037 234.12L103.071 234.103ZM90.8987 202.874C90.4737 196.074 90.2527 189.444 89.6917 182.763C93.0917 184.282 96.4917 185.829 99.8917 187.404V188.084C100.249 191.484 100.606 194.884 100.878 198.284C101.15 201.684 101.286 204.71 101.422 207.94L90.8987 202.874ZM77.1627 197.944L79.2028 198.828C79.4408 201.684 79.6277 204.523 79.7127 207.328C79.8657 212.547 80.0867 217.783 80.3757 223.002L71.0087 218.582C70.7197 214.043 69.4447 197.57 69.1727 194.085C71.8077 195.462 74.4767 196.737 77.1627 197.944ZM92.2757 229.989C92.7347 236.789 93.1937 243.453 93.8057 250.168L82.5517 246.088C82.2457 239.152 81.9171 232.216 81.5657 225.28L92.2757 229.989ZM114.648 240.376L123.42 244.609C123.93 252.191 124.967 261.609 124.984 261.796L115.668 258.396C115.243 252.395 114.971 246.394 114.648 240.41V240.376ZM124.508 245.187L135.167 250.287C135.439 255.557 135.847 260.827 136.442 266.114L125.545 261.983C125.001 256.509 124.746 250.831 124.508 245.289V245.187ZM135.303 230.074C135.167 228.221 135.048 226.487 134.98 224.685L144.619 229.258V233.253C144.721 239.968 144.84 246.615 145.095 253.296C145.095 253.296 138.482 250.219 136.595 249.335C136.255 242.909 135.83 236.5 135.303 230.108V230.074ZM143.463 199.389L143.684 206.971L134.096 202.415C133.926 199.899 133.722 197.315 133.399 194.867C133.142 196.033 133.078 197.234 133.212 198.42V202.126L131.376 201.089C128.214 199.627 125.052 198.182 121.856 196.754C121.669 194.204 121.431 191.654 121.108 189.121C128.673 192.589 143.463 199.389 143.463 199.389ZM122.23 217.528L112.489 212.989C112.03 206.274 111.775 199.508 111.231 192.81L120.768 197.4C120.819 197.944 121.703 204.319 122.23 217.528ZM120.717 196.227L111.197 191.926C110.976 189.342 110.67 186.826 110.313 184.174L120.717 188.951C120.53 191.373 120.53 193.806 120.717 196.227ZM111.01 203.503C111.333 206.597 111.622 209.64 111.843 212.751L101.915 208.161C101.49 201.361 101.218 194.561 100.623 187.761C103.841 189.235 107.043 190.742 110.228 192.283C110.262 192.423 110.262 192.569 110.228 192.708C110.398 196.346 110.619 199.933 111.01 203.503ZM80.3247 124.453C62.5314 130.732 44.9194 137.254 27.4887 144.02C26.9617 141.096 26.4347 138.138 25.8907 135.231C25.1257 126.442 21.2837 126.119 15.6907 123.246C13.9907 122.532 4.81074 118.418 5.38874 116.446C5.77974 115.273 8.09175 114.746 9.09475 114.474C12.3417 113.539 15.5547 113.437 17.5947 112.638C19.9917 113.862 38.4877 109.034 41.0717 108.303C56.5587 103.373 56.2357 101.758 65.1947 101.503C69.9547 101.707 74.7657 103.696 79.3217 105.039C89.2497 107.997 88.0428 106.892 88.6888 111.278C88.6888 111.448 89.8957 119.965 90.0317 120.679C89.9914 120.789 89.9914 120.91 90.0317 121.019C86.8187 122.141 83.5377 123.314 80.3247 124.453ZM30.3787 148.151L39.8137 152.214C40.0687 154.475 40.3577 156.736 40.6297 159.014C36.9237 157.314 33.1667 155.767 29.3247 154.152L28.0667 147.267C28.8176 147.612 29.5899 147.907 30.3787 148.151ZM32.9967 156.379L40.9187 160.289C41.7857 167.259 42.7717 174.246 43.6387 181.216L33.6087 176.966L29.4777 154.696C30.6169 155.326 31.7919 155.888 32.9967 156.379ZM36.9747 179.074L43.5707 182.168C44.1147 186.452 44.6417 190.668 45.0837 195.105C45.5257 199.542 46.1377 203.724 46.7837 208.059L38.4027 204.489L33.5067 177.561C34.6457 178.139 35.8187 178.632 36.9747 179.074ZM44.3867 182.474L56.7458 188.152C57.2898 195.326 57.7317 202.5 58.5817 209.623C58.7177 210.83 58.8877 212.037 59.0237 213.312C55.5047 211.731 51.9687 210.184 48.4157 208.637C46.8177 198.471 45.3727 191.229 44.3187 182.525L44.3867 182.474ZM57.2727 188.356L68.6458 193.915C68.9518 196.839 69.2067 199.78 69.3597 202.721C69.6204 207.946 69.9434 213.159 70.3288 218.361C66.9288 216.814 63.6307 215.284 60.2647 213.754C59.9077 211.289 58.8197 205.033 57.2727 188.407V188.356ZM70.1927 220.18C70.7707 227.575 71.5357 235.106 72.6407 242.518L61.8287 238.591C61.7316 230.852 61.1639 223.125 60.1287 215.454C63.5117 217.103 66.8437 218.667 70.1927 220.231V220.18ZM74.7657 244.456C72.6909 248.035 70.8015 251.717 69.1047 255.489C68.1468 257.559 67.6506 259.813 67.6506 262.094C67.6506 264.375 68.1468 266.629 69.1047 268.698C47.7527 259.977 48.5177 261.711 48.7047 259.195C48.7047 259.195 49.5037 249.641 49.6397 248.213C49.9457 245.068 50.7107 246.241 62.9847 241.056C63.4676 240.904 63.9344 240.704 64.3787 240.461L74.7657 244.456ZM72.7257 242.62C72.0287 235.208 71.5357 227.966 71.0257 220.639H71.1787C74.2274 222.056 77.2761 223.433 80.3247 224.77C80.3247 225.909 80.4607 227.048 80.5287 228.17C80.8857 234.12 81.3617 240.07 82.2287 245.969L72.7257 242.62ZM99.9257 253.925C160.99 276.892 157.131 275.753 157.726 275.039L163.863 271.333C164.662 271.826 172.363 275.532 186.524 282.4C186.218 282.553 154.819 301.389 154.649 301.389C152.32 300.845 169.099 306.574 81.5487 272.982C78.7437 271.877 73.8307 271.282 72.5727 264.839C71.5187 259.467 74.8677 254.265 77.6727 248.91C78.1827 247.924 78.4547 246.853 78.9647 245.986C85.8667 248.672 92.8367 251.336 99.8747 253.976L99.9257 253.925ZM157.896 273.577C157.832 272.722 157.724 271.871 157.573 271.027C157.573 269.582 157.199 262.527 157.131 260.402C157.797 260.109 158.421 259.726 158.984 259.263L164.747 255.574C164.747 260.062 164.917 264.55 165.155 269.021L157.896 273.577ZM164.747 253.789C162.758 255.098 157.505 258.549 156.927 258.736C156.808 255.336 156.23 234.154 156.23 234.154C156.757 233.933 155.601 234.562 165.393 229.054C165.426 231.023 165.358 232.992 165.189 234.953C164.866 241.09 164.713 247.635 164.747 253.789ZM165.41 226.878L156.247 233.083L155.822 213.312C166.838 207.226 165.393 208.059 165.597 207.957C165.291 214.196 165.444 216.287 165.41 226.929V226.878ZM155.788 212.054C155.788 206.359 155.958 206.189 155.533 205.254C155.703 205.254 166.124 199.865 166.311 199.78C166.093 200.766 165.951 201.766 165.886 202.772C165.886 203.843 165.733 204.897 165.682 205.985C162.214 208.161 156.825 211.697 155.788 212.105V212.054ZM165.988 253.076C165.988 247.976 166.141 242.552 165.988 237.52V228.629L176.8 222.322C176.8 224.022 176.647 225.722 176.596 227.541C176.375 233.695 176.477 240.478 176.324 246.632C175.695 247.261 168.708 251.426 165.988 253.177V253.076ZM166.124 226.47C166.074 223.837 166.182 221.203 166.447 218.582C166.685 214.876 166.753 211.187 166.685 207.481L177.514 201.531C177.514 210.031 177.514 208.637 177.055 220.129C169.915 223.954 167.297 225.807 166.141 226.589L166.124 226.47ZM55.7257 98.7495C60.3409 97.2836 65.2718 97.1248 69.9717 98.2905C70.3287 98.2905 86.0537 102.999 89.3687 104.461C92.5307 106.161 92.2927 111.669 92.7687 114.661C93.1802 116.595 93.3797 118.567 93.3637 120.543C92.5636 120.472 91.7571 120.547 90.9837 120.764C90.9664 120.285 90.9152 119.808 90.8307 119.336C89.4367 110.02 90.0997 107.538 87.4307 106.501C84.0307 105.209 80.5457 104.342 77.1287 103.288C69.4277 100.908 64.5317 98.7495 55.8787 101.707C56.0338 101.218 56.0574 100.697 55.9469 100.195C55.8365 99.6939 55.5961 99.2304 55.2497 98.8515L55.7257 98.7495ZM48.3817 99.3785C49.8097 98.9875 52.0707 98.0355 53.4817 98.6475C54.1021 98.9307 54.5895 99.4419 54.8428 100.075C55.096 100.708 55.0957 101.415 54.8417 102.047C51.1527 103.747 50.5747 103.747 46.3417 105.345C43.8937 106.297 24.0717 111.533 21.1987 111.941C20.1955 112.267 19.1305 112.354 18.0877 112.196C18.7507 111.261 18.7847 108.014 16.9487 107.878C17.0167 106.144 25.8227 105.396 48.3817 99.3785ZM41.8537 231.213C39.7117 232.692 38.9297 229.513 38.6237 228.17C37.6547 223.07 21.6237 133.803 20.8927 131.049C20.1957 128.975 17.5947 128.295 15.7927 127.36L8.38074 123.654C6.34074 122.617 3.68875 121.801 2.41375 119.676C1.84104 118.712 1.58247 117.594 1.67385 116.476C1.76522 115.358 2.20203 114.296 2.92375 113.437C5.57575 110.989 6.47675 111.516 16.7277 108.83C17.0507 108.983 17.4927 108.966 17.7137 109.323C17.9517 110.037 17.7137 110.326 17.7137 111.261C15.6567 113.25 3.58674 112.961 4.53874 117.16C5.18474 119.727 13.1917 122.26 19.0567 125.66C25.8567 129.349 25.5167 137.883 26.7067 144.666C29.5117 160.799 39.6437 214.179 41.6837 224.787C41.9387 226.232 43.5197 230.074 41.8537 231.213ZM42.2787 231.604C43.5367 230.482 42.8907 228.612 42.6187 227.167L38.5727 204.999C39.3037 205.458 46.8517 208.977 47.0727 209.062C47.2937 209.147 50.2007 229.768 50.4727 231.808C50.4912 232.811 50.6929 233.802 51.0677 234.732L42.2787 231.604ZM51.3907 235.004C50.6427 224.804 49.4527 217.001 48.4667 209.895L59.1767 214.995C61.9647 237.469 61.3187 235.089 61.7607 238.591L51.3907 235.004ZM43.6217 269.395C43.546 268.671 43.705 267.941 44.0753 267.314C44.4456 266.686 45.0077 266.194 45.6787 265.91C47.6337 265.366 48.1777 268.239 47.2087 269.786C46.0704 271.625 44.7734 273.359 43.3327 274.971C43.2882 273.08 43.3848 271.188 43.6217 269.31V269.395ZM44.6077 280.241C39.6097 280.105 38.1477 272.625 42.4827 270.789C42.4683 271.868 42.5137 272.946 42.6187 274.019C42.6187 274.733 42.6187 275.872 43.6387 275.719C44.6587 275.566 45.8487 273.492 46.3247 272.812L47.1917 271.622C47.3277 271.86 47.5827 272.081 47.8207 272.438C50.0817 275.668 48.6027 280.275 44.6077 280.156V280.241ZM152.422 319.052C151.48 318.742 150.651 318.157 150.044 317.373C149.436 316.589 149.076 315.642 149.01 314.652C148.945 313.662 149.176 312.675 149.675 311.817C150.173 310.96 150.917 310.271 151.81 309.838V311.13C151.81 311.98 151.385 314.836 152.728 314.275C154.021 313.197 155.165 311.951 156.128 310.569C159.596 313.391 157.845 320.616 152.422 318.967V319.052ZM154.122 306.285L156.264 307.118C156.366 308.937 153.935 311.368 152.966 312.609C152.932 311.028 152.796 307.373 154.088 306.2L154.122 306.285ZM178.024 274.58C182.223 276.705 186.609 278.558 190.757 280.836C193.016 281.909 195.066 283.377 196.809 285.171C200.736 289.778 193.987 292.464 181.951 300.182C175.61 304.211 169.167 311.334 157.93 307.101C157.336 306.783 156.701 306.549 156.043 306.404C153.051 305.282 150.11 303.871 147.305 302.715C122.247 292.668 48.1097 263.615 48.1097 263.615C48.1095 264.313 48.0354 265.008 47.8887 265.689C47.5444 265.372 47.1249 265.148 46.6698 265.038C46.2147 264.928 45.739 264.936 45.2877 265.06C45.2877 263.887 46.0527 247.737 46.7667 245.714C47.7867 242.858 50.8467 242.195 53.4137 241.158C55.423 240.176 57.496 239.33 59.6187 238.625L63.3247 240.07L62.6447 240.41C50.0137 245.51 49.3337 243.912 49.0447 248.485C48.9427 249.658 48.0247 259.587 48.2287 260.658C48.3477 261.372 68.2887 268.953 70.6007 269.905C69.3668 267.55 68.7067 264.937 68.6742 262.278C68.6417 259.619 69.2377 256.99 70.4137 254.605C71.9333 251.248 73.671 247.994 75.6157 244.864L78.3017 245.884C77.3463 248.301 76.2097 250.643 74.9017 252.888C72.2837 257.988 69.8017 263.088 73.0487 268.477C73.844 269.905 75.0214 271.082 76.4487 271.877C166.413 306.557 151.793 304.177 157.947 301.032L188.224 282.502C176.732 277.045 172.346 274.58 164.917 270.789L167.263 269.344L178.024 274.58ZM176.12 262.595L165.818 268.817C165.971 267.013 165.971 265.199 165.818 263.394L166.005 254.894L176.341 248.23C176.341 250.644 176.341 253.092 176.12 255.523C175.965 257.85 175.954 260.183 176.086 262.51L176.12 262.595ZM186.881 255.795C186.881 255.795 178.84 260.895 176.324 262.357C176.817 257.444 177.106 252.548 177.293 247.601C180.506 245.51 184.093 243.113 187.272 241.005C187.238 241.073 187.119 248.689 186.847 255.778L186.881 255.795ZM177.276 246.224C177.582 240.682 177.582 234.528 177.463 229.02V222.033L187.986 215.896C187.986 218.225 187.986 220.537 187.85 222.883C187.391 228.442 187.425 234.358 187.272 239.883C184.025 241.889 180.438 244.218 177.242 246.207L177.276 246.224ZM187.306 255.574C187.901 250.474 188.258 245.374 188.496 240.274L197.115 234.528C196.707 239.628 196.418 244.728 196.35 249.828L187.306 255.574ZM201.348 246.479C199.733 247.601 198.492 248.417 196.826 249.488C197.217 244.796 197.574 239.288 198.101 233.882C199.801 232.845 204.187 230.176 205.224 229.394C202.725 247.108 204.119 244.711 201.314 246.462L201.348 246.479ZM205.496 228.697C203.218 230.023 200.6 231.689 198.322 233.049C198.798 227.32 199.529 221.387 199.784 215.675C199.903 213.312 200.107 210.949 200.328 208.603C203.456 206.75 208.284 203.69 209.168 203.044C207.808 211.595 206.618 220.129 205.462 228.68L205.496 228.697ZM212.908 181.607C209.389 183.307 205.887 185.143 202.368 186.894C202.368 185.194 202.521 183.494 202.538 181.794C202.045 182.236 202.079 183.868 201.586 187.234C197.727 189.087 193.868 191.093 190.043 193.082V188.288C189.59 189.986 189.351 191.734 189.329 193.49C185.64 195.343 182.036 197.281 178.381 199.202C178.381 197.349 178.381 195.496 178.262 193.66C189.975 187.71 201.773 181.403 213.962 176.167C213.571 178.054 213.214 179.788 212.874 181.59L212.908 181.607ZM230.928 274.512H231.081C231.404 276.249 231.404 278.029 231.081 279.765C230.554 281.465 228.701 281.465 227.137 281.788C217.889 283.097 203.337 282.536 211.65 278.252C214.642 276.688 217.889 275.566 220.881 274.138H221.119L224.298 274.376C226.491 274.578 228.695 274.617 230.894 274.495L230.928 274.512ZM254.83 282.859C254.337 284.559 252.484 284.712 250.937 284.933C248.064 285.375 235.025 286.497 233.308 284.559C231.234 282.247 240.38 279.561 245.463 276.943C246.84 277.164 248.234 277.368 249.611 277.504C251.234 277.929 252.935 277.964 254.575 277.606C254.979 279.322 255.054 281.099 254.796 282.842L254.83 282.859ZM281.86 96.3015C278.154 98.8685 274.448 100.602 269.858 100.007C259.403 97.9845 245.004 86.4075 240.686 73.9125C242.522 84.6905 254.286 95.1965 265.081 99.4125L265.421 100.126C267.325 104.733 267.019 109.867 262.786 112.213C245.922 122.923 224.468 128.856 204.986 122.26C204.057 121.95 203.163 121.545 202.317 121.053C215.016 114.253 227.579 107.113 239.853 99.6335C226.74 106.025 213.797 112.825 201.025 120.033C200.7 119.688 200.426 119.299 200.209 118.877C198.9 116.259 198.815 112.757 198.356 109.867C196.656 91.4565 194.956 94.4145 193.256 83.7215C192.797 71.8215 204.425 55.6375 202.487 55.7565C199.321 61.0459 196.652 66.6174 194.514 72.3995C192.372 78.0095 191.267 83.0075 192.984 88.7365C194.257 92.6458 195.329 96.6176 196.197 100.636C190.632 103.068 184.681 104.496 178.619 104.852C181.713 101.452 184.637 97.8145 187.408 94.1935C183.583 97.5935 179.894 101.146 176.307 104.903C170.002 104.983 163.813 103.209 158.508 99.8035C157.371 99.0401 156.296 98.1874 155.295 97.2535C161.165 85.9202 166.713 74.3885 171.938 62.6585C174.624 68.9825 173.842 68.9995 175.644 72.3145C176.749 73.6405 177.701 71.1755 178.262 70.3425C182.188 64.1583 187.199 58.7334 193.052 54.3285C196.084 52.1396 199.532 50.5949 203.184 49.7895H203.456C205.333 49.4366 207.25 49.3507 209.151 49.5345H209.304C205.309 53.4275 202.64 56.8275 201.722 62.2845C200.855 68.2855 206.295 72.4845 211.497 68.6765C215.832 65.5825 215.339 64.3075 216.597 66.0755C220.762 72.6035 230.979 72.7395 232.594 61.1625C233.002 58.1535 232.917 55.1275 233.563 52.1525C233.682 51.5235 235.518 45.6925 235.875 44.3665C239.407 42.9743 243.252 42.568 246.998 43.1907C250.743 43.8135 254.25 45.4421 257.142 47.9025C270.079 57.9835 269.535 67.9625 271.252 64.9025C271.813 63.8825 270.385 62.4715 272.391 52.7815C274.329 43.3635 279.548 35.7815 284.291 32.5345C285.702 31.6845 288.524 32.6365 290.156 32.9085C291.064 32.9179 291.965 33.0728 292.825 33.3675C294.117 34.1155 294.678 37.5495 294.967 38.9095C296.142 43.0698 296.989 47.3158 297.5 51.6085C299.506 68.1665 296.344 86.1695 281.86 96.3015Z" fill="#1C1C1C"/>
</svg>
