<svg width="140" height="28" viewBox="0 0 140 28" fill="none" xmlns="http://www.w3.org/2000/svg">
<g clip-path="url(#clip0_43_1577)">
<mask id="mask0_43_1577" style="mask-type:luminance" maskUnits="userSpaceOnUse" x="119" y="0" width="21" height="28">
<path d="M130.673 19.2607C130.931 19.5166 131.213 19.7445 131.519 19.9412H129.711C130.051 19.7412 130.372 19.5132 130.673 19.2607ZM130.027 21.8687V20.9111H134.536C136.384 20.9111 138.02 19.9881 139.01 18.5824V21.8687C139.01 24.1371 137.291 26.0132 135.076 26.2848C134.958 26.2937 134.841 26.3015 134.725 26.3015H134.105C131.822 26.0926 130.029 24.1862 130.029 21.8698M119.989 21.9995V17.2717C121.204 19.4473 123.51 20.9212 126.15 20.9212C126.26 20.9212 126.366 20.9189 126.473 20.9122H129.06V21.8698C129.06 23.7013 129.981 25.3193 131.382 26.3015H124.288C121.921 26.3015 119.989 24.3729 119.989 21.9995ZM120.079 14.3943C120.114 14.4524 120.144 14.5105 120.181 14.5664C120.769 15.4749 121.582 16.2068 122.604 16.7443C123.81 17.3812 125.008 17.5834 125.635 17.6505V19.9278C122.716 19.6786 120.371 17.3387 120.078 14.3943M130.027 15.4212C130.027 13.7853 130.923 12.3528 132.254 11.5796V13.7686C132.254 15.3207 131.685 16.7409 130.748 17.8293C130.292 17.1365 130.027 16.3073 130.027 15.4212ZM131.371 18.5891C132.519 17.3175 133.221 15.6257 133.221 13.7686V11.1605C133.634 11.0376 134.069 10.9694 134.518 10.9694C136.996 10.9694 139.012 12.9663 139.012 15.4201C139.012 17.874 136.997 19.8685 134.518 19.8685C133.294 19.8685 132.181 19.378 131.372 18.588M123.041 15.8805C122.172 15.4201 121.481 14.7999 120.989 14.0323C120.445 13.1886 120.138 12.1595 120.066 10.9639C120.645 11.0354 121.639 11.2332 122.613 11.7494C123.485 12.2075 124.176 12.8277 124.668 13.5943C125.21 14.4379 125.519 15.4704 125.589 16.6649C125.01 16.59 124.016 16.3956 123.041 15.8794M126.605 10.9516H131.432C130.001 11.9282 129.059 13.5663 129.059 15.419C129.059 16.5722 129.426 17.6404 130.046 18.5198C129.098 19.3221 127.906 19.8328 126.605 19.9311V10.9527V10.9516ZM132.254 5.969V9.86879C131.94 9.93807 131.615 9.97606 131.283 9.97606H127.535L132.254 5.969ZM125.477 13.0624C124.892 12.1539 124.076 11.422 123.054 10.8845C121.864 10.2565 120.686 10.0498 120.049 9.98053V5.91984L125.636 10.7448V13.3294C125.582 13.2411 125.534 13.1484 125.478 13.0624M120.04 4.63257C120.356 2.57094 122.141 0.988679 124.288 0.988679H125.636V9.4654L120.039 4.63369L120.04 4.63257ZM126.606 0.988679H131.313C133.779 1.00544 135.78 3.01344 135.78 5.48405C135.78 7.26632 134.734 8.80948 133.223 9.53691V4.9231C133.223 4.73538 133.114 4.56329 132.944 4.48396C132.772 4.40462 132.57 4.43256 132.425 4.55324L126.606 9.49669V0.989796V0.988679ZM136.749 5.48405C136.749 3.62243 135.812 1.97424 134.388 0.988679H134.727C137.095 0.988679 139.027 2.91734 139.027 5.2885V12.3349C138.039 10.9147 136.399 9.98276 134.54 9.98276H134.374C135.808 8.9972 136.75 7.34678 136.75 5.48293M131.31 0.0209961H124.286C121.381 0.0209961 119.018 2.38433 119.018 5.28962V21.9983C119.018 24.9036 121.381 27.267 124.286 27.267H134.074C134.22 27.2804 134.369 27.286 134.517 27.286C134.741 27.286 134.956 27.2725 135.173 27.2468C137.867 27.0189 139.994 24.7528 139.994 21.9983V15.7464C139.996 15.6492 140 15.5464 140 15.4492C140 15.3519 139.996 15.2491 139.994 15.1519V5.28962C139.994 2.38433 137.63 0.0209961 134.725 0.0209961H131.311H131.31Z" fill="white"/>
</mask>
<g mask="url(#mask0_43_1577)">
<path d="M140 0.0209961H119.018V27.286H140V0.0209961Z" fill="#1A171B"/>
</g>
<path d="M105.594 7.90808C107.827 7.90808 109.778 9.3719 110.419 11.4704H100.768C101.411 9.3719 103.362 7.90808 105.594 7.90808ZM97.5781 12.9543C97.5781 17.3827 101.166 20.9707 105.594 20.9707C108.667 20.9707 111.463 19.2186 112.807 16.4552L113.068 15.9211H109.683L109.572 16.0641C108.613 17.2899 107.154 18.0017 105.596 18.0017C103.363 18.0017 101.412 16.539 100.769 14.4394H113.48L113.526 14.1209C113.583 13.7343 113.611 13.3454 113.611 12.9543C113.611 8.52601 110.023 4.93799 105.596 4.93799C101.168 4.93799 97.5792 8.52601 97.5792 12.9543" fill="#1A171B"/>
<path d="M81.459 12.9553C81.459 17.3836 85.047 20.9717 89.4753 20.9717C93.2097 20.9717 96.4558 18.3882 97.2883 14.7521L97.3598 14.4392H94.3015L94.2646 14.5521C93.5796 16.6104 91.6498 18.0016 89.4753 18.0016C86.6863 18.0016 84.428 15.7444 84.428 12.9553C84.428 10.1662 86.6863 7.90906 89.4753 7.90906C91.6487 7.90906 93.5785 9.30024 94.2646 11.3585L94.3015 11.4714H97.3598L97.2883 11.1585C96.4558 7.52355 93.2097 4.93896 89.4753 4.93896C85.047 4.93896 81.459 8.52699 81.459 12.9553Z" fill="#1A171B"/>
<path d="M54.919 12.9555C54.919 10.1664 57.1773 7.9092 59.9664 7.9092C62.7555 7.9092 65.0127 10.1664 65.0127 12.9555C65.0127 15.7445 62.7555 18.0017 59.9664 18.0017C57.1773 18.0017 54.919 15.7445 54.919 12.9555ZM51.9512 12.9555C51.9512 17.3838 55.5381 20.9718 59.9664 20.9718C61.6314 20.9718 63.246 20.4645 64.6014 19.4968L65.0127 19.2018V20.7394H67.9816V5.17712H65.0127V6.72585C63.5913 5.57268 61.818 4.93799 59.9664 4.93799C55.5381 4.93799 51.9512 8.52601 51.9512 12.9543" fill="#1A171B"/>
<path d="M2.96898 12.9553C2.96898 10.1663 5.22616 7.90907 8.01523 7.90907C10.8043 7.90907 13.0615 10.1663 13.0615 12.9553C13.0615 15.7444 10.8043 18.0016 8.01523 18.0016C5.22616 18.0016 2.96898 15.7444 2.96898 12.9553ZM0 0V20.7392H2.96898V19.1849C4.39033 20.3381 6.16367 20.9717 8.01523 20.9717C12.4436 20.9717 16.0316 17.3836 16.0316 12.9553C16.0316 8.527 12.4436 4.93898 8.01523 4.93898C6.34804 4.93898 4.7412 5.45299 3.37907 6.41509L2.96898 6.7045V0H0Z" fill="#1A171B"/>
<path d="M19.1439 5.17676H16.2207V20.739H19.1439V5.17676Z" fill="#1A171B"/>
<path d="M73.0487 5.16804C70.2384 5.93123 68.2617 8.50464 68.2617 11.4189V20.7381H71.2754V11.4189C71.2754 9.52037 72.842 7.95264 74.7427 7.95264C76.6435 7.95264 78.2101 9.51926 78.2101 11.4189V20.7381H81.2237V11.4189C81.2237 8.50464 79.2482 5.93123 76.4367 5.16804C75.8836 5.01718 75.316 4.93896 74.7427 4.93896C74.1695 4.93896 73.6007 5.0183 73.0487 5.16804Z" fill="#1A171B"/>
<path d="M22.3761 12.9553C22.3761 10.1662 24.6344 7.90906 27.4234 7.90906C30.2125 7.90906 32.4708 10.1662 32.4708 12.9553C32.4708 15.7444 30.2125 18.0016 27.4234 18.0016C24.6344 18.0016 22.3761 15.7444 22.3761 12.9553ZM19.4082 12.9553C19.4082 17.3836 22.9962 20.9717 27.4234 20.9717C31.8506 20.9717 35.4387 17.3836 35.4387 12.9553C35.4387 8.52699 31.8518 4.93896 27.4234 4.93896C22.9951 4.93896 19.4082 8.52699 19.4082 12.9553Z" fill="#1A171B"/>
<path d="M38.6545 12.9555C38.6545 10.1665 40.9128 7.90928 43.7019 7.90928C46.491 7.90928 48.7481 10.1665 48.7481 12.9555C48.7481 15.7446 46.4899 18.0018 43.7019 18.0018C40.9139 18.0018 38.6545 15.7446 38.6545 12.9555ZM35.6855 12.9555C35.6855 15.5725 36.9382 17.8945 38.8769 19.3572C38.4858 19.8265 38.2053 20.3897 38.0791 21.0076H38.0645L38.0265 21.3373V21.3507L38.0243 21.3574V21.3708L38.0232 21.3775V21.3809V21.3853V21.392L38.021 21.4054V21.4121L38.0165 21.458V21.4714L38.0154 21.4758V21.4904L38.0109 21.544V21.5507V21.5574V21.5641V21.5708V21.5775V21.5842V21.5909L38.0075 21.6647V21.6714V21.7652V21.8613V21.8658L38.0109 21.9384V21.9586V21.9653V21.972V21.9787V21.9854L38.0154 22.0379V22.0446V22.0513V22.058L38.0165 22.0647V22.0714L38.021 22.1184V22.1251L38.0232 22.1385V22.1452V22.1508V22.1597V22.1664V22.1731V22.1798L38.0254 22.1932L38.0634 22.5229H38.0779C38.4288 24.2336 39.9518 25.5287 41.7609 25.5287H47.205C47.6352 25.5287 47.9972 25.8907 47.9972 26.321C47.9972 26.4092 47.9816 26.4964 47.9525 26.5791L47.776 27.0752H50.9036L50.9428 26.7456C50.9573 26.6048 50.9662 26.4629 50.9662 26.3198C50.9662 24.2504 49.2745 22.5586 47.205 22.5586H41.7609C41.4257 22.5586 41.1307 22.3385 41.0179 22.0368L41.0145 22.0256V22.0211L41.0112 22.0167V22.0122L41.0078 22.0088V22.0044L41.0067 22.001V21.9988L41.0056 21.9966V21.9921L41.0022 21.9876V21.9831L41.0011 21.9787L41 21.9742V21.9709L40.9977 21.9664V21.9619L40.9955 21.9574V21.953L40.9944 21.9485V21.944L40.9922 21.9396V21.9362V21.9317L40.991 21.9273V21.9239L40.9888 21.9195V21.9116L40.9877 21.9072V21.9027L40.9866 21.8982V21.8949V21.8904L40.9855 21.8859V21.8781V21.8736V21.8692L40.9843 21.8658V21.8613V21.858V21.8491L40.9832 21.8446V21.8379V21.8368V21.8289V21.8245V21.82V21.8155V21.8032V21.7988V21.7909V21.7865V21.7775V21.7652V21.7608V21.744V21.7395V21.7362V21.7183V21.715V21.706V21.7016V21.6948V21.6814V21.6781V21.6736V21.6691V21.6647L40.9843 21.6602V21.6557V21.6468L40.9855 21.6423V21.6379V21.6334V21.6289V21.6256V21.6211L40.9866 21.6166V21.6133H40.9877V21.6055L40.9899 21.601V21.5976V21.5954V21.5887L40.9922 21.5842V21.5798L40.9933 21.5753V21.5708V21.5663L40.9955 21.5619V21.5585L40.9966 21.5541V21.5507L40.9989 21.5462V21.5418L41.0011 21.5384V21.5351L41.0022 21.5339V21.5306L41.0033 21.5261V21.5228L41.0067 21.5183L41.0078 21.5138V21.5105L41.0089 21.506V21.5027L41.0123 21.4982V21.4948L41.0156 21.4904L41.019 21.4803C41.1318 21.1775 41.4268 20.9585 41.7621 20.9585H43.7019C48.1291 20.9585 51.7171 17.3704 51.7171 12.9421C51.7171 12.6538 51.7026 12.3689 51.6724 12.0884V5.16491H48.7481V6.71476C47.3704 5.59735 45.6149 4.92578 43.7019 4.92578C39.2736 4.92578 35.6855 8.51381 35.6855 12.9421" fill="#1A171B"/>
<path d="M53.8025 25.6401V27.2593H53.502V25.6401H53.8025ZM53.5534 27.2593V26.9978H54.5177V27.2593H53.5534Z" fill="#1A171B"/>
<path d="M55.4106 25.2982C55.4106 25.4054 55.3995 25.4971 55.3771 25.5753C55.3537 25.6524 55.3145 25.7284 55.2587 25.8021H55.0039C55.1257 25.6546 55.1872 25.5149 55.1872 25.3831H55.0095V25.04H55.4106V25.297V25.2982Z" fill="#1A171B"/>
<path d="M56.3807 25.6401V27.2593H56.0801V25.6401H56.3807Z" fill="#1A171B"/>
<path d="M57.2911 27.2593H56.9961V25.6401H57.2933L58.185 26.914H58.099V25.6401H58.394V27.2593H58.099L57.2051 25.9877H57.2911V27.2593Z" fill="#1A171B"/>
<path d="M59.3048 27.2593H59.0098V25.6401H59.307L60.1987 26.914H60.1127V25.6401H60.4076V27.2593H60.1127L59.2187 25.9877H59.3048V27.2593Z" fill="#1A171B"/>
<path d="M62.5854 26.4478C62.5854 26.612 62.5497 26.7573 62.4793 26.8836C62.4089 27.0087 62.3105 27.1071 62.1854 27.1786C62.0602 27.2501 61.9161 27.2858 61.7518 27.2858C61.5876 27.2858 61.4445 27.2501 61.3194 27.1786C61.1942 27.1071 61.097 27.0098 61.0278 26.8836C60.9574 26.7584 60.9238 26.6143 60.9238 26.45C60.9238 26.2858 60.9585 26.1394 61.0278 26.0131C61.0993 25.8868 61.1965 25.7885 61.3205 25.7181C61.4457 25.6466 61.5898 25.6108 61.7541 25.6108C61.9183 25.6108 62.0625 25.6466 62.1865 25.7181C62.3117 25.7885 62.4089 25.8868 62.4793 26.012C62.5497 26.1371 62.5854 26.2835 62.5854 26.4478ZM62.2714 26.4478C62.2714 26.3338 62.2502 26.2344 62.2089 26.1494C62.1664 26.0656 62.1072 25.9997 62.029 25.9539C61.953 25.907 61.8602 25.8835 61.7552 25.8835C61.6501 25.8835 61.5585 25.907 61.4814 25.9539C61.4043 25.9997 61.344 26.0656 61.3015 26.1494C61.2602 26.2344 61.2389 26.3338 61.2389 26.4478C61.2389 26.5618 61.2602 26.6623 61.3015 26.7484C61.3429 26.8333 61.4032 26.8981 61.4814 26.9439C61.5596 26.9897 61.6501 27.0132 61.7552 27.0132C61.8602 27.0132 61.953 26.9897 62.029 26.9428C62.1061 26.8959 62.1653 26.8311 62.2089 26.7461C62.2502 26.6612 62.2714 26.5618 62.2714 26.4478Z" fill="#1A171B"/>
<path d="M63.4888 27.2593L62.8418 25.6401H63.1614L63.5368 26.5721C63.5547 26.6201 63.5737 26.6693 63.5905 26.7207C63.6072 26.7721 63.6251 26.8313 63.643 26.895C63.6642 26.8246 63.6832 26.7631 63.7022 26.7117C63.7223 26.6603 63.7391 26.6134 63.7536 26.5721L64.1246 25.6401H64.4363L63.7983 27.2593H63.4877H63.4888Z" fill="#1A171B"/>
<path d="M64.7607 27.2593H64.4512L65.0702 25.6401H65.3786L65.9977 27.2593H65.6803L65.5418 26.8849H64.9015L64.7607 27.2593ZM65.1853 26.1229L64.9886 26.6458H65.4557L65.258 26.1229C65.2524 26.1005 65.2445 26.0782 65.2367 26.0569C65.2289 26.0357 65.2244 26.0167 65.2233 25.9988C65.22 26.0134 65.2144 26.0335 65.2077 26.0558C65.1998 26.0793 65.1931 26.1016 65.1853 26.1229Z" fill="#1A171B"/>
<path d="M66.1465 25.9016V25.6401H67.4528V25.9016H66.1465ZM66.9499 25.7753V27.2593H66.6493V25.7753H66.9499Z" fill="#1A171B"/>
<path d="M68.2155 25.6401V27.2593H67.916V25.6401H68.2155Z" fill="#1A171B"/>
<path d="M70.394 26.4478C70.394 26.612 70.3583 26.7573 70.2879 26.8836C70.2175 27.0087 70.1191 27.1071 69.994 27.1786C69.8688 27.2501 69.7247 27.2858 69.5604 27.2858C69.3962 27.2858 69.2531 27.2501 69.128 27.1786C69.0028 27.1071 68.9056 27.0098 68.8363 26.8836C68.766 26.7584 68.7324 26.6143 68.7324 26.45C68.7324 26.2858 68.7671 26.1394 68.8363 26.0131C68.9079 25.8868 69.0051 25.7885 69.1291 25.7181C69.2543 25.6466 69.3984 25.6108 69.5627 25.6108C69.7269 25.6108 69.8711 25.6466 69.9951 25.7181C70.1203 25.7885 70.2175 25.8868 70.2879 26.012C70.3583 26.1371 70.394 26.2835 70.394 26.4478ZM70.08 26.4478C70.08 26.3338 70.0588 26.2344 70.0174 26.1494C69.975 26.0656 69.9158 25.9997 69.8375 25.9539C69.7616 25.907 69.6688 25.8835 69.5638 25.8835C69.4587 25.8835 69.3671 25.907 69.29 25.9539C69.2129 25.9997 69.1526 26.0656 69.1101 26.1494C69.0688 26.2344 69.0475 26.3338 69.0475 26.4478C69.0475 26.5618 69.0688 26.6623 69.1101 26.7484C69.1515 26.8333 69.2118 26.8981 69.29 26.9439C69.3682 26.9897 69.4587 27.0132 69.5638 27.0132C69.6688 27.0132 69.7616 26.9897 69.8375 26.9428C69.9146 26.8959 69.9739 26.8311 70.0174 26.7461C70.0588 26.6612 70.08 26.5618 70.08 26.4478Z" fill="#1A171B"/>
<path d="M71.2051 27.2593H70.9102V25.6401H71.2074L72.0991 26.914H72.013V25.6401H72.308V27.2593H72.013L71.1191 25.9877H71.2051V27.2593Z" fill="#1A171B"/>
<path d="M74.0924 25.6401V27.2593H73.793V25.6401H74.0924ZM74.4712 26.7017H74.0209V26.4491H74.4075C74.5104 26.4491 74.5897 26.4246 74.6433 26.3754C74.697 26.3262 74.7249 26.2569 74.7249 26.1676C74.7249 26.0782 74.6981 26.0111 74.6433 25.9653C74.5897 25.9173 74.5126 25.8938 74.412 25.8938H73.9919V25.6413H74.4712C74.5863 25.6413 74.6869 25.6647 74.7707 25.7083C74.8556 25.753 74.9216 25.8145 74.9685 25.8927C75.0154 25.9709 75.0389 26.0648 75.0389 26.1698C75.0389 26.2748 75.0154 26.3653 74.9685 26.4458C74.9216 26.5251 74.8556 26.5888 74.7707 26.6335C74.6869 26.6793 74.5863 26.7006 74.4712 26.7006V26.7017Z" fill="#1A171B"/>
<path d="M77.0893 26.4478C77.0893 26.612 77.0536 26.7573 76.9832 26.8836C76.9128 27.0087 76.8144 27.1071 76.6893 27.1786C76.5641 27.2501 76.42 27.2858 76.2557 27.2858C76.0915 27.2858 75.9484 27.2501 75.8233 27.1786C75.6981 27.1071 75.6009 27.0098 75.5317 26.8836C75.4613 26.7584 75.4277 26.6143 75.4277 26.45C75.4277 26.2858 75.4624 26.1394 75.5317 26.0131C75.6032 25.8868 75.7004 25.7885 75.8244 25.7181C75.9496 25.6466 76.0937 25.6108 76.258 25.6108C76.4222 25.6108 76.5664 25.6466 76.6904 25.7181C76.8156 25.7885 76.9128 25.8868 76.9832 26.012C77.0536 26.1371 77.0893 26.2835 77.0893 26.4478ZM76.7753 26.4478C76.7753 26.3338 76.7541 26.2344 76.7128 26.1494C76.6703 26.0656 76.6111 25.9997 76.5329 25.9539C76.4569 25.907 76.3641 25.8835 76.2591 25.8835C76.1541 25.8835 76.0624 25.907 75.9853 25.9539C75.9082 25.9997 75.8479 26.0656 75.8054 26.1494C75.7641 26.2344 75.7428 26.3338 75.7428 26.4478C75.7428 26.5618 75.7641 26.6623 75.8054 26.7484C75.8468 26.8333 75.9071 26.8981 75.9853 26.9439C76.0635 26.9897 76.1541 27.0132 76.2591 27.0132C76.3641 27.0132 76.4569 26.9897 76.5329 26.9428C76.61 26.8959 76.6692 26.8311 76.7128 26.7461C76.7541 26.6612 76.7753 26.5618 76.7753 26.4478Z" fill="#1A171B"/>
<path d="M77.5938 26.6682V25.6401H77.8943V26.6503C77.8943 26.7665 77.9267 26.857 77.9927 26.9185C78.0575 26.981 78.1513 27.0123 78.272 27.0123C78.3927 27.0123 78.4877 26.9822 78.5547 26.9185C78.6195 26.8548 78.6531 26.7665 78.6531 26.6503V25.6401H78.9525V26.6682C78.9525 26.7933 78.9257 26.9028 78.8698 26.9944C78.8128 27.0861 78.7346 27.1576 78.6341 27.2079C78.5324 27.2593 78.4117 27.285 78.272 27.285C78.1323 27.285 78.015 27.2593 77.9133 27.209C77.8116 27.1598 77.7323 27.0872 77.6776 26.9956C77.6228 26.9017 77.5938 26.7933 77.5938 26.667V26.6682Z" fill="#1A171B"/>
<path d="M79.8542 27.2593H79.5547V25.6401H80.2095C80.4039 25.6401 80.5548 25.686 80.6632 25.7742C80.7727 25.8625 80.8263 25.9865 80.8263 26.1452C80.8263 26.2536 80.8006 26.3452 80.7481 26.4212C80.6967 26.4972 80.6196 26.5553 80.5168 26.5944L80.8431 27.2593H80.5134L80.2218 26.6547H79.853V27.2593H79.8542ZM79.8542 25.8938V26.4044H80.2095C80.3045 26.4044 80.3793 26.3821 80.4319 26.3352C80.4855 26.2894 80.5112 26.2268 80.5112 26.1452C80.5112 26.0636 80.4855 26.0022 80.4319 25.9586C80.3793 25.9161 80.3045 25.8938 80.2095 25.8938H79.8542Z" fill="#1A171B"/>
<path d="M82.5319 25.6401V27.2593H82.2324V25.6401H82.5319ZM82.2838 27.2593V26.9978H83.2482V27.2593H82.2838Z" fill="#1A171B"/>
<path d="M84.7934 27.2593H83.7285V25.6401H84.7934V25.9016H83.9229L84.0291 25.8111V26.3184H84.7141V26.5687H84.0291V27.0883L83.9229 26.9978H84.7934V27.2593Z" fill="#1A171B"/>
<path d="M86.5202 25.6401V27.2593H86.2207V25.6401H86.5202ZM86.9012 26.5698H86.4297V26.3318H86.8844C86.9683 26.3318 87.0308 26.3117 87.0744 26.2726C87.118 26.2335 87.1403 26.1776 87.1403 26.105C87.1403 26.0323 87.1169 25.9821 87.0711 25.9452C87.0252 25.9083 86.9604 25.8904 86.8744 25.8904H86.4185V25.6401H86.9001C87.0711 25.6401 87.204 25.6792 87.3001 25.7586C87.3962 25.8379 87.4465 25.9441 87.4465 26.0793C87.4465 26.1776 87.4219 26.2592 87.3716 26.3251C87.3214 26.3899 87.2476 26.438 87.1482 26.4681V26.438C87.2554 26.4614 87.3348 26.505 87.3906 26.5709C87.4465 26.6369 87.4733 26.7196 87.4733 26.8224C87.4733 26.914 87.451 26.9933 87.4074 27.0581C87.3649 27.1241 87.3001 27.1732 87.2174 27.209C87.1336 27.2436 87.0331 27.2604 86.9157 27.2604H86.4207V27.0101H86.9023C86.9884 27.0101 87.0532 26.9922 87.099 26.952C87.1448 26.914 87.1683 26.8581 87.1683 26.7866C87.1683 26.7196 87.1448 26.6659 87.0979 26.6279C87.0521 26.5911 86.9873 26.5709 86.9023 26.5709L86.9012 26.5698Z" fill="#1A171B"/>
<path d="M88.2838 25.6401V27.2593H87.9844V25.6401H88.2838Z" fill="#1A171B"/>
<path d="M89.9653 27.2593H88.9004V25.6401H89.9653V25.9016H89.0948L89.201 25.8111V26.3184H89.886V26.5687H89.201V27.0883L89.0948 26.9978H89.9653V27.2593Z" fill="#1A171B"/>
<path d="M90.8184 27.2593H90.5234V25.6401H90.8207L91.7124 26.914H91.6263V25.6401H91.9213V27.2593H91.6263L90.7324 25.9877H90.8184V27.2593Z" fill="#1A171B"/>
<path d="M92.4902 26.7875V26.5483H93.2467V26.7875H92.4902Z" fill="#1A171B"/>
<path d="M94.8794 27.2594H93.8145V25.6403H94.8794V25.9017H94.0089L94.115 25.8112V26.3185H94.8V26.5688H94.115V27.0884L94.0089 26.9979H94.8794V27.2594ZM94.2089 25.5263H93.9832L94.1944 25.1821H94.4883L94.7017 25.5263H94.4771L94.343 25.3062L94.2089 25.5263Z" fill="#1A171B"/>
<path d="M95.2871 25.9016V25.6401H96.5934V25.9016H95.2871ZM96.0905 25.7753V27.2593H95.7899V25.7753H96.0905Z" fill="#1A171B"/>
<path d="M97.3581 27.2593H97.0586V25.6401H97.7134C97.9078 25.6401 98.0587 25.686 98.1671 25.7742C98.2766 25.8625 98.3302 25.9865 98.3302 26.1452C98.3302 26.2536 98.3045 26.3452 98.252 26.4212C98.2006 26.4972 98.1235 26.5553 98.0207 26.5944L98.347 27.2593H98.0173L97.7257 26.6547H97.3569V27.2593H97.3581ZM97.3581 25.8938V26.4044H97.7134C97.8084 26.4044 97.8832 26.3821 97.9358 26.3352C97.9894 26.2894 98.0151 26.2268 98.0151 26.1452C98.0151 26.0636 97.9894 26.0022 97.9358 25.9586C97.8832 25.9161 97.8084 25.8938 97.7134 25.8938H97.3581Z" fill="#1A171B"/>
<path d="M99.9301 27.2593H98.8652V25.6401H99.9301V25.9016H99.0597L99.1658 25.8111V26.3184H99.8508V26.5687H99.1658V27.0883L99.0597 26.9978H99.9301V27.2593Z" fill="#1A171B"/>
<path d="M101.501 27.2593H101.191L101.81 25.6401H102.119L102.738 27.2593H102.421L102.282 26.8849H101.642L101.501 27.2593ZM101.926 26.1229L101.729 26.6458H102.196L101.998 26.1229C101.993 26.1005 101.985 26.0782 101.977 26.0569C101.969 26.0357 101.965 26.0167 101.964 25.9988C101.96 26.0134 101.955 26.0335 101.948 26.0558C101.94 26.0793 101.933 26.1016 101.926 26.1229Z" fill="#1A171B"/>
<path d="M103.486 27.2593H103.191V25.6401H103.489L104.38 26.914H104.294V25.6401H104.589V27.2593H104.294L103.4 25.9877H103.486V27.2593Z" fill="#1A171B"/>
<path d="M105.505 25.6401V27.2593H105.205V25.6401H105.505Z" fill="#1A171B"/>
<path d="M106.411 27.2593H106.119V25.6401H106.411L106.965 26.9285L107.518 25.6401H107.814V27.2593H107.523V26.5564C107.523 26.5017 107.524 26.4547 107.525 26.4156C107.526 26.3776 107.528 26.343 107.529 26.3139C107.53 26.2849 107.534 26.2547 107.539 26.2257L107.102 27.2604H106.826L106.392 26.229C106.401 26.2782 106.405 26.3396 106.407 26.4156C106.41 26.4905 106.411 26.5788 106.411 26.6805V27.2604V27.2593Z" fill="#1A171B"/>
<path d="M108.573 27.2593H108.264L108.883 25.6401H109.191L109.81 27.2593H109.493L109.354 26.8849H108.714L108.573 27.2593ZM108.998 26.1229L108.801 26.6458H109.268L109.07 26.1229C109.065 26.1005 109.057 26.0782 109.049 26.0569C109.041 26.0357 109.037 26.0167 109.036 25.9988C109.032 26.0134 109.027 26.0335 109.02 26.0558C109.012 26.0793 109.006 26.1016 108.998 26.1229Z" fill="#1A171B"/>
<path d="M110.561 25.6401V27.2593H110.262V25.6401H110.561ZM110.313 27.2593V26.9978H111.277V27.2593H110.313Z" fill="#1A171B"/>
</g>
<defs>
<clipPath id="clip0_43_1577">
<rect width="140" height="27.2862" fill="white"/>
</clipPath>
</defs>
</svg>
