<svg width="188" height="244" viewBox="0 0 188 244" fill="none" xmlns="http://www.w3.org/2000/svg">
<path d="M104.31 172.18C106.62 174.47 109.14 176.51 111.88 178.27H95.7001C98.7401 176.48 101.61 174.44 104.31 172.18ZM98.53 195.52V186.95H138.88C155.42 186.95 170.06 178.69 178.92 166.11V195.52C178.92 215.82 163.53 232.61 143.71 235.04C142.65 235.12 141.61 235.19 140.57 235.19H135.02C114.59 233.32 98.54 216.26 98.54 195.53M8.67004 196.68V154.37C19.55 173.84 40.1801 187.03 63.8101 187.03C64.7901 187.03 65.7401 187.01 66.7001 186.95H89.85V195.52C89.85 211.91 98.09 226.39 110.63 235.18H47.15C25.96 235.18 8.67004 217.92 8.67004 196.68ZM9.47998 128.63C9.78998 129.15 10.06 129.67 10.39 130.17C15.65 138.3 22.93 144.85 32.08 149.66C42.87 155.36 53.5901 157.17 59.2001 157.77V178.15C33.0801 175.92 12.09 154.98 9.46997 128.63M98.53 137.82C98.53 123.18 106.54 110.36 118.46 103.44V123.03C118.46 136.92 113.36 149.63 104.98 159.37C100.9 153.17 98.53 145.75 98.53 137.82ZM110.55 166.17C120.83 154.79 127.11 139.65 127.11 123.03V99.69C130.81 98.59 134.7 97.98 138.72 97.98C160.89 97.98 178.93 115.85 178.93 137.81C178.93 159.77 160.9 177.62 138.72 177.62C127.76 177.62 117.8 173.23 110.56 166.16M36 141.94C28.22 137.82 22.04 132.27 17.63 125.4C12.76 117.85 10.02 108.64 9.37 97.94C14.55 98.58 23.45 100.35 32.17 104.97C39.97 109.07 46.1501 114.62 50.5601 121.48C55.4101 129.03 58.17 138.27 58.8 148.96C53.62 148.29 44.72 146.55 36 141.93M67.89 97.84H111.09C98.28 106.58 89.85 121.24 89.85 137.82C89.85 148.14 93.1401 157.7 98.6901 165.57C90.2001 172.75 79.53 177.32 67.89 178.2V97.85V97.84ZM118.45 53.25V88.15C115.64 88.77 112.73 89.11 109.76 89.11H76.21L118.45 53.25ZM57.8 116.73C52.5601 108.6 45.26 102.05 36.11 97.24C25.46 91.62 14.92 89.77 9.21997 89.15V52.81L59.22 95.99V119.12C58.74 118.33 58.3101 117.5 57.8101 116.73M9.13 41.29C11.96 22.84 27.93 8.68 47.15 8.68H59.21V84.54L9.12 41.3L9.13 41.29ZM67.89 8.67H110.01C132.08 8.82 149.99 26.79 149.99 48.9C149.99 64.85 140.63 78.66 127.11 85.17V43.88C127.11 42.2 126.13 40.66 124.61 39.95C123.07 39.24 121.26 39.49 119.97 40.57L67.89 84.81V8.67ZM158.66 48.9C158.66 32.24 150.28 17.49 137.53 8.67H140.57C161.76 8.67 179.05 25.93 179.05 47.15V110.21C170.21 97.5 155.53 89.16 138.89 89.16H137.41C150.24 80.34 158.67 65.57 158.67 48.89M110.01 0H47.15C21.15 0 0 21.15 0 47.15V196.68C0 222.68 21.15 243.83 47.15 243.83H134.74C136.05 243.95 137.38 244 138.71 244C140.71 244 142.64 243.88 144.58 243.65C168.69 241.61 187.72 221.33 187.72 196.68V140.73C187.74 139.86 187.78 138.94 187.78 138.07C187.78 137.2 187.74 136.28 187.72 135.41V47.15C187.72 21.15 166.57 0 140.57 0H110.02H110.01Z" fill="white"/>
<mask id="mask0_6_54" style="mask-type:luminance" maskUnits="userSpaceOnUse" x="0" y="0" width="188" height="244">
<path d="M104.31 172.18C106.62 174.47 109.14 176.51 111.88 178.27H95.7001C98.7401 176.48 101.61 174.44 104.31 172.18ZM98.53 195.52V186.95H138.88C155.42 186.95 170.06 178.69 178.92 166.11V195.52C178.92 215.82 163.53 232.61 143.71 235.04C142.65 235.12 141.61 235.19 140.57 235.19H135.02C114.59 233.32 98.54 216.26 98.54 195.53M8.67004 196.68V154.37C19.55 173.84 40.1801 187.03 63.8101 187.03C64.7901 187.03 65.7401 187.01 66.7001 186.95H89.85V195.52C89.85 211.91 98.09 226.39 110.63 235.18H47.15C25.96 235.18 8.67004 217.92 8.67004 196.68ZM9.47998 128.63C9.78998 129.15 10.06 129.67 10.39 130.17C15.65 138.3 22.93 144.85 32.08 149.66C42.87 155.36 53.5901 157.17 59.2001 157.77V178.15C33.0801 175.92 12.09 154.98 9.46997 128.63M98.53 137.82C98.53 123.18 106.54 110.36 118.46 103.44V123.03C118.46 136.92 113.36 149.63 104.98 159.37C100.9 153.17 98.53 145.75 98.53 137.82ZM110.55 166.17C120.83 154.79 127.11 139.65 127.11 123.03V99.69C130.81 98.59 134.7 97.98 138.72 97.98C160.89 97.98 178.93 115.85 178.93 137.81C178.93 159.77 160.9 177.62 138.72 177.62C127.76 177.62 117.8 173.23 110.56 166.16M36 141.94C28.22 137.82 22.04 132.27 17.63 125.4C12.76 117.85 10.02 108.64 9.37 97.94C14.55 98.58 23.45 100.35 32.17 104.97C39.97 109.07 46.1501 114.62 50.5601 121.48C55.4101 129.03 58.17 138.27 58.8 148.96C53.62 148.29 44.72 146.55 36 141.93M67.89 97.84H111.09C98.28 106.58 89.85 121.24 89.85 137.82C89.85 148.14 93.1401 157.7 98.6901 165.57C90.2001 172.75 79.53 177.32 67.89 178.2V97.85V97.84ZM118.45 53.25V88.15C115.64 88.77 112.73 89.11 109.76 89.11H76.21L118.45 53.25ZM57.8 116.73C52.5601 108.6 45.26 102.05 36.11 97.24C25.46 91.62 14.92 89.77 9.21997 89.15V52.81L59.22 95.99V119.12C58.74 118.33 58.3101 117.5 57.8101 116.73M9.13 41.29C11.96 22.84 27.93 8.68 47.15 8.68H59.21V84.54L9.12 41.3L9.13 41.29ZM67.89 8.67H110.01C132.08 8.82 149.99 26.79 149.99 48.9C149.99 64.85 140.63 78.66 127.11 85.17V43.88C127.11 42.2 126.13 40.66 124.61 39.95C123.07 39.24 121.26 39.49 119.97 40.57L67.89 84.81V8.67ZM158.66 48.9C158.66 32.24 150.28 17.49 137.53 8.67H140.57C161.76 8.67 179.05 25.93 179.05 47.15V110.21C170.21 97.5 155.53 89.16 138.89 89.16H137.41C150.24 80.34 158.67 65.57 158.67 48.89M110.01 0H47.15C21.15 0 0 21.15 0 47.15V196.68C0 222.68 21.15 243.83 47.15 243.83H134.74C136.05 243.95 137.38 244 138.71 244C140.71 244 142.64 243.88 144.58 243.65C168.69 241.61 187.72 221.33 187.72 196.68V140.73C187.74 139.86 187.78 138.94 187.78 138.07C187.78 137.2 187.74 136.28 187.72 135.41V47.15C187.72 21.15 166.57 0 140.57 0H110.02H110.01Z" fill="white"/>
</mask>
<g mask="url(#mask0_6_54)">
<path d="M187.78 0H0V244H187.78V0Z" fill="white"/>
</g>
</svg>
