<svg width="83" height="15" viewBox="0 0 83 15" fill="none" xmlns="http://www.w3.org/2000/svg">
<path d="M0.578552 13.5767C0.501412 13.6538 0.417843 13.6924 0.327846 13.6924C0.173566 13.6924 0.0771403 13.6088 0.0385702 13.4417C0.0128567 13.3131 0 13.1717 0 13.0174C0 12.876 0 12.786 0 12.7474C0 12.1432 0.109282 11.3332 0.327846 10.3175C0.559267 9.18613 0.977111 7.71403 1.58138 5.90124C1.60709 5.79838 1.6778 5.57339 1.79351 5.22626L3.00847 1.36924C3.02133 1.31781 3.05347 1.22782 3.1049 1.09925C3.15633 0.957826 3.21418 0.835687 3.27846 0.732833C3.32989 0.668549 3.38132 0.629979 3.43274 0.617123C3.49703 0.59141 3.55488 0.59141 3.60631 0.617123C3.73488 0.694263 3.76702 0.803545 3.70274 0.94497C3.57417 1.25353 3.4006 1.78066 3.18204 2.52635L2.95062 3.29775C2.88633 3.51631 2.80919 3.75416 2.7192 4.0113C2.64206 4.25558 2.55849 4.52557 2.46849 4.82127C2.00565 6.22265 1.62638 7.39904 1.33067 8.35044C0.957826 9.57183 0.700691 10.7611 0.559267 11.9182C0.533554 12.0467 0.520697 12.1496 0.520697 12.2267C0.520697 12.2396 0.514269 12.2717 0.501412 12.3232C0.501412 12.3875 0.533554 12.4196 0.597838 12.4196C0.649264 12.4196 0.687835 12.3939 0.713548 12.3425C0.739261 12.3039 0.758547 12.2782 0.771403 12.2653L1.02211 11.6868L1.56209 10.5104C1.84494 9.86753 2.10207 9.30184 2.3335 8.81328C3.1049 7.14191 3.97916 5.65696 4.95627 4.35843C5.50911 3.63845 6.05552 3.05347 6.5955 2.60349L7.15477 2.1985C7.23191 2.15993 7.34762 2.11493 7.5019 2.0635C7.64332 2.03779 7.76546 2.0635 7.86831 2.14064C7.97117 2.20493 8.03545 2.30778 8.06116 2.44921C8.08688 2.60349 8.09974 2.71277 8.09974 2.77705C8.09974 2.80277 8.08045 2.98919 8.04188 3.33632C7.92617 3.92773 7.74617 4.59628 7.5019 5.34197C7.12905 6.49907 6.88477 7.34762 6.76906 7.8876C6.6405 8.42758 6.57621 8.84542 6.57621 9.14113C6.57621 9.24398 6.60193 9.3147 6.65335 9.35327C6.66621 9.36612 6.69192 9.37255 6.73049 9.37255C6.79478 9.37255 6.8462 9.34041 6.88477 9.27612C7.16762 8.96756 7.3669 8.72971 7.48261 8.56258C7.55975 8.45972 7.74617 8.20902 8.04188 7.81046C8.35044 7.4119 8.65257 7.05191 8.94828 6.73049C9.15399 6.48622 9.40469 6.22908 9.7004 5.95909C9.89325 5.79195 10.099 5.70838 10.3175 5.70838C10.6004 5.70838 10.8061 5.83052 10.9346 6.0748C11.0246 6.2548 11.0889 6.45407 11.1275 6.67264L11.3589 8.36973C11.4361 8.83257 11.5261 9.17327 11.6289 9.39184C11.796 9.76468 12.0017 9.9511 12.246 9.9511C12.426 9.9511 12.6189 9.86753 12.8246 9.7004C12.8889 9.64897 13.1589 9.30827 13.6346 8.67829C13.7631 8.48544 14.0781 8.06116 14.5795 7.40547C14.6052 7.39262 14.6245 7.37333 14.6374 7.34762C14.6631 7.3219 14.6952 7.30262 14.7338 7.28976C14.8109 7.23833 14.8881 7.24476 14.9652 7.30905C15.0552 7.34762 15.0874 7.4119 15.0616 7.5019C15.0359 7.60475 14.9781 7.72046 14.8881 7.84903C13.7824 9.34041 13.0817 10.1632 12.786 10.3175C12.5546 10.4204 12.3617 10.4718 12.2075 10.4718C11.9375 10.4718 11.6803 10.3239 11.4361 10.0282C11.2175 9.7454 11.0825 9.46898 11.0311 9.19899C10.9796 8.94185 10.8961 8.46615 10.7804 7.77189L10.6261 6.76906C10.6004 6.6405 10.5747 6.53764 10.5489 6.4605C10.4975 6.30622 10.4139 6.22908 10.2982 6.22908C10.234 6.22908 10.1568 6.26122 10.0668 6.32551C9.97682 6.38979 9.88039 6.47336 9.77754 6.57621C9.67468 6.66621 9.59754 6.73692 9.54612 6.78835C9.08327 7.30262 8.58186 7.92617 8.04188 8.659C7.84903 8.91614 7.64332 9.1797 7.42476 9.44969C7.25762 9.6554 7.08405 9.80968 6.90406 9.91253C6.78835 9.98967 6.67264 10.0282 6.55693 10.0282C6.45407 10.0282 6.35765 9.98967 6.26765 9.91253C6.19051 9.82254 6.13908 9.7004 6.11337 9.54612C6.10051 9.48183 6.09409 9.40469 6.09409 9.3147C6.09409 9.2247 6.08766 9.15399 6.0748 9.10256C6.10051 8.57543 6.2098 7.95831 6.40265 7.25119C6.47979 6.99406 6.64693 6.44122 6.90406 5.59267L7.15477 4.76342C7.36047 4.06915 7.48904 3.54203 7.54047 3.18204C7.56618 3.09204 7.57904 2.94419 7.57904 2.73848C7.57904 2.68705 7.5469 2.66134 7.48261 2.66134C7.41833 2.66134 7.34762 2.68705 7.27048 2.73848C7.20619 2.77705 7.15477 2.80919 7.1162 2.83491C6.62764 3.20775 6.15837 3.66417 5.70838 4.20415C4.70556 5.45125 3.85059 6.82049 3.14347 8.31187C2.79634 9.03185 2.2885 10.1247 1.61995 11.5903L1.36924 12.1303C1.27924 12.336 1.13139 12.6446 0.925684 13.056C0.835687 13.2489 0.719976 13.4224 0.578552 13.5767Z" fill="#1C1C1C"/>
<path d="M14.4338 9.83539C14.3567 9.87396 14.2795 9.89325 14.2024 9.89325C14.0867 9.89325 13.9903 9.85468 13.9131 9.77754C13.836 9.68754 13.791 9.57183 13.7781 9.43041C13.7781 9.28898 13.7846 9.18613 13.7974 9.12184C14.0417 8.15759 14.4403 7.40547 14.9931 6.86549C15.0574 6.78835 15.1538 6.70478 15.2824 6.61478C15.4881 6.44765 15.7002 6.36408 15.9188 6.36408C16.1116 6.36408 16.3045 6.44122 16.4973 6.5955C16.5873 6.65978 16.6452 6.69192 16.6709 6.69192C16.7095 6.69192 16.7673 6.6405 16.8445 6.53764C16.9473 6.42193 17.0887 6.23551 17.2687 5.97838L17.5194 5.63124C17.7123 5.36125 17.8087 5.22626 17.8087 5.22626C17.9244 5.11055 18.0401 5.07841 18.1558 5.12983C18.2844 5.20697 18.3166 5.33554 18.2523 5.51553L18.0016 6.03623C17.6544 6.71764 17.3973 7.36047 17.2302 7.96474C17.1016 8.42758 17.0373 8.77471 17.0373 9.00613C17.0373 9.07042 17.0566 9.12184 17.0952 9.16041C17.1337 9.18613 17.1787 9.18613 17.2302 9.16041C17.4616 9.05756 17.6352 8.97399 17.7509 8.90971C18.0466 8.71686 18.2844 8.54329 18.4644 8.38901C18.6444 8.24759 18.8051 8.10616 18.9465 7.96474L19.4094 7.55975C19.6151 7.39262 19.7244 7.30262 19.7372 7.28976C19.8144 7.22548 19.8915 7.23191 19.9686 7.30905C20.0586 7.37333 20.0844 7.46976 20.0458 7.59832C20.0458 7.61118 20.0072 7.65618 19.9301 7.73332C19.1972 8.46615 18.5351 9.01256 17.9437 9.37255C17.5837 9.61683 17.2752 9.73897 17.018 9.73897C16.6966 9.73897 16.5359 9.55254 16.5359 9.1797C16.5359 8.99971 16.5616 8.72971 16.613 8.36973C16.6388 8.2283 16.6966 7.98402 16.7866 7.63689C16.6323 7.68832 16.5166 7.76546 16.4395 7.86831C16.3752 7.95831 16.3302 8.01617 16.3045 8.04188C15.7774 8.67186 15.3274 9.14756 14.9545 9.46898C14.7617 9.63611 14.5881 9.75825 14.4338 9.83539ZM14.376 9.19899C14.4403 9.21184 14.4981 9.19256 14.5495 9.14113C15.0381 8.72971 15.5909 8.13188 16.2081 7.34762C16.2338 7.33476 16.2595 7.30262 16.2852 7.25119C16.2981 7.22548 16.3045 7.19334 16.3045 7.15477C16.3045 7.07763 16.2723 7.01977 16.2081 6.9812C16.1181 6.91692 16.0281 6.88477 15.9381 6.88477C15.9124 6.88477 15.8609 6.89763 15.7838 6.92334C15.6681 6.96191 15.5652 7.0262 15.4752 7.1162C14.871 7.64332 14.4917 8.32473 14.3374 9.16041C14.3374 9.16041 14.3438 9.16684 14.3567 9.1797C14.3695 9.1797 14.376 9.18613 14.376 9.19899Z" fill="#1C1C1C"/>
<path d="M25.4223 0.0385708C25.4865 0.0771405 25.5315 0.167138 25.5573 0.308562C25.5573 0.437129 25.5058 0.617123 25.403 0.848544C25.1587 1.52995 24.863 2.13422 24.5159 2.66134C24.1302 3.26561 23.7702 4.09487 23.4359 5.14912C22.9473 6.79478 22.6195 8.1833 22.4524 9.3147C22.3109 10.3047 22.2402 11.1275 22.2402 11.7832C22.2402 12.0532 22.2466 12.2589 22.2595 12.4003C22.2724 12.876 22.3431 13.371 22.4716 13.8853C22.4974 13.9367 22.5102 13.9753 22.5102 14.001L22.5295 14.1167C22.5295 14.2452 22.4716 14.3288 22.3559 14.3674C22.3302 14.3802 22.2981 14.3867 22.2595 14.3867C22.1309 14.3867 22.0474 14.2967 22.0088 14.1167C21.8545 13.4996 21.7709 12.921 21.7581 12.381C21.7067 10.9925 21.8609 9.46898 22.2209 7.81046C22.2724 7.55332 22.4009 7.03906 22.6066 6.26765C22.6581 6.08766 22.6709 5.94623 22.6452 5.84338V5.86267C22.5295 5.91409 22.4331 5.99766 22.3559 6.11337C22.2916 6.22908 22.2402 6.31265 22.2016 6.36408C21.5202 7.35404 20.9031 8.15116 20.3503 8.75543C20.286 8.83257 20.0803 9.0447 19.7332 9.39184C19.5789 9.5204 19.4503 9.59754 19.3475 9.62326H19.2703C19.1803 9.62326 19.1032 9.59754 19.0389 9.54612C18.9618 9.48183 18.9168 9.39826 18.9039 9.29541C18.9039 9.16684 18.9232 9.0447 18.9618 8.92899C19.2446 8.01617 19.6239 7.21905 20.0996 6.53764C20.2924 6.28051 20.4981 6.0748 20.7167 5.92052C20.8967 5.80481 21.0445 5.74695 21.1603 5.74695C21.3403 5.74695 21.501 5.89481 21.6424 6.19051C21.7195 6.1648 21.7774 6.1198 21.8159 6.05552C21.8545 5.97838 21.8802 5.93338 21.8931 5.92052L22.6452 4.82127C23.198 3.99844 23.5837 3.25275 23.8023 2.5842C24.0209 1.88994 24.3102 1.24067 24.6701 0.636408C24.7987 0.366417 24.9337 0.179994 25.0751 0.0771405C25.1266 0.0257135 25.1908 0 25.268 0C25.3323 0 25.3837 0.0128569 25.4223 0.0385708ZM19.6753 8.794C20.4981 7.81689 21.051 7.12905 21.3338 6.73049C21.3595 6.67907 21.411 6.60193 21.4881 6.49907C21.5781 6.39622 21.6295 6.29979 21.6424 6.2098C21.591 6.19694 21.5138 6.19051 21.411 6.19051C21.231 6.19051 21.0703 6.24194 20.9288 6.34479C20.7874 6.44765 20.646 6.58907 20.5046 6.76906C20.4788 6.78192 20.4531 6.81406 20.4274 6.86549C20.1703 7.26405 19.9132 7.78475 19.656 8.42758L19.6174 8.58186C19.6174 8.659 19.6367 8.72971 19.6753 8.794Z" fill="#1C1C1C"/>
<path d="M25.5024 10.7418C25.2581 10.7418 25.046 10.6839 24.866 10.5682C24.6989 10.4397 24.5832 10.2597 24.5189 10.0282C24.4289 9.77111 24.3903 9.55254 24.4032 9.37255C24.3903 9.14113 24.4353 8.84542 24.5382 8.48544C24.7824 7.71403 25.1553 7.09048 25.6567 6.61478C25.8495 6.43479 26.0295 6.29979 26.1967 6.2098C26.3767 6.10694 26.5759 6.05552 26.7945 6.05552C26.9874 6.05552 27.1352 6.1198 27.2381 6.24837C27.3538 6.37693 27.3988 6.5505 27.3731 6.76906C27.3216 7.15477 27.1609 7.48904 26.8909 7.77189C26.5695 8.11902 26.2738 8.39544 26.0038 8.60115C25.7338 8.794 25.4253 8.90971 25.0781 8.94828C25.001 8.96114 24.9496 9.01899 24.9239 9.12184C24.911 9.17327 24.9046 9.25041 24.9046 9.35327C24.9046 9.53326 24.9303 9.68111 24.9817 9.79682C25.0589 10.1568 25.2774 10.3047 25.6374 10.2404C25.8688 10.189 26.1452 10.0861 26.4667 9.93182C26.9681 9.66183 27.4309 9.33398 27.8552 8.94828L29.2244 7.65618L29.5908 7.30905C29.6937 7.21905 29.7901 7.21905 29.8801 7.30905C29.9701 7.39904 29.9894 7.49547 29.938 7.59832C29.9123 7.64975 29.8608 7.71403 29.7837 7.79117C29.0123 8.57543 28.3695 9.1797 27.8552 9.60397C27.4052 9.97682 26.9488 10.2725 26.486 10.4911C26.1002 10.6582 25.7724 10.7418 25.5024 10.7418ZM25.3288 8.36973C25.9845 8.02259 26.4345 7.63047 26.6788 7.19334C26.7945 7.01334 26.8524 6.86549 26.8524 6.74978C26.8395 6.62121 26.7817 6.56979 26.6788 6.5955C26.5631 6.60836 26.4474 6.65335 26.3317 6.73049C25.8174 7.06477 25.4317 7.57261 25.1746 8.25402C25.1746 8.3183 25.1874 8.35044 25.2131 8.35044C25.2774 8.37615 25.316 8.38258 25.3288 8.36973Z" fill="#1C1C1C"/>
<path d="M36.058 5.93981C35.9808 5.93981 35.9166 5.90766 35.8651 5.84338C35.8137 5.76624 35.7816 5.67624 35.7687 5.57339C35.7687 5.34197 35.8844 5.22626 36.1158 5.22626C36.2187 5.22626 36.3023 5.2584 36.3665 5.32268C36.4437 5.37411 36.4887 5.44482 36.5015 5.53482C36.5015 5.63767 36.4565 5.7341 36.3665 5.82409C36.2894 5.90124 36.1994 5.93981 36.0965 5.93981H36.058ZM35.788 10.8382C35.7366 10.8511 35.6723 10.8575 35.5951 10.8575C35.4151 10.8575 35.2544 10.8061 35.113 10.7032C34.9844 10.6004 34.8944 10.4654 34.843 10.2982C34.7916 10.1697 34.7659 9.93825 34.7659 9.60397C34.8944 8.58829 35.0809 7.77832 35.3251 7.17405C35.428 6.94263 35.5244 6.78192 35.6144 6.69192C35.7044 6.61478 35.8008 6.60836 35.9037 6.67264C35.9423 6.6855 35.968 6.71764 35.9808 6.76906C36.0066 6.80763 36.013 6.8462 36.0001 6.88477L35.8844 7.17405C35.7173 7.52118 35.5887 7.8876 35.4987 8.2733C35.4216 8.64615 35.3444 9.0897 35.2673 9.60397V9.73897C35.2673 9.82896 35.2801 9.9511 35.3059 10.1054C35.3187 10.1954 35.3637 10.2661 35.4409 10.3175C35.518 10.3561 35.6016 10.3625 35.6916 10.3368C35.8201 10.3239 35.9358 10.2918 36.0387 10.2404C36.1544 10.1761 36.283 10.0861 36.4244 9.97039C36.8615 9.62326 37.3372 9.15399 37.8515 8.56258L38.3722 7.94545C38.5265 7.73975 38.6486 7.58547 38.7386 7.48261C38.79 7.41833 38.88 7.33476 39.0086 7.23191C39.0729 7.16762 39.15 7.17405 39.24 7.25119C39.3172 7.30262 39.3429 7.37976 39.3172 7.48261C39.2914 7.57261 39.2529 7.64332 39.2014 7.69475C38.7772 8.24759 38.3979 8.71043 38.0636 9.08327C37.7422 9.45612 37.3886 9.80325 37.0029 10.1247C36.7715 10.3304 36.5594 10.4911 36.3665 10.6068C36.1737 10.7225 35.9808 10.7996 35.788 10.8382Z" fill="#1C1C1C"/>
<path d="M38.4406 11.3011C38.3892 11.3396 38.3249 11.3589 38.2477 11.3589C38.1835 11.3589 38.1256 11.3396 38.0742 11.3011C38.0228 11.2496 37.9906 11.1789 37.9778 11.0889C37.9649 11.0375 37.9585 10.9539 37.9585 10.8382C37.9842 10.6068 38.0099 10.4461 38.0356 10.3561L38.1513 9.9511C38.2413 9.5654 38.3377 9.21184 38.4406 8.89042C38.672 8.24759 39.032 7.28333 39.5206 5.99766C39.5591 5.90766 39.6556 5.72124 39.8098 5.43839C39.8484 5.37411 39.8998 5.33554 39.9641 5.32268C40.0284 5.29697 40.0863 5.3034 40.1377 5.34197C40.2534 5.40625 40.2855 5.51553 40.2341 5.66981L40.1184 5.90124L38.9806 8.85185C38.9677 8.89042 38.942 8.96113 38.9034 9.06399C38.8649 9.16684 38.8456 9.26327 38.8456 9.35327C38.8456 9.44326 38.8584 9.51397 38.8842 9.5654C39.2827 8.84542 39.7841 8.13188 40.3884 7.42476C40.6712 7.1162 40.9284 6.89763 41.1598 6.76906C41.2498 6.71764 41.3462 6.69192 41.4491 6.69192C41.6291 6.69192 41.7769 6.79478 41.8926 7.00048C41.944 7.10334 41.9826 7.26405 42.0083 7.48261L42.1048 8.42758C42.1305 8.659 42.1883 8.85828 42.2783 9.02542C42.3426 9.16684 42.4519 9.21184 42.6062 9.16041C42.799 9.09613 43.0112 8.96113 43.2426 8.75543L44.2454 7.81046C44.4254 7.65618 44.554 7.54047 44.6311 7.46333C44.7082 7.38619 44.7597 7.33476 44.7854 7.30905C44.8754 7.21905 44.9654 7.21905 45.0554 7.30905C45.1454 7.38619 45.1711 7.47618 45.1325 7.57904C45.0939 7.68189 45.0361 7.77189 44.959 7.84903C44.8432 7.96474 44.4447 8.33116 43.7633 8.94828L43.3969 9.27612C43.1654 9.49469 42.9083 9.62969 42.6255 9.68111L42.4519 9.7004C42.1948 9.7004 41.989 9.5654 41.8348 9.29541C41.7062 9.05113 41.6355 8.81328 41.6226 8.58186C41.5712 8.10616 41.5262 7.72689 41.4876 7.44404C41.4748 7.3669 41.4362 7.3219 41.3719 7.30905C41.3205 7.28333 41.2691 7.29619 41.2176 7.34762C40.9477 7.59189 40.7548 7.78475 40.6391 7.92617C39.9705 8.71043 39.3856 9.6104 38.8842 10.6261C38.8584 10.6647 38.807 10.7675 38.7299 10.9346C38.6656 11.0889 38.5692 11.2111 38.4406 11.3011Z" fill="#1C1C1C"/>
<path d="M50.3113 12.921C50.2213 12.921 50.1506 12.8953 50.0992 12.8439C50.0606 12.7924 50.0478 12.7217 50.0606 12.6317L50.1377 12.3232L50.832 9.25684L50.9092 8.94828C50.922 8.90971 50.9284 8.85185 50.9284 8.77471C50.9284 8.71043 50.9027 8.66543 50.8513 8.63972C50.8127 8.614 50.742 8.60115 50.6392 8.60115C50.5363 8.614 50.3692 8.62043 50.1377 8.62043C50.0478 8.62043 49.9899 8.56901 49.9642 8.46615V8.42758C49.9642 8.31187 50.0092 8.23473 50.0992 8.19616C50.2149 8.15759 50.4013 8.12545 50.6584 8.09974C50.8384 8.08688 50.9734 8.03545 51.0634 7.94545C51.1663 7.8426 51.2434 7.70118 51.2949 7.52118C51.4748 6.71121 51.6998 5.85624 51.9698 4.95627C52.1755 4.21058 52.4391 3.43917 52.7605 2.64206C52.7734 2.61634 52.7991 2.55849 52.8377 2.46849C52.8762 2.37849 52.8827 2.29492 52.8569 2.21778C52.8184 2.19207 52.7541 2.17921 52.6641 2.17921C52.6127 2.17921 52.5098 2.19207 52.3555 2.21778L51.8734 2.3335C51.0763 2.51349 50.6456 2.60991 50.5813 2.62277C50.4527 2.66134 50.3049 2.68063 50.1377 2.68063C50.112 2.68063 50.0863 2.65491 50.0606 2.60349C50.0606 2.55206 50.067 2.51349 50.0799 2.48778C50.1313 2.41064 50.2213 2.35921 50.3499 2.3335L51.0634 2.15993C51.2306 2.12136 51.4298 2.06993 51.6613 2.00565C51.9055 1.94137 52.182 1.87708 52.4905 1.8128C52.5677 1.79994 52.6962 1.78066 52.8762 1.75494C53.0562 1.71637 53.1784 1.63923 53.2426 1.52352C53.3069 1.39495 53.3776 1.22782 53.4548 1.02211C53.4934 0.867829 53.5384 0.74569 53.5898 0.655694C53.6541 0.55284 53.7441 0.514269 53.8598 0.539982C53.9241 0.565696 53.9691 0.610695 53.9948 0.674978C54.0333 0.726405 54.0462 0.784261 54.0333 0.848544L53.9176 1.19568C53.9048 1.23425 53.8919 1.28567 53.8791 1.34996C53.8662 1.40138 53.8662 1.45281 53.8791 1.50424C53.9305 1.54281 53.9948 1.56209 54.0719 1.56209C54.149 1.54923 54.2069 1.54281 54.2455 1.54281C55.7111 1.3371 56.8168 1.19568 57.5625 1.11854C58.1025 1.05425 58.9382 0.996396 60.0696 0.94497C60.1596 0.932113 60.2431 0.932113 60.3203 0.94497C60.4103 0.94497 60.481 0.957826 60.5324 0.983539C60.5838 0.996396 60.616 1.03497 60.6288 1.09925V1.13782C60.6288 1.18925 60.6031 1.23425 60.5517 1.27282C60.5003 1.31139 60.4296 1.3371 60.3396 1.34996C59.9796 1.37567 59.7032 1.38853 59.5103 1.38853C58.2761 1.45281 56.669 1.61352 54.689 1.87065L53.8598 1.98636C53.6669 1.99922 53.5319 2.1085 53.4548 2.31421C53.1077 3.08561 52.8569 3.73488 52.7027 4.262C52.497 4.95627 52.2013 6.01052 51.8156 7.42476C51.7898 7.55332 51.777 7.65618 51.777 7.73332C51.777 7.81046 51.8156 7.84903 51.8927 7.84903C51.9827 7.84903 52.047 7.8426 52.0855 7.82974L52.7798 7.71403C52.9341 7.68832 53.1398 7.65618 53.3969 7.61761C53.6669 7.56618 53.8919 7.52118 54.0719 7.48261C54.1233 7.46976 54.239 7.45047 54.419 7.42476C54.599 7.38619 54.7597 7.31547 54.9012 7.21262C54.9397 7.17405 54.9847 7.15477 55.0362 7.15477C55.0876 7.15477 55.1326 7.18048 55.1712 7.23191C55.2226 7.28333 55.2483 7.34119 55.2483 7.40547C55.2483 7.4569 55.229 7.51475 55.1904 7.57904C55.0747 7.73332 54.8947 7.82974 54.6505 7.86831L52.6641 8.23473C52.4841 8.2733 52.2141 8.3183 51.8541 8.36973C51.6484 8.4083 51.5263 8.53043 51.4877 8.73614L51.2949 9.52683C51.012 10.7611 50.7934 11.6868 50.6392 12.3039C50.6263 12.4196 50.5813 12.5803 50.5042 12.786C50.4656 12.876 50.4013 12.921 50.3113 12.921Z" fill="#1C1C1C"/>
<path d="M56.3284 11.8796C56.1356 11.8796 56.0263 11.7768 56.0006 11.571C56.0006 11.5196 56.0006 11.4425 56.0006 11.3396C55.9877 11.2368 55.9877 11.1468 56.0006 11.0696C56.1677 9.88682 56.4506 8.85828 56.8491 7.98402L57.4662 6.53764C57.4919 6.49907 57.5112 6.4605 57.5241 6.42193C57.5498 6.37051 57.5819 6.31908 57.6205 6.26765C57.6848 6.20337 57.7619 6.18408 57.8519 6.2098C57.9676 6.24837 58.0126 6.31265 57.9869 6.40265C57.9869 6.53122 57.9548 6.67264 57.8905 6.82692C57.7876 7.08405 57.6205 7.46976 57.3891 7.98402C57.132 8.58829 56.9262 9.1797 56.772 9.75825C56.7205 9.93825 56.6948 10.0668 56.6948 10.144C56.6948 10.2211 56.7141 10.2982 56.7527 10.3754H56.7334L56.7527 10.3947L57.5048 8.87114C57.7876 8.35687 58.0962 7.93903 58.4305 7.61761C58.5848 7.46333 58.7326 7.34119 58.874 7.25119C58.9512 7.21262 59.0283 7.19334 59.1055 7.19334C59.2597 7.19334 59.3819 7.27048 59.4719 7.42476C59.5104 7.48904 59.5426 7.56618 59.5683 7.65618C59.6069 7.73332 59.6454 7.80403 59.684 7.86831C59.8254 8.09974 59.9797 8.21545 60.1469 8.21545C60.2369 8.21545 60.3461 8.1833 60.4747 8.11902C60.8347 7.92617 61.1754 7.68189 61.4968 7.38619C61.574 7.30905 61.6575 7.24476 61.7475 7.19334C61.7604 7.18048 61.7861 7.17405 61.8247 7.17405C61.8761 7.17405 61.9275 7.19334 61.9789 7.23191C62.0561 7.30905 62.0754 7.38619 62.0368 7.46333C61.9854 7.57904 61.9275 7.66261 61.8632 7.71403C61.5418 8.06116 61.1175 8.3633 60.5904 8.62043C60.4618 8.68472 60.314 8.71686 60.1469 8.71686C59.8254 8.71686 59.5619 8.57543 59.3562 8.29259C59.3562 8.29259 59.2597 8.1383 59.0669 7.82974C58.9512 7.82974 58.8419 7.89403 58.739 8.02259C58.4305 8.33116 58.1412 8.74257 57.8712 9.25684L57.5048 9.98967C57.4534 10.1182 57.2669 10.4975 56.9455 11.1275C56.8298 11.3589 56.7141 11.5582 56.5984 11.7253C56.5341 11.8282 56.4441 11.8796 56.3284 11.8796Z" fill="#1C1C1C"/>
<path d="M61.4224 9.83539C61.3452 9.87396 61.2681 9.89325 61.191 9.89325C61.0753 9.89325 60.9788 9.85468 60.9017 9.77754C60.8245 9.68754 60.7795 9.57183 60.7667 9.43041C60.7667 9.28898 60.7731 9.18613 60.786 9.12184C61.0303 8.15759 61.4288 7.40547 61.9817 6.86549C62.0459 6.78835 62.1424 6.70478 62.2709 6.61478C62.4766 6.44765 62.6888 6.36408 62.9073 6.36408C63.1002 6.36408 63.293 6.44122 63.4859 6.5955C63.5759 6.65978 63.6337 6.69192 63.6595 6.69192C63.698 6.69192 63.7559 6.6405 63.833 6.53764C63.9359 6.42193 64.0773 6.23551 64.2573 5.97838L64.508 5.63124C64.7009 5.36125 64.7973 5.22626 64.7973 5.22626C64.913 5.11055 65.0287 5.07841 65.1444 5.12983C65.273 5.20697 65.3051 5.33554 65.2408 5.51553L64.9901 6.03623C64.643 6.71764 64.3859 7.36047 64.2187 7.96474C64.0902 8.42758 64.0259 8.77471 64.0259 9.00613C64.0259 9.07042 64.0452 9.12184 64.0837 9.16041C64.1223 9.18613 64.1673 9.18613 64.2187 9.16041C64.4501 9.05756 64.6237 8.97399 64.7394 8.90971C65.0351 8.71686 65.273 8.54329 65.453 8.38901C65.633 8.24759 65.7937 8.10616 65.9351 7.96474L66.3979 7.55975C66.6036 7.39262 66.7129 7.30262 66.7258 7.28976C66.8029 7.22548 66.8801 7.23191 66.9572 7.30905C67.0472 7.37333 67.0729 7.46976 67.0343 7.59832C67.0343 7.61118 66.9958 7.65618 66.9186 7.73332C66.1858 8.46615 65.5237 9.01256 64.9323 9.37255C64.5723 9.61683 64.2637 9.73897 64.0066 9.73897C63.6852 9.73897 63.5245 9.55254 63.5245 9.1797C63.5245 8.99971 63.5502 8.72971 63.6016 8.36973C63.6273 8.2283 63.6852 7.98402 63.7752 7.63689C63.6209 7.68832 63.5052 7.76546 63.428 7.86831C63.3638 7.95831 63.3188 8.01617 63.293 8.04188C62.7659 8.67186 62.3159 9.14756 61.9431 9.46898C61.7502 9.63611 61.5767 9.75825 61.4224 9.83539ZM61.3645 9.19899C61.4288 9.21184 61.4867 9.19256 61.5381 9.14113C62.0266 8.72971 62.5795 8.13188 63.1966 7.34762C63.2223 7.33476 63.248 7.30262 63.2738 7.25119C63.2866 7.22548 63.293 7.19334 63.293 7.15477C63.293 7.07763 63.2609 7.01977 63.1966 6.9812C63.1066 6.91692 63.0166 6.88477 62.9266 6.88477C62.9009 6.88477 62.8495 6.89763 62.7723 6.92334C62.6566 6.96191 62.5538 7.0262 62.4638 7.1162C61.8595 7.64332 61.4802 8.32473 61.326 9.16041C61.326 9.16041 61.3324 9.16684 61.3452 9.1797C61.3581 9.1797 61.3645 9.18613 61.3645 9.19899Z" fill="#1C1C1C"/>
<path d="M66.1817 11.3011C66.1303 11.3396 66.066 11.3589 65.9889 11.3589C65.9246 11.3589 65.8667 11.3396 65.8153 11.3011C65.7639 11.2496 65.7317 11.1789 65.7189 11.0889C65.706 11.0375 65.6996 10.9539 65.6996 10.8382C65.7253 10.6068 65.751 10.4461 65.7767 10.3561L65.8925 9.9511C65.9825 9.5654 66.0789 9.21184 66.1817 8.89042C66.4131 8.24759 66.7731 7.28333 67.2617 5.99766C67.3003 5.90766 67.3967 5.72124 67.551 5.43839C67.5895 5.37411 67.641 5.33554 67.7053 5.32268C67.7695 5.29697 67.8274 5.3034 67.8788 5.34197C67.9945 5.40625 68.0267 5.51553 67.9752 5.66981L67.8595 5.90124L66.7217 8.85185C66.7089 8.89042 66.6831 8.96113 66.6446 9.06399C66.606 9.16684 66.5867 9.26327 66.5867 9.35327C66.5867 9.44326 66.5996 9.51397 66.6253 9.5654C67.0238 8.84542 67.5253 8.13188 68.1295 7.42476C68.4124 7.1162 68.6695 6.89763 68.9009 6.76906C68.9909 6.71764 69.0873 6.69192 69.1902 6.69192C69.3702 6.69192 69.5181 6.79478 69.6338 7.00048C69.6852 7.10334 69.7238 7.26405 69.7495 7.48261L69.8459 8.42758C69.8716 8.659 69.9295 8.85828 70.0195 9.02542C70.0837 9.16684 70.193 9.21184 70.3473 9.16041C70.5402 9.09613 70.7523 8.96113 70.9837 8.75543L71.9865 7.81046C72.1665 7.65618 72.2951 7.54047 72.3722 7.46333C72.4494 7.38619 72.5008 7.33476 72.5265 7.30905C72.6165 7.21905 72.7065 7.21905 72.7965 7.30905C72.8865 7.38619 72.9122 7.47618 72.8737 7.57904C72.8351 7.68189 72.7772 7.77189 72.7001 7.84903C72.5844 7.96474 72.1858 8.33116 71.5044 8.94828L71.138 9.27612C70.9066 9.49469 70.6494 9.62969 70.3666 9.68111L70.193 9.7004C69.9359 9.7004 69.7302 9.5654 69.5759 9.29541C69.4473 9.05113 69.3766 8.81328 69.3638 8.58186C69.3123 8.10616 69.2673 7.72689 69.2288 7.44404C69.2159 7.3669 69.1774 7.3219 69.1131 7.30905C69.0616 7.28333 69.0102 7.29619 68.9588 7.34762C68.6888 7.59189 68.4959 7.78475 68.3802 7.92617C67.7117 8.71043 67.1267 9.6104 66.6253 10.6261C66.5996 10.6647 66.5481 10.7675 66.471 10.9346C66.4067 11.0889 66.3103 11.2111 66.1817 11.3011Z" fill="#1C1C1C"/>
<path d="M73.2349 10.7611C72.6821 10.7739 72.2836 10.6454 72.0393 10.3754C71.8079 10.1054 71.705 9.73897 71.7307 9.27612C71.7307 9.19898 71.7436 9.09613 71.7693 8.96756C72.0521 7.86189 72.5985 6.95549 73.4085 6.24837C73.6399 6.05552 73.8778 5.95909 74.1221 5.95909C74.3021 5.95909 74.4756 6.00409 74.6428 6.09409C74.8485 6.19694 74.9642 6.35765 74.9899 6.57621C75.0027 6.6405 75.0092 6.73049 75.0092 6.8462C75.0092 7.25762 74.8742 7.61761 74.6042 7.92617C74.5785 7.96474 74.527 7.99688 74.4499 8.02259L74.4113 8.04188C74.3856 8.04188 74.3535 8.02902 74.3149 8.00331C74.2892 7.9776 74.2763 7.95188 74.2763 7.92617V7.8876C74.2763 7.7976 74.3149 7.68832 74.3921 7.55975C74.5335 7.30262 74.5849 7.06477 74.5463 6.8462C74.5335 6.73049 74.4949 6.6405 74.4306 6.57621C74.3663 6.49907 74.2828 6.4605 74.1799 6.4605C74.1413 6.4605 74.0835 6.47336 74.0064 6.49907C73.8778 6.53764 73.7556 6.61478 73.6399 6.73049C72.9585 7.33476 72.5021 8.09974 72.2707 9.02542C72.2321 9.1797 72.2128 9.32755 72.2128 9.46898C72.2128 9.72611 72.29 9.92539 72.4443 10.0668C72.6114 10.2082 72.8428 10.2789 73.1385 10.2789C73.5114 10.2789 73.9549 10.1632 74.4692 9.93182C74.9577 9.73897 75.4463 9.45612 75.9349 9.08327C76.2049 8.87757 76.4491 8.69114 76.6677 8.52401C76.8863 8.34401 77.0791 8.1833 77.2462 8.04188L77.9019 7.52118C78.0562 7.39262 78.1719 7.30262 78.2491 7.25119C78.3005 7.22548 78.3391 7.21262 78.3648 7.21262C78.4419 7.21262 78.4998 7.24476 78.5383 7.30905C78.5769 7.34762 78.5962 7.39262 78.5962 7.44404C78.5962 7.48261 78.5769 7.53404 78.5383 7.59832C78.5255 7.62404 78.4676 7.68832 78.3648 7.79117C77.2334 8.74257 76.3527 9.42398 75.7227 9.83539C75.1313 10.2211 74.5271 10.4975 73.9099 10.6647C73.7942 10.6904 73.5692 10.7225 73.2349 10.7611Z" fill="#1C1C1C"/>
<path d="M78.5364 10.7418C78.2921 10.7418 78.08 10.6839 77.9 10.5682C77.7328 10.4397 77.6171 10.2597 77.5528 10.0282C77.4628 9.77111 77.4243 9.55254 77.4371 9.37255C77.4243 9.14113 77.4693 8.84542 77.5721 8.48544C77.8164 7.71403 78.1893 7.09048 78.6907 6.61478C78.8835 6.43479 79.0635 6.29979 79.2307 6.2098C79.4106 6.10694 79.6099 6.05552 79.8285 6.05552C80.0213 6.05552 80.1692 6.1198 80.272 6.24837C80.3878 6.37693 80.4328 6.5505 80.407 6.76906C80.3556 7.15477 80.1949 7.48904 79.9249 7.77189C79.6035 8.11902 79.3078 8.39544 79.0378 8.60115C78.7678 8.794 78.4592 8.90971 78.1121 8.94828C78.035 8.96114 77.9836 9.01899 77.9578 9.12184C77.945 9.17327 77.9385 9.25041 77.9385 9.35327C77.9385 9.53326 77.9643 9.68111 78.0157 9.79682C78.0928 10.1568 78.3114 10.3047 78.6714 10.2404C78.9028 10.189 79.1792 10.0861 79.5006 9.93182C80.0021 9.66183 80.4649 9.33398 80.8892 8.94828L82.2584 7.65618L82.6248 7.30905C82.7277 7.21905 82.8241 7.21905 82.9141 7.30905C83.0041 7.39904 83.0234 7.49547 82.972 7.59832C82.9462 7.64975 82.8948 7.71403 82.8177 7.79117C82.0463 8.57543 81.4034 9.1797 80.8892 9.60397C80.4392 9.97682 79.9828 10.2725 79.5199 10.4911C79.1342 10.6582 78.8064 10.7418 78.5364 10.7418ZM78.3628 8.36973C79.0185 8.02259 79.4685 7.63047 79.7128 7.19334C79.8285 7.01334 79.8863 6.86549 79.8863 6.74978C79.8735 6.62121 79.8156 6.56979 79.7128 6.5955C79.5971 6.60836 79.4814 6.65335 79.3656 6.73049C78.8514 7.06477 78.4657 7.57261 78.2085 8.25402C78.2085 8.3183 78.2214 8.35044 78.2471 8.35044C78.3114 8.37615 78.35 8.38258 78.3628 8.36973Z" fill="#1C1C1C"/>
</svg>
