<svg width="50" height="50" viewBox="0 0 50 50" fill="none" xmlns="http://www.w3.org/2000/svg">
<path d="M35.4141 24.5934C35.4141 23.8731 35.4141 23.5132 35.5224 23.1923C35.8374 22.2598 36.6678 21.8982 37.4997 21.5192C38.4349 21.0932 38.9024 20.8802 39.3657 20.8427C39.8918 20.8002 40.4186 20.9136 40.8682 21.1659C41.4643 21.5002 41.8799 22.1359 42.3055 22.6527C44.2709 25.0398 45.2534 26.2336 45.613 27.5498C45.9032 28.6119 45.9032 29.7227 45.613 30.7848C45.0886 32.7046 43.4318 34.314 42.2053 35.8036C41.578 36.5654 41.2643 36.9465 40.8682 37.1688C40.4186 37.4211 39.8918 37.5344 39.3657 37.4919C38.9024 37.4544 38.4349 37.2415 37.4997 36.8154C36.6678 36.4365 35.8374 36.0748 35.5224 35.1423C35.4141 34.8215 35.4141 34.4615 35.4141 33.7413V24.5934Z" stroke="#1C1C1C" stroke-width="1.875"/>
<path d="M14.5807 24.5935C14.5807 23.6868 14.5553 22.8718 13.8222 22.2343C13.5556 22.0025 13.2021 21.8414 12.4951 21.5193C11.5599 21.0935 11.0923 20.8806 10.629 20.8431C9.23887 20.7306 8.49098 21.6793 7.68933 22.6531C5.72396 25.0402 4.74127 26.2337 4.38169 27.55C4.09152 28.6123 4.09152 29.7231 4.38169 30.7852C4.90615 32.705 6.56306 34.3141 7.7895 35.8039C8.56258 36.7429 9.30108 37.5995 10.629 37.4923C11.0923 37.4548 11.5599 37.2416 12.4951 36.8158C13.2021 36.4937 13.5556 36.3327 13.8222 36.1008C14.5553 35.4633 14.5807 34.6485 14.5807 33.7416V24.5935Z" stroke="#1C1C1C" stroke-width="1.875"/>
<path d="M41.6693 21.8744V18.7494C41.6693 10.6952 34.2074 4.16602 25.0026 4.16602C15.7979 4.16602 8.33594 10.6952 8.33594 18.7494V21.8744" stroke="#1C1C1C" stroke-width="1.875" stroke-linecap="round" stroke-linejoin="round"/>
<path d="M41.6667 36.459C41.6667 45.834 33.3333 45.834 25 45.834" stroke="#1C1C1C" stroke-width="1.875" stroke-linecap="round" stroke-linejoin="round"/>
</svg>
