<svg width="28" height="28" viewBox="0 0 28 28" fill="none" xmlns="http://www.w3.org/2000/svg">
<path d="M4 22.1702V16.5627C4 12.4305 6.605 8.74424 10.503 7.36428L16.9754 5.07325C17.7916 4.78353 18.646 5.38964 18.646 6.25116C18.646 6.67049 18.4362 7.05932 18.0891 7.29185L16.8152 8.14193C18.6498 8.14193 20.2937 9.27792 20.9382 10.9971L22.7919 15.9337C23.2419 17.1307 22.9483 18.4802 22.0443 19.3836C21.4341 19.9936 20.6026 20.3404 19.7368 20.3404H19.6071C18.6117 20.3404 17.6658 19.8982 17.0288 19.132L15.7969 17.6568C15.3506 17.8131 14.8739 17.9007 14.3742 17.9007H14.3704C14.1301 17.9007 13.8937 17.8817 13.661 17.8436C13.5237 17.8207 13.3864 17.7902 13.2529 17.7559C12.1507 17.4585 11.2276 16.7343 10.667 15.766C10.4992 15.4763 10.1254 15.3734 9.8317 15.5449C9.53802 15.7164 9.43885 16.0862 9.61049 16.3797C10.5259 17.9617 12.2155 19.0482 14.1607 19.1206L15.9609 21.8195C16.1135 22.052 16.1974 22.3227 16.1974 22.5972C16.1974 23.371 15.5681 24 14.7938 24H5.83075C4.82002 24 4 23.1804 4 22.1702ZM16.5101 13.0213C16.6303 13.0213 16.7494 12.9977 16.8604 12.9517C16.9715 12.9057 17.0724 12.8383 17.1574 12.7534C17.2424 12.6684 17.3098 12.5676 17.3558 12.4566C17.4018 12.3456 17.4255 12.2266 17.4255 12.1065C17.4255 11.9863 17.4018 11.8673 17.3558 11.7563C17.3098 11.6453 17.2424 11.5445 17.1574 11.4595C17.0724 11.3746 16.9715 11.3072 16.8604 11.2612C16.7494 11.2152 16.6303 11.1916 16.5101 11.1916C16.3899 11.1916 16.2709 11.2152 16.1598 11.2612C16.0488 11.3072 15.9479 11.3746 15.8629 11.4595C15.7779 11.5445 15.7104 11.6453 15.6644 11.7563C15.6184 11.8673 15.5947 11.9863 15.5947 12.1065C15.5947 12.2266 15.6184 12.3456 15.6644 12.4566C15.7104 12.5676 15.7779 12.6684 15.8629 12.7534C15.9479 12.8383 16.0488 12.9057 16.1598 12.9517C16.2709 12.9977 16.3899 13.0213 16.5101 13.0213Z" fill="white"/>
</svg>
