<svg width="20" height="20" viewBox="0 0 20 20" fill="none" xmlns="http://www.w3.org/2000/svg">
<path d="M2.08594 9.99967C2.08594 6.26772 2.08594 4.40175 3.2453 3.24237C4.40468 2.08301 6.27065 2.08301 10.0026 2.08301C13.7345 2.08301 15.6005 2.08301 16.7599 3.24237C17.9193 4.40175 17.9193 6.26772 17.9193 9.99967C17.9193 13.7316 17.9193 15.5976 16.7599 16.757C15.6005 17.9163 13.7345 17.9163 10.0026 17.9163C6.27065 17.9163 4.40468 17.9163 3.2453 16.757C2.08594 15.5976 2.08594 13.7316 2.08594 9.99967Z" stroke="#E3E3E3" stroke-linejoin="round"/>
<path d="M13.75 10C13.75 12.0711 12.0711 13.75 10 13.75C7.92893 13.75 6.25 12.0711 6.25 10C6.25 7.92893 7.92893 6.25 10 6.25C12.0711 6.25 13.75 7.92893 13.75 10Z" stroke="#E3E3E3"/>
<path d="M14.5934 5.41699H14.5859" stroke="#E3E3E3" stroke-linecap="round" stroke-linejoin="round"/>
</svg>
