<svg width="20" height="20" viewBox="0 0 20 20" fill="none" xmlns="http://www.w3.org/2000/svg">
<path d="M3.7474 7.91699H3.33073C2.54505 7.91699 2.15222 7.91699 1.90814 8.16107C1.66406 8.40516 1.66406 8.79799 1.66406 9.58366V16.667C1.66406 17.4527 1.66406 17.8455 1.90814 18.0896C2.15222 18.3337 2.54505 18.3337 3.33073 18.3337H3.7474C4.53307 18.3337 4.9259 18.3337 5.16999 18.0896C5.41406 17.8455 5.41406 17.4527 5.41406 16.667V9.58366C5.41406 8.79799 5.41406 8.40516 5.16999 8.16107C4.9259 7.91699 4.53307 7.91699 3.7474 7.91699Z" stroke="#E3E3E3"/>
<path d="M5.41406 3.54199C5.41406 4.57753 4.5746 5.41699 3.53906 5.41699C2.50353 5.41699 1.66406 4.57753 1.66406 3.54199C1.66406 2.50646 2.50353 1.66699 3.53906 1.66699C4.5746 1.66699 5.41406 2.50646 5.41406 3.54199Z" stroke="#E3E3E3"/>
<path d="M10.2691 7.91699H9.58073C8.79506 7.91699 8.40223 7.91699 8.15814 8.16107C7.91406 8.40516 7.91406 8.79799 7.91406 9.58366V16.667C7.91406 17.4527 7.91406 17.8455 8.15814 18.0896C8.40223 18.3337 8.79506 18.3337 9.58073 18.3337H9.9974C10.7831 18.3337 11.1759 18.3337 11.42 18.0896C11.6641 17.8455 11.6641 17.4527 11.6641 16.667L11.6641 13.7504C11.6641 12.3697 12.1041 11.2504 13.404 11.2504C14.0538 11.2504 14.5807 11.8101 14.5807 12.5004V16.2504C14.5807 17.0361 14.5807 17.4289 14.8248 17.673C15.0688 17.9171 15.4617 17.9171 16.2474 17.9171H16.663C17.4485 17.9171 17.8412 17.9171 18.0853 17.6731C18.3294 17.4291 18.3295 17.0363 18.3296 16.2508L18.3308 11.6672C18.3308 9.59616 16.3611 7.91719 14.4114 7.91719C13.3015 7.91719 12.3113 8.46124 11.6641 9.31199C11.6641 8.78691 11.6641 8.52441 11.5501 8.32949C11.4778 8.20604 11.375 8.10327 11.2516 8.03105C11.0566 7.91699 10.7941 7.91699 10.2691 7.91699Z" stroke="#E3E3E3" stroke-linejoin="round"/>
</svg>
