<svg width="180" height="37" viewBox="0 0 180 37" fill="none" xmlns="http://www.w3.org/2000/svg">
<g clip-path="url(#clip0_2506_110963)">
<mask id="mask0_2506_110963" style="mask-type:luminance" maskUnits="userSpaceOnUse" x="153" y="0" width="27" height="37">
<path d="M168.009 25.5465C168.341 25.8859 168.703 26.1882 169.097 26.449H166.772C167.209 26.1838 167.622 25.8814 168.009 25.5465ZM167.179 29.0056V27.7355H172.976C175.352 27.7355 177.456 26.5113 178.728 24.6469V29.0056C178.728 32.0142 176.517 34.5026 173.67 34.8627C173.518 34.8746 173.368 34.8849 173.219 34.8849H172.421C169.486 34.6078 167.18 32.0794 167.18 29.0071M154.272 29.179V22.9084C155.835 25.794 158.799 27.7488 162.194 27.7488C162.335 27.7488 162.471 27.7458 162.609 27.737H165.935V29.0071C165.935 31.4362 167.119 33.5822 168.92 34.8849H159.8C156.756 34.8849 154.272 32.3269 154.272 29.179ZM154.388 19.0921C154.433 19.1692 154.472 19.2462 154.519 19.3203C155.275 20.5252 156.321 21.496 157.635 22.2089C159.185 23.0536 160.725 23.3219 161.531 23.4108V26.4313C157.779 26.1008 154.763 22.9973 154.387 19.0921M167.179 20.4541C167.179 18.2844 168.33 16.3844 170.042 15.3588V18.2621C170.042 20.3207 169.31 22.2044 168.106 23.6479C167.52 22.7291 167.179 21.6294 167.179 20.4541ZM168.906 24.6557C170.383 22.9692 171.285 20.7253 171.285 18.2621V14.803C171.817 14.64 172.375 14.5496 172.953 14.5496C176.138 14.5496 178.73 17.198 178.73 20.4526C178.73 23.7072 176.14 26.3527 172.953 26.3527C171.378 26.3527 169.948 25.7021 168.907 24.6543M158.197 21.0632C157.079 20.4526 156.191 19.6301 155.558 18.6119C154.858 17.4929 154.464 16.128 154.371 14.5422C155.115 14.637 156.394 14.8993 157.647 15.584C158.767 16.1917 159.655 17.0142 160.289 18.0309C160.986 19.1499 161.382 20.5193 161.473 22.1036C160.728 22.0043 159.45 21.7465 158.197 21.0617M162.778 14.5259H168.985C167.145 15.8212 165.933 17.9939 165.933 20.4511C165.933 21.9806 166.406 23.3975 167.203 24.5639C165.984 25.628 164.451 26.3053 162.778 26.4357V14.5273V14.5259ZM170.042 7.91734V13.0897C169.639 13.1816 169.221 13.232 168.794 13.232H163.974L170.042 7.91734ZM161.329 17.3255C160.576 16.1206 159.527 15.1498 158.213 14.4369C156.683 13.604 155.168 13.3298 154.349 13.2379V7.85213L161.533 14.2517V17.6797C161.464 17.5626 161.402 17.4396 161.33 17.3255M154.338 6.14479C154.745 3.41039 157.039 1.31179 159.8 1.31179H161.533V12.5547L154.337 6.14627L154.338 6.14479ZM162.78 1.31179H168.831C172.002 1.33402 174.575 3.99728 174.575 7.27412C174.575 9.63801 173.23 11.6847 171.288 12.6496V6.53013C171.288 6.28114 171.147 6.0529 170.929 5.94768C170.708 5.84245 170.447 5.8795 170.262 6.03956L162.78 12.5962V1.31327V1.31179ZM175.821 7.27412C175.821 4.80501 174.617 2.61896 172.785 1.31179H173.222C176.266 1.31179 178.75 3.86983 178.75 7.01476V16.3606C177.48 14.4769 175.371 13.2409 172.98 13.2409H172.768C174.611 11.9337 175.822 9.74472 175.822 7.27264M168.828 0.0283203H159.797C156.062 0.0283203 153.023 3.16288 153.023 7.01624V29.1775C153.023 33.0309 156.062 36.1654 159.797 36.1654H172.381C172.569 36.1832 172.761 36.1906 172.952 36.1906C173.239 36.1906 173.516 36.1728 173.795 36.1388C177.259 35.8364 179.993 32.8308 179.993 29.1775V20.8854C179.996 20.7564 180.001 20.6201 180.001 20.4911C180.001 20.3622 179.996 20.2259 179.993 20.0969V7.01624C179.993 3.16288 176.954 0.0283203 173.219 0.0283203H168.83H168.828Z" fill="white"/>
</mask>
<g mask="url(#mask0_2506_110963)">
<path d="M180.001 0.0283203H153.023V36.1906H180.001V0.0283203Z" fill="#1E1E1E"/>
</g>
<path d="M135.768 10.4886C138.638 10.4886 141.147 12.4301 141.971 15.2135H129.563C130.389 12.4301 132.897 10.4886 135.768 10.4886ZM125.461 17.1816C125.461 23.055 130.074 27.8139 135.768 27.8139C139.719 27.8139 143.313 25.4901 145.041 21.8249L145.376 21.1165H141.024L140.882 21.3062C139.648 22.932 137.773 23.8761 135.769 23.8761C132.899 23.8761 130.39 21.9361 129.564 19.1513H145.906L145.965 18.7289C146.038 18.2161 146.074 17.7004 146.074 17.1816C146.074 11.3082 141.461 6.54932 135.769 6.54932C130.077 6.54932 125.462 11.3082 125.462 17.1816" fill="#1E1E1E"/>
<path d="M104.734 17.1831C104.734 23.0565 109.348 27.8154 115.041 27.8154C119.842 27.8154 124.016 24.3889 125.086 19.5663L125.178 19.1513H121.246L121.199 19.301C120.318 22.0309 117.837 23.8761 115.041 23.8761C111.455 23.8761 108.552 20.8823 108.552 17.1831C108.552 13.4839 111.455 10.4901 115.041 10.4901C117.835 10.4901 120.317 12.3353 121.199 15.0652L121.246 15.2149H125.178L125.086 14.7999C124.016 9.97879 119.842 6.55078 115.041 6.55078C109.348 6.55078 104.734 11.3097 104.734 17.1831Z" fill="#1E1E1E"/>
<path d="M70.6127 17.1831C70.6127 13.4839 73.5162 10.4901 77.1022 10.4901C80.6881 10.4901 83.5902 13.4839 83.5902 17.1831C83.5902 20.8823 80.6881 23.8761 77.1022 23.8761C73.5162 23.8761 70.6127 20.8823 70.6127 17.1831ZM66.7969 17.1831C66.7969 23.0565 71.4086 27.8154 77.1022 27.8154C79.2428 27.8154 81.3188 27.1426 83.0615 25.8591L83.5902 25.4678V27.5072H87.4075V6.86648H83.5902V8.92062C81.7628 7.39113 79.4827 6.54932 77.1022 6.54932C71.4086 6.54932 66.7969 11.3082 66.7969 17.1816" fill="#1E1E1E"/>
<path d="M3.81725 17.183C3.81725 13.4838 6.71935 10.49 10.3053 10.49C13.8912 10.49 16.7933 13.4838 16.7933 17.183C16.7933 20.8823 13.8912 23.876 10.3053 23.876C6.71935 23.876 3.81725 20.8823 3.81725 17.183ZM0 0V27.5071H3.81725V25.4455C5.64471 26.975 7.92472 27.8153 10.3053 27.8153C15.9989 27.8153 20.612 23.0564 20.612 17.183C20.612 11.3096 15.9989 6.55071 10.3053 6.55071C8.16177 6.55071 6.09583 7.23246 4.34452 8.50852L3.81725 8.89237V0H0Z" fill="#1E1E1E"/>
<path d="M24.6099 6.86621H20.8516V27.5069H24.6099V6.86621Z" fill="#1E1E1E"/>
<path d="M93.9204 6.8546C90.3071 7.86685 87.7656 11.28 87.7656 15.1453V27.5057H91.6403V15.1453C91.6403 12.6272 93.6546 10.5479 96.0984 10.5479C98.5421 10.5479 100.556 12.6258 100.556 15.1453V27.5057H104.431V15.1453C104.431 11.28 101.891 7.86685 98.2764 6.8546C97.5652 6.65453 96.8354 6.55078 96.0984 6.55078C95.3613 6.55078 94.6301 6.65601 93.9204 6.8546Z" fill="#1E1E1E"/>
<path d="M28.7689 17.1831C28.7689 13.4839 31.6725 10.4901 35.2584 10.4901C38.8444 10.4901 41.7479 13.4839 41.7479 17.1831C41.7479 20.8823 38.8444 23.8761 35.2584 23.8761C31.6725 23.8761 28.7689 20.8823 28.7689 17.1831ZM24.9531 17.1831C24.9531 23.0565 29.5663 27.8154 35.2584 27.8154C40.9505 27.8154 45.5637 23.0565 45.5637 17.1831C45.5637 11.3097 40.952 6.55078 35.2584 6.55078C29.5649 6.55078 24.9531 11.3097 24.9531 17.1831Z" fill="#1E1E1E"/>
<path d="M49.7001 17.1828C49.7001 13.4836 52.6036 10.4898 56.1895 10.4898C59.7755 10.4898 62.6776 13.4836 62.6776 17.1828C62.6776 20.882 59.7741 23.8758 56.1895 23.8758C52.605 23.8758 49.7001 20.882 49.7001 17.1828ZM45.8828 17.1828C45.8828 20.6538 47.4933 23.7335 49.986 25.6735C49.4831 26.296 49.1225 27.043 48.9602 27.8626H48.9415L48.8927 28.2998V28.3175L48.8898 28.3264V28.3442L48.8883 28.3531V28.3576V28.3635V28.3724L48.8855 28.3902V28.3991L48.8797 28.4598V28.4776L48.8783 28.4835V28.5028L48.8725 28.5739V28.5828V28.5917V28.6006V28.6095V28.6184V28.6273V28.6362L48.8682 28.734V28.7429V28.8674V28.9948V29.0008L48.8725 29.0971V29.1238V29.1327V29.1416V29.1505V29.1594L48.8783 29.229V29.2379V29.2468V29.2557L48.8797 29.2646V29.2735L48.8855 29.3357V29.3446L48.8883 29.3624V29.3713V29.3787V29.3906V29.3995V29.4083V29.4172L48.8912 29.435L48.9401 29.8722H48.9587C49.4099 32.1413 51.3681 33.859 53.694 33.859H60.6935C61.2467 33.859 61.7121 34.3392 61.7121 34.9098C61.7121 35.0268 61.692 35.1424 61.6547 35.2521L61.4277 35.9102H65.4489L65.4992 35.4729C65.5179 35.2862 65.5294 35.098 65.5294 34.9083C65.5294 32.1635 63.3543 29.9197 60.6935 29.9197H53.694C53.263 29.9197 52.8837 29.6277 52.7386 29.2275L52.7343 29.2127V29.2068L52.73 29.2009V29.1949L52.7257 29.1905V29.1846L52.7243 29.1801V29.1771L52.7228 29.1742V29.1682L52.7185 29.1623V29.1564L52.7171 29.1505L52.7157 29.1445V29.1401L52.7128 29.1342V29.1282L52.7099 29.1223V29.1164L52.7085 29.1104V29.1045L52.7056 29.0986V29.0941V29.0882L52.7042 29.0823V29.0778L52.7013 29.0719V29.0615L52.6999 29.0556V29.0497L52.6984 29.0438V29.0393V29.0334L52.697 29.0275V29.0171V29.0112V29.0052L52.6955 29.0008V28.9948V28.9904V28.9785L52.6941 28.9726V28.9637V28.9622V28.9519V28.9459V28.94V28.9341V28.9178V28.9119V28.9015V28.8956V28.8837V28.8674V28.8615V28.8392V28.8333V28.8289V28.8051V28.8007V28.7888V28.7829V28.774V28.7562V28.7518V28.7459V28.7399V28.734L52.6955 28.7281V28.7222V28.7103L52.697 28.7044V28.6984V28.6925V28.6866V28.6821V28.6762L52.6984 28.6703V28.6658H52.6999V28.6555L52.7027 28.6495V28.6451V28.6421V28.6332L52.7056 28.6273V28.6214L52.707 28.6154V28.6095V28.6036L52.7099 28.5977V28.5932L52.7113 28.5873V28.5828L52.7142 28.5769V28.571L52.7171 28.5665V28.5621L52.7185 28.5606V28.5562L52.72 28.5502V28.5458L52.7243 28.5399L52.7257 28.5339V28.5295L52.7271 28.5236V28.5191L52.7315 28.5132V28.5087L52.7358 28.5028L52.7401 28.4895C52.8852 28.0878 53.2645 27.7973 53.6955 27.7973H56.1895C61.8817 27.7973 66.4948 23.0384 66.4948 17.165C66.4948 16.7827 66.4762 16.4047 66.4374 16.0327V6.84988H62.6776V8.9055C60.9062 7.42343 58.6491 6.53271 56.1895 6.53271C50.496 6.53271 45.8828 11.2916 45.8828 17.165" fill="#1E1E1E"/>
<path d="M69.1755 34.0073V36.1548H68.7891V34.0073H69.1755ZM68.8552 36.1548V35.808H70.095V36.1548H68.8552Z" fill="#1E1E1E"/>
<path d="M71.2417 33.5538C71.2417 33.6961 71.2273 33.8176 71.1986 33.9213C71.1684 34.0236 71.1181 34.1244 71.0463 34.2222H70.7188C70.8753 34.0266 70.9544 33.8413 70.9544 33.6664H70.7259V33.2114H71.2417V33.5523V33.5538Z" fill="#1E1E1E"/>
<path d="M72.488 34.0073V36.1548H72.1016V34.0073H72.488Z" fill="#1E1E1E"/>
<path d="M73.6605 36.1548H73.2812V34.0073H73.6634L74.8099 35.6969H74.6993V34.0073H75.0785V36.1548H74.6993L73.5499 34.4682H73.6605V36.1548Z" fill="#1E1E1E"/>
<path d="M76.2465 36.1548H75.8672V34.0073H76.2493L77.3958 35.6969H77.2852V34.0073H77.6645V36.1548H77.2852L76.1358 34.4682H76.2465V36.1548Z" fill="#1E1E1E"/>
<path d="M80.4645 35.0788C80.4645 35.2967 80.4185 35.4893 80.328 35.6568C80.2375 35.8228 80.111 35.9532 79.9501 36.0481C79.7892 36.1429 79.6039 36.1904 79.3927 36.1904C79.1815 36.1904 78.9976 36.1429 78.8367 36.0481C78.6758 35.9532 78.5508 35.8243 78.4617 35.6568C78.3712 35.4908 78.3281 35.2996 78.3281 35.0818C78.3281 34.8639 78.3727 34.6698 78.4617 34.5023C78.5537 34.3348 78.6787 34.2044 78.8382 34.111C78.9991 34.0162 79.1844 33.9688 79.3956 33.9688C79.6068 33.9688 79.7921 34.0162 79.9516 34.111C80.1125 34.2044 80.2375 34.3348 80.328 34.5008C80.4185 34.6668 80.4645 34.861 80.4645 35.0788ZM80.0608 35.0788C80.0608 34.9276 80.0335 34.7957 79.9803 34.6831C79.9257 34.572 79.8496 34.4845 79.749 34.4237C79.6513 34.3615 79.5321 34.3304 79.397 34.3304C79.262 34.3304 79.1442 34.3615 79.045 34.4237C78.9459 34.4845 78.8683 34.572 78.8137 34.6831C78.7606 34.7957 78.7333 34.9276 78.7333 35.0788C78.7333 35.23 78.7606 35.3634 78.8137 35.4775C78.8669 35.5901 78.9445 35.6761 79.045 35.7369C79.1456 35.7976 79.262 35.8287 79.397 35.8287C79.5321 35.8287 79.6513 35.7976 79.749 35.7354C79.8481 35.6731 79.9243 35.5872 79.9803 35.4745C80.0335 35.3619 80.0608 35.23 80.0608 35.0788Z" fill="#1E1E1E"/>
<path d="M81.6287 36.1548L80.7969 34.0073H81.2078L81.6905 35.2434C81.7135 35.3071 81.7379 35.3723 81.7595 35.4405C81.781 35.5087 81.804 35.5872 81.827 35.6717C81.8543 35.5783 81.8787 35.4968 81.9031 35.4286C81.929 35.3604 81.9505 35.2982 81.9692 35.2434L82.4462 34.0073H82.847L82.0267 36.1548H81.6273H81.6287Z" fill="#1E1E1E"/>
<path d="M83.2652 36.1548H82.8672L83.6631 34.0073H84.0596L84.8556 36.1548H84.4475L84.2694 35.6583H83.4462L83.2652 36.1548ZM83.8111 34.6476L83.5582 35.3412H84.1588L83.9045 34.6476C83.8973 34.6179 83.8872 34.5883 83.8772 34.5601C83.8671 34.532 83.8614 34.5068 83.8599 34.4831C83.8556 34.5023 83.8484 34.529 83.8398 34.5586C83.8298 34.5898 83.8211 34.6194 83.8111 34.6476Z" fill="#1E1E1E"/>
<path d="M85.0469 34.3541V34.0073H86.7264V34.3541H85.0469ZM86.0798 34.1867V36.1548H85.6934V34.1867H86.0798Z" fill="#1E1E1E"/>
<path d="M87.7053 34.0073V36.1548H87.3203V34.0073H87.7053Z" fill="#1E1E1E"/>
<path d="M90.5035 35.0788C90.5035 35.2967 90.4576 35.4893 90.3671 35.6568C90.2765 35.8228 90.1501 35.9532 89.9892 36.0481C89.8283 36.1429 89.643 36.1904 89.4318 36.1904C89.2206 36.1904 89.0367 36.1429 88.8758 36.0481C88.7149 35.9532 88.5899 35.8243 88.5008 35.6568C88.4103 35.4908 88.3672 35.2996 88.3672 35.0818C88.3672 34.8639 88.4117 34.6698 88.5008 34.5023C88.5928 34.3348 88.7177 34.2044 88.8772 34.111C89.0381 34.0162 89.2235 33.9688 89.4346 33.9688C89.6458 33.9688 89.8312 34.0162 89.9906 34.111C90.1515 34.2044 90.2765 34.3348 90.3671 34.5008C90.4576 34.6668 90.5035 34.861 90.5035 35.0788ZM90.0998 35.0788C90.0998 34.9276 90.0725 34.7957 90.0194 34.6831C89.9648 34.572 89.8886 34.4845 89.7881 34.4237C89.6904 34.3615 89.5711 34.3304 89.4361 34.3304C89.301 34.3304 89.1832 34.3615 89.0841 34.4237C88.985 34.4845 88.9074 34.572 88.8528 34.6831C88.7996 34.7957 88.7723 34.9276 88.7723 35.0788C88.7723 35.23 88.7996 35.3634 88.8528 35.4775C88.9059 35.5901 88.9835 35.6761 89.0841 35.7369C89.1847 35.7976 89.301 35.8287 89.4361 35.8287C89.5711 35.8287 89.6904 35.7976 89.7881 35.7354C89.8872 35.6731 89.9633 35.5872 90.0194 35.4745C90.0725 35.3619 90.0998 35.23 90.0998 35.0788Z" fill="#1E1E1E"/>
<path d="M91.5512 36.1548H91.1719V34.0073H91.554L92.7005 35.6969H92.5899V34.0073H92.9692V36.1548H92.5899L91.4405 34.4682H91.5512V36.1548Z" fill="#1E1E1E"/>
<path d="M95.26 34.0073V36.1548H94.875V34.0073H95.26ZM95.7471 35.4153H95.1681V35.0803H95.6652C95.7973 35.0803 95.8993 35.0477 95.9683 34.9825C96.0373 34.9173 96.0732 34.8254 96.0732 34.7069C96.0732 34.5883 96.0387 34.4994 95.9683 34.4386C95.8993 34.3749 95.8002 34.3438 95.6709 34.3438H95.1307V34.0088H95.7471C95.895 34.0088 96.0243 34.0399 96.1321 34.0977C96.2413 34.157 96.326 34.2385 96.3864 34.3423C96.4467 34.446 96.4769 34.5705 96.4769 34.7098C96.4769 34.8491 96.4467 34.9692 96.3864 35.0759C96.326 35.1811 96.2413 35.2656 96.1321 35.3249C96.0243 35.3856 95.895 35.4138 95.7471 35.4138V35.4153Z" fill="#1E1E1E"/>
<path d="M99.1129 35.0788C99.1129 35.2967 99.0669 35.4893 98.9764 35.6568C98.8859 35.8228 98.7595 35.9532 98.5986 36.0481C98.4377 36.1429 98.2523 36.1904 98.0411 36.1904C97.8299 36.1904 97.6461 36.1429 97.4851 36.0481C97.3242 35.9532 97.1992 35.8243 97.1102 35.6568C97.0197 35.4908 96.9766 35.2996 96.9766 35.0818C96.9766 34.8639 97.0211 34.6698 97.1102 34.5023C97.2021 34.3348 97.3271 34.2044 97.4866 34.111C97.6475 34.0162 97.8328 33.9688 98.044 33.9688C98.2552 33.9688 98.4405 34.0162 98.6 34.111C98.7609 34.2044 98.8859 34.3348 98.9764 34.5008C99.0669 34.6668 99.1129 34.861 99.1129 35.0788ZM98.7092 35.0788C98.7092 34.9276 98.6819 34.7957 98.6287 34.6831C98.5741 34.572 98.498 34.4845 98.3974 34.4237C98.2997 34.3615 98.1805 34.3304 98.0455 34.3304C97.9104 34.3304 97.7926 34.3615 97.6935 34.4237C97.5943 34.4845 97.5168 34.572 97.4622 34.6831C97.409 34.7957 97.3817 34.9276 97.3817 35.0788C97.3817 35.23 97.409 35.3634 97.4622 35.4775C97.5153 35.5901 97.5929 35.6761 97.6935 35.7369C97.794 35.7976 97.9104 35.8287 98.0455 35.8287C98.1805 35.8287 98.2997 35.7976 98.3974 35.7354C98.4966 35.6731 98.5727 35.5872 98.6287 35.4745C98.6819 35.3619 98.7092 35.23 98.7092 35.0788Z" fill="#1E1E1E"/>
<path d="M99.7656 35.3708V34.0073H100.152V35.3471C100.152 35.5012 100.194 35.6213 100.279 35.7028C100.362 35.7858 100.483 35.8273 100.638 35.8273C100.793 35.8273 100.915 35.7873 101.001 35.7028C101.084 35.6183 101.128 35.5012 101.128 35.3471V34.0073H101.513V35.3708C101.513 35.5368 101.478 35.6821 101.406 35.8036C101.333 35.9251 101.232 36.02 101.103 36.0867C100.972 36.1548 100.817 36.1889 100.638 36.1889C100.458 36.1889 100.307 36.1548 100.177 36.0881C100.046 36.0229 99.9438 35.9266 99.8734 35.8051C99.803 35.6806 99.7656 35.5368 99.7656 35.3693V35.3708Z" fill="#1E1E1E"/>
<path d="M102.674 36.1548H102.289V34.0073H103.131C103.381 34.0073 103.575 34.0681 103.714 34.1852C103.855 34.3023 103.924 34.4668 103.924 34.6772C103.924 34.821 103.891 34.9425 103.823 35.0433C103.757 35.1441 103.658 35.2211 103.526 35.273L103.946 36.1548H103.522L103.147 35.353H102.673V36.1548H102.674ZM102.674 34.3438V35.0211H103.131C103.253 35.0211 103.349 34.9914 103.417 34.9292C103.486 34.8684 103.519 34.7854 103.519 34.6772C103.519 34.569 103.486 34.4875 103.417 34.4297C103.349 34.3734 103.253 34.3438 103.131 34.3438H102.674Z" fill="#1E1E1E"/>
<path d="M106.112 34.0073V36.1548H105.727V34.0073H106.112ZM105.793 36.1548V35.808H107.033V36.1548H105.793Z" fill="#1E1E1E"/>
<path d="M109.018 36.1548H107.648V34.0073H109.018V34.3541H107.898L108.035 34.2341V34.9069H108.916V35.2389H108.035V35.9281L107.898 35.808H109.018V36.1548Z" fill="#1E1E1E"/>
<path d="M111.244 34.0073V36.1548H110.859V34.0073H111.244ZM111.734 35.2404H111.128V34.9247H111.713C111.821 34.9247 111.901 34.898 111.957 34.8462C112.013 34.7943 112.042 34.7202 112.042 34.6239C112.042 34.5275 112.012 34.4608 111.953 34.4119C111.894 34.363 111.81 34.3393 111.7 34.3393H111.114V34.0073H111.733C111.953 34.0073 112.124 34.0592 112.247 34.1644C112.371 34.2696 112.435 34.4104 112.435 34.5898C112.435 34.7202 112.404 34.8284 112.339 34.9158C112.275 35.0018 112.18 35.0655 112.052 35.1055V35.0655C112.19 35.0966 112.292 35.1544 112.364 35.2419C112.435 35.3293 112.47 35.439 112.47 35.5753C112.47 35.6969 112.441 35.8021 112.385 35.8881C112.331 35.9755 112.247 36.0407 112.141 36.0881C112.033 36.1341 111.904 36.1563 111.753 36.1563H111.117V35.8243H111.736C111.846 35.8243 111.93 35.8006 111.989 35.7473C112.048 35.6969 112.078 35.6228 112.078 35.5279C112.078 35.439 112.048 35.3679 111.987 35.3175C111.928 35.2686 111.845 35.2419 111.736 35.2419L111.734 35.2404Z" fill="#1E1E1E"/>
<path d="M113.51 34.0073V36.1548H113.125V34.0073H113.51Z" fill="#1E1E1E"/>
<path d="M115.666 36.1548H114.297V34.0073H115.666V34.3541H114.547L114.683 34.2341V34.9069H115.564V35.2389H114.683V35.9281L114.547 35.808H115.666V36.1548Z" fill="#1E1E1E"/>
<path d="M116.77 36.1548H116.391V34.0073H116.773L117.919 35.6969H117.809V34.0073H118.188V36.1548H117.809L116.659 34.4682H116.77V36.1548Z" fill="#1E1E1E"/>
<path d="M118.914 35.5296V35.2124H119.887V35.5296H118.914Z" fill="#1E1E1E"/>
<path d="M121.986 36.1546H120.617V34.0071H121.986V34.3539H120.867L121.004 34.2338V34.9067H121.884V35.2387H121.004V35.9278L120.867 35.8078H121.986V36.1546ZM121.124 33.8559H120.834L121.106 33.3994H121.484L121.758 33.8559H121.469L121.297 33.5639L121.124 33.8559Z" fill="#1E1E1E"/>
<path d="M122.516 34.3541V34.0073H124.195V34.3541H122.516ZM123.549 34.1867V36.1548H123.162V34.1867H123.549Z" fill="#1E1E1E"/>
<path d="M125.174 36.1548H124.789V34.0073H125.631C125.881 34.0073 126.075 34.0681 126.214 34.1852C126.355 34.3023 126.424 34.4668 126.424 34.6772C126.424 34.821 126.391 34.9425 126.323 35.0433C126.257 35.1441 126.158 35.2211 126.026 35.273L126.446 36.1548H126.022L125.647 35.353H125.173V36.1548H125.174ZM125.174 34.3438V35.0211H125.631C125.753 35.0211 125.849 34.9914 125.917 34.9292C125.986 34.8684 126.019 34.7854 126.019 34.6772C126.019 34.569 125.986 34.4875 125.917 34.4297C125.849 34.3734 125.753 34.3438 125.631 34.3438H125.174Z" fill="#1E1E1E"/>
<path d="M128.486 36.1548H127.117V34.0073H128.486V34.3541H127.367L127.504 34.2341V34.9069H128.384V35.2389H127.504V35.9281L127.367 35.808H128.486V36.1548Z" fill="#1E1E1E"/>
<path d="M130.5 36.1548H130.102L130.897 34.0073H131.294L132.09 36.1548H131.682L131.504 35.6583H130.681L130.5 36.1548ZM131.045 34.6476L130.793 35.3412H131.393L131.139 34.6476C131.132 34.6179 131.122 34.5883 131.112 34.5601C131.101 34.532 131.096 34.5068 131.094 34.4831C131.09 34.5023 131.083 34.529 131.074 34.5586C131.064 34.5898 131.056 34.6194 131.045 34.6476Z" fill="#1E1E1E"/>
<path d="M133.051 36.1548H132.672V34.0073H133.054L134.201 35.6969H134.09V34.0073H134.469V36.1548H134.09L132.941 34.4682H133.051V36.1548Z" fill="#1E1E1E"/>
<path d="M135.651 34.0073V36.1548H135.266V34.0073H135.651Z" fill="#1E1E1E"/>
<path d="M136.812 36.1548H136.438V34.0073H136.812L137.525 35.7161L138.236 34.0073H138.617V36.1548H138.242V35.2226C138.242 35.15 138.243 35.0877 138.245 35.0359C138.246 34.9855 138.249 34.9395 138.251 34.901C138.252 34.8625 138.256 34.8225 138.264 34.7839L137.702 36.1563H137.347L136.788 34.7884C136.8 34.8536 136.805 34.9351 136.808 35.0359C136.811 35.1352 136.812 35.2523 136.812 35.3871V36.1563V36.1548Z" fill="#1E1E1E"/>
<path d="M139.593 36.1548H139.195L139.991 34.0073H140.388L141.184 36.1548H140.776L140.598 35.6583H139.774L139.593 36.1548ZM140.139 34.6476L139.886 35.3412H140.487L140.233 34.6476C140.225 34.6179 140.215 34.5883 140.205 34.5601C140.195 34.532 140.189 34.5068 140.188 34.4831C140.184 34.5023 140.177 34.529 140.168 34.5586C140.158 34.5898 140.149 34.6194 140.139 34.6476Z" fill="#1E1E1E"/>
<path d="M142.151 34.0073V36.1548H141.766V34.0073H142.151ZM141.832 36.1548V35.808H143.072V36.1548H141.832Z" fill="#1E1E1E"/>
</g>
<defs>
<clipPath id="clip0_2506_110963">
<rect width="180" height="36.1905" fill="white"/>
</clipPath>
</defs>
</svg>
