<svg width="260" height="52" viewBox="0 0 260 52" fill="none" xmlns="http://www.w3.org/2000/svg">
<g clip-path="url(#clip0_3104_114021)">
<mask id="mask0_3104_114021" style="mask-type:luminance" maskUnits="userSpaceOnUse" x="221" y="0" width="39" height="52">
<path d="M242.678 36.7056C243.157 37.1932 243.68 37.6277 244.249 38.0025H240.891C241.522 37.6213 242.117 37.1869 242.678 36.7056ZM241.478 41.6758V39.8508H249.852C253.284 39.8508 256.322 38.0919 258.161 35.413V41.6758C258.161 45.9987 254.967 49.5741 250.854 50.0916C250.634 50.1086 250.418 50.1235 250.202 50.1235H249.051C244.811 49.7253 241.48 46.0924 241.48 41.678M222.835 41.925V32.9151C225.092 37.0612 229.374 39.87 234.277 39.87C234.481 39.87 234.678 39.8658 234.877 39.853H239.681V41.678C239.681 45.1682 241.391 48.2517 243.993 50.1235H230.82C226.423 50.1235 222.835 46.448 222.835 41.925ZM223.003 27.4317C223.067 27.5424 223.123 27.6531 223.192 27.7596C224.283 29.4909 225.794 30.8857 227.693 31.91C229.932 33.1238 232.156 33.5092 233.321 33.637V37.9769C227.9 37.502 223.544 33.0429 223.001 27.4317M241.478 29.3887C241.478 26.2711 243.14 23.5411 245.614 22.0675V26.2392C245.614 29.197 244.556 31.9036 242.817 33.9777C241.97 32.6574 241.478 31.0774 241.478 29.3887ZM243.973 35.4258C246.106 33.0024 247.409 29.7784 247.409 26.2392V21.2689C248.177 21.0347 248.984 20.9048 249.818 20.9048C254.419 20.9048 258.163 24.7102 258.163 29.3865C258.163 34.0629 254.421 37.864 249.818 37.864C247.544 37.864 245.477 36.9292 243.975 35.4236M228.504 30.2639C226.89 29.3865 225.607 28.2047 224.692 26.7417C223.681 25.1339 223.113 23.1727 222.978 20.8941C224.053 21.0304 225.9 21.4073 227.709 22.3912C229.328 23.2643 230.61 24.4461 231.526 25.907C232.532 27.5147 233.105 29.4824 233.236 31.7588C232.161 31.6161 230.314 31.2456 228.504 30.2618M235.122 20.8707H244.087C241.428 22.7319 239.679 25.8537 239.679 29.3844C239.679 31.582 240.362 33.6178 241.514 35.2937C239.752 36.8227 237.537 37.7959 235.122 37.9833V20.8728V20.8707ZM245.614 11.3753V18.8072C245.031 18.9393 244.427 19.0117 243.811 19.0117H236.848L245.614 11.3753ZM233.028 24.8933C231.941 23.162 230.426 21.7672 228.527 20.7429C226.317 19.5462 224.13 19.1522 222.947 19.0202V11.2816L233.323 20.4768V25.4023C233.223 25.234 233.134 25.0573 233.03 24.8933M222.93 8.82844C223.517 4.89953 226.831 1.88418 230.82 1.88418H233.323V18.0385L222.928 8.83057L222.93 8.82844ZM235.124 1.88418H243.865C248.445 1.91612 252.161 5.74281 252.161 10.4511C252.161 13.8477 250.219 16.7885 247.413 18.1748V9.38211C247.413 9.02436 247.21 8.69642 246.894 8.54522C246.575 8.39403 246.199 8.44726 245.932 8.67725L235.124 18.0981V1.88631V1.88418ZM253.961 10.4511C253.961 6.90339 252.222 3.76239 249.576 1.88418H250.207C254.604 1.88418 258.192 5.55968 258.192 10.0785V23.507C256.357 20.8004 253.311 19.0244 249.858 19.0244H249.551C252.213 17.1462 253.963 14.001 253.963 10.449M243.861 0.0400391H230.816C225.42 0.0400391 221.031 4.54391 221.031 10.0806V41.9228C221.031 47.4595 225.42 51.9634 230.816 51.9634H248.993C249.264 51.9889 249.54 51.9996 249.816 51.9996C250.231 51.9996 250.632 51.974 251.035 51.9251C256.038 51.4906 259.987 47.172 259.987 41.9228V30.0083C259.991 29.8231 259.999 29.6272 259.999 29.4419C259.999 29.2566 259.991 29.0607 259.987 28.8755V10.0806C259.987 4.54391 255.598 0.0400391 250.202 0.0400391H243.863H243.861Z" fill="white"/>
</mask>
<g mask="url(#mask0_3104_114021)">
<path d="M259.999 0.0400391H221.031V51.9996H259.999V0.0400391Z" fill="white"/>
</g>
<path d="M196.106 15.0703C200.253 15.0703 203.876 17.86 205.067 21.8592H187.143C188.337 17.86 191.96 15.0703 196.106 15.0703ZM181.219 24.6871C181.219 33.1263 187.882 39.9641 196.106 39.9641C201.813 39.9641 207.005 36.625 209.502 31.3588L209.985 30.3409H203.699L203.494 30.6135C201.711 32.9495 199.003 34.306 196.108 34.306C191.962 34.306 188.339 31.5185 187.146 27.5172H210.751L210.836 26.9103C210.942 26.1735 210.994 25.4324 210.994 24.6871C210.994 16.2479 204.33 9.41016 196.108 9.41016C187.886 9.41016 181.221 16.2479 181.221 24.6871" fill="white"/>
<path d="M151.281 24.6891C151.281 33.1282 157.945 39.966 166.169 39.966C173.104 39.966 179.133 35.0426 180.679 28.1133L180.811 27.517H175.132L175.063 27.7321C173.791 31.6546 170.207 34.3058 166.169 34.3058C160.989 34.3058 156.795 30.0043 156.795 24.6891C156.795 19.3739 160.989 15.0723 166.169 15.0723C170.205 15.0723 173.789 17.7235 175.063 21.646L175.132 21.8611H180.811L180.679 21.2648C179.133 14.3376 173.104 9.41211 166.169 9.41211C157.945 9.41211 151.281 16.2499 151.281 24.6891Z" fill="white"/>
<path d="M101.988 24.6892C101.988 19.374 106.182 15.0725 111.362 15.0725C116.542 15.0725 120.734 19.374 120.734 24.6892C120.734 30.0044 116.542 34.306 111.362 34.306C106.182 34.306 101.988 30.0044 101.988 24.6892ZM96.4766 24.6892C96.4766 33.1284 103.138 39.9662 111.362 39.9662C114.454 39.9662 117.453 38.9994 119.97 37.1553L120.734 36.5931V39.5233H126.247V9.86587H120.734V12.8173C118.094 10.6197 114.801 9.41016 111.362 9.41016C103.138 9.41016 96.4766 16.2479 96.4766 24.6871" fill="white"/>
<path d="M5.51381 24.6893C5.51381 19.3741 9.70572 15.0725 14.8854 15.0725C20.0651 15.0725 24.257 19.3741 24.257 24.6893C24.257 30.0045 20.0651 34.3061 14.8854 34.3061C9.70572 34.3061 5.51381 30.0045 5.51381 24.6893ZM0 0V39.5233H5.51381V36.5612C8.15347 38.7588 11.4468 39.9663 14.8854 39.9663C23.1095 39.9663 29.7729 33.1285 29.7729 24.6893C29.7729 16.2501 23.1095 9.41234 14.8854 9.41234C11.7892 9.41234 8.80508 10.3919 6.27541 12.2254L5.51381 12.7769V0H0Z" fill="white"/>
<path d="M35.5537 9.86621H30.125V39.5236H35.5537V9.86621Z" fill="white"/>
<path d="M135.664 9.84865C130.444 11.3031 126.773 16.2073 126.773 21.761V39.521H132.37V21.761C132.37 18.143 135.28 15.1553 138.81 15.1553C142.34 15.1553 145.249 18.1409 145.249 21.761V39.521H150.846V21.761C150.846 16.2073 147.177 11.3031 141.956 9.84865C140.928 9.56117 139.874 9.41211 138.81 9.41211C137.745 9.41211 136.689 9.5633 135.664 9.84865Z" fill="white"/>
<path d="M41.5586 24.6891C41.5586 19.3739 45.7526 15.0723 50.9323 15.0723C56.112 15.0723 60.306 19.3739 60.306 24.6891C60.306 30.0043 56.112 34.3058 50.9323 34.3058C45.7526 34.3058 41.5586 30.0043 41.5586 24.6891ZM36.0469 24.6891C36.0469 33.1282 42.7103 39.966 50.9323 39.966C59.1543 39.966 65.8177 33.1282 65.8177 24.6891C65.8177 16.2499 59.1563 9.41211 50.9323 9.41211C42.7083 9.41211 36.0469 16.2499 36.0469 24.6891Z" fill="white"/>
<path d="M71.7873 24.6892C71.7873 19.374 75.9812 15.0725 81.1609 15.0725C86.3406 15.0725 90.5326 19.374 90.5326 24.6892C90.5326 30.0044 86.3386 34.306 81.1609 34.306C75.9833 34.306 71.7873 30.0044 71.7873 24.6892ZM66.2734 24.6892C66.2734 29.6765 68.5997 34.1016 72.2002 36.8891C71.4739 37.7835 70.953 38.8567 70.7185 40.0343H70.6915L70.621 40.6625V40.6881L70.6168 40.7009V40.7264L70.6148 40.7392V40.7456V40.7541V40.7669L70.6106 40.7924V40.8052L70.6023 40.8925V40.9181L70.6002 40.9266V40.9543L70.5919 41.0565V41.0693V41.082V41.0948V41.1076V41.1204V41.1331V41.1459L70.5857 41.2865V41.2992V41.4781V41.6613V41.6698L70.5919 41.8082V41.8465V41.8593V41.8721V41.8849V41.8976L70.6002 41.9977V42.0105V42.0233V42.036L70.6023 42.0488V42.0616L70.6106 42.151V42.1638L70.6148 42.1894V42.2021V42.2128V42.2298V42.2426V42.2554V42.2682L70.6189 42.2937L70.6895 42.9219H70.7164C71.3681 46.1822 74.1966 48.6502 77.5563 48.6502H87.6667C88.4657 48.6502 89.138 49.3402 89.138 50.16C89.138 50.3283 89.109 50.4944 89.055 50.652L88.7271 51.5975H94.5356L94.6082 50.9693C94.6352 50.7009 94.6518 50.4305 94.6518 50.1579C94.6518 46.2141 91.51 42.9901 87.6667 42.9901H77.5563C76.9338 42.9901 76.3859 42.5706 76.1763 41.9956L76.1701 41.9743V41.9658L76.1639 41.9573V41.9487L76.1576 41.9424V41.9338L76.1556 41.9274V41.9232L76.1535 41.9189V41.9104L76.1473 41.9019V41.8934L76.1452 41.8849L76.1431 41.8763V41.8699L76.139 41.8614V41.8529L76.1348 41.8444V41.8359L76.1327 41.8274V41.8188L76.1286 41.8103V41.8039V41.7954L76.1265 41.7869V41.7805L76.1224 41.772V41.7571L76.1203 41.7486V41.74L76.1182 41.7315V41.7251V41.7166L76.1161 41.7081V41.6932V41.6847V41.6762L76.114 41.6698V41.6613V41.6549V41.6378L76.112 41.6293V41.6165V41.6144V41.5995V41.591V41.5825V41.5739V41.5505V41.542V41.5271V41.5186V41.5015V41.4781V41.4696V41.4377V41.4291V41.4228V41.3887V41.3823V41.3653V41.3567V41.344V41.3184V41.312V41.3035V41.295V41.2865L76.114 41.278V41.2694V41.2524L76.1161 41.2439V41.2354V41.2268V41.2183V41.2119V41.2034L76.1182 41.1949V41.1885H76.1203V41.1736L76.1244 41.1651V41.1587V41.1544V41.1417L76.1286 41.1331V41.1246L76.1306 41.1161V41.1076V41.0991L76.1348 41.0906V41.0842L76.1369 41.0756V41.0693L76.141 41.0607V41.0522L76.1452 41.0458V41.0394L76.1473 41.0373V41.0309L76.1493 41.0224V41.016L76.1556 41.0075L76.1576 40.999V40.9926L76.1597 40.9841V40.9777L76.1659 40.9692V40.9628L76.1722 40.9543L76.1784 40.9351C76.388 40.358 76.9358 39.9406 77.5584 39.9406H81.1609C89.3829 39.9406 96.0464 33.1028 96.0464 24.6637C96.0464 24.1143 96.0194 23.5712 95.9634 23.0367V9.84243H90.5326V12.796C87.9738 10.6665 84.7137 9.38672 81.1609 9.38672C72.9369 9.38672 66.2734 16.2245 66.2734 24.6637" fill="white"/>
<path d="M99.9176 48.8633V51.9489H99.3594V48.8633H99.9176ZM99.4548 51.9489V51.4506H101.246V51.9489H99.4548Z" fill="white"/>
<path d="M102.904 48.2116C102.904 48.4161 102.883 48.5907 102.842 48.7398C102.798 48.8867 102.725 49.0315 102.622 49.172H102.148C102.375 48.8909 102.489 48.6248 102.489 48.3735H102.159V47.7197H102.904V48.2095V48.2116Z" fill="white"/>
<path d="M104.707 48.8633V51.9489H104.148V48.8633H104.707Z" fill="white"/>
<path d="M106.399 51.9489H105.852V48.8633H106.404L108.06 51.2909H107.9V48.8633H108.448V51.9489H107.9L106.24 49.5256H106.399V51.9489Z" fill="white"/>
<path d="M110.134 51.9489H109.586V48.8633H110.138L111.794 51.2909H111.634V48.8633H112.182V51.9489H111.634L109.974 49.5256H110.134V51.9489Z" fill="white"/>
<path d="M116.226 50.4026C116.226 50.7156 116.16 50.9925 116.029 51.2331C115.899 51.4716 115.716 51.659 115.484 51.7953C115.251 51.9316 114.983 51.9997 114.678 51.9997C114.373 51.9997 114.108 51.9316 113.875 51.7953C113.643 51.659 113.462 51.4737 113.334 51.2331C113.203 50.9946 113.141 50.7199 113.141 50.4069C113.141 50.0938 113.205 49.8149 113.334 49.5742C113.466 49.3336 113.647 49.1462 113.877 49.012C114.11 48.8758 114.377 48.8076 114.683 48.8076C114.988 48.8076 115.255 48.8758 115.486 49.012C115.718 49.1462 115.899 49.3336 116.029 49.5721C116.16 49.8106 116.226 50.0896 116.226 50.4026ZM115.643 50.4026C115.643 50.1854 115.604 49.9959 115.527 49.834C115.448 49.6743 115.338 49.5487 115.193 49.4614C115.052 49.3719 114.88 49.3272 114.685 49.3272C114.49 49.3272 114.319 49.3719 114.176 49.4614C114.033 49.5487 113.921 49.6743 113.842 49.834C113.765 49.9959 113.726 50.1854 113.726 50.4026C113.726 50.6198 113.765 50.8115 113.842 50.9754C113.919 51.1373 114.031 51.2608 114.176 51.3481C114.321 51.4354 114.49 51.4801 114.685 51.4801C114.88 51.4801 115.052 51.4354 115.193 51.346C115.336 51.2565 115.446 51.133 115.527 50.9712C115.604 50.8093 115.643 50.6198 115.643 50.4026Z" fill="white"/>
<path d="M117.905 51.9489L116.703 48.8633H117.297L117.994 50.6393C118.027 50.7308 118.062 50.8245 118.094 50.9225C118.125 51.0205 118.158 51.1333 118.191 51.2547C118.23 51.1205 118.266 51.0034 118.301 50.9055C118.338 50.8075 118.37 50.7181 118.396 50.6393L119.085 48.8633H119.664L118.479 51.9489H117.903H117.905Z" fill="white"/>
<path d="M120.27 51.9489H119.695L120.845 48.8633H121.418L122.567 51.9489H121.978L121.721 51.2355H120.532L120.27 51.9489ZM121.059 49.7832L120.693 50.7798H121.561L121.194 49.7832C121.183 49.7406 121.169 49.698 121.154 49.6576C121.14 49.6171 121.131 49.5809 121.129 49.5468C121.123 49.5745 121.113 49.6129 121.1 49.6554C121.086 49.7002 121.073 49.7428 121.059 49.7832Z" fill="white"/>
<path d="M122.844 49.3616V48.8633H125.27V49.3616H122.844ZM124.336 49.1209V51.9489H123.778V49.1209H124.336Z" fill="white"/>
<path d="M126.689 48.8633V51.9489H126.133V48.8633H126.689Z" fill="white"/>
<path d="M130.726 50.4026C130.726 50.7156 130.66 50.9925 130.529 51.2331C130.399 51.4716 130.216 51.659 129.984 51.7953C129.751 51.9316 129.483 51.9997 129.178 51.9997C128.873 51.9997 128.608 51.9316 128.375 51.7953C128.143 51.659 127.962 51.4737 127.834 51.2331C127.703 50.9946 127.641 50.7199 127.641 50.4069C127.641 50.0938 127.705 49.8149 127.834 49.5742C127.966 49.3336 128.147 49.1462 128.377 49.012C128.61 48.8758 128.877 48.8076 129.183 48.8076C129.488 48.8076 129.755 48.8758 129.986 49.012C130.218 49.1462 130.399 49.3336 130.529 49.5721C130.66 49.8106 130.726 50.0896 130.726 50.4026ZM130.143 50.4026C130.143 50.1854 130.104 49.9959 130.027 49.834C129.948 49.6743 129.838 49.5487 129.693 49.4614C129.552 49.3719 129.38 49.3272 129.185 49.3272C128.99 49.3272 128.819 49.3719 128.676 49.4614C128.533 49.5487 128.421 49.6743 128.342 49.834C128.265 49.9959 128.226 50.1854 128.226 50.4026C128.226 50.6198 128.265 50.8115 128.342 50.9754C128.419 51.1373 128.531 51.2608 128.676 51.3481C128.821 51.4354 128.99 51.4801 129.185 51.4801C129.38 51.4801 129.552 51.4354 129.693 51.346C129.836 51.2565 129.946 51.133 130.027 50.9712C130.104 50.8093 130.143 50.6198 130.143 50.4026Z" fill="white"/>
<path d="M132.235 51.9489H131.688V48.8633H132.239L133.896 51.2909H133.736V48.8633H134.284V51.9489H133.736L132.076 49.5256H132.235V51.9489Z" fill="white"/>
<path d="M137.595 48.8633V51.9489H137.039V48.8633H137.595ZM138.299 50.8863H137.462V50.405H138.18C138.371 50.405 138.519 50.3582 138.618 50.2645C138.718 50.1708 138.77 50.0388 138.77 49.8684C138.77 49.698 138.72 49.5703 138.618 49.483C138.519 49.3914 138.375 49.3467 138.189 49.3467H137.408V48.8654H138.299C138.512 48.8654 138.699 48.9101 138.855 48.9932C139.013 49.0784 139.135 49.1955 139.222 49.3445C139.309 49.4936 139.353 49.6725 139.353 49.8727C139.353 50.0728 139.309 50.2453 139.222 50.3986C139.135 50.5498 139.013 50.6712 138.855 50.7564C138.699 50.8437 138.512 50.8842 138.299 50.8842V50.8863Z" fill="white"/>
<path d="M143.164 50.4026C143.164 50.7156 143.098 50.9925 142.967 51.2331C142.836 51.4716 142.653 51.659 142.421 51.7953C142.189 51.9316 141.921 51.9997 141.616 51.9997C141.311 51.9997 141.045 51.9316 140.813 51.7953C140.58 51.659 140.4 51.4737 140.271 51.2331C140.14 50.9946 140.078 50.7199 140.078 50.4069C140.078 50.0938 140.142 49.8149 140.271 49.5742C140.404 49.3336 140.584 49.1462 140.815 49.012C141.047 48.8758 141.315 48.8076 141.62 48.8076C141.925 48.8076 142.193 48.8758 142.423 49.012C142.656 49.1462 142.836 49.3336 142.967 49.5721C143.098 49.8106 143.164 50.0896 143.164 50.4026ZM142.581 50.4026C142.581 50.1854 142.541 49.9959 142.465 49.834C142.386 49.6743 142.276 49.5487 142.13 49.4614C141.989 49.3719 141.817 49.3272 141.622 49.3272C141.427 49.3272 141.257 49.3719 141.114 49.4614C140.97 49.5487 140.858 49.6743 140.78 49.834C140.703 49.9959 140.663 50.1854 140.663 50.4026C140.663 50.6198 140.703 50.8115 140.78 50.9754C140.856 51.1373 140.968 51.2608 141.114 51.3481C141.259 51.4354 141.427 51.4801 141.622 51.4801C141.817 51.4801 141.989 51.4354 142.13 51.346C142.274 51.2565 142.384 51.133 142.465 50.9712C142.541 50.8093 142.581 50.6198 142.581 50.4026Z" fill="white"/>
<path d="M144.102 50.8224V48.8633H144.66V50.7883C144.66 51.0098 144.72 51.1823 144.842 51.2994C144.963 51.4187 145.137 51.4783 145.361 51.4783C145.585 51.4783 145.762 51.4208 145.886 51.2994C146.007 51.178 146.069 51.0098 146.069 50.7883V48.8633H146.625V50.8224C146.625 51.0609 146.575 51.2696 146.471 51.4442C146.366 51.6188 146.22 51.7551 146.034 51.851C145.845 51.9489 145.621 51.9979 145.361 51.9979C145.102 51.9979 144.884 51.9489 144.695 51.8531C144.506 51.7594 144.359 51.621 144.257 51.4463C144.156 51.2675 144.102 51.0609 144.102 50.8203V50.8224Z" fill="white"/>
<path d="M148.298 51.9489H147.742V48.8633H148.958C149.319 48.8633 149.599 48.9506 149.801 49.1188C150.004 49.287 150.104 49.5234 150.104 49.8258C150.104 50.0324 150.056 50.207 149.959 50.3518C149.863 50.4966 149.72 50.6073 149.529 50.6819L150.135 51.9489H149.523L148.981 50.7969H148.296V51.9489H148.298ZM148.298 49.3467V50.3199H148.958C149.135 50.3199 149.274 50.2773 149.371 50.1878C149.471 50.1005 149.519 49.9813 149.519 49.8258C149.519 49.6704 149.471 49.5532 149.371 49.4702C149.274 49.3893 149.135 49.3467 148.958 49.3467H148.298Z" fill="white"/>
<path d="M153.275 48.8633V51.9489H152.719V48.8633H153.275ZM152.814 51.9489V51.4506H154.605V51.9489H152.814Z" fill="white"/>
<path d="M157.47 51.9489H155.492V48.8633H157.47V49.3616H155.853L156.05 49.1891V50.1559H157.323V50.6329H156.05V51.6231L155.853 51.4506H157.47V51.9489Z" fill="white"/>
<path d="M160.681 48.8633V51.9489H160.125V48.8633H160.681ZM161.389 50.635H160.513V50.1814H161.358C161.513 50.1814 161.63 50.1431 161.71 50.0686C161.791 49.994 161.833 49.8876 161.833 49.7491C161.833 49.6107 161.789 49.5149 161.704 49.4446C161.619 49.3744 161.499 49.3403 161.339 49.3403H160.492V48.8633H161.387C161.704 48.8633 161.951 48.9378 162.13 49.089C162.308 49.2402 162.402 49.4425 162.402 49.7002C162.402 49.8876 162.356 50.043 162.262 50.1687C162.169 50.2922 162.032 50.3837 161.847 50.4412V50.3837C162.047 50.4285 162.194 50.5115 162.298 50.6371C162.402 50.7628 162.451 50.9204 162.451 51.1163C162.451 51.2909 162.41 51.4421 162.329 51.5656C162.25 51.6912 162.13 51.7849 161.976 51.8531C161.82 51.9191 161.634 51.951 161.416 51.951H160.496V51.474H161.391C161.551 51.474 161.671 51.44 161.756 51.3633C161.841 51.2909 161.885 51.1844 161.885 51.0481C161.885 50.9204 161.841 50.8182 161.754 50.7457C161.669 50.6755 161.549 50.6371 161.391 50.6371L161.389 50.635Z" fill="white"/>
<path d="M163.955 48.8633V51.9489H163.398V48.8633H163.955Z" fill="white"/>
<path d="M167.071 51.9489H165.094V48.8633H167.071V49.3616H165.455L165.652 49.1891V50.1559H166.924V50.6329H165.652V51.6231L165.455 51.4506H167.071V51.9489Z" fill="white"/>
<path d="M168.657 51.9489H168.109V48.8633H168.661L170.317 51.2909H170.158V48.8633H170.705V51.9489H170.158L168.497 49.5256H168.657V51.9489Z" fill="white"/>
<path d="M171.766 51.0504V50.5947H173.171V51.0504H171.766Z" fill="white"/>
<path d="M176.204 51.949H174.227V48.8633H176.204V49.3616H174.588L174.785 49.1891V50.1559H176.057V50.6329H174.785V51.6231L174.588 51.4507H176.204V51.949ZM174.959 48.6461H174.54L174.932 47.9902H175.478L175.874 48.6461H175.457L175.208 48.2266L174.959 48.6461Z" fill="white"/>
<path d="M176.961 49.3616V48.8633H179.387V49.3616H176.961ZM178.453 49.1209V51.9489H177.895V49.1209H178.453Z" fill="white"/>
<path d="M180.806 51.9489H180.25V48.8633H181.466C181.827 48.8633 182.107 48.9506 182.309 49.1188C182.512 49.287 182.612 49.5234 182.612 49.8258C182.612 50.0324 182.564 50.207 182.466 50.3518C182.371 50.4966 182.228 50.6073 182.037 50.6819L182.643 51.9489H182.031L181.489 50.7969H180.804V51.9489H180.806ZM180.806 49.3467V50.3199H181.466C181.642 50.3199 181.782 50.2773 181.879 50.1878C181.979 50.1005 182.026 49.9813 182.026 49.8258C182.026 49.6704 181.979 49.5532 181.879 49.4702C181.782 49.3893 181.642 49.3467 181.466 49.3467H180.806Z" fill="white"/>
<path d="M185.587 51.9489H183.609V48.8633H185.587V49.3616H183.97L184.168 49.1891V50.1559H185.44V50.6329H184.168V51.6231L183.97 51.4506H185.587V51.9489Z" fill="white"/>
<path d="M188.505 51.9489H187.93L189.079 48.8633H189.652L190.802 51.9489H190.212L189.955 51.2355H188.766L188.505 51.9489ZM189.293 49.7832L188.928 50.7798H189.795L189.428 49.7832C189.418 49.7406 189.403 49.698 189.389 49.6576C189.374 49.6171 189.366 49.5809 189.364 49.5468C189.357 49.5745 189.347 49.6129 189.335 49.6554C189.32 49.7002 189.308 49.7428 189.293 49.7832Z" fill="white"/>
<path d="M192.188 51.9489H191.641V48.8633H192.193L193.849 51.2909H193.689V48.8633H194.237V51.9489H193.689L192.029 49.5256H192.188V51.9489Z" fill="white"/>
<path d="M195.939 48.8633V51.9489H195.383V48.8633H195.939Z" fill="white"/>
<path d="M197.62 51.9489H197.078V48.8633H197.62L198.649 51.3186L199.676 48.8633H200.226V51.9489H199.685V50.6095C199.685 50.5051 199.687 50.4157 199.689 50.3411C199.691 50.2687 199.695 50.2027 199.697 50.1474C199.699 50.092 199.705 50.0345 199.716 49.9791L198.904 51.951H198.392L197.584 49.9855C197.601 50.0792 197.609 50.1963 197.614 50.3411C197.618 50.4838 197.62 50.6521 197.62 50.8458V51.951V51.9489Z" fill="white"/>
<path d="M201.637 51.9489H201.062L202.212 48.8633H202.785L203.935 51.9489H203.345L203.088 51.2355H201.899L201.637 51.9489ZM202.426 49.7832L202.061 50.7798H202.928L202.561 49.7832C202.55 49.7406 202.536 49.698 202.521 49.6576C202.507 49.6171 202.499 49.5809 202.496 49.5468C202.49 49.5745 202.48 49.6129 202.467 49.6554C202.453 49.7002 202.44 49.7428 202.426 49.7832Z" fill="white"/>
<path d="M205.33 48.8633V51.9489H204.773V48.8633H205.33ZM204.869 51.9489V51.4506H206.66V51.9489H204.869Z" fill="white"/>
</g>
<defs>
<clipPath id="clip0_3104_114021">
<rect width="260" height="52" fill="white"/>
</clipPath>
</defs>
</svg>
