<svg width="340" height="340" viewBox="0 0 340 340" fill="none" xmlns="http://www.w3.org/2000/svg">
<path d="M246.086 266.813C267.47 255.451 272.116 248.868 279.537 229.719C285.482 214.373 290.286 199.327 294.14 183.957C274.994 212.648 264.55 240.79 246.086 266.813Z" fill="#1C1C1C"/>
<path d="M46.3867 304.953C57.2293 315.551 62.3123 332.347 81.6175 332.347C84.8288 332.347 88.0656 331.937 91.2072 331.431C113.525 327.839 134.438 319.928 156.329 310.143C119.718 307.755 83.0421 306.577 46.3867 304.953Z" fill="#1C1C1C"/>
<path d="M49.7755 298.939C49.0258 298.939 48.6416 298.026 49.172 297.49C50.3637 296.285 51.5435 295.068 52.708 293.839C53.0293 293.497 53.5682 293.483 53.9099 293.806C54.2516 294.129 54.2652 294.668 53.9422 295.008C52.7692 296.246 51.5826 297.472 50.3824 298.685C50.2158 298.854 49.9965 298.937 49.7789 298.937L49.7755 298.939ZM59.066 289.007C58.3384 289.007 57.944 288.142 58.4285 287.593C59.5522 286.325 60.664 285.045 61.7605 283.754C62.0665 283.396 62.602 283.355 62.959 283.657C63.316 283.962 63.3585 284.499 63.0559 284.856C61.9509 286.155 60.8323 287.442 59.7018 288.72C59.5335 288.91 59.3006 289.006 59.0643 289.006L59.066 289.007ZM67.8176 278.6C67.1155 278.6 66.7058 277.779 67.1546 277.219C68.2137 275.897 69.2609 274.564 70.2945 273.221C70.5784 272.849 71.1139 272.779 71.4862 273.066C71.8585 273.352 71.9265 273.886 71.6409 274.258C70.6005 275.61 69.5482 276.949 68.484 278.282C68.3157 278.493 68.0692 278.602 67.8193 278.602L67.8176 278.6ZM76.0626 267.786C75.3758 267.786 74.9644 267.001 75.3758 266.436C76.3737 265.066 77.3597 263.687 78.3355 262.3C78.6058 261.916 79.1362 261.824 79.5204 262.095C79.9046 262.365 79.9964 262.895 79.7278 263.279C78.7469 264.673 77.7541 266.059 76.7528 267.438C76.5862 267.667 76.3278 267.788 76.0643 267.788L76.0626 267.786ZM83.835 256.629C83.1618 256.629 82.7504 255.874 83.1278 255.306C84.0696 253.897 85.0012 252.479 85.9226 251.056C86.1776 250.662 86.7029 250.55 87.099 250.805C87.4917 251.06 87.6056 251.587 87.3506 251.98C86.4241 253.409 85.4874 254.834 84.5422 256.25C84.3773 256.495 84.1087 256.627 83.8333 256.627L83.835 256.629ZM91.179 245.183C90.5211 245.183 90.1046 244.455 90.4565 243.886C91.3473 242.443 92.2296 240.994 93.1034 239.539C93.3448 239.136 93.8684 239.005 94.2696 239.248C94.6725 239.49 94.8017 240.012 94.5603 240.414C93.6831 241.875 92.7974 243.33 91.9032 244.778C91.7434 245.038 91.4646 245.183 91.179 245.183ZM98.1388 233.501C97.4911 233.501 97.0746 232.795 97.4027 232.226C98.2493 230.755 99.0874 229.279 99.9187 227.8C100.148 227.391 100.667 227.246 101.076 227.476C101.486 227.705 101.631 228.224 101.401 228.633C100.566 230.118 99.7249 231.598 98.8749 233.076C98.7185 233.349 98.4329 233.501 98.1388 233.501ZM104.017 220.37C104.827 218.877 105.627 217.379 106.423 215.88C106.644 215.465 107.159 215.307 107.572 215.526C107.987 215.746 108.145 216.261 107.926 216.676C107.128 218.18 106.324 219.681 105.515 221.179C104.985 222.156 103.48 221.363 104.017 220.37ZM110.35 208.354C110.853 207.373 112.664 203.815 112.664 203.815C112.876 203.397 113.386 203.23 113.806 203.443C114.224 203.655 114.391 204.167 114.178 204.585C114.178 204.585 112.368 208.147 111.861 209.131C111.349 210.124 109.835 209.354 110.348 208.354H110.35ZM117.364 197.518C116.728 197.518 116.307 196.832 116.619 196.26C117.442 194.758 118.289 193.268 119.169 191.803C119.411 191.4 119.935 191.271 120.336 191.512C120.739 191.754 120.868 192.276 120.626 192.678C117.886 197.243 118.138 197.518 117.364 197.518ZM124.621 186.026C123.935 186.026 123.515 185.232 123.945 184.663C125.023 183.237 126.134 181.895 127.246 180.675C127.562 180.328 128.101 180.302 128.448 180.62C128.795 180.937 128.82 181.474 128.504 181.821C125.211 185.428 125.42 186.026 124.621 186.026ZM272.895 183.06C272.895 183.06 269.478 183.022 267.773 182.977C267.304 182.963 266.933 182.574 266.947 182.104C266.961 181.635 267.341 181.256 267.821 181.278C269.512 181.324 271.206 181.353 272.9 181.362C273.37 181.363 273.749 181.746 273.747 182.215C273.745 182.682 273.365 183.062 272.897 183.062L272.895 183.06ZM259.307 182.601C259.011 182.601 255.484 182.348 254.153 182.244C253.685 182.206 253.335 181.798 253.373 181.329C253.408 180.862 253.821 180.512 254.287 180.549C255.977 180.682 257.669 180.801 259.36 180.903C260.448 180.969 260.4 182.601 259.309 182.601H259.307ZM245.757 181.467C245.532 181.467 241.325 180.982 240.587 180.896C240.121 180.841 239.788 180.418 239.842 179.952C239.898 179.486 240.318 179.155 240.786 179.208C242.472 179.407 244.157 179.595 245.845 179.772C246.907 179.884 246.824 181.467 245.757 181.467ZM232.255 179.823C232.077 179.823 227.254 179.124 227.082 179.099C226.618 179.031 226.297 178.599 226.365 178.135C226.433 177.671 226.863 177.351 227.329 177.416C229.01 177.662 230.691 177.9 232.371 178.13C233.413 178.273 233.307 179.821 232.257 179.821L232.255 179.823ZM218.801 177.831C218.662 177.831 213.766 177.038 213.628 177.016C212.516 176.836 212.788 175.157 213.899 175.338C215.576 175.61 217.254 175.877 218.932 176.143C219.961 176.304 219.843 177.831 218.801 177.831ZM133.667 174.873C135.092 173.837 136.583 172.911 138.099 172.12C138.514 171.903 139.029 172.064 139.246 172.479C139.462 172.896 139.303 173.409 138.886 173.627C137.444 174.38 136.023 175.262 134.667 176.248C133.766 176.902 132.754 175.536 133.667 174.873ZM205.376 175.651C205.268 175.651 203.27 175.313 200.205 174.805C199.095 174.621 199.374 172.943 200.484 173.128L205.514 173.963C206.538 174.133 206.413 175.651 205.376 175.651ZM191.958 173.436C191.788 173.436 191.904 173.426 186.789 172.617C186.325 172.544 186.008 172.108 186.081 171.644C186.155 171.18 186.593 170.867 187.054 170.937C188.733 171.202 190.413 171.473 192.093 171.746C193.119 171.913 192.997 173.434 191.957 173.434L191.958 173.436ZM178.522 171.34C178.428 171.34 173.452 170.626 173.359 170.612C172.893 170.548 172.566 170.121 172.629 169.655C172.692 169.191 173.119 168.863 173.585 168.928L178.644 169.649C179.679 169.8 179.567 171.34 178.522 171.34ZM146.434 170.754C145.436 170.754 145.263 169.317 146.232 169.077C147.855 168.678 149.574 168.363 151.344 168.142C151.811 168.085 152.234 168.414 152.292 168.88C152.35 169.346 152.02 169.771 151.554 169.829C147.695 170.312 146.874 170.754 146.434 170.754ZM165.027 169.688C164.607 169.688 163.026 169.494 159.917 169.434C158.819 169.412 158.783 167.743 159.951 167.734C161.591 167.767 163.274 167.85 165.093 167.991C166.173 168.074 166.112 169.689 165.029 169.689L165.027 169.688Z" fill="#1C1C1C"/>
<path d="M128.816 238.167C128.367 238.043 127.896 238.31 127.772 238.764C127.32 240.418 126.852 242.041 126.363 243.636C126.193 244.189 126.611 244.736 127.175 244.736C127.539 244.736 127.876 244.5 127.988 244.134C128.482 242.521 128.955 240.88 129.412 239.211C129.536 238.759 129.27 238.291 128.816 238.167Z" fill="#1C1C1C"/>
<path d="M118.847 263.374C118.446 263.125 117.924 263.251 117.677 263.651C116.797 265.079 115.851 266.485 114.869 267.824C114.454 268.392 114.869 269.176 115.554 269.176C115.816 269.176 116.074 269.057 116.241 268.829C117.25 267.452 118.221 266.01 119.126 264.543C119.372 264.144 119.248 263.62 118.847 263.374Z" fill="#1C1C1C"/>
<path d="M124.705 251.125C124.27 250.954 123.775 251.17 123.604 251.607C122.975 253.213 122.312 254.775 121.63 256.249C121.368 256.817 121.788 257.456 122.402 257.456C122.723 257.456 123.031 257.273 123.175 256.962C123.871 255.457 124.547 253.864 125.188 252.225C125.36 251.788 125.144 251.295 124.705 251.125Z" fill="#1C1C1C"/>
<path d="M133.021 225.246C132.586 225.07 132.089 225.279 131.913 225.714C131.301 227.22 130.704 228.85 130.141 230.556C129.959 231.106 130.371 231.672 130.949 231.672C131.902 231.672 131.574 231.064 133.49 226.353C133.667 225.918 133.456 225.423 133.021 225.246Z" fill="#1C1C1C"/>
<path d="M139.892 213.564C139.525 213.272 138.991 213.332 138.697 213.699C137.658 215.003 136.661 216.443 135.732 217.979C135.389 218.549 135.807 219.268 136.46 219.268C137.376 219.268 137.086 218.445 140.028 214.758C140.321 214.391 140.261 213.855 139.894 213.563L139.892 213.564Z" fill="#1C1C1C"/>
<path d="M75.5682 295.543C73.9821 296.094 72.362 296.605 70.7521 297.064C69.6726 297.372 70.1316 299.002 71.2162 298.7C72.8567 298.234 74.5091 297.712 76.1258 297.151C76.5695 296.996 76.8041 296.512 76.6494 296.068C76.4947 295.624 76.0102 295.39 75.5682 295.543Z" fill="#1C1C1C"/>
<path d="M63.1754 300.536C63.8911 300.109 63.5579 298.803 62.56 298.977C57.4022 299.92 57.0928 299.524 56.8633 300.323L63.1754 300.536Z" fill="#1C1C1C"/>
<path d="M149.99 205.623C148.249 206.107 146.656 206.806 145.116 207.763C144.718 208.011 144.596 208.535 144.842 208.933C145.09 209.332 145.616 209.453 146.013 209.206C147.413 208.336 148.861 207.7 150.444 207.26C150.896 207.134 151.161 206.665 151.035 206.213C150.909 205.761 150.437 205.495 149.988 205.621L149.99 205.623Z" fill="#1C1C1C"/>
<path d="M109.474 274.232C108.449 275.297 107.258 276.458 105.845 277.726C105.263 278.25 105.643 279.208 106.413 279.208C106.836 279.208 106.984 279.006 108.043 278.018C108.966 277.162 109.848 276.293 110.697 275.412C111.023 275.074 111.013 274.535 110.675 274.21C110.336 273.886 109.799 273.894 109.473 274.232H109.474Z" fill="#1C1C1C"/>
<path d="M99.322 283.041C97.9756 284.036 96.5799 285.005 95.174 285.923C94.7813 286.18 94.6708 286.707 94.9275 287.099C95.1808 287.489 95.7061 287.606 96.1039 287.346C97.5353 286.411 98.9582 285.423 100.332 284.408C100.709 284.129 100.791 283.597 100.51 283.22C100.23 282.842 99.6994 282.763 99.322 283.041Z" fill="#1C1C1C"/>
<path d="M87.9184 290.187C86.4343 290.968 84.9077 291.717 83.3845 292.414C82.9578 292.608 82.7691 293.113 82.9629 293.54C83.1584 293.968 83.665 294.157 84.09 293.96C85.6438 293.251 87.1993 292.489 88.7106 291.692C89.1254 291.474 89.2852 290.959 89.0659 290.544C88.8483 290.128 88.3332 289.97 87.9184 290.187Z" fill="#1C1C1C"/>
<path d="M257.371 198.406C255.792 199.011 254.202 199.594 252.606 200.149C252.162 200.303 251.929 200.786 252.082 201.23C252.237 201.677 252.725 201.906 253.165 201.753C254.778 201.191 256.385 200.604 257.981 199.992C258.42 199.824 258.639 199.333 258.471 198.894C258.302 198.455 257.811 198.236 257.373 198.404L257.371 198.406Z" fill="#1C1C1C"/>
<path d="M269.806 193.056C268.282 193.782 266.744 194.491 265.192 195.176C264.167 195.628 264.845 197.182 265.879 196.731C267.446 196.038 269 195.324 270.537 194.591C270.96 194.389 271.14 193.882 270.938 193.457C270.734 193.032 270.225 192.854 269.804 193.056H269.806Z" fill="#1C1C1C"/>
<path d="M231.4 205.796C229.731 206.097 228.063 206.362 226.402 206.588C225.294 206.738 225.508 208.418 226.632 208.273C228.318 208.044 230.008 207.775 231.703 207.469C232.164 207.386 232.471 206.942 232.388 206.481C232.305 206.019 231.866 205.708 231.4 205.796Z" fill="#1C1C1C"/>
<path d="M163.8 205.173C162.119 205.042 160.351 204.901 158.68 204.836C158.26 204.826 157.816 205.183 157.798 205.652C157.779 206.121 158.144 206.516 158.614 206.534C160.271 206.599 161.995 206.74 163.668 206.868C164.145 206.903 164.545 206.546 164.581 206.086C164.616 205.618 164.268 205.208 163.8 205.173Z" fill="#1C1C1C"/>
<path d="M281.785 186.757C280.33 187.597 278.849 188.422 277.35 189.227C276.937 189.45 276.782 189.965 277.003 190.378C277.227 190.795 277.746 190.944 278.154 190.725C279.669 189.911 281.163 189.078 282.632 188.231C283.038 187.997 283.179 187.478 282.945 187.07C282.712 186.664 282.193 186.524 281.785 186.757Z" fill="#1C1C1C"/>
<path d="M244.55 202.71C242.922 203.178 241.288 203.615 239.654 204.021C238.566 204.293 238.966 205.935 240.064 205.672C241.718 205.26 243.37 204.816 245.019 204.344C245.47 204.215 245.73 203.742 245.601 203.292C245.472 202.841 245.004 202.578 244.548 202.71H244.55Z" fill="#1C1C1C"/>
<path d="M218.009 207.399C216.321 207.498 214.633 207.561 212.945 207.595C211.845 207.618 211.826 209.306 212.98 209.295C214.691 209.278 216.399 209.194 218.108 209.096C218.577 209.068 218.934 208.667 218.907 208.198C218.879 207.729 218.471 207.382 218.009 207.399Z" fill="#1C1C1C"/>
<path d="M190.943 206.842L185.856 206.487C184.731 206.414 184.619 208.103 185.737 208.183C185.737 208.183 190.868 208.542 190.887 208.542C191.973 208.542 192.027 206.917 190.944 206.844L190.943 206.842Z" fill="#1C1C1C"/>
<path d="M177.366 205.914C175.665 205.809 173.965 205.717 172.263 205.637C171.117 205.61 171.08 207.284 172.183 207.335C173.876 207.414 177.298 207.612 177.317 207.612C178.408 207.612 178.456 205.98 177.366 205.914Z" fill="#1C1C1C"/>
<path d="M204.488 207.548C202.795 207.5 201.103 207.432 199.41 207.349C198.274 207.299 198.212 208.993 199.327 209.047C201.032 209.13 204.464 209.248 204.464 209.248C205.573 209.248 205.596 207.58 204.488 207.548Z" fill="#1C1C1C"/>
<path d="M189.785 298.619C188.287 299.078 186.433 299.573 184.909 299.945C183.94 300.185 184.112 301.621 185.112 301.621C185.494 301.621 189.345 300.531 190.281 300.246C190.73 300.108 190.983 299.634 190.846 299.183C190.708 298.735 190.229 298.483 189.785 298.619Z" fill="#1C1C1C"/>
<path d="M202.129 293.414C200.653 294.223 199.138 294.979 197.629 295.663C197.202 295.856 197.012 296.36 197.204 296.788C197.398 297.215 197.902 297.405 198.329 297.211C199.88 296.509 201.432 295.734 202.945 294.904C203.356 294.678 203.507 294.162 203.281 293.75C203.057 293.339 202.542 293.187 202.129 293.414Z" fill="#1C1C1C"/>
<path d="M176.647 301.662C174.983 301.953 173.312 302.216 171.636 302.456C171.172 302.522 170.849 302.952 170.915 303.416C170.981 303.879 171.408 304.205 171.877 304.137C173.57 303.896 175.258 303.63 176.94 303.336C177.402 303.255 177.711 302.814 177.632 302.352C177.552 301.891 177.106 301.579 176.647 301.662Z" fill="#1C1C1C"/>
<path d="M163.23 303.497C161.543 303.679 159.855 303.849 158.165 304.011C157.045 304.12 157.208 305.806 158.329 305.704C160.025 305.541 161.72 305.371 163.413 305.187C164.518 305.07 164.367 303.387 163.23 303.497Z" fill="#1C1C1C"/>
<path d="M213.275 285.91C211.915 286.993 210.557 288.013 209.238 288.947C208.855 289.217 208.763 289.749 209.035 290.132C209.306 290.514 209.833 290.606 210.22 290.336C211.563 289.384 212.947 288.343 214.331 287.243C214.698 286.951 214.759 286.417 214.467 286.048C214.175 285.681 213.639 285.618 213.274 285.912L213.275 285.91Z" fill="#1C1C1C"/>
<path d="M251.438 246.375C251.051 246.106 250.522 246.203 250.255 246.589C249.293 247.98 248.308 249.358 247.307 250.72C246.892 251.284 247.302 252.073 247.991 252.073C248.252 252.073 248.509 251.954 248.676 251.726C249.689 250.351 250.68 248.96 251.652 247.556C251.919 247.169 251.824 246.642 251.438 246.375Z" fill="#1C1C1C"/>
<path d="M243.318 257.282C242.955 256.984 242.419 257.039 242.123 257.401C241.052 258.71 239.961 260.002 238.847 261.274C238.366 261.826 238.764 262.683 239.487 262.683C239.723 262.683 239.959 262.584 240.126 262.392C241.251 261.105 242.354 259.8 243.436 258.477C243.733 258.113 243.68 257.578 243.317 257.28L243.318 257.282Z" fill="#1C1C1C"/>
<path d="M223.409 276.964C222.17 278.142 220.932 279.298 219.689 280.426C219.341 280.742 219.315 281.279 219.631 281.626C219.946 281.972 220.483 282 220.832 281.684C222.085 280.548 223.331 279.383 224.578 278.197C224.918 277.874 224.932 277.335 224.609 276.995C224.288 276.655 223.749 276.641 223.407 276.963L223.409 276.964Z" fill="#1C1C1C"/>
<path d="M233.115 267.486C232.3 268.317 229.509 271.064 229.509 271.064C228.705 271.85 229.9 273.06 230.697 272.28C230.697 272.28 233.507 269.516 234.33 268.674C234.658 268.338 234.651 267.8 234.317 267.472C233.98 267.144 233.443 267.151 233.115 267.486Z" fill="#1C1C1C"/>
<path d="M297.231 172.401C293.534 169.937 288.731 170.527 284.315 171.002C266.269 172.936 252.702 170.505 186.759 162.331C171.097 160.39 154.901 158.384 139.031 161.585C135.777 162.241 132.024 163.212 128.845 165.437C124.7 168.338 121.866 171.989 99.7917 210.93C82.9243 240.685 65.824 271.8 41.3066 295.727C38.9164 298.06 39.5437 300.384 41.208 301.264C40.3138 303.11 40.817 305.558 44.5128 305.723C163.377 311.039 176.417 315.502 197.151 309.637C217.092 303.994 231.764 287.348 243.486 271.808C264.858 243.478 276.104 211.094 297.976 179.848C299.557 177.591 299.526 173.929 297.231 172.401ZM42.4932 296.943C77.0134 263.252 96.9306 216.472 122.318 175.83C124.593 172.185 126.73 168.992 129.82 166.83C136.015 162.496 149.692 161.604 157.252 161.604C169.23 161.604 175.559 162.654 239.629 170.597C255.139 172.52 269.64 174.288 284.976 172.64C288.396 172.273 293.624 171.649 296.448 173.931C295.849 174.13 295.361 174.527 294.977 174.93C292.279 174.448 289.41 174.755 286.627 175.054C271.461 176.683 256.984 174.915 241.662 173.016C175.222 164.783 160.138 161.801 140.859 165.691C130.992 167.68 127.818 170.842 122.703 179.034C89.9164 231.523 88.4697 248.715 44.3904 299.092C44.2051 299.086 43.2871 299.02 42.279 299.875C41.3168 299.627 40.9666 298.434 42.4949 296.941L42.4932 296.943ZM115.044 301.973C106.622 301.514 97.1295 301.043 86.3787 300.582C112.734 293.164 134.113 272.923 142.98 246.541C145.777 238.225 147.676 228.642 154.447 223.108C164.186 243.328 170.314 264.888 172.671 287.219C138.093 298.974 116.073 300.797 115.044 301.973ZM200.471 278.037C218.54 269.76 241.886 255.803 259.155 233.97C243.358 261.792 221.576 295.035 193.492 302.981C179.18 307.032 168.684 305.038 121.632 302.342C147.805 297.184 176.215 289.148 200.469 278.039L200.471 278.037ZM262.742 226.235C244.497 253.151 215.713 270.78 184.968 282.741C182.813 273.989 172.55 235.37 170.357 226.42C192.149 230.884 209.899 231.874 226.117 229.533C242.847 227.119 260.277 219.526 272.807 209.359C270.132 214.117 266.597 220.546 262.742 226.235ZM275.325 204.923C262.922 216.455 243.987 225.237 225.874 227.85C209.532 230.208 191.583 229.138 169.386 224.484C168.776 224.353 168.239 224.909 168.387 225.516C170.643 234.816 181.208 274.566 183.369 283.358C180.406 284.49 177.39 285.588 174.32 286.651C171.902 264.153 165.685 242.436 155.834 222.071C164.201 216.414 175.969 218.119 186.425 219.644C203.524 222.139 221.105 222.94 237.776 218.491C252.817 214.477 266.492 205.745 279.857 197.211C278.316 199.767 276.806 202.341 275.325 204.923ZM281.879 193.906C250.699 213.66 234.195 224.851 187.059 218.019C156.499 213.588 149.615 219.479 142.785 241.543C142.321 243.043 141.858 244.535 141.367 245.997C132.049 273.721 108.63 294.522 80.223 300.324C71.3609 299.965 61.6947 299.617 51.1292 299.29C78.7253 292.215 109.891 277.585 120.499 252.27C126.971 236.827 126.886 214.126 142.657 204.852C151.948 199.39 164.055 200.758 180.547 201.828C215.662 204.107 227.424 204.024 256.658 192.908C268.501 188.405 280.908 184.194 292.376 178.307C288.653 183.347 285.182 188.578 281.88 193.906H281.879ZM152.636 199.721C125.3 203.878 126.39 233.817 118.932 251.612C109.497 274.129 83.9103 286.931 63.7296 293.767C91.9666 266.514 111.981 232.361 130.126 199.538C134.031 192.473 137.01 187.34 144.009 183.318C147.791 188.206 150.756 193.843 152.634 199.72L152.636 199.721ZM145.525 182.502C151.475 179.497 158.855 178.043 166.889 178.414C189.064 179.435 210.305 192.741 258.247 190.49C227.049 202.22 217.685 202.535 180.656 200.131C170.029 199.443 160.946 198.759 154.348 199.497C152.442 193.416 149.408 187.575 145.525 182.502ZM263.673 188.466C213.258 192.061 189.63 177.759 166.969 176.715C155.725 176.199 143.868 179.174 136.33 187.192C126.244 197.923 103.583 254.293 59.9675 294.996C55.2721 296.47 50.9711 297.609 47.3722 298.466C80.0292 264.553 99.331 219.659 124.144 179.935C129.074 172.039 131.895 169.232 141.195 167.357C156.793 164.208 172.849 166.199 188.377 168.123C252.969 176.129 267.679 178.784 286.323 176.797C288.281 176.588 290.375 176.336 292.39 176.389C283.196 181.188 273.295 184.891 263.675 188.467L263.673 188.466ZM296.582 178.871C274.287 210.72 263.587 242.334 242.128 270.781C211.665 311.16 193.181 311.791 160.953 309.598C122.087 306.954 82.7356 305.73 44.5876 304.022C40.7898 303.852 43.1868 300.786 44.268 300.786C49.7437 300.786 104.761 302.672 157.395 306.259C169.633 307.092 182.153 307.955 193.955 304.615C226.996 295.265 251.17 252.206 267.66 222.165C276.099 206.792 284.825 190.895 295.674 176.741C295.926 176.414 296.596 175.444 297.345 175.508C297.695 175.887 297.053 178.196 296.58 178.869L296.582 178.871Z" fill="#1C1C1C"/>
<path d="M139.502 198.223C126.811 180.786 119.588 162.878 119.197 141.317C118.949 127.611 121.56 111.529 131.699 102.456C150.473 85.6553 185.939 104.517 212.77 106.567C223.194 107.363 233.999 106.043 243.091 100.583C250.535 96.1137 256.781 89.0349 258.699 80.404C263.165 60.3015 243.429 37.5147 220.464 33.6166C219.337 33.4262 218.83 35.1024 219.983 35.3608C253.995 43.0142 271.763 79.9365 243.23 98.3662C234.311 104.127 223.594 105.562 213.168 104.814C183.787 102.705 141.254 78.3623 123.919 109.404C111.555 131.545 116.601 174.321 138.757 198.796C139.111 199.187 139.821 198.661 139.502 198.223Z" fill="#1C1C1C"/>
<path d="M210.553 27.8324C210.203 25.143 208.18 22.5845 204.747 21.4302C206.031 19.4548 206.827 17.2057 206.951 14.8885C207.061 12.8672 206.684 11.2896 204.465 9.68144C202.755 8.44214 200.65 7.71964 198.537 7.64994C197.604 7.61934 197.041 8.05454 196.892 8.97934C196.574 10.9649 195.717 17.051 195.042 21.7549C192.186 18.0285 185.682 16.5545 182.483 21.7447C181.692 20.8301 181.077 20.0532 180.715 19.0179C179.836 16.4916 180.703 15.6892 180.555 14.608C180.465 13.9467 179.508 13.7886 179.098 14.2238C178.115 15.2693 178.054 19.1522 180.543 21.8399C180.749 22.0626 181.41 22.559 181.903 22.8973C181.505 23.9054 181.332 25.007 181.459 26.1273C178.09 26.2888 174.642 29.6905 174.226 31.9804C174.119 32.5686 174.481 33.1772 175.127 33.1636C176.66 33.1296 175.91 29.903 181.706 27.319C183.266 32.5125 189.682 34.6001 194.032 30.9825C193.837 33.8419 193.318 38.5458 191.68 46.3811C191.496 47.2566 191.491 48.3276 193.085 48.8342C199.064 50.7229 205.439 44.795 203.496 36.8492C207.816 36.3001 211.053 31.6846 210.551 27.8324H210.553ZM198.559 9.35164C200.31 9.42304 202.05 10.0282 203.467 11.0567C205.096 12.2365 205.341 13.2021 205.254 14.795C204.985 19.7863 201.155 24.4239 196.142 26.044C196.536 23.4838 198.077 12.3504 198.559 9.35164ZM188.059 31.0148C185.442 30.5898 183.229 28.1554 183.122 25.5884C183.015 22.967 185.141 20.4068 187.676 20.1076C190.491 19.7727 193.952 21.9402 194.621 24.667C194.241 27.2646 194.214 27.166 194.168 28.2149C193.043 30.2158 190.525 31.416 188.059 31.0148ZM201.149 43.843C199.673 46.5511 196.283 48.059 193.601 47.2107C193.407 47.1478 193.318 47.0985 193.3 47.0985C193.242 46.1771 195.311 39.6763 195.879 28.9272C198 30.7003 199.965 32.6706 201.05 34.9979C202.469 38.046 202.505 41.3542 201.149 43.843ZM202.981 35.2036C201.774 32.0654 199.54 29.767 196.912 27.5757C199.576 26.6577 201.931 24.9815 203.69 22.8633C206.832 23.7031 208.578 25.8281 208.868 28.05C209.249 30.991 206.49 34.9724 202.981 35.2036Z" fill="#1C1C1C"/>
</svg>
