<svg width="428" height="387" viewBox="0 0 428 387" fill="none" xmlns="http://www.w3.org/2000/svg">
<path fill-rule="evenodd" clip-rule="evenodd" d="M38.3864 89.2285C39.8488 67.201 46.8464 50.9785 55.8239 39.256C73.3064 16.4185 99.7664 9.44348 101.544 11.941C113.424 8.97098 249.661 -1.55902 266.671 0.195977C268.741 0.420977 269.079 0.803477 269.484 1.86098C273.354 12.0085 276.999 80.611 277.449 93.1435C278.266 94.0811 278.772 95.249 278.896 96.4863C279.021 97.7235 278.759 98.969 278.146 100.051C277.426 101.468 277.809 98.701 277.921 112.201C280.824 116.993 283.321 121.988 284.244 123.878C288.924 121.921 304.696 115.351 309.511 113.753C302.289 108.893 306.789 96.856 316.981 101.648C326.499 106.328 318.804 117.398 311.739 114.856C309.151 123.162 306.148 131.332 302.739 139.336C312.751 140.416 334.869 151.958 339.751 162.668C351.001 166.156 349.921 165.683 350.169 166.246C354.216 164.608 358.447 163.467 362.769 162.848C370.351 161.701 379.239 163.636 379.014 171.308C379.677 173.417 379.967 175.625 379.869 177.833C379.711 181.163 376.561 184.988 371.836 188.431C372.354 188.431 372.759 188.093 372.871 188.566C374.559 194.798 357.121 304.238 349.944 311.371C344.274 316.928 227.454 355.651 221.356 354.121C203.851 349.868 156.714 323.993 139.861 313.891C139.607 315.379 139.168 316.831 138.556 318.211C137.206 321.248 132.954 323.633 127.306 325.141C126.972 327.534 126.368 329.881 125.506 332.138C120.331 343.703 71.6864 346.111 72.1814 325.388C66.5789 325.028 61.5164 322.913 59.9864 317.558C59.2439 314.948 58.2314 313.058 58.9514 310.966C58.9514 300.008 85.5013 290.851 95.6938 289.838C102.106 289.186 110.071 290.401 111.444 296.588C115.799 296.479 120.155 296.719 124.471 297.308C118.509 272.423 104.019 189.668 103.659 185.888C93.2115 183.682 83.2829 179.497 74.4089 173.558C45.6539 154.658 36.0014 123.518 38.3864 89.2285ZM113.716 28.096C113.719 28.1484 113.719 28.201 113.716 28.2535C113.73 28.2018 113.73 28.1476 113.716 28.096ZM113.829 28.4785C114.121 30.5035 114.526 50.551 114.549 52.576C214.021 36.691 222.999 37.7935 223.269 38.5135C225.866 31.3995 229.018 24.5008 232.696 17.881C201.826 19.7935 120.196 26.5435 113.829 28.4785ZM131.964 187.508C132.774 182.761 133.786 177.068 135.181 169.643C132.474 167.24 129.989 164.597 127.756 161.746C126.001 172.141 124.471 180.848 122.716 190.478L124.966 191.153C126.586 190.186 128.251 189.241 131.964 187.508ZM127.081 191.873L131.019 193.156C131.131 192.503 131.401 190.906 131.559 189.916C130.141 190.568 128.521 191.288 127.081 191.873ZM159.571 197.768C163.014 194.506 169.494 193.763 174.219 193.651C175.569 190.456 170.844 187.081 167.694 185.641C160.808 183.777 153.7 182.853 146.566 182.896C145.644 188.093 144.744 193.043 144.316 195.766C149.302 197.047 154.424 197.719 159.571 197.768ZM146.656 198.376L156.826 201.841C157.059 201.046 157.493 200.325 158.086 199.748C158.311 199.321 154.306 199.928 146.656 198.376ZM210.196 208.793C208.644 208.028 207.024 207.241 205.494 206.543C206.889 209.041 206.304 211.876 202.569 213.743C200.342 214.74 197.974 215.385 195.549 215.656L201.196 217.726C205.606 216.061 210.466 213.293 210.196 208.793ZM244.734 194.686C240.976 201.436 253.509 208.636 260.641 211.831L279.001 207.826C274.389 200.783 247.929 188.858 244.734 194.596V194.686ZM254.251 192.098C262.441 194.801 270.111 198.88 276.931 204.158C278.068 205.197 279.094 206.35 279.991 207.601L283.299 206.903C282.203 205.234 280.886 203.72 279.384 202.403C271.666 195.653 240.639 180.488 238.884 195.001C237.984 202.381 247.119 209.468 253.441 213.293L257.581 212.393C234.316 201.233 240.009 187.958 254.251 192.098ZM339.751 173.558C339.504 173.401 340.179 173.558 327.106 169.891C326.544 175.111 324.429 190.141 322.876 198.601L325.126 198.173C329.379 190.523 337.501 177.293 339.751 173.558ZM327.196 197.723L336.444 195.811L355.659 183.526C352.711 181.681 348.031 179.026 341.236 174.526C338.604 179.251 331.471 191.266 327.241 197.723H327.196ZM325.396 169.553C319.434 170.183 311.896 170.453 308.341 171.803C312.121 182.491 316.216 192.706 319.096 199.456L321.346 199.006C322.314 190.141 324.496 174.863 325.441 169.553H325.396ZM299.476 146.761C295.404 153.376 307.734 161.161 314.776 164.761C319.501 161.543 324.789 158.326 324.789 158.326C325.216 158.056 324.946 158.078 332.394 160.396C328.006 154.141 302.919 141.113 299.476 146.761ZM310.051 170.228C315.1 168.97 320.238 168.097 325.419 167.618L324.901 160.103C321.189 162.556 313.584 167.573 310.051 170.228ZM312.526 188.993C308.952 188.522 305.335 188.469 301.749 188.836C296.439 189.173 279.924 190.906 280.036 196.171C280.194 203.753 293.986 203.776 301.546 203.078C315.429 200.153 314.641 200.513 316.936 199.253C312.211 188.183 312.999 189.106 312.526 188.993ZM278.079 196.216C277.944 187.013 305.641 186.698 312.391 188.138C311.986 187.126 311.604 186.113 311.221 185.123C301.209 184.291 274.186 186.496 274.479 196.373C274.496 196.872 274.548 197.368 274.636 197.858C278.235 200.106 281.436 202.934 284.109 206.228L285.189 206.543L291.466 205.238C285.099 204.676 278.191 202.583 278.079 196.216ZM246.579 141.968C245.701 143.515 245.3 145.287 245.428 147.061C245.556 148.835 246.207 150.532 247.299 151.936C248.446 151.936 249.549 152.138 250.651 152.273C249.702 151.172 249.088 149.822 248.881 148.383C248.674 146.944 248.882 145.476 249.481 144.151C253.441 135.601 279.451 148.178 284.176 151.936C293.176 159.181 291.354 167.348 276.976 165.008C276.796 165.976 276.616 167.078 276.414 168.271C282.331 169.373 292.164 168.451 293.491 162.511C290.579 159.594 288.779 155.749 288.406 151.643C281.139 144.826 252.001 133.598 246.646 141.968H246.579ZM137.364 167.708C143.079 165.571 148.119 163.838 148.276 163.793C146.161 161.318 141.324 155.603 139.479 152.903C139.096 156.638 138.219 162.983 137.431 167.708H137.364ZM138.601 152.768L128.049 160.823C129.511 162.308 130.591 162.803 135.541 167.348C136.689 161.701 138.016 155.806 138.669 152.768H138.601ZM175.591 193.628C176.919 193.628 178.291 193.628 179.664 193.763C180.406 188.611 174.489 184.448 169.651 182.513C162.343 180.363 154.77 179.242 147.151 179.183C146.971 180.241 146.836 181.051 146.791 181.276C156.084 181.456 177.751 184.628 175.659 193.628H175.591ZM153.901 178.013C155.206 178.171 156.444 178.351 157.906 178.576C153.834 175.156 150.796 170.656 153.406 166.021C155.521 162.263 161.641 163.501 165.736 164.828C165.997 164.184 166.346 163.578 166.771 163.028C161.551 161.431 152.844 159.541 150.234 164.333C147.624 169.126 150.211 174.031 153.969 178.013H153.901ZM164.544 171.848C164.448 170.047 164.576 168.241 164.926 166.471C162.091 165.638 156.556 164.401 155.116 166.988C152.506 171.691 157.884 176.461 162.384 179.453C167.806 180.646 174.601 182.873 178.381 186.946C182.184 188.116 189.631 189.601 190.869 185.798C179.866 185.843 164.251 182.693 164.611 171.848H164.544ZM191.949 191.828C192.444 189.871 193.006 187.688 193.546 185.731H192.196C191.364 190.478 184.794 190.231 180.046 189.173C180.665 190.269 181.02 191.494 181.081 192.751C184.747 193.339 188.501 193.022 192.016 191.828H191.949ZM215.326 209.266L217.171 208.163C212.671 201.998 204.886 190.501 202.344 186.451C198.879 190.231 194.154 194.776 192.556 197.701C201.579 202.561 209.791 206.543 215.394 209.266H215.326ZM210.826 212.303C211.704 211.651 212.626 210.998 213.571 210.368L211.479 209.378C211.485 210.381 211.294 211.375 210.916 212.303H210.826ZM228.151 199.793C227.386 200.086 226.576 200.423 225.699 200.828L224.776 204.203C234.789 199.546 237.241 203.056 228.151 199.793ZM228.444 190.523L227.836 192.773C230.155 193.72 232.548 194.473 234.991 195.023C235.149 194.708 234.991 195.203 236.296 192.773C233.596 192.338 230.959 191.575 228.444 190.501V190.523ZM237.444 191.063C239.424 188.318 243.226 186.563 248.694 187.148C248.941 185.731 249.279 183.953 249.661 181.951C243.391 182.426 237.084 181.932 230.964 180.488C230.469 182.468 229.771 185.348 228.961 188.566C231.648 189.77 234.487 190.603 237.399 191.041L237.444 191.063ZM230.266 178.171C225.136 179.048 222.121 179.656 215.641 180.601C216.901 186.226 219.466 198.803 220.569 206.318C221.334 205.913 222.076 205.531 222.819 205.193C224.484 199.253 227.251 189.173 230.221 178.148L230.266 178.171ZM216.001 172.501C215.799 174.503 215.619 177.001 215.484 178.936C219.196 178.441 223.314 177.991 229.749 177.451L218.116 171.646C217.351 171.961 216.654 172.253 216.001 172.501ZM227.251 153.016C229.234 151.116 231.056 149.053 232.696 146.851C234.474 144.398 237.399 139.741 235.824 137.131C229.996 127.321 199.644 156.593 204.324 162.286C207.181 165.863 212.244 164.086 216.226 161.791C217.104 156.728 222.099 154.231 227.094 153.016H227.251ZM213.976 180.826L203.716 185.686C206.349 189.308 213.976 200.468 218.319 207.533L219.376 206.926C215.551 190.501 214.269 180.781 213.976 180.826ZM202.411 184.426C213.954 178.958 213.369 179.206 213.661 179.161C214.314 179.161 213.661 179.678 215.034 172.838C213.239 173.449 211.369 173.813 209.476 173.918L197.011 179.993L202.411 184.426ZM196.494 180.601C195.526 184.336 193.546 192.053 192.826 195.766C195.351 192.034 198.164 188.505 201.241 185.213L196.494 180.601ZM167.986 170.768C171.451 178.756 186.594 179.768 195.414 179.408C195.774 178.643 206.124 174.661 205.629 174.526C195.864 177.721 170.889 179.296 170.889 167.348C170.889 159.631 189.474 158.911 197.214 159.113C197.485 158.238 197.831 157.387 198.249 156.571C190.441 156.571 176.806 157.741 170.439 162.241C168.992 163.056 167.924 164.407 167.465 166.002C167.007 167.598 167.194 169.31 167.986 170.768ZM196.876 160.328C191.251 160.463 172.824 161.746 172.846 167.348C172.846 176.641 193.996 175.403 203.019 173.401C200.049 171.533 195.751 166.043 196.876 160.328ZM199.261 165.121C202.546 170.633 209.566 169.621 215.439 166.921C215.439 166.921 215.641 164.356 215.641 164.221C210.984 166.628 205.764 167.618 202.501 163.501C196.741 156.211 219.399 138.751 225.159 136.118C236.679 130.853 243.631 137.783 230.289 152.386C231.819 152.138 233.416 151.981 235.036 151.846C236.247 150.475 237.289 148.964 238.141 147.346C245.994 132.248 236.431 127.096 224.484 133.081C215.821 137.446 194.334 156.886 199.261 165.121ZM218.499 161.881C217.734 173.716 238.929 176.506 250.831 175.808C251.079 174.458 251.281 173.558 251.461 172.568C240.706 173.761 221.289 172.838 222.076 162.083C222.751 153.376 247.119 154.906 255.579 156.796L258.661 154.546C248.829 151.981 219.129 151.778 218.499 161.881ZM259.764 184.808C260.799 178.756 261.856 172.973 263.004 166.943C260.29 164.531 257.797 161.881 255.556 159.023C253.869 169.103 252.339 177.856 250.606 187.396C253.914 187.981 253.149 188.183 253.779 187.823C255.624 186.811 257.874 185.708 259.764 184.808ZM255.939 188.746C256.929 189.061 257.941 189.398 258.931 189.781C259.066 188.948 259.224 188.071 259.359 187.193C258.301 187.711 257.019 188.296 255.939 188.746ZM277.336 163.276C280.464 163.816 286.336 164.468 288.091 161.768C294.166 152.116 254.341 138.346 251.349 144.961C250.021 147.863 251.461 150.496 253.756 152.701C255.694 153.019 257.61 153.455 259.494 154.006L266.896 148.763C266.94 148.731 266.989 148.707 267.042 148.695C267.095 148.683 267.15 148.682 267.203 148.693C267.256 148.703 267.307 148.725 267.351 148.757C267.395 148.788 267.432 148.829 267.459 148.876C268.741 151.013 275.874 158.776 277.539 160.621C277.831 160.958 277.674 161.251 277.336 163.276ZM255.939 158.123C256.974 159.158 259.381 160.936 263.431 164.648C264.556 158.821 265.681 153.646 266.469 150.068L255.939 158.123ZM267.346 150.293C266.896 154.073 266.019 160.463 265.254 165.098C274.501 161.543 273.444 162.128 276.144 161.071C274.006 158.573 269.214 152.903 267.346 150.293ZM264.871 167.371C263.926 172.861 262.621 179.881 261.631 185.528C266.514 190.591 266.964 191.243 269.799 194.528C270.024 194.393 269.596 194.528 276.121 162.196C272.527 164.21 268.762 165.904 264.871 167.258V167.371ZM261.181 187.913L260.709 190.298C260.596 190.906 260.259 190.096 266.536 193.268C267.909 193.853 267.031 193.741 261.181 187.801V187.913ZM254.566 157.628C248.235 156.849 241.837 156.758 235.486 157.358C231.999 157.718 224.236 158.843 224.034 162.353C223.404 171.353 242.844 171.758 251.821 170.813C253.846 160.531 254.251 157.763 254.566 157.516V157.628ZM275.491 174.076C274.816 177.901 274.164 181.636 273.241 186.316C281.386 186.136 298.284 177.676 302.806 170.566C299.864 168.558 297.101 166.3 294.549 163.816C291.061 174.053 283.749 175.178 275.491 173.963V174.076ZM272.949 188.318L272.499 190.726C273.47 190.705 274.439 190.63 275.401 190.501C279.699 186.743 287.641 185.168 293.401 184.493C298.877 182.1 303.56 178.198 306.901 173.243V173.086C306.024 172.591 305.124 172.051 304.269 171.488C299.431 179.296 281.769 188.228 272.949 188.206V188.318ZM240.121 211.336C238.463 213.73 236.47 215.874 234.204 217.703L240.504 216.286C241.134 215.543 241.989 214.328 242.529 213.518C241.674 212.708 240.886 211.966 240.121 211.223V211.336ZM238.996 210.166C236.882 207.99 235.296 205.358 234.361 202.471C226.419 202.471 210.129 213.968 206.079 219.481C208.036 220.223 212.559 221.933 214.449 222.788C219.499 221.172 224.628 219.813 229.816 218.716C233.342 216.366 236.446 213.437 238.996 210.053V210.166ZM201.894 212.281C205.314 210.728 205.651 208.321 203.626 205.868C202.726 204.766 203.626 205.756 194.964 201.008C188.96 199.772 182.846 199.154 176.716 199.163C173.206 199.163 165.466 199.613 164.859 203.101C164.781 203.638 164.781 204.184 164.859 204.721C174.241 207.961 183.421 211.201 191.319 214.058C194.931 214.099 198.519 213.458 201.894 212.168V212.281ZM191.026 196.531C178.066 194.281 159.954 195.653 159.301 202.831L162.811 204.023C162.811 197.476 177.819 196.958 187.246 198.443C193.321 199.411 192.286 199.703 191.274 198.803C190.711 198.128 190.846 197.543 191.026 196.396V196.531ZM148.276 165.031C144.686 167.078 140.922 168.803 137.026 170.183C136.104 175.628 134.776 182.738 133.786 188.318C142.561 197.318 140.784 196.598 142.044 197.026C144.136 185.776 145.936 176.483 148.299 164.828L148.276 165.031ZM133.336 190.703C133.089 192.076 132.909 192.953 132.706 193.921L138.804 195.946C137.251 194.303 136.194 193.381 133.359 190.501L133.336 190.703ZM125.236 167.393C126.654 160.306 126.541 160.643 126.834 160.328L139.051 151.666C139.089 151.627 139.135 151.595 139.185 151.574C139.235 151.552 139.289 151.541 139.344 151.541C139.399 151.541 139.453 151.552 139.503 151.574C139.553 151.595 139.599 151.627 139.636 151.666C142.195 155.073 144.945 158.334 147.871 161.431C174.129 154.681 205.876 146.198 206.371 146.086C212.919 139.336 225.541 129.211 234.834 129.886C234.361 126.983 233.911 124.126 233.551 121.516C208.351 124.373 152.551 135.173 116.124 139.516C116.124 143.521 116.574 165.391 116.799 169.396C119.251 168.743 122.806 167.821 125.259 167.191L125.236 167.393ZM240.144 104.911C241.029 106.013 241.983 107.058 243.001 108.038C240.751 84.1435 240.031 64.006 239.109 42.2935C231.391 57.0985 228.556 80.5435 235.396 96.7435C239.019 98.2285 241.269 101.198 240.144 104.911ZM243.699 108.781C246.207 111.069 249.072 112.931 252.181 114.293C255.219 113.101 249.616 37.951 248.266 31.426C244.686 33.7468 241.795 36.9874 239.896 40.8085C242.754 65.446 244.081 108.151 243.699 108.781ZM235.126 98.791C226.554 94.606 223.269 105.923 231.189 109.501C235.914 111.031 242.664 102.278 235.126 98.791ZM232.876 110.648C232.098 110.619 231.333 110.435 230.626 110.108C231.279 110.963 231.976 111.818 232.696 112.651C232.642 111.983 232.665 111.311 232.764 110.648H232.876ZM233.461 120.436C233.214 118.658 232.966 116.566 232.831 114.811C227.454 109.21 223.315 102.54 220.681 95.236C185.896 101.243 153.429 106.733 115.674 110.986C115.831 120.728 115.989 130.156 116.146 138.526C136.081 135.511 201.084 122.866 233.349 120.436H233.461ZM220.276 94.4485C217.363 85.7635 216.223 76.5821 216.924 67.4485C194.739 69.361 151.291 76.651 115.066 80.9485C115.246 90.466 115.404 100.478 115.561 110.198C138.286 106.621 176.694 100.096 220.276 94.4485ZM216.969 66.706C217.747 57.2319 219.806 47.907 223.089 38.986C135.901 50.0335 157.839 48.3235 114.571 53.4085C114.751 61.6885 114.931 71.791 115.066 80.1385C142.584 75.706 186.211 68.056 216.969 66.706ZM264.399 100.208C263.925 99.3477 263.625 98.4018 263.517 97.425C263.409 96.4482 263.494 95.4596 263.769 94.516C264.309 92.671 264.309 95.146 263.926 85.876C263.476 74.851 260.619 24.1585 257.986 17.3635C254.634 16.711 238.816 17.656 234.969 17.881C220.771 43.216 211.884 75.6385 225.069 101.513C225.197 100.561 225.533 99.6475 226.052 98.8385C226.572 98.0296 227.263 97.3445 228.076 96.8317C228.889 96.3189 229.805 95.9908 230.759 95.8706C231.713 95.7503 232.681 95.841 233.596 96.136C223.066 70.6435 235.171 34.891 248.379 29.221C248.529 29.1577 248.69 29.1275 248.853 29.1327C249.015 29.1379 249.175 29.1782 249.32 29.2509C249.466 29.3236 249.593 29.427 249.695 29.5539C249.797 29.6808 249.87 29.8282 249.909 29.986C252.001 35.5435 255.871 107.296 253.329 114.293C253.081 114.946 252.856 114.946 252.339 115.148C252.236 115.181 252.126 115.181 252.024 115.148C247.226 113.193 242.972 110.105 239.626 106.148C238.656 107.986 237.06 109.415 235.126 110.176C238.276 111.661 250.336 120.818 253.126 121.718C253.869 121.088 263.881 109.388 264.534 108.646C264.511 105.991 264.466 103.156 264.399 100.208ZM252.856 121.786H253.126C253.126 121.786 252.811 121.696 252.856 121.786ZM273.624 92.716C265.051 88.5535 261.744 99.871 269.686 103.448C274.501 104.978 281.251 96.2935 273.624 92.716ZM312.189 114.158C316.914 115.688 323.686 106.936 316.126 103.426C307.554 99.2635 304.269 110.581 312.189 114.158ZM310.074 115.193C305.439 116.791 288.631 123.991 284.154 125.926C284.046 125.975 283.93 126.002 283.811 126.006C283.693 126.01 283.575 125.99 283.464 125.948C283.353 125.907 283.252 125.843 283.166 125.762C283.079 125.681 283.01 125.584 282.961 125.476C280.351 119.986 274.794 109.726 270.496 105.226C267.301 107.723 256.996 120.976 254.206 123.226C253.924 123.477 253.57 123.635 253.194 123.676C250.674 123.811 239.041 114.361 234.564 112.066C234.976 118.103 235.727 124.113 236.814 130.066C240.999 131.191 244.149 138.008 244.959 140.506C246.122 139.337 247.528 138.439 249.076 137.873C262.576 133.216 288.361 150.158 288.586 150.248C289.126 146.198 293.694 138.773 301.726 139.201C304.944 131.191 308.251 121.673 310.074 115.193ZM333.789 156.098C326.409 149.011 300.624 135.848 295.111 143.318C288.789 151.733 301.164 162.308 310.276 167.731L312.931 165.886C304.696 161.723 292.929 153.578 297.811 145.636C302.694 137.693 328.794 153.196 333.811 160.756L338.311 162.128C337.149 159.881 335.621 157.843 333.789 156.098ZM325.756 159.946L327.016 167.843C342.001 172.163 340.336 171.601 341.011 172.051C342.946 170.453 346.366 167.551 348.459 166.246L325.756 159.946ZM349.426 166.583C348.031 167.663 343.711 171.781 342.429 172.996C345.714 175.246 349.651 177.968 355.794 182.536L349.426 166.583ZM357.459 184.043C360.494 182.688 363.401 181.062 366.144 179.183C368.619 177.428 372.894 173.941 372.241 170.971C370.734 164.041 357.076 168.878 352.419 170.791C352.081 170.926 351.721 169.576 357.594 183.301C357.64 183.426 357.651 183.56 357.628 183.691C357.604 183.821 357.546 183.943 357.459 184.043ZM362.881 163.658C358.681 164.459 354.583 165.727 350.664 167.438L351.654 169.688C373.389 161.746 379.869 170.926 367.201 180.623C362.026 184.224 356.337 187.023 350.326 188.926C348.211 190.343 346.209 191.693 344.746 192.638C355.389 191.288 367.449 185.326 371.274 181.591C383.536 169.711 376.044 161.881 362.881 163.636V163.658ZM222.751 351.893C233.034 351.893 344.004 314.723 348.751 310.133C355.119 303.946 373.164 198.533 372.196 189.151C360.631 191.963 226.081 220.246 215.754 224.183C215.866 230.888 222.751 338.213 222.751 351.893ZM116.214 332.543C119.566 331.148 123.819 328.831 125.574 325.658C123.909 326.018 122.176 326.333 120.376 326.558C118.116 328.268 115.527 329.494 112.771 330.158C104.154 332.566 83.0489 333.758 79.2014 325.163C78.0089 325.321 76.8164 325.411 75.6689 325.456C80.2364 336.211 107.889 336.053 116.191 332.543H116.214ZM116.979 326.873C108.856 327.436 97.8763 326.513 90.9914 322.216C87.8306 323.358 84.579 324.231 81.2714 324.826C85.5013 332.116 109.104 330.541 117.001 326.873H116.979ZM110.229 297.331C109.486 291.571 101.724 290.086 95.8739 290.581C85.7039 291.616 59.0639 302.663 61.0889 311.798C62.5964 318.548 70.0889 319.583 76.8389 318.908C87.5489 317.873 99.6764 312.316 103.591 308.738C106.741 306.016 110.724 301.516 110.251 297.331H110.229ZM104.289 315.556C111.317 316.384 118.433 316.041 125.349 314.543C128.296 313.801 133.539 312.113 134.011 309.098C135.204 301.696 119.814 301.448 112.321 301.853C112.794 306.286 112.141 310.043 104.221 315.556H104.289ZM111.759 298.073C111.759 298.343 111.984 299.738 112.096 300.323C138.556 299.941 141.594 311.573 125.821 316.073C117.968 317.981 109.811 318.287 101.836 316.973C100.891 317.536 99.9014 318.098 98.8664 318.638C109.036 321.698 123.616 320.776 129.264 318.436C133.156 316.816 138.421 313.936 139.276 309.773C141.346 299.851 124.606 297.398 111.691 298.073H111.759ZM126.519 297.758C133.561 299.153 141.931 303.203 140.694 310.223C140.575 310.798 140.409 311.363 140.199 311.911C156.871 321.969 202.501 346.876 220.501 351.916C217.734 339.833 213.751 234.916 213.751 224.318C206.034 220.538 114.031 187.396 104.536 186.203C105.639 194.146 120.849 275.236 126.451 297.758H126.519ZM53.0789 150.136C64.8365 167.374 82.752 179.452 103.141 183.886C102.106 164.806 101.881 19.0735 100.216 13.201C96.9333 13.462 93.7089 14.2206 90.6539 15.451C77.3128 20.3864 65.6211 28.9603 56.9039 40.201C47.9039 51.6985 40.6139 67.6285 39.1514 89.3635C37.3513 116.543 43.7414 136.141 53.0114 150.136H53.0789Z" fill="#1C1C1C"/>
<path fill-rule="evenodd" clip-rule="evenodd" d="M86.1086 40.4258C87.3911 40.5608 87.6611 41.4158 87.9536 42.6758C90.8786 55.4783 92.9486 142.351 90.0461 155.761C91.2386 157.223 89.5736 160.418 84.8936 158.168C80.5511 156.098 72.6986 149.326 65.8361 138.256C52.3361 116.498 47.0036 84.2558 60.0761 61.4858C68.1761 47.4008 82.0361 40.0433 86.1086 40.4258ZM73.8011 135.758C77.5765 142.739 82.5061 149.03 88.3811 154.366C90.7886 138.391 88.8086 65.0633 86.7611 47.1308C81.3422 50.3228 76.6454 54.6058 72.9686 59.7083C73.6436 78.2933 74.0936 108.421 73.8011 135.758ZM72.4736 133.238C71.7761 112.133 71.5286 79.2383 71.6411 61.6433C57.7586 82.5908 61.8311 112.516 72.4736 133.238ZM82.5761 356.303C93.5561 359.318 95.3336 367.058 81.8111 370.951C75.0611 372.818 62.7986 373.516 55.3961 371.243C50.6711 369.803 47.4986 367.081 47.6336 362.738C47.9036 353.446 76.5011 354.616 82.5761 356.303ZM52.7861 367.981C60.1436 372.368 80.6861 371.198 87.5486 366.833C93.0386 363.346 88.5611 358.936 82.3736 357.068C80.1236 356.191 49.7486 355.313 49.5911 362.806C49.5745 363.883 49.8664 364.943 50.4325 365.86C50.9987 366.777 51.8153 367.513 52.7861 367.981Z" fill="#1C1C1C"/>
<path fill-rule="evenodd" clip-rule="evenodd" d="M44.7094 357.294C52.2469 350.544 74.9719 350.656 84.1294 352.794C91.5544 354.616 99.1819 359.544 96.1669 366.564C96.006 368.806 95.442 371.001 94.5019 373.044C93.0169 376.329 88.1344 378.871 81.8119 380.334C74.5862 381.926 67.1344 382.215 59.8069 381.189C51.0094 379.906 40.5919 375.991 41.1319 367.126C40.966 365.325 41.2008 363.509 41.8193 361.809C42.4378 360.109 43.4248 358.567 44.7094 357.294ZM44.5294 365.866C46.1944 370.524 51.8194 372.864 56.6344 374.056C67.0969 376.644 80.3719 375.429 85.2544 373.381C89.1469 371.761 94.4119 368.881 95.2669 364.719C98.7994 348.024 45.4069 350.184 44.0794 362.064C43.9543 363.334 44.1079 364.616 44.5294 365.821V365.866ZM179.124 353.401C190.059 356.416 191.882 364.156 178.337 368.071C171.587 369.939 159.324 370.636 151.944 368.364C147.219 366.924 144.047 364.201 144.159 359.859C144.429 350.544 173.004 351.736 179.124 353.401ZM149.312 365.101C156.647 369.444 177.167 368.341 184.074 363.954C190.982 359.566 183.557 350.454 157.344 354.414C153.879 354.931 146.094 356.394 146.094 359.904C146.089 360.985 146.388 362.045 146.957 362.964C147.526 363.884 148.342 364.624 149.312 365.101Z" fill="#1C1C1C"/>
<path fill-rule="evenodd" clip-rule="evenodd" d="M141.256 354.346C151.944 344.671 200.139 346.223 192.714 363.728C192.57 365.935 192.036 368.098 191.139 370.118C185.784 382.088 136.644 383.168 137.769 364.201C137.62 362.405 137.853 360.598 138.455 358.899C139.056 357.2 140.011 355.648 141.256 354.346ZM153.181 371.131C163.644 373.718 176.919 372.503 181.779 370.456C185.671 368.813 190.936 365.956 191.791 361.771C195.391 344.828 142.044 347.281 140.604 359.138C139.816 365.888 146.589 369.511 153.181 371.131ZM347.671 341.543C358.629 344.558 360.429 352.298 346.906 356.213C340.156 358.081 327.871 358.756 320.491 356.506C315.766 355.043 312.594 352.343 312.729 348.001C312.999 338.596 341.889 339.968 347.671 341.543ZM317.881 353.221C325.216 357.586 345.736 356.483 352.644 352.096C359.551 347.708 352.351 338.596 325.891 342.556C322.426 343.073 314.641 344.536 314.641 348.046C314.621 349.133 314.917 350.202 315.492 351.124C316.067 352.047 316.897 352.783 317.881 353.243V353.221ZM413.281 324.016C424.239 327.031 426.039 334.771 412.516 338.686C405.766 340.553 393.481 341.228 386.101 338.978C381.376 337.516 378.204 334.816 378.339 330.473C378.609 321.293 407.251 322.328 413.281 324.016ZM383.491 335.693C390.826 340.058 411.369 338.933 418.254 334.568C425.139 330.203 417.826 321.068 391.501 325.006C388.036 325.546 380.364 327.008 380.251 330.518C380.236 331.601 380.533 332.666 381.108 333.584C381.683 334.502 382.51 335.234 383.491 335.693Z" fill="#1C1C1C"/>
<path fill-rule="evenodd" clip-rule="evenodd" d="M371.949 334.793C372.106 332.093 371.769 330.001 373.141 328.223C376.741 317.896 404.844 318.098 414.834 320.528C418.536 321.26 421.981 322.951 424.824 325.433C426.077 326.521 426.952 327.98 427.32 329.598C427.688 331.217 427.531 332.91 426.871 334.433C426.701 336.611 426.153 338.743 425.251 340.733C419.896 352.793 370.801 353.716 371.949 334.793ZM378.699 337.988C384.954 342.691 396.699 343.523 404.641 343.073C408.473 342.964 412.267 342.274 415.891 341.026C431.641 334.523 427.569 324.488 414.586 321.316C405.204 319.066 376.336 320.123 374.739 329.573C374.534 331.213 374.799 332.876 375.505 334.371C376.21 335.865 377.325 337.127 378.721 338.011L378.699 337.988ZM382.276 95.8434C377.304 99.3306 373.438 104.173 371.139 109.793C371.056 109.983 370.916 110.141 370.738 110.247C370.561 110.353 370.355 110.4 370.149 110.383C369.943 110.365 369.747 110.284 369.59 110.15C369.433 110.016 369.321 109.836 369.271 109.636C368.038 104.223 365.309 99.2646 361.396 95.3259C361.3 95.2414 361.224 95.1375 361.171 95.0211C361.119 94.9048 361.092 94.7785 361.092 94.6509C361.092 94.5232 361.119 94.3969 361.171 94.2806C361.224 94.1642 361.3 94.0603 361.396 93.9759C365.958 90.4101 369.599 85.8043 372.016 80.5434C372.016 80.2959 372.624 80.1384 372.759 80.5434C375.886 90.1734 382.749 94.0434 382.681 95.1009C382.682 95.2487 382.645 95.3943 382.574 95.5241C382.503 95.6539 382.401 95.7637 382.276 95.8434ZM372.331 81.9384C370.315 86.7799 367.239 91.1083 363.331 94.6059C366.641 97.9522 369.088 102.052 370.464 106.553C372.734 101.951 376.094 97.9735 380.251 94.9659C376.523 91.3858 373.794 86.8956 372.331 81.9384ZM318.444 15.7884C313.432 19.2329 309.525 24.0545 307.194 29.6709C307.111 29.8602 306.971 30.0188 306.793 30.1245C306.616 30.2302 306.41 30.2777 306.204 30.2603C305.998 30.243 305.802 30.1616 305.645 30.0277C305.488 29.8937 305.376 29.7139 305.326 29.5134C304.098 24.149 301.411 19.2281 297.564 15.2934C297.468 15.2089 297.391 15.105 297.339 14.9887C297.286 14.8723 297.259 14.746 297.259 14.6184C297.259 14.4907 297.286 14.3644 297.339 14.2481C297.391 14.1317 297.468 14.0278 297.564 13.9434C302.16 10.3868 305.827 5.77028 308.251 0.488357C308.251 0.263357 308.859 0.105857 309.016 0.488357C312.121 10.1184 319.006 13.9884 318.939 15.0459C318.924 15.2008 318.871 15.3497 318.784 15.4792C318.698 15.6088 318.581 15.7149 318.444 15.7884ZM299.499 14.5509C302.817 17.9084 305.265 22.025 306.631 26.5434C308.928 21.9313 312.328 17.9584 316.531 14.9784C300.714 -0.321642 317.814 -2.54914 299.499 14.5509ZM0.316223 125.543C4.8573 122.005 8.4837 117.43 10.8912 112.201C10.8912 111.953 11.4987 111.796 11.6337 112.201C14.7387 121.786 21.6462 125.701 21.5562 126.781C21.4662 127.861 18.9688 128.018 14.6262 133.531C9.96875 139.448 10.5987 142.013 9.02371 141.878C7.44873 141.743 8.52875 139.628 5.19876 133.396C2.25125 127.793 0.0012207 127.321 0.0012207 126.241C-0.00588989 126.108 0.0190125 125.975 0.073822 125.854C0.128632 125.732 0.211761 125.626 0.316223 125.543ZM9.31622 138.188C11.6086 133.574 15.0103 129.6 19.2162 126.623C1.86874 109.906 20.1388 109.478 2.18375 126.241C5.50241 129.606 7.96399 133.719 9.36124 138.233L9.31622 138.188ZM230.874 234.893C233.124 232.643 333.879 213.001 346.186 210.548C346.222 210.277 346.34 210.023 346.526 209.822C346.711 209.621 346.954 209.481 347.221 209.423L352.666 208.298C352.842 208.208 353.036 208.157 353.234 208.151C353.432 208.145 353.629 208.183 353.81 208.263C353.991 208.343 354.152 208.462 354.281 208.612C354.411 208.763 354.504 208.94 354.556 209.131C355.906 214.081 342.001 296.093 336.241 301.381C332.124 305.251 244.531 333.241 237.511 332.881C237.201 332.903 236.891 332.823 236.631 332.652C236.371 332.481 236.174 332.23 236.071 331.936C233.821 326.243 230.694 242.431 230.604 236.063C230.581 235.793 230.536 235.231 230.874 234.893ZM237.084 325.793C255.084 321.451 311.514 302.686 325.936 296.543C329.356 295.081 329.199 295.103 329.896 293.573C330.847 291.164 331.651 288.7 332.304 286.193C298.194 295.508 242.304 308.131 235.936 310.943C236.251 316.793 236.701 322.081 237.084 325.793ZM235.869 309.908C249.054 303.968 319.479 287.791 332.619 284.753C334.666 277.013 336.759 266.753 338.289 258.901C304.134 267.338 241.381 280.208 234.384 282.773C234.811 291.436 235.329 301.246 235.869 310.043V309.908ZM234.361 281.918C249.706 275.888 325.621 260.341 338.559 257.686C340.134 249.473 341.641 240.923 342.924 233.138C302.424 243.128 240.301 255.638 233.304 258.248C233.596 265.426 234.001 273.661 234.361 281.941V281.918ZM232.494 236.221C232.494 239.776 233.124 253.658 233.259 257.393C247.794 251.476 327.759 235.118 343.126 231.968C344.454 223.756 345.511 216.466 346.096 211.426C325.104 215.926 232.471 235.163 232.494 236.243V236.221ZM120.714 207.443C122.735 207.567 124.724 208.007 126.609 208.748C136.689 211.808 179.754 226.748 196.359 233.498C200.229 235.028 200.859 235.276 200.859 236.018C200.859 239.033 204.751 299.603 205.719 323.768C205.846 323.886 205.948 324.029 206.017 324.187C206.087 324.346 206.123 324.517 206.124 324.691C206.394 331.283 206.349 331.688 205.674 332.251C205.507 332.381 205.313 332.471 205.106 332.514C204.9 332.557 204.686 332.552 204.481 332.498C189.159 328.651 138.489 299.378 136.576 295.913C133.741 290.783 121.276 214.913 120.444 208.726C120.354 208.141 120.241 207.646 120.714 207.443ZM143.214 289.613C147.264 293.753 186.301 315.803 203.649 322.733C203.469 318.233 203.199 313.126 202.974 308.648C185.514 302.708 157.974 289.523 140.716 279.961C141.309 283.238 142.151 286.465 143.236 289.613H143.214ZM140.356 278.363C152.214 284.033 191.791 303.293 202.951 307.793C202.546 300.256 202.074 291.593 201.601 283.043C183.196 277.823 152.934 264.413 135.789 256.043C137.094 262.456 138.961 271.793 140.379 278.318L140.356 278.363ZM135.474 254.378C153.474 262.073 189.901 278.048 201.511 282.076C201.084 274.381 200.724 267.721 200.251 259.576C176.841 252.48 153.917 243.867 131.626 233.791C131.424 233.543 131.109 231.946 135.496 254.333L135.474 254.378ZM131.199 232.171C142.291 236.671 189.249 254.806 200.206 258.608C199.576 247.358 199.126 238.853 199.059 236.536C192.691 233.431 141.954 214.688 127.059 209.986C128.094 215.296 129.556 223.261 131.221 232.126L131.199 232.171ZM99.5637 307.793C93.8712 311.798 82.4862 316.523 74.8138 316.793C69.8862 316.996 65.9937 315.488 64.6437 311.371C61.4712 301.403 103.524 286.013 106.291 297.983C107.101 301.763 102.691 305.543 99.5637 307.793ZM85.1188 297.511C80.1913 299.333 64.8687 305.791 66.4887 310.831C68.9412 318.413 83.4763 313.643 90.8112 310.426C94.9962 308.603 100.756 305.611 103.614 302.011C107.439 297.083 102.691 290.873 85.1188 297.466V297.511ZM278.551 343.613C285.909 336.863 307.194 336.863 316.801 338.911C326.544 335.828 351.001 334.793 359.214 343.006C360.443 344.086 361.303 345.525 361.67 347.12C362.038 348.714 361.895 350.384 361.261 351.893C361.174 353.281 360.933 354.654 360.541 355.988C363.343 356.194 366.126 356.608 368.866 357.226C376.314 359.048 383.896 363.976 380.904 370.996C380.763 373.203 380.229 375.366 379.329 377.386C373.974 389.356 324.834 390.436 325.959 371.468C325.948 369.833 326.076 368.2 326.341 366.586C324.216 366.35 322.11 365.959 320.041 365.416C305.146 370.726 274.164 368.633 275.041 353.446C274.893 351.652 275.129 349.846 275.734 348.15C276.339 346.455 277.3 344.908 278.551 343.613ZM341.371 378.398C351.811 380.986 365.086 379.793 369.969 377.723C373.861 376.103 379.126 373.223 379.981 369.038C381.691 361.028 369.834 357.406 360.181 357.091C359.892 357.994 359.459 358.845 358.899 359.611C378.789 360.668 381.579 370.996 366.526 375.361C355.546 378.421 331.674 378.668 332.349 367.036C328.389 367.036 328.771 366.653 328.749 367.036C328.636 373.628 335.049 376.846 341.371 378.398ZM357.751 360.803C352.509 365.506 341.326 366.946 334.329 367.013C333.361 377.656 363.961 376.486 372.264 371.221C377.371 368.003 375.099 360.736 357.751 360.803ZM313.111 355.561C319.366 360.263 331.111 361.096 339.054 360.646C342.887 360.548 346.682 359.857 350.304 358.598C366.054 352.051 361.891 342.038 348.999 338.888C339.594 336.638 310.749 337.696 309.151 347.146C308.948 348.779 309.213 350.437 309.914 351.926C310.615 353.416 311.723 354.676 313.111 355.561ZM309.489 342.826C303.616 342.668 283.546 343.298 283.434 349.171C283.231 357.271 299.026 357.518 307.126 356.843C305.596 353.423 306.001 346.336 309.489 342.826ZM278.349 352.141C281.701 361.613 301.074 362.558 311.019 361.478C309.958 360.679 309.025 359.723 308.251 358.643C298.216 359.723 281.251 359.206 281.544 349.126C281.791 340.958 302.559 341.048 310.794 341.791C312.121 340.855 313.566 340.098 315.091 339.541C307.086 338.682 298.999 338.993 291.084 340.463C283.501 341.948 275.829 344.963 278.349 352.141Z" fill="#1C1C1C"/>
</svg>
