<svg width="428" height="386" viewBox="0 0 428 386" fill="none" xmlns="http://www.w3.org/2000/svg">
<path fill-rule="evenodd" clip-rule="evenodd" d="M371.948 334.536C372.106 331.837 371.768 329.744 373.141 327.967C376.741 317.639 404.843 317.842 414.833 320.272C418.535 321.003 421.98 322.694 424.823 325.177C426.077 326.264 426.951 327.723 427.319 329.342C427.687 330.96 427.53 332.654 426.871 334.177C426.701 336.355 426.152 338.487 425.251 340.477C419.896 352.536 370.801 353.459 371.948 334.536ZM378.698 337.732C384.953 342.434 396.698 343.267 404.641 342.817C408.473 342.707 412.266 342.017 415.891 340.769C431.641 334.267 427.568 324.232 414.586 321.059C405.203 318.809 376.336 319.867 374.738 329.317C374.533 330.956 374.799 332.62 375.504 334.114C376.209 335.608 377.325 336.87 378.721 337.754L378.698 337.732ZM382.276 95.5865C377.304 99.0738 373.438 103.916 371.138 109.537C371.055 109.726 370.915 109.884 370.738 109.99C370.56 110.096 370.354 110.143 370.148 110.126C369.942 110.109 369.747 110.027 369.589 109.893C369.432 109.759 369.321 109.58 369.271 109.379C368.037 103.966 365.308 99.0078 361.396 95.069C361.3 94.9846 361.223 94.8807 361.171 94.7643C361.118 94.6479 361.091 94.5217 361.091 94.394C361.091 94.2663 361.118 94.1401 361.171 94.0237C361.223 93.9073 361.3 93.8035 361.396 93.719C365.957 90.1533 369.598 85.5475 372.016 80.2865C372.016 80.039 372.623 79.8815 372.758 80.2865C375.886 89.9165 382.748 93.7865 382.681 94.844C382.681 94.9919 382.644 95.1375 382.573 95.2673C382.503 95.3971 382.4 95.5069 382.276 95.5865ZM372.331 81.6815C370.314 86.523 367.239 90.8514 363.331 94.349C366.64 97.6954 369.088 101.795 370.463 106.297C372.733 101.694 376.093 97.7167 380.251 94.709C376.523 91.129 373.793 86.6388 372.331 81.6815ZM318.443 15.5315C313.432 18.9761 309.524 23.7976 307.193 29.414C307.11 29.6033 306.97 29.7619 306.793 29.8677C306.615 29.9734 306.409 30.0209 306.203 30.0035C305.997 29.9861 305.802 29.9048 305.644 29.7708C305.487 29.6369 305.376 29.457 305.326 29.2565C304.097 23.8921 301.411 18.9712 297.563 15.0365C297.467 14.9521 297.391 14.8482 297.338 14.7318C297.286 14.6154 297.258 14.4892 297.258 14.3615C297.258 14.2338 297.286 14.1076 297.338 13.9912C297.391 13.8748 297.467 13.771 297.563 13.6865C302.159 10.1299 305.826 5.51344 308.251 0.231521C308.251 0.00652083 308.858 -0.150979 309.016 0.231521C312.121 9.86152 319.006 13.7315 318.938 14.789C318.923 14.944 318.87 15.0928 318.784 15.2224C318.697 15.3519 318.58 15.4581 318.443 15.5315ZM299.498 14.294C302.816 17.6515 305.264 21.7681 306.631 26.2865C308.927 21.6744 312.328 17.7016 316.531 14.7215C300.713 -0.578478 317.813 -2.80598 299.498 14.294ZM0.315521 125.287C4.8566 121.748 8.483 117.173 10.8905 111.944C10.8905 111.697 11.498 111.539 11.633 111.944C14.738 121.529 21.6455 125.444 21.5555 126.524C21.4655 127.604 18.968 127.762 14.6255 133.274C9.96805 139.192 10.598 141.757 9.02301 141.622C7.44803 141.487 8.52805 139.372 5.19806 133.139C2.25055 127.537 0.000518799 127.064 0.000518799 125.984C-0.0065918 125.851 0.0183105 125.718 0.0731201 125.597C0.12793 125.476 0.21106 125.369 0.315521 125.287ZM9.31552 137.932C11.6079 133.317 15.0096 129.343 19.2155 126.367C1.86804 109.649 20.1381 109.222 2.18304 125.984C5.50171 129.349 7.96329 133.462 9.36053 137.977L9.31552 137.932ZM230.873 234.637C233.123 232.387 333.878 212.744 346.186 210.292C346.221 210.02 346.34 209.766 346.525 209.565C346.71 209.364 346.953 209.225 347.221 209.167L352.666 208.042C352.842 207.951 353.036 207.9 353.233 207.894C353.431 207.888 353.628 207.927 353.809 208.006C353.991 208.086 354.152 208.206 354.281 208.356C354.41 208.506 354.504 208.683 354.556 208.874C355.906 213.824 342.001 295.837 336.241 301.124C332.123 304.994 244.531 332.984 237.511 332.624C237.2 332.646 236.891 332.566 236.631 332.395C236.37 332.225 236.173 331.973 236.071 331.679C233.821 325.987 230.693 242.174 230.603 235.807C230.581 235.537 230.536 234.974 230.873 234.637ZM237.083 325.536C255.083 321.194 311.513 302.429 325.936 296.286C329.356 294.824 329.198 294.847 329.896 293.317C330.846 290.907 331.65 288.443 332.303 285.937C298.193 295.251 242.303 307.874 235.936 310.687C236.251 316.537 236.701 321.824 237.083 325.536ZM235.868 309.651C249.053 303.711 319.478 287.534 332.618 284.497C334.666 276.757 336.758 266.497 338.288 258.644C304.133 267.082 241.381 279.952 234.383 282.517C234.811 291.179 235.328 300.989 235.868 309.786V309.651ZM234.361 281.661C249.706 275.632 325.621 260.084 338.558 257.429C340.133 249.217 341.641 240.667 342.923 232.882C302.423 242.872 240.301 255.382 233.303 257.992C233.596 265.169 234.001 273.404 234.361 281.684V281.661ZM232.493 235.964C232.493 239.519 233.123 253.402 233.258 257.137C247.793 251.219 327.758 234.862 343.126 231.712C344.453 223.499 345.511 216.209 346.096 211.169C325.103 215.669 232.471 234.907 232.493 235.987V235.964ZM120.713 207.187C122.734 207.31 124.724 207.75 126.608 208.492C136.688 211.552 179.753 226.492 196.358 233.242C200.228 234.772 200.858 235.019 200.858 235.762C200.858 238.777 204.751 299.346 205.718 323.512C205.845 323.629 205.947 323.772 206.017 323.931C206.086 324.089 206.123 324.261 206.123 324.434C206.393 331.026 206.348 331.431 205.673 331.994C205.507 332.124 205.313 332.214 205.106 332.257C204.899 332.3 204.685 332.295 204.481 332.242C189.158 328.394 138.488 299.121 136.576 295.656C133.741 290.527 121.276 214.657 120.443 208.469C120.353 207.884 120.241 207.389 120.713 207.187ZM143.213 289.357C147.263 293.497 186.301 315.547 203.648 322.477C203.468 317.977 203.198 312.869 202.973 308.392C185.513 302.452 157.973 289.267 140.716 279.704C141.308 282.981 142.15 286.208 143.236 289.357H143.213ZM140.356 278.107C152.213 283.777 191.791 303.036 202.951 307.536C202.546 299.999 202.073 291.337 201.601 282.786C183.196 277.566 152.933 264.157 135.788 255.787C137.093 262.199 138.961 271.536 140.378 278.062L140.356 278.107ZM135.473 254.122C153.473 261.817 189.901 277.792 201.511 281.819C201.083 274.124 200.723 267.464 200.251 259.319C176.84 252.223 153.916 243.61 131.626 233.534C131.423 233.287 131.108 231.689 135.496 254.077L135.473 254.122ZM131.198 231.914C142.291 236.414 189.248 254.549 200.206 258.352C199.576 247.102 199.126 238.597 199.058 236.279C192.691 233.174 141.953 214.432 127.058 209.729C128.093 215.039 129.556 223.004 131.221 231.869L131.198 231.914ZM99.563 307.536C93.8705 311.542 82.4855 316.267 74.813 316.536C69.8855 316.739 65.993 315.232 64.643 311.114C61.4705 301.147 103.523 285.757 106.291 297.727C107.101 301.507 102.691 305.286 99.563 307.536ZM85.1181 297.254C80.1906 299.077 64.868 305.534 66.488 310.574C68.9405 318.156 83.4756 313.387 90.8105 310.169C94.9955 308.346 100.756 305.354 103.613 301.754C107.438 296.827 102.691 290.617 85.1181 297.209V297.254ZM278.551 343.357C285.908 336.607 307.193 336.607 316.801 338.654C326.543 335.572 351.001 334.537 359.213 342.749C360.443 343.829 361.302 345.268 361.669 346.863C362.037 348.457 361.894 350.127 361.261 351.637C361.174 353.024 360.932 354.398 360.541 355.732C363.342 355.938 366.125 356.351 368.866 356.969C376.313 358.792 383.896 363.719 380.903 370.739C380.762 372.946 380.229 375.11 379.328 377.129C373.973 389.099 324.833 390.179 325.958 371.212C325.948 369.576 326.076 367.943 326.341 366.329C324.215 366.093 322.109 365.702 320.041 365.159C305.146 370.469 274.163 368.377 275.041 353.189C274.892 351.395 275.128 349.589 275.733 347.894C276.339 346.198 277.299 344.651 278.551 343.357ZM341.371 378.142C351.811 380.729 365.086 379.537 369.968 377.467C373.861 375.847 379.126 372.967 379.981 368.782C381.691 360.772 369.833 357.149 360.181 356.834C359.891 357.738 359.458 358.588 358.898 359.354C378.788 360.411 381.578 370.739 366.526 375.104C355.546 378.164 331.673 378.412 332.348 366.779C328.388 366.779 328.771 366.397 328.748 366.779C328.636 373.372 335.048 376.589 341.371 378.142ZM357.751 360.547C352.508 365.249 341.326 366.689 334.328 366.757C333.361 377.399 363.961 376.229 372.263 370.964C377.371 367.746 375.098 360.479 357.751 360.547ZM313.111 355.304C319.366 360.007 331.111 360.839 339.053 360.389C342.886 360.291 346.681 359.601 350.303 358.342C366.053 351.794 361.891 341.781 348.998 338.632C339.593 336.382 310.748 337.439 309.151 346.889C308.948 348.523 309.212 350.18 309.913 351.669C310.614 353.159 311.723 354.419 313.111 355.304ZM309.488 342.569C303.616 342.411 283.546 343.042 283.433 348.914C283.231 357.014 299.026 357.262 307.126 356.587C305.596 353.167 306.001 346.079 309.488 342.569ZM278.348 351.884C281.701 361.357 301.073 362.302 311.018 361.222C309.958 360.422 309.024 359.466 308.251 358.387C298.216 359.466 281.251 358.949 281.543 348.869C281.791 340.702 302.558 340.792 310.793 341.534C312.12 340.598 313.565 339.841 315.091 339.284C307.086 338.425 298.998 338.736 291.083 340.207C283.501 341.692 275.828 344.707 278.348 351.884Z" fill="#1C1C1C"/>
</svg>
