<svg width="28" height="28" viewBox="0 0 28 28" fill="none" xmlns="http://www.w3.org/2000/svg">
<path fill-rule="evenodd" clip-rule="evenodd" d="M10.0877 4.93449C9.97734 4.48471 9.77943 4.06255 9.50589 3.69346C9.23234 3.32437 8.88883 3.016 8.49607 2.78695C8.1033 2.55791 7.66943 2.41293 7.22061 2.36077C6.7718 2.30861 6.31735 2.35034 5.88467 2.48346C5.45199 2.61657 5.05005 2.8383 4.7031 3.13527C4.35614 3.43225 4.07136 3.79831 3.86593 4.21139C3.6605 4.62447 3.53868 5.07599 3.50782 5.53873C3.47695 6.00147 3.53769 6.46584 3.68635 6.90382L6.33434 14.6729L5.25217 20.6004C5.0619 21.6431 5.25566 22.7213 5.79585 23.6255C6.33604 24.5298 7.18413 25.1958 8.17552 25.4941C9.1669 25.7925 10.2309 25.702 11.161 25.2402C12.091 24.7784 12.8208 23.9782 13.2088 22.995V20.8309H11.8916V19.2078H16.1065V20.8309H14.7894V22.995C15.1773 23.9782 15.9071 24.7784 16.8372 25.2402C17.7672 25.702 18.8312 25.7925 19.8226 25.4941C20.814 25.1958 21.6621 24.5298 22.2023 23.6255C22.7425 22.7213 22.9362 21.6431 22.746 20.6004L21.6638 14.6729L24.3118 6.90382C24.4614 6.46555 24.5228 6.00069 24.4925 5.53734C24.4621 5.07398 24.3405 4.62177 24.1351 4.20803C23.9297 3.79429 23.6447 3.42763 23.2974 3.13022C22.9501 2.8328 22.5476 2.61081 22.1144 2.47767C21.6811 2.34453 21.2261 2.303 20.7767 2.35559C20.3274 2.40819 19.8931 2.55382 19.5002 2.78367C19.1072 3.01353 18.7637 3.32283 18.4905 3.69289C18.2172 4.06294 18.0199 4.48606 17.9105 4.93665L16.5438 10.5525H11.4543L10.0877 4.93449ZM9.25735 17.8542V15.149H11.3648V17.8542H9.25735ZM16.6334 15.149V17.8542H18.7408V15.149H16.6334Z" fill="white"/>
</svg>
