<svg width="147" height="50" viewBox="0 0 147 50" fill="none" xmlns="http://www.w3.org/2000/svg">
<rect width="146.383" height="49.3659" rx="6.43903" fill="white"/>
<path d="M53.0043 14.6C53.0043 15.428 52.7578 16.0884 52.265 16.5713C51.7131 17.1529 50.9935 17.4485 50.0966 17.4485C49.2391 17.4485 48.5097 17.1529 47.9183 16.5615C47.3269 15.9701 47.0312 15.2308 47.0312 14.3635C47.0312 13.4961 47.3269 12.7569 47.9183 12.1655C48.5097 11.5741 49.2391 11.2686 50.0966 11.2686C50.5303 11.2686 50.9443 11.3474 51.3287 11.4953C51.7131 11.653 52.0285 11.8698 52.2749 12.1458L51.7328 12.6879C51.5554 12.471 51.3188 12.2936 51.0231 12.1753C50.731 12.0482 50.4152 11.9844 50.0966 11.9881C49.4559 11.9881 48.904 12.2148 48.4604 12.6583C48.0169 13.1117 47.8001 13.6735 47.8001 14.3536C47.8001 15.0337 48.0169 15.5955 48.4604 16.0489C48.904 16.4925 49.4461 16.7192 50.0966 16.7192C50.688 16.7192 51.171 16.5516 51.5652 16.2263C51.9595 15.9011 52.1862 15.4378 52.2453 14.8662H50.0966V14.1565H52.9648C52.9845 14.3142 53.0043 14.462 53.0043 14.6ZM57.5481 11.4065V12.1359H54.8573V14.0086H57.282V14.7183H54.8573V16.591H57.5481V17.3204H54.0983V11.4065H57.5481ZM60.7514 12.1359V17.3204H59.9925V12.1359H58.3366V11.4065H62.3975V12.1359H60.7514ZM66.1035 17.3204H65.3445V11.4065H66.1035V17.3204ZM69.4744 12.1359V17.3204H68.7154V12.1359H67.0596V11.4065H71.1204V12.1359H69.4744ZM79.6857 14.3635C79.6857 15.2407 79.39 15.9701 78.8084 16.5615C78.2171 17.1529 77.4975 17.4485 76.64 17.4485C75.7825 17.4485 75.063 17.1529 74.4716 16.5615C73.8901 15.9701 73.5944 15.2407 73.5944 14.3635C73.5944 13.4863 73.8901 12.7569 74.4716 12.1655C75.0531 11.5741 75.7727 11.2686 76.64 11.2686C77.4975 11.2686 78.2171 11.5642 78.8084 12.1655C79.3998 12.7667 79.6857 13.4961 79.6857 14.3635ZM74.3829 14.3635C74.3829 15.0436 74.5997 15.6152 75.0236 16.0588C75.4573 16.5023 75.9994 16.729 76.64 16.729C77.2807 16.729 77.8228 16.5023 78.2466 16.0588C78.6803 15.6152 78.8972 15.0534 78.8972 14.3635C78.8972 13.6735 78.6803 13.1117 78.2466 12.6682C77.8129 12.2246 77.2807 11.9979 76.64 11.9979C75.9994 11.9979 75.4573 12.2246 75.0236 12.6682C74.5997 13.1117 74.3829 13.6834 74.3829 14.3635ZM81.5091 17.3204H80.7502V11.4065H81.6767L84.5548 16.0095H84.5843L84.5548 14.8662V11.4065H85.3137V17.3204H84.5252L81.519 12.5006H81.4894L81.519 13.644V17.3204H81.5091Z" fill="#1C1C1C"/>
<path d="M73.4297 25.945C71.1135 25.945 69.221 27.7093 69.221 30.134C69.221 32.5489 71.1135 34.323 73.4297 34.323C75.746 34.323 77.6384 32.5489 77.6384 30.134C77.6384 27.7093 75.746 25.945 73.4297 25.945ZM73.4297 32.677C72.1582 32.677 71.0642 31.6322 71.0642 30.134C71.0642 28.626 72.1582 27.5911 73.4297 27.5911C74.7012 27.5911 75.7953 28.626 75.7953 30.134C75.7953 31.6322 74.6914 32.677 73.4297 32.677ZM64.2435 25.945C61.9273 25.945 60.0348 27.7093 60.0348 30.134C60.0348 32.5489 61.9273 34.323 64.2435 34.323C66.5598 34.323 68.4522 32.5489 68.4522 30.134C68.4522 27.7093 66.5598 25.945 64.2435 25.945ZM64.2435 32.677C62.972 32.677 61.878 31.6322 61.878 30.134C61.878 28.626 62.972 27.5911 64.2435 27.5911C65.515 27.5911 66.6091 28.626 66.6091 30.134C66.6091 31.6322 65.515 32.677 64.2435 32.677ZM53.3226 27.2362V29.0104H57.5806C57.4524 30.0059 57.1173 30.7451 56.6146 31.2478C55.9937 31.8688 55.0277 32.5489 53.3324 32.5489C50.7106 32.5489 48.6605 30.4396 48.6605 27.8178C48.6605 25.1959 50.7106 23.0867 53.3324 23.0867C54.7419 23.0867 55.7768 23.6386 56.5358 24.3581L57.7875 23.1064C56.723 22.0912 55.3136 21.3125 53.3226 21.3125C49.7348 21.3125 46.7188 24.23 46.7188 27.8276C46.7188 31.4154 49.7348 34.3427 53.3226 34.3427C55.2643 34.3427 56.723 33.7119 57.8664 32.5193C59.0393 31.3464 59.404 29.6905 59.404 28.3599C59.404 27.9459 59.3744 27.5615 59.3054 27.2461H53.3226V27.2362ZM97.9821 28.6161C97.6372 27.6798 96.5727 25.945 94.3944 25.945C92.2358 25.945 90.442 27.6403 90.442 30.134C90.442 32.4799 92.2161 34.323 94.6014 34.323C96.5234 34.323 97.6372 33.1501 98.0906 32.47L96.6614 31.5139C96.1883 32.2137 95.5378 32.677 94.6014 32.677C93.665 32.677 92.9948 32.2532 92.571 31.4055L98.1793 29.0892L97.9821 28.6161ZM92.2654 30.0157C92.2161 28.3993 93.5172 27.5713 94.4535 27.5713C95.1829 27.5713 95.8039 27.936 96.0109 28.4584L92.2654 30.0157ZM87.7117 34.0766H89.5549V21.756H87.7117V34.0766ZM84.6957 26.8814H84.6267C84.2127 26.3886 83.4242 25.945 82.4188 25.945C80.3194 25.945 78.3974 27.7882 78.3974 30.1537C78.3974 32.4996 80.3194 34.3329 82.4188 34.3329C83.4143 34.3329 84.2127 33.8893 84.6267 33.3768H84.6858V33.978C84.6858 35.5846 83.8283 36.4422 82.4484 36.4422C81.3247 36.4422 80.6249 35.6339 80.3391 34.9538L78.7325 35.6241C79.1957 36.7378 80.418 38.098 82.4484 38.098C84.6069 38.098 86.4304 36.8266 86.4304 33.7316V26.2013H84.6858V26.8814H84.6957ZM82.5765 32.677C81.305 32.677 80.2405 31.6125 80.2405 30.1537C80.2405 28.6753 81.305 27.6009 82.5765 27.6009C83.8283 27.6009 84.8139 28.6851 84.8139 30.1537C84.8238 31.6125 83.8381 32.677 82.5765 32.677ZM106.616 21.756H102.211V34.0766H104.054V29.4046H106.626C108.667 29.4046 110.667 27.9262 110.667 25.5803C110.658 23.2345 108.647 21.756 106.616 21.756ZM106.656 27.6896H104.044V23.4612H106.656C108.036 23.4612 108.814 24.6046 108.814 25.5705C108.814 26.5364 108.036 27.6896 106.656 27.6896ZM118.03 25.9253C116.7 25.9253 115.32 26.5167 114.748 27.8079L116.384 28.488C116.729 27.8079 117.38 27.5812 118.06 27.5812C119.006 27.5812 119.982 28.1529 119.992 29.1681V29.2962C119.656 29.109 118.947 28.8231 118.07 28.8231C116.305 28.8231 114.521 29.789 114.521 31.5928C114.521 33.2388 115.96 34.3033 117.577 34.3033C118.809 34.3033 119.499 33.7513 119.923 33.1008H119.982V34.047H121.756V29.3258C121.766 27.1475 120.13 25.9253 118.03 25.9253ZM117.803 32.677C117.202 32.677 116.364 32.3714 116.364 31.6322C116.364 30.686 117.409 30.3213 118.316 30.3213C119.124 30.3213 119.509 30.4987 119.992 30.7353C119.923 31.2688 119.664 31.7594 119.262 32.1164C118.859 32.4734 118.341 32.6725 117.803 32.677ZM128.232 26.1914L126.122 31.5336H126.063L123.875 26.1914H121.894L125.176 33.6626L123.303 37.8122H125.225L130.282 26.1914H128.232ZM111.673 34.0766H113.516V21.756H111.673V34.0766Z" fill="#1C1C1C"/>
<path d="M26.6924 23.6484L16.1953 34.7862V34.7961C16.3089 35.218 16.5184 35.608 16.8076 35.9355C17.0967 36.2631 17.4577 36.5194 17.8622 36.6845C18.2668 36.8496 18.704 36.9189 19.1398 36.8871C19.5756 36.8553 19.9981 36.7233 20.3744 36.5012L20.404 36.4815L32.212 29.6707L26.6924 23.6484Z" fill="#EA4335"/>
<path d="M37.3051 21.7559L37.2952 21.746L32.1994 18.7891L26.4531 23.9046L32.2192 29.6706L37.2952 26.7432C37.7442 26.5002 38.1193 26.1405 38.3811 25.7022C38.6428 25.2638 38.7815 24.763 38.7825 24.2525C38.7835 23.7419 38.6468 23.2405 38.3868 22.8012C38.1268 22.3618 37.7531 22.0007 37.3051 21.7559Z" fill="#FBBC04"/>
<path d="M16.1923 13.6543C16.1332 13.8909 16.0938 14.1274 16.0938 14.3837V34.067C16.0938 34.3233 16.1233 34.5598 16.1923 34.7964L27.0443 23.9444L16.1923 13.6543Z" fill="#4285F4"/>
<path d="M26.7713 24.2198L32.2022 18.7889L20.404 11.9485C20.0269 11.723 19.6026 11.5878 19.1645 11.5536C18.7264 11.5193 18.2863 11.587 17.8787 11.7512C17.4711 11.9153 17.107 12.1716 16.815 12.5C16.5229 12.8283 16.3108 13.2198 16.1953 13.6438L26.7713 24.2198Z" fill="#34A853"/>
</svg>
