<svg width="19" height="16" viewBox="0 0 19 16" fill="none" xmlns="http://www.w3.org/2000/svg">
<path d="M11.8527 4.47029C12.6893 4.47029 13.3654 3.5816 13.3654 2.48446C13.3654 1.38731 12.6879 0.5 11.8527 0.5C11.0189 0.5 10.3414 1.38869 10.3414 2.48446C10.3414 3.5816 11.0189 4.47029 11.8527 4.47029ZM6.1832 4.47029C7.01703 4.47029 7.69451 3.5816 7.69451 2.48446C7.69451 1.38731 7.01566 0.5 6.1832 0.5C5.35074 0.5 4.67051 1.38869 4.67051 2.48446C4.67051 3.5816 5.348 4.47029 6.1832 4.47029ZM15.9478 9.51029C16.8255 9.51029 17.5359 8.6216 17.5359 7.52446C17.5359 6.42731 16.8241 5.54 15.9478 5.54C15.0714 5.54 14.3583 6.42869 14.3583 7.52446C14.3583 8.6216 15.0714 9.51029 15.9478 9.51029ZM2.08811 9.51029C2.96583 9.51029 3.67623 8.6216 3.67623 7.52446C3.67623 6.42731 2.96446 5.54137 2.08811 5.54137C1.2104 5.54137 0.5 6.43006 0.5 7.52583C0.5 8.62297 1.2104 9.51029 2.08811 9.51029ZM12.9882 12.7085C12.9882 14.5352 10.8447 15.3553 9.01794 15.3553C7.1912 15.3553 5.04766 14.5352 5.04766 12.7085C5.04766 10.8817 6.37109 8.07714 9.01794 8.07714C11.6648 8.07714 12.9882 10.8817 12.9882 12.7085Z" stroke="#1C1C1C" stroke-linecap="round" stroke-linejoin="round"/>
</svg>
