<svg width="340" height="340" viewBox="0 0 340 340" fill="none" xmlns="http://www.w3.org/2000/svg">
<path d="M113.388 103.038C114.063 103.252 114.758 103.4 115.462 103.48C115.596 103.499 115.734 103.478 115.857 103.421C115.981 103.363 116.085 103.272 116.159 103.157C116.402 101.896 116.749 100.656 117.196 99.4514C117.196 99.2814 117.009 99.1114 116.924 99.2984C114.833 102.698 116.924 103.208 113.524 102.698C113.481 102.691 113.438 102.698 113.4 102.719C113.362 102.74 113.333 102.773 113.317 102.813C113.301 102.853 113.3 102.897 113.312 102.938C113.325 102.979 113.352 103.015 113.388 103.038ZM110.872 104.568C111.161 104.653 111.263 104.228 110.991 104.126C110.673 103.999 110.383 103.811 110.138 103.572C109.893 103.333 109.697 103.047 109.563 102.732C109.362 102.187 109.253 101.613 109.24 101.032C109.212 100.975 109.168 100.926 109.114 100.892C109.06 100.859 108.997 100.841 108.934 100.841C108.87 100.841 108.807 100.859 108.753 100.892C108.699 100.926 108.655 100.975 108.628 101.032C107.931 102.46 109.495 104.126 110.872 104.568ZM113.592 98.4484C113.848 98.0229 114.048 97.5657 114.187 97.0884C114.209 97.0388 114.22 96.985 114.219 96.9308C114.218 96.8765 114.206 96.8231 114.182 96.7742C114.159 96.7253 114.125 96.6821 114.083 96.6476C114.041 96.6131 113.992 96.5881 113.94 96.5743C113.887 96.5606 113.832 96.5584 113.779 96.568C113.726 96.5776 113.675 96.5986 113.63 96.6298C113.586 96.6609 113.549 96.7013 113.522 96.7482C113.494 96.7951 113.478 96.8473 113.473 96.9014C113.255 97.3453 113.111 97.8219 113.048 98.3124C113.099 98.6014 113.422 98.6014 113.592 98.4484ZM119.1 100.573C119.321 100.182 119.491 99.7573 119.678 99.3493C119.712 99.2693 119.716 99.1796 119.688 99.0969C119.661 99.0143 119.604 98.9445 119.529 98.9006C119.454 98.8568 119.365 98.8419 119.28 98.8588C119.195 98.8757 119.118 98.9232 119.066 98.9924C118.838 99.4185 118.645 99.8619 118.488 100.318C118.352 100.675 118.998 100.896 119.1 100.573ZM119.967 95.9664C120.19 96.0149 120.396 96.1225 120.564 96.278C120.731 96.4335 120.854 96.6312 120.919 96.8504C120.942 96.8862 120.977 96.9137 121.017 96.9289C121.057 96.944 121.101 96.9461 121.143 96.9348C121.184 96.9235 121.221 96.8994 121.248 96.8659C121.275 96.8324 121.29 96.7913 121.293 96.7484C121.293 96.0514 120.562 95.5584 119.967 95.5074C119.661 95.4904 119.678 95.9324 119.967 95.9664ZM112.861 94.8274C113.314 94.5696 113.848 94.4908 114.357 94.6064C114.68 94.6064 114.833 94.1644 114.493 94.0964C114.169 94.0257 113.834 94.0303 113.513 94.1099C113.191 94.1895 112.893 94.3419 112.64 94.5554C112.436 94.7084 112.64 94.9974 112.861 94.8274ZM107.88 143.345C107.65 143.33 107.42 143.373 107.212 143.472C107.004 143.57 106.825 143.721 106.692 143.908C106.559 144.096 106.476 144.315 106.452 144.544C106.428 144.773 106.463 145.004 106.554 145.215C106.689 145.415 106.872 145.579 107.085 145.692C107.298 145.805 107.536 145.864 107.778 145.864C108.019 145.864 108.257 145.805 108.47 145.692C108.684 145.579 108.866 145.415 109.002 145.215C109.597 144.382 108.611 143.396 107.88 143.345ZM100.043 128.334C99.8119 128.302 99.5767 128.33 99.36 128.416C99.1434 128.501 98.9529 128.642 98.8071 128.824C98.6613 129.006 98.5654 129.222 98.5286 129.452C98.4919 129.683 98.5157 129.918 98.5976 130.136C98.7332 130.336 98.9156 130.5 99.1289 130.613C99.3423 130.726 99.5801 130.785 99.8216 130.785C100.063 130.785 100.301 130.726 100.514 130.613C100.728 130.5 100.91 130.336 101.046 130.136C101.641 129.303 100.927 128.453 100.043 128.334ZM86.0006 120.48C85.7724 120.456 85.5417 120.49 85.3301 120.578C85.1185 120.667 84.9327 120.808 84.7902 120.988C84.6477 121.168 84.553 121.381 84.5149 121.607C84.4769 121.834 84.4967 122.066 84.5726 122.282C84.7082 122.482 84.8906 122.646 85.1039 122.759C85.3173 122.872 85.5551 122.931 85.7966 122.931C86.0381 122.931 86.2759 122.872 86.4893 122.759C86.7026 122.646 86.885 122.482 87.0206 122.282C87.1235 122.101 87.1776 121.896 87.1777 121.687C87.1777 121.479 87.1238 121.274 87.0211 121.092C86.9183 120.911 86.7703 120.759 86.5915 120.652C86.4127 120.545 86.2091 120.486 86.0006 120.48ZM90.0976 115.363C89.9894 115.37 89.8848 115.404 89.7932 115.462C89.7016 115.52 89.6261 115.6 89.5736 115.695C89.5211 115.79 89.4934 115.896 89.4928 116.005C89.4923 116.113 89.519 116.22 89.5706 116.315C89.6424 116.408 89.7369 116.48 89.8449 116.525C89.9529 116.571 90.0707 116.587 90.187 116.573C90.3032 116.56 90.414 116.516 90.5085 116.447C90.6031 116.378 90.6782 116.286 90.7266 116.179C90.7612 116.083 90.7709 115.979 90.7549 115.878C90.739 115.776 90.6977 115.681 90.6351 115.599C90.5725 115.518 90.4904 115.454 90.3965 115.413C90.3026 115.371 90.1998 115.354 90.0976 115.363ZM108.186 165.819C108.078 165.82 107.973 165.849 107.881 165.902C107.788 165.956 107.711 166.034 107.658 166.127C107.604 166.22 107.576 166.325 107.577 166.432C107.577 166.539 107.605 166.645 107.659 166.737C107.731 166.826 107.825 166.895 107.931 166.937C108.037 166.98 108.152 166.995 108.265 166.982C108.379 166.968 108.487 166.926 108.58 166.86C108.673 166.793 108.748 166.704 108.798 166.601C108.985 166.159 108.662 165.819 108.186 165.819ZM129.521 149.21C129.549 149.114 129.553 149.013 129.533 148.915C129.513 148.817 129.469 148.725 129.405 148.648C129.342 148.571 129.26 148.51 129.167 148.472C129.075 148.434 128.974 148.419 128.875 148.428C128.769 148.434 128.667 148.465 128.577 148.52C128.487 148.575 128.413 148.652 128.36 148.743C128.308 148.835 128.279 148.938 128.277 149.043C128.275 149.149 128.299 149.253 128.348 149.346C128.421 149.438 128.517 149.51 128.627 149.555C128.736 149.6 128.854 149.616 128.972 149.603C129.089 149.589 129.201 149.546 129.297 149.477C129.393 149.409 129.47 149.317 129.521 149.21ZM120.018 128.045C120.596 127.178 119.661 126.345 118.896 126.124C118.662 126.102 118.427 126.142 118.214 126.239C118.001 126.337 117.818 126.49 117.683 126.682C117.549 126.874 117.467 127.098 117.447 127.331C117.427 127.565 117.469 127.799 117.57 128.011C117.702 128.213 117.883 128.379 118.094 128.495C118.306 128.611 118.543 128.674 118.785 128.677C119.026 128.681 119.265 128.625 119.48 128.515C119.695 128.404 119.879 128.243 120.018 128.045ZM132.785 126.124C132.828 125.99 132.843 125.849 132.828 125.709C132.814 125.569 132.769 125.433 132.699 125.311C132.628 125.19 132.533 125.084 132.419 125.001C132.305 124.919 132.174 124.861 132.037 124.832C131.875 124.813 131.712 124.837 131.563 124.902C131.415 124.968 131.287 125.072 131.193 125.205C131.099 125.337 131.042 125.493 131.029 125.654C131.016 125.816 131.047 125.979 131.119 126.124C131.213 126.258 131.338 126.366 131.483 126.441C131.628 126.517 131.788 126.556 131.952 126.556C132.115 126.556 132.276 126.517 132.421 126.441C132.566 126.366 132.69 126.258 132.785 126.124ZM96.5576 151.896C96.328 151.881 96.0982 151.924 95.8902 152.023C95.6823 152.121 95.5031 152.272 95.37 152.459C95.2369 152.647 95.1542 152.866 95.13 153.095C95.1058 153.324 95.1407 153.555 95.2316 153.766C95.3672 153.966 95.5496 154.13 95.7629 154.243C95.9763 154.356 96.2141 154.415 96.4556 154.415C96.6971 154.415 96.9349 154.356 97.1483 154.243C97.3616 154.13 97.544 153.966 97.6796 153.766C98.2576 153.001 97.3056 151.93 96.5576 151.896ZM118.335 141.101C118.472 141.301 118.656 141.465 118.871 141.578C119.086 141.69 119.325 141.749 119.567 141.749C119.81 141.749 120.049 141.69 120.263 141.578C120.478 141.465 120.662 141.301 120.8 141.101C121.378 140.251 120.494 139.248 119.678 139.197C119.444 139.18 119.21 139.224 118.998 139.325C118.786 139.425 118.603 139.578 118.468 139.77C118.333 139.961 118.25 140.185 118.226 140.418C118.203 140.651 118.24 140.887 118.335 141.101ZM127.379 160.056C127.974 159.189 127.09 158.203 126.257 158.135C126.079 158.124 125.9 158.148 125.732 158.206C125.564 158.264 125.408 158.355 125.276 158.474C125.143 158.592 125.035 158.736 124.958 158.897C124.881 159.058 124.837 159.232 124.829 159.41C124.744 160.889 126.733 161.025 127.379 160.056ZM248.351 82.8084C250.416 83.1577 252.525 83.1577 254.59 82.8084C255.423 82.6894 258.075 82.0434 258.126 81.9924C258.058 82.306 258.058 82.6307 258.126 82.9444C259.826 87.5344 274.412 84.8994 278.798 84.1854C297.872 81.1254 295.951 77.7084 295.951 77.7084C301.147 78.5604 306.43 78.7603 311.676 78.3034C314.77 77.9974 318.952 77.7764 321.349 75.5154C321.749 75.1378 322.056 74.6733 322.248 74.1578C322.44 73.6423 322.511 73.0896 322.455 72.5424C322.399 71.9952 322.218 71.4682 321.926 71.0021C321.634 70.536 321.239 70.1433 320.771 69.8544C318.068 67.7634 313.971 67.1174 310.69 66.8114C301.85 66.0124 299.096 67.1684 298.671 66.8114C298.246 66.4544 298.96 63.8364 294.795 59.1784C290.137 53.9254 281.756 55.2684 277.591 60.8784C276.925 61.9595 276.356 63.0972 275.891 64.2784C273.963 64.301 272.045 64.5579 270.179 65.0434C268.71 65.606 267.378 66.4722 266.267 67.5855C265.157 68.6987 264.294 70.0338 263.736 71.5034C259.605 68.1034 255.066 69.0214 254.233 73.7984C254.181 74.5965 254.181 75.3972 254.233 76.1954C252.362 75.7529 250.4 75.9075 248.623 76.6374C247.28 77.0454 245.393 77.9124 245.087 79.4764C244.798 81.3294 246.753 82.5364 248.351 82.8084ZM246.498 78.2014C247.603 77.3837 248.88 76.8273 250.231 76.574C251.583 76.3208 252.974 76.3773 254.301 76.7394C254.335 76.7524 254.372 76.7578 254.409 76.7552C254.446 76.7526 254.481 76.7421 254.514 76.7243C254.546 76.7065 254.574 76.6819 254.596 76.6523C254.618 76.6226 254.633 76.5885 254.641 76.5524C254.641 76.2804 254.08 70.6194 258.126 69.9394C259.1 69.8403 260.085 69.953 261.012 70.2699C261.94 70.5868 262.787 71.1004 263.498 71.7754C263.838 72.1154 264.178 72.3534 264.297 71.9624C266.915 64.1594 276.367 65.0264 276.401 64.8394C277.041 62.2659 278.598 60.0143 280.78 58.5065C282.961 56.9988 285.618 56.3384 288.252 56.6491C290.885 56.9598 293.315 58.2203 295.086 60.1943C296.857 62.1684 297.848 64.7205 297.872 67.3724C297.876 67.4596 297.914 67.5417 297.977 67.6019C298.04 67.662 298.124 67.6955 298.212 67.6954C302.804 66.9319 307.491 66.9319 312.084 67.6954C314.855 68.1544 323.984 69.6334 321.451 74.2574C320.499 75.9574 318.221 76.5184 316.351 76.8924C309.562 78.2594 302.565 78.2073 295.798 76.7394C295.748 76.7265 295.696 76.7251 295.645 76.7352C295.595 76.7454 295.548 76.7668 295.507 76.7979C295.466 76.8289 295.433 76.8689 295.409 76.9147C295.386 76.9605 295.374 77.011 295.373 77.0624C295.067 80.1734 289.695 80.9724 287.315 81.6524C281.271 83.3772 275.046 84.3871 268.768 84.6614C266.66 84.7634 257.412 85.8004 258.755 81.6184C258.764 81.5717 258.762 81.5235 258.748 81.478C258.734 81.4325 258.709 81.391 258.676 81.3574C258.642 81.3238 258.6 81.299 258.555 81.2852C258.509 81.2714 258.461 81.269 258.415 81.2784C255.634 82.2022 252.703 82.5831 249.779 82.4004C247.586 82.2644 243.863 80.4624 246.498 78.2014ZM139.398 47.7544C141.409 48.9746 143.709 49.6376 146.062 49.6754C152.24 50.3446 158.479 50.2189 164.626 49.3014C164.626 49.3014 165.136 50.4744 165.221 50.5934C167.907 54.5544 178.515 54.3164 183.36 51.0184C184.261 50.4064 184.227 50.6954 185.06 51.4094C186.985 53.0906 189.407 54.0968 191.958 54.2748C194.508 54.4527 197.046 53.7928 199.187 52.3954C200.46 51.3706 201.638 50.2326 202.706 48.9954C208.488 50.8534 214.719 50.7758 220.454 48.7744C223.004 47.9244 226.166 45.9524 226.149 42.8584C226.149 38.1664 219.128 37.2654 215.643 36.7724C213.314 36.4494 204.967 36.2114 203.505 36.8574C203.573 34.8184 202.879 32.8271 201.559 31.2715C200.239 29.7159 198.387 28.7073 196.365 28.4424C191.112 27.6774 186.59 30.8734 183.139 34.4774C182.27 33.2772 181.056 32.3706 179.659 31.8788C178.262 31.387 176.748 31.3335 175.319 31.7253C173.891 32.117 172.616 32.9355 171.665 34.0714C170.714 35.2072 170.132 36.6062 169.998 38.0814C167.89 35.8034 164.116 34.2734 161.379 36.2284C160.734 36.7623 160.198 37.4143 159.798 38.1494C154.254 38.0976 148.726 38.7372 143.342 40.0534C141.353 40.5124 138.837 41.4474 137.97 43.4534C137.663 44.2236 137.638 45.0775 137.899 45.8643C138.16 46.6512 138.691 47.3206 139.398 47.7544ZM140.741 41.7534C142.612 40.8698 144.597 40.2519 146.64 39.9174C151.057 38.9814 155.576 38.6101 160.087 38.8124C160.15 38.8149 160.213 38.7985 160.268 38.7652C160.322 38.7319 160.366 38.6833 160.393 38.6254C162.399 34.4774 167.788 36.2284 169.964 39.2714C170.003 39.3374 170.063 39.3888 170.134 39.4181C170.205 39.4473 170.284 39.4528 170.359 39.4337C170.433 39.4146 170.499 39.3719 170.548 39.312C170.596 39.2521 170.624 39.1783 170.627 39.1014C170.56 37.6507 170.976 36.2189 171.808 35.0292C172.641 33.8394 173.844 32.9585 175.229 32.5238C176.615 32.0891 178.105 32.1251 179.468 32.626C180.831 33.127 181.99 34.0648 182.765 35.2934C182.789 35.3337 182.821 35.3688 182.859 35.3967C182.897 35.4245 182.94 35.4446 182.986 35.4556C183.032 35.4667 183.08 35.4686 183.126 35.4611C183.173 35.4537 183.217 35.4371 183.258 35.4124C183.751 35.1234 187.967 29.5134 194.138 29.1224C198.796 28.8164 203.607 32.2844 202.638 37.3674C202.638 37.7584 202.944 37.8774 203.284 37.6394C204.848 36.5344 217.921 37.2824 221.134 38.4724C222.796 38.9273 224.224 39.9967 225.129 41.4644C227.815 47.0744 214.266 52.6164 202.638 48.1114C202.567 48.0935 202.493 48.0987 202.425 48.1263C202.358 48.1538 202.301 48.2022 202.264 48.2644C201.484 49.5123 200.467 50.5946 199.27 51.4494C198.072 52.3042 196.718 52.9148 195.285 53.2463C193.852 53.5778 192.367 53.6237 190.916 53.3815C189.465 53.1392 188.076 52.6135 186.828 51.8344C184.329 50.2704 184.227 49.0124 183.7 49.5394C180.844 53.1434 167.227 55.0814 165.153 48.7404C165.153 48.5704 164.983 48.4174 164.779 48.4684C160.444 49.3818 156.01 49.7304 151.587 49.5054C147.966 49.3184 142.985 49.5054 139.891 47.2274C137.528 45.5104 138.514 43.0114 140.775 41.7534H140.741ZM284.663 295.138C281.947 295.93 279.325 297.013 276.843 298.368L277.353 296.855C277.394 296.806 277.418 296.745 277.422 296.681C277.427 296.617 277.411 296.553 277.377 296.499C277.343 296.444 277.293 296.402 277.234 296.377C277.174 296.353 277.109 296.348 277.047 296.362C274.719 296.805 272.532 297.803 270.672 299.269C270.485 296.02 271.317 292.793 273.052 290.038C273.11 289.982 273.144 289.905 273.146 289.823C273.147 289.742 273.116 289.663 273.06 289.605C273.004 289.546 272.926 289.512 272.845 289.511C272.764 289.509 272.685 289.54 272.627 289.596C268.895 291.941 265.763 295.126 263.481 298.895V297.195C263.481 296.94 263.09 296.736 262.903 296.957C262.532 297.669 262.203 298.401 261.917 299.15C258.999 297.34 255.927 295.793 252.737 294.526C252.38 294.373 252.176 294.951 252.482 295.121C253.449 295.714 254.253 296.539 254.821 297.522C255.388 298.505 255.7 299.614 255.729 300.748C255.744 300.811 255.78 300.867 255.831 300.906C255.882 300.946 255.945 300.968 256.009 300.968C256.074 300.968 256.136 300.946 256.187 300.906C256.238 300.867 256.274 300.811 256.29 300.748C256.302 298.971 255.647 297.254 254.454 295.937C260.897 298.759 262.002 300.697 262.274 299.745C262.364 299.197 262.56 298.671 262.852 298.198V300.136C262.845 300.211 262.865 300.287 262.908 300.349C262.951 300.411 263.014 300.456 263.087 300.476C263.16 300.496 263.237 300.49 263.306 300.459C263.375 300.428 263.43 300.374 263.464 300.306C265.523 296.593 268.394 293.391 271.862 290.939C270.422 293.706 269.803 296.826 270.077 299.932C270.078 299.991 270.096 300.048 270.129 300.096C270.161 300.145 270.207 300.183 270.261 300.206C270.314 300.229 270.374 300.237 270.431 300.227C270.489 300.218 270.543 300.192 270.587 300.153C272.276 298.728 274.272 297.71 276.418 297.178C276.107 297.757 275.961 298.409 275.993 299.065C275.994 299.118 276.01 299.17 276.037 299.215C276.065 299.26 276.104 299.297 276.15 299.323C276.196 299.349 276.248 299.362 276.301 299.361C276.354 299.361 276.406 299.347 276.452 299.32C278.865 297.914 281.425 296.774 284.085 295.92C283.314 297.378 282.95 299.016 283.031 300.663C283.047 300.73 283.085 300.79 283.139 300.832C283.193 300.875 283.259 300.898 283.328 300.898C283.397 300.898 283.463 300.875 283.517 300.832C283.571 300.79 283.61 300.73 283.626 300.663C283.542 298.868 284.004 297.09 284.952 295.563C284.977 295.517 284.989 295.464 284.986 295.411C284.984 295.358 284.967 295.307 284.937 295.263C284.907 295.219 284.865 295.184 284.817 295.162C284.769 295.14 284.715 295.132 284.663 295.138ZM143.631 299.83C139.874 302.21 136.134 304.641 132.394 307.055C132.598 306.392 132.819 305.763 133.023 305.1C133.037 305.053 133.039 305.003 133.027 304.955C133.015 304.907 132.99 304.863 132.955 304.828C132.92 304.793 132.876 304.768 132.828 304.756C132.78 304.744 132.73 304.746 132.683 304.76C131.079 305.002 129.617 305.817 128.569 307.055C128.433 304.834 128.89 302.616 129.895 300.629C129.951 300.571 129.982 300.492 129.98 300.411C129.979 300.33 129.945 300.252 129.886 300.196C129.827 300.139 129.749 300.109 129.668 300.11C129.586 300.112 129.509 300.146 129.453 300.204C125.594 302.38 124.115 304.794 121.735 308.228C117.243 305.402 112.387 303.201 107.302 301.683C107.235 301.666 107.164 301.674 107.102 301.705C107.04 301.736 106.991 301.788 106.965 301.852C106.938 301.916 106.935 301.987 106.956 302.053C106.977 302.118 107.022 302.174 107.081 302.21C110.991 304.239 114.096 307.536 115.887 311.56C116.006 311.798 116.363 311.56 116.261 311.339C114.784 307.953 112.394 305.045 109.359 302.941C113.815 304.478 118.05 306.593 121.956 309.231C122.024 309.27 122.104 309.281 122.18 309.262C122.256 309.243 122.322 309.195 122.364 309.129C123.708 305.9 125.995 303.151 128.926 301.241C128.061 303.313 127.75 305.575 128.025 307.803C128.028 307.868 128.051 307.929 128.092 307.98C128.132 308.03 128.187 308.066 128.25 308.083C128.312 308.1 128.378 308.097 128.438 308.074C128.498 308.051 128.55 308.01 128.586 307.956C129.005 307.282 129.563 306.705 130.222 306.262C130.882 305.82 131.628 305.522 132.411 305.389C132.411 305.389 131.765 307.208 131.646 307.599C131.635 307.635 131.633 307.673 131.638 307.709C131.643 307.746 131.655 307.782 131.674 307.813C131.693 307.845 131.719 307.873 131.749 307.895C131.779 307.916 131.813 307.931 131.85 307.939C132.02 307.939 131.408 308.33 142.05 301.445C140.282 303.697 139.481 306.559 139.823 309.401C139.823 309.724 140.35 309.741 140.333 309.401C140.203 307.711 140.46 306.014 141.084 304.438C141.709 302.862 142.684 301.449 143.937 300.306C144 300.266 144.044 300.202 144.06 300.128C144.076 300.055 144.062 299.978 144.022 299.915C143.981 299.852 143.917 299.808 143.844 299.792C143.77 299.776 143.694 299.79 143.631 299.83Z" fill="#1C1C1C"/>
<path d="M317.745 259.777C317.668 259.777 317.595 259.807 317.541 259.862C317.487 259.916 317.456 259.989 317.456 260.066C317.456 260.143 317.487 260.216 317.541 260.27C317.595 260.325 317.668 260.355 317.745 260.355C326.483 260.542 334.065 251.634 330.665 242.981C329.98 241.216 328.836 239.666 327.35 238.493C326.585 237.898 325.65 237.575 324.936 237.065C324.222 236.555 324.409 237.065 324.222 236.334C324.12 235.909 324.749 234.855 324.868 234.43C325.735 231.268 325.004 226.848 321.196 226.44C321.398 225.511 321.361 224.546 321.089 223.636C320.816 222.725 320.316 221.899 319.636 221.234C318.956 220.57 318.119 220.089 317.202 219.837C316.286 219.585 315.32 219.57 314.396 219.793C316.448 217.511 317.701 214.623 317.966 211.565C318.429 207.171 318.251 202.733 317.439 198.39C315.45 188.479 307.987 185.81 304.23 189.618C304.045 188.648 303.633 187.736 303.027 186.956C302.421 186.176 301.638 185.552 300.744 185.134C299.849 184.715 298.868 184.516 297.881 184.55C296.894 184.585 295.93 184.854 295.067 185.334C295.144 184.255 294.895 183.178 294.353 182.242C293.811 181.306 293 180.554 292.026 180.084C291.052 179.613 289.96 179.446 288.889 179.603C287.819 179.76 286.821 180.234 286.023 180.965C285.89 179.25 285.262 177.611 284.215 176.247C283.167 174.883 281.746 173.852 280.124 173.281C275.67 171.581 270.791 173.281 266.847 175.593C266.997 173.458 266.575 171.322 265.623 169.405C274.939 168.589 315.705 169.252 326.585 168.249C326.823 168.249 326.84 167.875 326.585 167.892C315.688 168.436 304.757 168.487 293.86 168.504L293.724 157.59C295.474 157.581 297.206 157.235 298.824 156.57C300.437 155.929 301.86 154.887 302.958 153.542C304.055 152.197 304.792 150.595 305.097 148.886C307.29 140.76 306.117 127.347 304.4 118.966C303.737 115.77 302.581 112.37 299.878 110.347C296.563 107.814 291.701 107.729 287.825 108.868C284.544 109.854 281.025 111.401 280.26 114.988C279.274 119.221 279.801 124.151 279.869 128.469C280.008 134.053 280.496 139.623 281.331 145.146C282.011 149.753 282.793 154.19 287.4 156.298C289.16 157.096 291.061 157.535 292.993 157.59C292.993 161.619 293.214 168.47 293.231 168.521C283.949 168.521 274.531 168.113 265.3 168.946C262.257 163.285 255.695 162.707 251.87 167.008C251.164 164.634 249.648 162.584 247.585 161.214C245.522 159.844 243.044 159.241 240.582 159.511C238.238 159.94 236.114 161.163 234.566 162.974C233.018 164.785 232.141 167.074 232.082 169.456C227.781 169.456 219.332 169.456 219.349 169.371C219.604 163.319 219.468 156.995 219.128 150.875C223.057 151.337 227.04 150.871 230.756 149.515C235.448 147.611 236.621 142.715 237.284 138.176C237.509 136.45 238.125 134.799 239.086 133.348C239.556 132.616 239.874 131.798 240.021 130.941C240.169 130.084 240.143 129.206 239.945 128.359C239.746 127.513 239.38 126.714 238.868 126.012C238.355 125.31 237.707 124.717 236.961 124.27C235.89 123.658 235.414 124.015 235.414 122.043C236.29 118.486 236.531 114.803 236.128 111.163C235.964 109.108 235.385 107.107 234.428 105.281C233.89 104.278 233.032 103.484 231.991 103.025C230.95 102.566 229.785 102.469 228.682 102.748C228.682 102.748 228.869 97.002 228.682 95.387C228.352 92.0054 227.721 88.66 226.795 85.391C226.545 83.7028 225.786 82.1311 224.619 80.886C223.888 80.308 223.123 80.546 222.324 80.393C220.624 80.053 220.624 78.693 219.417 77.69C215.83 74.545 211.835 75.752 208.554 78.591C204.589 82.1232 201.627 86.6409 199.97 91.6863C198.314 96.7317 198.02 102.125 199.119 107.321C196.933 107.527 194.845 108.327 193.081 109.633C191.316 110.939 189.942 112.703 189.106 114.733C188.222 116.946 188.056 119.382 188.633 121.695C189.209 124.007 190.499 126.08 192.319 127.619C193.978 129.026 195.938 130.032 198.048 130.56C196.785 132.718 196.193 135.204 196.348 137.7C196.348 142.8 200.071 147.9 204.457 150.416C206.594 151.527 208.954 152.142 211.362 152.216C213.769 152.289 216.162 151.819 218.363 150.841C218.363 150.841 218.72 163.336 218.788 169.541C218.788 169.643 174.792 170.425 153.015 169.728C152.301 165.954 149.615 161.432 145.79 161.075C144.686 160.984 143.575 161.126 142.53 161.493C141.484 161.859 140.527 162.44 139.721 163.2C139.415 161.908 139.007 160.616 138.616 159.324C137.528 155.686 136.661 151.98 135.709 148.291C137.409 148.291 140.979 149.872 141.132 149.056C141.285 148.24 141.455 147.237 141.557 146.319C142.424 146.71 149.496 149.158 151.995 150.331C157.333 152.83 170.848 157.947 172.242 158.423C173.636 158.899 175.54 159.205 176.118 160.463C176.696 161.721 175.761 162.673 175.064 163.863C174.86 164.186 174.486 164.577 174.639 165.019C174.86 165.767 175.846 165.597 176.509 165.41C176.984 166.257 177.731 166.919 178.629 167.289C179.526 167.659 180.522 167.716 181.456 167.45C183.003 167.059 183.615 165.087 183.513 163.71C183.007 161.08 181.946 158.588 180.402 156.4C171.358 140.93 155.531 132.362 139.024 125.562L138.667 124.474C131.637 120.894 124.326 117.897 116.805 115.515C115.886 114.293 115.206 112.909 114.799 111.435C114.204 109.055 114.306 109.395 116.04 109.276C121.497 108.97 124.132 101.388 124.676 95.829C125.28 96.1378 125.954 96.2843 126.631 96.254C127.073 96.4167 127.548 96.4663 128.014 96.3984C128.48 96.3304 128.921 96.1469 129.298 95.8647C129.675 95.5826 129.975 95.2106 130.172 94.7827C130.368 94.3548 130.454 93.8847 130.422 93.415C130.948 93.0434 131.316 92.4888 131.455 91.8598C131.593 91.2309 131.492 90.573 131.17 90.015C131.461 89.7553 131.68 89.4242 131.804 89.0544C131.928 88.6846 131.953 88.2888 131.878 87.906C131.802 87.5233 131.628 87.1669 131.373 86.8719C131.118 86.577 130.79 86.3536 130.422 86.224C130.669 85.5573 130.741 84.8384 130.63 84.1362C130.519 83.4339 130.229 82.772 129.789 82.2139C129.348 81.6557 128.772 81.2202 128.115 80.9489C127.458 80.6777 126.742 80.5799 126.036 80.665C126.36 80.3009 126.559 79.8423 126.603 79.3568C126.648 78.8713 126.535 78.3844 126.282 77.9677C126.029 77.551 125.649 77.2265 125.197 77.0418C124.746 76.8572 124.248 76.8222 123.775 76.942C123.56 76.4122 123.209 75.9484 122.757 75.5971C122.306 75.2457 121.77 75.019 121.204 74.9398C120.637 74.8606 120.06 74.9317 119.53 75.1458C118.999 75.36 118.535 75.7097 118.182 76.16C118.111 75.4466 117.855 74.7643 117.438 74.1811C117.021 73.5979 116.458 73.1344 115.806 72.8367C115.154 72.539 114.435 72.4177 113.722 72.4848C113.008 72.5518 112.324 72.805 111.739 73.219C111.46 72.8595 111.109 72.5626 110.709 72.3474C110.308 72.1323 109.867 72.0037 109.413 71.9701C108.959 71.9364 108.504 71.9984 108.076 72.1521C107.648 72.3057 107.257 72.5476 106.928 72.862C106.294 72.5415 105.586 72.3923 104.876 72.4294C104.166 72.4664 103.478 72.6883 102.88 73.0731C102.283 73.4579 101.796 73.9922 101.468 74.6231C101.14 75.254 100.983 75.9596 101.012 76.67C100.694 76.3273 100.253 76.125 99.7862 76.1074C99.3192 76.0899 98.8643 76.2586 98.5216 76.5765C98.1789 76.8943 97.9766 77.3353 97.9591 77.8024C97.9415 78.2694 98.1102 78.7243 98.4281 79.067C97.932 79.6697 97.5855 80.3814 97.4171 81.1437C97.2487 81.906 97.2631 82.6973 97.4591 83.453C96.818 83.5008 96.2102 83.7575 95.7288 84.1836C95.2473 84.6097 94.9188 85.1818 94.7935 85.8124C94.6681 86.443 94.7529 87.0973 95.0347 87.6751C95.3166 88.253 95.78 88.7226 96.3541 89.012C95.8677 89.1478 95.4331 89.426 95.1059 89.8107C94.7787 90.1954 94.5741 90.6691 94.5181 91.171C94.5161 91.8224 94.7601 92.4505 95.2015 92.9296C95.6428 93.4088 96.2487 93.7036 96.8981 93.755C96.4663 94.0501 96.1365 94.4716 95.9539 94.9617C95.7712 95.4517 95.7448 95.9863 95.8781 96.492C96.0808 97.0898 96.4952 97.5928 97.0433 97.906C97.5914 98.2192 98.2352 98.3209 98.8531 98.192C98.8856 98.6309 99.0327 99.0537 99.2797 99.418C99.5267 99.7823 99.865 100.075 100.261 100.268C100.656 100.461 101.096 100.546 101.535 100.516C101.974 100.486 102.397 100.341 102.763 100.096C102.644 104.057 102.542 108.035 102.763 111.996C94.1143 110.256 85.883 106.861 78.5211 102C78.5046 101.972 78.4811 101.948 78.4527 101.932C78.4244 101.916 78.3923 101.907 78.3596 101.907C78.3269 101.907 78.2948 101.916 78.2665 101.932C78.2382 101.948 78.2146 101.972 78.1981 102L77.5521 102.799C73.8861 100.225 70.7373 96.9838 68.2701 93.245C59.7701 81.736 45.8981 76.16 47.5981 68.459C48.125 66.8808 48.3892 65.2268 48.3801 63.563L55.8431 54.638L68.1171 50.439C68.4571 50.337 68.8141 49.334 68.6441 48.892C68.4741 48.45 67.8451 48.705 67.6241 48.79L56.9991 51.952L57.7811 41.752C58.4075 42.2724 59.1519 42.6313 59.9491 42.7973C60.7463 42.9632 61.5721 42.9312 62.3541 42.704C63.9418 41.78 65.2467 40.4397 66.1281 38.828C66.1521 38.7865 66.1647 38.7393 66.1646 38.6914C66.1645 38.6434 66.1517 38.5963 66.1275 38.5549C66.1033 38.5135 66.0687 38.4792 66.027 38.4555C65.9853 38.4318 65.9381 38.4195 65.8901 38.42C63.3061 38.607 59.9061 36.856 57.9681 39.219L58.1721 36.533C58.2741 35.479 56.5741 36.023 56.3871 36.533L53.6841 54.179L45.1841 63.988C43.8411 63.988 42.4641 65.688 41.3081 66.079C40.4411 66.334 39.8631 66.504 39.6081 67.439C39.356 68.4676 39.2984 69.5342 39.4381 70.584C39.4381 70.584 30.1731 78.302 30.1731 79.084C30.18 79.3539 30.259 79.617 30.4019 79.8461C30.5448 80.0751 30.7464 80.2618 30.9858 80.3867C31.2251 80.5115 31.4935 80.5701 31.7632 80.5563C32.0328 80.5424 32.2938 80.4567 32.5191 80.308L39.9991 72.862C41.6991 79.815 47.7511 93.925 50.8281 99.875C54.7551 107.474 59.8721 115.175 66.8421 120.275C66.0431 121.975 65.2951 123.896 64.6321 125.749C64.6321 125.749 64.6321 125.953 64.9551 126.327C67.6241 128.69 78.3851 137.139 84.9301 139.434C84.3559 145.871 84.3786 152.347 84.9981 158.78C80.8501 158.355 76.1241 158.661 72.5541 160.99C68.9841 163.319 67.8281 167.79 69.1541 170.255C69.5961 171.054 69.7151 170.952 68.8991 170.935C67.0942 170.753 65.2733 171.05 63.6199 171.796C61.9664 172.542 60.5389 173.711 59.4811 175.185C59.4811 175.083 49.2811 175.372 44.2831 175.355C44.4361 171.955 44.2831 164.169 44.2831 163.676C45.5702 163.707 46.8572 163.61 48.1251 163.387C50.1704 162.953 52.0572 161.965 53.58 160.532C55.1028 159.099 56.2031 157.276 56.7611 155.261C59.6851 146.2 59.4981 144.296 59.3961 139.502C59.3961 131.954 58.8351 122.502 55.6731 115.515C54.8361 113.899 53.6099 112.517 52.1052 111.493C50.6005 110.469 48.8646 109.835 47.0541 109.65C42.7361 109.021 38.0781 108.817 34.6781 112.047C28.3541 118.048 29.1531 132.141 29.0851 141.457C29.0851 145.792 28.8471 150.314 30.1731 154.496C31.3461 158.27 34.5931 162.554 38.6731 163.234C40.2997 163.489 41.9405 163.642 43.5861 163.693C43.5861 167.569 43.2631 171.496 43.5861 175.372C34.3597 175.392 25.1386 174.927 15.9611 173.978C15.6891 173.978 15.6891 174.386 15.9611 174.42C30.2542 176.269 44.695 176.702 59.0731 175.712C55.6731 180.812 54.7721 188.292 58.5461 193.103C54.1261 191.403 47.9041 196.503 49.4511 199.478C48.3785 198.96 47.2033 198.69 46.0123 198.686C44.8212 198.683 43.6446 198.948 42.5694 199.46C41.4941 199.972 40.5476 200.72 39.7997 201.647C39.0518 202.574 38.5216 203.657 38.2481 204.816C37.9695 206.162 38.0253 207.555 38.4106 208.874C38.7959 210.193 39.499 211.397 40.4581 212.381C42.0051 214.081 43.7051 215.968 42.1581 218.297C41.8586 218.783 41.4517 219.194 40.9687 219.499C40.4856 219.804 39.9392 219.994 39.3714 220.054C38.8036 220.115 38.2294 220.045 37.6928 219.849C37.1563 219.654 36.6717 219.338 36.2761 218.926C34.4571 217.226 32.8761 216.189 30.6831 217.957C29.8437 218.766 29.143 219.708 28.6091 220.745C28.0821 221.493 28.6091 221.34 27.5551 221.051C26.5129 220.605 25.3795 220.413 24.2485 220.492C23.1176 220.571 22.0216 220.918 21.0514 221.504C20.0812 222.091 19.2646 222.9 18.6691 223.864C18.0736 224.829 17.7165 225.922 17.6271 227.052C17.6045 227.807 17.6329 228.562 17.7121 229.313C17.7121 229.313 15.8931 229.704 15.6041 229.823C14.3724 230.343 13.3213 231.215 12.5823 232.329C11.8433 233.443 11.4491 234.75 11.4491 236.087C11.4491 237.424 11.8433 238.732 12.5823 239.846C13.3213 240.96 14.3724 241.832 15.6041 242.352C13.9751 242.925 12.5891 244.034 11.6734 245.498C10.7576 246.962 10.3665 248.693 10.5641 250.409C10.7617 252.124 11.5364 253.721 12.761 254.938C13.9857 256.156 15.5876 256.921 17.3041 257.108C17.5931 257.108 17.7461 256.734 17.4231 256.683C15.7712 256.45 14.243 255.676 13.0774 254.483C11.9117 253.29 11.1742 251.744 10.9801 250.087C10.9028 248.42 11.3891 246.775 12.3606 245.418C13.332 244.061 14.7321 243.071 16.3351 242.607C16.3895 242.593 16.4376 242.561 16.4719 242.516C16.5062 242.471 16.5248 242.417 16.5248 242.36C16.5248 242.304 16.5062 242.25 16.4719 242.205C16.4376 242.16 16.3895 242.128 16.3351 242.114C14.9398 241.664 13.7442 240.744 12.9525 239.51C12.1609 238.276 11.8224 236.806 11.9951 235.35C12.1678 233.894 12.8409 232.544 13.8992 231.529C14.9575 230.515 16.3354 229.9 17.7971 229.789C17.8647 229.789 17.9296 229.762 17.9774 229.714C18.0252 229.666 18.0521 229.602 18.0521 229.534C17.2021 222.36 23.4411 219.334 28.2521 222.071C28.2859 222.091 28.3237 222.102 28.3626 222.105C28.4016 222.108 28.4406 222.101 28.4768 222.087C28.5129 222.072 28.5451 222.049 28.571 222.02C28.5969 221.99 28.6158 221.956 28.6261 221.918C29.3741 219.079 32.2641 216.087 35.0521 218.518C36.0381 219.385 36.7521 220.371 38.1461 220.575C39.3115 220.679 40.4726 220.334 41.3921 219.61C42.3116 218.887 42.9201 217.839 43.0931 216.682C43.4841 213.163 38.2141 211.582 38.3671 206.363C38.4246 205.022 38.8387 203.72 39.5668 202.592C40.2949 201.464 41.3106 200.551 42.5093 199.947C43.7079 199.342 45.0461 199.068 46.3858 199.153C47.7256 199.238 49.0184 199.679 50.1311 200.43C50.3521 200.566 50.6071 200.226 50.4031 200.073C48.1421 198.271 50.5731 195.687 52.2731 194.565C54.3471 193.205 57.2711 192.423 59.3621 194.174C59.5831 194.344 59.8891 194.055 59.6681 193.851C52.1881 186.626 58.2571 168.929 69.6981 171.564C69.7394 171.572 69.7823 171.569 69.8217 171.554C69.8611 171.539 69.8953 171.513 69.9204 171.479C69.9454 171.445 69.9602 171.404 69.963 171.362C69.9658 171.32 69.9564 171.278 69.9361 171.241C66.5361 165.24 71.8741 157.76 84.8621 159.12C85.1875 161.718 85.7567 164.279 86.5621 166.77C87.0897 168.88 88.1157 170.833 89.5541 172.465C72.8771 202.3 70.7351 214.642 69.4941 240.737C68.9697 247.274 68.8052 253.834 69.0011 260.389C68.5081 260.389 55.1801 261.681 53.5821 260.474C52.8514 259.839 52.2708 259.049 51.8821 258.162C50.9301 256.224 49.8081 252.858 51.4231 250.988C51.4817 250.932 51.5155 250.854 51.5171 250.773C51.5187 250.692 51.488 250.613 51.4316 250.554C51.3753 250.496 51.2979 250.462 51.2166 250.46C51.1353 250.459 51.0567 250.49 50.9981 250.546C49.6721 251.821 45.6091 255.476 44.0451 255.952C41.4271 252.756 44.1641 246.398 45.6091 243.151C45.6285 243.095 45.63 243.034 45.6134 242.976C45.5968 242.919 45.5629 242.868 45.5164 242.831C45.4698 242.794 45.4129 242.772 45.3535 242.768C45.294 242.765 45.2348 242.78 45.1841 242.811C41.458 245.92 38.732 250.06 37.3471 254.711C37.3471 254.966 36.6671 258.111 36.6331 258.111C36.0246 257.275 35.4899 256.388 35.0351 255.459C33.5242 253.087 31.8604 250.815 30.0541 248.659C30.0202 248.63 29.979 248.612 29.9352 248.606C29.8913 248.599 29.8465 248.605 29.8059 248.623C29.7653 248.64 29.7304 248.669 29.7051 248.706C29.6799 248.742 29.6654 248.785 29.6631 248.829C29.6631 250.036 28.8641 255.629 28.8641 255.629C28.8641 255.629 23.6281 253.164 21.5711 252.229C21.4011 252.229 21.2141 252.416 21.3161 252.569C23.1446 255.056 24.2612 257.995 24.5461 261.069C19.1741 261.29 13.9211 261.205 8.66811 261.324C8.62193 261.337 8.5813 261.365 8.55238 261.403C8.52346 261.442 8.50781 261.488 8.50781 261.536C8.50781 261.585 8.52346 261.631 8.55238 261.67C8.5813 261.708 8.62193 261.736 8.66811 261.749C13.9211 261.749 25.0221 261.749 25.0221 261.409C24.8721 258.372 23.8577 255.44 22.0981 252.96C22.0981 252.96 27.4531 255.459 29.0851 256.258C29.1146 256.275 29.1475 256.284 29.1813 256.286C29.2151 256.288 29.2489 256.283 29.2801 256.27C29.3113 256.256 29.3391 256.236 29.3613 256.211C29.3835 256.185 29.3995 256.155 29.4081 256.122C29.6631 254.779 29.8841 253.436 30.0201 252.059C30.0201 251.957 30.1901 249.526 30.2071 249.526C32.5914 252.487 34.74 255.63 36.6331 258.927C36.7521 259.131 37.0411 259.012 37.0751 258.808C37.8066 253.158 40.4955 247.942 44.6741 244.069C42.9741 248.132 41.5291 252.416 43.3821 256.717C43.4242 256.783 43.4899 256.83 43.5658 256.849C43.6417 256.868 43.722 256.857 43.7901 256.819C46.1041 255.453 48.279 253.865 50.2841 252.076C49.9649 253.746 50.1029 255.471 50.6834 257.069C51.264 258.667 52.2655 260.078 53.5821 261.154C54.6447 261.642 55.8302 261.796 56.9821 261.596C60.7051 261.596 67.3011 260.899 69.1711 260.933C69.3071 263.687 69.5621 266.798 69.9701 270.436C71.04 270.83 72.1364 271.148 73.2511 271.388C73.2023 272.907 73.2991 274.427 73.5401 275.927C72.9281 276.114 67.5051 280.483 66.8421 280.823C66.497 280.962 66.1977 281.195 65.9783 281.495C65.7589 281.796 65.6283 282.152 65.6011 282.523C65.64 282.854 65.7681 283.168 65.9717 283.431C66.1754 283.695 66.4469 283.898 66.7571 284.019C67.3691 284.291 80.9691 283.101 81.0711 283.016C81.5437 280.838 81.5029 278.58 80.9521 276.42C81.2071 274.72 81.3941 273.156 81.6491 271.541L83.1621 271.235C84.1651 267.614 85.0321 264.282 85.8651 261.256C91.5601 261.443 97.2551 261.698 102.95 261.783C104.65 261.783 107.574 262.123 107.812 259.743C107.965 257.941 106.248 256.343 105.075 254.949C108.351 255.513 111.455 256.816 114.153 258.757C114.22 258.79 114.296 258.798 114.368 258.78C114.44 258.761 114.502 258.717 114.544 258.655C116.43 255.923 117.998 252.986 119.219 249.9C119.422 253.563 120.513 257.122 122.398 260.27C122.419 260.307 122.447 260.34 122.482 260.365C122.516 260.391 122.555 260.409 122.596 260.419C122.638 260.429 122.681 260.429 122.723 260.421C122.765 260.413 122.805 260.396 122.84 260.372C123.963 257.04 125.876 254.031 128.416 251.6C126.678 254.699 125.992 258.278 126.461 261.8C126.461 262.055 126.818 262.293 127.039 262.038C128.33 260.505 129.952 259.284 131.782 258.468C131.561 258.808 131.34 259.148 131.136 259.488C130.932 259.828 131.306 260.032 131.561 259.913L137.528 257.091C136.66 258.265 136.036 259.6 135.692 261.018C135.182 263.143 136.321 263.959 138.378 264.214C143.019 264.775 157.078 264.673 159.288 264.639C160.138 266.22 160.988 267.92 161.974 269.739C162.824 269.858 163.674 269.943 164.558 269.977C164.728 271.269 164.932 272.561 165.136 273.819C164.32 275.162 164.779 280.398 165.136 280.789C165.235 280.861 165.354 280.902 165.476 280.908C166.156 280.993 179.076 281.061 179.62 280.738C179.921 280.591 180.175 280.364 180.355 280.082C180.535 279.8 180.633 279.474 180.64 279.14C180.578 278.771 180.415 278.426 180.169 278.144C179.923 277.862 179.604 277.653 179.246 277.542C178.549 277.287 173.245 273.717 172.446 273.496C172.574 272.003 172.574 270.501 172.446 269.008C173.302 268.759 174.142 268.458 174.962 268.107C174.962 267.631 174.673 266.407 174.282 264.435C191.758 264.112 248.402 263.874 259.282 263.636C260.37 266.016 259.044 267.427 257.14 268.736C254.437 270.436 255.44 273.292 259.163 273.275C260.099 273.204 261.008 272.93 261.827 272.472C262.646 272.014 263.356 271.383 263.906 270.623C265.617 268.783 266.88 266.572 267.595 264.163C270.774 263.959 273.987 264.078 277.166 264.163C277.376 265.212 277.335 266.295 277.047 267.325C275.942 271.218 273.545 271.439 272.61 272.901C271.165 275.145 274.565 276.301 276.265 276.182C281.501 275.672 283.711 269.212 284.765 264.078C297.062 264.225 309.356 263.658 321.587 262.378C321.808 262.378 321.825 262.021 321.587 262.021C309.347 262.82 297.124 263.619 284.85 263.551C286.55 255.051 280.447 250.818 277.115 245.514C275.795 243.215 275.016 240.645 274.837 238C274.861 236.921 275.009 235.849 275.279 234.804C275.279 234.804 278.203 235.144 279.087 235.161C283.584 235.214 287.983 233.838 291.649 231.233C295.314 228.627 298.059 224.925 299.487 220.66C299.64 220.269 299.062 220.082 298.858 220.388C298.416 221.051 296.886 221.051 295.832 220.966C298.176 218.422 299.559 215.139 299.742 211.684C299.745 211.639 299.737 211.593 299.721 211.551C299.705 211.509 299.68 211.47 299.648 211.438C299.616 211.406 299.577 211.381 299.535 211.365C299.493 211.349 299.447 211.342 299.402 211.344C299.079 211.344 298.892 211.871 297.447 212.517C298.102 211.123 298.442 209.603 298.442 208.063C298.442 206.523 298.102 205.002 297.447 203.609C297.311 203.32 296.903 203.439 296.818 203.609C296.563 204.484 296.116 205.292 295.509 205.972C291.089 197.659 282.266 189.618 272.236 193.97C271.896 194.123 272.117 194.599 272.423 194.616C275.586 194.902 278.531 196.353 280.686 198.687C282.84 201.02 284.052 204.071 284.085 207.247C284.052 210.452 283.121 213.584 281.4 216.288C279.678 218.992 277.234 221.16 274.344 222.547C264.025 227.868 250.544 224.621 242.282 216.767C243.285 215.594 242.843 213.367 242.571 212.126C242.367 211.191 241.007 206.771 239.375 208.08C238.634 206.106 238.417 203.974 238.746 201.892C240.384 202.628 242.235 202.737 243.948 202.198C247.637 201.042 249.966 197.727 251.428 194.31C251.768 193.494 252.754 191.726 251.615 191.199C250.748 190.808 248.096 191.743 246.702 191.692C244.373 191.692 241.993 190.519 239.664 190.264C238.627 190.365 237.606 190.588 236.621 190.927C236.485 190.927 236.281 190.655 236.417 190.587C237.32 190.162 238.294 189.909 239.29 189.839C241.21 187.368 242.537 184.489 243.166 181.424C243.37 180.234 243.166 177.616 241.466 177.701C240.599 177.701 239.766 179.537 239.12 180.081C237.281 181.353 235.241 182.307 233.085 182.903C232.258 183.117 231.541 183.634 231.078 184.353C230.615 185.071 230.439 185.937 230.586 186.779C228.215 186.018 225.671 185.976 223.276 186.66C222.018 187.017 220.862 187.901 219.519 187.663C218.257 187.318 217.046 186.809 215.915 186.15C215.915 186.15 216.612 178.16 218.669 174.896C221.95 169.694 228.308 171.224 233.102 173.196C233.289 173.196 233.527 173.043 233.442 172.839C232.937 171.6 232.7 170.268 232.746 168.93C232.792 167.593 233.121 166.28 233.711 165.079C234.3 163.878 235.138 162.815 236.167 161.96C237.197 161.105 238.396 160.478 239.685 160.119C240.974 159.761 242.325 159.679 243.648 159.88C244.971 160.08 246.237 160.558 247.362 161.283C248.487 162.007 249.446 162.962 250.176 164.083C250.906 165.205 251.391 166.468 251.598 167.79C251.623 167.848 251.664 167.898 251.717 167.933C251.77 167.968 251.832 167.987 251.896 167.987C251.959 167.987 252.021 167.968 252.074 167.933C252.127 167.898 252.168 167.848 252.193 167.79C252.814 166.94 253.611 166.235 254.531 165.724C255.451 165.213 256.471 164.908 257.521 164.83C258.57 164.753 259.624 164.904 260.609 165.274C261.594 165.645 262.487 166.224 263.226 166.974C264.372 168.191 265.233 169.647 265.748 171.238C266.262 172.828 266.417 174.513 266.201 176.171C266.202 176.23 266.218 176.288 266.249 176.339C266.279 176.39 266.322 176.432 266.373 176.461C266.425 176.491 266.483 176.506 266.542 176.506C266.602 176.505 266.66 176.49 266.711 176.46C270.264 174.267 274.633 172.397 278.883 173.468C280.764 173.866 282.448 174.907 283.645 176.412C284.843 177.916 285.479 179.79 285.445 181.713C285.448 181.775 285.468 181.834 285.504 181.885C285.54 181.935 285.589 181.975 285.646 181.998C285.704 182.021 285.766 182.028 285.827 182.016C285.888 182.005 285.944 181.976 285.989 181.934C286.649 181.081 287.577 180.474 288.623 180.214C289.67 179.953 290.774 180.053 291.757 180.497C292.74 180.941 293.544 181.704 294.04 182.662C294.536 183.62 294.694 184.717 294.489 185.776C294.489 186.031 294.693 186.303 294.948 186.133C295.757 185.564 296.7 185.217 297.685 185.125C298.669 185.034 299.66 185.202 300.559 185.613C301.459 186.024 302.235 186.664 302.81 187.468C303.385 188.272 303.74 189.212 303.839 190.196C303.839 190.417 304.162 190.638 304.349 190.417C307.987 185.81 316.589 189.414 317.354 201.977C317.762 208.488 318.221 215.764 312.798 220.388C312.492 220.66 312.883 221.119 313.24 220.932C314.095 220.427 315.083 220.191 316.074 220.257C317.065 220.323 318.013 220.686 318.794 221.3C319.575 221.914 320.153 222.749 320.451 223.697C320.749 224.644 320.754 225.66 320.465 226.61C320.455 226.661 320.457 226.713 320.469 226.763C320.481 226.814 320.504 226.861 320.537 226.901C320.569 226.942 320.61 226.974 320.656 226.998C320.703 227.021 320.753 227.033 320.805 227.035C326.075 227.171 324.494 233.835 323.304 236.81C323.283 236.9 323.298 236.995 323.346 237.074C323.393 237.153 323.47 237.211 323.559 237.235C335.221 240.703 331.94 259.947 317.745 259.777ZM288.845 156.077C284.612 154.564 283.15 151.147 282.453 146.948C280.974 138.006 279.648 118.456 281.178 114.546C282.002 112.687 283.531 111.232 285.428 110.5C287.416 109.482 289.603 108.912 291.835 108.83C294.067 108.748 296.29 109.155 298.348 110.024C301.578 111.622 304.281 116.28 305.454 129.574C305.95 134.852 305.893 140.168 305.284 145.435C304.74 149.889 303.176 154.037 298.96 156.128C297.282 156.707 295.517 156.995 293.741 156.978C293.741 155.89 293.741 154.768 293.639 153.68C294.918 152.081 296.055 150.375 297.039 148.58C297.055 148.554 297.065 148.526 297.07 148.496C297.074 148.466 297.073 148.436 297.066 148.407C297.059 148.378 297.046 148.35 297.028 148.326C297.011 148.302 296.988 148.281 296.963 148.265C296.937 148.25 296.908 148.239 296.879 148.235C296.849 148.23 296.819 148.231 296.79 148.239C296.76 148.246 296.733 148.258 296.709 148.276C296.684 148.294 296.664 148.316 296.648 148.342C295.531 149.795 294.514 151.323 293.605 152.915C293.435 147.951 293.18 137.496 293.18 137.496C294.994 133.254 297.043 129.117 299.317 125.103C299.47 124.848 299.113 124.661 298.943 124.882C296.434 128.298 294.483 132.091 293.163 136.119C293.163 129.319 293.435 122.519 293.333 115.719C293.319 115.665 293.287 115.616 293.242 115.582C293.198 115.548 293.143 115.529 293.087 115.529C293.03 115.529 292.976 115.548 292.931 115.582C292.887 115.616 292.855 115.665 292.84 115.719C292.211 123.097 292.568 143.395 292.636 146.098C290.958 143.417 288.616 141.215 285.836 139.706C285.581 139.57 285.36 139.944 285.615 140.08C288.381 141.911 290.765 144.26 292.636 146.999C292.721 150.297 293.061 156.944 293.061 156.995C291.596 156.927 290.15 156.629 288.777 156.111L288.845 156.077ZM57.8831 39.916C59.5831 37.179 62.7791 38.896 65.3291 38.913C64.6676 39.9573 63.8475 40.8922 62.8981 41.684C61.0791 43.01 59.4981 42.007 57.7981 41.106L57.8831 39.916ZM34.1171 159.8C29.7481 155.584 29.7651 149.396 29.7821 143.378C29.7821 127.432 28.6431 108.596 44.5381 110.092C48.5331 110.483 52.8171 111.537 54.8401 115.396C57.0501 119.629 57.7981 125.103 58.2401 129.778C59.9401 145.571 58.0021 148.036 56.7951 153.017C56.1491 155.669 53.8371 162.146 47.5641 162.894C46.4329 162.992 45.2953 162.992 44.1641 162.894C44.1641 161.704 44.2491 160.497 44.1641 159.307C44.8583 158.675 45.5113 157.999 46.1191 157.284C46.1619 157.241 46.186 157.183 46.186 157.122C46.186 157.062 46.1619 157.004 46.1191 156.961C46.0763 156.918 46.0182 156.894 45.9576 156.894C45.897 156.894 45.8389 156.918 45.7961 156.961C45.1904 157.487 44.6224 158.055 44.0961 158.661C44.0961 157.148 43.8581 139.077 43.8751 137.717C45.2883 136.173 46.5046 134.46 47.4961 132.617C49.0261 130.271 50.7091 128.027 52.3241 125.817C52.4771 125.596 52.1371 125.341 51.9671 125.528C49.1216 129.227 46.5261 133.111 44.1981 137.156C44.1981 137.156 44.6401 123.556 44.7761 116.756C44.7761 116.501 44.4021 116.518 44.3851 116.756C43.7391 123.726 43.5521 147.356 43.6031 150.229C41.1245 146.723 38.3306 143.451 35.2561 140.454C35.0691 140.25 34.8141 140.454 34.9671 140.743C37.7891 144.143 40.5941 147.747 43.6201 150.943C43.6201 151.708 43.8071 161.687 43.7731 162.843C39.3531 162.639 37.2451 162.758 34.1171 159.8ZM80.0171 275.995C78.7761 275.995 75.5631 275.91 74.0841 275.995C73.9055 274.551 73.8033 273.098 73.7781 271.643C76.0858 272.052 78.4433 272.098 80.7651 271.779C80.5441 273.088 80.2891 274.516 80.0511 275.927L80.0171 275.995ZM225.418 113.186C223.189 118.668 220.337 123.876 216.918 128.707C215.388 119.476 213.603 110.16 215.32 100.878C215.32 100.623 214.98 100.504 214.929 100.759C213.952 106.897 213.952 113.151 214.929 119.289C214.13 118.541 214.742 119.289 208.316 114.07C208.095 113.883 207.755 114.223 207.993 114.41L212.073 117.81C213.11 118.57 214.103 119.387 215.048 120.258C216.136 128.469 217.377 133.382 218.108 145.214C212.328 140.862 209.897 139.995 208.197 137.836C208.01 137.615 207.687 137.938 207.874 138.159C209.234 139.624 210.79 140.894 212.498 141.933L218.108 145.894C218.193 147.373 218.261 148.835 218.329 150.297C215.836 151.328 213.124 151.719 210.441 151.436C207.553 151.359 204.78 150.29 202.587 148.41C197.487 143.99 194.75 136.289 199.187 130.407C199.21 130.369 199.223 130.326 199.226 130.282C199.23 130.238 199.223 130.194 199.207 130.153C199.19 130.112 199.165 130.075 199.132 130.045C199.099 130.016 199.06 129.994 199.017 129.982C196.312 129.616 193.825 128.3 192 126.27C190.175 124.24 189.131 121.627 189.055 118.898C189.098 116.065 190.213 113.353 192.175 111.309C194.137 109.265 196.8 108.041 199.629 107.882C200.343 107.882 198.354 100.725 200.428 93.177C202.229 87.0053 205.958 81.5722 211.07 77.673C214.759 75.276 218.261 76.755 220.743 79.934C220.961 80.2347 221.247 80.4793 221.578 80.6478C221.909 80.8162 222.276 80.9037 222.647 80.903C223.228 80.7981 223.827 80.9007 224.34 81.1928C224.852 81.4849 225.246 81.948 225.452 82.501C226.775 85.4384 227.569 88.5864 227.798 91.8C228.339 95.5431 228.464 99.3344 228.172 103.105C228.171 103.139 228.178 103.172 228.192 103.203C228.206 103.234 228.227 103.261 228.254 103.282C228.28 103.304 228.311 103.319 228.344 103.326C228.377 103.334 228.411 103.334 228.444 103.326C232.915 102.034 235.346 106.726 235.754 110.398C237.046 121.907 233.017 122.638 236.06 124.287C238.831 125.8 241.568 129.642 237.76 134.929C236.944 136.034 237.216 144.16 233.34 147.475C230.025 150.331 223.735 150.756 219.298 150.348C218.917 143.356 218.179 136.389 217.088 129.472C220.807 124.526 223.758 119.047 225.843 113.22C225.894 113.05 225.52 112.948 225.418 113.186ZM167.618 142.222C173.95 147.386 179.021 153.927 182.442 161.347C183.02 162.758 183.717 164.934 182.442 166.226C181.167 167.518 177.342 166.583 176.968 165.24C177.713 165.003 178.364 164.537 178.828 163.908C179.292 163.279 179.546 162.52 179.552 161.738C179.536 161.667 179.495 161.604 179.438 161.559C179.381 161.513 179.31 161.489 179.238 161.489C179.165 161.489 179.094 161.513 179.037 161.559C178.98 161.604 178.94 161.667 178.923 161.738C178.932 162.228 178.815 162.712 178.583 163.144C178.351 163.576 178.011 163.94 177.597 164.203C177.223 164.475 175.727 165.308 175.438 164.424C175.817 163.724 176.249 163.053 176.73 162.418C176.985 162.065 177.142 161.651 177.184 161.218C177.226 160.785 177.151 160.348 176.968 159.953C176.254 158.814 174.027 158.406 172.888 158.032C170.321 157.165 155.293 151.079 150.261 148.937C148.459 148.155 142.662 146.251 141.761 145.792C142.227 139.133 141.366 132.447 139.228 126.123C149.156 130.492 159.169 135.218 167.567 142.222H167.618ZM138.123 124.61C140.779 132.368 141.639 140.628 140.639 148.767C140.133 148.747 139.631 148.667 139.143 148.529C138.651 140.052 137.393 131.637 135.386 123.386L138.14 124.61H138.123ZM105.177 96.9C104.774 96.633 104.428 96.2883 104.159 95.886C103.891 95.4837 103.705 95.0319 103.613 94.557C103.522 94.0821 103.525 93.5937 103.625 93.1203C103.724 92.6469 103.916 92.198 104.191 91.8C104.953 91.3681 105.846 91.2283 106.703 91.4066C107.56 91.585 108.323 92.0692 108.849 92.769C109.481 92.4964 109.989 91.9999 110.277 91.375C110.668 90.372 110.124 89.301 111.28 87.975C111.487 88.1157 111.723 88.209 111.97 88.2481C112.217 88.2873 112.47 88.2714 112.71 88.2016C112.95 88.1317 113.172 88.0097 113.36 87.8442C113.548 87.6786 113.697 87.4737 113.796 87.244C114.364 87.9856 115.179 88.4984 116.094 88.6887C117.008 88.8791 117.961 88.7344 118.777 88.281C118.71 88.582 118.725 88.8956 118.823 89.1884C118.92 89.4811 119.095 89.7419 119.329 89.9428C119.563 90.1437 119.847 90.2771 120.151 90.3287C120.455 90.3804 120.768 90.3483 121.055 90.236C120.938 90.8803 121.068 91.545 121.417 92.0989C121.766 92.6528 122.31 93.0556 122.942 93.228C122.704 93.874 122.67 94.707 124.132 95.319C123.333 101.218 120.834 110.058 114.187 108.324C114.124 108.286 114.048 108.274 113.976 108.292C113.905 108.309 113.843 108.354 113.805 108.417C113.766 108.481 113.755 108.556 113.772 108.628C113.79 108.7 113.835 108.762 113.898 108.8C114.068 111.302 114.94 113.706 116.414 115.736C116.005 116.552 115.422 117.269 114.705 117.834C113.988 118.4 113.155 118.8 112.266 119.008C111.377 119.216 110.453 119.225 109.56 119.036C108.667 118.846 107.826 118.463 107.098 117.912C105.176 116.532 103.817 114.503 103.273 112.2V99.705C104.092 98.9091 104.74 97.9547 105.177 96.9ZM39.8121 70.21C39.8121 69.088 39.5741 67.439 40.5091 66.81C41.0191 66.453 41.7671 66.504 42.3281 66.215C42.8891 65.926 44.5211 63.767 45.8471 64.77C46.8501 65.535 46.0341 67.15 45.4221 67.864C44.8101 68.578 43.0931 69.734 42.2941 69.224C42.0027 68.9335 41.7563 68.6012 41.5631 68.238C41.4101 68 41.0361 68.238 41.1721 68.459L41.3931 68.816L39.8121 70.21ZM50.9981 99.246C48.1761 93.772 41.8181 79.101 40.1691 72.556L42.6171 70.057C42.6171 70.057 43.4501 70.533 45.2351 68.561C46.0171 67.711 46.9351 66.487 46.7141 65.382L47.7511 64.26C47.4111 67.796 45.2521 69.853 48.3631 74.46C50.7601 78.115 62.2691 85.918 68.4401 94.418C70.7917 97.8837 73.808 100.848 77.3141 103.139C73.2349 108.273 69.7663 113.864 66.9781 119.799C60.2635 114.15 54.818 107.146 50.9981 99.246ZM65.2101 125.8C68.3786 117.371 72.847 109.489 78.4531 102.442C79.6091 103.207 80.7821 103.938 81.9891 104.652C77.7391 112.744 73.2851 120.836 69.4261 129.132C67.9981 128.01 66.6551 126.888 65.2101 125.8ZM87.5141 167.433C84.5051 158.729 84.7261 148.733 85.2531 139.604C87.2755 140.282 89.3595 140.76 91.4751 141.032C91.7131 141.032 91.7131 140.692 91.4751 140.658C83.1111 139.604 76.1751 134.946 69.7491 129.438C74.2711 121.431 78.2491 113.084 82.3631 104.873C88.6774 108.632 95.6351 111.186 102.882 112.404C103.227 113.858 103.897 115.214 104.843 116.372C105.788 117.529 106.983 118.457 108.339 119.085C111.433 120.309 115.564 119.221 116.839 115.889C123.033 117.862 129.078 120.276 134.927 123.114C136.848 131.461 137.681 139.91 138.786 148.376C137.788 148 136.74 147.776 135.675 147.713C135.675 147.713 131.425 132.889 127.056 126.752C126.886 126.514 126.478 126.752 126.648 126.99C129.994 132.416 132.494 138.321 134.06 144.5C134.4 145.673 137.817 157.845 139.007 162.69C140.401 168.351 138.837 170.714 138.616 171.088C136.916 172.261 133.516 173.196 125.645 173.757C121.564 173.913 117.478 173.839 113.405 173.536C105.007 173.23 96.2011 173.043 88.4151 169.524C88.0542 168.855 87.7527 168.155 87.5141 167.433ZM88.6021 169.949C96.7111 173.723 105.415 173.757 114.102 174.08C119.559 174.284 132.326 175.066 137.664 172.193C135.711 173.985 133.276 175.166 130.66 175.593C124.387 176.987 107.064 178.432 97.3231 175.712C94.7139 174.965 92.2647 173.743 90.0981 172.108C89.5109 171.473 89.0081 170.764 88.6021 170V169.949ZM140.656 263.687C139.211 263.687 137.579 263.891 136.678 262.65C135.199 260.661 138.055 256.887 139.211 256.19C139.534 256.003 139.211 255.544 138.922 255.697L132.241 258.825L132.853 257.873C132.879 257.816 132.889 257.753 132.882 257.691C132.875 257.629 132.85 257.57 132.812 257.521C132.773 257.471 132.721 257.434 132.663 257.412C132.604 257.39 132.541 257.385 132.479 257.397C130.413 258.122 128.553 259.335 127.056 260.933C126.73 257.053 127.85 253.19 130.201 250.087C130.388 249.815 130.014 249.424 129.742 249.628C126.444 252.094 123.962 255.493 122.619 259.386C120.767 256.063 119.78 252.327 119.746 248.523C119.73 248.456 119.692 248.397 119.638 248.354C119.584 248.312 119.517 248.289 119.449 248.289C119.38 248.289 119.313 248.312 119.259 248.354C119.205 248.397 119.167 248.456 119.151 248.523C117.968 251.9 116.246 255.063 114.051 257.89C111.081 256.087 107.781 254.896 104.344 254.388C104.285 254.367 104.22 254.367 104.161 254.389C104.102 254.41 104.052 254.452 104.02 254.506C103.988 254.56 103.975 254.624 103.985 254.686C103.994 254.748 104.025 254.805 104.072 254.847C105.517 256.717 109.614 260.695 104.684 261.341C101.913 261.698 89.2821 260.814 85.9841 260.729C87.6841 254.456 89.0781 249.56 90.3701 245.939C98.1051 223.907 112.198 204 113.167 203.864C114.136 203.728 126.24 215.764 129.096 218.858C138.361 228.786 149.496 246.67 153.967 254.83C155.259 257.193 156.976 260.321 158.965 264.061C157.775 264.061 140.656 263.874 140.656 263.687ZM171.766 273.343H165.833C165.663 272.17 165.442 270.997 165.238 269.824C167.434 269.977 169.639 269.706 171.732 269.025C171.817 270.463 171.805 271.906 171.698 273.343H171.766ZM257.344 253.3C263.6 256.479 271.318 257.992 274.038 259.607C275.482 260.456 276.537 261.834 276.979 263.449C273.86 263.253 270.731 263.253 267.612 263.449C268.02 260.661 265.793 260.627 265.419 256.938C258.959 255 253.162 252.467 249.677 246.296C249.592 246.194 249.983 245.99 250.068 246.109C251.848 249.081 254.351 251.555 257.344 253.3ZM226.098 189.771C226.156 189.75 226.219 189.746 226.28 189.758C226.341 189.771 226.397 189.8 226.442 189.842C226.488 189.884 226.521 189.937 226.538 189.997C226.555 190.056 226.556 190.119 226.54 190.179C226.421 190.604 224.976 191.879 224.534 191.879C224.456 191.879 224.38 191.849 224.324 191.795C224.267 191.742 224.232 191.668 224.228 191.59C224.296 191.182 225.741 189.839 226.098 189.771ZM223.514 211.871C227.701 212.326 231.936 212.009 236.009 210.936C237.397 210.559 238.604 209.697 239.409 208.505C239.591 208.399 239.805 208.364 240.012 208.404C240.218 208.445 240.403 208.559 240.531 208.726C241.643 210.53 242.27 212.592 242.35 214.71C241.857 217.192 238.729 218.212 236.638 218.824C233.249 219.793 229.742 220.285 226.217 220.286C224.143 220.286 219.961 220.507 219.009 218.127C218.752 217.291 218.688 216.407 218.822 215.543C218.975 213.945 218.822 211.361 220.522 211.055C220.794 211.055 221.695 211.599 223.48 211.854L223.514 211.871ZM216.578 220.541C216.376 220.482 216.187 220.384 216.022 220.253C215.858 220.121 215.721 219.958 215.62 219.773C215.519 219.588 215.456 219.385 215.433 219.175C215.411 218.966 215.43 218.754 215.49 218.552C215.71 218.078 216.077 217.686 216.536 217.436C216.995 217.185 217.522 217.087 218.04 217.158C218.035 217.521 218.108 217.88 218.255 218.211C218.402 218.543 218.618 218.839 218.89 219.079C218.771 219.3 218.261 221.085 216.646 220.609L216.578 220.541ZM218.278 200.515C218.414 200.379 218.652 200.515 218.55 200.719C216.323 203.796 212.6 203.83 209.166 203.388C213.399 206.788 218.125 207.043 219.485 207.57C220.845 208.097 220.624 210.426 220.624 210.46C219.944 210.749 217.751 211.31 218.091 215.747C218.117 216.041 218.117 216.337 218.091 216.631C217.633 216.58 217.169 216.624 216.727 216.758C216.286 216.892 215.877 217.115 215.524 217.413C215.099 217.817 214.845 218.369 214.817 218.955C214.788 219.541 214.987 220.115 215.371 220.558C216.425 221.697 218.346 221.578 219.4 219.538C219.4 221.595 219.4 223.669 219.536 225.743C219.859 227.936 220.097 230.146 220.25 232.356C220.352 234.056 220.522 235.569 219.281 236.81C218.414 237.66 215.728 238.102 214.181 238.629C213.274 238.905 212.456 239.415 211.809 240.107C211.161 240.8 210.707 241.65 210.492 242.573C208.044 250.07 202.451 253.147 204.066 255.816C204.729 256.921 206.31 256.717 207.466 256.496C209.454 256.126 211.308 255.234 212.838 253.912C213.739 253.13 215.473 249.951 217.496 248.914C218.431 248.438 220.896 249.271 224.041 249.033C229.086 248.543 233.74 246.103 237.012 242.233C240.454 244.172 244.212 245.485 248.113 246.109C248.865 251.26 251.376 255.993 255.219 259.505C256.607 260.441 257.84 261.588 258.874 262.905C241.721 262.803 185.196 263.602 174.095 263.806C172.14 254.32 166.904 231.642 162.314 218.756C162.314 218.756 155.089 193.545 141.914 178.857C140.415 177.109 138.814 175.452 137.12 173.893C138.461 172.603 139.423 170.97 139.902 169.172C140.382 167.374 140.36 165.48 139.84 163.693C140.575 162.958 141.455 162.384 142.424 162.006C143.392 161.629 144.428 161.456 145.467 161.5C150.652 161.738 155.004 171.7 151.06 176.256C151.001 176.312 150.968 176.39 150.966 176.471C150.964 176.552 150.995 176.631 151.052 176.689C151.108 176.748 151.185 176.782 151.267 176.784C151.348 176.785 151.426 176.754 151.485 176.698C154.885 173.468 161.226 173.502 163.895 177.752C166.054 181.152 165.119 185.895 163.096 189.159C162.943 189.414 163.266 189.771 163.538 189.584C167.091 187.204 170.916 187.765 172.31 191.947C173.075 194.306 173.075 196.847 172.31 199.206C172.208 199.512 172.616 199.716 172.837 199.512C175.506 197.064 178.617 194.701 182.374 194.412C186.131 194.123 190.16 196.707 189.956 200.94C189.963 201.009 189.99 201.073 190.034 201.126C190.078 201.179 190.137 201.217 190.204 201.236C190.27 201.254 190.34 201.252 190.405 201.229C190.47 201.207 190.527 201.165 190.568 201.11C191.152 200.184 191.955 199.417 192.907 198.877C193.859 198.337 194.93 198.041 196.025 198.016C197.119 197.991 198.202 198.237 199.178 198.732C200.154 199.227 200.993 199.957 201.618 200.855C201.873 201.195 202.434 200.855 202.196 200.515C200.836 198.237 200.598 194.48 203.59 193.477C204.105 197.034 205.828 200.305 208.469 202.742C212.056 203.201 215.745 203.337 218.397 200.6L218.278 200.515ZM232.337 172.21C227.866 170.51 222.715 169.456 219.298 172.873C215.881 176.29 215.796 181.492 215.286 185.827C213.314 184.909 211.359 183.974 209.421 182.988C209.37 182.629 209.216 182.293 208.979 182.019C208.384 181.254 206.667 179.911 205.579 180.506C204.168 181.373 204.916 184.382 204.916 184.382C203.346 186.881 202.741 189.867 203.216 192.78C200.411 193.596 199.816 196.537 200.581 199.053C199.103 197.829 197.2 197.239 195.288 197.415C193.377 197.59 191.612 198.515 190.381 199.988C190.187 198.434 189.483 196.988 188.378 195.877C187.273 194.766 185.831 194.054 184.278 193.851C179.96 193.154 176.135 195.551 172.99 198.254C174.537 191.454 170.627 184.824 163.997 188.377C165.867 184.705 166.428 179.69 163.572 176.477C162.14 174.976 160.231 174.02 158.172 173.772C156.113 173.524 154.031 173.999 152.284 175.117C152.982 173.513 153.194 171.74 152.896 170.017C179.093 171.003 205.868 170.187 232.065 169.915C232.184 170.629 232.745 172.499 232.456 172.278L232.337 172.21Z" fill="#1C1C1C"/>
<path d="M204.88 229.007C204.296 229.844 203.811 230.745 203.435 231.693C202.822 232.802 202.129 233.864 201.361 234.872C198.896 238 197.961 237.932 197.4 239.513C196.669 242.998 202.007 242.335 203.656 241.332C205.968 239.955 207.362 237.405 209.793 236.232C212.581 234.838 219.041 236.776 219.041 236.776C219.945 235.137 220.182 233.213 219.704 231.404C219.551 229.704 219.313 227.851 219.058 226.117C216.168 227.532 212.976 228.221 209.759 228.123C208.059 228.021 206.121 227.596 204.88 229.007Z" fill="#1C1C1C"/>
</svg>
