<svg width="20" height="20" viewBox="0 0 20 20" fill="none" xmlns="http://www.w3.org/2000/svg">
<path d="M17.9334 11.2848V8.68544C17.87 8.03083 17.2587 6.5917 15.3202 6.07228C14.135 5.75473 12.0884 5.52678 9.99219 5.48486" stroke="white"/>
<path d="M2.0625 11.2848V8.68544C2.12586 8.03083 2.73721 6.5917 4.67567 6.07228C5.86084 5.75473 7.90755 5.52678 10.0037 5.48486" stroke="white"/>
<path d="M9.97963 14.5151H6.84075C2.73839 14.5151 2.06192 12.5484 2.0625 11.3057V11.2847" stroke="white"/>
<path d="M17.9362 11.2847V11.3057C17.9368 12.5484 17.2603 14.5151 13.1579 14.5151H10.019H9.98438" stroke="white"/>
<path d="M17.8319 8.50195C17.5825 8.75217 16.8779 9.2527 16.0548 9.2527C15.0259 9.2527 14.4424 9.53017 14.0952 10.7248C13.7479 11.9195 12.543 12.3641 10.0703 12.4196" stroke="white"/>
<path d="M2.33594 8.50195C2.58534 8.75217 3.28991 9.2527 4.11307 9.2527C5.142 9.2527 5.72544 9.53017 6.07273 10.7248C6.42001 11.9195 7.62484 12.3641 10.0975 12.4196" stroke="white"/>
</svg>
