<svg width="20" height="20" viewBox="0 0 20 20" fill="none" xmlns="http://www.w3.org/2000/svg">
<path d="M3.33594 6.5C3.33594 4.61438 3.33594 3.67157 3.92172 3.08579C4.50751 2.5 5.45032 2.5 7.33594 2.5H12.6693C14.5549 2.5 15.4977 2.5 16.0835 3.08579C16.6693 3.67157 16.6693 4.61438 16.6693 6.5V11.5C16.6693 14.3284 16.6693 15.7426 15.7906 16.6213C14.9119 17.5 13.4977 17.5 10.6693 17.5H9.33593C6.50751 17.5 5.0933 17.5 4.21462 16.6213C3.33594 15.7426 3.33594 14.3284 3.33594 11.5V6.5Z" stroke="#1C1C1C"/>
<path d="M12.5 15L12.5 17.5M7.5 15L7.5 17.5" stroke="#1C1C1C" stroke-linecap="round"/>
<path d="M7.5 6.66797L12.5 6.66797" stroke="#1C1C1C" stroke-linecap="round"/>
<path d="M7.5 10L12.5 10" stroke="#1C1C1C" stroke-linecap="round"/>
</svg>
