<svg width="340" height="340" viewBox="0 0 340 340" fill="none" xmlns="http://www.w3.org/2000/svg">
<rect width="340" height="340" fill="white"/>
<path d="M316.737 184.83L33.0775 153.17C30.2394 152.868 27.3965 153.696 25.1647 155.475C22.9328 157.254 21.4917 159.841 21.1537 162.675L7.74748 282.221C7.57935 283.63 7.6923 285.06 8.07978 286.425C8.46726 287.79 9.1216 289.065 10.005 290.177C10.8883 291.289 11.9832 292.214 13.2263 292.899C14.4693 293.584 15.8359 294.016 17.2471 294.17C244.8 319.684 293.655 324.927 300.883 325.829C302.294 325.999 303.724 325.887 305.089 325.501C306.456 325.114 307.733 324.461 308.844 323.577C309.956 322.693 310.881 321.596 311.566 320.352C312.249 319.108 312.681 317.741 312.833 316.328L326.239 196.777C326.409 195.368 326.298 193.937 325.911 192.572C325.525 191.205 324.87 189.928 323.986 188.816C323.102 187.704 322.006 186.78 320.761 186.096C319.517 185.411 318.15 184.981 316.737 184.83ZM324.557 196.56L311.146 316.139C311.019 317.326 310.655 318.477 310.08 319.522C309.504 320.568 308.725 321.489 307.792 322.232C306.857 322.975 305.784 323.526 304.635 323.852C303.488 324.177 302.286 324.272 301.099 324.129L93.7641 300.873L94.3608 296.227C94.3751 296.117 94.3675 296.005 94.3382 295.896C94.309 295.789 94.259 295.687 94.1907 295.598C94.1225 295.51 94.0377 295.437 93.9408 295.381C93.8439 295.325 93.7371 295.289 93.6264 295.275C93.5156 295.26 93.4032 295.269 93.2954 295.297C93.1877 295.326 93.0867 295.377 92.9983 295.445C92.9099 295.513 92.8358 295.598 92.7802 295.695C92.7246 295.792 92.6887 295.899 92.6744 296.01L92.0743 300.683L17.429 292.479C16.2418 292.351 15.0918 291.988 14.0458 291.413C12.9997 290.837 12.0784 290.058 11.3351 289.125C10.5919 288.19 10.0416 287.117 9.71611 285.968C9.39061 284.819 9.29642 283.617 9.43898 282.432L22.8452 162.86C23.1126 160.637 24.1874 158.589 25.8653 157.106C27.5432 155.623 29.7074 154.807 31.947 154.814L107.476 163.189L107.016 166.759C106.987 166.982 107.048 167.208 107.186 167.387C107.323 167.565 107.526 167.682 107.75 167.711C107.974 167.739 108.2 167.678 108.378 167.541C108.557 167.403 108.673 167.2 108.702 166.976L109.166 163.374L316.556 186.525C317.744 186.652 318.893 187.014 319.94 187.589C320.986 188.163 321.907 188.942 322.652 189.875C323.395 190.809 323.947 191.881 324.274 193.031C324.598 194.178 324.693 195.38 324.552 196.567L324.557 196.56Z" fill="black"/>
<path d="M96.15 271.783C96.0389 271.771 95.9266 271.779 95.8193 271.81C95.712 271.842 95.6119 271.893 95.5245 271.963C95.4373 272.032 95.3646 272.119 95.3105 272.216C95.2566 272.315 95.2223 272.422 95.2099 272.532L93.8958 284.288C93.8709 284.514 93.9367 284.74 94.0787 284.917C94.2205 285.093 94.4268 285.206 94.6523 285.231C94.8777 285.257 95.1038 285.19 95.2807 285.049C95.4575 284.906 95.5709 284.701 95.5958 284.475L96.8997 272.721C96.9245 272.497 96.8595 272.272 96.7189 272.097C96.5784 271.92 96.3737 271.808 96.15 271.783Z" fill="black"/>
<path d="M104.023 201.259C103.913 201.247 103.8 201.256 103.693 201.286C103.585 201.317 103.485 201.37 103.398 201.439C103.311 201.509 103.238 201.594 103.184 201.693C103.13 201.789 103.096 201.898 103.083 202.009L101.771 213.763C101.758 213.873 101.768 213.985 101.799 214.092C101.83 214.201 101.882 214.3 101.951 214.388C102.021 214.475 102.107 214.548 102.205 214.602C102.302 214.655 102.41 214.691 102.521 214.703C102.632 214.715 102.744 214.706 102.851 214.675C102.959 214.643 103.059 214.592 103.146 214.522C103.233 214.453 103.306 214.366 103.36 214.269C103.414 214.171 103.448 214.063 103.461 213.953L104.773 202.197C104.798 201.973 104.733 201.749 104.592 201.574C104.452 201.397 104.247 201.285 104.023 201.259Z" fill="black"/>
<path d="M101.397 224.767C101.173 224.742 100.948 224.808 100.772 224.947C100.596 225.088 100.484 225.292 100.458 225.517L99.1459 237.271C99.1209 237.495 99.186 237.719 99.3267 237.896C99.4675 238.071 99.6724 238.185 99.8964 238.209C100.121 238.234 100.345 238.17 100.522 238.029C100.698 237.888 100.811 237.684 100.836 237.459L102.148 225.707C102.161 225.597 102.151 225.483 102.12 225.376C102.089 225.269 102.037 225.168 101.968 225.082C101.898 224.993 101.811 224.922 101.713 224.867C101.615 224.813 101.508 224.779 101.397 224.767Z" fill="black"/>
<path d="M98.7695 248.275C98.6585 248.263 98.5461 248.271 98.4389 248.302C98.3316 248.332 98.2313 248.385 98.1441 248.455C98.0567 248.525 97.9841 248.611 97.9301 248.708C97.876 248.807 97.8418 248.914 97.8294 249.024L96.517 260.778C96.4919 261.003 96.557 261.227 96.6977 261.404C96.8385 261.579 97.0433 261.693 97.2676 261.717C97.4916 261.742 97.7164 261.677 97.8925 261.536C98.0688 261.395 98.1817 261.191 98.2068 260.967L99.5192 249.213C99.544 248.989 99.4789 248.764 99.3385 248.589C99.1979 248.412 98.9932 248.3 98.7695 248.275Z" fill="black"/>
<path d="M105.712 178.501L104.4 190.257C104.375 190.481 104.44 190.706 104.581 190.882C104.722 191.057 104.927 191.17 105.151 191.195C105.375 191.221 105.6 191.154 105.776 191.013C105.952 190.872 106.065 190.668 106.09 190.444L107.402 178.69C107.427 178.466 107.362 178.241 107.221 178.064C107.08 177.889 106.875 177.775 106.651 177.752C106.427 177.726 106.202 177.791 106.026 177.932C105.85 178.073 105.737 178.277 105.712 178.501Z" fill="black"/>
<path d="M75.1876 177.5L43.8984 214.191L47.7789 217.501L79.068 180.81L75.1876 177.5Z" fill="black"/>
<path d="M51.0532 191.204C52.7363 191.204 54.3816 190.704 55.7812 189.769C57.1806 188.834 58.2714 187.505 58.9155 185.951C59.5596 184.396 59.7283 182.684 59.3998 181.033C59.0714 179.382 58.261 177.866 57.0708 176.676C55.8807 175.486 54.3643 174.675 52.7134 174.347C51.0625 174.019 49.3515 174.187 47.7965 174.831C46.2413 175.476 44.9123 176.567 43.9773 177.966C43.0421 179.365 42.543 181.011 42.543 182.694C42.5452 184.95 43.4426 187.114 45.0381 188.709C46.6335 190.305 48.7968 191.202 51.0532 191.204ZM51.0532 179.284C51.7276 179.284 52.387 179.484 52.9478 179.858C53.5085 180.232 53.9457 180.766 54.2038 181.388C54.4618 182.012 54.5293 182.697 54.3977 183.359C54.2662 184.02 53.9415 184.629 53.4645 185.105C52.9876 185.582 52.38 185.907 51.7184 186.038C51.0569 186.17 50.3713 186.102 49.7481 185.844C49.125 185.586 48.5924 185.149 48.2177 184.588C47.8429 184.028 47.643 183.369 47.643 182.694C47.6438 181.79 48.0034 180.923 48.6427 180.283C49.2821 179.644 50.1489 179.284 51.0532 179.284Z" fill="black"/>
<path d="M73.0298 204.172C71.3467 204.172 69.7012 204.67 68.3018 205.607C66.9022 206.542 65.8115 207.869 65.1673 209.425C64.5232 210.98 64.3547 212.691 64.683 214.341C65.0114 215.994 65.822 217.51 67.0122 218.7C68.2023 219.89 69.7187 220.701 71.3694 221.029C73.0203 221.357 74.7314 221.189 76.2865 220.545C77.8415 219.9 79.1706 218.809 80.1057 217.41C81.0409 216.011 81.54 214.365 81.54 212.682C81.5376 210.426 80.6404 208.262 79.0449 206.667C77.4493 205.071 75.2861 204.174 73.0298 204.172ZM73.0298 216.092C72.3553 216.092 71.696 215.892 71.1352 215.518C70.5744 215.142 70.1373 214.61 69.8792 213.988C69.621 213.364 69.5535 212.679 69.6851 212.017C69.8167 211.354 70.1415 210.747 70.6184 210.27C71.0952 209.794 71.703 209.469 72.3644 209.336C73.0259 209.206 73.7117 209.274 74.3348 209.532C74.958 209.789 75.4906 210.226 75.8653 210.787C76.2399 211.348 76.44 212.007 76.44 212.682C76.4387 213.586 76.0788 214.452 75.4396 215.091C74.8002 215.73 73.9336 216.089 73.0298 216.091V216.092Z" fill="black"/>
<path d="M74.6149 264.169L32.1506 259.513C32.0396 259.501 31.9274 259.51 31.8201 259.542C31.713 259.572 31.6129 259.625 31.5258 259.695C31.3497 259.834 31.237 260.04 31.2122 260.264C31.1874 260.489 31.2527 260.713 31.3936 260.888C31.5345 261.065 31.7395 261.177 31.9636 261.203L74.4279 265.859C74.652 265.883 74.8767 265.818 75.0526 265.677C75.2288 265.536 75.3415 265.332 75.3663 265.108C75.3911 264.883 75.3258 264.659 75.1849 264.482C75.044 264.307 74.839 264.193 74.6149 264.169Z" fill="black"/>
<path d="M73.4917 271.62L31.2144 267.149C30.989 267.125 30.7632 267.192 30.587 267.335C30.4107 267.477 30.2981 267.683 30.2743 267.909C30.2504 268.134 30.317 268.36 30.4595 268.536C30.6021 268.713 30.8088 268.825 31.0342 268.849L73.3132 273.32C73.5375 273.342 73.7615 273.274 73.9361 273.133C74.1107 272.99 74.2214 272.783 74.244 272.559C74.2664 272.334 74.1989 272.112 74.0563 271.936C73.9137 271.761 73.7075 271.651 73.4832 271.629L73.4917 271.62Z" fill="black"/>
<path d="M76.6604 247.968L34.3814 243.497C34.156 243.473 33.9304 243.539 33.7543 243.682C33.5782 243.825 33.4658 244.032 33.4422 244.259C33.4185 244.483 33.4853 244.709 33.628 244.884C33.7708 245.061 33.9775 245.173 34.2029 245.197L76.4819 249.665C76.5948 249.68 76.7094 249.673 76.8194 249.642C76.9292 249.614 77.0319 249.561 77.1215 249.491C77.211 249.421 77.2857 249.333 77.3408 249.234C77.3958 249.134 77.4305 249.025 77.4424 248.911C77.4543 248.799 77.4434 248.684 77.4103 248.575C77.3773 248.466 77.3226 248.366 77.2496 248.277C77.1767 248.191 77.0869 248.119 76.9858 248.067C76.8846 248.014 76.774 247.983 76.6604 247.975V247.968Z" fill="black"/>
<path d="M75.5401 255.417L33.2611 250.948C33.0403 250.931 32.8213 250.999 32.651 251.14C32.4805 251.283 32.372 251.485 32.3485 251.704C32.3251 251.925 32.3885 252.146 32.5252 252.32C32.662 252.495 32.8613 252.609 33.0809 252.638L75.3599 257.109C75.5841 257.132 75.8087 257.066 75.9843 256.925C76.1597 256.782 76.2718 256.577 76.2957 256.352C76.3195 256.128 76.2534 255.903 76.1116 255.728C75.97 255.553 75.7643 255.441 75.5401 255.417Z" fill="black"/>
<path d="M194.463 211.191C185.817 216.084 174.162 216.22 166.339 210.073C156.749 203.359 161.456 195.024 166.526 196.291C167.503 196.855 168.576 197.234 169.691 197.408C171.182 197.408 172.306 196.112 173.417 195.174C176.964 192.175 181.447 192.677 181.052 197.408C180.462 199.801 179.587 202.115 178.446 204.299C177.443 206.778 176.998 209.449 177.142 212.119C180.054 209.214 182.06 205.527 182.922 201.505C183.101 200.032 183.476 198.593 184.039 197.221C184.345 196.576 184.865 196.058 185.511 195.752C186.156 195.448 186.885 195.373 187.578 195.544C188.129 195.874 188.59 196.335 188.916 196.889C189.243 197.442 189.426 198.067 189.448 198.71C189.471 200.005 189.788 201.28 190.378 202.435C192.429 201.131 195.035 199.641 197.27 200.758C198.186 201.37 198.856 202.285 199.162 203.342C199.47 204.4 199.393 205.532 198.946 206.538C197.965 208.512 196.4 210.137 194.463 211.191Z" fill="black"/>
<path d="M204.679 217.231C204.004 215.997 202.974 214.995 201.723 214.356C199.921 213.414 198.054 212.605 196.135 211.935C189.741 209.751 183.116 208.314 176.393 207.651C169.315 206.907 161.306 206.162 154.416 208.024C152.303 208.627 149.826 209.843 149.85 211.966C149.757 212.158 149.732 212.376 149.776 212.583C149.593 213.464 148.651 219.303 148.269 222.924C147.897 226.202 147.711 229.498 147.711 232.796C147.896 235.402 149.785 236.664 151.993 238.01C162.891 244.394 175.609 246.95 188.126 245.274C192.99 244.795 197.628 242.991 201.536 240.059C201.686 239.945 201.798 239.792 201.862 239.615C202.34 238.595 204.882 219.295 204.888 218.649C205.206 218.061 205.267 217.551 204.679 217.231ZM160.939 221.061C159.968 225.784 159.407 230.583 159.262 235.402C159.084 236.732 159.071 238.08 159.223 239.413C158.088 238.95 156.982 238.42 155.91 237.825C153.955 236.704 151.505 235.809 150.13 234.098C149.697 232.647 149.633 231.111 149.943 229.629C150.221 224.682 150.749 219.752 151.526 214.859C154.137 217.353 158.127 218.47 161.716 219.545C161.485 219.727 161.297 219.958 161.163 220.218C161.029 220.48 160.952 220.767 160.939 221.061ZM151.743 211.752C152.775 209.1 162.802 208.935 164.291 208.768C170.307 208.756 176.313 209.234 182.249 210.201C176.908 212.52 169.469 215.964 164.74 218.13C160.187 216.952 154.139 215.478 151.743 211.752ZM200.086 238.782C190.814 245.533 175.218 244.586 164.118 241.162C164.159 234.319 165.015 227.507 166.668 220.867C174.317 222.649 195.985 224.934 202.602 220.976C201.789 226.887 201.34 232.902 200.089 238.775L200.086 238.782ZM196.885 220.696C187.497 221.556 178.035 221.015 168.806 219.091L186.386 210.989C190.639 211.842 194.784 213.161 198.748 214.922C200.096 215.432 202.658 216.544 202.998 218.134C201.85 219.992 198.799 220.34 196.885 220.689V220.696Z" fill="black"/>
<path d="M295.037 202.065C294.553 202.065 267.24 198.835 254.249 197.409C243.131 196.021 246.992 195.539 227.615 200.389C223.09 201.514 218.651 202.966 214.333 204.731L213.653 204.673C211.815 204.673 213.736 205.363 209.184 238.943C209.369 240.06 211.224 240.619 211.417 239.128C213.046 228.277 214.146 217.426 214.89 206.403C222.682 206.896 230.471 207.631 238.235 208.554L236.475 220.726C234.964 218.968 233.312 217.336 231.534 215.849C219.773 206.801 214.804 229.734 223.897 230.747C226.393 230.81 228.89 230.676 231.364 230.346C228.05 232.167 224.856 234.164 221.662 236.335C221.469 236.485 221.33 236.692 221.264 236.927C221.197 237.161 221.206 237.41 221.289 237.639C221.289 237.826 221.476 237.826 221.662 238.011C223.338 239.128 225.014 238.384 226.877 238.569H227.25C227.25 239.548 227.321 238.569 227.622 243.972C227.615 244.096 227.634 244.22 227.678 244.337C227.722 244.453 227.79 244.558 227.878 244.647C227.967 244.735 228.072 244.803 228.19 244.847C228.305 244.891 228.429 244.91 228.553 244.903C228.698 244.9 228.839 244.866 228.968 244.801C229.097 244.737 229.21 244.643 229.298 244.529L234.18 236.595L227.112 285.496C222.17 284.622 217.252 283.626 212.349 282.711C211.235 282.504 210.673 284.2 211.791 284.581C227.25 287.747 243.08 289.982 258.541 293.148C259.17 293.358 259.592 292.843 259.691 292.187C266.521 285.402 278.674 276.1 282.753 272.467C283.256 271.678 283.574 270.787 283.684 269.859C285.872 259.355 295.754 203.357 295.79 203.184C295.969 202.624 295.596 202.252 295.037 202.065ZM268.43 200.467L291.292 203.141C271.657 211.942 271.948 211.69 271.742 212.122C263.808 210.577 255.825 209.287 247.787 208.197C253.829 206.213 264.888 201.793 268.429 200.467H268.43ZM217.554 205.001C224.953 202.461 232.475 200.3 240.093 198.527C241.63 198.189 243.185 197.939 244.749 197.781C247.192 197.752 249.628 198.002 252.013 198.527L261.015 199.59C254.776 201.742 244.544 204.69 238.9 207.07C229.223 205.936 224.739 205.609 217.554 205.001ZM258.093 291.077C250.103 289.464 242.023 288.085 233.953 286.691L240.673 240.961C241.427 242.863 242.23 244.738 243.078 246.588C243.452 247.333 244.569 246.96 244.754 246.401L246.194 241.762C248.323 242.25 250.444 242.722 252.578 243.049C253.322 243.049 254.254 242.489 253.695 241.745C251.231 238.637 248.579 235.684 245.751 232.905C247.396 233.542 249.055 234.134 250.715 234.661C251.49 235.057 252.34 235.278 253.209 235.31C254.077 235.342 254.943 235.184 255.743 234.848C257.061 233.668 257.972 232.104 258.351 230.377C259.532 226.659 259.402 222.649 257.979 219.016C257.746 218.237 257.243 217.566 256.561 217.122C255.879 216.68 255.061 216.493 254.254 216.595C252.466 216.892 250.716 217.392 249.038 218.084C247.111 218.946 245.278 220.003 243.568 221.243L245.3 209.45C256.656 210.968 261.947 211.964 271.587 213.64C263.092 260.258 263.516 256.749 258.093 291.077ZM281.44 270.046C281.308 270.339 281.245 270.657 281.255 270.978C280.883 271.163 280.696 271.537 280.51 271.722C273.442 277.842 267.053 282.747 260.11 289.232C264.345 261.012 271.353 226.278 273.425 213.428C273.476 213.29 273.486 213.14 273.456 212.998L293.646 203.947C292.407 211.007 283.18 263.09 281.44 270.046Z" fill="black"/>
<path d="M218.749 239.92C218.579 239.839 218.726 239.946 201.497 236.986C201.274 236.949 201.046 237 200.863 237.131C200.678 237.262 200.553 237.461 200.516 237.683C200.477 237.904 200.53 238.134 200.661 238.317C200.791 238.501 200.989 238.627 201.211 238.664L215.33 241.066C214.556 241.432 213.786 241.806 213.02 242.185C212.55 241.874 212.034 241.639 211.49 241.49C209.682 240.91 207.778 240.696 205.888 240.859C203.998 241.02 202.157 241.558 200.475 242.436C196.878 243.875 196.64 247.956 199.1 249.337C197.619 250.069 196.13 250.778 194.629 251.448L185.704 249.748C184.956 247.86 183.657 246.239 181.979 245.095C180.85 244.72 181.704 244.864 174.717 244.164C175.387 245.394 176.058 246.692 176.648 248.018L133.499 239.769C136.474 238.409 139.546 237.26 142.623 236.148C142.982 237.109 143.626 237.938 144.468 238.523C145.31 239.11 146.311 239.426 147.337 239.428C149.044 239.448 150.72 238.975 152.165 238.067C152.26 238.008 152.341 237.93 152.406 237.838C152.47 237.746 152.516 237.642 152.54 237.532C152.564 237.423 152.566 237.311 152.546 237.2C152.526 237.09 152.485 236.985 152.424 236.889C152.364 236.796 152.285 236.714 152.193 236.651C152.101 236.587 151.997 236.543 151.887 236.519C151.778 236.495 151.664 236.493 151.554 236.514C151.444 236.534 151.339 236.577 151.245 236.638C150.074 237.369 148.716 237.748 147.335 237.728C146.659 237.726 146 237.52 145.444 237.136C144.888 236.752 144.461 236.208 144.221 235.575C145.763 235.025 147.301 234.48 148.826 233.921C149.943 233.547 149.385 231.686 148.267 232.051C142.487 234.1 136.72 236.148 131.133 238.756C131.026 238.797 130.929 238.861 130.85 238.943C130.77 239.026 130.709 239.123 130.671 239.232C130.633 239.339 130.619 239.455 130.63 239.569C130.641 239.683 130.676 239.793 130.733 239.892C130.699 239.965 130.675 240.043 130.663 240.123L124.146 284.637C124.114 284.852 124.166 285.071 124.291 285.249C124.416 285.426 124.604 285.55 124.817 285.593C186.481 298.118 186.187 298.162 186.539 298.042C186.644 298.086 186.76 298.103 186.874 298.093C186.987 298.083 187.096 298.045 187.193 297.984L211.432 284.991C211.598 284.974 211.756 284.908 211.884 284.801C212.013 284.692 212.107 284.549 212.151 284.387C214.572 269.859 217.552 255.52 219.971 241.178C220.029 241.007 220.039 240.822 219.998 240.646C219.959 240.47 219.871 240.306 219.745 240.177C219.617 240.046 219.457 239.954 219.282 239.909C219.107 239.863 218.922 239.868 218.749 239.92ZM212.697 244.461C213.766 246.663 212.278 250.829 208.577 252.091C206.254 252.584 203.357 251.397 203.959 248.941C206.871 247.436 209.779 245.915 212.697 244.463V244.461ZM201.194 243.978C202.706 243.181 204.361 242.695 206.063 242.552C207.765 242.411 209.478 242.613 211.1 243.149C208.236 244.607 205.392 246.125 202.534 247.601C201.913 247.611 201.3 247.746 200.729 247.992C198.984 248.213 198.206 245.189 201.194 243.978ZM186.166 251.56L193.842 253.027L192.154 261.867C189.794 261.449 187.385 261.38 185.004 261.658C186.19 254.733 186.532 253.949 186.166 251.56ZM187.431 295.686L193.612 263.302C194.838 263.006 196.116 263.017 197.339 263.331C198.559 263.644 199.685 264.253 200.615 265.103C207.156 270.934 202.825 284.143 201.218 288.311L187.431 295.686ZM131.522 246.046C132.363 246.613 133.026 247.409 133.435 248.337C133.845 249.265 133.984 250.291 133.837 251.295C133.69 252.3 133.263 253.242 132.604 254.014C131.946 254.787 131.083 255.356 130.114 255.661L131.522 246.046ZM125.951 284.09L127.379 274.335C129.943 275.054 132.205 276.588 133.823 278.703C135.442 280.817 136.33 283.401 136.353 286.065C136.353 286.266 137.572 286.453 125.951 284.086V284.09ZM171.538 293.374L166.674 292.384C165.177 287.73 165.249 282.713 166.88 278.102C168.511 273.494 171.609 269.548 175.701 266.871L171.538 293.374ZM176.048 264.666C171.393 267.316 167.757 271.444 165.716 276.396C163.675 281.346 163.347 286.839 164.782 291.998L138.092 286.558C138.175 286.407 138.217 286.235 138.215 286.062C138.164 282.97 137.102 279.979 135.19 277.547C133.279 275.116 130.624 273.376 127.631 272.598L129.841 257.468C131.669 257.096 133.281 256.028 134.338 254.491C135.395 252.953 135.813 251.064 135.505 249.225C135.303 248.166 134.863 247.164 134.217 246.301C133.571 245.437 132.736 244.732 131.777 244.239L132.215 241.252L165.692 247.65C164.678 248.509 163.905 249.617 163.447 250.865C162.989 252.113 162.863 253.458 163.081 254.768C163.399 256.181 164.055 257.493 164.993 258.597C165.93 259.698 167.122 260.557 168.464 261.097C169.807 261.638 171.261 261.845 172.701 261.699C174.141 261.555 175.524 261.062 176.731 260.264L176.048 264.666ZM177.136 257.745C176.238 258.7 175.099 259.396 173.838 259.756C172.578 260.117 171.244 260.132 169.976 259.797C168.709 259.462 167.555 258.791 166.637 257.854C165.719 256.919 165.071 255.751 164.762 254.478C164.553 253.198 164.766 251.885 165.368 250.736C165.97 249.587 166.929 248.665 168.101 248.109L177.423 249.893C178.256 252.13 177.649 254.493 177.139 257.742L177.136 257.745ZM178.989 294.892C181.063 284.452 182.899 273.9 184.701 263.423C187.072 263.088 189.483 263.129 191.841 263.544L185.602 296.236L178.989 294.892ZM213.616 265.437C213.314 265.244 213.064 264.979 212.892 264.664C212.719 264.348 212.629 263.994 212.629 263.636C212.766 262.073 213.514 260.626 214.709 259.61L213.616 265.437ZM215.024 257.929C214.585 257.895 214.147 257.985 213.756 258.187C213.365 258.389 213.038 258.699 212.814 259.076C211.765 260.344 211.114 261.895 210.944 263.532C210.92 264.304 211.134 265.065 211.556 265.713C211.977 266.361 212.588 266.864 213.303 267.154C212.283 272.594 211.291 278.009 210.373 283.429L203.479 287.109C210.145 267.88 201.281 260.319 193.959 261.502L195.559 253.126C197.794 252.077 200.003 250.974 202.197 249.85C202.406 252.521 205.009 253.905 207.534 253.905C212.545 253.905 216.129 247.586 214.228 243.705C215.442 243.115 216.663 242.54 217.888 241.984C216.984 247.321 216.012 252.623 215.024 257.925V257.929Z" fill="black"/>
<path d="M154.846 262.891C157.093 257.026 149.225 251.904 144.751 256.169C144.139 256.679 143.635 257.308 143.271 258.017C142.907 258.726 142.69 259.501 142.633 260.297C142.575 261.09 142.679 261.889 142.937 262.643C143.195 263.397 143.603 264.091 144.136 264.684C144.859 265.492 145.774 266.102 146.797 266.461C147.819 266.819 148.915 266.913 149.984 266.734C151.053 266.556 152.059 266.109 152.909 265.437C153.759 264.766 154.425 263.889 154.846 262.891ZM147.512 264.931C146.669 264.689 145.92 264.196 145.366 263.516C142.155 260.149 146.687 254.052 151.354 257.128C155.969 260.162 152.569 266.272 147.512 264.927V264.931Z" fill="black"/>
<path d="M158.749 276.151C158.202 275.604 158.124 275.492 157.899 275.403C157.33 275.181 156.705 275.147 156.115 275.305C155.525 275.463 155.001 275.805 154.619 276.281C154.236 276.758 154.017 277.343 153.991 277.953C153.965 278.564 154.135 279.167 154.475 279.674C154.65 279.946 154.879 280.179 155.148 280.357C155.417 280.536 155.72 280.656 156.038 280.713C156.356 280.769 156.682 280.757 156.996 280.679C157.31 280.602 157.604 280.461 157.86 280.264C158.193 280.056 158.48 279.784 158.706 279.463C158.931 279.142 159.09 278.78 159.173 278.395C159.256 278.011 159.261 277.615 159.188 277.231C159.115 276.845 158.966 276.478 158.749 276.151ZM156.894 278.871C156.818 278.941 156.726 278.994 156.626 279.021C156.526 279.05 156.421 279.055 156.319 279.035C156.217 279.014 156.121 278.97 156.039 278.907C155.957 278.843 155.891 278.759 155.847 278.666C155.732 278.469 155.678 278.241 155.69 278.013C155.703 277.783 155.782 277.564 155.918 277.381C156.055 277.197 156.242 277.056 156.457 276.978C156.671 276.899 156.904 276.884 157.127 276.937L157.467 277.277C157.561 277.568 157.555 277.882 157.451 278.169C157.348 278.458 157.152 278.703 156.894 278.868V278.871Z" fill="black"/>
<path d="M332.199 141.951L313.385 23.1213C313.16 21.727 312.664 20.3908 311.921 19.1889C311.18 17.9872 310.209 16.9434 309.063 16.1175C307.917 15.2916 306.62 14.6998 305.247 14.376C303.871 14.0521 302.447 14.0026 301.053 14.2303L19.0892 58.7414C17.6868 58.9514 16.3407 59.4391 15.1295 60.1762C13.9183 60.9132 12.8665 61.8847 12.0357 63.0336C11.2049 64.1825 10.6118 65.4857 10.2913 66.8669C9.97082 68.248 9.92929 69.6792 10.1692 71.0766L23.7693 157.496C23.7866 157.606 23.8255 157.712 23.8838 157.808C23.9423 157.903 24.0188 157.986 24.1091 158.052C24.1995 158.117 24.302 158.165 24.4107 158.191C24.5193 158.217 24.632 158.222 24.7425 158.204C24.8528 158.187 24.9588 158.148 25.0541 158.089C25.1493 158.031 25.2323 157.954 25.2981 157.864C25.3639 157.774 25.4111 157.671 25.4373 157.563C25.4635 157.454 25.4679 157.341 25.4506 157.231L11.8505 70.7995C11.6481 69.6252 11.6822 68.4223 11.951 67.2613C12.2197 66.1004 12.7176 65.0047 13.4154 64.0388C14.1133 63.0729 14.997 62.256 16.0148 61.6362C17.0327 61.0164 18.1639 60.6062 19.3425 60.4295L93.4166 48.7369L93.9861 52.2746C94.0218 52.4973 94.1447 52.6968 94.3276 52.8288C94.5103 52.9609 94.7381 53.0152 94.961 52.9793C95.1837 52.9434 95.3829 52.8205 95.5152 52.6378C95.6473 52.4548 95.7014 52.227 95.6657 52.0043L95.0945 48.4717L301.33 15.9065C303.698 15.5298 306.119 16.1067 308.062 17.5108C310.005 18.915 311.314 21.032 311.7 23.3984L330.512 142.228C330.89 144.596 330.313 147.017 328.909 148.961C327.505 150.905 325.388 152.213 323.022 152.598L201.071 171.883C200.96 171.9 200.855 171.939 200.76 171.999C200.664 172.057 200.581 172.133 200.515 172.223C200.45 172.315 200.403 172.417 200.377 172.526C200.35 172.635 200.347 172.747 200.364 172.857C200.381 172.968 200.42 173.073 200.479 173.168C200.537 173.264 200.613 173.347 200.704 173.413C200.795 173.478 200.897 173.525 201.006 173.551C201.115 173.578 201.227 173.582 201.338 173.565L323.308 154.29C326.121 153.83 328.637 152.272 330.305 149.959C331.971 147.646 332.652 144.766 332.199 141.951Z" fill="black"/>
<path d="M97.7087 63.5417C97.6939 63.4285 97.6566 63.3193 97.599 63.2209C97.5412 63.1225 97.4642 63.0366 97.3726 62.9686C97.2811 62.9005 97.1767 62.8515 97.0657 62.8246C96.9549 62.7978 96.8396 62.7935 96.7269 62.8122C96.6144 62.8308 96.5066 62.8719 96.4104 62.9331C96.314 62.9941 96.2308 63.074 96.1661 63.168C96.1011 63.2621 96.0559 63.368 96.033 63.4798C96.01 63.5917 96.0098 63.7069 96.0325 63.8188L97.9467 75.4519C97.9613 75.5651 97.9985 75.6741 98.0563 75.7727C98.1139 75.8711 98.1909 75.957 98.2826 76.025C98.3742 76.0931 98.4786 76.1421 98.5894 76.169C98.7004 76.1958 98.8155 76.2001 98.9282 76.1814C99.0408 76.1628 99.1486 76.1217 99.2449 76.0605C99.3413 75.9995 99.4243 75.9196 99.4892 75.8256C99.554 75.7316 99.5992 75.6256 99.6222 75.5138C99.6451 75.4019 99.6453 75.2867 99.6229 75.1748L97.7087 63.5417Z" fill="black"/>
<path d="M101.537 86.8073C101.522 86.6941 101.485 86.5851 101.427 86.4867C101.369 86.3881 101.292 86.3022 101.201 86.2342C101.109 86.1661 101.005 86.1173 100.894 86.0904C100.783 86.0634 100.668 86.0591 100.555 86.0778C100.443 86.0964 100.335 86.1375 100.238 86.1987C100.142 86.2599 100.059 86.3398 99.9941 86.4337C99.9293 86.5277 99.8841 86.6337 99.8612 86.7454C99.8382 86.8573 99.8379 86.9726 99.8605 87.0844L101.773 98.7158C101.81 98.9384 101.933 99.1372 102.116 99.2688C102.299 99.4002 102.527 99.4536 102.75 99.4171C102.972 99.3807 103.171 99.2573 103.302 99.074C103.434 98.8909 103.487 98.6629 103.451 98.4404L101.537 86.8073Z" fill="black"/>
<path d="M105.365 110.076C105.347 109.966 105.307 109.86 105.248 109.765C105.19 109.67 105.113 109.588 105.022 109.523C104.931 109.458 104.828 109.411 104.72 109.386C104.611 109.36 104.498 109.356 104.388 109.374C104.278 109.393 104.173 109.432 104.078 109.491C103.983 109.55 103.9 109.627 103.835 109.718C103.77 109.808 103.724 109.911 103.698 110.02C103.673 110.128 103.669 110.241 103.687 110.351L105.601 121.984C105.616 122.097 105.653 122.207 105.711 122.305C105.769 122.403 105.846 122.489 105.937 122.557C106.029 122.625 106.133 122.674 106.244 122.701C106.355 122.728 106.47 122.732 106.583 122.714C106.695 122.695 106.803 122.654 106.9 122.593C106.996 122.532 107.079 122.452 107.144 122.358C107.209 122.264 107.254 122.158 107.277 122.046C107.3 121.934 107.3 121.819 107.277 121.707L105.365 110.076Z" fill="black"/>
<path d="M109.19 133.343C109.175 133.229 109.139 133.12 109.081 133.021C109.024 132.922 108.947 132.835 108.855 132.767C108.764 132.698 108.659 132.649 108.548 132.622C108.437 132.595 108.321 132.59 108.208 132.609C108.095 132.627 107.987 132.669 107.891 132.73C107.794 132.791 107.711 132.871 107.646 132.966C107.581 133.06 107.536 133.166 107.513 133.279C107.49 133.391 107.49 133.506 107.513 133.618L109.428 145.251C109.471 145.468 109.597 145.658 109.778 145.783C109.959 145.908 110.182 145.958 110.399 145.922C110.617 145.886 110.812 145.767 110.943 145.591C111.074 145.414 111.132 145.193 111.104 144.974L109.19 133.343Z" fill="black"/>
<path d="M112.98 156.485C112.964 156.373 112.925 156.266 112.867 156.169C112.809 156.073 112.732 155.989 112.641 155.922C112.55 155.855 112.447 155.808 112.338 155.781C112.228 155.755 112.114 155.751 112.003 155.769C111.892 155.787 111.785 155.827 111.689 155.886C111.594 155.946 111.511 156.024 111.446 156.116C111.381 156.208 111.334 156.312 111.31 156.422C111.285 156.532 111.282 156.646 111.302 156.757L112.234 162.537C112.274 162.755 112.398 162.949 112.58 163.077C112.761 163.204 112.986 163.256 113.205 163.221C113.424 163.186 113.62 163.066 113.753 162.888C113.885 162.709 113.942 162.486 113.912 162.266L112.98 156.485Z" fill="black"/>
<path d="M68.8588 87.3672L48.3711 130.949L52.9866 133.119L73.4743 89.5367L68.8588 87.3672Z" fill="black"/>
<path d="M55.6531 98.6976C55.6531 97.0146 55.154 95.3692 54.219 93.9698C53.2839 92.5701 51.9548 91.4794 50.3996 90.8353C48.8446 90.1912 47.1336 90.0227 45.4827 90.351C43.8319 90.6794 42.3155 91.49 41.1253 92.6801C39.9351 93.8703 39.1247 95.3867 38.7963 97.0374C38.468 98.6883 38.6365 100.399 39.2806 101.954C39.9247 103.509 41.0155 104.839 42.4149 105.774C43.8145 106.709 45.4598 107.208 47.1429 107.208C49.3994 107.206 51.5626 106.308 53.1581 104.713C54.7537 103.117 55.6509 100.954 55.6531 98.6976ZM47.1429 102.108C46.4686 102.108 45.8091 101.908 45.2483 101.533C44.6876 101.159 44.2506 100.626 43.9923 100.003C43.7343 99.3797 43.6668 98.6939 43.7984 98.0324C43.9299 97.3709 44.2546 96.7632 44.7317 96.2863C45.2085 95.8093 45.8161 95.4846 46.4777 95.3531C47.1392 95.2215 47.8248 95.289 48.448 95.547C49.0711 95.8053 49.6037 96.2423 49.9785 96.8031C50.3532 97.364 50.5531 98.0232 50.5531 98.6976C50.5518 99.6017 50.1921 100.468 49.5529 101.108C48.9137 101.747 48.047 102.107 47.1429 102.108Z" fill="black"/>
<path d="M76.1976 113.281C74.5145 113.281 72.8692 113.78 71.4698 114.716C70.0702 115.651 68.9794 116.98 68.3353 118.535C67.6912 120.09 67.5227 121.801 67.851 123.452C68.1794 125.103 68.99 126.619 70.1801 127.809C71.3703 128.999 72.8867 129.81 74.5374 130.138C76.1883 130.467 77.8993 130.298 79.4545 129.654C81.0095 129.01 82.3385 127.919 83.2737 126.519C84.2087 125.12 84.7078 123.475 84.7078 121.791C84.7056 119.535 83.8084 117.372 82.2129 115.776C80.6173 114.181 78.454 113.283 76.1976 113.281ZM76.1976 125.2C75.5227 125.2 74.8631 125 74.302 124.625C73.741 124.249 73.3039 123.716 73.0462 123.092C72.7883 122.469 72.7213 121.782 72.8537 121.121C72.9862 120.459 73.3121 119.851 73.7899 119.375C74.268 118.898 74.8766 118.574 75.5387 118.444C76.2009 118.313 76.8868 118.382 77.5099 118.642C78.1327 118.902 78.6647 119.34 79.0382 119.903C79.4117 120.465 79.6099 121.125 79.6078 121.8C79.6043 122.702 79.2435 123.567 78.6045 124.204C77.9655 124.841 77.1002 125.199 76.1976 125.2Z" fill="black"/>
<path d="M274.086 105.449L266.635 59.4453C266.458 59.1886 266.224 58.9757 265.952 58.8229C265.678 58.6701 265.375 58.5811 265.063 58.563L238.148 64.2019C238.211 63.1354 237.926 62.0777 237.339 61.1859C236.751 60.2941 235.891 59.6156 234.886 59.2515C235.423 58.378 235.824 57.4282 236.076 56.4346C236.294 55.5373 236.26 54.5975 235.974 53.7191C235.69 52.8408 235.168 52.0584 234.466 51.4587C232.152 49.6057 229.546 50.114 226.828 52.834C226.658 53.004 225.618 54.3045 225.369 54.6258C225.374 53.1971 225.152 51.7767 224.71 50.4183C224.416 49.2417 223.809 48.1658 222.957 47.3027C222.105 46.4394 221.036 45.8206 219.863 45.5104C218.629 45.4468 217.398 45.6766 216.269 46.181C215.142 46.6854 214.149 47.4501 213.372 48.4123C212.21 49.7566 211.19 51.22 210.331 52.7779C209.896 53.534 209.721 54.4129 209.833 55.2786C210.131 56.3351 210.824 57.2354 211.771 57.7895C213.129 58.9477 214.131 60.4685 214.656 62.1741C215.181 63.8797 215.212 65.6997 214.741 67.4217C213.945 67.2834 213.128 67.3501 212.366 67.6151C211.603 67.88 210.919 68.3347 210.38 68.9364C208.534 66.3629 207.618 63.2374 207.783 60.0743C208 58.5672 208 57.0372 207.783 55.5302C207.094 50.8263 201.313 50.9215 197.049 53.0567C195.364 53.8968 194.037 55.3127 193.306 57.0479C192.573 58.7829 192.488 60.7226 193.063 62.5155C188.955 65.6554 186.888 64.7544 184.605 66.7553C181.78 69.1455 181.979 73.7882 184.576 76.5966C184.829 76.8295 186.971 75.3284 156.384 94.9991C156.277 95.0681 156.188 95.1602 156.121 95.2685C156.055 95.377 156.014 95.4989 156.001 95.6252C155.988 95.7516 156.003 95.8793 156.046 95.999C156.089 96.1187 156.158 96.2271 156.248 96.3166L166.625 148.41C166.664 148.601 166.768 148.774 166.919 148.898C167.071 149.021 167.26 149.089 167.456 149.09L251.429 136.236C274.29 105.607 274.175 106.003 274.086 105.449ZM237.999 65.9716L262.276 60.8852L240.909 79.7824L199.854 87.2318C213.264 76.8839 211.63 78.4037 213.333 76.8533C214.763 78.268 216.477 79.3623 218.36 80.0634C220.246 80.7644 222.257 81.0563 224.263 80.9197C225.476 80.9817 226.687 80.7549 227.795 80.2582C228.904 79.7613 229.878 79.0087 230.638 78.062C231.294 77.4654 231.819 76.7404 232.183 75.932C232.545 75.1237 232.739 74.2494 232.749 73.3632C232.749 73.3171 232.746 73.271 232.737 73.2255C234.095 72.4795 235.272 71.4422 236.181 70.1881C237.091 68.9338 237.711 67.4939 237.999 65.9716ZM197.952 142.247L189.061 91.0772C189.482 90.7899 188.459 91.0364 196.25 89.6169L206.491 141.004L197.952 142.247ZM192.728 80.3094C200.798 81.0013 208.743 77.4313 210.046 75.5494C210.651 75.7457 211.281 75.8462 211.916 75.8469C208.009 79.2501 203.358 81.6867 198.334 82.9597C198.135 82.9265 197.931 82.9644 197.756 83.0668C196.255 83.3167 193.518 83.5309 192.826 82.1777C192.578 81.5852 192.544 80.9248 192.728 80.3094ZM230.978 74.1656C230.729 75.253 230.155 76.2385 229.329 76.9893C229.006 77.4663 228.598 77.8809 228.125 78.2133C226.921 78.888 225.563 79.2361 224.183 79.2231C222.5 79.3441 220.808 79.12 219.212 78.5646C217.617 78.0093 216.154 77.1343 214.908 75.9931C218.852 77.7815 226.644 76.2515 230.978 74.1656ZM201.474 83.8335L196.364 87.7775C196.145 87.9475 196.729 87.8013 192.794 88.517C200.679 83.1178 196.859 85.4145 201.474 83.8335ZM228.057 54.0104C230.177 51.899 231.811 51.5097 233.404 52.7847C233.851 53.1804 234.18 53.6899 234.361 54.2587C234.541 54.8275 234.563 55.4343 234.424 56.0147C233.65 59.1172 231.802 59.5847 232.499 60.6047C232.605 60.7575 232.754 60.8722 232.931 60.9314C233.106 60.9906 233.295 60.9911 233.47 60.9328C235.199 60.3514 236.448 62.4169 236.448 64.2223C236.448 74.6671 217.514 76.6952 214.802 73.8919C214.59 73.6702 214.443 73.3943 214.377 73.0946C214.311 72.7947 214.328 72.4824 214.426 72.1919C214.908 70.9231 215.688 69.7891 216.699 68.8854C223.096 61.7522 224.64 58.1091 228.057 54.0104ZM212.851 56.4788C212.191 55.9841 211.621 55.5574 211.516 55.1188C211.446 54.6071 211.547 54.0865 211.798 53.6364C212.614 52.1579 213.583 50.7693 214.688 49.4935C215.268 48.758 216.011 48.1671 216.857 47.7666C217.704 47.3661 218.632 47.1668 219.567 47.1849C223.044 48.1318 223.933 52.6351 223.601 55.9654C223.588 56.1061 223.61 56.2481 223.664 56.3783C223.72 56.5087 223.805 56.6233 223.916 56.7117C221.691 60.078 219.265 63.309 216.655 66.3881C216.907 64.5497 216.689 62.6778 216.023 60.9458C215.358 59.2137 214.267 57.6773 212.851 56.4788ZM214.236 69.0673C213.668 69.8778 213.194 70.7504 212.822 71.6683C212.597 72.4462 212.624 73.2758 212.903 74.0364C212.138 74.2087 211.339 74.1742 210.591 73.9361C209.597 72.6985 211.06 70.633 211.951 69.7337C212.597 69.2223 213.417 68.9831 214.236 69.0673ZM197.823 54.5697C200.791 53.0856 205.6 52.3716 206.098 55.7784C206.294 57.1484 206.294 58.5393 206.098 59.9094C205.923 63.4532 206.926 66.9553 208.952 69.868C209.083 70.0565 209.197 70.2562 209.292 70.4647C208.687 71.5493 208.913 71.5034 208.711 71.6989C205.311 72.8243 200.073 69.2968 197.299 66.4289C196.017 65.2856 195.114 63.7779 194.712 62.1075C194.237 60.6869 194.29 59.1427 194.861 57.758C195.432 56.3734 196.485 55.2413 197.823 54.5697ZM185.71 68.0456C187.464 66.5156 189.697 67.0443 193.63 64.2104C194.198 65.5034 195.033 66.6619 196.078 67.6104C199.035 70.6704 204.39 74.3475 208.59 73.4822C208.636 73.7848 208.726 74.0792 208.856 74.356C208.502 74.6229 208.973 74.5056 207.293 75.5885C203.164 77.7325 198.557 78.7892 193.904 78.6587C190.883 78.6177 187.985 77.4535 185.775 75.393C184.814 74.4155 184.27 73.1025 184.257 71.7315C184.245 70.3603 184.767 69.038 185.71 68.0439V68.0456ZM191.038 80.0527C190.817 80.9946 190.902 81.9828 191.281 82.873C191.582 83.3913 191.995 83.836 192.49 84.1746C192.984 84.5131 193.547 84.737 194.139 84.8297C194.438 84.8781 194.739 84.9099 195.04 84.9249L188.699 89.265L160.428 94.416L186.149 77.8699C187.617 78.9155 189.28 79.6571 191.038 80.051V80.0527ZM158.03 96.5818L187.362 91.237L196.355 142.99L168.136 147.274L158.03 96.5818ZM208.261 141.183L197.923 89.3126L240.156 81.6167L249.899 134.862L208.261 141.183ZM251.381 133.499L241.817 81.2478L265.107 60.6455L272.351 105.366L251.381 133.499Z" fill="black"/>
<path d="M188.682 69.9376C188.577 69.7508 188.404 69.611 188.198 69.5468C187.994 69.4825 187.771 69.4981 187.577 69.5908C187.384 69.6834 187.232 69.8461 187.152 70.0462C187.074 70.2461 187.074 70.4685 187.152 70.6686L188.099 72.6525C188.142 72.7611 188.206 72.8597 188.29 72.9423C188.371 73.025 188.47 73.0897 188.579 73.1326C188.687 73.1752 188.805 73.1953 188.92 73.1912C189.038 73.1871 189.152 73.1589 189.257 73.1086C189.362 73.0583 189.456 72.9869 189.532 72.8987C189.609 72.8104 189.667 72.7076 189.702 72.5961C189.736 72.4847 189.748 72.3674 189.736 72.2513C189.725 72.1352 189.687 72.023 189.629 71.9215L188.682 69.9376Z" fill="black"/>
<path d="M192.325 68.3595C195.066 70.1105 195.045 70.1615 195.396 70.1615C195.581 70.1619 195.759 70.1024 195.907 69.992C196.055 69.8817 196.162 69.7265 196.213 69.5497C196.264 69.3729 196.257 69.1842 196.193 69.0118C196.128 68.8394 196.009 68.6929 195.853 68.5941L193.24 66.9264C193.146 66.8664 193.041 66.8254 192.932 66.8061C192.822 66.7865 192.71 66.7889 192.601 66.813C192.49 66.837 192.388 66.8824 192.296 66.9463C192.205 67.0102 192.126 67.0917 192.067 67.1857C192.007 67.2798 191.965 67.3849 191.946 67.4947C191.928 67.6047 191.929 67.7173 191.953 67.8264C191.977 67.9354 192.023 68.0386 192.087 68.13C192.15 68.2215 192.232 68.2995 192.325 68.3595Z" fill="black"/>
<path d="M195.741 72.6813C195.548 72.5663 195.316 72.5332 195.099 72.589C194.879 72.6447 194.692 72.785 194.577 72.9788L193.727 74.4204C193.621 74.6136 193.593 74.8408 193.65 75.054C193.708 75.2671 193.848 75.4494 194.036 75.5622C194.227 75.6751 194.453 75.7096 194.667 75.6588C194.883 75.6078 195.07 75.4752 195.187 75.2891L196.037 73.8458C196.153 73.6521 196.187 73.4208 196.131 73.2023C196.076 72.984 195.935 72.7965 195.741 72.6813Z" fill="black"/>
<path d="M200.785 76.422C200.878 76.4841 200.982 76.5273 201.093 76.549C201.201 76.5706 201.315 76.5706 201.424 76.5485C201.533 76.5266 201.638 76.4832 201.73 76.421C201.824 76.3588 201.904 76.2789 201.965 76.1857L202.866 74.8257C202.992 74.6382 203.037 74.4086 202.993 74.1876C202.949 73.9664 202.818 73.7719 202.631 73.6468C202.442 73.5217 202.213 73.4763 201.992 73.5203C201.771 73.5645 201.577 73.6947 201.451 73.8822L200.55 75.2422C200.489 75.3351 200.445 75.4393 200.423 75.5489C200.401 75.6584 200.401 75.7713 200.423 75.8808C200.445 75.9904 200.489 76.0946 200.55 76.1874C200.613 76.2803 200.691 76.36 200.785 76.422Z" fill="black"/>
<path d="M203.203 64.868L203.247 66.9862C203.253 67.2117 203.346 67.426 203.509 67.5823C203.672 67.7385 203.89 67.8237 204.114 67.8192C204.341 67.8146 204.555 67.7208 204.711 67.5583C204.868 67.3956 204.953 67.1777 204.947 66.9522L204.903 64.8323C204.9 64.6069 204.805 64.3926 204.641 64.2365C204.48 64.0804 204.261 63.9954 204.036 64.0002C203.81 64.0049 203.596 64.099 203.44 64.2616C203.285 64.4245 203.2 64.6426 203.203 64.868Z" fill="black"/>
<path d="M196.782 61.4644C199.014 62.5558 198.921 62.5439 199.183 62.5439C199.376 62.545 199.563 62.4806 199.715 62.3611C199.866 62.2416 199.973 62.0743 200.016 61.8865C200.06 61.6986 200.038 61.5014 199.956 61.3275C199.873 61.1534 199.732 61.0128 199.558 60.9289L197.528 59.9378C197.326 59.8388 197.092 59.8244 196.879 59.898C196.665 59.9714 196.49 60.1266 196.391 60.3296C196.293 60.5324 196.277 60.7663 196.35 60.9799C196.425 61.1932 196.58 61.3688 196.782 61.4678V61.4644Z" fill="black"/>
<path d="M202.226 58.0076C202.267 58.2271 202.395 58.4214 202.578 58.5487C202.762 58.6759 202.988 58.7255 203.207 58.6871C203.428 58.6487 203.624 58.5253 203.753 58.3434C203.884 58.1615 203.936 57.9357 203.901 57.7152L203.54 55.6412C203.523 55.53 203.483 55.4235 203.423 55.3277C203.364 55.232 203.287 55.1491 203.195 55.0838C203.103 55.0183 203 54.9719 202.889 54.9469C202.779 54.922 202.667 54.9191 202.554 54.9384C202.444 54.9578 202.338 54.9991 202.243 55.0598C202.148 55.1205 202.066 55.1994 202.002 55.2919C201.939 55.3845 201.893 55.4889 201.869 55.5991C201.847 55.7092 201.845 55.823 201.866 55.9336L202.226 58.0076Z" fill="black"/>
<path d="M217.557 53.8035L215.799 51.6819C215.728 51.5936 215.641 51.5205 215.541 51.4666C215.442 51.4126 215.333 51.3789 215.221 51.3675C215.109 51.3563 214.995 51.3674 214.886 51.4003C214.779 51.4333 214.679 51.4874 214.592 51.5595C214.505 51.6317 214.434 51.7204 214.381 51.8206C214.329 51.9207 214.298 52.0302 214.288 52.1427C214.279 52.2553 214.291 52.3685 214.327 52.4758C214.361 52.5832 214.417 52.6825 214.492 52.7682L216.25 54.8864C216.319 54.9744 216.406 55.0475 216.506 55.1016C216.605 55.1555 216.714 55.1891 216.826 55.2005C216.938 55.2119 217.052 55.2007 217.161 55.1677C217.268 55.1349 217.368 55.0807 217.455 55.0086C217.542 54.9363 217.613 54.8476 217.666 54.7475C217.718 54.6473 217.749 54.5379 217.759 54.4253C217.768 54.3129 217.756 54.1996 217.72 54.0923C217.686 53.9848 217.63 53.8856 217.557 53.8001V53.8035Z" fill="black"/>
<path d="M221.565 50.2588C221.46 50.2204 221.35 50.203 221.237 50.2078C221.125 50.2127 221.016 50.2396 220.914 50.287C220.812 50.3345 220.722 50.4013 220.646 50.4841C220.571 50.5667 220.513 50.6634 220.474 50.7688L219.573 53.2032C219.531 53.3086 219.51 53.4215 219.512 53.5354C219.512 53.6491 219.537 53.7615 219.583 53.8655C219.629 53.9697 219.695 54.0636 219.779 54.1416C219.86 54.2198 219.959 54.2803 220.064 54.3199C220.171 54.3597 220.285 54.3774 220.399 54.3723C220.513 54.3672 220.624 54.3393 220.727 54.2904C220.829 54.2414 220.921 54.1724 220.998 54.0872C221.072 54.002 221.13 53.9026 221.166 53.7948L222.067 51.3604C222.108 51.2552 222.126 51.143 222.123 51.0304C222.12 50.9179 222.094 50.8072 222.047 50.7047C222.001 50.6022 221.934 50.5099 221.851 50.4334C221.769 50.3569 221.671 50.2976 221.565 50.2588Z" fill="black"/>
<path d="M220.319 60.0212C220.53 60.0216 220.734 59.9434 220.891 59.8021C221.047 59.6608 221.146 59.4663 221.166 59.2567C221.188 59.0469 221.13 58.8368 221.005 58.6672C220.88 58.4973 220.697 58.3802 220.489 58.3382L218.145 57.8435C218.035 57.8172 217.921 57.8133 217.809 57.8318C217.696 57.8505 217.589 57.8913 217.494 57.952C217.397 58.0125 217.316 58.0919 217.251 58.185C217.185 58.278 217.14 58.3833 217.117 58.4943C217.093 58.6053 217.091 58.7199 217.113 58.8314C217.135 58.9427 217.178 59.0486 217.242 59.143C217.305 59.2373 217.387 59.3181 217.48 59.3805C217.576 59.4427 217.683 59.4855 217.793 59.5061C220.056 59.9821 220.149 60.0212 220.319 60.0212Z" fill="black"/>
<path d="M224.968 66.509C225.151 66.5088 225.33 66.4495 225.476 66.3398C225.622 66.2302 225.729 66.076 225.782 65.9004L226.595 63.1498C226.629 63.0422 226.641 62.929 226.629 62.8168C226.619 62.7046 226.586 62.5956 226.534 62.4963C226.479 62.3969 226.408 62.309 226.319 62.2377C226.233 62.1667 226.132 62.1136 226.024 62.0817C225.916 62.0497 225.803 62.0397 225.69 62.0519C225.578 62.0643 225.469 62.0988 225.371 62.1534C225.272 62.208 225.185 62.2818 225.116 62.3702C225.046 62.4587 224.995 62.5602 224.964 62.6687L224.152 65.4176C224.114 65.5446 224.108 65.6784 224.13 65.8088C224.154 65.939 224.206 66.0621 224.286 66.168C224.366 66.2741 224.468 66.3601 224.587 66.4192C224.704 66.4784 224.835 66.5092 224.968 66.509Z" fill="black"/>
<path d="M230.796 56.8884C230.825 57.1121 230.941 57.3153 231.119 57.4532C231.298 57.591 231.524 57.6524 231.748 57.6237C231.971 57.5951 232.175 57.4788 232.313 57.3005C232.45 57.122 232.511 56.8962 232.483 56.6725L232.078 53.5156C232.049 53.2919 231.933 53.0886 231.753 52.9507C231.575 52.8128 231.349 52.7516 231.126 52.7804C230.902 52.8093 230.698 52.9259 230.56 53.1046C230.422 53.2832 230.361 53.5095 230.39 53.7332L230.796 56.8884Z" fill="black"/>
<path d="M232.909 67.9219L231.153 66.7948C231.059 66.7344 230.954 66.6933 230.845 66.6736C230.734 66.6538 230.622 66.6559 230.512 66.6797C230.403 66.7037 230.301 66.7487 230.209 66.8124C230.117 66.8762 230.039 66.9575 229.978 67.0515C229.918 67.1453 229.878 67.2504 229.857 67.3602C229.837 67.4702 229.84 67.5829 229.864 67.6919C229.888 67.801 229.932 67.9044 229.997 67.996C230.059 68.0876 230.141 68.1658 230.235 68.2262L231.991 69.3533C232.181 69.475 232.411 69.5163 232.632 69.4682C232.853 69.4199 233.045 69.2863 233.165 69.0966C233.288 68.9067 233.329 68.6763 233.281 68.456C233.233 68.2357 233.099 68.0436 232.909 67.9219Z" fill="black"/>
<path d="M221.428 71.4794L219.489 69.9919C219.31 69.8651 219.089 69.8126 218.872 69.8456C218.654 69.8785 218.458 69.9943 218.324 70.1687C218.19 70.3431 218.129 70.5626 218.154 70.7809C218.178 70.9993 218.287 71.1996 218.455 71.34L220.395 72.8275C220.575 72.9543 220.796 73.0069 221.014 72.9739C221.231 72.9409 221.427 72.8251 221.561 72.6507C221.695 72.4763 221.755 72.2568 221.731 72.0386C221.707 71.8201 221.598 71.6197 221.428 71.4794Z" fill="black"/>
<path d="M226.451 72.7844C226.346 72.7497 226.234 72.7361 226.123 72.7446C226.011 72.7531 225.902 72.7836 225.803 72.8341C225.703 72.8846 225.615 72.9543 225.542 73.0391C225.469 73.1239 225.414 73.2222 225.378 73.3284L224.476 76.0773C224.406 76.2917 224.423 76.5253 224.525 76.7266C224.627 76.928 224.806 77.0805 225.02 77.1509C225.234 77.2213 225.467 77.2036 225.669 77.1017C225.87 76.9997 226.023 76.8221 226.092 76.6077L226.993 73.8571C227.065 73.6429 227.046 73.4097 226.946 73.2086C226.844 73.0073 226.665 72.8548 226.451 72.7844Z" fill="black"/>
<path d="M196.178 81.0459C196.004 81.1872 195.892 81.3915 195.868 81.6144C195.844 81.8372 195.909 82.0606 196.048 82.2359L197.175 83.6333C197.247 83.7203 197.334 83.7926 197.43 83.8461C197.529 83.8997 197.636 83.9333 197.747 83.9452C197.859 83.9571 197.971 83.9471 198.078 83.9156C198.185 83.884 198.286 83.8318 198.372 83.7616C198.459 83.6916 198.532 83.6051 198.585 83.507C198.637 83.409 198.671 83.3014 198.683 83.1903C198.695 83.0792 198.685 82.9669 198.654 82.8598C198.622 82.7527 198.571 82.6527 198.5 82.5657L197.373 81.1683C197.232 80.9937 197.026 80.8829 196.801 80.8599C196.577 80.837 196.353 80.9038 196.178 81.0459Z" fill="black"/>
<path d="M194.534 96.0294L191.984 93.8517C191.812 93.7055 191.589 93.6333 191.365 93.6511C191.14 93.669 190.931 93.7754 190.785 93.9469C190.639 94.1186 190.567 94.3411 190.584 94.5659C190.603 94.7908 190.709 94.9992 190.88 95.1454L193.43 97.3231C193.602 97.4696 193.825 97.5421 194.049 97.5244C194.275 97.5067 194.483 97.4004 194.631 97.2287C194.777 97.0572 194.848 96.8345 194.831 96.6096C194.812 96.3847 194.707 96.1759 194.535 96.0294H194.534Z" fill="black"/>
<path d="M198.189 103.925C198.259 103.838 198.311 103.737 198.342 103.63C198.374 103.522 198.383 103.41 198.371 103.298C198.359 103.187 198.325 103.079 198.271 102.981C198.216 102.883 198.143 102.797 198.055 102.727C197.968 102.658 197.866 102.606 197.759 102.575C197.652 102.545 197.538 102.536 197.427 102.549C197.317 102.562 197.208 102.597 197.111 102.651C197.013 102.706 196.928 102.78 196.858 102.868L195.426 104.673C195.328 104.798 195.265 104.949 195.248 105.108C195.229 105.267 195.256 105.428 195.326 105.572C195.396 105.716 195.505 105.837 195.641 105.922C195.777 106.007 195.933 106.052 196.093 106.052C196.623 106.052 196.657 105.858 198.189 103.925Z" fill="black"/>
<path d="M199.579 118.06C199.789 118.06 199.989 117.983 200.144 117.845C200.3 117.707 200.399 117.517 200.424 117.31C200.448 117.104 200.395 116.895 200.276 116.725C200.159 116.554 199.981 116.433 199.778 116.384L196.667 115.637C196.559 115.609 196.445 115.602 196.332 115.618C196.22 115.634 196.113 115.672 196.016 115.73C195.919 115.788 195.834 115.865 195.766 115.956C195.7 116.047 195.652 116.151 195.625 116.261C195.598 116.37 195.595 116.485 195.613 116.596C195.63 116.708 195.671 116.815 195.731 116.911C195.792 117.007 195.87 117.09 195.962 117.155C196.055 117.22 196.159 117.266 196.27 117.29C197.359 117.608 198.464 117.865 199.579 118.06Z" fill="black"/>
<path d="M200.785 124.951C200.692 124.891 200.586 124.849 200.476 124.83C200.367 124.81 200.253 124.812 200.144 124.836C200.036 124.86 199.932 124.905 199.84 124.969C199.75 125.033 199.672 125.114 199.611 125.208L198.055 127.635C197.992 127.729 197.948 127.835 197.926 127.946C197.904 128.057 197.906 128.172 197.928 128.282C197.951 128.393 197.996 128.499 198.06 128.592C198.125 128.685 198.206 128.765 198.302 128.826C198.399 128.887 198.504 128.928 198.616 128.947C198.728 128.967 198.842 128.963 198.953 128.938C199.063 128.912 199.167 128.865 199.259 128.799C199.351 128.732 199.427 128.648 199.487 128.552L201.042 126.126C201.103 126.032 201.144 125.927 201.163 125.817C201.183 125.707 201.181 125.594 201.158 125.485C201.134 125.376 201.088 125.273 201.025 125.181C200.96 125.089 200.879 125.011 200.785 124.951Z" fill="black"/>
<path d="M204.145 136.939L201.034 135.881C200.821 135.809 200.586 135.824 200.384 135.923C200.182 136.023 200.029 136.199 199.956 136.412C199.883 136.626 199.898 136.859 199.998 137.062C200.097 137.264 200.274 137.419 200.486 137.491L203.597 138.549C203.811 138.621 204.044 138.606 204.247 138.506C204.449 138.407 204.604 138.231 204.677 138.017C204.75 137.804 204.734 137.57 204.634 137.368C204.534 137.166 204.359 137.011 204.145 136.939Z" fill="black"/>
</svg>
