<svg width="340" height="340" viewBox="0 0 340 340" fill="none" xmlns="http://www.w3.org/2000/svg">
<path d="M172.57 306.522C168.83 308.052 171.89 307.882 130.75 299.722C71.5903 287.992 72.2703 288.502 72.1003 285.612L68.5305 196.702C68.5305 195.002 69.5505 195.512 48.1305 198.912C47.4505 199.082 46.7705 198.912 46.4305 198.232C46.0905 197.552 46.6006 197.212 46.9406 196.872C67.3406 175.452 67.3403 175.112 68.7003 174.602C86.0403 169.671 86.8905 171.202 86.7205 168.822C86.3805 164.232 87.4005 163.552 85.8705 163.382C85.0205 163.382 84.1705 163.042 83.3205 162.872C82.6405 162.872 82.4705 162.702 82.4705 162.022C82.3005 144.342 81.6203 144.682 83.6603 144.172C96.2403 141.282 96.2403 141.281 96.4103 141.961C96.5803 142.981 96.0703 141.961 86.5503 144.851C114.77 147.741 147.411 151.141 170.191 153.691C173.251 154.031 187.36 149.611 187.7 151.141C187.87 151.821 186.851 151.821 186.341 151.991C169.851 156.241 170.53 155.051 166.45 154.541C78.2203 145.531 83.3205 144.682 83.3205 146.382C83.6605 161.682 82.9806 161.512 84.3406 161.682C177.161 172.222 171.891 173.412 171.891 171.542C171.551 155.901 171.381 155.901 172.231 155.901C172.911 155.901 172.91 156.751 172.91 157.261C173.42 173.412 172.741 172.732 174.441 172.222C192.121 167.292 214.9 161.682 234.11 156.922C234.79 156.752 235.64 156.411 235.81 157.261C236.32 159.301 180.56 170.692 180.56 173.072C181.07 185.652 179.201 186.672 181.581 185.992L242.441 168.651C244.651 167.971 242.271 163.211 244.481 163.891C247.031 164.571 249.92 165.082 252.3 166.272C282.22 181.232 282.051 180.722 281.881 182.252C281.711 183.612 251.11 192.622 249.92 193.812C251.45 194.492 250.43 193.812 251.11 249.572C250.94 250.252 251.11 250.422 251.11 252.462C251.11 271.842 251.96 272.012 248.9 273.202C237 278.302 222.38 285.442 172.57 306.522ZM166.96 188.542C172.57 189.562 168.83 190.072 178.52 187.182C179.2 187.012 179.37 186.672 179.37 185.992C179.37 172.392 180.05 172.562 178.52 173.072C172.23 174.942 171.55 174.432 125.82 168.822C85.3605 163.892 88.0805 163.551 88.0805 164.911C89.2705 176.982 87.2306 178.342 89.4406 178.512C90.9706 178.512 166.96 188.542 166.96 188.542ZM169.341 248.212C169.341 248.212 170.36 190.752 170.02 190.412C169.51 189.562 170.02 190.752 70.0603 176.982C68.7003 176.812 69.2105 169.161 73.6305 285.442C73.6305 286.972 73.4605 285.952 167.47 305.502C169.17 306.012 168.491 311.792 169.341 248.212ZM170.02 306.182C250.26 270.822 249.92 272.182 249.92 269.972C249.75 263.852 249.75 197.552 249.75 197.552C249.75 196.362 249.411 195.002 250.431 193.812L200.62 210.812C199.6 211.152 200.11 211.662 172.06 190.752C171.21 229.172 170.87 267.592 170.02 306.182ZM280.01 181.912C279.33 181.402 280.011 181.912 252.641 168.141C251.451 167.631 252.471 167.972 173.591 190.072C174.271 190.752 173.59 190.072 198.92 208.602C200.62 209.792 199.26 209.452 280.01 181.912ZM48.4705 197.722C49.6605 197.892 56.6305 196.022 67.6805 194.492C68.8705 194.322 68.7003 194.492 67.8503 177.322L48.4705 197.722Z" fill="#1C1C1C"/>
<path d="M99.6408 293.6C100.661 293.6 102.701 294.11 101.681 294.62C91.1406 300.91 80.7706 307.03 79.0706 306.69C65.4706 304.31 58.6706 299.21 52.7206 295.47C49.3206 293.43 48.6408 295.3 46.9408 296.49L38.6104 302.1C52.0404 314.34 57.1406 312.98 77.8806 322.16C80.2606 323.18 79.7504 321.99 84.5104 318.76C97.7704 309.75 110.521 304.31 124.291 298.53C133.131 298.02 101.34 307.88 80.6004 324.2C79.2404 325.22 78.9004 324.88 67.8504 320.12C58.6704 316.21 48.4706 314.51 37.4206 302.95C35.3806 300.91 37.5908 300.23 44.3908 295.81C47.9608 293.43 48.9808 293.26 47.7908 292.58C34.0208 285.1 17.0204 281.53 24.5004 278.81C29.7704 276.94 65.6406 263.85 71.0806 262.66C71.0806 263.17 71.4206 263.85 71.0806 264.36C25.0106 282.21 22.8004 280 26.7104 281.53C35.0404 285.1 40.3104 284.93 57.6504 295.98C64.1104 300.06 70.9106 302.61 78.2206 304.48C80.2606 304.99 79.2408 304.82 99.6408 293.6Z" fill="#1C1C1C"/>
<path d="M99.8106 128.7C101.851 133.12 99.9808 134.14 101.681 134.31C121.061 135.84 199.26 143.15 199.26 144C199.26 145.87 199.77 147.91 198.92 148.59C198.41 147.57 198.58 146.55 198.58 145.53C198.58 144 198.58 144.68 170.02 141.96C99.6406 135.33 99.8106 135.84 99.8106 133.63C99.8106 128.36 97.6004 129.38 98.4504 127C99.8104 123.09 97.4306 122.24 99.8106 122.41C205.04 132.27 198.07 132.78 198.07 131.42C198.07 128.7 198.41 129.21 195.86 128.87C93.1806 119.18 99.3004 119.69 99.3004 119.01C99.4704 118.16 194.67 127.85 195.18 127.85C200.45 128.36 198.75 127.34 199.26 136.52C199.43 138.39 207.93 139.24 99.8106 128.7ZM198.242 135.33C198.242 133.29 198.58 133.46 194.33 133.12C153.021 129.21 121.061 125.81 100.831 123.6C99.1308 123.43 100.491 124.28 99.6408 126.83C98.9608 128.87 134.491 129.89 196.542 136.86C198.242 137.03 198.242 137.03 198.242 135.33Z" fill="#1C1C1C"/>
<path d="M228.67 282.378C229.35 281.698 230.37 281.528 231.22 281.018C232.41 281.698 233.94 281.698 235.3 281.868C252.47 284.248 264.71 293.428 267.77 294.958C270.49 296.148 269.982 295.808 277.292 291.388C331.352 259.428 330.16 261.638 328.46 260.788C318.94 255.178 288.34 247.698 284.77 246.508C272.36 242.258 270.83 241.408 267.6 243.278C263.18 245.828 252.812 250.418 250.942 251.438C250.602 249.058 250.09 250.078 267.77 241.238C271.51 239.368 273.722 241.238 286.642 245.148C290.892 246.338 320.98 253.478 330.67 260.958C332.2 262.148 331.86 261.808 311.46 273.708C294.97 283.398 300.58 280.338 270.83 296.998C266.922 299.208 264.2 294.278 251.11 288.838C240.23 283.908 230.54 283.228 228.67 282.378Z" fill="#1C1C1C"/>
<path d="M104.571 113.061C106.441 113.911 198.411 120.541 198.241 122.071C198.241 122.921 204.871 123.261 102.191 114.421C100.661 114.251 100.15 114.251 100.15 113.571C100.15 112.211 102.531 112.041 109.841 111.021C124.461 108.981 150.981 105.411 150.981 106.601C151.151 107.621 134.151 109.491 104.571 113.061Z" fill="#1C1C1C"/>
<path d="M236.491 115.949C235.811 115.609 158.46 107.96 153.19 107.28C152.34 107.11 151.83 107.109 151.83 106.599C151.83 106.259 253.319 115.1 242.609 116.63C241.079 116.8 200.109 122.919 199.769 121.559C199.599 120.199 234.451 116.629 236.491 115.949Z" fill="#1C1C1C"/>
<path d="M196.542 151.309C89.9513 140.089 96.0713 140.769 96.2413 139.919C96.4113 139.069 96.4111 139.239 117.321 141.449C171.892 146.889 206.062 149.779 196.542 151.309Z" fill="#1C1C1C"/>
<path d="M228.499 137.372C241.589 134.992 244.139 133.802 244.309 137.202C244.479 140.942 243.629 141.112 241.589 141.622C199.259 151.142 199.259 151.822 199.089 150.802C198.919 149.952 199.939 150.122 200.449 149.952C238.189 139.752 243.459 140.942 243.119 139.072C242.949 137.882 244.989 138.392 202.149 146.382C201.809 146.382 201.129 146.722 200.959 146.212C200.789 145.532 201.639 145.532 202.149 145.532C242.439 137.032 243.289 138.222 242.949 136.862C242.609 135.162 242.779 135.842 212.179 141.622C210.479 141.962 202.489 143.322 200.789 143.322C201.129 142.472 200.959 142.472 228.499 137.372Z" fill="#1C1C1C"/>
<path d="M242.61 130.231C242.27 129.041 241.93 128.021 241.93 126.831C242.1 125.811 241.08 126.321 240.74 126.321C231.73 127.511 207.25 131.761 206.91 131.081C206.74 130.061 241.76 125.641 241.93 125.301C242.27 124.791 242.61 124.281 242.44 123.601L200.96 129.551C199.94 129.721 199.94 128.871 200.79 128.701C204.19 128.021 219.66 125.641 221.7 125.471C244.65 122.071 243.63 121.731 243.63 123.261C243.63 124.791 242.1 127.171 243.46 129.891C244.14 131.251 245.33 130.741 216.94 135.501C182.94 141.111 208.1 135.331 242.61 130.231Z" fill="#1C1C1C"/>
<path d="M207.082 158.452C235.472 151.142 233.94 152.162 233.6 150.972C233.26 149.782 183.45 163.042 177.5 164.062C177.5 163.212 177.332 163.042 232.582 149.952C234.452 149.442 233.092 148.082 233.772 144.682C233.772 144.342 233.77 143.832 234.45 143.832C235.3 143.832 235.302 144.002 235.132 154.542C235.132 155.052 235.13 155.732 234.45 155.732C233.94 155.732 233.942 155.052 233.942 154.712C233.432 152.842 233.43 152.842 231.56 153.352C177.84 166.782 153.871 172.051 207.082 158.452Z" fill="#1C1C1C"/>
<path d="M160.67 157.77C168.49 157.77 168.66 168.48 161.18 168.31C153.36 168.31 153.36 157.77 160.67 157.77Z" fill="#1C1C1C"/>
<path d="M185.491 174.77C185.151 174.94 184.639 175.109 184.469 174.599C184.299 173.749 234.789 160.149 240.909 158.789C241.589 158.619 241.761 158.79 241.081 159.13C238.191 160.15 222.891 164.399 185.491 174.77Z" fill="#1C1C1C"/>
<path d="M177.499 159.639C177.499 159.639 177.161 159.639 177.161 159.299C176.991 158.789 177.501 158.959 177.671 158.789C244.991 142.129 254.849 142.299 177.499 159.639Z" fill="#1C1C1C"/>
<path d="M241.59 165.422C242.1 165.252 242.78 164.912 242.95 165.422C243.29 166.782 112.221 203.502 241.59 165.422Z" fill="#1C1C1C"/>
<path d="M240.91 162.532C241.08 163.042 241.082 163.042 236.492 164.232C117.491 198.743 240.4 161.172 240.91 162.532Z" fill="#1C1C1C"/>
<path d="M177.33 169.332C194.502 164.572 229.18 154.882 229.35 155.732C229.69 156.412 179.202 169.672 177.33 169.332Z" fill="#1C1C1C"/>
<path d="M242.27 118.67C242.78 118.84 243.63 118.16 243.63 118.84C243.63 119.52 242.78 119.35 242.27 119.35C201.47 125.3 201.3 125.3 201.13 124.79C201.13 124.11 199.09 124.62 242.27 118.67Z" fill="#1C1C1C"/>
<path d="M154.721 186.839C154.041 181.569 159.821 178 164.411 179.87C168.151 181.4 168.831 185.82 166.961 188.37C162.881 188.03 158.801 187.519 154.721 186.839Z" fill="#1C1C1C"/>
<path d="M132.45 284.932C132.45 278.642 132.45 277.791 133.98 277.961C140.78 278.131 147.41 278.471 154.21 278.811C155.06 278.811 155.4 279.321 155.4 280.171C154.21 294.451 154.89 294.622 153.02 294.282C143.67 292.752 140.95 292.071 134.49 291.051C131.94 290.371 132.45 289.522 132.45 284.932Z" fill="#1C1C1C"/>
<path d="M131.77 204.52C122.93 203.16 121.57 203.16 101.51 200.1C98.1103 199.59 99.6404 198.74 98.7904 193.3C98.4504 191.43 98.2804 191.6 112.73 192.96C133.81 195 133.81 194.49 133.64 196.53C132.96 203.16 133.81 204.86 131.77 204.52Z" fill="#1C1C1C"/>
<path d="M262.499 253.482C261.649 252.972 261.989 252.122 263.009 252.292C280.349 257.902 318.599 283.062 262.499 253.482Z" fill="#1C1C1C"/>
<path d="M288 270.483C277.46 265.553 271.68 262.323 259.95 257.563C259.1 257.223 258.761 257.053 258.931 256.543C259.441 254.503 286.81 267.593 288 270.483Z" fill="#1C1C1C"/>
<path d="M281.2 250.762C281.88 250.932 296.84 255.692 295.99 257.732C295.65 258.412 295.48 258.582 289.53 256.032C279.67 251.952 279.67 251.952 279.84 251.102C280.01 250.592 280.52 250.762 281.2 250.762Z" fill="#1C1C1C"/>
<path d="M274.571 268.782C240.741 253.652 262.841 259.26 274.741 268.44L274.571 268.782Z" fill="#1C1C1C"/>
<path d="M263.009 284.25C264.879 284.93 271.681 288.84 270.321 290.37C269.981 290.71 269.641 290.88 269.131 290.71C266.581 289.52 264.369 287.988 262.159 286.288C261.649 285.778 261.309 284.42 263.009 284.25Z" fill="#1C1C1C"/>
<path d="M79.24 299.379C76.35 299.889 68.1896 295.809 63.5996 292.919C58.3296 289.519 50.1696 282.039 40.6496 280.679C37.7596 280.339 42.5198 276.089 59.1798 288.159C73.9698 298.529 78.05 297.849 79.24 299.379Z" fill="#1C1C1C"/>
<path d="M69.2099 288.502C63.0899 288.332 61.0499 282.212 47.6199 277.282C47.2799 277.112 46.77 277.112 46.94 276.432C47.45 275.072 56.63 279.152 63.43 284.592C65.3 286.122 67.3399 287.312 69.2099 288.502Z" fill="#1C1C1C"/>
<path d="M79.9207 316.381C79.5807 317.741 79.0709 316.721 71.5909 313.661C61.0509 309.411 57.1407 311.791 46.4307 302.951C46.0907 302.611 45.5807 302.271 45.9207 301.761C46.7707 300.231 49.4905 306.011 63.2605 309.241C69.0405 310.771 79.4107 314.681 79.9207 316.381Z" fill="#1C1C1C"/>
<path d="M88.25 98.1013C84.85 110.171 74.1402 130.741 56.9702 148.761C50.0002 156.241 27.5604 139.241 19.7404 132.611C14.1303 127.851 12.2603 125.641 9.54034 122.751C5.29034 118.501 17.0204 120.711 40.9904 82.1215C43.8804 77.5315 43.5402 76.5113 45.9202 76.5113C59.1802 76.3413 68.0202 76.3413 80.4302 73.9613C83.1502 73.4513 80.6 71.2413 82.81 55.2613C83.49 50.1613 86.21 46.7611 90.46 44.0411C112.39 30.1011 138.06 24.3215 162.54 32.8215C163.22 32.9915 163.22 33.6713 163.22 34.3513C163.05 57.1313 163.39 46.5915 162.03 85.5215C161.86 89.0915 161.86 90.7915 160.16 89.7715C141.97 78.8915 115.79 80.5915 93.1802 103.371C92.3302 104.901 91.99 104.221 88.25 98.1013ZM160.67 87.7315C160.67 34.0115 163.56 35.0313 160.16 34.0113C141.63 27.8913 112.73 31.1211 88.5904 47.4411C86.5504 48.8011 85.7004 50.5013 85.1904 52.7113C79.4104 82.9713 91.82 103.711 93.35 101.671C97.94 95.5515 109.33 86.3713 124.29 82.8013C136.36 79.9113 150.13 82.2915 160.67 87.7315ZM45.41 77.7013C44.05 77.1913 44.7302 78.8915 39.6302 86.8815C21.4402 114.931 10.0503 120.371 9.88025 121.051C9.54025 122.581 48.1302 156.581 55.7802 147.741C67.3402 134.481 78.3904 119.181 86.0404 99.8013C86.8904 97.4213 87.4 95.3815 85.7 93.1715C85.19 92.4915 82.1304 85.5213 81.7904 76.5113C81.7904 74.4713 80.9404 75.8315 75.8404 76.6815C65.8104 78.3815 55.61 79.0613 45.41 77.7013Z" fill="#1C1C1C"/>
<path d="M266.92 105.921C256.72 105.751 247.541 104.731 238.361 101.501C235.641 100.481 236.32 98.1014 235.47 85.0114C235.13 80.5914 235.471 80.2514 234.111 79.9114C227.821 78.3814 216.431 74.4715 206.06 69.8815C197.9 66.1415 186.511 64.7812 183.621 65.2912C178.521 66.3112 190.76 47.2712 186.68 26.7012C184.81 17.5212 180.73 16.8414 189.91 15.8214C197.561 14.9714 204.361 17.5212 211.16 20.7512C234.281 31.8012 239.551 34.6914 264.881 31.1214C267.261 30.7814 266.921 32.4812 265.561 49.9912C265.561 50.8412 265.73 51.0112 266.581 50.8412C298.881 46.2512 292.761 17.1812 296.841 61.5512C299.731 94.1912 300.411 92.3215 298.201 94.5315C289.531 102.692 278.65 106.091 266.92 105.921ZM183.96 63.5912C186.68 62.9112 198.071 63.9315 205.721 67.3315C241.251 83.1415 250.941 79.7412 258.761 76.8512C259.951 76.3412 260.461 75.8312 260.631 74.6412C266.241 28.0612 265.05 32.3115 264.031 32.4815C221.19 40.3015 213.881 14.1212 186.51 17.3512C185.49 17.5212 185.491 17.8612 186.001 18.5412C195.861 36.5612 183.96 62.5712 183.96 63.5912ZM292.931 39.6214C289.021 45.2314 277.631 51.8614 266.411 52.3714C264.371 52.3714 265.051 53.2215 264.541 58.8315C263.011 74.1315 262.671 77.8712 257.911 79.4012C231.561 87.7312 236.661 67.6715 237.851 98.7815C238.021 101.672 268.45 107.961 287.32 99.2912C290.89 97.5912 293.951 95.2112 297.181 93.0012C298.541 92.3212 297.691 93.0014 292.931 39.6214Z" fill="#1C1C1C"/>
<path d="M150.131 76.6831C148.431 72.9431 149.791 64.2729 149.621 40.3029C149.621 39.7929 149.791 36.9029 150.641 36.9029C153.021 36.7329 150.811 76.3431 150.131 76.6831Z" fill="#1C1C1C"/>
<path d="M142.819 78.3813C141.799 77.7013 143.329 62.2313 144.179 37.5813C144.179 37.0713 144.009 36.3911 144.689 36.3911C147.749 36.2211 143.839 78.0413 142.819 78.3813Z" fill="#1C1C1C"/>
<path d="M137.89 72.939C136.53 72.089 137.89 57.4694 137.72 43.8694C137.72 37.7494 137.72 38.4294 137.89 37.0694C138.06 36.0494 139.08 36.049 139.25 37.239C140.27 47.609 138.74 66.139 137.89 72.939Z" fill="#1C1C1C"/>
<path d="M95.2193 87.5615C94.0293 87.9015 90.7993 81.7815 91.8193 78.5515C92.1593 77.3615 93.5193 77.7015 93.5193 78.5515C94.0293 82.1215 96.7493 87.0515 95.2193 87.5615Z" fill="#1C1C1C"/>
<path d="M73.1205 93.3419C67.6805 96.5719 44.2203 91.6421 44.5603 90.1121C45.0703 88.0721 44.7305 91.1319 73.1205 93.3419Z" fill="#1C1C1C"/>
<path d="M74.3096 87.0522C65.6396 87.9022 45.9198 87.2226 47.2798 84.3326C47.4498 83.9926 47.7896 83.9924 48.2996 84.1624C54.0796 85.8624 73.6296 85.8622 74.3096 87.0522Z" fill="#1C1C1C"/>
<path d="M70.0599 99.29C63.0899 101.67 40.4801 96.4001 41.8401 94.0201C42.3501 93.1701 51.0197 98.1001 66.1497 98.6101C67.3397 98.6101 68.5299 98.78 69.7199 98.95L70.0599 99.29Z" fill="#1C1C1C"/>
<path d="M41.5008 131.59C42.5208 132.1 41.5012 131.59 52.0412 137.88C52.5512 138.22 53.571 138.56 53.231 139.41C52.721 140.77 35.8908 132.61 41.5008 131.59Z" fill="#1C1C1C"/>
<path d="M240.741 71.9199C240.571 71.2399 242.441 39.2799 244.481 39.4499C245.671 39.7899 242.781 70.7299 240.741 71.9199Z" fill="#1C1C1C"/>
<path d="M248.39 71.5824C247.88 69.0324 250.26 41.3224 250.6 40.1324C250.94 38.9424 251.96 39.1123 251.96 40.3023C252.13 43.7023 250.43 68.1824 248.39 71.5824Z" fill="#1C1C1C"/>
<path d="M225.441 61.8902C226.461 53.2202 225.951 39.9605 227.821 40.1305C228.671 40.1305 228.501 40.9802 228.501 41.4902C227.651 66.8202 224.591 70.0502 225.441 61.8902Z" fill="#1C1C1C"/>
<path d="M233.94 68.5211C233.43 66.3111 234.45 49.8209 235.47 41.1509C235.47 40.6409 235.47 39.6211 236.32 39.6211C238.19 39.6211 234.79 66.1411 233.94 68.5211Z" fill="#1C1C1C"/>
<path d="M281.03 91.4704C279.16 83.8204 280.18 76.5104 277.29 58.8304C276.61 55.0904 278.14 55.4302 278.65 57.3002C281.88 70.2202 281.71 89.9404 281.03 91.4704Z" fill="#1C1C1C"/>
<path d="M288.17 86.5408C287.15 83.1408 288 84.8409 285.28 64.1009C284.09 54.9209 283.24 54.2409 284.26 53.9009C286.81 53.2209 290.38 86.3708 288.17 86.5408Z" fill="#1C1C1C"/>
<path d="M275.251 86.5401C274.571 84.8401 274.741 83.4804 274.571 82.1204C273.041 62.9104 271.681 60.8702 272.871 60.7002C274.571 60.5302 276.781 81.4401 275.251 86.5401Z" fill="#1C1C1C"/>
</svg>
