<svg width="340" height="340" viewBox="0 0 340 340" fill="none" xmlns="http://www.w3.org/2000/svg">
<rect width="340" height="340" fill="white"/>
<path d="M231.66 82.0267C231.524 82.0267 231.524 82.3327 231.66 82.3667C233.462 83.0977 233.054 85.7667 231.405 86.7527C229.944 87.4114 228.292 87.5082 226.764 87.0247C226.594 83.1147 226.322 79.2217 225.914 75.3287C227.495 72.5917 229.212 69.8717 230.589 66.9987C230.603 66.9859 230.615 66.9702 230.623 66.9527C230.631 66.9351 230.635 66.916 230.635 66.8967C230.635 66.8774 230.631 66.8583 230.623 66.8407C230.615 66.8232 230.603 66.8075 230.589 66.7947C230.576 66.7802 230.56 66.7686 230.543 66.7607C230.525 66.7528 230.506 66.7487 230.487 66.7487C230.467 66.7487 230.448 66.7528 230.431 66.7607C230.413 66.7686 230.398 66.7802 230.385 66.7947C228.685 69.3787 227.325 72.1837 225.931 74.9207C225.761 73.3227 225.608 71.7247 225.404 70.1437C225.404 69.9737 225.132 69.9737 225.149 70.1437C225.54 75.6517 225.948 87.0077 225.965 87.2287C222.43 86.7439 219.18 85.0283 216.785 82.3837C216.207 81.6357 215.561 80.1057 216.36 79.3237C216.7 78.9837 216.36 78.7967 216.36 78.8987C213.742 80.5987 209.985 77.9637 210.41 74.3767C210.648 71.4187 212.62 68.0357 215.969 67.6787C216.014 67.6774 216.059 67.662 216.095 67.6346C216.132 67.6072 216.159 67.5692 216.173 67.5257C216.173 67.3557 216.071 67.3047 215.816 67.1687C213.045 65.9617 213.3 62.0687 214.303 59.6547C215.51 55.7957 219.828 55.4897 220.525 58.4817C220.525 58.5088 220.536 58.5347 220.555 58.5538C220.574 58.573 220.6 58.5837 220.627 58.5837C220.654 58.5837 220.68 58.573 220.699 58.5538C220.718 58.5347 220.729 58.5088 220.729 58.4817C220.78 56.8907 221.17 55.3289 221.874 53.901C222.577 52.4732 223.578 51.2122 224.809 50.2027C227.41 48.2307 231.082 50.3897 231.762 53.6027C232.099 55.6862 231.876 57.8218 231.116 59.7907C231.102 59.8396 231.103 59.8914 231.119 59.9396C231.135 59.9878 231.165 60.0301 231.205 60.0612C231.246 60.0922 231.294 60.1106 231.345 60.1139C231.395 60.1172 231.446 60.1053 231.49 60.0797C231.93 59.8203 232.405 59.6256 232.901 59.5017C234.174 59.1764 235.525 59.3696 236.656 60.0389C237.788 60.7082 238.608 61.7989 238.936 63.0717C239.229 64.3481 239.021 65.6885 238.353 66.8152C237.685 67.9419 236.609 68.7685 235.349 69.1237C234.992 69.1237 235.094 69.7527 235.451 69.6847C236.19 69.6767 236.915 69.8849 237.537 70.2836C238.159 70.6822 238.651 71.2541 238.953 71.9287C239.222 72.6223 239.352 73.3624 239.335 74.1064C239.317 74.8504 239.153 75.5835 238.851 76.2637C237.78 78.9327 234.975 80.4457 231.66 82.0267ZM242.54 83.7267C242.526 83.7118 242.508 83.6999 242.489 83.6918C242.47 83.6837 242.45 83.6795 242.429 83.6795C242.409 83.6795 242.388 83.6837 242.369 83.6918C242.35 83.6999 242.333 83.7118 242.319 83.7267C241.67 84.09 240.938 84.2795 240.195 84.277C239.451 84.2745 238.721 84.08 238.074 83.7124C237.428 83.3447 236.888 82.8164 236.505 82.1786C236.123 81.5408 235.912 80.815 235.893 80.0717C237.348 79.2054 238.527 77.9438 239.293 76.4337C239.684 75.694 239.902 74.8754 239.932 74.0392C239.961 73.2031 239.801 72.3711 239.463 71.6057C239.196 71.0164 238.801 70.4939 238.307 70.0763C237.813 69.6587 237.232 69.3565 236.607 69.1917C237.306 68.8513 237.924 68.3655 238.42 67.7669C238.916 67.1682 239.278 66.4704 239.483 65.7203C239.687 64.9702 239.729 64.1851 239.605 63.4175C239.482 62.6499 239.195 61.9177 238.766 61.2697C238.528 60.8943 238.236 60.5563 237.899 60.2667L241.299 60.6407C241.435 60.6407 241.486 60.6407 241.418 60.4877C239.969 58.7446 239.176 56.5494 239.176 54.2827C239.176 52.016 239.969 49.8208 241.418 48.0777C241.721 47.6316 242.112 47.2516 242.567 46.9607C243.021 46.6698 243.53 46.4739 244.062 46.385C244.594 46.296 245.139 46.3158 245.663 46.4431C246.188 46.5704 246.681 46.8026 247.113 47.1257C248.818 48.6187 249.983 50.6324 250.428 52.8547C250.447 52.9177 250.489 52.9714 250.546 53.0058C250.602 53.0402 250.669 53.0529 250.734 53.0417C250.887 53.0417 250.955 52.8887 250.921 52.6847C250.496 49.4717 250.071 46.0887 251.431 43.1307C252.087 41.6784 253.205 40.4833 254.61 39.7307C255.334 39.3944 256.123 39.2202 256.922 39.2202C257.72 39.2202 258.509 39.3944 259.234 39.7307C260.703 40.4169 261.955 41.4932 262.854 42.8421C263.753 44.191 264.265 45.7609 264.334 47.3807C264.428 50.6703 263.849 53.9444 262.634 57.0027V57.1217C262.655 57.1397 262.682 57.1496 262.71 57.1496C262.738 57.1496 262.765 57.1397 262.787 57.1217C263.358 56.4422 264.125 55.9552 264.982 55.7271C265.84 55.4989 266.748 55.5407 267.581 55.8467C268.415 56.1574 269.151 56.6852 269.713 57.3756C270.275 58.0659 270.642 58.8938 270.777 59.7737C271.088 61.5288 270.763 63.3374 269.859 64.8737C268.934 66.4124 267.701 67.7436 266.238 68.7837C266.085 68.9367 266.238 69.0727 266.238 69.1747C266.238 69.2767 266.578 69.1747 266.748 69.0047C267.55 68.5247 268.507 68.3752 269.418 68.5877C270.328 68.8003 271.12 69.3582 271.627 70.1437C272.115 71.0163 272.388 71.9927 272.424 72.992C272.459 73.9913 272.256 74.9847 271.831 75.8897C271.042 77.7815 269.841 79.4731 268.314 80.8409C266.787 82.2086 264.975 83.2178 263.008 83.7947C262.958 83.8055 262.913 83.8291 262.875 83.8631C262.838 83.8971 262.81 83.9404 262.794 83.9886C262.779 84.0368 262.776 84.0883 262.787 84.1378C262.797 84.1873 262.821 84.2331 262.855 84.2707C263.388 84.7291 263.724 85.375 263.793 86.0744C263.863 86.7738 263.661 87.4732 263.229 88.0277C262.275 89.1477 260.92 89.8495 259.455 89.9827C258.341 90.1135 257.212 90.007 256.143 89.67C255.073 89.333 254.087 88.7733 253.25 88.0277C253.148 86.8037 253.063 85.5797 252.961 84.3727C256.48 79.8507 260.22 75.4137 263.688 70.7727C263.824 70.5857 263.518 70.3477 263.382 70.5177C259.656 74.7545 256.166 79.1925 252.927 83.8117C252.689 80.9387 252.485 78.0827 252.298 75.1927C253.96 73.0421 255.509 70.8064 256.939 68.4947C257.041 68.3247 256.786 68.1037 256.667 68.2907C255.097 70.3277 253.633 72.4442 252.281 74.6317C252.145 72.4047 252.026 70.1947 251.975 67.9507C251.95 67.9268 251.916 67.9135 251.881 67.9135C251.847 67.9135 251.813 67.9268 251.788 67.9507C251.635 71.7927 251.686 75.6347 251.788 79.4767C249.227 77.4486 246.503 75.6348 243.645 74.0537C243.612 74.0435 243.577 74.0446 243.545 74.0568C243.513 74.069 243.486 74.0916 243.468 74.121C243.45 74.1505 243.443 74.185 243.447 74.219C243.452 74.253 243.467 74.2846 243.492 74.3087C246.097 76.4149 248.872 78.3026 251.788 79.9527C251.907 82.5027 252.026 84.2877 252.247 86.8717C252.128 86.7017 251.992 86.5487 251.873 86.3617C251.848 86.3231 251.814 86.2913 251.774 86.2693C251.734 86.2472 251.689 86.2357 251.643 86.2357C251.598 86.2357 251.553 86.2472 251.512 86.2693C251.472 86.2913 251.438 86.3231 251.414 86.3617C250.847 87.6035 249.939 88.6587 248.796 89.4047C247.666 90.1719 246.282 90.4705 244.937 90.2377C244.283 90.0766 243.678 89.7587 243.175 89.3114C242.671 88.8642 242.284 88.301 242.047 87.6707C241.745 87.0835 241.627 86.4189 241.709 85.7638C241.791 85.1087 242.069 84.4935 242.506 83.9987C242.54 83.9817 242.608 83.8967 242.54 83.7947V83.7267ZM240.84 60.3177L237.542 59.9947C236.738 59.3183 235.752 58.8959 234.707 58.7809C233.663 58.6659 232.608 58.8635 231.677 59.3487C232.292 57.463 232.438 55.4556 232.102 53.5007C231.371 50.0157 227.359 47.6697 224.52 49.8627C223.338 50.84 222.368 52.0482 221.67 53.4133C220.971 54.7783 220.558 56.2716 220.457 57.8017C220.237 57.2544 219.818 56.8109 219.284 56.5607C217.023 55.4047 214.643 57.2747 213.929 59.4507C212.79 62.0177 212.705 65.9447 215.153 67.2537C213.628 67.6959 212.283 68.6107 211.311 69.8664C210.34 71.122 209.792 72.6537 209.747 74.2407C209.633 75.0222 209.715 75.8197 209.986 76.5617C210.256 77.3037 210.706 77.9672 211.296 78.4927C211.885 79.0182 212.596 79.3893 213.364 79.5729C214.132 79.7565 214.933 79.7468 215.697 79.5447C215.555 80.0336 215.543 80.5511 215.662 81.046C215.781 81.541 216.028 81.9962 216.377 82.3667C217.554 83.8096 219.006 85.0036 220.649 85.8792C222.293 86.7549 224.094 87.2945 225.948 87.4667C226.05 89.5577 226.203 91.6487 226.373 93.7227L173.401 94.9637L131.564 96.0007C130.616 92.1628 129.061 88.5012 126.957 85.1547C124.627 81.7984 121.644 78.9477 118.185 76.7737C115.452 75.017 112.422 73.7727 109.243 73.1017C108.971 72.5721 108.803 71.9948 108.75 71.4017C108.603 70.2738 108.518 69.1388 108.495 68.0017C109.518 68.315 110.599 68.3921 111.656 68.2272C112.713 68.0623 113.719 67.6597 114.598 67.0497C115.202 66.6708 115.771 66.2384 116.298 65.7577C115.951 66.5094 115.891 67.3616 116.128 68.1547C116.339 68.1534 116.546 68.1037 116.735 68.0094C116.924 67.915 117.088 67.7786 117.216 67.6107L119.987 64.6017C120.287 65.5676 120.214 66.6108 119.783 67.5257C120.038 68.0527 120.837 67.6277 121.177 67.1687C129.048 56.7647 124.271 32.1827 107.815 33.9507C106.557 34.0867 105.979 33.4407 104.908 33.3217C103.773 33.2383 102.632 33.2839 101.508 33.4577C94.1808 34.4607 88.5368 41.9577 88.2648 49.0297C88.2221 52.2801 89.1122 55.4746 90.8297 58.2346C92.5471 60.9945 95.0198 63.2042 97.9548 64.6017C97.6489 66.0293 97.2224 67.4283 96.6798 68.7837C96.2083 69.7238 95.5349 70.5481 94.7078 71.1977C93.4312 72.1403 91.9628 72.7904 90.4068 73.1017C88.1628 73.5967 85.9537 74.2384 83.7938 75.0227C79.4822 76.5514 75.5137 78.914 72.1148 81.9757C67.3545 86.3899 63.5628 91.7447 60.9798 97.7007L15.3008 98.8737L60.8608 97.9047C59.8334 100.265 58.9977 102.704 58.3618 105.198C57.1831 109.633 56.6112 114.208 56.6618 118.798C56.7338 122.012 57.1153 125.211 57.8008 128.352L53.3978 130.222C49.9978 131.616 46.5978 133.316 43.3338 134.931C40.0698 136.546 36.7208 138.331 33.4058 140.031C26.9798 143.55 20.3668 147.477 16.1338 153.631C20.4858 147.579 27.1158 143.703 33.6098 140.405C36.9248 138.705 40.1718 137.005 43.5378 135.441C46.9038 133.877 50.2018 132.245 53.6018 130.834C55.0638 130.188 56.5428 129.593 58.0218 128.981C58.2768 130.103 58.5658 131.225 58.9058 132.381C60.9437 138.982 64.0134 145.218 68.0008 150.86C63.2578 154.515 57.3248 159.972 55.2508 165.599C52.9048 172.178 56.9508 177.499 62.5608 181.46C60.0448 190.13 59.1608 190.181 58.8548 193.156C58.8548 195.842 60.7758 198.018 62.8158 199.531C60.6398 202.761 58.3278 205.923 55.8798 208.966C53.4318 212.009 50.5248 215.596 46.2238 220.458C44.5238 220.849 40.7158 222.532 40.0188 224.283C38.9478 227.071 41.5318 244.343 45.3398 240.484C46.6148 238.971 46.4958 235.707 47.6178 233.344C51.7318 227.632 61.2178 224.742 67.6098 221.58C73.7636 218.693 79.7057 215.376 85.3918 211.652C88.3049 209.718 91.1086 207.623 93.7898 205.379C97.4945 204.945 101.237 204.945 104.942 205.379C105.809 213.606 105.98 221.892 105.452 230.148C105.452 230.318 104.279 245.006 104.109 246.196C102.409 248.406 101.423 251.619 103.021 254.05C105.214 256.753 108.223 257.535 113.578 258.487C115.686 258.878 122.401 259.864 119.987 255.41C119.453 254.587 118.8 253.848 118.049 253.217C117.148 252.333 116.111 250.208 115.006 249.29C115.448 245.414 119.545 238.784 122.877 230.964C126.014 223.589 128.483 215.948 130.255 208.133C132.104 207.35 133.666 206.014 134.726 204.308C159.733 209.952 184.808 215.273 210.121 219.506C220.321 221.206 230.64 222.702 240.959 223.96L244.784 225.439C241.476 226.484 238.048 227.101 234.584 227.275C231.186 227.452 227.781 227.452 224.384 227.275C217.906 226.403 211.313 227.168 205.208 229.502C199.343 231.202 194.481 235.588 195.756 241.878C196.129 243.483 196.129 245.152 195.756 246.757C195.394 248.381 194.737 249.925 193.818 251.313C193.696 251.919 193.786 252.549 194.073 253.098C194.515 254.356 194.804 255.648 195.246 256.872C196.18 258.937 197.393 260.864 198.85 262.601C200.249 262.846 201.663 262.994 203.083 263.043C202.833 262.646 202.523 262.291 202.165 261.989C202.046 261.989 202.165 261.768 202.25 261.768C202.544 261.845 202.818 261.988 203.051 262.185C203.283 262.382 203.468 262.629 203.593 262.907C203.916 262.686 203.865 262.074 203.593 261.598C203.015 260.204 201.655 260.034 200.584 259.541C200.254 259.394 199.959 259.178 199.719 258.908C199.478 258.639 199.298 258.321 199.19 257.977C198.952 256.668 198.782 255.342 198.663 254.016C198.663 253.438 198.884 253.132 199.224 253.047C200.939 252.716 202.615 252.203 204.222 251.517C207.173 250.249 209.619 248.036 211.175 245.227C210.164 247.273 208.649 249.028 206.772 250.327C211.872 250.497 224.588 251.347 245.226 250.99C248.621 251.133 252.012 250.607 255.205 249.443C254.395 249.512 253.58 249.394 252.823 249.1C252.066 248.805 251.386 248.341 250.836 247.743C251.587 248.274 252.439 248.648 253.339 248.841C254.239 249.034 255.169 249.042 256.072 248.865C257.04 248.796 258.013 248.865 258.962 249.069C259.933 249.324 260.826 249.815 261.563 250.497C263.042 251.789 264.011 253.472 265.422 254.441C266.068 254.92 266.863 255.155 267.666 255.104L268.448 254.917C268.53 254.473 268.53 254.018 268.448 253.574C268.227 253.013 269.332 253.659 269.145 254.781L270.148 254.458C269.966 254.034 269.841 253.588 269.774 253.132C269.774 252.673 270.641 253.268 270.726 254.254C270.797 254.192 270.845 254.108 270.862 254.016C270.898 253.637 270.858 253.256 270.743 252.894C270.624 252.452 270.624 252.537 270.25 252.435C269.745 252.335 269.254 252.176 268.788 251.959C267.861 251.51 267.065 250.831 266.476 249.987C265.728 248.95 265.711 248.287 265.116 247.556C264.096 246.196 262.226 245.499 260.815 244.258C259.381 242.935 258.291 241.284 257.636 239.447C258.546 241.151 259.831 242.627 261.393 243.765C261.869 242.74 262.24 241.669 262.498 240.569C262.967 238.534 263.19 236.451 263.161 234.364C263.331 234.364 263.382 234.551 263.569 234.483C263.61 234.468 263.647 234.443 263.677 234.41C263.706 234.378 263.728 234.338 263.739 234.296C264.261 232.593 264.536 230.824 264.555 229.043C264.595 228.816 264.556 228.583 264.445 228.382C264.333 228.181 264.156 228.024 263.943 227.938L263.314 227.615V226.289C281.918 227.886 300.603 228.323 319.261 227.598C300.595 228.184 281.91 227.616 263.314 225.898C263.25 224.194 263.335 222.487 263.569 220.798C263.926 219.914 264.725 218.503 265.49 217.024C267.19 215.324 272.12 214.049 272.426 213.913C273.182 213.506 273.83 212.923 274.313 212.213C274.644 211.889 274.858 211.464 274.919 211.005C274.981 210.546 274.887 210.079 274.653 209.68C274.058 209.119 273.684 209.119 272.358 208.592C270.078 207.794 267.757 207.119 265.405 206.569C264.681 206.26 264.024 205.815 263.467 205.26C262.594 204.397 261.554 203.722 260.411 203.274C259.268 202.827 258.046 202.618 256.82 202.659C252.417 202.88 248.711 204.036 247.47 208.303C247.817 208.311 248.164 208.345 248.507 208.405C248.002 208.552 247.484 208.648 246.96 208.694C245.933 209.036 245.016 209.647 244.305 210.463C243.593 211.279 243.113 212.271 242.914 213.335C242.778 214.219 242.778 215.119 242.914 216.004C243.072 216.851 243.163 217.709 243.186 218.571C243.186 219.404 243.016 220.271 243.016 221.155C243.061 221.666 243.209 222.164 243.452 222.616C243.694 223.069 244.026 223.468 244.427 223.79L242.319 223.535C226.167 216.888 210.871 208.327 196.759 198.035C191.897 194.397 187.256 190.521 182.751 186.475C183.493 185.842 184.364 185.376 185.302 185.109C186.241 184.842 187.226 184.78 188.191 184.928V184.809C187.969 184.636 187.759 184.448 187.562 184.248C187.732 184.435 187.885 184.622 188.072 184.792C187.105 184.672 186.125 184.754 185.191 185.032C184.258 185.31 183.392 185.778 182.649 186.407C175.131 179.6 168.12 172.253 161.671 164.426C163.254 164.537 164.786 165.035 166.132 165.877C167.478 166.719 168.596 167.878 169.389 169.254C169.425 169.307 169.477 169.346 169.538 169.366C169.599 169.386 169.664 169.385 169.724 169.364C169.785 169.342 169.836 169.302 169.871 169.248C169.905 169.194 169.921 169.13 169.916 169.067C168.777 164.222 170.936 158.493 176.104 156.742C181.204 155.382 186.95 159.751 185.845 165.106C185.845 165.276 185.947 165.327 186.049 165.225C186.989 164.609 188.083 164.268 189.207 164.242C190.331 164.216 191.439 164.505 192.407 165.076C193.375 165.648 194.164 166.479 194.683 167.476C195.203 168.473 195.433 169.595 195.348 170.716L194.43 170.58C196.168 170.855 197.777 171.663 199.037 172.892C199.068 172.904 199.101 172.908 199.134 172.904C199.167 172.899 199.198 172.885 199.224 172.865C199.25 172.844 199.27 172.816 199.282 172.785C199.294 172.754 199.297 172.721 199.292 172.688V172.586C198.216 169.607 198.302 166.332 199.532 163.414C200.762 160.496 203.046 158.148 205.93 156.838C208.813 155.528 212.084 155.353 215.091 156.346C218.098 157.339 220.621 159.429 222.157 162.199C222.182 162.238 222.218 162.269 222.262 162.287C222.305 162.304 222.353 162.307 222.398 162.296C222.443 162.285 222.484 162.259 222.514 162.224C222.544 162.188 222.562 162.143 222.565 162.097V160.686C222.79 156.38 224.717 152.34 227.921 149.455C231.125 146.57 235.344 145.075 239.65 145.301C243.956 145.526 247.995 147.453 250.881 150.657C253.766 153.861 255.26 158.08 255.035 162.386C255.035 162.45 255.056 162.513 255.096 162.564C255.136 162.614 255.191 162.65 255.254 162.666C255.316 162.682 255.382 162.676 255.441 162.65C255.5 162.624 255.548 162.579 255.579 162.522C256.505 160.812 257.8 159.329 259.37 158.183C260.94 157.036 262.746 156.253 264.657 155.892C268.469 155.042 272.422 155.042 276.234 155.892C278.147 156.175 279.975 156.87 281.592 157.93C283.21 158.99 284.577 160.388 285.601 162.029C286.332 163.439 286.6 165.043 286.369 166.615C286.137 168.186 285.416 169.645 284.309 170.784C283.493 171.226 282.949 171.736 282.609 171.838C282.252 172.144 282.609 172.365 282.813 172.229C283.542 171.922 284.206 171.477 284.768 170.92C286.843 169.903 289.212 169.657 291.452 170.226C293.692 170.795 295.656 172.142 296.995 174.026C298.333 175.91 298.958 178.208 298.758 180.51C298.558 182.813 297.546 184.969 295.903 186.594C295.75 186.815 295.903 186.866 296.379 186.73C298.329 186.238 300.393 186.487 302.171 187.429C303.948 188.372 305.313 189.939 306.001 191.83C307.446 197.372 303.4 202.676 298.215 204.07C298.215 204.07 298.045 204.07 298.113 204.257C298.181 204.444 298.725 204.087 299.031 203.985C299.812 203.861 300.611 203.954 301.343 204.254C302.074 204.554 302.709 205.049 303.179 205.685C303.804 206.393 304.213 207.266 304.358 208.2C304.502 209.134 304.376 210.09 303.995 210.955C303.527 211.785 302.871 212.494 302.08 213.026C301.289 213.557 300.384 213.896 299.439 214.015C297.554 214.059 295.682 213.699 293.948 212.961C295.615 213.92 297.545 214.319 299.456 214.1C300.41 213.973 301.322 213.628 302.121 213.091C302.92 212.555 303.585 211.841 304.063 211.006C304.473 210.125 304.616 209.144 304.474 208.183C304.332 207.222 303.911 206.324 303.264 205.6C302.825 205.026 302.262 204.558 301.618 204.231C300.973 203.905 300.263 203.727 299.541 203.713C301.951 202.881 303.973 201.196 305.225 198.975C306.478 196.755 306.875 194.153 306.341 191.66C305.659 189.74 304.301 188.135 302.52 187.146C300.739 186.157 298.658 185.851 296.668 186.288C298.125 184.577 298.977 182.433 299.091 180.188C299.204 177.944 298.574 175.724 297.296 173.875C296.019 172.026 294.167 170.651 292.027 169.962C289.888 169.274 287.581 169.312 285.465 170.07C286.287 168.846 286.773 167.426 286.871 165.955C286.97 164.483 286.678 163.012 286.026 161.689C284.975 159.969 283.56 158.5 281.88 157.387C280.2 156.273 278.295 155.543 276.302 155.246C272.385 154.357 268.319 154.357 264.402 155.246C262.606 155.587 260.898 156.287 259.379 157.304C257.861 158.32 256.562 159.632 255.562 161.162C255.562 156.716 253.796 152.453 250.652 149.309C247.509 146.166 243.245 144.4 238.8 144.4C234.354 144.4 230.091 146.166 226.947 149.309C223.804 152.453 222.038 156.716 222.038 161.162C220.384 158.423 217.775 156.394 214.713 155.467C211.651 154.539 208.354 154.779 205.459 156.14C202.564 157.501 200.276 159.887 199.036 162.836C197.797 165.785 197.694 169.089 198.748 172.11C197.7 171.301 196.477 170.748 195.178 170.495C195.322 169.123 194.992 167.743 194.243 166.585C193.386 165.258 192.051 164.314 190.516 163.946C188.98 163.579 187.362 163.818 185.998 164.613C186.899 159.105 181.17 154.753 175.798 156.113C173.454 156.991 171.491 158.662 170.249 160.835C169.008 163.008 168.565 165.547 168.998 168.013C168.08 166.744 166.877 165.708 165.487 164.988C164.096 164.268 162.557 163.883 160.991 163.865C158.441 160.754 155.891 157.592 153.562 154.328C153.536 153.972 153.438 153.624 153.273 153.308L153.001 152.288C153.001 152.118 152.423 150.962 152.287 150.707C152.491 150.707 152.678 150.877 152.882 150.928C153.987 151.132 155.007 150.044 154.327 149.228C153.239 148.377 152.014 147.716 150.706 147.273C150.891 147.075 151.025 146.836 151.099 146.576C151.173 146.316 151.184 146.042 151.131 145.777C151.012 143.747 150.739 141.73 150.315 139.742C149.484 135.76 148.1 131.915 146.201 128.318C144.268 124.731 141.948 121.368 139.282 118.288C138.67 117.557 138.058 116.826 137.412 116.112C139.112 115.432 140.812 114.718 142.614 114.055C159.614 107.442 176.903 101.509 194.277 95.8647C175.101 102.002 155.891 108.428 137.123 115.823C136.492 115.132 135.81 114.489 135.083 113.902C133.468 112.61 133.944 110.502 133.689 108.411C133.689 107.357 133.502 106.303 133.383 105.266L138.041 104.161C145.249 102.461 152.508 101.135 159.75 99.6727C166.992 98.2107 174.268 96.8337 181.544 95.4907C174.251 96.6807 166.958 97.8877 159.682 99.2647C152.406 100.642 145.164 102.002 137.939 103.702L133.298 104.756C132.944 101.964 132.41 99.1991 131.7 96.4767L173.401 95.5417L226.356 94.2327C226.356 95.0487 226.475 95.9327 226.56 96.6467C226.56 96.7053 226.583 96.7615 226.625 96.803C226.666 96.8444 226.722 96.8677 226.781 96.8677C226.836 96.8634 226.888 96.8382 226.926 96.7973C226.964 96.7563 226.985 96.7025 226.985 96.6467V94.2157L252.927 93.5867C253.097 94.7937 253.216 96.0177 253.42 97.2417C253.428 97.2674 253.44 97.2913 253.457 97.3121C253.474 97.3328 253.495 97.35 253.519 97.3626C253.543 97.3753 253.569 97.3831 253.595 97.3857C253.622 97.3883 253.649 97.3856 253.675 97.3777C253.711 97.3724 253.744 97.3567 253.772 97.3325C253.799 97.3083 253.818 97.2768 253.828 97.2417C253.828 96.0007 253.675 94.7937 253.59 93.5697L331.501 91.6487L253.573 93.3487C253.471 91.8527 253.369 90.3397 253.25 88.8437C254.116 89.553 255.117 90.0785 256.192 90.3883C257.268 90.6981 258.395 90.7857 259.506 90.6457C261.112 90.4617 262.583 89.6562 263.603 88.4017C264.086 87.8121 264.35 87.0732 264.35 86.3107C264.35 85.5482 264.086 84.8093 263.603 84.2197C265.565 83.5828 267.365 82.5258 268.877 81.1224C270.389 79.7191 271.577 78.003 272.358 76.0937C272.817 75.1054 273.032 74.0213 272.985 72.9325C272.937 71.8438 272.629 70.7824 272.086 69.8377C271.611 69.1802 270.966 68.6639 270.221 68.3436C269.475 68.0233 268.657 67.911 267.853 68.0187C268.797 67.1474 269.606 66.1387 270.25 65.0267C271.203 63.4025 271.524 61.4837 271.151 59.6377C270.997 58.7133 270.601 57.846 270.004 57.1236C269.407 56.4012 268.63 55.8493 267.751 55.5237C266.953 55.2299 266.087 55.1697 265.256 55.3504C264.425 55.5311 263.663 55.945 263.059 56.5437C264.191 53.5864 264.767 50.4454 264.759 47.2787C264.693 45.5994 264.166 43.9705 263.237 42.5703C262.307 41.1701 261.011 40.0524 259.489 39.3397C258.711 38.979 257.864 38.7921 257.007 38.7921C256.15 38.7921 255.303 38.979 254.525 39.3397C253.015 40.1361 251.817 41.4176 251.125 42.9777C250.162 45.3756 249.851 47.9857 250.224 50.5427C249.592 49.1275 248.664 47.8639 247.504 46.8367C247.021 46.4772 246.471 46.2181 245.887 46.0746C245.303 45.9311 244.695 45.9062 244.101 46.0012C243.507 46.0963 242.938 46.3095 242.427 46.6282C241.917 46.9469 241.475 47.3646 241.129 47.8567C239.63 49.5843 238.78 51.7799 238.724 54.0662C238.668 56.3526 239.41 58.587 240.823 60.3857L240.84 60.3177ZM273.14 209.68C273.888 208.796 274.84 210.241 274.704 210.921C274.568 211.346 274.483 211.108 273.99 211.346C273.106 211.975 272.46 210.598 273.191 209.748L273.14 209.68ZM231.558 86.9057C233.258 85.9367 233.87 83.2337 232.085 82.1627C233.357 81.6003 234.585 80.941 235.757 80.1907C235.774 80.9334 235.966 81.6615 236.318 82.3157C236.864 83.2812 237.745 84.0132 238.794 84.3735C239.844 84.7337 240.989 84.6971 242.013 84.2707C241.646 84.7962 241.424 85.4085 241.367 86.0467C241.31 86.6849 241.422 87.3268 241.69 87.9087C241.944 88.5942 242.359 89.2084 242.901 89.6996C243.442 90.1908 244.094 90.5444 244.801 90.7307C246.25 91.0087 247.751 90.7098 248.983 89.8977C250.084 89.1832 250.985 88.2004 251.601 87.0417C251.79 87.3192 251.994 87.5859 252.213 87.8407C252.383 89.6597 252.604 91.4787 252.842 93.2977L226.934 93.8417C226.934 91.575 226.866 89.3084 226.73 87.0417C228.3 87.6017 230.022 87.5532 231.558 86.9057ZM154.089 149.5C154.177 149.629 154.213 149.788 154.187 149.943C154.162 150.098 154.078 150.238 153.953 150.333C153.171 151.047 152.032 149.993 151.726 150.112C151.696 150.125 151.67 150.143 151.648 150.167C151.625 150.19 151.608 150.218 151.597 150.248C151.586 150.278 151.581 150.31 151.583 150.342C151.585 150.374 151.593 150.406 151.607 150.435L151.743 150.792C150.656 150.623 149.547 150.883 148.649 151.517C147.751 152.152 147.135 153.111 146.932 154.192C146.937 154.239 146.956 154.283 146.987 154.319C147.018 154.356 147.058 154.382 147.104 154.395C147.15 154.407 147.198 154.406 147.243 154.391C147.288 154.376 147.328 154.348 147.357 154.311C147.82 153.478 148.478 152.769 149.274 152.245C150.071 151.722 150.982 151.398 151.93 151.302L152.389 152.407C152.75 153.051 152.997 153.753 153.12 154.481C153.018 155.076 152.304 154.651 151.828 154.26C151.33 153.815 150.88 153.319 150.485 152.781C150.111 152.237 149.737 152.645 149.822 152.934L150.774 154.923C151.046 155.501 151.794 156.334 151.301 156.436C150.808 156.538 150.213 156.062 149.822 155.501C149.431 154.94 148.853 153.988 148.632 153.665C148.598 153.618 148.55 153.585 148.495 153.569C148.44 153.553 148.382 153.556 148.329 153.578C148.276 153.599 148.232 153.638 148.203 153.688C148.175 153.737 148.164 153.795 148.173 153.852C148.275 154.685 148.7 155.331 148.462 156.079C148.173 156.487 147.272 155.263 147 154.804C146.41 153.511 146.053 152.124 145.946 150.707C146.344 150.558 146.713 150.339 147.034 150.061L149.448 148.361C149.618 148.225 150.502 147.545 150.621 147.477C151.874 147.969 153.043 148.651 154.089 149.5ZM98.9068 58.4987C98.4748 58.5829 98.0278 58.5447 97.6163 58.3885C97.2048 58.2323 96.8451 57.9643 96.5778 57.6147C94.9798 55.9147 95.5918 53.2117 96.9518 53.3817C97.4108 53.3817 97.8358 53.5857 99.1958 55.1837C99.2404 55.1998 99.2878 55.2068 99.3351 55.2044C99.3825 55.2019 99.4289 55.1901 99.4716 55.1695C99.5144 55.1489 99.5526 55.12 99.584 55.0845C99.6155 55.049 99.6395 55.0076 99.6548 54.9627C100.862 52.7527 101.933 53.0757 105.86 50.2537C108.029 48.7937 109.604 46.6042 110.297 44.0827C113.182 44.5193 115.839 45.9075 117.845 48.0267C118.479 48.9749 118.794 50.1002 118.746 51.2397C118.631 51.0612 118.478 50.9096 118.3 50.7952C118.121 50.6808 117.919 50.6063 117.709 50.5767C117.48 50.5143 117.239 50.5128 117.009 50.5725C116.779 50.6321 116.569 50.7508 116.4 50.9167C117.195 50.95 117.983 51.0814 118.746 51.3077C118.542 53.9257 121.466 61.8477 114.122 66.4377C112.284 67.524 110.095 67.8531 108.019 67.3557C107.832 67.3557 107.696 67.5597 107.73 67.7467C107.764 67.9337 107.73 68.3077 107.832 68.5967C107.39 69.2767 106.421 70.8747 102.086 69.2767C100.565 68.6766 99.1995 67.741 98.0908 66.5397C98.6541 64.2292 99.0181 61.8745 99.1788 59.5017C99.1718 59.1501 99.0784 58.8056 98.9068 58.4987ZM62.9008 180.746C55.7778 175.731 54.5198 170.359 56.1008 165.82C58.0728 160.329 63.7678 155.093 68.3918 151.489V151.302C67.1925 161.224 65.3584 171.058 62.9008 180.746ZM85.2728 211.091C79.5926 214.745 73.6619 217.994 67.5248 220.815C61.4218 223.841 54.0268 226.153 48.9098 231.015C48.4096 230.56 47.768 230.291 47.093 230.254C46.418 230.217 45.7509 230.414 45.2038 230.811C45.5211 227.615 45.8724 224.43 46.2578 221.257C48.0768 219.268 52.7688 213.811 56.3558 209.153C58.7188 206.059 60.9628 202.863 63.1558 199.599C72.5398 206.399 81.6858 206.399 93.0248 205.379C90.4238 207.402 87.8738 209.323 85.2048 211.091H85.2728ZM77.2318 159.054C77.211 158.945 77.1529 158.847 77.0676 158.776C76.9822 158.706 76.875 158.667 76.7643 158.667C76.6536 158.667 76.5463 158.706 76.461 158.776C76.3757 158.847 76.3176 158.945 76.2968 159.054C76.2968 160.38 76.4498 162.454 76.0248 162.556C75.5998 162.658 75.3108 161.944 75.3108 161.281V159.105C75.2976 159.011 75.255 158.925 75.189 158.857C75.1231 158.79 75.0374 158.745 74.9443 158.73C74.8513 158.715 74.7558 158.73 74.6719 158.773C74.588 158.816 74.52 158.884 74.4778 158.969C74.0868 160.108 74.0698 161.043 73.6788 160.907C73.2878 160.771 73.2538 158.408 73.5258 157.32C73.5258 156.844 73.6958 156.368 73.7978 155.892L79.4588 154.192C80.3286 155.229 81.0653 156.371 81.6518 157.592C82.0088 158.238 81.6518 158.731 81.0568 158.697C80.1898 158.697 79.9008 157.405 79.5268 157.337C79.4372 157.327 79.347 157.351 79.2745 157.404C79.202 157.458 79.1524 157.537 79.1358 157.626C78.6428 161.502 78.5408 162.131 78.2348 162.199C77.9288 162.267 77.6058 162.216 77.2318 159.054ZM122.231 230.675C118.831 238.546 114.819 244.853 114.275 248.865C114.066 248.836 113.854 248.858 113.655 248.929C113.457 249 113.279 249.118 113.136 249.273C112.732 249.807 112.555 250.479 112.643 251.143C112.473 251.398 112.082 251.143 111.861 251.041L105.061 245.669C105.061 245.346 106.234 230.369 106.234 230.182C106.694 221.921 106.473 213.637 105.571 205.413C110.671 206.263 115.533 208.49 120.633 209.255C123.696 209.766 126.841 209.455 129.745 208.354C127.891 215.997 125.377 223.466 122.231 230.675ZM129.354 128.046C128.936 126.558 128.146 125.2 127.059 124.102C128.215 122.521 127.365 121.161 127.365 118.866V114.973C127.501 106.32 128.929 98.8567 125.869 91.3937C124.838 88.9702 123.507 86.6857 121.908 84.5937C121.789 84.7297 124.441 89.2177 125.495 91.6317C128.674 99.7747 126.753 106.932 126.906 118.934C127.071 120.225 127.156 121.525 127.161 122.827C126.991 124 125.784 124.782 124.696 125.428C119.136 128.884 112.694 130.655 106.149 130.528C97.342 130.477 88.6168 128.836 80.3938 125.683C80.0538 123.864 79.6798 122.045 79.2378 120.26C82.9477 117.343 86.1822 113.867 88.8258 109.958C90.1617 107.965 91.3004 105.847 92.2258 103.634C93.0982 101.439 93.742 99.1604 94.1468 96.8337C93.8748 96.8337 92.6848 101.356 91.8008 103.634C90.8781 105.8 89.739 107.867 88.4008 109.805C85.662 113.706 82.3822 117.198 78.6598 120.175C81.123 130.874 82.0277 141.873 81.3458 152.832L72.4548 155.484C66.6909 148.619 62.3562 140.672 59.7048 132.109C57.0352 123.473 56.8268 114.263 59.1032 105.515C61.3795 96.7671 66.0503 88.8272 72.5908 82.5877C82.0088 73.8667 90.9508 74.6657 94.9628 71.8607C95.8452 73.3698 97.0574 74.6598 98.5087 75.6342C99.9601 76.6087 101.613 77.2423 103.344 77.4877C106.132 77.8447 109.532 77.1477 109.583 74.0877C116.406 75.6472 122.401 79.6967 126.396 85.4437C133.077 96.3577 133.043 110.094 133.196 111.488C133.266 112.583 133.76 113.607 134.573 114.344C138.988 118.487 142.708 123.315 145.589 128.641C148.47 133.951 150.207 139.805 150.689 145.828C150.74 146.045 150.737 146.272 150.681 146.488C150.624 146.704 150.516 146.904 150.366 147.069C148.825 148.312 147.2 149.448 145.504 150.469C145.039 150.537 144.565 150.485 144.127 150.316C140.491 149.134 137.053 147.415 133.927 145.216C132.789 139.396 131.261 133.66 129.354 128.046ZM137.242 172.246C136.924 163.299 135.86 154.394 134.063 145.624C137.089 147.806 140.447 149.488 144.008 150.605C144.543 150.836 145.137 150.895 145.708 150.775H145.946C145.963 152.248 146.252 153.706 146.796 155.076C147.064 155.592 147.441 156.045 147.901 156.402C148.015 156.491 148.155 156.54 148.3 156.54C148.445 156.54 148.586 156.491 148.7 156.402C148.913 156.037 149.002 155.614 148.955 155.195C149.584 156.249 150.111 157.15 151.505 157.048C151.845 157.048 152.508 156.742 151.352 154.685C151.947 155.212 152.831 155.807 153.477 155.348C153.57 155.281 153.644 155.19 153.691 155.086C153.739 154.982 153.759 154.867 153.749 154.753C155.942 157.864 158.254 160.907 160.549 163.916C158.978 163.958 157.44 164.372 156.061 165.123C153.918 166.518 152.373 168.662 151.725 171.136C151.078 173.609 151.375 176.235 152.559 178.502C151.779 178.144 150.936 177.943 150.078 177.911C149.221 177.878 148.365 178.016 147.561 178.315C146.379 178.71 145.338 179.441 144.565 180.418C143.792 181.395 143.321 182.577 143.209 183.818C143.097 185.059 143.35 186.306 143.935 187.406C144.521 188.506 145.415 189.411 146.507 190.011C145.785 189.594 145.151 189.04 144.644 188.379C144.136 187.718 143.763 186.963 143.547 186.158C143.33 185.353 143.275 184.513 143.383 183.687C143.491 182.86 143.761 182.063 144.178 181.341C144.594 180.618 145.149 179.985 145.81 179.477C146.471 178.97 147.225 178.597 148.03 178.381C148.836 178.164 149.675 178.109 150.502 178.217C151.328 178.325 152.126 178.595 152.848 179.012C152.881 179.036 152.921 179.048 152.962 179.045C153.003 179.042 153.041 179.025 153.07 178.996C153.099 178.967 153.116 178.929 153.119 178.888C153.122 178.847 153.11 178.806 153.086 178.774C151.849 176.554 151.512 173.943 152.144 171.482C152.777 169.02 154.331 166.896 156.486 165.548C157.924 164.77 159.544 164.394 161.178 164.46C167.565 172.499 174.562 180.035 182.105 187.002C181.686 187.447 181.326 187.944 181.034 188.481C180.155 190.122 179.964 192.045 180.503 193.827C181.041 195.609 182.266 197.104 183.907 197.984C182.658 197.299 181.651 196.246 181.021 194.969C180.392 193.691 180.17 192.251 180.388 190.844C180.6 189.448 181.242 188.152 182.224 187.138C198.858 202.452 218.084 214.685 239.004 223.263C229.404 222.027 219.828 220.599 210.274 218.979C185.029 214.695 160.039 209.306 135.117 203.679C135.338 202.931 138.262 197.389 137.242 172.246ZM272.001 210.224C272.055 210.242 272.103 210.273 272.142 210.315C272.18 210.356 272.208 210.407 272.222 210.462C272.238 210.504 272.244 210.549 272.241 210.594C272.239 210.639 272.226 210.683 272.206 210.723C272.185 210.763 272.156 210.799 272.121 210.827C272.085 210.855 272.044 210.875 272.001 210.887C271.946 210.873 271.895 210.845 271.854 210.806C271.812 210.768 271.781 210.719 271.763 210.666C271.736 210.576 271.746 210.479 271.791 210.396C271.836 210.313 271.911 210.251 272.001 210.224ZM271.797 211.822C271.878 211.822 271.956 211.854 272.013 211.911C272.071 211.969 272.103 212.047 272.103 212.128C272.103 212.211 272.071 212.29 272.014 212.35C271.957 212.41 271.879 212.446 271.797 212.451C271.754 212.453 271.711 212.447 271.67 212.431C271.63 212.416 271.593 212.392 271.563 212.362C271.532 212.331 271.509 212.294 271.493 212.254C271.478 212.214 271.471 212.171 271.474 212.128C271.472 212.079 271.481 212.031 271.502 211.987C271.522 211.943 271.553 211.904 271.591 211.875C271.629 211.845 271.674 211.824 271.721 211.815C271.769 211.806 271.818 211.808 271.865 211.822H271.797ZM271.202 210.513C271.491 210.87 271.321 211.091 271.066 211.142C270.988 211.176 270.904 211.194 270.819 211.194C270.734 211.194 270.65 211.176 270.573 211.142C270.437 211.04 270.403 210.853 270.573 210.581C270.743 210.309 271.27 210.513 271.27 210.513H271.202ZM270.692 211.975C270.692 212.035 270.674 212.094 270.64 212.145C270.607 212.195 270.559 212.234 270.503 212.257C270.447 212.281 270.385 212.287 270.326 212.275C270.267 212.263 270.212 212.234 270.169 212.191C270.127 212.148 270.097 212.094 270.086 212.034C270.074 211.975 270.08 211.914 270.103 211.858C270.126 211.802 270.165 211.754 270.216 211.72C270.266 211.687 270.325 211.669 270.386 211.669C270.431 211.658 270.478 211.658 270.524 211.669C270.569 211.68 270.612 211.701 270.648 211.73C270.684 211.76 270.713 211.797 270.732 211.839C270.751 211.882 270.761 211.928 270.76 211.975H270.692ZM270.335 209.374C270.405 209.374 270.474 209.395 270.533 209.434C270.592 209.473 270.638 209.529 270.665 209.594C270.692 209.659 270.699 209.731 270.685 209.8C270.671 209.87 270.637 209.933 270.587 209.983C270.537 210.033 270.474 210.067 270.404 210.081C270.335 210.095 270.263 210.088 270.198 210.061C270.133 210.034 270.077 209.988 270.038 209.929C269.999 209.87 269.978 209.801 269.978 209.731C269.977 209.678 269.988 209.625 270.01 209.576C270.032 209.528 270.064 209.485 270.105 209.451C270.146 209.417 270.194 209.392 270.245 209.379C270.297 209.365 270.351 209.364 270.403 209.374H270.335ZM258.758 206.994C258.758 206.786 258.84 206.587 258.987 206.441C259.133 206.294 259.332 206.212 259.54 206.212C259.747 206.212 259.946 206.294 260.093 206.441C260.239 206.587 260.322 206.786 260.322 206.994C260.271 207.258 260.271 207.529 260.322 207.793C260.543 208.779 258.996 209.221 258.792 208.201C258.773 207.798 258.784 207.395 258.826 206.994H258.758ZM263.688 228.431L263.875 228.533C263.968 230.254 263.767 231.979 263.28 233.633L250.479 225.439C250.338 225.806 250.11 226.133 249.813 226.39C249.517 226.648 249.162 226.829 248.779 226.918C247.385 227.054 246.195 225.796 244.954 224.555L244.138 224.215L245.107 224.317C246.688 225.813 247.623 226.714 248.745 226.595C250.275 226.272 250.836 224.266 250.7 222.872C250.383 220.773 249.741 218.737 248.796 216.837C248.315 215.857 248.115 214.764 248.217 213.678C248.319 212.592 248.719 211.555 249.374 210.683C248.804 211.578 248.475 212.606 248.418 213.666C248.362 214.727 248.579 215.783 249.051 216.735C250.089 218.716 250.78 220.861 251.091 223.076C255.442 224.537 259.676 226.327 263.756 228.431H263.688ZM262.991 215.902V215.409C265.912 214.346 268.968 213.699 272.069 213.488C272.358 213.488 272.392 213.777 272.154 213.794C269.056 214.293 265.995 214.997 262.991 215.902Z" fill="black"/>
<path d="M187.612 172.704C186.158 174.111 185.288 176.013 185.174 178.033C185.061 180.053 185.713 182.041 187 183.601C186.081 182.322 185.547 180.806 185.461 179.233C185.375 177.661 185.74 176.096 186.514 174.724C187.287 173.352 188.437 172.229 189.827 171.489C191.218 170.749 192.791 170.421 194.361 170.545C193.146 170.367 191.906 170.469 190.736 170.843C189.567 171.217 188.498 171.854 187.612 172.704ZM187.51 184.111L187.612 184.213C187.524 184.131 187.444 184.039 187.374 183.941L187.51 184.111ZM218.161 75.1411C217.974 75.0391 217.77 75.2771 217.94 75.4131C220.278 77.3453 222.768 79.0849 225.386 80.6151C225.488 80.6151 225.607 80.5131 225.522 80.4281C223.221 78.4623 220.759 76.6937 218.161 75.1411ZM251.26 71.4011C251.379 71.5201 251.566 71.4011 251.447 71.2141C250.068 69.4725 248.587 67.8149 247.01 66.2501C246.874 66.1311 246.602 66.2501 246.738 66.4711C248.138 68.2098 249.648 69.8566 251.26 71.4011ZM221.119 258.401C221.034 257.931 220.835 257.49 220.538 257.116C220.242 256.743 219.857 256.448 219.419 256.259C218.544 255.916 217.631 255.682 216.699 255.562C215.224 255.2 213.884 254.421 212.84 253.318C211.922 252.553 211.412 251.856 211.786 250.819C204.527 250.513 207.128 250.598 206.55 250.598C205.859 251.112 205.112 251.545 204.323 251.89C204.323 252.74 204.323 253.284 204.646 253.454C207.01 254.041 209.294 254.914 211.446 256.055C212.75 256.739 213.995 257.53 215.169 258.418C215.543 258.707 215.764 258.639 216.325 258.673H219.3C220.201 258.673 220.048 258.588 221 258.554C220.658 257.986 220.12 257.563 219.487 257.364C219.477 257.346 219.471 257.326 219.471 257.305C219.471 257.284 219.477 257.263 219.487 257.245C219.829 257.3 220.155 257.432 220.438 257.633C220.721 257.833 220.954 258.096 221.119 258.401ZM194.871 238.409C192.528 240.539 189.798 242.201 186.83 243.305C183.508 244.725 179.889 245.308 176.29 245.005H176.154C176.129 245.04 176.116 245.081 176.116 245.124C176.116 245.167 176.129 245.208 176.154 245.243C176.809 245.886 177.585 246.393 178.437 246.734C179.289 247.075 180.2 247.245 181.118 247.232C182.909 247.319 184.701 247.077 186.405 246.518C189.375 245.405 192.187 243.907 194.769 242.064C194.586 240.849 194.62 239.612 194.871 238.409ZM248.37 259.625C248.073 259.408 247.826 259.131 247.644 258.812C247.463 258.492 247.351 258.138 247.316 257.772C247.324 255.392 248.008 253.063 249.288 251.057C247.978 251.199 246.661 251.255 245.344 251.227H242.607C243.597 253.834 244.104 256.599 244.103 259.387C244.063 259.771 244.108 260.158 244.234 260.522C244.361 260.887 244.565 261.219 244.834 261.495C245.347 261.883 245.937 262.156 246.565 262.297C247.192 262.438 247.842 262.443 248.472 262.311C248.441 261.737 248.51 261.162 248.676 260.611C248.676 260.475 248.863 260.492 248.914 260.611C249.008 261.145 249.008 261.692 248.914 262.226C249.088 262.253 249.265 262.211 249.407 262.107V261.852C249.494 261.419 249.44 260.969 249.254 260.569C249.067 260.168 248.758 259.837 248.37 259.625ZM85.561 306.188C67.252 300.952 50.031 294.288 35.462 281.64C22.0832 270.174 12.6901 254.757 8.636 237.61H8.5C15.521 274.16 50.303 299.915 85.391 306.749C85.474 306.754 85.5556 306.727 85.6189 306.673C85.6822 306.619 85.7224 306.543 85.731 306.46C85.7327 306.403 85.7175 306.347 85.6872 306.298C85.6569 306.25 85.613 306.212 85.561 306.188ZM153.833 196.283C153.646 196.181 153.527 196.436 153.68 196.555C154.396 197.05 155.008 197.679 155.482 198.408C155.843 199.043 156.161 199.702 156.434 200.38C156.466 200.404 156.505 200.416 156.544 200.416C156.584 200.416 156.623 200.404 156.655 200.38C156.683 200.366 156.706 200.344 156.722 200.317C156.737 200.29 156.743 200.258 156.74 200.227C156.585 199.393 156.243 198.604 155.74 197.921C155.236 197.238 154.584 196.678 153.833 196.283ZM159.256 195.824C158.767 196.451 158.406 197.17 158.196 197.937C157.986 198.704 157.93 199.506 158.032 200.295C158.032 200.448 158.321 200.465 158.304 200.295C158.288 199.489 158.403 198.685 158.644 197.915C158.865 197.218 159.256 196.623 159.477 195.926C159.495 195.905 159.505 195.878 159.505 195.85C159.505 195.822 159.495 195.795 159.477 195.773C159.464 195.751 159.445 195.734 159.421 195.724C159.398 195.714 159.372 195.712 159.348 195.718C159.323 195.723 159.301 195.737 159.285 195.756C159.268 195.775 159.258 195.799 159.256 195.824ZM159.8 200.227C159.789 200.238 159.78 200.251 159.774 200.266C159.767 200.281 159.764 200.296 159.764 200.312C159.764 200.328 159.767 200.344 159.774 200.358C159.78 200.373 159.789 200.386 159.8 200.397C159.825 200.421 159.859 200.434 159.893 200.434C159.928 200.434 159.962 200.421 159.987 200.397C160.922 199.853 161.857 199.343 162.741 198.697C162.76 198.673 162.771 198.643 162.771 198.612C162.771 198.581 162.76 198.551 162.741 198.527H162.588C161.5 199.054 160.667 199.666 159.8 200.227ZM223.057 204.783C223.841 206.367 224.451 208.032 224.876 209.747C224.876 209.849 225.012 209.747 224.995 209.747V209.628C224.859 207.856 224.274 206.148 223.295 204.664C223.295 204.664 223.006 204.664 223.057 204.783ZM228.225 203.491C228.201 203.472 228.171 203.461 228.14 203.461C228.109 203.461 228.079 203.472 228.055 203.491C226.973 205.145 226.383 207.073 226.355 209.05C226.363 209.068 226.376 209.084 226.393 209.095C226.409 209.106 226.429 209.111 226.448 209.111C226.468 209.111 226.488 209.106 226.504 209.095C226.521 209.084 226.534 209.068 226.542 209.05C226.756 207.145 227.333 205.298 228.242 203.61C228.25 203.591 228.253 203.569 228.25 203.548C228.247 203.527 228.238 203.508 228.225 203.491ZM230.401 207.401H230.265C229.491 208.099 228.753 208.837 228.055 209.611C228.031 209.636 228.018 209.67 228.018 209.705C228.018 209.739 228.031 209.773 228.055 209.798C228.074 209.815 228.098 209.824 228.123 209.824C228.148 209.824 228.172 209.815 228.191 209.798C228.965 209.106 229.703 208.374 230.401 207.605C230.419 207.595 230.433 207.58 230.443 207.562C230.453 207.544 230.459 207.524 230.459 207.503C230.459 207.483 230.453 207.462 230.443 207.445C230.433 207.427 230.419 207.412 230.401 207.401ZM189.38 207.945C189.38 208.183 189.669 208.268 189.72 208.047C189.845 207.638 189.857 207.202 189.756 206.786C189.654 206.37 189.442 205.99 189.142 205.684C189.129 205.67 189.114 205.658 189.096 205.65C189.078 205.642 189.059 205.638 189.04 205.638C189.021 205.638 189.002 205.642 188.984 205.65C188.966 205.658 188.951 205.67 188.938 205.684C188.917 205.711 188.906 205.744 188.906 205.778C188.906 205.811 188.917 205.844 188.938 205.871C189.147 206.17 189.294 206.507 189.369 206.863C189.445 207.22 189.449 207.587 189.38 207.945ZM192.457 207.928C192.126 207.47 191.949 206.92 191.949 206.356C191.949 205.791 192.126 205.241 192.457 204.783C192.468 204.772 192.477 204.759 192.483 204.744C192.49 204.73 192.493 204.714 192.493 204.698C192.493 204.682 192.49 204.667 192.483 204.652C192.477 204.637 192.468 204.624 192.457 204.613C192.438 204.596 192.414 204.587 192.389 204.587C192.364 204.587 192.34 204.596 192.321 204.613C191.938 205.097 191.729 205.696 191.729 206.313C191.729 206.93 191.938 207.529 192.321 208.013C192.287 208.268 192.559 208.098 192.457 207.928ZM193.511 208.642C194.276 208.128 195.003 207.56 195.687 206.942C195.698 206.931 195.707 206.918 195.713 206.903C195.72 206.889 195.723 206.873 195.723 206.857C195.723 206.841 195.72 206.826 195.713 206.811C195.707 206.796 195.698 206.783 195.687 206.772C195.67 206.76 195.649 206.753 195.627 206.753C195.606 206.753 195.585 206.76 195.568 206.772C194.777 207.28 194.027 207.848 193.324 208.472C193.324 208.496 193.329 208.52 193.338 208.541C193.348 208.563 193.362 208.583 193.38 208.599C193.397 208.615 193.418 208.627 193.441 208.634C193.463 208.642 193.487 208.645 193.511 208.642ZM288.184 213.895C288.165 213.913 288.151 213.934 288.141 213.957C288.131 213.98 288.125 214.006 288.125 214.031C288.125 214.057 288.131 214.082 288.141 214.105C288.151 214.129 288.165 214.15 288.184 214.167C289.038 215.476 289.616 216.945 289.884 218.485C289.884 218.672 290.207 218.672 290.207 218.485C290.221 216.809 289.616 215.186 288.507 213.929C288.5 213.894 288.482 213.861 288.455 213.837C288.428 213.812 288.394 213.797 288.358 213.793C288.322 213.789 288.286 213.797 288.254 213.815C288.223 213.834 288.198 213.862 288.184 213.895ZM293.063 211.158C292.273 211.966 291.712 212.97 291.44 214.067C291.168 215.164 291.194 216.314 291.516 217.397C291.516 217.429 291.529 217.459 291.551 217.481C291.573 217.504 291.603 217.516 291.635 217.516C291.667 217.516 291.697 217.504 291.719 217.481C291.741 217.459 291.754 217.429 291.754 217.397C291.551 216.345 291.584 215.26 291.851 214.222C292.119 213.184 292.614 212.219 293.301 211.396C293.369 211.192 293.182 211.056 293.063 211.158ZM296.633 214.728C296.633 214.609 296.548 214.439 296.429 214.524C295.238 215.534 294.135 216.643 293.131 217.839C293.104 217.866 293.089 217.903 293.089 217.941C293.089 217.979 293.104 218.016 293.131 218.043C293.158 218.07 293.195 218.085 293.233 218.085C293.271 218.085 293.308 218.07 293.335 218.043C294.526 217.033 295.629 215.924 296.633 214.728ZM304.878 158.849C304.869 158.835 304.856 158.824 304.841 158.816C304.826 158.808 304.81 158.804 304.793 158.804C304.776 158.804 304.76 158.808 304.745 158.816C304.73 158.824 304.717 158.835 304.708 158.849V158.951C305.383 159.932 306.127 160.864 306.935 161.739C306.955 161.764 306.985 161.78 307.016 161.783C307.048 161.786 307.08 161.776 307.105 161.756C307.13 161.736 307.146 161.707 307.149 161.675C307.152 161.643 307.142 161.611 307.122 161.586C306.444 160.619 305.694 159.704 304.878 158.849ZM310.828 158.237C310.3 158.633 309.872 159.146 309.577 159.736C309.282 160.327 309.128 160.977 309.128 161.637C309.128 161.722 309.128 161.722 309.247 161.637C309.296 161.002 309.472 160.383 309.764 159.816C310.056 159.25 310.458 158.748 310.947 158.339C310.947 158.339 310.93 158.186 310.828 158.237ZM311.287 162.147C311.083 162.3 311.287 162.64 311.491 162.504V162.385C312.258 161.859 312.995 161.291 313.701 160.685C313.726 160.657 313.74 160.621 313.74 160.583C313.74 160.545 313.726 160.509 313.701 160.481C313.674 160.46 313.641 160.449 313.607 160.449C313.574 160.449 313.541 160.46 313.514 160.481C312.742 160.996 311.999 161.552 311.287 162.147ZM232.016 122.486C232.305 123.438 232.713 124.339 233.053 125.274C233.053 125.393 233.325 125.274 233.274 125.274C232.9 124.339 232.577 123.404 232.169 122.486C232.169 122.401 231.982 122.486 232.016 122.486ZM234.838 125.308L235.246 123.115C235.008 123.846 234.838 124.594 234.668 125.308H234.838ZM236.844 126.328C236.844 126.464 236.98 126.566 237.048 126.447C237.422 125.716 237.796 124.985 238.136 124.22C238.136 124.118 238.034 124.033 237.966 124.118C237.558 124.832 237.201 125.58 236.844 126.328ZM23.8 290.055C25.5442 291.751 26.7805 293.9 27.37 296.26C27.37 296.379 27.557 296.26 27.54 296.26C27.0623 293.773 25.7413 291.528 23.8 289.902C23.8 289.902 23.63 289.902 23.8 290.055Z" fill="black"/>
<path d="M31.517 285.024C30.1134 288.569 29.6507 292.416 30.174 296.193C30.174 296.38 30.48 296.38 30.463 296.193C30.2236 292.455 30.6672 288.705 31.772 285.126C31.755 284.99 31.568 284.888 31.517 285.024ZM35.699 291.705C34.1524 292.823 32.9698 294.372 32.299 296.159C32.299 296.295 32.486 296.397 32.537 296.261C33.3398 294.608 34.4605 293.129 35.835 291.909C35.8577 291.906 35.8793 291.897 35.8977 291.883C35.9161 291.869 35.9307 291.851 35.9401 291.83C35.9495 291.809 35.9534 291.786 35.9515 291.763C35.9496 291.74 35.9419 291.718 35.9291 291.699C35.9164 291.68 35.899 291.664 35.8785 291.653C35.8581 291.643 35.8354 291.638 35.8124 291.638C35.7894 291.639 35.7669 291.645 35.7471 291.657C35.7272 291.668 35.7107 291.685 35.699 291.705ZM110.499 51.2738C110.992 51.1146 111.498 51.0008 112.012 50.9338C111.758 50.7825 111.474 50.6903 111.179 50.6638C110.885 50.6373 110.589 50.6773 110.312 50.7808C110.024 50.8337 109.752 50.9536 109.519 51.1308C109.286 51.3079 109.097 51.5374 108.969 51.8008C109.45 51.5503 109.966 51.3727 110.499 51.2738ZM116.194 60.1138C116.365 59.9713 116.502 59.7916 116.593 59.5883C116.685 59.385 116.728 59.1635 116.721 58.9408C116.722 58.5588 116.688 58.1775 116.619 57.8018C116.367 56.3843 115.884 55.0176 115.191 53.7558C115.361 55.1838 115.701 56.5608 115.82 57.9718C116.058 58.6688 116.194 59.3148 115.82 59.6718C115.446 60.0288 114.647 59.9778 113.95 59.9778C114.273 60.2099 114.655 60.3458 115.052 60.3699C115.449 60.3939 115.845 60.3051 116.194 60.1138ZM110.992 55.3878V54.1638C110.992 53.7048 110.244 53.6878 110.261 54.1638V55.3878C110.261 55.8468 111.026 55.8638 110.992 55.3878ZM118.132 55.2858V54.1128C118.132 53.7218 117.367 53.6368 117.418 54.1128V55.2858C117.418 55.6768 118.183 55.7618 118.132 55.2858ZM109.581 59.6548C109.674 60.5606 109.915 61.445 110.295 62.2728C110.589 62.896 111.085 63.4023 111.701 63.7106C112.318 64.0188 113.02 64.1112 113.695 63.9728C114.426 63.8198 114.902 63.1738 115.395 62.6808C115.633 62.4445 115.925 62.2696 116.245 62.1708C115.016 62.2812 113.779 62.1122 112.625 61.6765C111.471 61.2408 110.43 60.5496 109.581 59.6548ZM82.84 62.7828C84.6782 60.8577 86.2765 58.7171 87.6 56.4078C86.5594 53.8218 86.1271 51.0313 86.3363 48.2517C86.5456 45.4721 87.3909 42.7778 88.807 40.3768C85.22 39.3398 82.16 38.4558 77.604 43.3008C72.402 48.8258 75.598 54.5718 76.176 58.6858C76.567 61.5078 75.683 64.8398 73.014 65.6388C75.088 68.1208 80.46 65.2988 82.84 62.7828Z" fill="black"/>
</svg>
