<svg width="340" height="340" viewBox="0 0 340 340" fill="none" xmlns="http://www.w3.org/2000/svg">
<path d="M75.9574 171.701C82.4684 166.261 90.2544 155.84 96.3574 144.501C97.3383 142.616 98.678 140.942 100.301 139.571C102.671 138.104 105.49 137.543 108.24 137.99C108.272 137.998 108.304 137.999 108.336 137.993C108.368 137.988 108.398 137.976 108.425 137.958C108.452 137.941 108.475 137.918 108.493 137.891C108.511 137.865 108.523 137.835 108.529 137.803C108.988 135.695 110.739 125.801 111.062 123.302C111.065 123.266 111.06 123.231 111.048 123.197C111.037 123.163 111.019 123.131 110.995 123.105C110.971 123.078 110.942 123.056 110.91 123.04C110.878 123.024 110.843 123.015 110.807 123.013C107.73 122.911 105.707 121.993 104.772 120.293C104.418 119.53 104.247 118.694 104.273 117.852C104.3 117.011 104.523 116.188 104.925 115.448C105.825 114.13 107.109 113.121 108.603 112.558C110.096 111.996 111.727 111.907 113.272 112.303C113.333 112.319 113.398 112.309 113.452 112.278C113.506 112.246 113.545 112.194 113.561 112.133C114.224 109.855 116.587 97.2581 116.825 93.9431C116.828 93.9052 116.823 93.867 116.809 93.8316C116.795 93.7961 116.774 93.7641 116.746 93.738C116.718 93.712 116.685 93.6924 116.649 93.6808C116.612 93.6692 116.574 93.6659 116.536 93.6711H116.315C112.949 93.3381 109.551 93.8331 106.419 95.1131C103.288 96.3931 100.516 98.4192 98.3464 101.015C93.9169 106.383 88.937 111.272 83.4884 115.601C74.1214 122.707 58.5664 125.121 46.8534 124.509C43.4534 124.322 39.8664 123.285 38.0644 126.668C36.0074 129.949 30.2444 139.996 30.1934 140.166C30.1799 140.204 30.1757 140.245 30.1811 140.286C30.1866 140.326 30.2016 140.364 30.2249 140.397C30.2482 140.431 30.2791 140.458 30.315 140.477C30.3509 140.496 30.3908 140.506 30.4314 140.506C32.7604 140.506 35.0894 141.016 35.9734 143.192C37.1294 146.048 37.0104 148.377 35.6164 150.128C34.6722 151.118 33.5117 151.875 32.2257 152.341C30.9398 152.807 29.5634 152.969 28.2044 152.814C27.3544 152.678 26.1134 152.1 25.3314 153.137C24.9914 153.579 21.9314 161.127 21.0474 163.337C20.1294 165.87 18.8544 171.837 18.8034 172.109C18.792 172.157 18.7956 172.207 18.8139 172.253C18.8322 172.298 18.8641 172.337 18.9054 172.364C36.5004 185.08 61.5244 183.278 75.9574 171.701ZM32.4884 138.381C33.8144 136.239 39.0334 127.79 39.2034 127.535C40.4444 125.019 42.9264 125.648 45.5444 125.835C62.6294 127.212 78.6604 122.333 89.5234 112.456C97.7344 105.146 102.035 94.8951 114.785 95.0141C114.377 97.7851 112.269 107.288 111.538 109.702C100.862 108.971 97.1224 121.449 108.546 124.084C108.155 126.311 107.118 133.315 106.846 135.491C104.162 135.545 101.543 136.326 99.268 137.751C96.9928 139.176 95.1467 141.192 93.9264 143.583C84.0324 159.614 76.7904 172.704 58.2264 177.039C39.9854 181.357 28.4424 175.781 20.4184 170.392C21.2174 167.774 25.8754 155.194 26.3684 154.225C26.5214 153.936 26.5724 153.919 26.7594 153.936C33.5594 155.211 38.6594 152.338 39.4074 145.062C39.7474 141.628 36.0244 138.874 32.4884 138.381Z" fill="#1C1C1C"/>
<path d="M47.3785 137.887C47.4972 137.99 47.6478 138.048 47.8047 138.052C47.9616 138.057 48.1151 138.006 48.2391 137.91C48.3632 137.814 48.4503 137.678 48.4855 137.525C48.5207 137.372 48.502 137.212 48.4325 137.071C47.5995 135.728 43.5195 130.9 42.4995 129.659C42.1255 129.183 41.3435 129.778 41.7005 130.271C42.6695 131.529 46.2905 136.714 47.3785 137.887ZM94.0265 130.577C95.5905 131.053 101.438 133.059 102.985 133.348C103.07 133.372 103.159 133.378 103.246 133.367C103.334 133.357 103.418 133.329 103.495 133.285C103.571 133.242 103.638 133.184 103.692 133.114C103.747 133.045 103.787 132.966 103.81 132.881C103.833 132.796 103.84 132.707 103.829 132.62C103.818 132.533 103.79 132.448 103.747 132.372C103.704 132.295 103.646 132.228 103.576 132.174C103.507 132.12 103.427 132.08 103.342 132.056C102.033 131.546 97.3585 130.458 94.2985 129.608C94.1783 129.595 94.0573 129.625 93.9571 129.692C93.8568 129.76 93.7839 129.861 93.7512 129.977C93.7185 130.094 93.7283 130.218 93.7787 130.328C93.8291 130.438 93.9169 130.526 94.0265 130.577ZM50.3365 83.3003C50.382 83.3376 50.4391 83.3579 50.498 83.3579C50.5568 83.3579 50.6139 83.3376 50.6595 83.3003C74.9015 58.4123 116.075 49.0623 148.545 60.9623C148.885 61.0813 148.307 61.4723 158.541 48.1613C158.562 48.1295 158.576 48.0936 158.583 48.056C158.589 48.0184 158.587 47.9799 158.577 47.9431C158.568 47.9062 158.551 47.8718 158.527 47.842C158.503 47.8123 158.473 47.7878 158.439 47.7703C156.739 46.8693 152.523 44.8633 151.486 43.1293C151.191 42.5532 151.037 41.9151 151.037 41.2678C151.037 40.6204 151.191 39.9823 151.486 39.4063C153.39 35.6153 161.958 36.2103 165.528 37.7063C165.783 37.8083 165.103 38.3863 177.428 25.7043C177.598 25.5173 177.428 25.2963 177.326 25.2793C177.224 25.2623 169.336 21.5223 165.426 20.0433C132.956 7.48028 95.1995 10.8633 66.8265 28.9003C65.2197 32.0962 63.8283 35.3959 62.6615 38.7773C58.0715 50.4563 58.1225 49.5723 58.2245 49.7933C58.9555 51.6633 58.9555 51.9523 59.2785 51.8333C60.0807 51.5518 60.9517 51.5336 61.765 51.7812C62.5783 52.0289 63.2913 52.5295 63.8005 53.2103C65.8065 55.8963 62.1005 59.1603 62.0155 59.1943C57.6465 62.9513 54.7905 62.1013 53.5155 63.5803C52.6995 64.3963 48.5175 80.8693 48.2795 81.6003C48.1775 81.8723 48.4325 81.9573 50.3365 83.3003ZM164.899 34.7143C157.487 33.2353 152.659 33.9833 150.534 36.9413C149.93 37.8861 149.569 38.9656 149.483 40.0838C149.397 41.2021 149.589 42.3242 150.041 43.3503C151.456 45.3605 153.397 46.9426 155.651 47.9233L147.899 57.8003C115.599 46.3593 74.5785 55.5733 50.0135 79.7303C54.6205 63.3593 53.8385 64.4303 55.4875 63.9713C56.8135 63.5973 68.4415 60.0953 67.7955 52.3943C67.7185 51.9051 67.5356 51.4387 67.2596 51.0276C66.9835 50.6165 66.6211 50.2707 66.1975 50.0143C65.2656 49.414 64.2221 49.0082 63.1295 48.8213C62.037 48.6343 60.9179 48.67 59.8395 48.9263C61.8795 43.8263 66.9115 31.2123 67.3535 30.2263C98.9565 10.2003 136.934 8.39828 174.419 25.0923C171.308 28.1693 167.925 31.6203 164.899 34.7143Z" fill="#1C1C1C"/>
<path d="M69.3938 33.6933C68.7818 33.4893 68.4928 34.4413 69.1048 34.6623C70.5158 35.1723 77.3838 37.9433 78.0638 37.9433C78.2163 37.9507 78.3667 37.9053 78.4895 37.8147C78.6123 37.7241 78.7002 37.5938 78.7381 37.446C78.7761 37.2981 78.7619 37.1417 78.6979 37.0031C78.6339 36.8646 78.524 36.7523 78.3868 36.6853C76.9588 36.0223 70.9748 34.2203 69.3938 33.6933ZM146.081 53.6853C146.21 53.6885 146.338 53.6537 146.447 53.5853C146.557 53.5169 146.645 53.4178 146.699 53.3004C146.753 53.1829 146.772 53.0521 146.753 52.9242C146.733 52.7963 146.677 52.6767 146.591 52.5803C145.707 51.5093 142.222 48.4153 139.791 46.1033C139.315 45.6613 138.618 46.3583 139.077 46.8173C141.593 49.3843 145.35 53.6853 146.081 53.6853ZM288.048 128.944C288.966 127.669 291.89 122.144 292.655 120.784C292.698 120.672 292.7 120.547 292.66 120.434C292.62 120.32 292.541 120.224 292.437 120.163C292.333 120.102 292.211 120.079 292.092 120.1C291.973 120.12 291.865 120.182 291.788 120.274C290.972 121.617 287.538 126.836 286.875 128.264C286.801 128.419 286.788 128.595 286.838 128.759C286.889 128.922 286.999 129.061 287.147 129.147C287.295 129.233 287.47 129.259 287.637 129.222C287.804 129.184 287.951 129.085 288.048 128.944ZM240.584 50.7273C240.631 50.8987 240.745 51.0442 240.899 51.1318C241.054 51.2195 241.237 51.2422 241.408 51.1948C241.58 51.1475 241.725 51.034 241.813 50.8794C241.901 50.7248 241.923 50.5417 241.876 50.3703C241.587 48.8233 239.513 42.8563 239.071 41.4113C239.02 41.3018 238.931 41.214 238.821 41.1636C238.712 41.1132 238.587 41.1034 238.471 41.1361C238.354 41.1688 238.253 41.2417 238.186 41.342C238.118 41.4422 238.089 41.5632 238.102 41.6833C238.51 43.1113 239.989 49.2993 240.584 50.7273ZM246.126 136.747C246.67 135.268 247.962 129.148 248.353 127.635C248.366 127.515 248.336 127.394 248.269 127.294C248.201 127.194 248.1 127.121 247.984 127.088C247.867 127.055 247.743 127.065 247.633 127.116C247.523 127.166 247.435 127.254 247.384 127.363C246.466 130.559 245.055 135.047 244.834 136.39C244.786 136.562 244.809 136.745 244.897 136.899C244.984 137.054 245.13 137.167 245.301 137.215C245.473 137.262 245.656 137.24 245.81 137.152C245.965 137.064 246.078 136.919 246.126 136.747ZM187.867 97.1713C188.046 95.3818 188.691 93.6704 189.737 92.2073C189.692 93.4499 190.117 94.6638 190.927 95.6073C191.748 96.5827 192.921 97.1938 194.191 97.3073C194.276 97.3073 194.359 97.2733 194.419 97.2127C194.48 97.1522 194.514 97.07 194.514 96.9843C194.514 96.8987 194.48 96.8165 194.419 96.7559C194.359 96.6954 194.276 96.6613 194.191 96.6613C192.967 96.3893 190.791 94.5363 191.454 90.5243C191.479 90.3865 191.461 90.2444 191.404 90.1166C191.347 89.9888 191.252 89.8812 191.133 89.8078C191.014 89.7344 190.875 89.6986 190.735 89.7051C190.595 89.7117 190.461 89.7602 190.349 89.8443C189.134 90.6103 188.167 91.7111 187.564 93.0141C186.961 94.3171 186.747 95.7667 186.949 97.1883C186.951 97.3101 187.002 97.4259 187.089 97.5104C187.177 97.5949 187.295 97.6411 187.416 97.6388C187.538 97.6366 187.654 97.5861 187.738 97.4984C187.823 97.4107 187.869 97.2931 187.867 97.1713ZM199.563 93.2103C199.478 93.1953 199.391 93.2099 199.316 93.2517C199.241 93.2934 199.182 93.3598 199.15 93.4397C199.118 93.5195 199.115 93.6079 199.14 93.69C199.166 93.7721 199.219 93.8428 199.291 93.8903C200.38 94.2902 201.562 94.3611 202.691 94.0943C203.762 93.4653 202.691 90.9663 202.946 88.3993C202.951 88.2995 202.921 88.2011 202.86 88.1213C202.8 88.0416 202.714 87.9857 202.616 87.9633C202.519 87.941 202.417 87.9537 202.328 87.9993C202.239 88.0448 202.169 88.1203 202.13 88.2123C201.927 89.8251 201.893 91.4545 202.028 93.0743C201.215 93.2214 200.387 93.267 199.563 93.2103ZM195.5 87.2263C196.053 86.9376 196.688 86.8419 197.302 86.9543C197.56 87.0043 197.804 87.109 198.018 87.2615C198.232 87.414 198.411 87.6107 198.543 87.8383C198.883 88.3823 199.818 88.0083 199.58 87.3623C199.428 87.0062 199.195 86.6903 198.9 86.4396C198.605 86.1888 198.256 86.01 197.88 85.9173C197.982 85.5943 198.475 83.8093 198.645 83.3503C198.676 83.2493 198.668 83.1403 198.622 83.0448C198.577 82.9493 198.498 82.874 198.401 82.8337C198.303 82.7934 198.194 82.7908 198.094 82.8267C197.995 82.8624 197.912 82.934 197.863 83.0273C197.659 83.5203 196.741 85.3053 196.52 85.8323C195.949 85.9708 195.415 86.2319 194.956 86.5973C194.582 86.9033 195.041 87.5153 195.5 87.2263ZM204.153 88.2803C205.054 88.2803 205.53 88.7223 205.411 89.5893C205.384 89.7223 205.411 89.8606 205.486 89.9738C205.561 90.087 205.677 90.1658 205.81 90.1928C205.943 90.2199 206.082 90.193 206.195 90.1181C206.308 90.0432 206.387 89.9263 206.414 89.7933C206.454 89.5305 206.44 89.2623 206.373 89.005C206.305 88.7478 206.186 88.507 206.023 88.2973L206.907 86.0023C206.963 85.8986 206.976 85.7768 206.943 85.6636C206.909 85.5504 206.832 85.4552 206.728 85.3988C206.625 85.3425 206.503 85.3296 206.39 85.3631C206.276 85.3966 206.181 85.4736 206.125 85.5773C206.125 85.7473 205.258 87.0223 204.952 87.6003C203.575 87.1923 203.609 88.2293 204.153 88.2803ZM195.67 82.6873C196.059 82.1805 196.623 81.837 197.251 81.7238C197.88 81.6106 198.529 81.736 199.07 82.0753C199.226 82.1501 199.405 82.1639 199.571 82.1139C199.737 82.0639 199.879 81.9538 199.968 81.8051C200.057 81.6563 200.088 81.4797 200.054 81.3096C200.02 81.1395 199.923 80.9882 199.784 80.8853C199.381 80.6477 198.933 80.4959 198.468 80.4393C198.003 80.3828 197.532 80.4228 197.084 80.5569C196.635 80.6909 196.219 80.9161 195.862 81.2184C195.505 81.5206 195.213 81.8934 195.007 82.3133C194.957 82.4013 194.945 82.5053 194.972 82.6025C194.999 82.6998 195.063 82.7822 195.151 82.8318C195.239 82.8814 195.343 82.8941 195.441 82.867C195.538 82.8399 195.62 82.7753 195.67 82.6873ZM288.745 69.8013C291.754 80.1203 291.227 90.9153 290.445 99.1773C290.463 99.2608 290.509 99.3356 290.576 99.3892C290.642 99.4428 290.725 99.4721 290.81 99.4721C290.896 99.4721 290.979 99.4428 291.045 99.3892C291.112 99.3356 291.158 99.2608 291.176 99.1773C294.219 80.4773 290.887 64.4633 281.809 53.9403C281.486 53.5493 280.925 54.0593 281.231 54.4503C284.71 59.0297 287.263 64.2442 288.745 69.8013ZM298.163 98.8203C300.747 94.5847 302.177 89.7465 302.311 84.7867C302.445 79.827 301.279 74.9185 298.928 70.5493C298.673 70.0223 297.874 70.5493 298.129 70.9743C300.053 75.3204 300.994 80.0375 300.885 84.7891C300.777 89.5408 299.621 94.2099 297.5 98.4633C297.452 98.5513 297.442 98.6544 297.471 98.75C297.499 98.8457 297.565 98.926 297.653 98.9733C297.741 99.0207 297.844 99.0312 297.94 99.0025C298.035 98.9738 298.115 98.9083 298.163 98.8203ZM172.227 9.09434C175.679 10.3648 178.763 12.4679 181.207 15.2171C183.651 17.9663 185.378 21.2763 186.235 24.8533C186.261 24.938 186.317 25.0106 186.392 25.058C186.466 25.1055 186.556 25.1249 186.644 25.1126C186.731 25.1004 186.812 25.0573 186.871 24.9911C186.93 24.925 186.964 24.84 186.966 24.7513C186.386 20.9036 184.713 17.3035 182.145 14.3799C179.577 11.4563 176.223 9.33249 172.482 8.26134C172.378 8.2482 172.274 8.27201 172.186 8.32857C172.099 8.38513 172.034 8.47079 172.003 8.57043C171.973 8.67008 171.979 8.7773 172.02 8.87316C172.06 8.96902 172.134 9.04736 172.227 9.09434ZM99.6538 90.4223C99.627 90.4714 99.6102 90.5254 99.6042 90.581C99.5983 90.6366 99.6033 90.6929 99.6191 90.7465C99.6349 90.8002 99.6611 90.8503 99.6962 90.8938C99.7314 90.9373 99.7747 90.9735 99.8238 91.0003C99.873 91.0271 99.9269 91.044 99.9825 91.0499C100.038 91.0559 100.094 91.0508 100.148 91.035C100.202 91.0193 100.252 90.9931 100.295 90.9579C100.339 90.9228 100.375 90.8795 100.402 90.8303C107.899 77.2303 128.571 79.4913 134.096 96.3553C134.125 96.4658 134.197 96.5601 134.296 96.6175C134.395 96.6749 134.512 96.6906 134.623 96.6613C134.733 96.632 134.828 96.56 134.885 96.4612C134.942 96.3624 134.958 96.2448 134.929 96.1343C131.087 79.5083 108.069 74.2723 99.6538 90.4223Z" fill="#1C1C1C"/>
<path d="M136.851 86.8517C136.453 84.6479 135.589 82.5543 134.319 80.71C133.049 78.8656 131.4 77.3129 129.483 76.1551C127.566 74.9972 125.425 74.2607 123.201 73.9946C120.978 73.7285 118.723 73.9388 116.587 74.6117C116.481 74.641 116.391 74.7112 116.337 74.8068C116.283 74.9024 116.269 75.0157 116.298 75.1217C116.327 75.2276 116.398 75.3176 116.493 75.3718C116.589 75.426 116.702 75.44 116.808 75.4107C120.89 74.5189 125.159 75.2304 128.732 77.3979C132.304 79.5654 134.907 83.023 136.001 87.0557C136.028 87.1684 136.099 87.2657 136.198 87.3263C136.296 87.3869 136.415 87.4057 136.528 87.3787C136.641 87.3516 136.738 87.2809 136.799 87.1821C136.859 87.0832 136.878 86.9644 136.851 86.8517ZM278.104 324.478C276.574 323.322 275.86 321.214 273.803 320.568C271.746 319.922 269.638 320.823 267.649 321.129C265.235 321.554 263.246 320.109 260.611 320.67C259.384 321.001 258.134 321.24 256.871 321.384C254.34 321.37 251.813 321.188 249.306 320.84C238.834 320.024 232.136 327.487 223.415 329.238C223.306 329.279 223.214 329.357 223.155 329.458C223.096 329.559 223.074 329.677 223.092 329.793C223.11 329.908 223.167 330.014 223.254 330.092C223.34 330.171 223.451 330.217 223.568 330.224C235.468 329.153 240.568 327.98 251.958 329.612C255.321 330.226 258.747 330.42 262.158 330.19C262.262 330.19 262.361 330.148 262.434 330.075C262.508 330.002 262.549 329.902 262.549 329.799C262.549 329.695 262.508 329.596 262.434 329.522C262.361 329.449 262.262 329.408 262.158 329.408C252.944 330.037 250.887 326.008 228.311 328.575C234.482 326.11 240.415 322.336 247.13 321.775C251.652 321.486 254.219 323.152 259.795 322.047C261.305 321.605 262.909 321.605 264.419 322.047C266.082 322.548 267.856 322.548 269.519 322.047C275.605 320.755 273.939 323.356 278.58 326.144C280.195 327.096 282.099 327.844 282.626 329.748C282.675 329.848 282.758 329.927 282.859 329.972C282.961 330.018 283.076 330.026 283.183 329.996C283.29 329.965 283.383 329.898 283.446 329.806C283.509 329.715 283.538 329.604 283.527 329.493C282.796 326.892 279.872 325.872 278.104 324.478ZM46.632 316.93C57.699 314.108 67.032 319.82 79.561 313.887C81.924 313.003 85.579 309.722 87.84 310.81C88.537 311.15 88.775 311.881 89.234 312.51C89.7253 313.234 90.3836 313.83 91.1533 314.246C91.9231 314.663 92.7817 314.888 93.6568 314.903C94.5319 314.918 95.3978 314.722 96.1813 314.332C96.9649 313.942 97.6432 313.37 98.159 312.663C98.9243 311.202 99.3431 309.585 99.383 307.937C99.944 305.132 102.783 303.585 105.384 303.279C113.034 302.582 119.664 310.878 127.637 307.716C127.741 307.679 127.833 307.614 127.902 307.529C127.971 307.443 128.016 307.34 128.03 307.231C128.044 307.121 128.027 307.01 127.982 306.91C127.937 306.809 127.864 306.723 127.773 306.662C126.073 305.421 126.379 302.956 126.838 300.933C127.79 296.53 129.575 291.515 134.845 291.906C140.115 292.297 146.745 295.969 145.283 301.477C145.255 301.569 145.247 301.667 145.259 301.763C145.27 301.859 145.302 301.952 145.352 302.035C145.401 302.118 145.468 302.19 145.547 302.246C145.625 302.302 145.715 302.341 145.81 302.361C146.793 302.522 147.714 302.944 148.477 303.585C149.24 304.225 149.816 305.059 150.145 305.999C150.961 308.311 149.516 310.538 149.822 312.799C150.74 320.058 161.314 316.998 164.187 322.149C164.459 322.659 165.241 322.149 164.986 321.707C162.946 317.729 157.948 318.018 154.531 316.437C149.584 314.142 151.522 310.878 151.794 308.379C151.932 306.788 151.515 305.199 150.613 303.881C149.711 302.564 148.38 301.6 146.847 301.154C147.833 295.357 141.747 291.396 136.018 290.631C130.289 289.866 127.059 292.909 125.546 300.253C124.849 303.296 125.121 305.54 126.345 307.053C119.46 309.008 113.901 302.599 107.101 302.089C103.021 301.766 98.601 303.976 98.142 308.294C98.1261 309.196 98.0293 310.095 97.853 310.98C97.6513 311.707 97.2578 312.367 96.7138 312.891C96.1697 313.415 95.4951 313.782 94.7602 313.956C94.0254 314.13 93.2574 314.103 92.5365 313.878C91.8156 313.654 91.1682 313.24 90.662 312.68C89.557 311.422 89.217 306.849 82.162 311.15C68.562 319.429 59.518 313.207 48.587 315.349C44.745 316.131 40.563 318.324 36.687 316.692C36.6225 316.659 36.5519 316.64 36.4797 316.636C36.4075 316.631 36.3352 316.642 36.2673 316.667C36.1994 316.692 36.1374 316.731 36.0851 316.781C36.0327 316.83 35.9912 316.891 35.9632 316.957C35.9351 317.024 35.9211 317.096 35.9219 317.168C35.9228 317.24 35.9385 317.312 35.9681 317.378C35.9977 317.444 36.0406 317.503 36.0941 317.551C36.1476 317.6 36.2106 317.637 36.279 317.661C39.679 318.97 43.181 317.797 46.632 316.93Z" fill="#1C1C1C"/>
<path d="M171.141 326.264C159.462 328.117 147.477 330.361 135.815 328.746C129.678 327.42 131.157 324.02 129.389 321.589C128.862 320.928 128.152 320.437 127.348 320.177C126.544 319.917 125.681 319.9 124.867 320.127C122.981 320.75 121.244 321.758 119.767 323.085C111.777 328.865 102.087 319.175 87.1776 322.405C81.0236 323.748 80.8876 324.836 70.6706 324.343C60.9871 323.744 51.2762 324.937 42.0256 327.862C41.9287 327.889 41.8464 327.954 41.797 328.041C41.7476 328.129 41.735 328.233 41.7621 328.33C41.7891 328.427 41.8536 328.509 41.9413 328.558C42.0289 328.608 42.1327 328.62 42.2296 328.593C58.5836 323.816 70.6366 326.247 77.3686 325.805C82.0946 325.55 86.4636 323.595 91.1046 323.221C100.727 322.286 110.23 327.743 117.353 325.584C121.093 324.445 123.949 319.77 127.723 321.759C129.185 322.728 129.083 324.938 129.95 326.519C135.526 334.9 161.587 328.576 171.345 327.131C171.402 327.118 171.455 327.093 171.503 327.059C171.55 327.025 171.59 326.982 171.621 326.932C171.652 326.882 171.673 326.827 171.682 326.769C171.692 326.712 171.689 326.653 171.676 326.596C171.663 326.539 171.638 326.485 171.604 326.438C171.57 326.39 171.527 326.35 171.477 326.319C171.427 326.288 171.372 326.268 171.314 326.258C171.257 326.249 171.198 326.251 171.141 326.264ZM105.402 247.911C104.603 247.078 103.702 251.226 91.8016 253.759C82.9226 255.659 73.7047 255.251 65.0287 252.572C56.3528 249.893 48.5088 245.034 42.2466 238.459C41.9576 238.119 41.4476 238.578 41.7536 238.918C46.6255 244.391 52.5979 248.773 59.28 251.779C65.9622 254.785 73.2036 256.346 80.5306 256.36C88.5716 256.36 99.7066 254.116 105.453 248.421C105.489 248.387 105.517 248.345 105.534 248.299C105.551 248.253 105.558 248.203 105.553 248.154C105.548 248.104 105.532 248.057 105.505 248.015C105.479 247.973 105.444 247.937 105.402 247.911ZM99.6216 259.063C83.8966 272.833 60.5216 267.801 45.2216 256.241C44.7966 255.918 44.3036 256.615 44.7456 256.938C65.9616 273.564 88.4016 271.235 100.166 259.692C100.642 259.301 100.047 258.689 99.6216 259.063ZM71.9796 37.2132C71.5828 37.2132 71.2023 37.3708 70.9218 37.6513C70.6412 37.9319 70.4836 38.3124 70.4836 38.7092C70.4836 39.1059 70.6412 39.4864 70.9218 39.767C71.2023 40.0475 71.5828 40.2052 71.9796 40.2052C72.3764 40.2052 72.7569 40.0475 73.0374 39.767C73.318 39.4864 73.4756 39.1059 73.4756 38.7092C73.4756 38.3124 73.318 37.9319 73.0374 37.6513C72.7569 37.3708 72.3764 37.2132 71.9796 37.2132ZM76.3146 34.5102C76.6817 34.4709 77.0213 34.2972 77.2681 34.0226C77.5148 33.748 77.6513 33.3918 77.6513 33.0227C77.6513 32.6535 77.5148 32.2973 77.2681 32.0227C77.0213 31.7481 76.6817 31.5745 76.3146 31.5352C75.9475 31.5745 75.6079 31.7481 75.3611 32.0227C75.1144 32.2973 74.9778 32.6535 74.9778 33.0227C74.9778 33.3918 75.1144 33.748 75.3611 34.0226C75.6079 34.2972 75.9475 34.4709 76.3146 34.5102ZM145.964 49.6912C146.331 49.6519 146.67 49.4782 146.917 49.2036C147.164 48.929 147.3 48.5728 147.3 48.2037C147.3 47.8345 147.164 47.4783 146.917 47.2037C146.67 46.9291 146.331 46.7555 145.964 46.7162C145.597 46.7555 145.257 46.9291 145.01 47.2037C144.763 47.4783 144.627 47.8345 144.627 48.2037C144.627 48.5728 144.763 48.929 145.01 49.2036C145.257 49.4782 145.597 49.6519 145.964 49.6912ZM140.337 53.0742C140.733 53.0742 141.114 52.9165 141.394 52.636C141.675 52.3554 141.833 51.9749 141.833 51.5782C141.833 51.1814 141.675 50.8009 141.394 50.5203C141.114 50.2398 140.733 50.0822 140.337 50.0822C139.94 50.0822 139.559 50.2398 139.279 50.5203C138.998 50.8009 138.841 51.1814 138.841 51.5782C138.841 51.9749 138.998 52.3554 139.279 52.636C139.559 52.9165 139.94 53.0742 140.337 53.0742ZM41.8046 136.816C42.2014 136.816 42.5819 136.659 42.8624 136.378C43.143 136.097 43.3006 135.717 43.3006 135.32C43.3006 134.923 43.143 134.543 42.8624 134.262C42.5819 133.982 42.2014 133.824 41.8046 133.824C41.4078 133.824 41.0273 133.982 40.7468 134.262C40.4662 134.543 40.3086 134.923 40.3086 135.32C40.3086 135.717 40.4662 136.097 40.7468 136.378C41.0273 136.659 41.4078 136.816 41.8046 136.816ZM48.3326 133.977C48.6997 133.938 49.0393 133.764 49.2861 133.49C49.5328 133.215 49.6693 132.859 49.6693 132.49C49.6693 132.12 49.5328 131.764 49.2861 131.49C49.0393 131.215 48.6997 131.041 48.3326 131.002C47.9655 131.041 47.6259 131.215 47.3791 131.49C47.1324 131.764 46.9958 132.12 46.9958 132.49C46.9958 132.859 47.1324 133.215 47.3791 133.49C47.6259 133.764 47.9655 133.938 48.3326 133.977ZM96.4256 132.6C96.0585 132.639 95.7189 132.813 95.4721 133.088C95.2254 133.362 95.0888 133.718 95.0888 134.088C95.0888 134.457 95.2254 134.813 95.4721 135.088C95.7189 135.362 96.0585 135.536 96.4256 135.575C96.7927 135.536 97.1323 135.362 97.3791 135.088C97.6258 134.813 97.7623 134.457 97.7623 134.088C97.7623 133.718 97.6258 133.362 97.3791 133.088C97.1323 132.813 96.7927 132.639 96.4256 132.6ZM100.965 130.254C101.332 130.215 101.671 130.041 101.918 129.767C102.165 129.492 102.301 129.136 102.301 128.767C102.301 128.397 102.165 128.041 101.918 127.767C101.671 127.492 101.332 127.318 100.965 127.279C100.598 127.318 100.258 127.492 100.011 127.767C99.7644 128.041 99.6278 128.397 99.6278 128.767C99.6278 129.136 99.7644 129.492 100.011 129.767C100.258 130.041 100.598 130.215 100.965 130.254ZM236.302 49.3002C236.669 49.2609 237.008 49.0872 237.255 48.8126C237.502 48.538 237.638 48.1818 237.638 47.8127C237.638 47.4435 237.502 47.0873 237.255 46.8127C237.008 46.5381 236.669 46.3645 236.302 46.3252C235.935 46.3645 235.595 46.5381 235.348 46.8127C235.101 47.0873 234.965 47.4435 234.965 47.8127C234.965 48.1818 235.101 48.538 235.348 48.8126C235.595 49.0872 235.935 49.2609 236.302 49.3002ZM243.425 45.7132C243.821 45.7132 244.202 45.5555 244.482 45.275C244.763 44.9944 244.921 44.6139 244.921 44.2172C244.921 43.8204 244.763 43.4399 244.482 43.1593C244.202 42.8788 243.821 42.7212 243.425 42.7212C243.028 42.7212 242.647 42.8788 242.367 43.1593C242.086 43.4399 241.929 43.8204 241.929 44.2172C241.929 44.6139 242.086 44.9944 242.367 45.275C242.647 45.5555 243.028 45.7132 243.425 45.7132ZM249.902 136.34C250.269 136.301 250.608 136.127 250.855 135.853C251.102 135.578 251.238 135.222 251.238 134.853C251.238 134.483 251.102 134.127 250.855 133.853C250.608 133.578 250.269 133.404 249.902 133.365C249.535 133.404 249.195 133.578 248.948 133.853C248.701 134.127 248.565 134.483 248.565 134.853C248.565 135.222 248.701 135.578 248.948 135.853C249.195 136.127 249.535 136.301 249.902 136.34ZM243.816 131.427C244.183 131.388 244.522 131.214 244.769 130.94C245.016 130.665 245.152 130.309 245.152 129.94C245.152 129.57 245.016 129.214 244.769 128.94C244.522 128.665 244.183 128.491 243.816 128.452C243.448 128.491 243.109 128.665 242.862 128.94C242.615 129.214 242.479 129.57 242.479 129.94C242.479 130.309 242.615 130.665 242.862 130.94C243.109 131.214 243.448 131.388 243.816 131.427ZM287.591 122.757C287.987 122.757 288.368 122.6 288.648 122.319C288.929 122.038 289.087 121.658 289.087 121.261C289.087 120.864 288.929 120.484 288.648 120.203C288.368 119.923 287.987 119.765 287.591 119.765C287.194 119.765 286.813 119.923 286.533 120.203C286.252 120.484 286.095 120.864 286.095 121.261C286.095 121.658 286.252 122.038 286.533 122.319C286.813 122.6 287.194 122.757 287.591 122.757ZM292.657 126.225C292.29 126.264 291.95 126.438 291.703 126.713C291.456 126.987 291.32 127.343 291.32 127.713C291.32 128.082 291.456 128.438 291.703 128.713C291.95 128.987 292.29 129.161 292.657 129.2C293.024 129.161 293.363 128.987 293.61 128.713C293.857 128.438 293.993 128.082 293.993 127.713C293.993 127.343 293.857 126.987 293.61 126.713C293.363 126.438 293.024 126.264 292.657 126.225ZM285.075 151.708C283.375 152.643 282.049 157.896 284.259 158.593C284.553 158.737 284.883 158.793 285.209 158.754C285.535 158.715 285.843 158.582 286.095 158.372C286.803 157.677 287.32 156.812 287.597 155.859C287.874 154.906 287.901 153.898 287.676 152.932C287.597 152.673 287.464 152.433 287.287 152.228C287.11 152.024 286.892 151.858 286.647 151.743C286.402 151.628 286.135 151.565 285.864 151.559C285.594 151.553 285.325 151.604 285.075 151.708Z" fill="#1C1C1C"/>
<path d="M293.049 153.492C291.621 140.929 280.384 133.517 268.909 139.144C268.263 139.467 269.963 141.371 272.309 156.331C274.621 157.623 279.109 156.45 277.919 152.829C277.834 152.574 277.613 151.877 275.624 152.013C275.454 152.014 275.288 151.964 275.147 151.87C275.005 151.775 274.896 151.641 274.832 151.483C274.768 151.326 274.752 151.153 274.787 150.987C274.823 150.821 274.907 150.669 275.029 150.551C275.352 150.296 275.862 149.922 276.355 149.582C275.216 149.276 273.465 148.834 272.802 148.715C272.631 148.692 272.475 148.603 272.37 148.466C272.265 148.328 272.219 148.155 272.241 147.984C272.264 147.812 272.353 147.657 272.49 147.552C272.627 147.447 272.801 147.4 272.972 147.423C273.992 147.542 277.851 148.358 278.837 148.613C278.995 148.659 279.137 148.75 279.243 148.876C279.349 149.002 279.415 149.157 279.433 149.321C279.452 149.485 279.421 149.65 279.345 149.797C279.269 149.943 279.151 150.063 279.007 150.143L278.089 150.67C280.061 151.724 280.231 154.886 279.041 156.688C277.851 158.49 274.689 158.864 272.615 158.388C273.992 167.5 273.839 170.033 274.162 170.135C286.028 173.841 294.817 165.579 293.049 153.492ZM288.612 157.674C288.436 158.177 288.151 158.636 287.778 159.017C287.404 159.397 286.951 159.691 286.45 159.876C285.95 160.061 285.415 160.133 284.884 160.088C284.352 160.042 283.837 159.88 283.376 159.612C281.421 158.49 281.676 155.855 281.948 154.512C283.206 146.709 291.91 149.973 288.612 157.674ZM241.08 160.649C238.241 161.924 240.485 170.73 243.579 169.914C244.045 169.747 244.461 169.464 244.788 169.093C245.115 168.721 245.343 168.272 245.449 167.789C245.959 166.072 245.551 158.762 241.08 160.649Z" fill="#1C1C1C"/>
<path d="M248.592 152.829C246.844 151.167 244.766 149.891 242.493 149.084C240.22 148.277 237.803 147.957 235.399 148.144C232.994 148.332 230.656 149.023 228.536 150.173C226.415 151.322 224.561 152.905 223.092 154.818C220.942 157.418 219.573 160.574 219.144 163.92C218.715 167.266 219.242 170.665 220.666 173.723C222.089 176.782 224.35 179.374 227.186 181.2C230.023 183.026 233.318 184.011 236.692 184.041C252.757 184.041 260.764 163.981 248.592 152.829ZM236.114 168.826C235.975 169.731 235.618 170.589 235.072 171.324C234.526 172.06 233.808 172.65 232.982 173.044C232.155 173.438 231.244 173.624 230.329 173.585C229.414 173.546 228.523 173.284 227.733 172.821C227.567 172.709 227.446 172.543 227.39 172.351C227.335 172.159 227.349 171.953 227.43 171.771C227.512 171.588 227.655 171.44 227.834 171.352C228.014 171.264 228.219 171.243 228.413 171.291C229.037 171.553 229.707 171.688 230.385 171.688C231.062 171.688 231.732 171.553 232.357 171.291C235.23 169.914 234.907 166.344 232.85 165.664C231.402 165.42 229.915 165.729 228.685 166.531C228.559 166.6 228.417 166.636 228.274 166.636C228.13 166.636 227.989 166.599 227.863 166.53C227.738 166.46 227.632 166.36 227.555 166.238C227.479 166.116 227.435 165.977 227.427 165.834C227.245 164.708 227.126 163.573 227.07 162.434C227.07 160.207 229.943 161.465 233.87 159.85C234.015 159.804 234.172 159.813 234.311 159.877C234.45 159.94 234.559 160.054 234.619 160.194C234.679 160.334 234.684 160.492 234.633 160.636C234.582 160.78 234.48 160.9 234.346 160.972C232.53 161.722 230.645 162.291 228.719 162.672C228.719 163.25 228.855 163.981 228.94 164.593C230.382 163.843 232.061 163.69 233.615 164.168C234.462 164.59 235.158 165.265 235.605 166.099C236.053 166.934 236.23 167.886 236.114 168.826ZM247.317 165.902C246.705 171.801 242.659 172.583 240.296 169.999C237.661 167.092 237.168 160.054 241.282 158.898C241.948 158.659 242.665 158.598 243.363 158.72C244.06 158.842 244.714 159.144 245.26 159.595C247.215 161.261 247.436 164.797 247.317 165.902ZM101.406 32.707C98.6006 32.707 96.6456 35.053 99.7056 35.92C100.216 36.107 104.534 37.62 105.758 35.529C106.54 33.863 103.293 32.707 101.406 32.707Z" fill="#1C1C1C"/>
<path d="M119.87 34.4595C118.969 29.3595 106.593 27.2175 98.688 28.3225C88.148 29.8015 78.679 39.9505 89.236 46.4275C98.603 52.2075 121.06 41.3615 119.87 34.4595ZM106.831 42.0245C105.913 42.2455 97.6 41.8545 96.631 41.8205C96.4596 41.8205 96.2953 41.7525 96.1742 41.6313C96.053 41.5102 95.985 41.3459 95.985 41.1745C95.985 41.0032 96.053 40.8389 96.1742 40.7177C96.2953 40.5966 96.4596 40.5285 96.631 40.5285C98.756 40.5285 105.947 40.3075 106.831 40.5285C106.983 40.5857 107.114 40.6879 107.207 40.8216C107.299 40.9552 107.349 41.114 107.349 41.2765C107.349 41.4391 107.299 41.5978 107.207 41.7315C107.114 41.8652 106.983 41.9674 106.831 42.0245ZM101.493 38.0465C99.793 37.8255 97.685 37.4855 96.733 35.8025C95.475 33.0995 98.96 29.8185 104.587 31.8075C109.109 33.3885 108.378 38.9305 101.493 38.0465ZM78.764 141.645C78.4477 139.568 77.4908 137.643 76.027 136.137C71.063 131.224 57.327 133.978 52.958 141.934C51.8872 143.518 51.1862 145.323 50.9066 147.215C50.6271 149.107 50.7762 151.038 51.343 152.865C53.264 158.288 58.143 161.042 64.297 159.665C74.803 158.101 80.396 149.278 78.764 141.645ZM68.445 151.42C67.1836 151.258 65.9343 151.014 64.705 150.689V154.089C64.6616 154.309 64.5429 154.508 64.3692 154.65C64.1956 154.793 63.9777 154.871 63.753 154.871C63.362 154.871 63.311 154.871 59.418 152.406C59.2815 152.318 59.184 152.182 59.1457 152.024C59.1074 151.867 59.1313 151.701 59.2123 151.561C59.2934 151.421 59.4254 151.317 59.5808 151.272C59.7363 151.226 59.9033 151.243 60.047 151.318L63.022 152.814V150.213L61.458 149.737C61.2818 149.666 61.1383 149.532 61.0552 149.361C60.9721 149.191 60.9554 148.995 61.0084 148.813C61.0614 148.631 61.1803 148.475 61.3419 148.375C61.5035 148.276 61.6964 148.24 61.883 148.275C62.954 148.598 67.578 149.533 68.683 149.839C68.8926 149.87 69.0811 149.984 69.2071 150.154C69.333 150.325 69.386 150.538 69.3545 150.748C69.3229 150.958 69.2093 151.146 69.0388 151.272C68.8682 151.398 68.6546 151.451 68.445 151.42ZM69.125 144.943C68.1629 145.477 67.0805 145.757 65.98 145.757C64.8794 145.757 63.797 145.477 62.835 144.943C62.1798 144.578 61.6852 143.981 61.4491 143.27C61.213 142.558 61.2526 141.784 61.56 141.101C63.277 137.48 73.341 141.101 69.125 144.943Z" fill="#1C1C1C"/>
<path d="M63.3418 141.253C63.1812 141.347 63.0434 141.476 62.9384 141.629C62.8333 141.783 62.7637 141.958 62.7344 142.141C62.7051 142.325 62.717 142.513 62.7691 142.692C62.8212 142.87 62.9123 143.035 63.0358 143.174C64.0558 144.432 68.3738 144.874 68.6798 143.174C68.9858 141.474 64.6848 140.556 63.3418 141.253ZM248.71 79.5604C247.979 79.6964 247.69 80.5464 247.877 82.0764C248.268 85.1704 250.801 86.5814 251.498 85.0854C252.416 83.0624 251.277 79.2544 248.71 79.5604Z" fill="#1C1C1C"/>
<path d="M259.185 82.2956C258.182 74.3566 248.254 68.1856 240.315 71.7556C237.159 73.2856 234.717 75.9755 233.497 79.2636C232.278 82.5517 232.375 86.1839 233.77 89.4016C240.604 103.427 261.072 97.3406 259.185 82.2956ZM245.381 88.6366C241.981 89.5036 240.502 90.8466 239.499 89.8436C238.496 88.8406 239.669 86.9706 240.417 85.7976C241.454 84.1826 242.015 83.1286 241.131 82.0236C240.996 81.8819 240.822 81.7836 240.631 81.741C240.44 81.6985 240.241 81.7138 240.059 81.7849C239.876 81.8559 239.719 81.9796 239.608 82.1402C239.496 82.3008 239.434 82.491 239.431 82.6866C239.431 82.8625 239.361 83.0311 239.237 83.1554C239.113 83.2798 238.944 83.3496 238.768 83.3496C238.592 83.3496 238.424 83.2798 238.299 83.1554C238.175 83.0311 238.105 82.8625 238.105 82.6866C238.084 82.3375 238.142 81.9881 238.274 81.6643C238.407 81.3406 238.61 81.0509 238.87 80.8166C239.262 80.4793 239.746 80.2658 240.259 80.203C240.773 80.1402 241.293 80.2309 241.755 80.4637C242.217 80.6965 242.6 81.0609 242.855 81.511C243.11 81.9611 243.226 82.4767 243.188 82.9926C243.188 85.2026 241.488 86.5966 240.961 88.3136C242.285 87.6872 243.704 87.285 245.16 87.1236C245.361 87.0943 245.565 87.1459 245.727 87.2671C245.89 87.3882 245.998 87.569 246.027 87.7696C246.056 87.9703 246.005 88.1743 245.884 88.3369C245.763 88.4995 245.582 88.6073 245.381 88.6366ZM252.997 85.8316C251.96 88.7386 246.707 87.3276 246.299 81.6836C246.044 79.8646 246.962 77.9606 248.815 77.9606C252.453 77.9436 254.204 82.5506 252.997 85.8316Z" fill="#1C1C1C"/>
<path d="M320.943 277.916C319.532 277.916 274.193 278.341 260.287 278.494L237.575 266.305C251.175 265.71 289.714 264.435 297.177 264.231C297.313 264.231 297.585 264.231 304.555 255.986C304.691 255.816 304.402 257.907 308.822 202.674C308.822 202.572 308.907 202.538 308.601 202.436C307.938 202.232 305.507 201.79 296.803 200.056C304.419 165.444 303.059 114.682 301.563 114.138C299.302 113.322 281.52 110.058 281.401 110.041C280.993 110.041 281.18 110.636 279.412 112.693C278.392 84.864 273.921 64.668 254.881 45.713C244.681 35.513 242.573 34.918 237.099 34.918C232.179 36.8317 227.371 39.0226 222.7 41.48C222.673 41.5053 222.652 41.5357 222.638 41.5693C222.624 41.6029 222.617 41.639 222.617 41.6755C222.617 41.7119 222.624 41.7481 222.638 41.7816C222.652 41.8152 222.673 41.8456 222.7 41.871C224.808 44.455 225.454 46.699 224.62 48.552C224.073 49.4587 223.331 50.2334 222.45 50.8211C221.568 51.4087 220.568 51.7949 219.521 51.952C216.318 52.059 213.197 50.9333 210.8 48.807C209.865 48.025 209.1 48.433 208.046 48.994C207.714 48.7967 207.367 48.6261 207.009 48.484C205.745 47.0688 204.06 46.0968 202.202 45.7112C200.345 45.3255 198.412 45.5467 196.69 46.342C191.794 43.299 186.66 47.651 185.3 49.266C184.58 48.64 183.719 48.1979 182.791 47.9776C181.863 47.7572 180.895 47.7653 179.971 48.0009C179.047 48.2366 178.193 48.6929 177.484 49.3307C176.775 49.9685 176.231 50.7688 175.898 51.663C175.115 51.5184 174.307 51.5648 173.545 51.7982C172.783 52.0315 172.088 52.445 171.52 53.0036C170.951 53.5622 170.525 54.2495 170.278 55.0075C170.032 55.7654 169.971 56.5716 170.102 57.358C169.119 57.8875 168.371 58.7666 168.006 59.8213C167.641 60.8759 167.685 62.0293 168.13 63.053C167.76 63.1841 167.425 63.3977 167.15 63.6775C166.876 63.9573 166.668 64.2959 166.544 64.6678C166.419 65.0396 166.381 65.4349 166.432 65.8238C166.483 66.2126 166.621 66.5847 166.838 66.912C166.101 67.5818 165.554 68.4342 165.252 69.383C164.95 70.3318 164.903 71.3435 165.117 72.316C165.331 73.2885 165.797 74.1874 166.47 74.922C167.142 75.6566 167.996 76.2009 168.945 76.5C168.197 77.2852 167.636 78.2304 167.306 79.2641C166.976 80.2979 166.886 81.3931 167.042 82.467C163.195 82.4499 159.379 83.1474 155.788 84.524C154.297 84.9368 152.947 85.7487 151.883 86.8721C150.82 87.9955 150.083 89.3878 149.753 90.899C149.328 92.004 149.09 92.293 142.12 100.827C142.027 100.959 141.977 101.116 141.977 101.277C141.977 101.439 142.027 101.596 142.12 101.728C142.537 102.585 143.119 103.351 143.834 103.981C144.549 104.611 145.382 105.094 146.285 105.4C134.385 114.937 120.36 133.892 115.277 142.63C113.118 146.183 110.976 150.722 112.387 155.431C101.541 170.595 93.4485 194.667 93.0235 213.129C86.6315 212.738 57.9525 207.757 51.4075 205.683C51.2545 205.683 51.1865 205.683 51.0505 205.921C50.9145 206.159 50.6935 206.686 50.2515 207.621C49.6905 207.281 48.3475 206.448 47.7355 206.04C47.3105 205.122 43.7065 200.838 41.9895 201.093C41.7755 201.137 41.5729 201.224 41.3945 201.35C41.216 201.476 41.0655 201.637 40.9525 201.824C38.0808 205.392 35.4078 209.114 32.9455 212.976C31.3392 215.882 30.3224 219.077 29.9535 222.377C29.9488 222.475 29.9644 222.573 29.9992 222.665C30.0341 222.756 30.0875 222.84 30.156 222.91C30.2246 222.98 30.307 223.036 30.3979 223.073C30.4888 223.11 30.5864 223.127 30.6845 223.125C34.7135 223.125 40.0855 222.19 42.8735 218.229C43.5025 218.467 44.4375 218.892 44.8455 219.079C42.6355 223.737 42.6695 223.516 42.8565 223.686C59.1935 238.68 81.9565 247.741 98.0045 245.786C105.369 244.936 112.369 242.12 118.27 237.634C124.172 233.147 128.757 227.155 131.546 220.286C131.852 219.232 136.085 207.06 138.431 202.283C138.816 201.198 139.492 200.239 140.386 199.512C141.202 199.019 146.693 195.823 150.739 193.885C154.785 191.947 155.992 195.84 152.541 197.472C148.801 199.172 143.072 202.266 142.731 202.572C142.392 202.878 136.034 221.578 136.153 221.782C139.997 227.636 144.216 233.235 148.784 238.544C149.26 244.936 152.184 268.668 153.884 279.701C107.083 280.024 33.2855 280.602 24.3945 280.976C24.29 280.996 24.1958 281.052 24.1282 281.135C24.0605 281.217 24.0234 281.32 24.0234 281.426C24.0234 281.533 24.0605 281.636 24.1282 281.718C24.1958 281.8 24.29 281.857 24.3945 281.877C25.4145 281.877 113.56 281.367 154.07 280.993C154.529 284.036 154.513 284.019 154.683 284.104C156.624 285.022 158.666 285.707 160.769 286.144C160.858 287.705 161.191 289.242 161.755 290.7C161.381 292.06 160.055 299.098 160.65 299.727C161.245 300.356 167.586 300.067 168.47 300.016C167.586 300.866 166.94 301.512 166.583 301.869C166.246 301.875 165.915 301.956 165.614 302.107C165.393 302.226 165.07 302.6 165.138 306.782C165.138 306.922 165.193 307.056 165.292 307.155C165.391 307.253 165.525 307.309 165.665 307.309H166.923L167.993 308.737C166.832 309.999 165.975 311.51 165.489 313.154C165.003 314.799 164.9 316.533 165.189 318.223C166.481 323.765 172.618 326.723 177.548 325.975C188.122 324.445 188.768 309.961 179.35 307.275C179.146 307.275 179.146 307.275 178.347 308.142C178.315 308.174 178.293 308.214 178.282 308.257C178.271 308.3 178.271 308.346 178.284 308.389C178.296 308.432 178.319 308.471 178.351 308.502C178.383 308.533 178.422 308.556 178.465 308.567C179.829 308.967 181.05 309.747 181.987 310.816C182.923 311.884 183.535 313.198 183.753 314.602C184.133 316.201 183.982 317.881 183.323 319.387C182.663 320.894 181.531 322.144 180.098 322.949C179.299 323.476 178.517 322.677 179.35 322.065L179.792 321.759C181.169 320.824 183.056 319.532 182.495 314.789C182.401 313.586 181.927 312.443 181.142 311.526C180.356 310.61 179.3 309.966 178.126 309.689C177.769 309.587 177.786 309.944 177.463 311.389C177.453 311.447 177.463 311.507 177.491 311.559C177.518 311.611 177.562 311.653 177.616 311.678C178.443 312.025 179.139 312.625 179.606 313.391C180.073 314.157 180.287 315.051 180.217 315.945C179.877 320.841 173.417 322.745 170.935 318.784C170.436 317.957 170.217 316.992 170.309 316.031C170.401 315.07 170.799 314.164 171.445 313.446L172.227 314.619C170.747 317.271 174.029 320.433 176.681 319.175C177.291 318.859 177.791 318.366 178.115 317.76C178.439 317.155 178.572 316.465 178.497 315.782C178.421 315.099 178.141 314.456 177.692 313.935C177.243 313.415 176.648 313.043 175.984 312.868C176.12 312.137 176.969 307.598 177.021 307.275C177.344 307.156 177.837 306.816 177.854 306.459C177.871 306.102 177.854 302.753 177.854 302.277C177.854 302.09 177.616 301.954 177.412 301.852C180.812 298.86 182.512 297.211 182.715 297.228L183.277 298.061C178.176 303.773 182.988 311.661 190.298 310.267C194.225 309.468 197.641 305.354 196.706 301.495C196.419 300.378 195.875 299.345 195.116 298.477C194.357 297.609 193.406 296.931 192.338 296.497C192.295 296.468 192.245 296.452 192.193 296.452C192.141 296.452 192.091 296.468 192.049 296.497C191.029 297.925 191.012 297.857 191.08 298.027C191.094 298.066 191.117 298.101 191.146 298.13C191.175 298.16 191.211 298.182 191.25 298.197C192.164 298.457 192.987 298.967 193.627 299.67C194.267 300.373 194.698 301.24 194.87 302.175C194.929 303.218 194.728 304.259 194.286 305.205C193.844 306.151 193.175 306.973 192.338 307.598C191.709 308.091 190.91 307.462 191.556 306.952C195.245 304.011 194.089 300.152 190.689 299.098C190.656 299.087 190.622 299.084 190.588 299.087C190.554 299.089 190.521 299.099 190.491 299.115C190.461 299.131 190.434 299.152 190.413 299.179C190.391 299.205 190.375 299.235 190.366 299.268C190.06 300.288 189.907 300.56 190.23 300.645C190.6 300.768 190.937 300.972 191.218 301.243C191.498 301.514 191.714 301.844 191.85 302.21C191.985 302.576 192.037 302.967 192.001 303.355C191.964 303.744 191.841 304.119 191.641 304.453C191.367 305.029 190.948 305.523 190.426 305.888C189.903 306.252 189.295 306.475 188.66 306.533C188.026 306.591 187.387 306.484 186.806 306.22C186.226 305.957 185.724 305.547 185.351 305.031C185.05 304.488 184.935 303.862 185.024 303.248C185.113 302.634 185.401 302.066 185.844 301.631L186.234 302.107C186 302.532 185.906 303.019 185.964 303.501C186.022 303.983 186.23 304.434 186.559 304.79C186.888 305.147 187.321 305.391 187.796 305.488C188.271 305.586 188.765 305.531 189.207 305.332C189.65 305.133 190.018 304.8 190.261 304.38C190.504 303.96 190.608 303.474 190.559 302.992C190.511 302.509 190.312 302.054 189.99 301.691C189.668 301.327 189.241 301.075 188.768 300.968C188.768 300.713 189.584 297.568 189.703 297.245C189.812 297.201 189.905 297.126 189.972 297.03C190.038 296.933 190.075 296.818 190.077 296.701C190.179 292.825 190.74 292.723 187.153 292.978L201.178 280.381C204.017 280.381 213.078 279.939 216.087 279.786C235.79 288.286 278.885 306.578 283.832 308.686C283.789 309.927 283.88 311.17 284.104 312.392C284.308 312.647 285.022 312.732 285.651 312.732L286.722 314.279C285.568 315.419 284.679 316.799 284.118 318.321C283.557 319.842 283.337 321.469 283.475 323.085C284.24 328.185 289.476 331.704 294.61 331.704C299.744 331.704 304.946 328.134 305.643 322.677C305.836 320.637 305.358 318.59 304.281 316.847C303.204 315.104 301.587 313.76 299.676 313.021H299.387C297.687 313.242 297.602 312.766 297.347 313.021C296.684 313.582 296.531 313.633 296.582 313.837C296.588 313.883 296.608 313.927 296.638 313.963C296.668 313.999 296.707 314.026 296.752 314.041C298.526 314.522 300.097 315.566 301.228 317.016C302.359 318.466 302.989 320.243 303.025 322.082C303.025 326.468 298.554 329.426 297.925 328.066C297.925 328.066 297.823 327.845 298.18 327.692C299.396 327.024 300.374 325.994 300.978 324.744C301.582 323.495 301.782 322.089 301.55 320.72C301.318 319.352 300.666 318.09 299.684 317.11C298.703 316.129 297.44 315.478 296.072 315.248C296.037 315.241 296.001 315.241 295.966 315.248C295.931 315.255 295.898 315.27 295.87 315.291C295.841 315.312 295.817 315.338 295.799 315.369C295.781 315.4 295.77 315.434 295.766 315.469C295.494 317.679 295.375 317.866 295.647 317.968C296.38 318.232 297.043 318.66 297.586 319.22C298.128 319.78 298.535 320.456 298.775 321.198C299.268 323.68 296.82 326.196 294.321 326.553C290.581 327.046 287.521 323.323 289.952 319.022C290.547 319.855 290.819 320.246 290.972 320.433C289.544 322.83 291.55 324.938 294.236 324.768C294.973 324.672 295.65 324.311 296.14 323.753C296.631 323.195 296.901 322.477 296.901 321.733C296.901 320.99 296.631 320.272 296.14 319.714C295.65 319.155 294.973 318.795 294.236 318.699C294.236 318.699 295.426 313.599 295.596 312.766C295.919 312.664 296.242 312.443 296.191 312.137C296.021 309.468 295.902 312.137 298.146 312.137C298.664 312.137 299.166 311.963 299.573 311.641C299.979 311.32 300.264 310.87 300.382 310.366C300.5 309.861 300.445 309.332 300.224 308.863C300.003 308.395 299.63 308.015 299.166 307.785C299.166 307.666 299.302 307.173 299.319 307.105C299.769 307.135 300.204 307.283 300.58 307.533C300.956 307.784 301.259 308.129 301.461 308.533C301.629 309.113 301.655 309.724 301.536 310.316C301.418 310.908 301.159 311.463 300.781 311.933C300.475 312.341 301.274 312.409 302.294 313.174C302.322 313.198 302.355 313.216 302.392 313.225C302.428 313.234 302.466 313.234 302.502 313.226C302.538 313.218 302.572 313.201 302.601 313.177C302.63 313.153 302.653 313.123 302.668 313.089C304.606 309.332 303.875 306.119 299.829 305.252C299.829 305.116 299.914 304.589 299.931 304.504C305.031 305.422 305.66 308.992 303.467 313.701C303.431 313.744 303.411 313.798 303.411 313.854C303.411 313.91 303.431 313.964 303.467 314.007C303.993 314.449 304.283 315.078 304.555 314.704C308.312 309.604 305.524 303.637 299.965 303.314V300.135C299.965 299.88 299.863 299.71 263.075 279.922C286.076 279.616 318.019 279.123 321.164 278.443C321.299 278.375 321.3 277.984 320.943 277.916ZM41.8365 217.6C39.8815 220.116 36.4985 221.425 31.5175 221.612C32.5002 216.525 34.7252 211.759 37.9945 207.74C39.3254 205.904 40.7794 204.16 42.3465 202.521C43.9002 203.408 45.259 204.599 46.3415 206.023C41.9045 208.828 42.1425 216.869 41.8365 217.6ZM45.3725 217.923C43.0095 216.903 43.2645 217.617 43.3325 216.699C43.4685 214.795 43.8935 209.049 47.2085 206.992C47.8885 207.451 49.2485 208.267 49.7755 208.59L45.3725 217.923ZM70.8725 224.91C67.5988 224.578 64.4662 223.407 61.7775 221.51C60.5875 220.609 61.7775 218.722 63.0525 219.555C65.6293 221.022 68.3456 222.23 71.1615 223.159C71.3915 223.202 71.595 223.334 71.7273 223.527C71.8596 223.72 71.9098 223.958 71.867 224.187C71.8242 224.417 71.6918 224.621 71.4989 224.753C71.306 224.886 71.0685 224.936 70.8385 224.893L70.8725 224.91ZM88.3995 226.831C85.5539 227.001 82.6981 226.813 79.8995 226.27C79.68 226.151 79.5082 225.959 79.4131 225.728C79.3179 225.497 79.3052 225.241 79.3769 225.001C79.4487 224.762 79.6007 224.555 79.8073 224.414C80.0139 224.274 80.2626 224.209 80.5115 224.23C83.0109 224.632 85.5309 224.893 88.0595 225.012C89.2325 224.825 89.6405 226.627 88.3995 226.831ZM243.95 278.8C238.221 278.902 238.629 278.919 238.425 279.021C227.562 273.785 217.702 269.025 214.625 267.563L221.17 267.206C225.216 269.297 234.26 273.87 243.95 278.8ZM179.995 279.48C180.367 278.984 180.702 278.461 180.999 277.916C182.351 261.575 182.078 245.141 180.183 228.854C178.092 210.8 174.284 199.648 166.396 188.904C167.746 188.565 169.014 187.952 170.119 187.104C171.224 186.256 172.144 185.191 172.822 183.974L181.679 188.768C183.566 205.428 196.469 268.447 197.319 268.481L202.13 268.243C199.138 270.997 194.769 275.043 190.128 279.429L179.995 279.48ZM188.836 280.619L179.69 289.255C178.601 288.602 177.465 288.034 176.29 287.555C176.001 286.399 175.695 284.393 175.609 283.832C176.878 282.966 178.022 281.931 179.01 280.755L188.836 280.619ZM175.1 287.691C173.931 288.557 172.657 289.271 171.309 289.816C168.533 290.796 165.515 290.85 162.706 289.969C162.283 288.776 162.036 287.527 161.976 286.263C166.182 287.079 170.541 286.437 174.335 284.444C174.516 285.542 174.771 286.627 175.1 287.691ZM171.7 170.391C173.975 170.937 176.017 172.193 177.531 173.978C178.551 175.82 178.911 177.955 178.551 180.03L169.269 175.508C168.743 175.129 168.103 174.942 167.456 174.979C166.809 175.016 166.194 175.275 165.715 175.712C165.359 175.253 164.849 174.641 164.509 174.25C167.467 173.638 170 172.839 171.7 170.391ZM162.826 173.247C161.165 172.04 159.607 170.698 158.168 169.235C162.452 169.592 167.331 167.535 169.048 163.217C169.609 165.512 170.153 167.637 170.748 169.728C169.286 172.04 165.665 172.89 162.894 173.247H162.826ZM191.08 106.811C191.08 106.692 190.961 106.913 191.199 106.352C193.357 109.123 192.899 113.356 192.712 116.841C191.303 136.141 186.328 155.012 178.041 172.499C177.025 171.391 175.752 170.55 174.335 170.051C178.346 163.251 179.842 157.369 187.935 131.699C190.4 123.896 193.511 114.206 191.08 106.811ZM190.026 169.507C191.25 170.612 191.215 172.499 191.215 174.148C191.308 175.166 191.181 176.192 190.842 177.157C190.485 177.871 189.788 178.398 189.363 178.296C188.938 178.194 188.853 177.548 188.836 177.14C188.598 175.44 188.394 173.74 188.258 172.193C188.24 172.118 188.198 172.051 188.138 172.003C188.078 171.955 188.003 171.929 187.926 171.929C187.849 171.929 187.774 171.955 187.714 172.003C187.654 172.051 187.612 172.118 187.595 172.193C187.493 174.216 188.632 179.503 186.676 178.755C185.861 178.449 185.81 173.655 185.793 172.788C185.772 172.678 185.712 172.58 185.625 172.511C185.537 172.443 185.428 172.408 185.317 172.414C185.028 172.414 184.858 172.771 184.926 175.814C184.926 177.191 185.742 179.418 184.297 179.214C184.144 179.214 184.093 179.095 184.008 178.772C183.616 177.003 183.428 175.195 183.447 173.383C183.447 172.958 182.767 172.839 182.699 173.298C182.617 173.736 182.56 174.179 182.529 174.624C181.968 174.624 180.03 174.811 179.316 174.896C179.182 174.512 179.023 174.137 178.84 173.774C179.469 172.482 180.115 171.122 180.743 169.728C185.691 165.971 189.346 168.878 190.026 169.507ZM181.526 167.807C182.733 164.985 183.889 162.044 184.926 159.035C185.113 160.582 185.691 165.495 185.725 166.498C184.263 166.575 182.84 167.001 181.577 167.739L181.526 167.807ZM182.444 175.61C182.425 176.65 182.527 177.688 182.75 178.704H179.792C179.817 177.757 179.732 176.809 179.537 175.882C180.404 175.746 181.798 175.627 182.495 175.542L182.444 175.61ZM179.775 179.758H183.175C183.344 179.964 183.556 180.131 183.797 180.245C184.038 180.359 184.302 180.418 184.569 180.418C184.835 180.418 185.099 180.359 185.34 180.245C185.581 180.131 185.793 179.964 185.963 179.758C186.151 179.917 186.37 180.035 186.605 180.107C186.841 180.178 187.089 180.201 187.333 180.174C187.578 180.147 187.815 180.071 188.029 179.95C188.244 179.828 188.431 179.665 188.581 179.469C188.866 179.628 189.188 179.712 189.516 179.712C189.843 179.712 190.165 179.628 190.451 179.469C195.755 179.656 191.403 178.449 203.609 184.467C188.037 186.677 188.309 187.119 182.682 187.867C181.372 181.475 181.356 181.492 179.792 180.71C179.775 180.302 179.809 179.996 179.826 179.69L179.775 179.758ZM191.539 178.415C192.182 177.224 192.471 175.873 192.372 174.522H193.664C193.664 175.27 193.783 177.922 193.766 178.432L191.539 178.415ZM204.204 204.748C209.644 205.615 215.135 206.448 220.558 207.247C221.833 212.551 224.876 226.899 225.522 230.061L209.831 229.211C208.471 223.04 204.883 207.4 204.255 204.68L204.204 204.748ZM208.454 229.143C204.391 228.939 200.685 228.752 197.183 228.616C195.687 222.02 192.083 205.836 191.368 202.64C194.973 203.269 198.73 203.881 202.793 204.527L208.454 229.143ZM221.68 207.4L236.657 209.559C237.643 214.336 240.346 227.63 240.992 230.86L226.797 230.112C225.437 223.601 222.292 209.899 221.68 207.4ZM237.965 209.746L251.77 211.718C252.619 216.274 254.949 228.718 255.51 231.659L242.335 230.928C241.111 224.74 238.459 212.058 238 209.695L237.965 209.746ZM253.13 211.922L267.597 213.962C267.971 218.127 269.093 229.67 269.297 232.441L256.819 231.744C255.816 225.998 253.555 214.2 253.13 211.871V211.922ZM252.891 210.698C252.891 210.698 251.447 203.167 250.886 200.073C255.561 200.838 260.576 201.654 266.628 202.606C266.917 206.006 267.188 209.406 267.494 212.806L252.891 210.698ZM251.549 210.511L237.694 208.454L235.263 197.455L249.56 199.852C249.678 200.6 250.444 204.612 251.6 210.46L251.549 210.511ZM236.3 208.216L221.272 205.955C220.371 202.351 219.351 198.577 218.195 194.446L233.954 197.2C234.77 200.6 235.535 204.187 236.3 208.216ZM220.201 205.785L204 203.337C203.388 200.787 201.416 192.78 201.059 191.318C206.669 192.338 212.126 193.341 217.294 194.259C218.263 197.914 219.299 201.79 220.269 205.785H220.201ZM194.463 174.658C197.472 175.967 202.963 179.197 203.609 179.537C205.309 180.404 205.02 179.758 205.887 183.787C204.969 183.396 195.687 179.146 194.599 178.687C194.677 177.344 194.655 175.997 194.531 174.658H194.463ZM199.886 191.114C200.192 192.576 201.926 200.6 202.487 203.133L191.097 201.433C189.023 192.066 189.397 192.627 189.006 192.525C188.943 192.503 188.876 192.497 188.811 192.509C188.746 192.521 188.685 192.551 188.635 192.594C188.585 192.637 188.547 192.693 188.526 192.755C188.504 192.818 188.5 192.885 188.513 192.95C189.09 195.738 189.635 198.526 190.213 201.314L184.79 200.549C184.042 196.582 183.311 192.616 182.597 188.649C184.858 188.955 197.914 190.774 199.954 191.114H199.886ZM190.4 202.419C191.59 208.369 194.939 224.825 195.704 228.48L190.043 228.276C188.632 221.085 185.487 204.476 184.943 201.467L190.4 202.419ZM195.976 229.721C197.268 235.705 200.786 250.92 201.535 253.98C199.546 253.98 197.438 254.133 195.364 254.32C194.854 251.855 190.961 232.832 190.264 229.313L195.976 229.721ZM197.455 229.806C201.059 230.044 204.867 230.265 208.76 230.486C210.239 236.912 213.503 251.124 214.098 253.674L202.844 253.946C202.299 251.26 198.237 233.036 197.523 229.806H197.455ZM210.12 230.554L225.777 231.37C227.137 238.034 229.772 251.141 230.214 253.3L215.441 253.64C214.319 248.387 211.463 236.079 210.188 230.554H210.12ZM230.52 254.592C231.183 257.788 231.982 261.528 232.9 265.302L218.178 265.965C217.515 262.769 216.767 259.267 215.798 255.017L230.52 254.592ZM227.12 231.438L241.298 232.169L245.378 252.926L231.778 253.266C230.758 248.931 228.208 236.725 227.086 231.438H227.12ZM242.641 232.237C247.01 232.475 251.396 232.679 255.782 232.9C255.782 232.9 259.182 251.192 259.471 252.569L246.551 252.892C245.633 247.911 243.1 235.076 242.607 232.237H242.641ZM257.176 232.968L269.518 233.58C269.977 238.034 271.49 251.94 271.524 252.28L260.882 252.501C260.1 248.387 258.042 237.694 257.141 232.9L257.176 232.968ZM269.076 214.115L281.52 215.815C281.52 218.127 281.656 231.999 281.656 233.07L270.861 232.458C270.402 227.987 269.296 216.801 269.042 214.2L269.076 214.115ZM268.956 212.959C268.786 211.259 268.124 204.459 267.954 202.759L281.452 204.85V214.727L268.956 212.959ZM269.297 199.75C215.934 191.25 217.327 191.658 216.138 190.706C215.604 190.023 215.206 189.244 214.965 188.411C213.01 181.288 199.24 137.411 196.945 132.141C200.345 131.189 215.645 126.888 219.045 125.936C219.612 127.69 220.696 129.23 222.156 130.356C225.556 132.923 236.538 132.362 236.368 121.193L256.7 116.62C264.707 138.499 270.299 175.95 269.263 199.75H269.297ZM227.358 128.605C220.558 127.721 220.847 122.536 220.014 122.791C193.681 130.713 195.041 130.186 194.939 130.373C194.837 130.56 212.177 184.773 212.245 184.892L207.451 183.974C206.414 179.537 206.346 179.452 204.969 178.704C203.592 177.956 194.956 173.604 194.208 173.604C193.46 173.604 192.882 173.502 192.508 173.604C192.508 169.218 191.096 168.504 187.221 166.804C187.221 165.41 186.269 157.811 186.031 156.383C190.283 143.736 192.933 130.606 193.919 117.3C194.242 113.339 194.616 108.477 191.692 105.264C192.253 104.125 192.389 104.737 195.279 104.788C203.592 104.363 206.277 95.149 209.609 88.417C210.345 88.4762 211.08 88.305 211.714 87.9273C212.348 87.5495 212.848 86.9839 213.146 86.309C214.152 86.2503 215.1 85.8131 215.798 85.085C224.396 97.8969 228.465 113.215 227.358 128.605ZM166.005 177.531C166.069 177.287 166.187 177.061 166.35 176.869C166.512 176.677 166.716 176.523 166.945 176.419C167.174 176.315 167.424 176.263 167.676 176.267C167.928 176.271 168.176 176.331 168.402 176.443C170.357 177.191 168.911 180.455 166.974 179.197C166.107 178.704 165.597 178.194 166.005 177.531ZM170.612 177.718C173.417 179.282 179.401 181.832 179.843 182.087C180.334 183.657 180.72 185.259 180.999 186.881C176.221 184.62 172.329 182.614 168.81 180.557C169.39 180.362 169.886 179.974 170.214 179.457C170.542 178.94 170.682 178.326 170.612 177.718ZM198.084 267.053C197.659 264.639 196.231 258.026 195.653 255.374C197.761 255.459 199.835 255.374 201.96 255.374C202.555 257.771 203.099 260.236 203.847 262.582C203.859 262.634 203.881 262.684 203.913 262.728C203.944 262.771 203.984 262.809 204.03 262.837C204.075 262.865 204.126 262.885 204.18 262.893C204.233 262.902 204.287 262.9 204.34 262.888C204.392 262.876 204.441 262.853 204.485 262.822C204.529 262.79 204.566 262.751 204.595 262.705C204.623 262.659 204.642 262.608 204.651 262.555C204.66 262.502 204.658 262.447 204.646 262.395C204.357 260.593 203.643 257.295 203.201 255.34L214.489 255.051C215.356 258.689 216.189 262.378 217.175 266.016C210.8 266.305 204.408 266.594 198.084 267.053ZM234.175 265.2C233.461 261.664 232.713 258.077 231.948 254.507L245.548 254.15L247.639 264.588L234.175 265.2ZM248.506 264.554C248.013 261.511 247.452 258.179 246.806 254.116L259.743 253.759C260.491 257.652 261.171 260.899 261.902 263.959L248.506 264.554ZM262.752 263.925C262.327 260.882 261.8 257.618 261.052 253.725L271.591 253.419C271.727 254.813 272.476 261.766 272.799 263.619L262.752 263.925ZM273.887 263.5C273.887 261.936 273.173 255.731 272.918 253.3L281.537 252.977C281.537 254.677 281.452 259.063 281.537 263.177L273.887 263.5ZM281.554 252.093L272.782 252.229C272.595 250.24 271.218 236.3 270.946 233.529L281.622 234.039C281.639 239.496 281.571 250.257 281.554 252.144V252.093ZM296.956 262.82C292.139 262.933 287.328 263.069 282.523 263.228C282.693 260.134 282.744 256.088 282.744 253.028C285.583 252.909 288.252 252.824 290.853 252.739C290.36 258.349 290.513 258.366 290.853 258.4C291.193 258.434 291.312 258.4 292.043 252.722C293.743 252.722 293.743 252.722 293.913 252.535C293.97 252.463 294.002 252.373 294.002 252.28C294.002 252.187 293.97 252.097 293.913 252.025C293.743 251.838 293.675 251.906 292.213 251.94C292.74 247.673 293.76 237.354 294.015 234.719L297.891 234.889C298.008 234.889 298.12 234.842 298.203 234.76C298.286 234.677 298.333 234.564 298.333 234.447C298.333 234.33 298.286 234.217 298.203 234.134C298.12 234.052 298.008 234.005 297.891 234.005L294.066 233.784L295.613 217.719L302.413 218.637C300.713 232.9 297.347 260.355 296.956 262.871V262.82ZM282.795 233.104V215.951L294.695 217.566C294.423 219.997 293.199 230.741 292.859 233.699L282.795 233.104ZM292.689 234.634C292.23 238.85 291.142 249.662 290.989 251.94C288.592 251.94 285.991 252.042 282.812 252.076V234.175L292.689 234.634ZM303.637 208.063L302.6 217.6L295.8 216.665C296.531 209.1 296.599 209.474 296.412 209.27C296.353 209.212 296.28 209.172 296.2 209.154C296.12 209.136 296.036 209.14 295.959 209.167C295.881 209.193 295.812 209.241 295.76 209.304C295.708 209.367 295.675 209.444 295.664 209.525C295.426 211.854 295.154 214.183 294.899 216.546L282.88 214.846C282.88 212.16 282.727 204.952 282.727 204.952C291.057 206.295 297.585 207.264 303.637 208.114V208.063ZM281.86 111.792C285.583 112.472 297.024 115.311 299.472 116.025C300.485 145.331 298.428 174.663 293.335 203.541L272.612 200.277C272.595 170.818 267.689 141.566 258.094 113.713C257.975 113.407 258.655 113.356 246.33 116.297C246.363 113.723 246.221 111.15 245.905 108.596C248.727 109.021 259.505 109.497 262.428 109.616C262.614 111.603 263.392 113.489 264.662 115.029C265.932 116.569 267.636 117.692 269.552 118.252C271.32 118.711 279.089 118.218 281.86 111.792ZM209.678 49.878C209.899 49.878 210.392 50.456 210.63 50.643C219.351 57.443 231.03 51.408 226.474 41.599C227.936 40.987 238.374 36.244 238.646 36.142C241.338 36.3387 243.879 37.4621 245.837 39.321C248.278 41.2585 250.594 43.348 252.772 45.577C274.005 64.702 276.896 87.907 278.069 114.053C272.867 118.524 265.047 115.464 264.724 107.44C264.719 107.375 264.69 107.315 264.643 107.271C264.596 107.226 264.533 107.202 264.469 107.202C261.392 107.304 249.356 106.947 246.823 106.624C246.007 106.895 245.239 107.29 244.545 107.797C244.545 107.967 244.545 108.103 245.089 116.586C234.464 119.119 235.109 118.881 235.109 119.17C235.109 122.451 234.005 126.769 230.945 128.18C231.953 111.737 227.011 95.4809 217.022 82.382C217.787 81.446 218.311 80.3368 218.548 79.1513C218.785 77.9658 218.728 76.7402 218.382 75.582C219.241 74.8175 219.803 73.7739 219.968 72.6354C220.133 71.497 219.89 70.3369 219.283 69.36C219.687 68.5129 219.827 67.5637 219.685 66.6359C219.542 65.708 219.124 64.8446 218.484 64.158C218.71 63.0206 218.542 61.84 218.007 60.8109C217.473 59.7818 216.603 58.9656 215.543 58.497C215.803 57.8371 215.89 57.1217 215.797 56.4185C215.703 55.7154 215.431 55.0478 215.007 54.4791C214.583 53.9104 214.021 53.4594 213.374 53.1689C212.727 52.8783 212.016 52.7579 211.31 52.819C210.913 51.6959 210.241 50.6904 209.355 49.895C209.461 49.8727 209.57 49.867 209.678 49.878ZM179.384 91.001C180.377 91.3048 181.443 91.2628 182.41 90.882C184.099 89.8847 185.564 88.5475 186.711 86.955C186.734 86.9196 186.748 86.879 186.751 86.8369C186.755 86.7947 186.748 86.7524 186.731 86.7136C186.714 86.6748 186.688 86.6408 186.655 86.6147C186.621 86.5886 186.582 86.5712 186.541 86.564C185.773 86.4667 185.061 86.1104 184.523 85.554C183.986 84.9977 183.654 84.2745 183.583 83.504C183.512 82.7273 183.729 81.9517 184.193 81.3248C184.657 80.6979 185.335 80.2634 186.099 80.104C186.521 80.0692 186.947 80.1204 187.349 80.2543C187.751 80.3882 188.123 80.6022 188.44 80.8833C188.758 81.1644 189.015 81.5068 189.197 81.89C189.379 82.2732 189.482 82.6892 189.499 83.113C189.502 83.1651 189.521 83.2149 189.554 83.2557C189.586 83.2965 189.63 83.3263 189.681 83.3412C189.731 83.356 189.784 83.3551 189.834 83.3386C189.883 83.3221 189.926 83.2908 189.958 83.249C192.337 80.5909 195.487 78.7425 198.968 77.962C201.756 81.957 203.949 81.192 209.695 82.382C209.689 83.1601 209.643 83.9375 209.559 84.711C209.304 84.2273 208.922 83.8217 208.455 83.5374C207.988 83.253 207.453 83.1005 206.907 83.096C206.767 83.0883 206.629 83.1248 206.511 83.2002C206.394 83.2757 206.303 83.3864 206.253 83.5164C206.202 83.6464 206.193 83.7891 206.228 83.9242C206.263 84.0594 206.34 84.18 206.448 84.269C207.74 85.221 210.647 84.762 207.128 91.188C204.799 95.421 202.027 104.584 194.31 103.445C193.374 103.445 192.083 102.901 191.148 103.7C190.597 104.661 190.157 105.682 189.839 106.743C185.232 107.27 181.118 103.156 179.146 99.059C176.646 94.095 178.245 92.582 179.384 91.001ZM170.561 87.329C170.782 87.448 171.02 87.584 171.258 87.686C171.898 88.7159 172.857 89.5088 173.989 89.9444C175.121 90.38 176.365 90.4346 177.531 90.1C177.75 90.3023 177.996 90.4738 178.262 90.61C177.359 91.4453 176.76 92.5581 176.562 93.772C175.882 100.028 183.583 109.344 190.162 107.848C190.63 109.598 190.796 111.414 190.655 113.22C190.417 121.958 187.255 129.183 182.852 143.293C177.122 161.551 175.763 164.713 172.992 169.677L171.836 169.303C171.037 165.784 168.691 157.063 168.215 155.193C171.771 149.955 174.985 144.492 177.837 138.839C179.112 136.034 180.183 133.008 181.237 129.948C186.932 114.019 180.523 100.81 162.537 93.262C156.145 90.865 160.701 86.428 170.561 87.329ZM105.128 219.181C104.669 220.184 101.133 225.131 99.2965 225.131C99.0303 225.137 98.7707 225.047 98.5656 224.877C98.3605 224.708 98.2236 224.469 98.1802 224.207C98.1367 223.944 98.1896 223.674 98.3291 223.447C98.4687 223.221 98.6854 223.052 98.9395 222.972C100.647 221.647 102.173 220.104 103.479 218.382C103.593 218.179 103.781 218.027 104.004 217.957C104.227 217.887 104.468 217.905 104.678 218.007C104.888 218.109 105.052 218.287 105.135 218.505C105.219 218.723 105.216 218.965 105.128 219.181ZM113.526 207.111C113.084 207.825 111.673 210.987 111.282 211.922C111.236 212.072 111.159 212.211 111.056 212.33C110.953 212.448 110.826 212.544 110.684 212.61C110.542 212.677 110.387 212.713 110.23 212.716C110.073 212.719 109.917 212.689 109.773 212.628C109.628 212.567 109.498 212.476 109.39 212.362C109.283 212.247 109.201 212.112 109.149 211.963C109.097 211.815 109.077 211.658 109.09 211.501C109.103 211.345 109.149 211.193 109.225 211.055C109.616 210.137 111.622 206.941 112.098 206.227C112.215 206.038 112.402 205.903 112.619 205.852C112.836 205.801 113.064 205.838 113.254 205.955C113.443 206.072 113.578 206.26 113.629 206.477C113.68 206.693 113.643 206.922 113.526 207.111ZM117.3 200.6C117.159 200.82 116.945 200.983 116.696 201.06C116.446 201.137 116.178 201.123 115.938 201.022C115.698 200.92 115.501 200.736 115.383 200.504C115.265 200.271 115.233 200.004 115.294 199.75C115.464 199.138 116.994 195.16 117.266 194.14C117.345 193.948 117.489 193.79 117.673 193.694C117.857 193.598 118.069 193.57 118.272 193.615C118.475 193.659 118.655 193.774 118.782 193.938C118.909 194.103 118.974 194.307 118.966 194.514C118.6 196.59 118.042 198.627 117.3 200.6ZM121.363 179.486C120.101 182.275 118.04 184.627 115.44 186.244C112.84 187.86 109.819 188.667 106.76 188.564C105.704 188.615 104.648 188.465 103.649 188.122C103.452 188.042 103.291 187.895 103.194 187.707C103.098 187.519 103.072 187.302 103.121 187.096C103.17 186.891 103.292 186.709 103.464 186.586C103.635 186.462 103.846 186.404 104.057 186.422C107.125 186.549 110.178 185.911 112.938 184.563C115.698 183.216 118.079 181.202 119.867 178.704C119.993 178.554 120.167 178.452 120.36 178.416C120.553 178.38 120.752 178.412 120.924 178.506C121.096 178.6 121.23 178.751 121.304 178.932C121.378 179.114 121.386 179.316 121.329 179.503L121.363 179.486ZM144.228 184.756C137.618 182.477 131.546 178.866 126.388 174.147C121.23 169.427 117.095 163.7 114.24 157.318C114.104 156.179 110.721 152.643 115.94 143.82C118.481 139.599 121.274 135.534 124.304 131.648C133.263 119.646 140.386 110.942 152.133 102.595C155.065 100.898 158.411 100.049 161.798 100.146C165.184 100.242 168.477 101.278 171.309 103.139C171.751 103.462 172.227 102.765 171.785 102.425C165.426 97.325 155.499 97.699 148.699 103.088C146.761 104.788 145.044 103.479 143.599 101.388C150.399 92.667 150.093 93.874 151.572 89.913C153.272 85.357 161.551 84.014 167.416 83.827C167.728 84.6442 168.202 85.3901 168.81 86.02C159.051 85.255 155.21 91.222 161.007 94.027C167.382 96.594 187.187 106.318 181.05 126.089C178.636 133.909 176.885 138.839 167.875 153.442C167.501 151.997 163.132 134.742 163.047 133.229C163.693 132.702 169.184 129.166 177.548 123.862C178.041 123.539 177.548 122.774 177.089 123.08C162.163 132.056 161.398 131.801 161.449 133.45C161.449 134.317 168.096 159.12 168.538 160.854C168.372 162.048 167.932 163.188 167.254 164.184C166.576 165.181 165.677 166.007 164.628 166.6C162.289 168.003 159.497 168.442 156.842 167.824C152.409 162.57 148.646 156.785 145.639 150.603C134.742 130.458 137.955 121.805 150.178 107.27C150.256 107.182 150.297 107.066 150.291 106.948C150.284 106.83 150.231 106.72 150.144 106.641C150.056 106.562 149.94 106.521 149.822 106.528C149.704 106.534 149.593 106.587 149.515 106.675C146.06 110.326 143.047 114.372 140.539 118.728C134.453 129.71 139.247 141.423 143.361 149.328C146.647 156.326 150.867 162.845 155.907 168.708C154.971 170.272 147.254 182.172 144.194 184.773L144.228 184.756ZM150.467 179.282C152.847 175.729 155.652 171.292 156.689 169.371C158.627 171.292 163.2 174.641 164.984 176.8C164.798 177.082 164.676 177.403 164.626 177.738C164.577 178.073 164.602 178.414 164.699 178.739C164.796 179.063 164.964 179.362 165.189 179.614C165.415 179.867 165.693 180.067 166.005 180.2L171.819 183.396C171.152 184.538 170.235 185.514 169.137 186.25C168.038 186.986 166.787 187.464 165.478 187.646L164.9 186.83C164.39 182.886 164.475 183.022 164.271 182.954C162.911 182.478 154.241 180.081 150.433 179.299L150.467 179.282ZM161.772 298.588C161.772 297.653 162.537 292.995 162.894 291.397C165.091 292.076 167.421 292.204 169.68 291.772C171.939 291.339 174.057 290.358 175.848 288.915C176.88 289.126 177.868 289.511 178.772 290.054C175.168 293.454 171.972 296.497 169.694 298.673C168.164 298.809 162.741 298.707 161.738 298.605L161.772 298.588ZM177.31 315.248C177.383 315.725 177.339 316.212 177.182 316.668C177.025 317.124 176.76 317.535 176.409 317.866C176.105 318.04 175.766 318.143 175.417 318.169C175.068 318.195 174.718 318.142 174.392 318.015C174.066 317.888 173.772 317.689 173.533 317.434C173.294 317.179 173.115 316.873 173.009 316.54C172.933 316.227 172.927 315.902 172.993 315.587C173.058 315.272 173.192 314.976 173.385 314.719C173.579 314.462 173.827 314.251 174.111 314.102C174.396 313.952 174.71 313.868 175.032 313.854C176.34 313.956 177.089 314.5 177.276 315.265L177.31 315.248ZM174.845 312.8C174.147 312.897 173.492 313.192 172.958 313.65C172.499 312.987 168.504 307.768 168.13 307.258L175.933 307.36C175.593 309.026 174.998 311.882 174.845 312.8ZM176.647 306.136C175.593 306.136 170.714 306.136 166.107 306.221C166.047 305.168 166.047 304.112 166.107 303.059C166.344 303.059 175.593 302.804 176.681 302.821C176.8 303.45 176.681 305.422 176.647 306V306.136ZM183.787 297.245L188.495 297.381C186.999 302.685 187.884 300.577 186.643 301.614C186.167 300.798 184.416 298.146 183.787 297.177V297.245ZM188.887 302.345C189.124 302.469 189.317 302.664 189.439 302.904C189.561 303.143 189.605 303.413 189.566 303.679C189.527 303.944 189.406 304.191 189.22 304.384C189.034 304.578 188.793 304.709 188.53 304.759C186.099 304.725 186.643 301.563 188.836 302.26L188.887 302.345ZM188.989 294.219C188.989 294.695 188.887 296.038 188.87 296.242H183.617L185.844 294.236C186.643 294.1 188.394 294.1 188.938 294.1L188.989 294.219ZM202.589 279.242L206.431 275.842C207.111 276.148 209.678 277.27 213.469 278.885C209.95 278.8 205.088 279.021 202.47 279.157L202.589 279.242ZM295.596 321.742C295.58 322.134 295.468 322.516 295.269 322.854C295.071 323.192 294.791 323.476 294.457 323.68C293.946 323.802 293.409 323.736 292.944 323.493C290.598 322.711 292.672 319.566 294.117 320.093C295.023 320.32 295.477 320.824 295.477 321.606L295.596 321.742ZM291.55 319.6C291.397 319.379 287.674 314.075 286.824 312.8H294.372C292.4 321.385 293.76 317.543 291.55 319.6ZM284.869 311.678C284.758 310.719 284.724 309.752 284.767 308.788L294.729 308.941C294.729 309.502 294.729 310.93 294.831 311.644C293.335 311.576 285.889 311.695 284.869 311.661V311.678ZM294.865 307.87C293.862 307.87 285.328 307.649 284.325 307.734L206.278 274.414C205.921 274.533 175.678 301.614 175.542 301.716H168.045C173.91 296.276 202.045 269.756 203.864 268.056L212.16 267.58C214.165 268.583 291.583 305.949 294.542 307.394L294.865 307.87ZM293.25 304.3H298.35C298.18 305.252 297.959 306.629 297.823 307.581C297.315 307.612 296.831 307.81 296.446 308.142C295.596 307.105 293.981 305.15 293.25 304.3ZM299.166 309.978C299.157 310.286 299.031 310.58 298.812 310.798C298.594 311.016 298.301 311.142 297.993 311.151C297.761 311.151 297.534 311.082 297.341 310.953C297.148 310.824 296.998 310.641 296.909 310.427C296.82 310.213 296.797 309.977 296.842 309.749C296.887 309.522 296.999 309.313 297.163 309.149C297.327 308.984 297.536 308.873 297.764 308.828C297.991 308.782 298.227 308.805 298.441 308.894C298.656 308.983 298.839 309.133 298.968 309.326C299.097 309.519 299.166 309.746 299.166 309.978ZM298.656 300.628V303.246C296.786 303.246 292.536 303.365 291.635 303.348C291.635 302.838 291.55 301.325 291.516 300.611C294.1 300.509 297.789 300.509 298.656 300.543V300.628ZM290.955 304.266C291.293 304.31 291.636 304.31 291.975 304.266L293.148 305.728L278.8 298.571C279.361 298.078 280.5 297.092 280.789 296.718L290.326 301.512C290.343 302.498 290.479 304.011 290.955 304.181V304.266ZM281.265 292.893C281.465 293.099 281.592 293.366 281.626 293.652C281.66 293.938 281.598 294.227 281.452 294.474C281.282 294.712 278.477 297.551 277.814 298.18L275.315 296.939C278.987 293.267 280.058 291.618 281.265 292.808V292.893ZM276.165 294.593C275.689 295.052 274.754 295.97 274.363 296.412C271.898 295.205 255.969 287.47 241.026 280.245L246.755 280.16C258.893 286.161 271.388 292.4 276.182 294.559L276.165 294.593Z" fill="#1C1C1C"/>
</svg>
