<svg width="20" height="26" viewBox="0 0 20 26" fill="none" xmlns="http://www.w3.org/2000/svg">
<mask id="mask0_1918_77810" style="mask-type:luminance" maskUnits="userSpaceOnUse" x="0" y="0" width="20" height="26">
<path d="M11.1373 18.3268C11.3859 18.5754 11.647 18.7868 11.9453 18.9733H10.2175C10.5407 18.7868 10.8515 18.563 11.1373 18.3268ZM10.5158 20.8134V19.9058H14.8167C16.5817 19.9058 18.1355 19.023 19.0802 17.6802V20.8134C19.0802 22.9768 17.4394 24.7672 15.3263 25.0283C15.2144 25.0283 15.1025 25.0408 14.9907 25.0408H14.394C12.2188 24.8419 10.5034 23.0266 10.5034 20.8134M0.932256 20.9378V16.4245C2.08825 18.5008 4.28838 19.9058 6.79926 19.9058C6.8987 19.9058 7.01057 19.9058 7.11001 19.9058H9.57116V20.8134C9.57116 22.5541 10.4537 24.0958 11.7837 25.0408H5.02175C2.75947 25.0408 0.919833 23.2006 0.919833 20.9378M1.00683 13.6891C1.00683 13.6891 1.06899 13.801 1.10628 13.8508C1.66563 14.7211 2.4363 15.4174 3.41827 15.9271C4.56184 16.5364 5.7054 16.7229 6.30204 16.7975V18.9733C3.5177 18.7371 1.2803 16.4991 1.00683 13.7016M10.491 14.6838C10.491 13.1296 11.3487 11.762 12.6165 11.016V13.1048C12.6165 14.5843 12.0696 15.9396 11.1871 16.9715C10.752 16.3126 10.5034 15.5168 10.5034 14.6714M11.7837 17.6927C12.8776 16.4866 13.5488 14.8703 13.5488 13.0923V10.6057C13.9465 10.4938 14.3567 10.4192 14.7794 10.4192C17.1411 10.4192 19.0677 12.3215 19.0677 14.6589C19.0677 16.9964 17.1411 18.8987 14.7794 18.8987C13.6109 18.8987 12.5544 18.4262 11.7837 17.6802M3.84089 15.0941C3.00808 14.6589 2.34929 14.0621 1.88938 13.3286C1.36731 12.5204 1.08141 11.5382 1.00683 10.4067C1.55376 10.4813 2.51087 10.6678 3.4307 11.1527C4.26351 11.5879 4.92231 12.1847 5.39465 12.9183C5.91672 13.7264 6.20262 14.7087 6.2772 15.8401C5.73027 15.7655 4.77314 15.579 3.85331 15.0941M7.24674 10.3943H11.8459C10.4786 11.3268 9.58358 12.8934 9.58358 14.6589C9.58358 15.7531 9.93164 16.7726 10.5283 17.6181C9.62089 18.3765 8.48975 18.8738 7.24674 18.9609V10.4067V10.3943ZM12.629 5.64474V9.36232C12.3306 9.42449 12.0199 9.46179 11.7091 9.46179H8.14171L12.6414 5.64474H12.629ZM6.16531 12.4085C5.60596 11.5382 4.83529 10.8419 3.85331 10.3321C2.72218 9.73532 1.59105 9.53639 0.994411 9.47422V5.60744L6.31448 10.2078V12.6696C6.26476 12.5826 6.21503 12.4955 6.16531 12.4209M0.981968 4.38898C1.28029 2.4245 2.98322 0.920069 5.03419 0.920069H6.31448V9.00175L0.981968 4.38898ZM7.2343 0.920069H11.7216C14.0708 0.932502 15.9851 2.84724 15.9851 5.20958C15.9851 6.91295 14.9907 8.38008 13.5488 9.07635V4.67494C13.5488 4.50088 13.4494 4.32681 13.2878 4.25221C13.1262 4.17761 12.9273 4.20248 12.7905 4.31438L7.24674 9.02662V0.907635L7.2343 0.920069ZM16.9049 5.20958C16.9049 3.43161 16.0099 1.865 14.6551 0.920069H14.9783C17.2405 0.920069 19.0802 2.76021 19.0802 5.02308V11.7371C18.1355 10.3819 16.5693 9.49909 14.8042 9.49909H14.6426C16.0099 8.55415 16.9049 6.98755 16.9049 5.20958ZM11.7216 0H5.02175C2.24984 0 0 2.25044 0 5.02308V20.9502C0 23.7228 2.24984 25.9733 5.02175 25.9733H14.3568C14.4935 25.9857 14.6426 25.9857 14.7794 25.9857C14.9907 25.9857 15.202 25.9733 15.4009 25.9484C17.9739 25.7371 20 23.5736 20 20.9502V14.9946C20 14.9076 20 14.8081 20 14.7087C20 14.6092 20 14.5222 20 14.4227V5.02308C20 2.25044 17.7502 0 14.9783 0H11.7216Z" fill="white"/>
</mask>
<g mask="url(#mask0_1918_77810)">
<path d="M20.0234 -0.0117188H0.0234375V25.9864H20.0234V-0.0117188Z" fill="white"/>
</g>
</svg>
