<svg width="20" height="20" viewBox="0 0 20 20" fill="none" xmlns="http://www.w3.org/2000/svg">
<path d="M2.08594 9.99967C2.08594 6.26772 2.08594 4.40175 3.2453 3.24237C4.40468 2.08301 6.27065 2.08301 10.0026 2.08301C13.7345 2.08301 15.6005 2.08301 16.7599 3.24237C17.9193 4.40175 17.9193 6.26772 17.9193 9.99967C17.9193 13.7316 17.9193 15.5976 16.7599 16.757C15.6005 17.9163 13.7345 17.9163 10.0026 17.9163C6.27065 17.9163 4.40468 17.9163 3.2453 16.757C2.08594 15.5976 2.08594 13.7316 2.08594 9.99967Z" stroke="#E3E3E3" stroke-linejoin="round"/>
<path d="M8.78057 9.17275C8.09719 9.07617 6.53953 9.236 5.77574 10.6483C5.01194 12.0606 5.78173 13.5305 6.2621 14.0889C6.73647 14.6113 8.2442 15.6007 9.84348 14.6347C10.2399 14.3953 10.7337 14.2167 11.294 12.3459L11.2288 4.98438C11.1207 5.79499 12.0162 7.69629 14.5657 7.92125" stroke="#E3E3E3" stroke-linecap="round" stroke-linejoin="round"/>
</svg>
