<svg width="50" height="50" viewBox="0 0 50 50" fill="none" xmlns="http://www.w3.org/2000/svg">
<path d="M40.6276 36.4583C40.6276 39.3348 38.2957 41.6667 35.4193 41.6667C32.5428 41.6667 30.2109 39.3348 30.2109 36.4583C30.2109 33.5819 32.5428 31.25 35.4193 31.25C38.2957 31.25 40.6276 33.5819 40.6276 36.4583Z" stroke="#1C1C1C" stroke-width="1.875"/>
<path d="M19.7917 36.4583C19.7917 39.3348 17.4598 41.6667 14.5833 41.6667C11.7069 41.6667 9.375 39.3348 9.375 36.4583C9.375 33.5819 11.7069 31.25 14.5833 31.25C17.4598 31.25 19.7917 33.5819 19.7917 36.4583Z" stroke="#1C1C1C" stroke-width="1.875"/>
<path d="M30.2057 36.459H19.7891M4.16406 8.33398H24.9974C27.9436 8.33398 29.4168 8.33398 30.3322 9.24928C31.2474 10.1646 31.2474 11.6377 31.2474 14.584V32.2923M32.2891 13.5423H36.042C37.7705 13.5423 38.6347 13.5423 39.3511 13.9479C40.0674 14.3536 40.5122 15.0946 41.4014 16.5767L44.9401 22.4746C45.3826 23.2121 45.6039 23.5811 45.7174 23.9904C45.8307 24.3998 45.8307 24.8298 45.8307 25.6902V31.2507C45.8307 33.1977 45.8307 34.1713 45.412 34.8965C45.1378 35.3715 44.7432 35.7661 44.2682 36.0402C43.543 36.459 42.5695 36.459 40.6224 36.459M4.16406 27.084V31.2507C4.16406 33.1977 4.16406 34.1713 4.58273 34.8965C4.857 35.3715 5.2515 35.7661 5.72656 36.0402C6.45173 36.459 7.42527 36.459 9.3724 36.459" stroke="#1C1C1C" stroke-width="1.875" stroke-linecap="round" stroke-linejoin="round"/>
<path d="M4.16406 14.584H16.6641M4.16406 20.834H12.4974" stroke="#1C1C1C" stroke-width="1.875" stroke-linecap="round" stroke-linejoin="round"/>
</svg>
