<svg width="340" height="340" viewBox="0 0 340 340" fill="none" xmlns="http://www.w3.org/2000/svg">
<rect width="340" height="340" fill="white"/>
<path d="M257.066 282.166C256.93 286.103 254.824 289.355 252.346 289.355C250.89 289.355 249.561 288.233 248.687 286.509C248.175 286.762 247.66 287.017 247.137 287.272C248.296 289.581 250.18 291.057 252.346 291.057C254.904 291.057 257.095 290.912 259.188 288.93C261.558 286.688 262.377 282.905 261.883 279.493C260.361 280.358 258.756 281.253 257.066 282.167V282.166Z" fill="#1C1C1C"/>
<path d="M106.47 276.61C104.122 274.045 99.2497 274.716 98.109 275.405C91.8088 277.742 92.1862 291.116 98.6768 292.612C100.71 293.081 104.071 292.69 106.165 290.71C109.805 287.266 109.586 280.017 106.47 276.61ZM95.2802 283.922C95.2802 280.071 97.2981 276.819 99.6849 276.819C102.072 276.819 104.09 280.073 104.09 283.922C104.09 287.771 102.072 291.026 99.6849 291.026C97.2981 291.026 95.2802 287.772 95.2802 283.922Z" fill="#1C1C1C"/>
<path d="M172.709 314.197C170.555 311.843 167.833 312.077 165.433 312.285C160.674 312.703 158.238 317.667 158.238 322.444C158.238 327.906 161.305 332.35 165.072 332.35C167.881 332.35 170.155 332.18 172.37 330.085C176.432 326.243 176.245 318.061 172.709 314.197ZM159.937 322.444C159.937 317.995 162.288 314.238 165.071 314.238C167.853 314.238 170.205 317.995 170.205 322.444C170.205 326.893 167.853 330.65 165.071 330.65C162.288 330.65 159.937 326.893 159.937 322.444Z" fill="#1C1C1C"/>
<path d="M322.04 179.28C276.546 156.063 229.764 139.159 183.164 128.683C176.561 121.164 168.544 112.212 161.844 104.861C154.292 96.577 147.798 89.1514 140.152 84.9337C140.006 82.2868 138.168 80.3454 135.042 79.5668C132.172 78.8545 129.223 79.4648 126.62 80.0071C113.73 82.6846 34.6668 98.9587 22.2755 103.919C19.7306 104.938 18.2618 105.805 17.5444 108.373C16.6213 111.69 16.7879 117.461 20.0519 119.909C21.6567 121.115 23.8327 120.885 25.5956 119.882C27.5217 119.33 30.0496 118.629 33.0569 117.81C35.8959 120.559 34.4696 119.022 68.881 157.386C69.1598 187.352 75.1523 221.246 86.3672 247.991C86.459 248.213 86.3672 248.137 89.3643 250.736C90.2738 254.767 91.4009 260.707 94.3487 269.239C95.9433 273.851 99.9825 276.399 103.887 278.87C123.871 291.507 143.836 302.989 164.217 313.478C164.498 313.417 164.783 313.385 165.074 313.385C166.743 313.385 168.253 314.42 169.337 316.088C170.93 316.892 172.525 317.689 174.121 318.481C177.446 320.129 181.166 321.895 184.952 321.895C198.707 321.895 249.72 297.779 259.791 292.515C262.723 290.982 269.214 288.362 270.452 285.03C271.586 281.982 268.611 279.884 265.833 278.235C271.322 275.072 276.675 271.719 281.881 268.183C282.885 267.497 307.738 224.782 322.458 180.302C322.592 179.897 322.405 179.465 322.038 179.277L322.04 179.28ZM26.7074 116.452C25.7095 118.368 22.7702 119.824 21.0719 118.549C18.7225 116.787 18.2618 112.132 19.1815 108.831C19.6473 107.163 20.737 106.058 22.4965 106.058C23.7953 106.058 25.0329 106.704 25.6534 107.438C27.4503 109.57 27.6254 114.69 26.7074 116.452ZM183.23 130.441C229.024 140.775 274.931 157.449 319.73 180.018C297.808 190.495 275.608 199.964 252.86 206.688C251.623 207.053 234.764 212.702 212.466 217.891C202.26 215.283 191.75 212.442 181.137 209.239C182.682 183.466 183.347 157.318 183.228 130.443L183.23 130.441ZM133.473 253.638C122.924 248.426 112.549 242.459 102.594 235.533C101.609 225.712 100.955 215.852 100.629 205.987C111.362 212.668 122.523 218.448 133.855 223.516C133.422 233.548 133.292 243.598 133.473 253.638ZM133.51 255.552C133.695 264.088 134.103 272.612 134.734 281.105C124.911 275.388 115.305 269.006 106.063 262.046C104.758 253.99 103.678 245.888 102.822 237.757C112.733 244.557 123.043 250.422 133.51 255.552ZM133.937 221.687C122.54 216.561 111.33 210.711 100.564 203.94C100.311 195.017 100.326 186.092 100.613 177.187C111.971 183.942 123.842 189.788 135.932 194.917C135.023 203.808 134.358 212.738 133.937 221.687ZM208.182 248.253C220.553 245.262 232.785 241.793 244.836 237.859C241.655 247.896 238.364 257.941 234.98 267.94C223.875 271.815 212.587 275.247 201.15 278.22C203.751 268.556 206.098 258.556 208.182 248.253ZM199.368 278.295C188.955 275.247 178.172 271.862 167.289 267.922C169.242 258.08 171.073 248.2 172.773 238.313C184.206 242.022 195.521 245.237 206.471 248.149C204.366 258.519 201.996 268.578 199.368 278.295ZM208.551 246.413C210.294 237.639 211.849 228.648 213.211 219.458C226.247 216.413 239.26 212.814 252.207 208.678C251.891 216.333 249.135 224.232 245.467 235.863C233.332 239.858 221.012 243.379 208.551 246.413ZM206.805 246.478C195.842 243.561 184.508 240.341 173.064 236.619C174.585 227.691 176.001 218.759 177.305 209.844C188.889 213.418 200.373 216.544 211.503 219.395C210.131 228.631 208.563 237.665 206.805 246.478ZM171.43 236.084C159.498 232.157 147.458 227.681 135.603 222.43C136.012 213.464 136.669 204.515 137.57 195.607C150.153 200.872 162.961 205.375 175.66 209.334C174.359 218.239 172.947 227.164 171.428 236.084H171.43ZM135.523 224.254C147.316 229.447 159.282 233.884 171.139 237.779C169.445 247.649 167.62 257.511 165.672 267.333C155.513 263.605 145.277 259.381 135.184 254.478C134.987 244.407 135.101 234.321 135.523 224.254ZM165.337 269.02C163.656 277.43 161.885 285.809 160.027 294.137C152.11 290.576 144.247 286.56 136.514 282.134C135.859 273.576 135.429 264.987 135.227 256.387C145.203 261.195 155.307 265.348 165.336 269.02H165.337ZM166.954 269.608C177.802 273.53 188.546 276.899 198.923 279.935C196.49 288.798 193.841 297.371 190.984 305.628C181.207 302.775 171.371 299.154 161.613 294.843C163.483 286.475 165.264 278.057 166.956 269.606L166.954 269.608ZM200.638 280.109C212.011 277.178 223.239 273.798 234.288 269.98C231.391 278.497 228.428 286.98 225.409 295.392C214.911 299.336 204.043 302.702 192.835 305.473C195.64 297.314 198.246 288.85 200.638 280.109ZM236.324 269.27C247.384 265.385 258.259 261.064 268.915 256.317C265.855 264.282 262.63 272.173 259.244 279.973C249.103 285.479 238.509 290.358 227.5 294.596C230.502 286.208 233.446 277.756 236.324 269.27ZM237.016 267.223C240.386 257.242 243.661 247.219 246.827 237.204C258.059 233.485 269.134 229.36 280.019 224.844C276.856 234.67 273.437 244.422 269.773 254.07C259.068 258.889 248.136 263.279 237.016 267.223ZM247.458 235.203C250.973 224.024 253.734 216.085 253.926 208.126C265.564 204.362 277.148 200.163 288.64 195.541C286.212 204.642 283.562 213.71 280.698 222.72C269.799 227.281 258.708 231.446 247.458 235.203ZM179.401 208.711C141.633 197.185 102.68 180.997 71.3749 154.343C98.7755 144.393 128.621 137.035 160.101 132.427C167.173 131.391 174.475 130.244 181.526 130.223C181.649 157.175 180.954 182.86 179.401 208.711ZM38.0753 116.453C69.5508 107.989 134.374 91.3223 136.038 90.3771C136.925 89.8739 137.984 89.2721 138.805 88.4408C145.663 93.4099 149.901 98.8737 176.323 128.715C170.83 129.091 165.354 129.941 159.858 130.744C128.361 135.34 98.4933 142.708 71.0587 152.65C64.3012 144.95 45.455 123.559 38.0753 116.453ZM70.5691 155.888C79.489 163.453 89.0141 170.175 98.9472 176.188C98.6429 185.06 98.6055 193.953 98.835 202.842C89.5139 196.865 80.5413 190.184 72.0889 182.668C71.1165 173.706 70.5946 164.701 70.5691 155.888ZM72.3728 185.184C80.7759 192.516 89.6703 199.046 98.8928 204.896C99.1903 214.693 99.8142 224.485 100.758 234.241C92.7116 228.514 84.9528 222.144 77.619 215.018C75.3376 205.379 73.5679 195.321 72.3728 185.184ZM87.8581 247.156C84.1521 238.291 80.9612 228.456 78.367 218.088C85.5631 224.886 93.1417 230.982 100.982 236.482C101.803 244.54 102.845 252.572 104.105 260.561C98.5409 256.297 93.1145 251.823 87.8581 247.156ZM268.859 284.439C267.891 287.041 261.392 289.761 259.004 291.009C245.647 297.988 196.303 320.749 184.546 320.188C181.322 320.038 178.383 318.697 174.876 316.96C151.166 305.214 127.842 292.036 105.496 277.878C101.625 275.427 97.441 272.988 95.9552 268.685C94.1413 263.435 92.6487 258.022 91.508 252.579C120.257 277.001 155.275 297.129 191.288 307.491C191.434 307.532 191.577 307.533 191.723 307.499C217.806 301.191 242.085 291.698 264.155 279.196C266.134 280.481 269.693 282.198 268.859 284.439ZM280.771 266.885C274.607 271.065 268.237 274.985 261.675 278.638C264.978 270.951 268.126 263.177 271.115 255.333C278.568 251.962 285.911 248.383 293.135 244.599C289.136 252.316 284.987 259.809 280.772 266.885H280.771ZM294.49 241.963C287.108 245.884 279.596 249.59 271.966 253.079C275.582 243.472 278.958 233.763 282.081 223.985C291.056 220.213 299.897 216.172 308.591 211.873C304.277 221.954 299.515 232.12 294.49 241.964V241.963ZM309.615 209.464C300.812 213.865 291.855 217.996 282.76 221.853C285.594 212.865 288.215 203.823 290.615 194.743C300.555 190.701 310.427 186.34 320.211 181.67C317.193 190.607 313.608 199.983 309.615 209.464Z" fill="#1C1C1C"/>
<path d="M197.433 202.32C219.599 192.982 235.983 173.08 241.823 150.732C245.507 136.632 245.282 120.433 255.962 100.178C259.71 93.0682 264.861 84.8266 272.108 81.0152C274.456 79.781 276.976 79.3237 279.536 78.7627C280.141 78.6301 280.183 77.5948 279.536 77.4945C275.027 76.8009 270.453 79.4121 267.073 82.1797C263.321 85.2533 260.355 89.2398 257.859 93.3674C241.527 120.353 245.424 138.873 238.231 158.187C231.004 177.589 215.796 193.599 197.382 202.191C197.31 202.223 197.363 202.349 197.436 202.318L197.433 202.32Z" fill="#1C1C1C"/>
<path d="M305.881 67.5117C304.669 67.3332 303.424 67.4148 302.245 67.7497C302.127 67.1037 301.857 66.4883 301.429 65.9902C301.583 65.3918 301.644 64.4925 302.591 63.3484C302.891 62.9863 302.84 62.4508 302.479 62.1516C302.119 61.8524 301.582 61.9034 301.282 62.2638C300.614 63.073 300.14 64.0199 299.89 65.0314C297.593 64.4942 296.216 65.7556 295.783 67.3502C293.265 64.9787 290.589 62.7534 287.801 60.7185C286.605 59.8447 285.491 59.8039 284.318 61.424C282.798 63.5167 281.204 66.2435 282.372 68.7867C283.007 70.1705 284.235 71.0052 285.671 71.4778C284.481 74.2692 285.836 77.4499 289.309 78.0194C289.019 78.4291 288.752 78.8235 288.514 79.1992C288.254 79.6123 287.769 80.3824 287.88 81.2664C288.05 82.6026 289.775 84.2771 292.351 84.2771C296.198 84.2771 298.659 80.7819 298.947 76.8515C299.069 75.1906 298.848 73.5671 298.535 71.9827C299.997 72.0235 301.65 71.012 302.129 69.5687C302.158 69.5619 302.185 69.5534 302.212 69.5432C303.304 69.1437 304.485 69.0213 305.634 69.193C306.095 69.261 306.53 68.9414 306.598 68.4756C306.666 68.0098 306.347 67.5797 305.881 67.5117ZM283.915 68.0778C283.116 66.337 284.446 64.1423 285.692 62.4236C286.086 61.8779 286.258 61.8184 286.314 61.8184C286.666 61.7589 292.286 66.3336 295.314 69.2525C292.529 70.6261 285.316 71.1293 283.913 68.0795L283.915 68.0778ZM287.128 74.531C286.812 73.7456 286.885 72.7817 287.376 71.8705C288.075 71.9725 288.787 72.015 289.476 72.015C291.24 72.015 293.461 71.7787 295.239 71.1276C293.381 73.0401 291.793 74.82 290.525 76.4146C289.127 76.4435 287.643 75.8111 287.13 74.5327L287.128 74.531ZM297.253 76.7274C297.09 78.9476 296.177 80.804 294.746 81.8206C293.36 82.8049 291.065 82.9341 289.855 81.5588C289.445 81.093 289.466 80.8788 289.952 80.107C290.924 78.5668 292.889 75.9352 296.796 71.9606C297.122 73.545 297.367 75.1515 297.252 76.7291L297.253 76.7274ZM300.062 69.6945C298.612 70.7655 297.672 70.3116 297.394 68.9516C297.162 67.8092 297.604 66.6141 298.885 66.6141C299.73 66.6141 300.334 66.966 300.555 67.9554C300.677 68.4994 300.621 69.2797 300.062 69.6928V69.6945Z" fill="#1C1C1C"/>
<path d="M201.923 86.6521C200.65 82.5704 199.045 77.8886 195.987 74.8643C196.094 73.2833 195.921 71.6615 195.642 70.1519C191.904 49.9984 173.321 31.3086 153.004 27.5193C151.711 27.2779 151.139 29.2193 152.453 29.5168C164.177 32.1807 174.63 38.2837 182.508 47.411C190.187 56.3105 194.326 67.5645 194.477 73.6046C193.184 72.7172 191.7 72.163 190.095 72.2701C187.453 72.4469 184.626 74.1962 183.91 76.8652C183.234 79.3897 184.935 81.853 187.433 82.3817C190.639 83.0617 194.391 81.3821 195.598 77.1644C197.983 80.1479 199.525 84.7957 200.584 88.3844C204.742 102.481 204.081 117.725 199.875 131.726C195.778 145.362 188.439 157.661 179.674 168.789C178.637 170.105 177.591 171.411 176.568 172.737C176.294 173.09 176.876 173.512 177.178 173.208C186.088 164.274 195.89 149.059 200.861 133.876C205.82 118.723 206.704 101.969 201.925 86.6504L201.923 86.6521ZM191.841 80.0901C190.032 81.2002 186.731 81.4824 185.726 79.1398C184.631 76.5864 187.74 74.3781 189.952 74.1384C191.628 73.9565 193.116 74.713 194.345 75.8231C194.073 77.5571 193.354 79.1602 191.841 80.0901Z" fill="#1C1C1C"/>
<path d="M145.753 20.7736C147.696 18.5245 148.412 15.2112 147.251 11.3386C146.746 9.65219 146.029 8.43159 145.063 7.60709C144.708 7.30279 144.176 7.34359 143.87 7.69549C140.232 11.8775 137.597 16.0697 134.81 20.6308C133.61 19.3932 131.143 18.9886 129.68 20.1259C129.161 19.9372 127.953 19.7536 126.557 18.4905C126.208 18.1743 125.671 18.2015 125.357 18.55C125.042 18.8985 125.068 19.4357 125.416 19.7519C126.326 20.5747 127.405 21.1986 128.57 21.576C128.284 22.2475 128.196 22.8884 128.269 23.4919C128.247 23.5123 128.225 23.5327 128.204 23.5548C127.563 24.2552 126.744 24.7703 125.833 25.0423C125.382 25.1766 125.127 25.6492 125.261 26.0997C125.392 26.54 125.86 26.8069 126.319 26.6709C127.324 26.3717 128.245 25.8481 129.015 25.1443C129.892 26.1014 131.23 26.676 132.575 26.4142C132.893 26.3513 133.195 26.2425 133.476 26.0963C133.338 28.6752 133.105 33.1496 131.786 40.7724C131.694 41.3011 132.107 41.772 132.631 41.7669C139.3 41.7074 144.441 35.2984 143.776 29.7819C146.292 29.311 147.803 27.696 148.174 25.9365C148.614 23.8438 147.401 21.8786 145.753 20.7719V20.7736ZM144.543 9.52299C144.978 10.101 145.335 10.8609 145.624 11.8248C147.581 18.3477 143.465 23.1944 135.96 22.0095C138.712 17.4977 141.168 13.5265 144.543 9.52129V9.52299ZM130.304 24.0274C129.845 23.5684 129.894 22.8561 130.093 22.341C130.758 20.6257 133.061 21.0286 133.7 21.9432C134.583 23.208 132.454 26.1762 130.304 24.0274ZM133.646 39.9836C135.048 31.4683 135.162 25.8464 135.314 24.4677C136.93 24.4779 139.072 25.1443 140.561 26.7253C144.613 31.0212 140.261 39.0503 133.646 39.9836ZM146.513 25.5863C146.214 27.0058 144.788 27.8983 143.395 28.1448C143.064 27.22 142.54 26.3445 141.799 25.5591C141.117 24.8366 140.334 24.2688 139.513 23.8387C141.423 23.6415 143.106 22.9972 144.448 21.9908C146.075 22.8561 146.777 24.3385 146.513 25.5863Z" fill="#1C1C1C"/>
</svg>
