<svg width="20" height="20" viewBox="0 0 20 20" fill="none" xmlns="http://www.w3.org/2000/svg">
<path d="M9.9974 17.0837C11.5055 17.0837 12.9516 16.9347 14.2919 16.6615C15.966 16.3202 16.8031 16.1496 17.5669 15.1675C18.3307 14.1854 18.3307 13.0581 18.3307 10.8032V9.19741C18.3307 6.9426 18.3307 5.81522 17.5669 4.83313C16.8031 3.85106 15.966 3.68043 14.2919 3.33918C12.9516 3.06597 11.5055 2.91699 9.9974 2.91699C8.48931 2.91699 7.04314 3.06597 5.70286 3.33918C4.02878 3.68043 3.19174 3.85106 2.4279 4.83313C1.66406 5.81522 1.66406 6.9426 1.66406 9.19741V10.8032C1.66406 13.0581 1.66406 14.1854 2.4279 15.1675C3.19174 16.1496 4.02878 16.3202 5.70286 16.6615C7.04314 16.9347 8.48931 17.0837 9.9974 17.0837Z" stroke="#E3E3E3"/>
<path d="M13.3017 10.2604C13.1781 10.7653 12.5201 11.1278 11.2041 11.8531C9.77267 12.6418 9.057 13.0362 8.47733 12.8843C8.281 12.8328 8.10017 12.7423 7.94832 12.6195C7.5 12.2571 7.5 11.5046 7.5 9.99967C7.5 8.49476 7.5 7.74227 7.94832 7.37982C8.10017 7.25706 8.281 7.16658 8.47733 7.11512C9.057 6.96318 9.77267 7.35755 11.2041 8.14628C12.5201 8.87151 13.1781 9.23409 13.3017 9.73892C13.3438 9.91076 13.3438 10.0886 13.3017 10.2604Z" stroke="#E3E3E3" stroke-linejoin="round"/>
</svg>
